G04 #@! TF.FileFunction,Soldermask,Top*
%FSLAX46Y46*%
G04 Gerber Fmt 4.6, Leading zero omitted, Abs format (unit mm)*
G04 Created by KiCad (PCBNEW 4.0.1-stable) date 2/1/2016 10:13:23 PM*
%MOMM*%
G01*
G04 APERTURE LIST*
%ADD10C,0.150000*%
%ADD11C,0.010000*%
%ADD12C,0.002540*%
%ADD13O,1.552400X1.552400*%
%ADD14R,1.552400X1.552400*%
%ADD15C,4.140210*%
%ADD16C,1.854210*%
%ADD17C,2.652400*%
%ADD18C,2.540000*%
%ADD19C,3.479800*%
%ADD20C,2.252400*%
%ADD21C,2.452400*%
%ADD22C,1.952400*%
%ADD23C,6.152400*%
%ADD24O,1.952400X3.652400*%
%ADD25C,2.152400*%
%ADD26O,0.952400X1.552400*%
%ADD27C,0.802400*%
%ADD28O,1.102400X0.802400*%
%ADD29C,0.752400*%
G04 APERTURE END LIST*
D10*
D11*
G36*
X86580320Y-91435360D02*
X84182560Y-91435360D01*
X84182560Y-92166880D01*
X86580320Y-92166880D01*
X86580320Y-93497840D01*
X86580378Y-93660521D01*
X86580547Y-93817499D01*
X86580822Y-93967585D01*
X86581194Y-94109589D01*
X86581657Y-94242325D01*
X86582204Y-94364602D01*
X86582828Y-94475233D01*
X86583522Y-94573030D01*
X86584279Y-94656804D01*
X86585092Y-94725366D01*
X86585955Y-94777528D01*
X86586860Y-94812102D01*
X86587800Y-94827899D01*
X86588086Y-94828800D01*
X86597397Y-94821938D01*
X86618568Y-94802868D01*
X86649202Y-94773856D01*
X86686900Y-94737174D01*
X86727639Y-94696720D01*
X86859426Y-94564640D01*
X89110160Y-94564640D01*
X89110160Y-93843280D01*
X86712400Y-93843280D01*
X86712400Y-89769120D01*
X92315593Y-89769120D01*
X91482519Y-90602240D01*
X90649446Y-91435360D01*
X88388800Y-91435360D01*
X88388800Y-92166880D01*
X88914608Y-92166879D01*
X89440417Y-92166879D01*
X90113488Y-92840008D01*
X90786560Y-93513136D01*
X90786559Y-94204017D01*
X90786559Y-94894897D01*
X90113431Y-95567968D01*
X89440303Y-96241040D01*
X82516161Y-96241040D01*
X82518633Y-93843280D01*
X84182560Y-93843280D01*
X84182560Y-94564640D01*
X84462129Y-94564640D01*
X84688104Y-94338497D01*
X84914080Y-94112354D01*
X84914080Y-93843280D01*
X84182560Y-93843280D01*
X82518633Y-93843280D01*
X82518780Y-93701204D01*
X82521400Y-91161369D01*
X82414720Y-91267252D01*
X82371065Y-91309981D01*
X82337327Y-91340978D01*
X82309433Y-91363248D01*
X82283309Y-91379795D01*
X82254884Y-91393626D01*
X82229035Y-91404247D01*
X82150031Y-91435359D01*
X81299289Y-91435359D01*
X80448548Y-91435360D01*
X80265879Y-91618240D01*
X80083211Y-91801119D01*
X80265880Y-91983999D01*
X80448548Y-92166880D01*
X82384240Y-92166880D01*
X82384240Y-96241040D01*
X77416000Y-96241040D01*
X77416000Y-94564640D01*
X80718000Y-94564640D01*
X80718000Y-93843280D01*
X80187111Y-93843280D01*
X79656222Y-93843279D01*
X78983002Y-93170002D01*
X78309781Y-92496724D01*
X78312470Y-91846662D01*
X78313076Y-91733099D01*
X78313915Y-91625215D01*
X78314956Y-91524783D01*
X78316169Y-91433575D01*
X78317522Y-91353363D01*
X78318984Y-91285919D01*
X78320525Y-91233015D01*
X78322115Y-91196423D01*
X78323721Y-91177916D01*
X78324140Y-91176280D01*
X78320163Y-91176740D01*
X78303848Y-91189833D01*
X78277172Y-91213772D01*
X78242116Y-91246772D01*
X78200657Y-91287045D01*
X78191929Y-91295660D01*
X78050736Y-91435360D01*
X77283920Y-91435360D01*
X77283920Y-96241040D01*
X75617680Y-96241040D01*
X75617680Y-91435360D01*
X74850553Y-91435360D01*
X74017479Y-90602240D01*
X73184406Y-89769120D01*
X86580320Y-89769120D01*
X86580320Y-91435360D01*
X86580320Y-91435360D01*
G37*
X86580320Y-91435360D02*
X84182560Y-91435360D01*
X84182560Y-92166880D01*
X86580320Y-92166880D01*
X86580320Y-93497840D01*
X86580378Y-93660521D01*
X86580547Y-93817499D01*
X86580822Y-93967585D01*
X86581194Y-94109589D01*
X86581657Y-94242325D01*
X86582204Y-94364602D01*
X86582828Y-94475233D01*
X86583522Y-94573030D01*
X86584279Y-94656804D01*
X86585092Y-94725366D01*
X86585955Y-94777528D01*
X86586860Y-94812102D01*
X86587800Y-94827899D01*
X86588086Y-94828800D01*
X86597397Y-94821938D01*
X86618568Y-94802868D01*
X86649202Y-94773856D01*
X86686900Y-94737174D01*
X86727639Y-94696720D01*
X86859426Y-94564640D01*
X89110160Y-94564640D01*
X89110160Y-93843280D01*
X86712400Y-93843280D01*
X86712400Y-89769120D01*
X92315593Y-89769120D01*
X91482519Y-90602240D01*
X90649446Y-91435360D01*
X88388800Y-91435360D01*
X88388800Y-92166880D01*
X88914608Y-92166879D01*
X89440417Y-92166879D01*
X90113488Y-92840008D01*
X90786560Y-93513136D01*
X90786559Y-94204017D01*
X90786559Y-94894897D01*
X90113431Y-95567968D01*
X89440303Y-96241040D01*
X82516161Y-96241040D01*
X82518633Y-93843280D01*
X84182560Y-93843280D01*
X84182560Y-94564640D01*
X84462129Y-94564640D01*
X84688104Y-94338497D01*
X84914080Y-94112354D01*
X84914080Y-93843280D01*
X84182560Y-93843280D01*
X82518633Y-93843280D01*
X82518780Y-93701204D01*
X82521400Y-91161369D01*
X82414720Y-91267252D01*
X82371065Y-91309981D01*
X82337327Y-91340978D01*
X82309433Y-91363248D01*
X82283309Y-91379795D01*
X82254884Y-91393626D01*
X82229035Y-91404247D01*
X82150031Y-91435359D01*
X81299289Y-91435359D01*
X80448548Y-91435360D01*
X80265879Y-91618240D01*
X80083211Y-91801119D01*
X80265880Y-91983999D01*
X80448548Y-92166880D01*
X82384240Y-92166880D01*
X82384240Y-96241040D01*
X77416000Y-96241040D01*
X77416000Y-94564640D01*
X80718000Y-94564640D01*
X80718000Y-93843280D01*
X80187111Y-93843280D01*
X79656222Y-93843279D01*
X78983002Y-93170002D01*
X78309781Y-92496724D01*
X78312470Y-91846662D01*
X78313076Y-91733099D01*
X78313915Y-91625215D01*
X78314956Y-91524783D01*
X78316169Y-91433575D01*
X78317522Y-91353363D01*
X78318984Y-91285919D01*
X78320525Y-91233015D01*
X78322115Y-91196423D01*
X78323721Y-91177916D01*
X78324140Y-91176280D01*
X78320163Y-91176740D01*
X78303848Y-91189833D01*
X78277172Y-91213772D01*
X78242116Y-91246772D01*
X78200657Y-91287045D01*
X78191929Y-91295660D01*
X78050736Y-91435360D01*
X77283920Y-91435360D01*
X77283920Y-96241040D01*
X75617680Y-96241040D01*
X75617680Y-91435360D01*
X74850553Y-91435360D01*
X74017479Y-90602240D01*
X73184406Y-89769120D01*
X86580320Y-89769120D01*
X86580320Y-91435360D01*
D12*
G36*
X69330700Y-93492760D02*
X69330700Y-93629920D01*
X69330700Y-93741680D01*
X69328160Y-93830580D01*
X69328160Y-93901700D01*
X69325620Y-93955040D01*
X69323080Y-93993140D01*
X69320540Y-94021080D01*
X69315460Y-94036320D01*
X69310380Y-94041400D01*
X69292600Y-94049020D01*
X69249420Y-94059180D01*
X69185920Y-94074420D01*
X69104640Y-94089660D01*
X69008120Y-94109980D01*
X68898900Y-94130300D01*
X68784600Y-94153160D01*
X68657600Y-94176020D01*
X68543300Y-94198880D01*
X68444240Y-94219200D01*
X68362960Y-94236980D01*
X68302000Y-94249680D01*
X68266440Y-94259840D01*
X68256280Y-94264920D01*
X68246120Y-94282700D01*
X68225800Y-94320800D01*
X68200400Y-94379220D01*
X68169920Y-94447800D01*
X68136900Y-94524000D01*
X68103880Y-94607820D01*
X68070860Y-94689100D01*
X68040380Y-94765300D01*
X68014980Y-94833880D01*
X67994660Y-94889760D01*
X67981960Y-94927860D01*
X67979420Y-94943100D01*
X67987040Y-94955800D01*
X68009900Y-94991360D01*
X68045460Y-95044700D01*
X68091180Y-95110740D01*
X68144520Y-95189480D01*
X68202940Y-95275840D01*
X68241040Y-95329180D01*
X68497580Y-95705100D01*
X68497580Y-95872740D01*
X68497580Y-96040380D01*
X68106420Y-96431540D01*
X67715260Y-96822700D01*
X67550160Y-96822700D01*
X67387600Y-96822700D01*
X67016760Y-96568700D01*
X66648460Y-96314700D01*
X66529080Y-96378200D01*
X66412240Y-96444240D01*
X66239520Y-96439160D01*
X66066800Y-96434080D01*
X65688340Y-95524760D01*
X65309880Y-94615440D01*
X65309880Y-94470660D01*
X65309880Y-94407160D01*
X65312420Y-94353820D01*
X65314960Y-94318260D01*
X65317500Y-94305560D01*
X65332740Y-94287780D01*
X65365760Y-94259840D01*
X65411480Y-94224280D01*
X65454660Y-94193800D01*
X65571500Y-94107440D01*
X65668020Y-94026160D01*
X65746760Y-93944880D01*
X65812800Y-93858520D01*
X65871220Y-93759460D01*
X65909320Y-93685800D01*
X65967740Y-93553720D01*
X66000760Y-93434340D01*
X66008380Y-93325120D01*
X66003300Y-93256540D01*
X65957580Y-93091440D01*
X65886460Y-92936500D01*
X65795020Y-92791720D01*
X65678180Y-92659640D01*
X65543560Y-92545340D01*
X65393700Y-92451360D01*
X65373380Y-92441200D01*
X65266700Y-92392940D01*
X65162560Y-92359920D01*
X65063500Y-92339600D01*
X65005080Y-92334520D01*
X64898400Y-92347220D01*
X64779020Y-92380240D01*
X64654560Y-92433580D01*
X64532640Y-92504700D01*
X64418340Y-92588520D01*
X64314200Y-92682500D01*
X64248160Y-92753620D01*
X64187200Y-92842520D01*
X64126240Y-92949200D01*
X64075440Y-93063500D01*
X64034800Y-93172720D01*
X64024640Y-93208280D01*
X64011940Y-93281940D01*
X64006860Y-93350520D01*
X64011940Y-93416560D01*
X64032260Y-93492760D01*
X64062740Y-93586740D01*
X64070360Y-93607060D01*
X64144020Y-93762000D01*
X64240540Y-93904240D01*
X64362460Y-94036320D01*
X64507240Y-94155700D01*
X64606300Y-94224280D01*
X64646940Y-94252220D01*
X64679960Y-94275080D01*
X64695200Y-94287780D01*
X64697740Y-94308100D01*
X64702820Y-94351280D01*
X64702820Y-94407160D01*
X64705360Y-94460500D01*
X64705360Y-94615440D01*
X64337060Y-95499360D01*
X64276100Y-95651760D01*
X64217680Y-95794000D01*
X64161800Y-95928620D01*
X64111000Y-96050540D01*
X64065280Y-96157220D01*
X64027180Y-96248660D01*
X63996700Y-96324860D01*
X63973840Y-96378200D01*
X63958600Y-96408680D01*
X63956060Y-96413760D01*
X63948440Y-96426460D01*
X63933200Y-96434080D01*
X63907800Y-96439160D01*
X63867160Y-96441700D01*
X63806200Y-96441700D01*
X63775720Y-96441700D01*
X63608080Y-96441700D01*
X63488700Y-96378200D01*
X63369320Y-96314700D01*
X63138180Y-96474720D01*
X63054360Y-96530600D01*
X62968000Y-96591560D01*
X62884180Y-96647440D01*
X62813060Y-96695700D01*
X62767340Y-96728720D01*
X62627640Y-96822700D01*
X62462540Y-96822700D01*
X62299980Y-96822700D01*
X61906280Y-96431540D01*
X61515120Y-96040380D01*
X61515120Y-95875280D01*
X61515120Y-95804160D01*
X61517660Y-95755900D01*
X61522740Y-95720340D01*
X61530360Y-95694940D01*
X61545600Y-95669540D01*
X61563380Y-95644140D01*
X61583700Y-95613660D01*
X61616720Y-95562860D01*
X61662440Y-95496820D01*
X61713240Y-95420620D01*
X61771660Y-95336800D01*
X61822460Y-95260600D01*
X61880880Y-95176780D01*
X61931680Y-95100580D01*
X61974860Y-95034540D01*
X62007880Y-94981200D01*
X62030740Y-94945640D01*
X62038360Y-94930400D01*
X62033280Y-94912620D01*
X62018040Y-94871980D01*
X61997720Y-94813560D01*
X61967240Y-94739900D01*
X61934220Y-94656080D01*
X61908820Y-94590040D01*
X61865640Y-94480820D01*
X61830080Y-94397000D01*
X61802140Y-94333500D01*
X61779280Y-94290320D01*
X61764040Y-94264920D01*
X61751340Y-94254760D01*
X61728480Y-94249680D01*
X61685300Y-94239520D01*
X61619260Y-94226820D01*
X61535440Y-94209040D01*
X61436380Y-94191260D01*
X61327160Y-94168400D01*
X61220480Y-94150620D01*
X61106180Y-94127760D01*
X60996960Y-94107440D01*
X60902980Y-94087120D01*
X60821700Y-94071880D01*
X60758200Y-94056640D01*
X60717560Y-94046480D01*
X60702320Y-94041400D01*
X60697240Y-94033780D01*
X60694700Y-94016000D01*
X60692160Y-93985520D01*
X60689620Y-93942340D01*
X60687080Y-93883920D01*
X60684540Y-93805180D01*
X60684540Y-93708660D01*
X60684540Y-93589280D01*
X60682000Y-93441960D01*
X60682000Y-93330200D01*
X60682000Y-92634240D01*
X60715020Y-92616460D01*
X60735340Y-92608840D01*
X60781060Y-92596140D01*
X60847100Y-92583440D01*
X60930920Y-92565660D01*
X61029980Y-92545340D01*
X61141740Y-92525020D01*
X61258580Y-92502160D01*
X61261120Y-92502160D01*
X61377960Y-92479300D01*
X61487180Y-92458980D01*
X61586240Y-92438660D01*
X61667520Y-92420880D01*
X61731020Y-92408180D01*
X61774200Y-92395480D01*
X61794520Y-92390400D01*
X61794520Y-92390400D01*
X61804680Y-92372620D01*
X61822460Y-92334520D01*
X61847860Y-92278640D01*
X61880880Y-92210060D01*
X61913900Y-92133860D01*
X61946920Y-92055120D01*
X61982480Y-91978920D01*
X62012960Y-91907800D01*
X62038360Y-91844300D01*
X62056140Y-91798580D01*
X62066300Y-91770640D01*
X62066300Y-91768100D01*
X62058680Y-91752860D01*
X62035820Y-91717300D01*
X62002800Y-91663960D01*
X61957080Y-91595380D01*
X61903740Y-91516640D01*
X61842780Y-91427740D01*
X61791980Y-91351540D01*
X61515120Y-90950220D01*
X61515120Y-90787660D01*
X61515120Y-90625100D01*
X61906280Y-90231400D01*
X62297440Y-89840240D01*
X62465080Y-89840240D01*
X62632720Y-89840240D01*
X62988320Y-90084080D01*
X63079760Y-90145040D01*
X63166120Y-90206000D01*
X63244860Y-90259340D01*
X63310900Y-90305060D01*
X63361700Y-90340620D01*
X63394720Y-90363480D01*
X63399800Y-90366020D01*
X63458220Y-90406660D01*
X63724920Y-90297440D01*
X63829060Y-90256800D01*
X63907800Y-90223780D01*
X63968760Y-90198380D01*
X64011940Y-90178060D01*
X64039880Y-90162820D01*
X64057660Y-90150120D01*
X64070360Y-90139960D01*
X64075440Y-90127260D01*
X64075440Y-90124720D01*
X64080520Y-90104400D01*
X64090680Y-90058680D01*
X64103380Y-89995180D01*
X64118620Y-89911360D01*
X64138940Y-89812300D01*
X64159260Y-89703080D01*
X64179580Y-89583700D01*
X64182120Y-89571000D01*
X64204980Y-89454160D01*
X64227840Y-89342400D01*
X64245620Y-89243340D01*
X64263400Y-89159520D01*
X64278640Y-89093480D01*
X64288800Y-89047760D01*
X64296420Y-89027440D01*
X64296420Y-89027440D01*
X64304040Y-89022360D01*
X64321820Y-89019820D01*
X64347220Y-89014740D01*
X64387860Y-89012200D01*
X64443740Y-89012200D01*
X64517400Y-89009660D01*
X64608840Y-89009660D01*
X64723140Y-89007120D01*
X64862840Y-89007120D01*
X65005080Y-89007120D01*
X65142240Y-89007120D01*
X65271780Y-89009660D01*
X65388620Y-89009660D01*
X65492760Y-89012200D01*
X65581660Y-89012200D01*
X65647700Y-89014740D01*
X65693420Y-89017280D01*
X65716280Y-89019820D01*
X65716280Y-89019820D01*
X65723900Y-89037600D01*
X65734060Y-89078240D01*
X65749300Y-89146820D01*
X65769620Y-89233180D01*
X65789940Y-89342400D01*
X65815340Y-89469400D01*
X65833120Y-89565920D01*
X65855980Y-89685300D01*
X65876300Y-89799600D01*
X65896620Y-89901200D01*
X65911860Y-89987560D01*
X65927100Y-90056140D01*
X65937260Y-90104400D01*
X65942340Y-90129800D01*
X65942340Y-90129800D01*
X65955040Y-90145040D01*
X65985520Y-90162820D01*
X66031240Y-90185680D01*
X66099820Y-90216160D01*
X66188720Y-90256800D01*
X66254760Y-90282200D01*
X66351280Y-90322840D01*
X66424940Y-90350780D01*
X66478280Y-90373640D01*
X66518920Y-90386340D01*
X66544320Y-90391420D01*
X66564640Y-90393960D01*
X66577340Y-90388880D01*
X66590040Y-90383800D01*
X66592580Y-90381260D01*
X66612900Y-90368560D01*
X66653540Y-90340620D01*
X66709420Y-90299980D01*
X66783080Y-90251720D01*
X66864360Y-90195840D01*
X66955800Y-90134880D01*
X67006600Y-90099320D01*
X67382520Y-89840240D01*
X67550160Y-89840240D01*
X67715260Y-89840240D01*
X68106420Y-90231400D01*
X68497580Y-90622560D01*
X68497580Y-90790200D01*
X68497580Y-90957840D01*
X68220720Y-91359160D01*
X67943860Y-91760480D01*
X68075940Y-92072900D01*
X68116580Y-92161800D01*
X68152140Y-92243080D01*
X68185160Y-92309120D01*
X68210560Y-92359920D01*
X68228340Y-92390400D01*
X68233420Y-92395480D01*
X68253740Y-92400560D01*
X68296920Y-92410720D01*
X68360420Y-92425960D01*
X68444240Y-92441200D01*
X68543300Y-92461520D01*
X68652520Y-92481840D01*
X68769360Y-92504700D01*
X68782060Y-92507240D01*
X68919220Y-92532640D01*
X69038600Y-92555500D01*
X69137660Y-92575820D01*
X69218940Y-92593600D01*
X69277360Y-92608840D01*
X69310380Y-92619000D01*
X69318000Y-92624080D01*
X69320540Y-92639320D01*
X69323080Y-92682500D01*
X69325620Y-92748540D01*
X69328160Y-92834900D01*
X69328160Y-92936500D01*
X69330700Y-93050800D01*
X69330700Y-93177800D01*
X69330700Y-93314960D01*
X69330700Y-93332740D01*
X69330700Y-93492760D01*
X69330700Y-93492760D01*
X69330700Y-93492760D01*
G37*
X69330700Y-93492760D02*
X69330700Y-93629920D01*
X69330700Y-93741680D01*
X69328160Y-93830580D01*
X69328160Y-93901700D01*
X69325620Y-93955040D01*
X69323080Y-93993140D01*
X69320540Y-94021080D01*
X69315460Y-94036320D01*
X69310380Y-94041400D01*
X69292600Y-94049020D01*
X69249420Y-94059180D01*
X69185920Y-94074420D01*
X69104640Y-94089660D01*
X69008120Y-94109980D01*
X68898900Y-94130300D01*
X68784600Y-94153160D01*
X68657600Y-94176020D01*
X68543300Y-94198880D01*
X68444240Y-94219200D01*
X68362960Y-94236980D01*
X68302000Y-94249680D01*
X68266440Y-94259840D01*
X68256280Y-94264920D01*
X68246120Y-94282700D01*
X68225800Y-94320800D01*
X68200400Y-94379220D01*
X68169920Y-94447800D01*
X68136900Y-94524000D01*
X68103880Y-94607820D01*
X68070860Y-94689100D01*
X68040380Y-94765300D01*
X68014980Y-94833880D01*
X67994660Y-94889760D01*
X67981960Y-94927860D01*
X67979420Y-94943100D01*
X67987040Y-94955800D01*
X68009900Y-94991360D01*
X68045460Y-95044700D01*
X68091180Y-95110740D01*
X68144520Y-95189480D01*
X68202940Y-95275840D01*
X68241040Y-95329180D01*
X68497580Y-95705100D01*
X68497580Y-95872740D01*
X68497580Y-96040380D01*
X68106420Y-96431540D01*
X67715260Y-96822700D01*
X67550160Y-96822700D01*
X67387600Y-96822700D01*
X67016760Y-96568700D01*
X66648460Y-96314700D01*
X66529080Y-96378200D01*
X66412240Y-96444240D01*
X66239520Y-96439160D01*
X66066800Y-96434080D01*
X65688340Y-95524760D01*
X65309880Y-94615440D01*
X65309880Y-94470660D01*
X65309880Y-94407160D01*
X65312420Y-94353820D01*
X65314960Y-94318260D01*
X65317500Y-94305560D01*
X65332740Y-94287780D01*
X65365760Y-94259840D01*
X65411480Y-94224280D01*
X65454660Y-94193800D01*
X65571500Y-94107440D01*
X65668020Y-94026160D01*
X65746760Y-93944880D01*
X65812800Y-93858520D01*
X65871220Y-93759460D01*
X65909320Y-93685800D01*
X65967740Y-93553720D01*
X66000760Y-93434340D01*
X66008380Y-93325120D01*
X66003300Y-93256540D01*
X65957580Y-93091440D01*
X65886460Y-92936500D01*
X65795020Y-92791720D01*
X65678180Y-92659640D01*
X65543560Y-92545340D01*
X65393700Y-92451360D01*
X65373380Y-92441200D01*
X65266700Y-92392940D01*
X65162560Y-92359920D01*
X65063500Y-92339600D01*
X65005080Y-92334520D01*
X64898400Y-92347220D01*
X64779020Y-92380240D01*
X64654560Y-92433580D01*
X64532640Y-92504700D01*
X64418340Y-92588520D01*
X64314200Y-92682500D01*
X64248160Y-92753620D01*
X64187200Y-92842520D01*
X64126240Y-92949200D01*
X64075440Y-93063500D01*
X64034800Y-93172720D01*
X64024640Y-93208280D01*
X64011940Y-93281940D01*
X64006860Y-93350520D01*
X64011940Y-93416560D01*
X64032260Y-93492760D01*
X64062740Y-93586740D01*
X64070360Y-93607060D01*
X64144020Y-93762000D01*
X64240540Y-93904240D01*
X64362460Y-94036320D01*
X64507240Y-94155700D01*
X64606300Y-94224280D01*
X64646940Y-94252220D01*
X64679960Y-94275080D01*
X64695200Y-94287780D01*
X64697740Y-94308100D01*
X64702820Y-94351280D01*
X64702820Y-94407160D01*
X64705360Y-94460500D01*
X64705360Y-94615440D01*
X64337060Y-95499360D01*
X64276100Y-95651760D01*
X64217680Y-95794000D01*
X64161800Y-95928620D01*
X64111000Y-96050540D01*
X64065280Y-96157220D01*
X64027180Y-96248660D01*
X63996700Y-96324860D01*
X63973840Y-96378200D01*
X63958600Y-96408680D01*
X63956060Y-96413760D01*
X63948440Y-96426460D01*
X63933200Y-96434080D01*
X63907800Y-96439160D01*
X63867160Y-96441700D01*
X63806200Y-96441700D01*
X63775720Y-96441700D01*
X63608080Y-96441700D01*
X63488700Y-96378200D01*
X63369320Y-96314700D01*
X63138180Y-96474720D01*
X63054360Y-96530600D01*
X62968000Y-96591560D01*
X62884180Y-96647440D01*
X62813060Y-96695700D01*
X62767340Y-96728720D01*
X62627640Y-96822700D01*
X62462540Y-96822700D01*
X62299980Y-96822700D01*
X61906280Y-96431540D01*
X61515120Y-96040380D01*
X61515120Y-95875280D01*
X61515120Y-95804160D01*
X61517660Y-95755900D01*
X61522740Y-95720340D01*
X61530360Y-95694940D01*
X61545600Y-95669540D01*
X61563380Y-95644140D01*
X61583700Y-95613660D01*
X61616720Y-95562860D01*
X61662440Y-95496820D01*
X61713240Y-95420620D01*
X61771660Y-95336800D01*
X61822460Y-95260600D01*
X61880880Y-95176780D01*
X61931680Y-95100580D01*
X61974860Y-95034540D01*
X62007880Y-94981200D01*
X62030740Y-94945640D01*
X62038360Y-94930400D01*
X62033280Y-94912620D01*
X62018040Y-94871980D01*
X61997720Y-94813560D01*
X61967240Y-94739900D01*
X61934220Y-94656080D01*
X61908820Y-94590040D01*
X61865640Y-94480820D01*
X61830080Y-94397000D01*
X61802140Y-94333500D01*
X61779280Y-94290320D01*
X61764040Y-94264920D01*
X61751340Y-94254760D01*
X61728480Y-94249680D01*
X61685300Y-94239520D01*
X61619260Y-94226820D01*
X61535440Y-94209040D01*
X61436380Y-94191260D01*
X61327160Y-94168400D01*
X61220480Y-94150620D01*
X61106180Y-94127760D01*
X60996960Y-94107440D01*
X60902980Y-94087120D01*
X60821700Y-94071880D01*
X60758200Y-94056640D01*
X60717560Y-94046480D01*
X60702320Y-94041400D01*
X60697240Y-94033780D01*
X60694700Y-94016000D01*
X60692160Y-93985520D01*
X60689620Y-93942340D01*
X60687080Y-93883920D01*
X60684540Y-93805180D01*
X60684540Y-93708660D01*
X60684540Y-93589280D01*
X60682000Y-93441960D01*
X60682000Y-93330200D01*
X60682000Y-92634240D01*
X60715020Y-92616460D01*
X60735340Y-92608840D01*
X60781060Y-92596140D01*
X60847100Y-92583440D01*
X60930920Y-92565660D01*
X61029980Y-92545340D01*
X61141740Y-92525020D01*
X61258580Y-92502160D01*
X61261120Y-92502160D01*
X61377960Y-92479300D01*
X61487180Y-92458980D01*
X61586240Y-92438660D01*
X61667520Y-92420880D01*
X61731020Y-92408180D01*
X61774200Y-92395480D01*
X61794520Y-92390400D01*
X61794520Y-92390400D01*
X61804680Y-92372620D01*
X61822460Y-92334520D01*
X61847860Y-92278640D01*
X61880880Y-92210060D01*
X61913900Y-92133860D01*
X61946920Y-92055120D01*
X61982480Y-91978920D01*
X62012960Y-91907800D01*
X62038360Y-91844300D01*
X62056140Y-91798580D01*
X62066300Y-91770640D01*
X62066300Y-91768100D01*
X62058680Y-91752860D01*
X62035820Y-91717300D01*
X62002800Y-91663960D01*
X61957080Y-91595380D01*
X61903740Y-91516640D01*
X61842780Y-91427740D01*
X61791980Y-91351540D01*
X61515120Y-90950220D01*
X61515120Y-90787660D01*
X61515120Y-90625100D01*
X61906280Y-90231400D01*
X62297440Y-89840240D01*
X62465080Y-89840240D01*
X62632720Y-89840240D01*
X62988320Y-90084080D01*
X63079760Y-90145040D01*
X63166120Y-90206000D01*
X63244860Y-90259340D01*
X63310900Y-90305060D01*
X63361700Y-90340620D01*
X63394720Y-90363480D01*
X63399800Y-90366020D01*
X63458220Y-90406660D01*
X63724920Y-90297440D01*
X63829060Y-90256800D01*
X63907800Y-90223780D01*
X63968760Y-90198380D01*
X64011940Y-90178060D01*
X64039880Y-90162820D01*
X64057660Y-90150120D01*
X64070360Y-90139960D01*
X64075440Y-90127260D01*
X64075440Y-90124720D01*
X64080520Y-90104400D01*
X64090680Y-90058680D01*
X64103380Y-89995180D01*
X64118620Y-89911360D01*
X64138940Y-89812300D01*
X64159260Y-89703080D01*
X64179580Y-89583700D01*
X64182120Y-89571000D01*
X64204980Y-89454160D01*
X64227840Y-89342400D01*
X64245620Y-89243340D01*
X64263400Y-89159520D01*
X64278640Y-89093480D01*
X64288800Y-89047760D01*
X64296420Y-89027440D01*
X64296420Y-89027440D01*
X64304040Y-89022360D01*
X64321820Y-89019820D01*
X64347220Y-89014740D01*
X64387860Y-89012200D01*
X64443740Y-89012200D01*
X64517400Y-89009660D01*
X64608840Y-89009660D01*
X64723140Y-89007120D01*
X64862840Y-89007120D01*
X65005080Y-89007120D01*
X65142240Y-89007120D01*
X65271780Y-89009660D01*
X65388620Y-89009660D01*
X65492760Y-89012200D01*
X65581660Y-89012200D01*
X65647700Y-89014740D01*
X65693420Y-89017280D01*
X65716280Y-89019820D01*
X65716280Y-89019820D01*
X65723900Y-89037600D01*
X65734060Y-89078240D01*
X65749300Y-89146820D01*
X65769620Y-89233180D01*
X65789940Y-89342400D01*
X65815340Y-89469400D01*
X65833120Y-89565920D01*
X65855980Y-89685300D01*
X65876300Y-89799600D01*
X65896620Y-89901200D01*
X65911860Y-89987560D01*
X65927100Y-90056140D01*
X65937260Y-90104400D01*
X65942340Y-90129800D01*
X65942340Y-90129800D01*
X65955040Y-90145040D01*
X65985520Y-90162820D01*
X66031240Y-90185680D01*
X66099820Y-90216160D01*
X66188720Y-90256800D01*
X66254760Y-90282200D01*
X66351280Y-90322840D01*
X66424940Y-90350780D01*
X66478280Y-90373640D01*
X66518920Y-90386340D01*
X66544320Y-90391420D01*
X66564640Y-90393960D01*
X66577340Y-90388880D01*
X66590040Y-90383800D01*
X66592580Y-90381260D01*
X66612900Y-90368560D01*
X66653540Y-90340620D01*
X66709420Y-90299980D01*
X66783080Y-90251720D01*
X66864360Y-90195840D01*
X66955800Y-90134880D01*
X67006600Y-90099320D01*
X67382520Y-89840240D01*
X67550160Y-89840240D01*
X67715260Y-89840240D01*
X68106420Y-90231400D01*
X68497580Y-90622560D01*
X68497580Y-90790200D01*
X68497580Y-90957840D01*
X68220720Y-91359160D01*
X67943860Y-91760480D01*
X68075940Y-92072900D01*
X68116580Y-92161800D01*
X68152140Y-92243080D01*
X68185160Y-92309120D01*
X68210560Y-92359920D01*
X68228340Y-92390400D01*
X68233420Y-92395480D01*
X68253740Y-92400560D01*
X68296920Y-92410720D01*
X68360420Y-92425960D01*
X68444240Y-92441200D01*
X68543300Y-92461520D01*
X68652520Y-92481840D01*
X68769360Y-92504700D01*
X68782060Y-92507240D01*
X68919220Y-92532640D01*
X69038600Y-92555500D01*
X69137660Y-92575820D01*
X69218940Y-92593600D01*
X69277360Y-92608840D01*
X69310380Y-92619000D01*
X69318000Y-92624080D01*
X69320540Y-92639320D01*
X69323080Y-92682500D01*
X69325620Y-92748540D01*
X69328160Y-92834900D01*
X69328160Y-92936500D01*
X69330700Y-93050800D01*
X69330700Y-93177800D01*
X69330700Y-93314960D01*
X69330700Y-93332740D01*
X69330700Y-93492760D01*
X69330700Y-93492760D01*
D13*
X138874000Y-115951000D03*
D14*
X141414000Y-115951000D03*
D15*
X140144000Y-121031000D03*
D16*
X145224000Y-121031000D03*
X135064000Y-121031000D03*
D17*
X143143547Y-125030954D02*
X143954453Y-123571046D01*
X137604276Y-126110328D02*
X137643724Y-125531672D01*
D18*
X152082000Y-128016000D03*
X128206000Y-128016000D03*
D19*
X152082000Y-112776000D03*
X128206000Y-112776000D03*
D13*
X107918000Y-115951000D03*
D14*
X110458000Y-115951000D03*
D13*
X108077000Y-115951000D03*
D14*
X105537000Y-115951000D03*
D13*
X103156000Y-115951000D03*
D14*
X105696000Y-115951000D03*
D13*
X103315000Y-115951000D03*
D14*
X100775000Y-115951000D03*
D13*
X96012000Y-115951000D03*
D14*
X98552000Y-115951000D03*
D15*
X106807000Y-121031000D03*
D16*
X111887000Y-121031000D03*
D20*
X109997432Y-125205793D02*
X111002568Y-123396207D01*
D15*
X104426000Y-121031000D03*
D16*
X99346000Y-121031000D03*
D17*
X106651760Y-125967052D02*
X107948240Y-123632948D01*
D21*
X101773474Y-126210097D02*
X101826526Y-125431903D01*
D15*
X102045000Y-121031000D03*
D17*
X104551760Y-125867052D02*
X105848240Y-123532948D01*
D15*
X97282000Y-121031000D03*
D16*
X92202000Y-121031000D03*
D17*
X99751760Y-125867052D02*
X101048240Y-123532948D01*
X94742276Y-126110328D02*
X94781724Y-125531672D01*
D15*
X109188000Y-121031000D03*
D16*
X114268000Y-121031000D03*
D17*
X112187547Y-125030954D02*
X112998453Y-123571046D01*
D13*
X81725000Y-115951000D03*
D14*
X84265000Y-115951000D03*
D15*
X82995000Y-121031000D03*
D16*
X88075000Y-121031000D03*
D20*
X85997432Y-125205793D02*
X87002568Y-123396207D01*
D15*
X133001000Y-121031000D03*
D16*
X127921000Y-121031000D03*
D17*
X135271641Y-126311294D02*
X136728359Y-123688706D01*
X130461276Y-126110328D02*
X130500724Y-125531672D01*
D15*
X137763000Y-121031000D03*
D16*
X142843000Y-121031000D03*
D17*
X140762547Y-125030954D02*
X141573453Y-123571046D01*
D15*
X106807000Y-44831000D03*
D16*
X111887000Y-44831000D03*
X101727000Y-44831000D03*
D17*
X109806547Y-48830954D02*
X110617453Y-47371046D01*
X104267276Y-49910328D02*
X104306724Y-49331672D01*
D15*
X97282000Y-63881000D03*
D16*
X102362000Y-63881000D03*
X92202000Y-63881000D03*
D17*
X100281547Y-67880954D02*
X101092453Y-66421046D01*
X94742276Y-68960328D02*
X94781724Y-68381672D01*
D18*
X144939000Y-128016000D03*
X121063000Y-128016000D03*
D19*
X144939000Y-112776000D03*
X121063000Y-112776000D03*
D15*
X73469000Y-121031000D03*
D16*
X68389000Y-121031000D03*
D17*
X75851760Y-125867052D02*
X77148240Y-123532948D01*
X70929276Y-126110328D02*
X70968724Y-125531672D01*
D18*
X149701000Y-128016000D03*
X125825000Y-128016000D03*
D19*
X149701000Y-112776000D03*
X125825000Y-112776000D03*
D18*
X130651000Y-128016000D03*
X106775000Y-128016000D03*
D19*
X130651000Y-112776000D03*
X106775000Y-112776000D03*
D15*
X32988000Y-121031000D03*
D16*
X38068000Y-121031000D03*
X27908000Y-121031000D03*
D17*
X35987547Y-125030954D02*
X36798453Y-123571046D01*
X30448276Y-126110328D02*
X30487724Y-125531672D01*
D15*
X35370000Y-121031000D03*
D16*
X40450000Y-121031000D03*
X30290000Y-121031000D03*
D17*
X38369547Y-125030954D02*
X39180453Y-123571046D01*
X32830276Y-126110328D02*
X32869724Y-125531672D01*
D15*
X35370000Y-63881000D03*
D16*
X40450000Y-63881000D03*
X30290000Y-63881000D03*
D17*
X38369547Y-67880954D02*
X39180453Y-66421046D01*
X32830276Y-68960328D02*
X32869724Y-68381672D01*
D15*
X87757000Y-44831000D03*
D16*
X92837000Y-44831000D03*
X82677000Y-44831000D03*
D17*
X90756547Y-48830954D02*
X91567453Y-47371046D01*
X85217276Y-49910328D02*
X85256724Y-49331672D01*
D15*
X125857000Y-44831000D03*
D16*
X130937000Y-44831000D03*
X120777000Y-44831000D03*
D17*
X128856547Y-48830954D02*
X129667453Y-47371046D01*
X123317276Y-49910328D02*
X123356724Y-49331672D01*
D13*
X127127000Y-39751000D03*
D14*
X124587000Y-39751000D03*
D15*
X149669000Y-101981000D03*
D16*
X154749000Y-101981000D03*
X144589000Y-101981000D03*
D17*
X152668547Y-105980954D02*
X153479453Y-104521046D01*
X147129276Y-107060328D02*
X147168724Y-106481672D01*
D15*
X94901000Y-121031000D03*
D16*
X99981000Y-121031000D03*
X89821000Y-121031000D03*
D17*
X97900547Y-125030954D02*
X98711453Y-123571046D01*
X92361276Y-126110328D02*
X92400724Y-125531672D01*
D15*
X130619000Y-101981000D03*
D16*
X135699000Y-101981000D03*
X125539000Y-101981000D03*
D17*
X133618547Y-105980954D02*
X134429453Y-104521046D01*
X128079276Y-107060328D02*
X128118724Y-106481672D01*
D15*
X111570000Y-101981000D03*
D16*
X116650000Y-101981000D03*
X106490000Y-101981000D03*
D17*
X114569547Y-105980954D02*
X115380453Y-104521046D01*
X109030276Y-107060328D02*
X109069724Y-106481672D01*
D15*
X54420000Y-101981000D03*
D16*
X59500000Y-101981000D03*
X49340000Y-101981000D03*
D17*
X57419547Y-105980954D02*
X58230453Y-104521046D01*
X51880276Y-107060328D02*
X51919724Y-106481672D01*
D15*
X42513000Y-101981000D03*
D16*
X47593000Y-101981000D03*
X37433000Y-101981000D03*
D17*
X45512547Y-105980954D02*
X46323453Y-104521046D01*
X39973276Y-107060328D02*
X40012724Y-106481672D01*
D15*
X32988000Y-101981000D03*
D16*
X38068000Y-101981000D03*
X27908000Y-101981000D03*
D17*
X35987547Y-105980954D02*
X36798453Y-104521046D01*
X30448276Y-107060328D02*
X30487724Y-106481672D01*
D15*
X73469000Y-101981000D03*
D16*
X78549000Y-101981000D03*
X68389000Y-101981000D03*
D17*
X76468547Y-105980954D02*
X77279453Y-104521046D01*
X70929276Y-107060328D02*
X70968724Y-106481672D01*
D15*
X92519000Y-101981000D03*
D16*
X97599000Y-101981000D03*
X87439000Y-101981000D03*
D17*
X95518547Y-105980954D02*
X96329453Y-104521046D01*
X89979276Y-107060328D02*
X90018724Y-106481672D01*
D15*
X63945000Y-82931000D03*
D16*
X69025000Y-82931000D03*
X58865000Y-82931000D03*
D17*
X66944547Y-86930954D02*
X67755453Y-85471046D01*
X61405276Y-88010328D02*
X61444724Y-87431672D01*
D15*
X32988000Y-82931000D03*
D16*
X27908000Y-82931000D03*
D17*
X35271641Y-88111294D02*
X36728359Y-85488706D01*
X30448276Y-88010328D02*
X30487724Y-87431672D01*
D15*
X37751000Y-82931000D03*
D16*
X42831000Y-82931000D03*
D17*
X40750547Y-86930954D02*
X41561453Y-85471046D01*
D15*
X82995000Y-82931000D03*
D16*
X88075000Y-82931000D03*
X77915000Y-82931000D03*
D17*
X85994547Y-86930954D02*
X86805453Y-85471046D01*
X80455276Y-88010328D02*
X80494724Y-87431672D01*
D15*
X102045000Y-82931000D03*
D16*
X107125000Y-82931000D03*
X96965000Y-82931000D03*
D17*
X105044547Y-86930954D02*
X105855453Y-85471046D01*
X99505276Y-88010328D02*
X99544724Y-87431672D01*
D15*
X140144000Y-82931000D03*
D16*
X145224000Y-82931000D03*
X135064000Y-82931000D03*
D17*
X143143547Y-86930954D02*
X143954453Y-85471046D01*
X137604276Y-88010328D02*
X137643724Y-87431672D01*
D15*
X78232000Y-63881000D03*
D16*
X83312000Y-63881000D03*
X73152000Y-63881000D03*
D17*
X81231547Y-67880954D02*
X82042453Y-66421046D01*
X75692276Y-68960328D02*
X75731724Y-68381672D01*
D15*
X116332000Y-63881000D03*
D16*
X121412000Y-63881000D03*
X111252000Y-63881000D03*
D17*
X119331547Y-67880954D02*
X120142453Y-66421046D01*
X113792276Y-68960328D02*
X113831724Y-68381672D01*
D15*
X144907000Y-44831000D03*
D16*
X149987000Y-44831000D03*
X139827000Y-44831000D03*
D17*
X147906547Y-48830954D02*
X148717453Y-47371046D01*
X142367276Y-49910328D02*
X142406724Y-49331672D01*
D15*
X135382000Y-63881000D03*
D16*
X140462000Y-63881000D03*
X130302000Y-63881000D03*
D17*
X138381547Y-67880954D02*
X139192453Y-66421046D01*
X132842276Y-68960328D02*
X132881724Y-68381672D01*
D15*
X30607000Y-44831000D03*
D16*
X35687000Y-44831000D03*
X25527000Y-44831000D03*
D17*
X33606547Y-48830954D02*
X34417453Y-47371046D01*
X28067276Y-49910328D02*
X28106724Y-49331672D01*
D15*
X49657000Y-44831000D03*
D16*
X54737000Y-44831000D03*
X44577000Y-44831000D03*
D17*
X52656547Y-48830954D02*
X53467453Y-47371046D01*
X47117276Y-49910328D02*
X47156724Y-49331672D01*
D15*
X68707000Y-44831000D03*
D16*
X73787000Y-44831000D03*
X63627000Y-44831000D03*
D17*
X71706547Y-48830954D02*
X72517453Y-47371046D01*
X66167276Y-49910328D02*
X66206724Y-49331672D01*
D13*
X60452000Y-58501000D03*
D14*
X57912000Y-58501000D03*
D13*
X55690000Y-96901000D03*
D14*
X53150000Y-96901000D03*
D13*
X79502000Y-58501000D03*
D14*
X76962000Y-58501000D03*
D13*
X74739000Y-96901000D03*
D14*
X72199000Y-96901000D03*
D13*
X98552000Y-58801000D03*
D14*
X96012000Y-58801000D03*
D13*
X93789000Y-96901000D03*
D14*
X91249000Y-96901000D03*
D13*
X117602000Y-58801000D03*
D14*
X115062000Y-58801000D03*
D13*
X43783000Y-96901000D03*
D14*
X41243000Y-96901000D03*
D13*
X36640000Y-58501000D03*
D14*
X34100000Y-58501000D03*
D13*
X141414000Y-77851000D03*
D14*
X138874000Y-77851000D03*
D13*
X112840000Y-96901000D03*
D14*
X110300000Y-96901000D03*
D13*
X122364000Y-77851000D03*
D14*
X119824000Y-77851000D03*
D13*
X69977000Y-39751000D03*
D14*
X67437000Y-39751000D03*
D13*
X103315000Y-77851000D03*
D14*
X100775000Y-77851000D03*
D13*
X84265000Y-77851000D03*
D14*
X81725000Y-77851000D03*
D13*
X139033000Y-115951000D03*
D14*
X136493000Y-115951000D03*
D13*
X108077000Y-39751000D03*
D14*
X105537000Y-39751000D03*
D13*
X65215000Y-77851000D03*
D14*
X62675000Y-77851000D03*
D13*
X96171000Y-115951000D03*
D14*
X93631000Y-115951000D03*
D13*
X89027000Y-39751000D03*
D14*
X86487000Y-39751000D03*
D13*
X39021000Y-77851000D03*
D14*
X36481000Y-77851000D03*
D13*
X74739000Y-115951000D03*
D14*
X72199000Y-115951000D03*
D13*
X146177000Y-39751000D03*
D14*
X143637000Y-39751000D03*
D13*
X55531000Y-115951000D03*
D14*
X58071000Y-115951000D03*
D13*
X50927500Y-39751000D03*
D14*
X48387500Y-39751000D03*
D13*
X31718000Y-115951000D03*
D14*
X34258000Y-115951000D03*
D13*
X31877000Y-39751000D03*
D14*
X29337000Y-39751000D03*
D13*
X131889000Y-96901000D03*
D14*
X129349000Y-96901000D03*
D13*
X136652000Y-58801000D03*
D14*
X134112000Y-58801000D03*
D15*
X121094000Y-82931000D03*
D16*
X126174000Y-82931000D03*
X116014000Y-82931000D03*
D17*
X124093547Y-86930954D02*
X124904453Y-85471046D01*
X118554276Y-88010328D02*
X118593724Y-87431672D01*
D15*
X59182000Y-63811000D03*
D16*
X64262000Y-63811000D03*
X54102000Y-63811000D03*
D17*
X62181547Y-67810954D02*
X62992453Y-66351046D01*
X56642276Y-68890328D02*
X56681724Y-68311672D01*
D13*
X34258000Y-77851000D03*
D14*
X31718000Y-77851000D03*
D13*
X34258000Y-96901000D03*
D14*
X31718000Y-96901000D03*
D13*
X150939000Y-96901000D03*
D14*
X148399000Y-96901000D03*
D15*
X118713000Y-121031000D03*
D16*
X123793000Y-121031000D03*
X113633000Y-121031000D03*
D17*
X121712547Y-125030954D02*
X122523453Y-123571046D01*
X116173276Y-126110328D02*
X116212724Y-125531672D01*
D15*
X149669000Y-121031000D03*
D16*
X154749000Y-121031000D03*
X144589000Y-121031000D03*
D17*
X152668547Y-125030954D02*
X153479453Y-123571046D01*
X147129276Y-126110328D02*
X147168724Y-125531672D01*
D15*
X80613000Y-121031000D03*
D16*
X85693000Y-121031000D03*
X75533000Y-121031000D03*
D20*
X83397432Y-125205793D02*
X84402568Y-123396207D01*
D21*
X78066474Y-126210097D02*
X78119526Y-125431903D01*
D15*
X78232000Y-121031000D03*
D17*
X80851760Y-125867052D02*
X82148240Y-123532948D01*
D13*
X134271000Y-115951000D03*
D14*
X131731000Y-115951000D03*
D13*
X119983000Y-115951000D03*
D14*
X117443000Y-115951000D03*
D13*
X150939000Y-115951000D03*
D14*
X148399000Y-115951000D03*
D13*
X81883000Y-115951000D03*
D14*
X79343000Y-115951000D03*
D13*
X76962000Y-115951000D03*
D14*
X79502000Y-115951000D03*
D13*
X55690000Y-115951000D03*
D14*
X53150000Y-115951000D03*
D13*
X36640000Y-115951000D03*
D14*
X34100000Y-115951000D03*
D13*
X60452000Y-115951000D03*
D14*
X57912000Y-115951000D03*
D22*
X57404000Y-73660000D03*
X59944000Y-73660000D03*
X62484000Y-73660000D03*
X65024000Y-73660000D03*
X67564000Y-73660000D03*
X70104000Y-73660000D03*
X72644000Y-73660000D03*
X75184000Y-73660000D03*
X77724000Y-73660000D03*
X80264000Y-73660000D03*
X82804000Y-73660000D03*
X90424000Y-73660000D03*
X92964000Y-73660000D03*
X95504000Y-73660000D03*
X98044000Y-73660000D03*
D18*
X30575000Y-94996000D03*
X54451000Y-94996000D03*
D19*
X30575000Y-110236000D03*
X54451000Y-110236000D03*
D23*
X50952400Y-83769200D03*
D24*
X143282000Y-29200000D03*
X127482000Y-29200000D03*
D15*
X54420000Y-121031000D03*
D16*
X49340000Y-121031000D03*
D20*
X56854646Y-126141891D02*
X58345354Y-123458109D01*
D17*
X51880276Y-126110328D02*
X51919724Y-125531672D01*
D15*
X59182000Y-121031000D03*
D16*
X64262000Y-121031000D03*
D25*
X62073154Y-125249503D02*
X63126846Y-123352497D01*
D15*
X56801000Y-121031000D03*
D16*
X61881000Y-121031000D03*
X51721000Y-121031000D03*
D17*
X59800547Y-125030954D02*
X60611453Y-123571046D01*
X54261276Y-126110328D02*
X54300724Y-125531672D01*
D26*
X111510000Y-19250000D03*
X120490000Y-19250000D03*
X111870000Y-25200000D03*
X120130000Y-25200000D03*
D27*
X112400000Y-26450000D03*
D28*
X119600000Y-26450000D03*
D29*
X113600000Y-25100000D03*
X115200000Y-25100000D03*
X118400000Y-25100000D03*
X117600000Y-25100000D03*
X116800000Y-25100000D03*
X114400000Y-25100000D03*
X113200000Y-25800000D03*
X114800000Y-25800000D03*
X115600000Y-25800000D03*
X116400000Y-25800000D03*
X117200000Y-25800000D03*
X118800000Y-25800000D03*
M02*
