M48
;DRILL file {KiCad 4.0.1-stable} date 2/1/2016 9:55:24 PM
;FORMAT={-:-/ absolute / metric / decimal}
FMAT,2
METRIC,TZ
T1C0.650
T2C1.702
T3C3.048
T4C3.988
T5C6.000
%
G90
G05
M71
T1
X112.4Y-26.45
T2
X25.527Y-44.831
X27.908Y-82.931
X27.908Y-101.981
X27.908Y-121.031
X30.29Y-63.881
X30.29Y-121.031
X35.687Y-44.831
X37.433Y-101.981
X38.068Y-101.981
X38.068Y-121.031
X40.45Y-63.881
X40.45Y-121.031
X42.831Y-82.931
X44.577Y-44.831
X47.593Y-101.981
X49.34Y-101.981
X49.34Y-121.031
X51.721Y-121.031
X54.102Y-63.811
X54.737Y-44.831
X58.865Y-82.931
X59.5Y-101.981
X61.881Y-121.031
X63.627Y-44.831
X64.262Y-63.811
X64.262Y-121.031
X68.389Y-101.981
X68.389Y-121.031
X69.025Y-82.931
X73.152Y-63.881
X73.787Y-44.831
X75.533Y-121.031
X77.915Y-82.931
X78.549Y-101.981
X82.677Y-44.831
X83.312Y-63.881
X85.693Y-121.031
X87.439Y-101.981
X88.075Y-82.931
X88.075Y-121.031
X89.821Y-121.031
X92.202Y-63.881
X92.202Y-121.031
X92.837Y-44.831
X96.965Y-82.931
X97.599Y-101.981
X99.346Y-121.031
X99.981Y-121.031
X101.727Y-44.831
X102.362Y-63.881
X106.49Y-101.981
X107.125Y-82.931
X111.252Y-63.881
X111.887Y-44.831
X111.887Y-121.031
X113.633Y-121.031
X114.268Y-121.031
X116.014Y-82.931
X116.65Y-101.981
X120.777Y-44.831
X121.412Y-63.881
X123.793Y-121.031
X125.539Y-101.981
X126.174Y-82.931
X127.921Y-121.031
X130.302Y-63.881
X130.937Y-44.831
X135.064Y-82.931
X135.064Y-121.031
X135.699Y-101.981
X139.827Y-44.831
X140.462Y-63.881
X142.843Y-121.031
X144.589Y-101.981
X144.589Y-121.031
X145.224Y-82.931
X145.224Y-121.031
X149.987Y-44.831
X154.749Y-101.981
X154.749Y-121.031
T3
X30.575Y-94.996
X54.451Y-94.996
X106.775Y-128.016
X121.063Y-128.016
X125.825Y-128.016
X128.206Y-128.016
X130.651Y-128.016
X144.939Y-128.016
X149.701Y-128.016
X152.082Y-128.016
T4
X30.575Y-110.236
X30.607Y-44.831
X32.988Y-82.931
X32.988Y-101.981
X32.988Y-121.031
X35.37Y-63.881
X35.37Y-121.031
X37.751Y-82.931
X42.513Y-101.981
X49.657Y-44.831
X54.42Y-101.981
X54.42Y-121.031
X54.451Y-110.236
X56.801Y-121.031
X59.182Y-63.811
X59.182Y-121.031
X63.945Y-82.931
X68.707Y-44.831
X73.469Y-101.981
X73.469Y-121.031
X78.232Y-63.881
X78.232Y-121.031
X80.613Y-121.031
X82.995Y-82.931
X82.995Y-121.031
X87.757Y-44.831
X92.519Y-101.981
X94.901Y-121.031
X97.282Y-63.881
X97.282Y-121.031
X102.045Y-82.931
X102.045Y-121.031
X104.426Y-121.031
X106.775Y-112.776
X106.807Y-44.831
X106.807Y-121.031
X109.188Y-121.031
X111.57Y-101.981
X116.332Y-63.881
X118.713Y-121.031
X121.063Y-112.776
X121.094Y-82.931
X125.825Y-112.776
X125.857Y-44.831
X128.206Y-112.776
X130.619Y-101.981
X130.651Y-112.776
X133.001Y-121.031
X135.382Y-63.881
X137.763Y-121.031
X140.144Y-82.931
X140.144Y-121.031
X144.907Y-44.831
X144.939Y-112.776
X149.669Y-101.981
X149.669Y-121.031
X149.701Y-112.776
X152.082Y-112.776
T5
X50.952Y-83.769
T1
X119.45Y-26.45G85X119.75Y-26.45
G05
T0
M30
