G04 #@! TF.FileFunction,Soldermask,Bot*
%FSLAX46Y46*%
G04 Gerber Fmt 4.6, Leading zero omitted, Abs format (unit mm)*
G04 Created by KiCad (PCBNEW 4.0.1-stable) date 2/1/2016 10:13:23 PM*
%MOMM*%
G01*
G04 APERTURE LIST*
%ADD10C,0.150000*%
%ADD11C,0.002540*%
%ADD12C,0.010000*%
%ADD13O,1.552400X1.552400*%
%ADD14R,1.552400X1.552400*%
%ADD15C,4.140210*%
%ADD16C,1.854210*%
%ADD17C,2.652400*%
%ADD18C,2.540000*%
%ADD19C,3.479800*%
%ADD20C,2.252400*%
%ADD21C,2.452400*%
%ADD22R,1.152400X1.402400*%
%ADD23R,1.402400X1.152400*%
%ADD24R,1.003300X1.153160*%
%ADD25R,1.952400X1.252400*%
%ADD26R,1.953260X1.750060*%
%ADD27R,1.582400X0.552400*%
%ADD28R,0.452400X1.652400*%
%ADD29R,1.652400X0.452400*%
%ADD30R,1.352400X1.552400*%
%ADD31R,1.750060X1.953260*%
%ADD32C,1.952400*%
%ADD33C,6.152400*%
%ADD34C,3.000000*%
%ADD35O,1.952400X3.652400*%
%ADD36R,0.852400X1.952400*%
%ADD37R,1.792400X2.352400*%
%ADD38C,2.152400*%
%ADD39O,0.952400X1.552400*%
%ADD40C,0.802400*%
%ADD41O,1.102400X0.802400*%
%ADD42C,0.752400*%
%ADD43R,0.452400X0.852400*%
%ADD44R,1.102400X2.052400*%
%ADD45R,3.402400X2.052400*%
G04 APERTURE END LIST*
D10*
D11*
G36*
X60669300Y-93492760D02*
X60669300Y-93629920D01*
X60669300Y-93741680D01*
X60671840Y-93830580D01*
X60671840Y-93901700D01*
X60674380Y-93955040D01*
X60676920Y-93993140D01*
X60679460Y-94021080D01*
X60684540Y-94036320D01*
X60689620Y-94041400D01*
X60707400Y-94049020D01*
X60750580Y-94059180D01*
X60814080Y-94074420D01*
X60895360Y-94089660D01*
X60991880Y-94109980D01*
X61101100Y-94130300D01*
X61215400Y-94153160D01*
X61342400Y-94176020D01*
X61456700Y-94198880D01*
X61555760Y-94219200D01*
X61637040Y-94236980D01*
X61698000Y-94249680D01*
X61733560Y-94259840D01*
X61743720Y-94264920D01*
X61753880Y-94282700D01*
X61774200Y-94320800D01*
X61799600Y-94379220D01*
X61830080Y-94447800D01*
X61863100Y-94524000D01*
X61896120Y-94607820D01*
X61929140Y-94689100D01*
X61959620Y-94765300D01*
X61985020Y-94833880D01*
X62005340Y-94889760D01*
X62018040Y-94927860D01*
X62020580Y-94943100D01*
X62012960Y-94955800D01*
X61990100Y-94991360D01*
X61954540Y-95044700D01*
X61908820Y-95110740D01*
X61855480Y-95189480D01*
X61797060Y-95275840D01*
X61758960Y-95329180D01*
X61502420Y-95705100D01*
X61502420Y-95872740D01*
X61502420Y-96040380D01*
X61893580Y-96431540D01*
X62284740Y-96822700D01*
X62449840Y-96822700D01*
X62612400Y-96822700D01*
X62983240Y-96568700D01*
X63351540Y-96314700D01*
X63470920Y-96378200D01*
X63587760Y-96444240D01*
X63760480Y-96439160D01*
X63933200Y-96434080D01*
X64311660Y-95524760D01*
X64690120Y-94615440D01*
X64690120Y-94470660D01*
X64690120Y-94407160D01*
X64687580Y-94353820D01*
X64685040Y-94318260D01*
X64682500Y-94305560D01*
X64667260Y-94287780D01*
X64634240Y-94259840D01*
X64588520Y-94224280D01*
X64545340Y-94193800D01*
X64428500Y-94107440D01*
X64331980Y-94026160D01*
X64253240Y-93944880D01*
X64187200Y-93858520D01*
X64128780Y-93759460D01*
X64090680Y-93685800D01*
X64032260Y-93553720D01*
X63999240Y-93434340D01*
X63991620Y-93325120D01*
X63996700Y-93256540D01*
X64042420Y-93091440D01*
X64113540Y-92936500D01*
X64204980Y-92791720D01*
X64321820Y-92659640D01*
X64456440Y-92545340D01*
X64606300Y-92451360D01*
X64626620Y-92441200D01*
X64733300Y-92392940D01*
X64837440Y-92359920D01*
X64936500Y-92339600D01*
X64994920Y-92334520D01*
X65101600Y-92347220D01*
X65220980Y-92380240D01*
X65345440Y-92433580D01*
X65467360Y-92504700D01*
X65581660Y-92588520D01*
X65685800Y-92682500D01*
X65751840Y-92753620D01*
X65812800Y-92842520D01*
X65873760Y-92949200D01*
X65924560Y-93063500D01*
X65965200Y-93172720D01*
X65975360Y-93208280D01*
X65988060Y-93281940D01*
X65993140Y-93350520D01*
X65988060Y-93416560D01*
X65967740Y-93492760D01*
X65937260Y-93586740D01*
X65929640Y-93607060D01*
X65855980Y-93762000D01*
X65759460Y-93904240D01*
X65637540Y-94036320D01*
X65492760Y-94155700D01*
X65393700Y-94224280D01*
X65353060Y-94252220D01*
X65320040Y-94275080D01*
X65304800Y-94287780D01*
X65302260Y-94308100D01*
X65297180Y-94351280D01*
X65297180Y-94407160D01*
X65294640Y-94460500D01*
X65294640Y-94615440D01*
X65662940Y-95499360D01*
X65723900Y-95651760D01*
X65782320Y-95794000D01*
X65838200Y-95928620D01*
X65889000Y-96050540D01*
X65934720Y-96157220D01*
X65972820Y-96248660D01*
X66003300Y-96324860D01*
X66026160Y-96378200D01*
X66041400Y-96408680D01*
X66043940Y-96413760D01*
X66051560Y-96426460D01*
X66066800Y-96434080D01*
X66092200Y-96439160D01*
X66132840Y-96441700D01*
X66193800Y-96441700D01*
X66224280Y-96441700D01*
X66391920Y-96441700D01*
X66511300Y-96378200D01*
X66630680Y-96314700D01*
X66861820Y-96474720D01*
X66945640Y-96530600D01*
X67032000Y-96591560D01*
X67115820Y-96647440D01*
X67186940Y-96695700D01*
X67232660Y-96728720D01*
X67372360Y-96822700D01*
X67537460Y-96822700D01*
X67700020Y-96822700D01*
X68093720Y-96431540D01*
X68484880Y-96040380D01*
X68484880Y-95875280D01*
X68484880Y-95804160D01*
X68482340Y-95755900D01*
X68477260Y-95720340D01*
X68469640Y-95694940D01*
X68454400Y-95669540D01*
X68436620Y-95644140D01*
X68416300Y-95613660D01*
X68383280Y-95562860D01*
X68337560Y-95496820D01*
X68286760Y-95420620D01*
X68228340Y-95336800D01*
X68177540Y-95260600D01*
X68119120Y-95176780D01*
X68068320Y-95100580D01*
X68025140Y-95034540D01*
X67992120Y-94981200D01*
X67969260Y-94945640D01*
X67961640Y-94930400D01*
X67966720Y-94912620D01*
X67981960Y-94871980D01*
X68002280Y-94813560D01*
X68032760Y-94739900D01*
X68065780Y-94656080D01*
X68091180Y-94590040D01*
X68134360Y-94480820D01*
X68169920Y-94397000D01*
X68197860Y-94333500D01*
X68220720Y-94290320D01*
X68235960Y-94264920D01*
X68248660Y-94254760D01*
X68271520Y-94249680D01*
X68314700Y-94239520D01*
X68380740Y-94226820D01*
X68464560Y-94209040D01*
X68563620Y-94191260D01*
X68672840Y-94168400D01*
X68779520Y-94150620D01*
X68893820Y-94127760D01*
X69003040Y-94107440D01*
X69097020Y-94087120D01*
X69178300Y-94071880D01*
X69241800Y-94056640D01*
X69282440Y-94046480D01*
X69297680Y-94041400D01*
X69302760Y-94033780D01*
X69305300Y-94016000D01*
X69307840Y-93985520D01*
X69310380Y-93942340D01*
X69312920Y-93883920D01*
X69315460Y-93805180D01*
X69315460Y-93708660D01*
X69315460Y-93589280D01*
X69318000Y-93441960D01*
X69318000Y-93330200D01*
X69318000Y-92634240D01*
X69284980Y-92616460D01*
X69264660Y-92608840D01*
X69218940Y-92596140D01*
X69152900Y-92583440D01*
X69069080Y-92565660D01*
X68970020Y-92545340D01*
X68858260Y-92525020D01*
X68741420Y-92502160D01*
X68738880Y-92502160D01*
X68622040Y-92479300D01*
X68512820Y-92458980D01*
X68413760Y-92438660D01*
X68332480Y-92420880D01*
X68268980Y-92408180D01*
X68225800Y-92395480D01*
X68205480Y-92390400D01*
X68205480Y-92390400D01*
X68195320Y-92372620D01*
X68177540Y-92334520D01*
X68152140Y-92278640D01*
X68119120Y-92210060D01*
X68086100Y-92133860D01*
X68053080Y-92055120D01*
X68017520Y-91978920D01*
X67987040Y-91907800D01*
X67961640Y-91844300D01*
X67943860Y-91798580D01*
X67933700Y-91770640D01*
X67933700Y-91768100D01*
X67941320Y-91752860D01*
X67964180Y-91717300D01*
X67997200Y-91663960D01*
X68042920Y-91595380D01*
X68096260Y-91516640D01*
X68157220Y-91427740D01*
X68208020Y-91351540D01*
X68484880Y-90950220D01*
X68484880Y-90787660D01*
X68484880Y-90625100D01*
X68093720Y-90231400D01*
X67702560Y-89840240D01*
X67534920Y-89840240D01*
X67367280Y-89840240D01*
X67011680Y-90084080D01*
X66920240Y-90145040D01*
X66833880Y-90206000D01*
X66755140Y-90259340D01*
X66689100Y-90305060D01*
X66638300Y-90340620D01*
X66605280Y-90363480D01*
X66600200Y-90366020D01*
X66541780Y-90406660D01*
X66275080Y-90297440D01*
X66170940Y-90256800D01*
X66092200Y-90223780D01*
X66031240Y-90198380D01*
X65988060Y-90178060D01*
X65960120Y-90162820D01*
X65942340Y-90150120D01*
X65929640Y-90139960D01*
X65924560Y-90127260D01*
X65924560Y-90124720D01*
X65919480Y-90104400D01*
X65909320Y-90058680D01*
X65896620Y-89995180D01*
X65881380Y-89911360D01*
X65861060Y-89812300D01*
X65840740Y-89703080D01*
X65820420Y-89583700D01*
X65817880Y-89571000D01*
X65795020Y-89454160D01*
X65772160Y-89342400D01*
X65754380Y-89243340D01*
X65736600Y-89159520D01*
X65721360Y-89093480D01*
X65711200Y-89047760D01*
X65703580Y-89027440D01*
X65703580Y-89027440D01*
X65695960Y-89022360D01*
X65678180Y-89019820D01*
X65652780Y-89014740D01*
X65612140Y-89012200D01*
X65556260Y-89012200D01*
X65482600Y-89009660D01*
X65391160Y-89009660D01*
X65276860Y-89007120D01*
X65137160Y-89007120D01*
X64994920Y-89007120D01*
X64857760Y-89007120D01*
X64728220Y-89009660D01*
X64611380Y-89009660D01*
X64507240Y-89012200D01*
X64418340Y-89012200D01*
X64352300Y-89014740D01*
X64306580Y-89017280D01*
X64283720Y-89019820D01*
X64283720Y-89019820D01*
X64276100Y-89037600D01*
X64265940Y-89078240D01*
X64250700Y-89146820D01*
X64230380Y-89233180D01*
X64210060Y-89342400D01*
X64184660Y-89469400D01*
X64166880Y-89565920D01*
X64144020Y-89685300D01*
X64123700Y-89799600D01*
X64103380Y-89901200D01*
X64088140Y-89987560D01*
X64072900Y-90056140D01*
X64062740Y-90104400D01*
X64057660Y-90129800D01*
X64057660Y-90129800D01*
X64044960Y-90145040D01*
X64014480Y-90162820D01*
X63968760Y-90185680D01*
X63900180Y-90216160D01*
X63811280Y-90256800D01*
X63745240Y-90282200D01*
X63648720Y-90322840D01*
X63575060Y-90350780D01*
X63521720Y-90373640D01*
X63481080Y-90386340D01*
X63455680Y-90391420D01*
X63435360Y-90393960D01*
X63422660Y-90388880D01*
X63409960Y-90383800D01*
X63407420Y-90381260D01*
X63387100Y-90368560D01*
X63346460Y-90340620D01*
X63290580Y-90299980D01*
X63216920Y-90251720D01*
X63135640Y-90195840D01*
X63044200Y-90134880D01*
X62993400Y-90099320D01*
X62617480Y-89840240D01*
X62449840Y-89840240D01*
X62284740Y-89840240D01*
X61893580Y-90231400D01*
X61502420Y-90622560D01*
X61502420Y-90790200D01*
X61502420Y-90957840D01*
X61779280Y-91359160D01*
X62056140Y-91760480D01*
X61924060Y-92072900D01*
X61883420Y-92161800D01*
X61847860Y-92243080D01*
X61814840Y-92309120D01*
X61789440Y-92359920D01*
X61771660Y-92390400D01*
X61766580Y-92395480D01*
X61746260Y-92400560D01*
X61703080Y-92410720D01*
X61639580Y-92425960D01*
X61555760Y-92441200D01*
X61456700Y-92461520D01*
X61347480Y-92481840D01*
X61230640Y-92504700D01*
X61217940Y-92507240D01*
X61080780Y-92532640D01*
X60961400Y-92555500D01*
X60862340Y-92575820D01*
X60781060Y-92593600D01*
X60722640Y-92608840D01*
X60689620Y-92619000D01*
X60682000Y-92624080D01*
X60679460Y-92639320D01*
X60676920Y-92682500D01*
X60674380Y-92748540D01*
X60671840Y-92834900D01*
X60671840Y-92936500D01*
X60669300Y-93050800D01*
X60669300Y-93177800D01*
X60669300Y-93314960D01*
X60669300Y-93332740D01*
X60669300Y-93492760D01*
X60669300Y-93492760D01*
X60669300Y-93492760D01*
G37*
X60669300Y-93492760D02*
X60669300Y-93629920D01*
X60669300Y-93741680D01*
X60671840Y-93830580D01*
X60671840Y-93901700D01*
X60674380Y-93955040D01*
X60676920Y-93993140D01*
X60679460Y-94021080D01*
X60684540Y-94036320D01*
X60689620Y-94041400D01*
X60707400Y-94049020D01*
X60750580Y-94059180D01*
X60814080Y-94074420D01*
X60895360Y-94089660D01*
X60991880Y-94109980D01*
X61101100Y-94130300D01*
X61215400Y-94153160D01*
X61342400Y-94176020D01*
X61456700Y-94198880D01*
X61555760Y-94219200D01*
X61637040Y-94236980D01*
X61698000Y-94249680D01*
X61733560Y-94259840D01*
X61743720Y-94264920D01*
X61753880Y-94282700D01*
X61774200Y-94320800D01*
X61799600Y-94379220D01*
X61830080Y-94447800D01*
X61863100Y-94524000D01*
X61896120Y-94607820D01*
X61929140Y-94689100D01*
X61959620Y-94765300D01*
X61985020Y-94833880D01*
X62005340Y-94889760D01*
X62018040Y-94927860D01*
X62020580Y-94943100D01*
X62012960Y-94955800D01*
X61990100Y-94991360D01*
X61954540Y-95044700D01*
X61908820Y-95110740D01*
X61855480Y-95189480D01*
X61797060Y-95275840D01*
X61758960Y-95329180D01*
X61502420Y-95705100D01*
X61502420Y-95872740D01*
X61502420Y-96040380D01*
X61893580Y-96431540D01*
X62284740Y-96822700D01*
X62449840Y-96822700D01*
X62612400Y-96822700D01*
X62983240Y-96568700D01*
X63351540Y-96314700D01*
X63470920Y-96378200D01*
X63587760Y-96444240D01*
X63760480Y-96439160D01*
X63933200Y-96434080D01*
X64311660Y-95524760D01*
X64690120Y-94615440D01*
X64690120Y-94470660D01*
X64690120Y-94407160D01*
X64687580Y-94353820D01*
X64685040Y-94318260D01*
X64682500Y-94305560D01*
X64667260Y-94287780D01*
X64634240Y-94259840D01*
X64588520Y-94224280D01*
X64545340Y-94193800D01*
X64428500Y-94107440D01*
X64331980Y-94026160D01*
X64253240Y-93944880D01*
X64187200Y-93858520D01*
X64128780Y-93759460D01*
X64090680Y-93685800D01*
X64032260Y-93553720D01*
X63999240Y-93434340D01*
X63991620Y-93325120D01*
X63996700Y-93256540D01*
X64042420Y-93091440D01*
X64113540Y-92936500D01*
X64204980Y-92791720D01*
X64321820Y-92659640D01*
X64456440Y-92545340D01*
X64606300Y-92451360D01*
X64626620Y-92441200D01*
X64733300Y-92392940D01*
X64837440Y-92359920D01*
X64936500Y-92339600D01*
X64994920Y-92334520D01*
X65101600Y-92347220D01*
X65220980Y-92380240D01*
X65345440Y-92433580D01*
X65467360Y-92504700D01*
X65581660Y-92588520D01*
X65685800Y-92682500D01*
X65751840Y-92753620D01*
X65812800Y-92842520D01*
X65873760Y-92949200D01*
X65924560Y-93063500D01*
X65965200Y-93172720D01*
X65975360Y-93208280D01*
X65988060Y-93281940D01*
X65993140Y-93350520D01*
X65988060Y-93416560D01*
X65967740Y-93492760D01*
X65937260Y-93586740D01*
X65929640Y-93607060D01*
X65855980Y-93762000D01*
X65759460Y-93904240D01*
X65637540Y-94036320D01*
X65492760Y-94155700D01*
X65393700Y-94224280D01*
X65353060Y-94252220D01*
X65320040Y-94275080D01*
X65304800Y-94287780D01*
X65302260Y-94308100D01*
X65297180Y-94351280D01*
X65297180Y-94407160D01*
X65294640Y-94460500D01*
X65294640Y-94615440D01*
X65662940Y-95499360D01*
X65723900Y-95651760D01*
X65782320Y-95794000D01*
X65838200Y-95928620D01*
X65889000Y-96050540D01*
X65934720Y-96157220D01*
X65972820Y-96248660D01*
X66003300Y-96324860D01*
X66026160Y-96378200D01*
X66041400Y-96408680D01*
X66043940Y-96413760D01*
X66051560Y-96426460D01*
X66066800Y-96434080D01*
X66092200Y-96439160D01*
X66132840Y-96441700D01*
X66193800Y-96441700D01*
X66224280Y-96441700D01*
X66391920Y-96441700D01*
X66511300Y-96378200D01*
X66630680Y-96314700D01*
X66861820Y-96474720D01*
X66945640Y-96530600D01*
X67032000Y-96591560D01*
X67115820Y-96647440D01*
X67186940Y-96695700D01*
X67232660Y-96728720D01*
X67372360Y-96822700D01*
X67537460Y-96822700D01*
X67700020Y-96822700D01*
X68093720Y-96431540D01*
X68484880Y-96040380D01*
X68484880Y-95875280D01*
X68484880Y-95804160D01*
X68482340Y-95755900D01*
X68477260Y-95720340D01*
X68469640Y-95694940D01*
X68454400Y-95669540D01*
X68436620Y-95644140D01*
X68416300Y-95613660D01*
X68383280Y-95562860D01*
X68337560Y-95496820D01*
X68286760Y-95420620D01*
X68228340Y-95336800D01*
X68177540Y-95260600D01*
X68119120Y-95176780D01*
X68068320Y-95100580D01*
X68025140Y-95034540D01*
X67992120Y-94981200D01*
X67969260Y-94945640D01*
X67961640Y-94930400D01*
X67966720Y-94912620D01*
X67981960Y-94871980D01*
X68002280Y-94813560D01*
X68032760Y-94739900D01*
X68065780Y-94656080D01*
X68091180Y-94590040D01*
X68134360Y-94480820D01*
X68169920Y-94397000D01*
X68197860Y-94333500D01*
X68220720Y-94290320D01*
X68235960Y-94264920D01*
X68248660Y-94254760D01*
X68271520Y-94249680D01*
X68314700Y-94239520D01*
X68380740Y-94226820D01*
X68464560Y-94209040D01*
X68563620Y-94191260D01*
X68672840Y-94168400D01*
X68779520Y-94150620D01*
X68893820Y-94127760D01*
X69003040Y-94107440D01*
X69097020Y-94087120D01*
X69178300Y-94071880D01*
X69241800Y-94056640D01*
X69282440Y-94046480D01*
X69297680Y-94041400D01*
X69302760Y-94033780D01*
X69305300Y-94016000D01*
X69307840Y-93985520D01*
X69310380Y-93942340D01*
X69312920Y-93883920D01*
X69315460Y-93805180D01*
X69315460Y-93708660D01*
X69315460Y-93589280D01*
X69318000Y-93441960D01*
X69318000Y-93330200D01*
X69318000Y-92634240D01*
X69284980Y-92616460D01*
X69264660Y-92608840D01*
X69218940Y-92596140D01*
X69152900Y-92583440D01*
X69069080Y-92565660D01*
X68970020Y-92545340D01*
X68858260Y-92525020D01*
X68741420Y-92502160D01*
X68738880Y-92502160D01*
X68622040Y-92479300D01*
X68512820Y-92458980D01*
X68413760Y-92438660D01*
X68332480Y-92420880D01*
X68268980Y-92408180D01*
X68225800Y-92395480D01*
X68205480Y-92390400D01*
X68205480Y-92390400D01*
X68195320Y-92372620D01*
X68177540Y-92334520D01*
X68152140Y-92278640D01*
X68119120Y-92210060D01*
X68086100Y-92133860D01*
X68053080Y-92055120D01*
X68017520Y-91978920D01*
X67987040Y-91907800D01*
X67961640Y-91844300D01*
X67943860Y-91798580D01*
X67933700Y-91770640D01*
X67933700Y-91768100D01*
X67941320Y-91752860D01*
X67964180Y-91717300D01*
X67997200Y-91663960D01*
X68042920Y-91595380D01*
X68096260Y-91516640D01*
X68157220Y-91427740D01*
X68208020Y-91351540D01*
X68484880Y-90950220D01*
X68484880Y-90787660D01*
X68484880Y-90625100D01*
X68093720Y-90231400D01*
X67702560Y-89840240D01*
X67534920Y-89840240D01*
X67367280Y-89840240D01*
X67011680Y-90084080D01*
X66920240Y-90145040D01*
X66833880Y-90206000D01*
X66755140Y-90259340D01*
X66689100Y-90305060D01*
X66638300Y-90340620D01*
X66605280Y-90363480D01*
X66600200Y-90366020D01*
X66541780Y-90406660D01*
X66275080Y-90297440D01*
X66170940Y-90256800D01*
X66092200Y-90223780D01*
X66031240Y-90198380D01*
X65988060Y-90178060D01*
X65960120Y-90162820D01*
X65942340Y-90150120D01*
X65929640Y-90139960D01*
X65924560Y-90127260D01*
X65924560Y-90124720D01*
X65919480Y-90104400D01*
X65909320Y-90058680D01*
X65896620Y-89995180D01*
X65881380Y-89911360D01*
X65861060Y-89812300D01*
X65840740Y-89703080D01*
X65820420Y-89583700D01*
X65817880Y-89571000D01*
X65795020Y-89454160D01*
X65772160Y-89342400D01*
X65754380Y-89243340D01*
X65736600Y-89159520D01*
X65721360Y-89093480D01*
X65711200Y-89047760D01*
X65703580Y-89027440D01*
X65703580Y-89027440D01*
X65695960Y-89022360D01*
X65678180Y-89019820D01*
X65652780Y-89014740D01*
X65612140Y-89012200D01*
X65556260Y-89012200D01*
X65482600Y-89009660D01*
X65391160Y-89009660D01*
X65276860Y-89007120D01*
X65137160Y-89007120D01*
X64994920Y-89007120D01*
X64857760Y-89007120D01*
X64728220Y-89009660D01*
X64611380Y-89009660D01*
X64507240Y-89012200D01*
X64418340Y-89012200D01*
X64352300Y-89014740D01*
X64306580Y-89017280D01*
X64283720Y-89019820D01*
X64283720Y-89019820D01*
X64276100Y-89037600D01*
X64265940Y-89078240D01*
X64250700Y-89146820D01*
X64230380Y-89233180D01*
X64210060Y-89342400D01*
X64184660Y-89469400D01*
X64166880Y-89565920D01*
X64144020Y-89685300D01*
X64123700Y-89799600D01*
X64103380Y-89901200D01*
X64088140Y-89987560D01*
X64072900Y-90056140D01*
X64062740Y-90104400D01*
X64057660Y-90129800D01*
X64057660Y-90129800D01*
X64044960Y-90145040D01*
X64014480Y-90162820D01*
X63968760Y-90185680D01*
X63900180Y-90216160D01*
X63811280Y-90256800D01*
X63745240Y-90282200D01*
X63648720Y-90322840D01*
X63575060Y-90350780D01*
X63521720Y-90373640D01*
X63481080Y-90386340D01*
X63455680Y-90391420D01*
X63435360Y-90393960D01*
X63422660Y-90388880D01*
X63409960Y-90383800D01*
X63407420Y-90381260D01*
X63387100Y-90368560D01*
X63346460Y-90340620D01*
X63290580Y-90299980D01*
X63216920Y-90251720D01*
X63135640Y-90195840D01*
X63044200Y-90134880D01*
X62993400Y-90099320D01*
X62617480Y-89840240D01*
X62449840Y-89840240D01*
X62284740Y-89840240D01*
X61893580Y-90231400D01*
X61502420Y-90622560D01*
X61502420Y-90790200D01*
X61502420Y-90957840D01*
X61779280Y-91359160D01*
X62056140Y-91760480D01*
X61924060Y-92072900D01*
X61883420Y-92161800D01*
X61847860Y-92243080D01*
X61814840Y-92309120D01*
X61789440Y-92359920D01*
X61771660Y-92390400D01*
X61766580Y-92395480D01*
X61746260Y-92400560D01*
X61703080Y-92410720D01*
X61639580Y-92425960D01*
X61555760Y-92441200D01*
X61456700Y-92461520D01*
X61347480Y-92481840D01*
X61230640Y-92504700D01*
X61217940Y-92507240D01*
X61080780Y-92532640D01*
X60961400Y-92555500D01*
X60862340Y-92575820D01*
X60781060Y-92593600D01*
X60722640Y-92608840D01*
X60689620Y-92619000D01*
X60682000Y-92624080D01*
X60679460Y-92639320D01*
X60676920Y-92682500D01*
X60674380Y-92748540D01*
X60671840Y-92834900D01*
X60671840Y-92936500D01*
X60669300Y-93050800D01*
X60669300Y-93177800D01*
X60669300Y-93314960D01*
X60669300Y-93332740D01*
X60669300Y-93492760D01*
X60669300Y-93492760D01*
D12*
G36*
X78919680Y-91435360D02*
X81317440Y-91435360D01*
X81317440Y-92166880D01*
X78919680Y-92166880D01*
X78919680Y-93497840D01*
X78919622Y-93660521D01*
X78919453Y-93817499D01*
X78919178Y-93967585D01*
X78918806Y-94109589D01*
X78918343Y-94242325D01*
X78917796Y-94364602D01*
X78917172Y-94475233D01*
X78916478Y-94573030D01*
X78915721Y-94656804D01*
X78914908Y-94725366D01*
X78914045Y-94777528D01*
X78913140Y-94812102D01*
X78912200Y-94827899D01*
X78911914Y-94828800D01*
X78902603Y-94821938D01*
X78881432Y-94802868D01*
X78850798Y-94773856D01*
X78813100Y-94737174D01*
X78772361Y-94696720D01*
X78640574Y-94564640D01*
X76389840Y-94564640D01*
X76389840Y-93843280D01*
X78787600Y-93843280D01*
X78787600Y-89769120D01*
X73184407Y-89769120D01*
X74017481Y-90602240D01*
X74850554Y-91435360D01*
X77111200Y-91435360D01*
X77111200Y-92166880D01*
X76585392Y-92166879D01*
X76059583Y-92166879D01*
X75386512Y-92840008D01*
X74713440Y-93513136D01*
X74713441Y-94204017D01*
X74713441Y-94894897D01*
X75386569Y-95567968D01*
X76059697Y-96241040D01*
X82983839Y-96241040D01*
X82981367Y-93843280D01*
X81317440Y-93843280D01*
X81317440Y-94564640D01*
X81037871Y-94564640D01*
X80811896Y-94338497D01*
X80585920Y-94112354D01*
X80585920Y-93843280D01*
X81317440Y-93843280D01*
X82981367Y-93843280D01*
X82981220Y-93701204D01*
X82978600Y-91161369D01*
X83085280Y-91267252D01*
X83128935Y-91309981D01*
X83162673Y-91340978D01*
X83190567Y-91363248D01*
X83216691Y-91379795D01*
X83245116Y-91393626D01*
X83270965Y-91404247D01*
X83349969Y-91435359D01*
X84200711Y-91435359D01*
X85051452Y-91435360D01*
X85234121Y-91618240D01*
X85416789Y-91801119D01*
X85234120Y-91983999D01*
X85051452Y-92166880D01*
X83115760Y-92166880D01*
X83115760Y-96241040D01*
X88084000Y-96241040D01*
X88084000Y-94564640D01*
X84782000Y-94564640D01*
X84782000Y-93843280D01*
X85312889Y-93843280D01*
X85843778Y-93843279D01*
X86516998Y-93170002D01*
X87190219Y-92496724D01*
X87187530Y-91846662D01*
X87186924Y-91733099D01*
X87186085Y-91625215D01*
X87185044Y-91524783D01*
X87183831Y-91433575D01*
X87182478Y-91353363D01*
X87181016Y-91285919D01*
X87179475Y-91233015D01*
X87177885Y-91196423D01*
X87176279Y-91177916D01*
X87175860Y-91176280D01*
X87179837Y-91176740D01*
X87196152Y-91189833D01*
X87222828Y-91213772D01*
X87257884Y-91246772D01*
X87299343Y-91287045D01*
X87308071Y-91295660D01*
X87449264Y-91435360D01*
X88216080Y-91435360D01*
X88216080Y-96241040D01*
X89882320Y-96241040D01*
X89882320Y-91435360D01*
X90649447Y-91435360D01*
X91482521Y-90602240D01*
X92315594Y-89769120D01*
X78919680Y-89769120D01*
X78919680Y-91435360D01*
X78919680Y-91435360D01*
G37*
X78919680Y-91435360D02*
X81317440Y-91435360D01*
X81317440Y-92166880D01*
X78919680Y-92166880D01*
X78919680Y-93497840D01*
X78919622Y-93660521D01*
X78919453Y-93817499D01*
X78919178Y-93967585D01*
X78918806Y-94109589D01*
X78918343Y-94242325D01*
X78917796Y-94364602D01*
X78917172Y-94475233D01*
X78916478Y-94573030D01*
X78915721Y-94656804D01*
X78914908Y-94725366D01*
X78914045Y-94777528D01*
X78913140Y-94812102D01*
X78912200Y-94827899D01*
X78911914Y-94828800D01*
X78902603Y-94821938D01*
X78881432Y-94802868D01*
X78850798Y-94773856D01*
X78813100Y-94737174D01*
X78772361Y-94696720D01*
X78640574Y-94564640D01*
X76389840Y-94564640D01*
X76389840Y-93843280D01*
X78787600Y-93843280D01*
X78787600Y-89769120D01*
X73184407Y-89769120D01*
X74017481Y-90602240D01*
X74850554Y-91435360D01*
X77111200Y-91435360D01*
X77111200Y-92166880D01*
X76585392Y-92166879D01*
X76059583Y-92166879D01*
X75386512Y-92840008D01*
X74713440Y-93513136D01*
X74713441Y-94204017D01*
X74713441Y-94894897D01*
X75386569Y-95567968D01*
X76059697Y-96241040D01*
X82983839Y-96241040D01*
X82981367Y-93843280D01*
X81317440Y-93843280D01*
X81317440Y-94564640D01*
X81037871Y-94564640D01*
X80811896Y-94338497D01*
X80585920Y-94112354D01*
X80585920Y-93843280D01*
X81317440Y-93843280D01*
X82981367Y-93843280D01*
X82981220Y-93701204D01*
X82978600Y-91161369D01*
X83085280Y-91267252D01*
X83128935Y-91309981D01*
X83162673Y-91340978D01*
X83190567Y-91363248D01*
X83216691Y-91379795D01*
X83245116Y-91393626D01*
X83270965Y-91404247D01*
X83349969Y-91435359D01*
X84200711Y-91435359D01*
X85051452Y-91435360D01*
X85234121Y-91618240D01*
X85416789Y-91801119D01*
X85234120Y-91983999D01*
X85051452Y-92166880D01*
X83115760Y-92166880D01*
X83115760Y-96241040D01*
X88084000Y-96241040D01*
X88084000Y-94564640D01*
X84782000Y-94564640D01*
X84782000Y-93843280D01*
X85312889Y-93843280D01*
X85843778Y-93843279D01*
X86516998Y-93170002D01*
X87190219Y-92496724D01*
X87187530Y-91846662D01*
X87186924Y-91733099D01*
X87186085Y-91625215D01*
X87185044Y-91524783D01*
X87183831Y-91433575D01*
X87182478Y-91353363D01*
X87181016Y-91285919D01*
X87179475Y-91233015D01*
X87177885Y-91196423D01*
X87176279Y-91177916D01*
X87175860Y-91176280D01*
X87179837Y-91176740D01*
X87196152Y-91189833D01*
X87222828Y-91213772D01*
X87257884Y-91246772D01*
X87299343Y-91287045D01*
X87308071Y-91295660D01*
X87449264Y-91435360D01*
X88216080Y-91435360D01*
X88216080Y-96241040D01*
X89882320Y-96241040D01*
X89882320Y-91435360D01*
X90649447Y-91435360D01*
X91482521Y-90602240D01*
X92315594Y-89769120D01*
X78919680Y-89769120D01*
X78919680Y-91435360D01*
D13*
X138874000Y-115951000D03*
D14*
X141414000Y-115951000D03*
D15*
X140144000Y-121031000D03*
D16*
X145224000Y-121031000D03*
X135064000Y-121031000D03*
D17*
X143143547Y-125030954D02*
X143954453Y-123571046D01*
X137604276Y-126110328D02*
X137643724Y-125531672D01*
D18*
X152082000Y-128016000D03*
X128206000Y-128016000D03*
D19*
X152082000Y-112776000D03*
X128206000Y-112776000D03*
D13*
X107918000Y-115951000D03*
D14*
X110458000Y-115951000D03*
D13*
X108077000Y-115951000D03*
D14*
X105537000Y-115951000D03*
D13*
X103156000Y-115951000D03*
D14*
X105696000Y-115951000D03*
D13*
X103315000Y-115951000D03*
D14*
X100775000Y-115951000D03*
D13*
X96012000Y-115951000D03*
D14*
X98552000Y-115951000D03*
D15*
X106807000Y-121031000D03*
D16*
X111887000Y-121031000D03*
D20*
X109997432Y-125205793D02*
X111002568Y-123396207D01*
D15*
X104426000Y-121031000D03*
D16*
X99346000Y-121031000D03*
D17*
X106651760Y-125967052D02*
X107948240Y-123632948D01*
D21*
X101773474Y-126210097D02*
X101826526Y-125431903D01*
D15*
X102045000Y-121031000D03*
D17*
X104551760Y-125867052D02*
X105848240Y-123532948D01*
D15*
X97282000Y-121031000D03*
D16*
X92202000Y-121031000D03*
D17*
X99751760Y-125867052D02*
X101048240Y-123532948D01*
X94742276Y-126110328D02*
X94781724Y-125531672D01*
D15*
X109188000Y-121031000D03*
D16*
X114268000Y-121031000D03*
D17*
X112187547Y-125030954D02*
X112998453Y-123571046D01*
D13*
X81725000Y-115951000D03*
D14*
X84265000Y-115951000D03*
D15*
X82995000Y-121031000D03*
D16*
X88075000Y-121031000D03*
D20*
X85997432Y-125205793D02*
X87002568Y-123396207D01*
D22*
X47974000Y-36703000D03*
X45974000Y-36703000D03*
D23*
X96570800Y-33054800D03*
X96570800Y-31054800D03*
D22*
X58690000Y-23876000D03*
X60690000Y-23876000D03*
D23*
X85217000Y-27416000D03*
X85217000Y-25416000D03*
D15*
X133001000Y-121031000D03*
D16*
X127921000Y-121031000D03*
D17*
X135271641Y-126311294D02*
X136728359Y-123688706D01*
X130461276Y-126110328D02*
X130500724Y-125531672D01*
D15*
X137763000Y-121031000D03*
D16*
X142843000Y-121031000D03*
D17*
X140762547Y-125030954D02*
X141573453Y-123571046D01*
D24*
X103696000Y-43078400D03*
X103696000Y-46578520D03*
D15*
X106807000Y-44831000D03*
D16*
X111887000Y-44831000D03*
X101727000Y-44831000D03*
D17*
X109806547Y-48830954D02*
X110617453Y-47371046D01*
X104267276Y-49910328D02*
X104306724Y-49331672D01*
D15*
X97282000Y-63881000D03*
D16*
X102362000Y-63881000D03*
X92202000Y-63881000D03*
D17*
X100281547Y-67880954D02*
X101092453Y-66421046D01*
X94742276Y-68960328D02*
X94781724Y-68381672D01*
D25*
X34619000Y-35301800D03*
X34619000Y-31601800D03*
X40819000Y-35301800D03*
X40819000Y-31601800D03*
D18*
X144939000Y-128016000D03*
X121063000Y-128016000D03*
D19*
X144939000Y-112776000D03*
X121063000Y-112776000D03*
D15*
X73469000Y-121031000D03*
D16*
X68389000Y-121031000D03*
D17*
X75851760Y-125867052D02*
X77148240Y-123532948D01*
X70929276Y-126110328D02*
X70968724Y-125531672D01*
D18*
X149701000Y-128016000D03*
X125825000Y-128016000D03*
D19*
X149701000Y-112776000D03*
X125825000Y-112776000D03*
D18*
X130651000Y-128016000D03*
X106775000Y-128016000D03*
D19*
X130651000Y-112776000D03*
X106775000Y-112776000D03*
D15*
X32988000Y-121031000D03*
D16*
X38068000Y-121031000D03*
X27908000Y-121031000D03*
D17*
X35987547Y-125030954D02*
X36798453Y-123571046D01*
X30448276Y-126110328D02*
X30487724Y-125531672D01*
D15*
X35370000Y-121031000D03*
D16*
X40450000Y-121031000D03*
X30290000Y-121031000D03*
D17*
X38369547Y-125030954D02*
X39180453Y-123571046D01*
X32830276Y-126110328D02*
X32869724Y-125531672D01*
D15*
X35370000Y-63881000D03*
D16*
X40450000Y-63881000D03*
X30290000Y-63881000D03*
D17*
X38369547Y-67880954D02*
X39180453Y-66421046D01*
X32830276Y-68960328D02*
X32869724Y-68381672D01*
D15*
X87757000Y-44831000D03*
D16*
X92837000Y-44831000D03*
X82677000Y-44831000D03*
D17*
X90756547Y-48830954D02*
X91567453Y-47371046D01*
X85217276Y-49910328D02*
X85256724Y-49331672D01*
D26*
X126111000Y-55349140D03*
X126111000Y-58188860D03*
D27*
X56500000Y-26128000D03*
X56500000Y-26778000D03*
X56500000Y-27428000D03*
X56500000Y-28078000D03*
X56500000Y-28728000D03*
X56500000Y-29378000D03*
X56500000Y-30028000D03*
X56500000Y-30678000D03*
X56500000Y-31328000D03*
X56500000Y-31978000D03*
X56500000Y-32628000D03*
X56500000Y-33278000D03*
X56500000Y-33928000D03*
X56500000Y-34578000D03*
X48910000Y-34578000D03*
X48910000Y-33928000D03*
X48910000Y-33278000D03*
X48910000Y-32628000D03*
X48910000Y-31978000D03*
X48910000Y-31328000D03*
X48910000Y-30678000D03*
X48910000Y-30028000D03*
X48910000Y-29378000D03*
X48910000Y-28728000D03*
X48910000Y-28078000D03*
X48910000Y-27428000D03*
X48910000Y-26778000D03*
X48910000Y-26128000D03*
D15*
X125857000Y-44831000D03*
D16*
X130937000Y-44831000D03*
X120777000Y-44831000D03*
D17*
X128856547Y-48830954D02*
X129667453Y-47371046D01*
X123317276Y-49910328D02*
X123356724Y-49331672D01*
D13*
X127127000Y-39751000D03*
D14*
X124587000Y-39751000D03*
D15*
X149669000Y-101981000D03*
D16*
X154749000Y-101981000D03*
X144589000Y-101981000D03*
D17*
X152668547Y-105980954D02*
X153479453Y-104521046D01*
X147129276Y-107060328D02*
X147168724Y-106481672D01*
D15*
X94901000Y-121031000D03*
D16*
X99981000Y-121031000D03*
X89821000Y-121031000D03*
D17*
X97900547Y-125030954D02*
X98711453Y-123571046D01*
X92361276Y-126110328D02*
X92400724Y-125531672D01*
D15*
X130619000Y-101981000D03*
D16*
X135699000Y-101981000D03*
X125539000Y-101981000D03*
D17*
X133618547Y-105980954D02*
X134429453Y-104521046D01*
X128079276Y-107060328D02*
X128118724Y-106481672D01*
D15*
X111570000Y-101981000D03*
D16*
X116650000Y-101981000D03*
X106490000Y-101981000D03*
D17*
X114569547Y-105980954D02*
X115380453Y-104521046D01*
X109030276Y-107060328D02*
X109069724Y-106481672D01*
D15*
X54420000Y-101981000D03*
D16*
X59500000Y-101981000D03*
X49340000Y-101981000D03*
D17*
X57419547Y-105980954D02*
X58230453Y-104521046D01*
X51880276Y-107060328D02*
X51919724Y-106481672D01*
D15*
X42513000Y-101981000D03*
D16*
X47593000Y-101981000D03*
X37433000Y-101981000D03*
D17*
X45512547Y-105980954D02*
X46323453Y-104521046D01*
X39973276Y-107060328D02*
X40012724Y-106481672D01*
D15*
X32988000Y-101981000D03*
D16*
X38068000Y-101981000D03*
X27908000Y-101981000D03*
D17*
X35987547Y-105980954D02*
X36798453Y-104521046D01*
X30448276Y-107060328D02*
X30487724Y-106481672D01*
D15*
X73469000Y-101981000D03*
D16*
X78549000Y-101981000D03*
X68389000Y-101981000D03*
D17*
X76468547Y-105980954D02*
X77279453Y-104521046D01*
X70929276Y-107060328D02*
X70968724Y-106481672D01*
D15*
X92519000Y-101981000D03*
D16*
X97599000Y-101981000D03*
X87439000Y-101981000D03*
D17*
X95518547Y-105980954D02*
X96329453Y-104521046D01*
X89979276Y-107060328D02*
X90018724Y-106481672D01*
D15*
X63945000Y-82931000D03*
D16*
X69025000Y-82931000D03*
X58865000Y-82931000D03*
D17*
X66944547Y-86930954D02*
X67755453Y-85471046D01*
X61405276Y-88010328D02*
X61444724Y-87431672D01*
D15*
X32988000Y-82931000D03*
D16*
X27908000Y-82931000D03*
D17*
X35271641Y-88111294D02*
X36728359Y-85488706D01*
X30448276Y-88010328D02*
X30487724Y-87431672D01*
D15*
X37751000Y-82931000D03*
D16*
X42831000Y-82931000D03*
D17*
X40750547Y-86930954D02*
X41561453Y-85471046D01*
D15*
X82995000Y-82931000D03*
D16*
X88075000Y-82931000D03*
X77915000Y-82931000D03*
D17*
X85994547Y-86930954D02*
X86805453Y-85471046D01*
X80455276Y-88010328D02*
X80494724Y-87431672D01*
D15*
X102045000Y-82931000D03*
D16*
X107125000Y-82931000D03*
X96965000Y-82931000D03*
D17*
X105044547Y-86930954D02*
X105855453Y-85471046D01*
X99505276Y-88010328D02*
X99544724Y-87431672D01*
D15*
X140144000Y-82931000D03*
D16*
X145224000Y-82931000D03*
X135064000Y-82931000D03*
D17*
X143143547Y-86930954D02*
X143954453Y-85471046D01*
X137604276Y-88010328D02*
X137643724Y-87431672D01*
D15*
X78232000Y-63881000D03*
D16*
X83312000Y-63881000D03*
X73152000Y-63881000D03*
D17*
X81231547Y-67880954D02*
X82042453Y-66421046D01*
X75692276Y-68960328D02*
X75731724Y-68381672D01*
D15*
X116332000Y-63881000D03*
D16*
X121412000Y-63881000D03*
X111252000Y-63881000D03*
D17*
X119331547Y-67880954D02*
X120142453Y-66421046D01*
X113792276Y-68960328D02*
X113831724Y-68381672D01*
D15*
X144907000Y-44831000D03*
D16*
X149987000Y-44831000D03*
X139827000Y-44831000D03*
D17*
X147906547Y-48830954D02*
X148717453Y-47371046D01*
X142367276Y-49910328D02*
X142406724Y-49331672D01*
D15*
X135382000Y-63881000D03*
D16*
X140462000Y-63881000D03*
X130302000Y-63881000D03*
D17*
X138381547Y-67880954D02*
X139192453Y-66421046D01*
X132842276Y-68960328D02*
X132881724Y-68381672D01*
D15*
X30607000Y-44831000D03*
D16*
X35687000Y-44831000D03*
X25527000Y-44831000D03*
D17*
X33606547Y-48830954D02*
X34417453Y-47371046D01*
X28067276Y-49910328D02*
X28106724Y-49331672D01*
D15*
X49657000Y-44831000D03*
D16*
X54737000Y-44831000D03*
X44577000Y-44831000D03*
D17*
X52656547Y-48830954D02*
X53467453Y-47371046D01*
X47117276Y-49910328D02*
X47156724Y-49331672D01*
D15*
X68707000Y-44831000D03*
D16*
X73787000Y-44831000D03*
X63627000Y-44831000D03*
D17*
X71706547Y-48830954D02*
X72517453Y-47371046D01*
X66167276Y-49910328D02*
X66206724Y-49331672D01*
D28*
X71815000Y-24603000D03*
X72315000Y-24603000D03*
X72815000Y-24603000D03*
X73315000Y-24603000D03*
X73815000Y-24603000D03*
X74315000Y-24603000D03*
X74815000Y-24603000D03*
X75315000Y-24603000D03*
X75815000Y-24603000D03*
X76315000Y-24603000D03*
X76815000Y-24603000D03*
X77315000Y-24603000D03*
X77815000Y-24603000D03*
X78315000Y-24603000D03*
X78815000Y-24603000D03*
X79315000Y-24603000D03*
D29*
X81315000Y-26603000D03*
X81315000Y-27103000D03*
X81315000Y-27603000D03*
X81315000Y-28103000D03*
X81315000Y-28603000D03*
X81315000Y-29103000D03*
X81315000Y-29603000D03*
X81315000Y-30103000D03*
X81315000Y-30603000D03*
X81315000Y-31103000D03*
X81315000Y-31603000D03*
X81315000Y-32103000D03*
X81315000Y-32603000D03*
X81315000Y-33103000D03*
X81315000Y-33603000D03*
X81315000Y-34103000D03*
D28*
X79315000Y-36103000D03*
X78815000Y-36103000D03*
X78315000Y-36103000D03*
X77815000Y-36103000D03*
X77315000Y-36103000D03*
X76815000Y-36103000D03*
X76315000Y-36103000D03*
X75815000Y-36103000D03*
X75315000Y-36103000D03*
X74815000Y-36103000D03*
X74315000Y-36103000D03*
X73815000Y-36103000D03*
X73315000Y-36103000D03*
X72815000Y-36103000D03*
X72315000Y-36103000D03*
X71815000Y-36103000D03*
D29*
X69815000Y-34103000D03*
X69815000Y-33603000D03*
X69815000Y-33103000D03*
X69815000Y-32603000D03*
X69815000Y-32103000D03*
X69815000Y-31603000D03*
X69815000Y-31103000D03*
X69815000Y-30603000D03*
X69815000Y-30103000D03*
X69815000Y-29603000D03*
X69815000Y-29103000D03*
X69815000Y-28603000D03*
X69815000Y-28103000D03*
X69815000Y-27603000D03*
X69815000Y-27103000D03*
X69815000Y-26603000D03*
D30*
X82385000Y-39581000D03*
X83985000Y-39581000D03*
X83985000Y-37381000D03*
X82385000Y-37381000D03*
D13*
X60452000Y-58501000D03*
D14*
X57912000Y-58501000D03*
D13*
X55690000Y-96901000D03*
D14*
X53150000Y-96901000D03*
D13*
X79502000Y-58501000D03*
D14*
X76962000Y-58501000D03*
D13*
X74739000Y-96901000D03*
D14*
X72199000Y-96901000D03*
D13*
X98552000Y-58801000D03*
D14*
X96012000Y-58801000D03*
D13*
X93789000Y-96901000D03*
D14*
X91249000Y-96901000D03*
D13*
X117602000Y-58801000D03*
D14*
X115062000Y-58801000D03*
D13*
X43783000Y-96901000D03*
D14*
X41243000Y-96901000D03*
D13*
X36640000Y-58501000D03*
D14*
X34100000Y-58501000D03*
D13*
X141414000Y-77851000D03*
D14*
X138874000Y-77851000D03*
D13*
X112840000Y-96901000D03*
D14*
X110300000Y-96901000D03*
D13*
X122364000Y-77851000D03*
D14*
X119824000Y-77851000D03*
D13*
X69977000Y-39751000D03*
D14*
X67437000Y-39751000D03*
D13*
X103315000Y-77851000D03*
D14*
X100775000Y-77851000D03*
D13*
X84265000Y-77851000D03*
D14*
X81725000Y-77851000D03*
D13*
X139033000Y-115951000D03*
D14*
X136493000Y-115951000D03*
D13*
X108077000Y-39751000D03*
D14*
X105537000Y-39751000D03*
D13*
X65215000Y-77851000D03*
D14*
X62675000Y-77851000D03*
D13*
X96171000Y-115951000D03*
D14*
X93631000Y-115951000D03*
D13*
X89027000Y-39751000D03*
D14*
X86487000Y-39751000D03*
D13*
X39021000Y-77851000D03*
D14*
X36481000Y-77851000D03*
D13*
X74739000Y-115951000D03*
D14*
X72199000Y-115951000D03*
D13*
X146177000Y-39751000D03*
D14*
X143637000Y-39751000D03*
D13*
X55531000Y-115951000D03*
D14*
X58071000Y-115951000D03*
D13*
X50927500Y-39751000D03*
D14*
X48387500Y-39751000D03*
D13*
X31718000Y-115951000D03*
D14*
X34258000Y-115951000D03*
D13*
X31877000Y-39751000D03*
D14*
X29337000Y-39751000D03*
D13*
X131889000Y-96901000D03*
D14*
X129349000Y-96901000D03*
D13*
X136652000Y-58801000D03*
D14*
X134112000Y-58801000D03*
D24*
X29877000Y-81178400D03*
X29877000Y-84678520D03*
X60834000Y-81178400D03*
X60834000Y-84678520D03*
X79884000Y-81178400D03*
X79884000Y-84678520D03*
X98934000Y-81178400D03*
X98934000Y-84678520D03*
X118000000Y-81178400D03*
X118000000Y-84678520D03*
X137033000Y-81178400D03*
X137033000Y-84678520D03*
X32260000Y-62128400D03*
X32260000Y-65628520D03*
X56071000Y-62058400D03*
X56071000Y-65558520D03*
X75121000Y-62128400D03*
X75121000Y-65628520D03*
X113221000Y-62128400D03*
X113221000Y-65628520D03*
X132267000Y-62128400D03*
X132267000Y-65628520D03*
X27495500Y-43078400D03*
X27495500Y-46578520D03*
X46545500Y-43078400D03*
X46545500Y-46578520D03*
X122746000Y-43078400D03*
X122746000Y-46578520D03*
X84645500Y-43078400D03*
X84645500Y-46578520D03*
X65595500Y-43078400D03*
X65595500Y-46578520D03*
X94171000Y-62128400D03*
X94171000Y-65628520D03*
X25654000Y-119151400D03*
X25654000Y-122651520D03*
X46824900Y-120307100D03*
X46824900Y-123807220D03*
X70345300Y-119468900D03*
X70345300Y-122969020D03*
X89357200Y-124071380D03*
X89357200Y-127571500D03*
X129921000Y-118897400D03*
X129921000Y-122397520D03*
X141796000Y-43078400D03*
X141796000Y-46578520D03*
X29877000Y-100228400D03*
X29877000Y-103728520D03*
X51310000Y-100228400D03*
X51310000Y-103728520D03*
X70358000Y-100228400D03*
X70358000Y-103728520D03*
X89408000Y-100228400D03*
X89408000Y-103728520D03*
X108460000Y-100228400D03*
X108460000Y-103728520D03*
X127508000Y-100228400D03*
X127508000Y-103728520D03*
D15*
X121094000Y-82931000D03*
D16*
X126174000Y-82931000D03*
X116014000Y-82931000D03*
D17*
X124093547Y-86930954D02*
X124904453Y-85471046D01*
X118554276Y-88010328D02*
X118593724Y-87431672D01*
D15*
X59182000Y-63811000D03*
D16*
X64262000Y-63811000D03*
X54102000Y-63811000D03*
D17*
X62181547Y-67810954D02*
X62992453Y-66351046D01*
X56642276Y-68890328D02*
X56681724Y-68311672D01*
D13*
X34258000Y-77851000D03*
D14*
X31718000Y-77851000D03*
D13*
X34258000Y-96901000D03*
D14*
X31718000Y-96901000D03*
D24*
X146558000Y-100228400D03*
X146558000Y-103728520D03*
D13*
X150939000Y-96901000D03*
D14*
X148399000Y-96901000D03*
D26*
X85217000Y-32407860D03*
X85217000Y-29568140D03*
X130937000Y-72240140D03*
X130937000Y-75079860D03*
D31*
X113433860Y-111379000D03*
X110594140Y-111379000D03*
X137055860Y-110109000D03*
X134216140Y-110109000D03*
X44599860Y-111633000D03*
X41760140Y-111633000D03*
X66189860Y-111633000D03*
X63350140Y-111633000D03*
X90192860Y-111379000D03*
X87353140Y-111379000D03*
X76603860Y-53848000D03*
X73764140Y-53848000D03*
D26*
X138049000Y-91417140D03*
X138049000Y-94256860D03*
D31*
X117243860Y-49911000D03*
X114404140Y-49911000D03*
X58442860Y-53975000D03*
X55603140Y-53975000D03*
X135658860Y-49149000D03*
X132819140Y-49149000D03*
D26*
X45466000Y-71605140D03*
X45466000Y-74444860D03*
D31*
X99463860Y-50546000D03*
X96624140Y-50546000D03*
D26*
X45085000Y-92986860D03*
X45085000Y-90147140D03*
X44704000Y-55222140D03*
X44704000Y-58061860D03*
D15*
X118713000Y-121031000D03*
D16*
X123793000Y-121031000D03*
X113633000Y-121031000D03*
D17*
X121712547Y-125030954D02*
X122523453Y-123571046D01*
X116173276Y-126110328D02*
X116212724Y-125531672D01*
D15*
X149669000Y-121031000D03*
D16*
X154749000Y-121031000D03*
X144589000Y-121031000D03*
D17*
X152668547Y-125030954D02*
X153479453Y-123571046D01*
X147129276Y-126110328D02*
X147168724Y-125531672D01*
D15*
X80613000Y-121031000D03*
D16*
X85693000Y-121031000D03*
X75533000Y-121031000D03*
D20*
X83397432Y-125205793D02*
X84402568Y-123396207D01*
D21*
X78066474Y-126210097D02*
X78119526Y-125431903D01*
D15*
X78232000Y-121031000D03*
D17*
X80851760Y-125867052D02*
X82148240Y-123532948D01*
D13*
X134271000Y-115951000D03*
D14*
X131731000Y-115951000D03*
D13*
X119983000Y-115951000D03*
D14*
X117443000Y-115951000D03*
D13*
X150939000Y-115951000D03*
D14*
X148399000Y-115951000D03*
D13*
X81883000Y-115951000D03*
D14*
X79343000Y-115951000D03*
D13*
X76962000Y-115951000D03*
D14*
X79502000Y-115951000D03*
D13*
X55690000Y-115951000D03*
D14*
X53150000Y-115951000D03*
D13*
X36640000Y-115951000D03*
D14*
X34100000Y-115951000D03*
D13*
X60452000Y-115951000D03*
D14*
X57912000Y-115951000D03*
D32*
X57404000Y-73660000D03*
X59944000Y-73660000D03*
X62484000Y-73660000D03*
X65024000Y-73660000D03*
X67564000Y-73660000D03*
X70104000Y-73660000D03*
X72644000Y-73660000D03*
X75184000Y-73660000D03*
X77724000Y-73660000D03*
X80264000Y-73660000D03*
X82804000Y-73660000D03*
X90424000Y-73660000D03*
X92964000Y-73660000D03*
X95504000Y-73660000D03*
X98044000Y-73660000D03*
D23*
X83312000Y-32782000D03*
X83312000Y-34782000D03*
X88036400Y-32521400D03*
X88036400Y-30521400D03*
X68986400Y-23130000D03*
X68986400Y-25130000D03*
D22*
X60690000Y-25908000D03*
X58690000Y-25908000D03*
X58690000Y-30480000D03*
X60690000Y-30480000D03*
X60690000Y-27940000D03*
X58690000Y-27940000D03*
D23*
X117894100Y-29822900D03*
X117894100Y-31822900D03*
X120040400Y-29835600D03*
X120040400Y-31835600D03*
X78867000Y-39640000D03*
X78867000Y-41640000D03*
D22*
X73390000Y-38481000D03*
X71390000Y-38481000D03*
D23*
X66802000Y-35830000D03*
X66802000Y-37830000D03*
X68834000Y-35830000D03*
X68834000Y-37830000D03*
D22*
X44355000Y-28956000D03*
X46355000Y-28956000D03*
X44339000Y-30734000D03*
X46339000Y-30734000D03*
D23*
X46736000Y-34909000D03*
X46736000Y-32909000D03*
D18*
X30575000Y-94996000D03*
X54451000Y-94996000D03*
D19*
X30575000Y-110236000D03*
X54451000Y-110236000D03*
D33*
X50952400Y-83769200D03*
D34*
X37211000Y-24028400D03*
X146799300Y-33147000D03*
X26974800Y-125209300D03*
X154254200Y-118516400D03*
D35*
X143282000Y-29200000D03*
X127482000Y-29200000D03*
D36*
X135382000Y-30100000D03*
X136382000Y-30100000D03*
X137382000Y-30100000D03*
X138382000Y-30100000D03*
X139382000Y-30100000D03*
X134382000Y-30100000D03*
X133382000Y-30100000D03*
X132382000Y-30100000D03*
X131382000Y-30100000D03*
D37*
X143052000Y-25200000D03*
X127712000Y-25200000D03*
D23*
X115785900Y-31822900D03*
X115785900Y-29822900D03*
X108877100Y-25174700D03*
X108877100Y-27174700D03*
D15*
X54420000Y-121031000D03*
D16*
X49340000Y-121031000D03*
D20*
X56854646Y-126141891D02*
X58345354Y-123458109D01*
D17*
X51880276Y-126110328D02*
X51919724Y-125531672D01*
D15*
X59182000Y-121031000D03*
D16*
X64262000Y-121031000D03*
D38*
X62073154Y-125249503D02*
X63126846Y-123352497D01*
D15*
X56801000Y-121031000D03*
D16*
X61881000Y-121031000D03*
X51721000Y-121031000D03*
D17*
X59800547Y-125030954D02*
X60611453Y-123571046D01*
X54261276Y-126110328D02*
X54300724Y-125531672D01*
D39*
X111510000Y-19250000D03*
X120490000Y-19250000D03*
X111870000Y-25200000D03*
X120130000Y-25200000D03*
D40*
X112400000Y-26450000D03*
D41*
X119600000Y-26450000D03*
D42*
X113600000Y-25100000D03*
X115200000Y-25100000D03*
X118400000Y-25100000D03*
X117600000Y-25100000D03*
X116800000Y-25100000D03*
X114400000Y-25100000D03*
X113200000Y-25800000D03*
X114800000Y-25800000D03*
X115600000Y-25800000D03*
X116400000Y-25800000D03*
X117200000Y-25800000D03*
X118800000Y-25800000D03*
D43*
X118750000Y-27110000D03*
X118250000Y-27110000D03*
X117750000Y-27110000D03*
X117250000Y-27110000D03*
X116750000Y-27110000D03*
X116250000Y-27110000D03*
X115750000Y-27110000D03*
X115250000Y-27110000D03*
X114750000Y-27110000D03*
X114250000Y-27110000D03*
X113750000Y-27110000D03*
X113250000Y-27110000D03*
D44*
X91998800Y-32564800D03*
X89698800Y-32564800D03*
X94298800Y-32564800D03*
D45*
X91998800Y-26464800D03*
M02*
