G04 #@! TF.FileFunction,Copper,L2,Bot,Signal*
%FSLAX46Y46*%
G04 Gerber Fmt 4.6, Leading zero omitted, Abs format (unit mm)*
G04 Created by KiCad (PCBNEW 4.0.1-stable) date 2/1/2016 10:13:23 PM*
%MOMM*%
G01*
G04 APERTURE LIST*
%ADD10C,0.150000*%
%ADD11C,0.002540*%
%ADD12C,0.010000*%
%ADD13O,1.400000X1.400000*%
%ADD14R,1.400000X1.400000*%
%ADD15C,3.987810*%
%ADD16C,1.701810*%
%ADD17C,2.500000*%
%ADD18C,2.100000*%
%ADD19C,2.300000*%
%ADD20R,1.000000X1.250000*%
%ADD21R,1.250000X1.000000*%
%ADD22R,0.850900X1.000760*%
%ADD23R,1.800000X1.100000*%
%ADD24R,1.800860X1.597660*%
%ADD25R,1.430000X0.400000*%
%ADD26R,0.300000X1.500000*%
%ADD27R,1.500000X0.300000*%
%ADD28R,1.200000X1.400000*%
%ADD29R,1.597660X1.800860*%
%ADD30C,1.800000*%
%ADD31C,1.000000*%
%ADD32O,1.800000X3.500000*%
%ADD33R,0.700000X1.800000*%
%ADD34R,1.640000X2.200000*%
%ADD35C,2.000000*%
%ADD36O,0.800000X1.400000*%
%ADD37C,0.600000*%
%ADD38R,0.300000X0.700000*%
%ADD39R,0.950000X1.900000*%
%ADD40R,3.250000X1.900000*%
%ADD41C,0.609600*%
%ADD42C,0.152400*%
%ADD43C,0.304800*%
%ADD44C,0.508000*%
G04 APERTURE END LIST*
D10*
D11*
G36*
X60809000Y-93332740D02*
X60811540Y-93474980D01*
X60811540Y-93591820D01*
X60811540Y-93685800D01*
X60814080Y-93759460D01*
X60814080Y-93815340D01*
X60816620Y-93853440D01*
X60821700Y-93881380D01*
X60826780Y-93896620D01*
X60829320Y-93901700D01*
X60847100Y-93906780D01*
X60890280Y-93916940D01*
X60953780Y-93932180D01*
X61037600Y-93949960D01*
X61134120Y-93967740D01*
X61240800Y-93990600D01*
X61355100Y-94010920D01*
X61484640Y-94033780D01*
X61598940Y-94056640D01*
X61698000Y-94076960D01*
X61779280Y-94094740D01*
X61837700Y-94109980D01*
X61875800Y-94120140D01*
X61885960Y-94125220D01*
X61896120Y-94143000D01*
X61916440Y-94181100D01*
X61941840Y-94239520D01*
X61972320Y-94313180D01*
X62007880Y-94397000D01*
X62045980Y-94485900D01*
X62081540Y-94577340D01*
X62119640Y-94671320D01*
X62152660Y-94757680D01*
X62180600Y-94833880D01*
X62206000Y-94899920D01*
X62221240Y-94948180D01*
X62228860Y-94976120D01*
X62228860Y-94981200D01*
X62221240Y-94996440D01*
X62198380Y-95032000D01*
X62160280Y-95087880D01*
X62114560Y-95156460D01*
X62061220Y-95237740D01*
X61997720Y-95326640D01*
X61931680Y-95423160D01*
X61865640Y-95519680D01*
X61804680Y-95611120D01*
X61751340Y-95694940D01*
X61705620Y-95763520D01*
X61672600Y-95819400D01*
X61649740Y-95854960D01*
X61642120Y-95872740D01*
X61652280Y-95887980D01*
X61680220Y-95921000D01*
X61723400Y-95969260D01*
X61776740Y-96027680D01*
X61842780Y-96093720D01*
X61913900Y-96167380D01*
X61990100Y-96246120D01*
X62068840Y-96324860D01*
X62145040Y-96401060D01*
X62221240Y-96474720D01*
X62287280Y-96540760D01*
X62348240Y-96596640D01*
X62396500Y-96639820D01*
X62429520Y-96670300D01*
X62447300Y-96683000D01*
X62449840Y-96683000D01*
X62465080Y-96675380D01*
X62500640Y-96652520D01*
X62556520Y-96616960D01*
X62625100Y-96571240D01*
X62706380Y-96517900D01*
X62797820Y-96456940D01*
X62891800Y-96393440D01*
X62988320Y-96327400D01*
X63079760Y-96263900D01*
X63161040Y-96210560D01*
X63229620Y-96167380D01*
X63285500Y-96131820D01*
X63321060Y-96111500D01*
X63338840Y-96103880D01*
X63359160Y-96108960D01*
X63397260Y-96126740D01*
X63453140Y-96154680D01*
X63516640Y-96187700D01*
X63547120Y-96202940D01*
X63618240Y-96241040D01*
X63679200Y-96268980D01*
X63727460Y-96289300D01*
X63757940Y-96299460D01*
X63763020Y-96299460D01*
X63770640Y-96294380D01*
X63778260Y-96284220D01*
X63790960Y-96263900D01*
X63806200Y-96233420D01*
X63826520Y-96192780D01*
X63851920Y-96134360D01*
X63884940Y-96063240D01*
X63923040Y-95974340D01*
X63968760Y-95867660D01*
X64022100Y-95738120D01*
X64085600Y-95585720D01*
X64159260Y-95410460D01*
X64171960Y-95379980D01*
X64232920Y-95227580D01*
X64293880Y-95082800D01*
X64347220Y-94948180D01*
X64398020Y-94823720D01*
X64441200Y-94714500D01*
X64479300Y-94620520D01*
X64507240Y-94544320D01*
X64527560Y-94488440D01*
X64537720Y-94455420D01*
X64540260Y-94445260D01*
X64525020Y-94430020D01*
X64494540Y-94402080D01*
X64448820Y-94366520D01*
X64403100Y-94333500D01*
X64286260Y-94247140D01*
X64189740Y-94165860D01*
X64111000Y-94084580D01*
X64044960Y-93995680D01*
X63984000Y-93896620D01*
X63953520Y-93840740D01*
X63887480Y-93678180D01*
X63846840Y-93510540D01*
X63834140Y-93340360D01*
X63846840Y-93170180D01*
X63884940Y-93005080D01*
X63945900Y-92847600D01*
X64032260Y-92695200D01*
X64144020Y-92555500D01*
X64151640Y-92547880D01*
X64283720Y-92425960D01*
X64431040Y-92326900D01*
X64596140Y-92250700D01*
X64677420Y-92222760D01*
X64723140Y-92210060D01*
X64766320Y-92199900D01*
X64814580Y-92194820D01*
X64875540Y-92192280D01*
X64951740Y-92189740D01*
X64994920Y-92189740D01*
X65078740Y-92189740D01*
X65147320Y-92192280D01*
X65198120Y-92197360D01*
X65243840Y-92204980D01*
X65289560Y-92217680D01*
X65309880Y-92222760D01*
X65482600Y-92291340D01*
X65637540Y-92380240D01*
X65777240Y-92492000D01*
X65896620Y-92624080D01*
X65995680Y-92771400D01*
X66023620Y-92824740D01*
X66079500Y-92954280D01*
X66117600Y-93076200D01*
X66137920Y-93203200D01*
X66143000Y-93337820D01*
X66130300Y-93518160D01*
X66089660Y-93690880D01*
X66023620Y-93853440D01*
X65934720Y-94003300D01*
X65820420Y-94137920D01*
X65769620Y-94186180D01*
X65706120Y-94239520D01*
X65632460Y-94295400D01*
X65563880Y-94346200D01*
X65502920Y-94386840D01*
X65495300Y-94389380D01*
X65462280Y-94414780D01*
X65444500Y-94440180D01*
X65441960Y-94445260D01*
X65447040Y-94463040D01*
X65459740Y-94506220D01*
X65485140Y-94572260D01*
X65518160Y-94661160D01*
X65561340Y-94770380D01*
X65612140Y-94897380D01*
X65670560Y-95042160D01*
X65736600Y-95202180D01*
X65802640Y-95359660D01*
X65863600Y-95509520D01*
X65924560Y-95651760D01*
X65980440Y-95786380D01*
X66031240Y-95908300D01*
X66076960Y-96017520D01*
X66115060Y-96108960D01*
X66145540Y-96182620D01*
X66168400Y-96235960D01*
X66181100Y-96266440D01*
X66183640Y-96274060D01*
X66206500Y-96294380D01*
X66226820Y-96302000D01*
X66247140Y-96294380D01*
X66287780Y-96276600D01*
X66343660Y-96251200D01*
X66409700Y-96215640D01*
X66437640Y-96200400D01*
X66521460Y-96157220D01*
X66587500Y-96126740D01*
X66633220Y-96108960D01*
X66656080Y-96106420D01*
X66673860Y-96116580D01*
X66714500Y-96139440D01*
X66770380Y-96175000D01*
X66836420Y-96218180D01*
X66912620Y-96268980D01*
X66960880Y-96302000D01*
X67090420Y-96393440D01*
X67199640Y-96467100D01*
X67288540Y-96528060D01*
X67362200Y-96578860D01*
X67418080Y-96616960D01*
X67461260Y-96644900D01*
X67494280Y-96662680D01*
X67517140Y-96675380D01*
X67529840Y-96680460D01*
X67537460Y-96683000D01*
X67550160Y-96672840D01*
X67583180Y-96644900D01*
X67631440Y-96601720D01*
X67692400Y-96545840D01*
X67763520Y-96477260D01*
X67842260Y-96398520D01*
X67926080Y-96314700D01*
X67943860Y-96296920D01*
X68030220Y-96210560D01*
X68108960Y-96131820D01*
X68180080Y-96058160D01*
X68241040Y-95994660D01*
X68289300Y-95943860D01*
X68322320Y-95908300D01*
X68337560Y-95890520D01*
X68337560Y-95887980D01*
X68340100Y-95880360D01*
X68340100Y-95872740D01*
X68337560Y-95862580D01*
X68332480Y-95844800D01*
X68319780Y-95821940D01*
X68299460Y-95791460D01*
X68271520Y-95748280D01*
X68230880Y-95689860D01*
X68182620Y-95616200D01*
X68119120Y-95522220D01*
X68040380Y-95410460D01*
X68032760Y-95400300D01*
X67966720Y-95303780D01*
X67908300Y-95214880D01*
X67854960Y-95133600D01*
X67809240Y-95067560D01*
X67776220Y-95014220D01*
X67755900Y-94981200D01*
X67750820Y-94965960D01*
X67755900Y-94948180D01*
X67771140Y-94907540D01*
X67791460Y-94849120D01*
X67821940Y-94772920D01*
X67857500Y-94684020D01*
X67895600Y-94584960D01*
X67915920Y-94536700D01*
X67964180Y-94414780D01*
X68004820Y-94315720D01*
X68037840Y-94239520D01*
X68063240Y-94183640D01*
X68083560Y-94145540D01*
X68098800Y-94122680D01*
X68108960Y-94112520D01*
X68129280Y-94107440D01*
X68175000Y-94097280D01*
X68241040Y-94084580D01*
X68324860Y-94066800D01*
X68421380Y-94049020D01*
X68530600Y-94028700D01*
X68637280Y-94008380D01*
X68754120Y-93988060D01*
X68860800Y-93965200D01*
X68957320Y-93947420D01*
X69036060Y-93929640D01*
X69099560Y-93916940D01*
X69140200Y-93906780D01*
X69155440Y-93901700D01*
X69160520Y-93891540D01*
X69165600Y-93873760D01*
X69168140Y-93840740D01*
X69170680Y-93795020D01*
X69173220Y-93731520D01*
X69175760Y-93647700D01*
X69175760Y-93541020D01*
X69175760Y-93411480D01*
X69175760Y-93330200D01*
X69175760Y-92776480D01*
X69142740Y-92756160D01*
X69122420Y-92748540D01*
X69076700Y-92738380D01*
X69010660Y-92723140D01*
X68926840Y-92705360D01*
X68827780Y-92685040D01*
X68718560Y-92664720D01*
X68599180Y-92641860D01*
X68596640Y-92641860D01*
X68479800Y-92621540D01*
X68370580Y-92598680D01*
X68274060Y-92580900D01*
X68190240Y-92563120D01*
X68126740Y-92547880D01*
X68083560Y-92537720D01*
X68065780Y-92530100D01*
X68063240Y-92530100D01*
X68053080Y-92512320D01*
X68035300Y-92474220D01*
X68007360Y-92415800D01*
X67976880Y-92344680D01*
X67941320Y-92263400D01*
X67903220Y-92177040D01*
X67865120Y-92085600D01*
X67827020Y-91999240D01*
X67794000Y-91917960D01*
X67763520Y-91846840D01*
X67740660Y-91790960D01*
X67727960Y-91750320D01*
X67722880Y-91735080D01*
X67730500Y-91719840D01*
X67753360Y-91681740D01*
X67786380Y-91628400D01*
X67832100Y-91557280D01*
X67887980Y-91476000D01*
X67948940Y-91384560D01*
X68017520Y-91285500D01*
X68027680Y-91270260D01*
X68096260Y-91168660D01*
X68159760Y-91074680D01*
X68215640Y-90990860D01*
X68263900Y-90917200D01*
X68302000Y-90858780D01*
X68327400Y-90818140D01*
X68340100Y-90797820D01*
X68340100Y-90797820D01*
X68337560Y-90785120D01*
X68324860Y-90767340D01*
X68304540Y-90739400D01*
X68268980Y-90698760D01*
X68220720Y-90645420D01*
X68154680Y-90579380D01*
X68073400Y-90495560D01*
X67974340Y-90396500D01*
X67954020Y-90376180D01*
X67854960Y-90274580D01*
X67763520Y-90188220D01*
X67687320Y-90114560D01*
X67623820Y-90056140D01*
X67575560Y-90012960D01*
X67545080Y-89987560D01*
X67534920Y-89982480D01*
X67517140Y-89990100D01*
X67479040Y-90010420D01*
X67423160Y-90045980D01*
X67352040Y-90091700D01*
X67270760Y-90145040D01*
X67176780Y-90208540D01*
X67077720Y-90274580D01*
X67067560Y-90282200D01*
X66968500Y-90350780D01*
X66874520Y-90414280D01*
X66790700Y-90472700D01*
X66717040Y-90520960D01*
X66658620Y-90559060D01*
X66617980Y-90587000D01*
X66597660Y-90599700D01*
X66597660Y-90599700D01*
X66584960Y-90604780D01*
X66567180Y-90602240D01*
X66539240Y-90597160D01*
X66501140Y-90584460D01*
X66447800Y-90566680D01*
X66376680Y-90538740D01*
X66282700Y-90500640D01*
X66216660Y-90472700D01*
X66099820Y-90426980D01*
X66008380Y-90388880D01*
X65934720Y-90358400D01*
X65881380Y-90333000D01*
X65843280Y-90315220D01*
X65815340Y-90302520D01*
X65800100Y-90289820D01*
X65789940Y-90279660D01*
X65784860Y-90272040D01*
X65782320Y-90264420D01*
X65777240Y-90244100D01*
X65769620Y-90200920D01*
X65756920Y-90134880D01*
X65739140Y-90051060D01*
X65721360Y-89952000D01*
X65701040Y-89842780D01*
X65678180Y-89725940D01*
X65675640Y-89713240D01*
X65652780Y-89593860D01*
X65632460Y-89484640D01*
X65612140Y-89385580D01*
X65594360Y-89301760D01*
X65579120Y-89235720D01*
X65568960Y-89190000D01*
X65563880Y-89169680D01*
X65561340Y-89169680D01*
X65553720Y-89164600D01*
X65535940Y-89159520D01*
X65508000Y-89156980D01*
X65464820Y-89154440D01*
X65403860Y-89151900D01*
X65325120Y-89149360D01*
X65226060Y-89149360D01*
X65101600Y-89149360D01*
X64994920Y-89149360D01*
X64873000Y-89149360D01*
X64758700Y-89149360D01*
X64657100Y-89151900D01*
X64568200Y-89154440D01*
X64499620Y-89154440D01*
X64451360Y-89156980D01*
X64425960Y-89159520D01*
X64425960Y-89159520D01*
X64418340Y-89177300D01*
X64405640Y-89220480D01*
X64390400Y-89286520D01*
X64372620Y-89375420D01*
X64349760Y-89484640D01*
X64326900Y-89609100D01*
X64304040Y-89725940D01*
X64281180Y-89847860D01*
X64258320Y-89959620D01*
X64238000Y-90061220D01*
X64222760Y-90147580D01*
X64207520Y-90216160D01*
X64194820Y-90264420D01*
X64189740Y-90289820D01*
X64187200Y-90292360D01*
X64169420Y-90302520D01*
X64131320Y-90320300D01*
X64072900Y-90345700D01*
X64004320Y-90376180D01*
X63923040Y-90409200D01*
X63836680Y-90444760D01*
X63747780Y-90480320D01*
X63661420Y-90515880D01*
X63580140Y-90546360D01*
X63509020Y-90574300D01*
X63453140Y-90594620D01*
X63415040Y-90607320D01*
X63399800Y-90612400D01*
X63384560Y-90602240D01*
X63349000Y-90579380D01*
X63295660Y-90543820D01*
X63227080Y-90495560D01*
X63145800Y-90439680D01*
X63054360Y-90378720D01*
X62952760Y-90310140D01*
X62929900Y-90292360D01*
X62828300Y-90223780D01*
X62734320Y-90160280D01*
X62647960Y-90104400D01*
X62574300Y-90056140D01*
X62515880Y-90018040D01*
X62475240Y-89992640D01*
X62452380Y-89982480D01*
X62449840Y-89982480D01*
X62434600Y-89990100D01*
X62401580Y-90018040D01*
X62355860Y-90061220D01*
X62297440Y-90117100D01*
X62228860Y-90180600D01*
X62155200Y-90254260D01*
X62076460Y-90330460D01*
X62000260Y-90409200D01*
X61921520Y-90485400D01*
X61850400Y-90561600D01*
X61784360Y-90627640D01*
X61728480Y-90688600D01*
X61682760Y-90736860D01*
X61654820Y-90772420D01*
X61642120Y-90790200D01*
X61642120Y-90790200D01*
X61649740Y-90807980D01*
X61672600Y-90843540D01*
X61708160Y-90899420D01*
X61753880Y-90970540D01*
X61807220Y-91051820D01*
X61868180Y-91143260D01*
X61936760Y-91242320D01*
X61939300Y-91247400D01*
X62007880Y-91346460D01*
X62071380Y-91440440D01*
X62129800Y-91524260D01*
X62178060Y-91595380D01*
X62213620Y-91653800D01*
X62241560Y-91691900D01*
X62251720Y-91712220D01*
X62251720Y-91712220D01*
X62254260Y-91724920D01*
X62251720Y-91745240D01*
X62241560Y-91778260D01*
X62226320Y-91826520D01*
X62200920Y-91890020D01*
X62165360Y-91973840D01*
X62122180Y-92077980D01*
X62099320Y-92131320D01*
X62053600Y-92238000D01*
X62012960Y-92329440D01*
X61974860Y-92410720D01*
X61944380Y-92471680D01*
X61921520Y-92514860D01*
X61908820Y-92535180D01*
X61906280Y-92537720D01*
X61888500Y-92542800D01*
X61845320Y-92552960D01*
X61779280Y-92565660D01*
X61698000Y-92583440D01*
X61598940Y-92601220D01*
X61489720Y-92624080D01*
X61370340Y-92646940D01*
X61357640Y-92646940D01*
X61223020Y-92674880D01*
X61103640Y-92697740D01*
X61002040Y-92718060D01*
X60923300Y-92735840D01*
X60864880Y-92751080D01*
X60829320Y-92761240D01*
X60821700Y-92763780D01*
X60819160Y-92781560D01*
X60816620Y-92824740D01*
X60814080Y-92888240D01*
X60814080Y-92972060D01*
X60811540Y-93071120D01*
X60811540Y-93180340D01*
X60809000Y-93302260D01*
X60809000Y-93332740D01*
X60809000Y-93332740D01*
X60809000Y-93332740D01*
G37*
X60809000Y-93332740D02*
X60811540Y-93474980D01*
X60811540Y-93591820D01*
X60811540Y-93685800D01*
X60814080Y-93759460D01*
X60814080Y-93815340D01*
X60816620Y-93853440D01*
X60821700Y-93881380D01*
X60826780Y-93896620D01*
X60829320Y-93901700D01*
X60847100Y-93906780D01*
X60890280Y-93916940D01*
X60953780Y-93932180D01*
X61037600Y-93949960D01*
X61134120Y-93967740D01*
X61240800Y-93990600D01*
X61355100Y-94010920D01*
X61484640Y-94033780D01*
X61598940Y-94056640D01*
X61698000Y-94076960D01*
X61779280Y-94094740D01*
X61837700Y-94109980D01*
X61875800Y-94120140D01*
X61885960Y-94125220D01*
X61896120Y-94143000D01*
X61916440Y-94181100D01*
X61941840Y-94239520D01*
X61972320Y-94313180D01*
X62007880Y-94397000D01*
X62045980Y-94485900D01*
X62081540Y-94577340D01*
X62119640Y-94671320D01*
X62152660Y-94757680D01*
X62180600Y-94833880D01*
X62206000Y-94899920D01*
X62221240Y-94948180D01*
X62228860Y-94976120D01*
X62228860Y-94981200D01*
X62221240Y-94996440D01*
X62198380Y-95032000D01*
X62160280Y-95087880D01*
X62114560Y-95156460D01*
X62061220Y-95237740D01*
X61997720Y-95326640D01*
X61931680Y-95423160D01*
X61865640Y-95519680D01*
X61804680Y-95611120D01*
X61751340Y-95694940D01*
X61705620Y-95763520D01*
X61672600Y-95819400D01*
X61649740Y-95854960D01*
X61642120Y-95872740D01*
X61652280Y-95887980D01*
X61680220Y-95921000D01*
X61723400Y-95969260D01*
X61776740Y-96027680D01*
X61842780Y-96093720D01*
X61913900Y-96167380D01*
X61990100Y-96246120D01*
X62068840Y-96324860D01*
X62145040Y-96401060D01*
X62221240Y-96474720D01*
X62287280Y-96540760D01*
X62348240Y-96596640D01*
X62396500Y-96639820D01*
X62429520Y-96670300D01*
X62447300Y-96683000D01*
X62449840Y-96683000D01*
X62465080Y-96675380D01*
X62500640Y-96652520D01*
X62556520Y-96616960D01*
X62625100Y-96571240D01*
X62706380Y-96517900D01*
X62797820Y-96456940D01*
X62891800Y-96393440D01*
X62988320Y-96327400D01*
X63079760Y-96263900D01*
X63161040Y-96210560D01*
X63229620Y-96167380D01*
X63285500Y-96131820D01*
X63321060Y-96111500D01*
X63338840Y-96103880D01*
X63359160Y-96108960D01*
X63397260Y-96126740D01*
X63453140Y-96154680D01*
X63516640Y-96187700D01*
X63547120Y-96202940D01*
X63618240Y-96241040D01*
X63679200Y-96268980D01*
X63727460Y-96289300D01*
X63757940Y-96299460D01*
X63763020Y-96299460D01*
X63770640Y-96294380D01*
X63778260Y-96284220D01*
X63790960Y-96263900D01*
X63806200Y-96233420D01*
X63826520Y-96192780D01*
X63851920Y-96134360D01*
X63884940Y-96063240D01*
X63923040Y-95974340D01*
X63968760Y-95867660D01*
X64022100Y-95738120D01*
X64085600Y-95585720D01*
X64159260Y-95410460D01*
X64171960Y-95379980D01*
X64232920Y-95227580D01*
X64293880Y-95082800D01*
X64347220Y-94948180D01*
X64398020Y-94823720D01*
X64441200Y-94714500D01*
X64479300Y-94620520D01*
X64507240Y-94544320D01*
X64527560Y-94488440D01*
X64537720Y-94455420D01*
X64540260Y-94445260D01*
X64525020Y-94430020D01*
X64494540Y-94402080D01*
X64448820Y-94366520D01*
X64403100Y-94333500D01*
X64286260Y-94247140D01*
X64189740Y-94165860D01*
X64111000Y-94084580D01*
X64044960Y-93995680D01*
X63984000Y-93896620D01*
X63953520Y-93840740D01*
X63887480Y-93678180D01*
X63846840Y-93510540D01*
X63834140Y-93340360D01*
X63846840Y-93170180D01*
X63884940Y-93005080D01*
X63945900Y-92847600D01*
X64032260Y-92695200D01*
X64144020Y-92555500D01*
X64151640Y-92547880D01*
X64283720Y-92425960D01*
X64431040Y-92326900D01*
X64596140Y-92250700D01*
X64677420Y-92222760D01*
X64723140Y-92210060D01*
X64766320Y-92199900D01*
X64814580Y-92194820D01*
X64875540Y-92192280D01*
X64951740Y-92189740D01*
X64994920Y-92189740D01*
X65078740Y-92189740D01*
X65147320Y-92192280D01*
X65198120Y-92197360D01*
X65243840Y-92204980D01*
X65289560Y-92217680D01*
X65309880Y-92222760D01*
X65482600Y-92291340D01*
X65637540Y-92380240D01*
X65777240Y-92492000D01*
X65896620Y-92624080D01*
X65995680Y-92771400D01*
X66023620Y-92824740D01*
X66079500Y-92954280D01*
X66117600Y-93076200D01*
X66137920Y-93203200D01*
X66143000Y-93337820D01*
X66130300Y-93518160D01*
X66089660Y-93690880D01*
X66023620Y-93853440D01*
X65934720Y-94003300D01*
X65820420Y-94137920D01*
X65769620Y-94186180D01*
X65706120Y-94239520D01*
X65632460Y-94295400D01*
X65563880Y-94346200D01*
X65502920Y-94386840D01*
X65495300Y-94389380D01*
X65462280Y-94414780D01*
X65444500Y-94440180D01*
X65441960Y-94445260D01*
X65447040Y-94463040D01*
X65459740Y-94506220D01*
X65485140Y-94572260D01*
X65518160Y-94661160D01*
X65561340Y-94770380D01*
X65612140Y-94897380D01*
X65670560Y-95042160D01*
X65736600Y-95202180D01*
X65802640Y-95359660D01*
X65863600Y-95509520D01*
X65924560Y-95651760D01*
X65980440Y-95786380D01*
X66031240Y-95908300D01*
X66076960Y-96017520D01*
X66115060Y-96108960D01*
X66145540Y-96182620D01*
X66168400Y-96235960D01*
X66181100Y-96266440D01*
X66183640Y-96274060D01*
X66206500Y-96294380D01*
X66226820Y-96302000D01*
X66247140Y-96294380D01*
X66287780Y-96276600D01*
X66343660Y-96251200D01*
X66409700Y-96215640D01*
X66437640Y-96200400D01*
X66521460Y-96157220D01*
X66587500Y-96126740D01*
X66633220Y-96108960D01*
X66656080Y-96106420D01*
X66673860Y-96116580D01*
X66714500Y-96139440D01*
X66770380Y-96175000D01*
X66836420Y-96218180D01*
X66912620Y-96268980D01*
X66960880Y-96302000D01*
X67090420Y-96393440D01*
X67199640Y-96467100D01*
X67288540Y-96528060D01*
X67362200Y-96578860D01*
X67418080Y-96616960D01*
X67461260Y-96644900D01*
X67494280Y-96662680D01*
X67517140Y-96675380D01*
X67529840Y-96680460D01*
X67537460Y-96683000D01*
X67550160Y-96672840D01*
X67583180Y-96644900D01*
X67631440Y-96601720D01*
X67692400Y-96545840D01*
X67763520Y-96477260D01*
X67842260Y-96398520D01*
X67926080Y-96314700D01*
X67943860Y-96296920D01*
X68030220Y-96210560D01*
X68108960Y-96131820D01*
X68180080Y-96058160D01*
X68241040Y-95994660D01*
X68289300Y-95943860D01*
X68322320Y-95908300D01*
X68337560Y-95890520D01*
X68337560Y-95887980D01*
X68340100Y-95880360D01*
X68340100Y-95872740D01*
X68337560Y-95862580D01*
X68332480Y-95844800D01*
X68319780Y-95821940D01*
X68299460Y-95791460D01*
X68271520Y-95748280D01*
X68230880Y-95689860D01*
X68182620Y-95616200D01*
X68119120Y-95522220D01*
X68040380Y-95410460D01*
X68032760Y-95400300D01*
X67966720Y-95303780D01*
X67908300Y-95214880D01*
X67854960Y-95133600D01*
X67809240Y-95067560D01*
X67776220Y-95014220D01*
X67755900Y-94981200D01*
X67750820Y-94965960D01*
X67755900Y-94948180D01*
X67771140Y-94907540D01*
X67791460Y-94849120D01*
X67821940Y-94772920D01*
X67857500Y-94684020D01*
X67895600Y-94584960D01*
X67915920Y-94536700D01*
X67964180Y-94414780D01*
X68004820Y-94315720D01*
X68037840Y-94239520D01*
X68063240Y-94183640D01*
X68083560Y-94145540D01*
X68098800Y-94122680D01*
X68108960Y-94112520D01*
X68129280Y-94107440D01*
X68175000Y-94097280D01*
X68241040Y-94084580D01*
X68324860Y-94066800D01*
X68421380Y-94049020D01*
X68530600Y-94028700D01*
X68637280Y-94008380D01*
X68754120Y-93988060D01*
X68860800Y-93965200D01*
X68957320Y-93947420D01*
X69036060Y-93929640D01*
X69099560Y-93916940D01*
X69140200Y-93906780D01*
X69155440Y-93901700D01*
X69160520Y-93891540D01*
X69165600Y-93873760D01*
X69168140Y-93840740D01*
X69170680Y-93795020D01*
X69173220Y-93731520D01*
X69175760Y-93647700D01*
X69175760Y-93541020D01*
X69175760Y-93411480D01*
X69175760Y-93330200D01*
X69175760Y-92776480D01*
X69142740Y-92756160D01*
X69122420Y-92748540D01*
X69076700Y-92738380D01*
X69010660Y-92723140D01*
X68926840Y-92705360D01*
X68827780Y-92685040D01*
X68718560Y-92664720D01*
X68599180Y-92641860D01*
X68596640Y-92641860D01*
X68479800Y-92621540D01*
X68370580Y-92598680D01*
X68274060Y-92580900D01*
X68190240Y-92563120D01*
X68126740Y-92547880D01*
X68083560Y-92537720D01*
X68065780Y-92530100D01*
X68063240Y-92530100D01*
X68053080Y-92512320D01*
X68035300Y-92474220D01*
X68007360Y-92415800D01*
X67976880Y-92344680D01*
X67941320Y-92263400D01*
X67903220Y-92177040D01*
X67865120Y-92085600D01*
X67827020Y-91999240D01*
X67794000Y-91917960D01*
X67763520Y-91846840D01*
X67740660Y-91790960D01*
X67727960Y-91750320D01*
X67722880Y-91735080D01*
X67730500Y-91719840D01*
X67753360Y-91681740D01*
X67786380Y-91628400D01*
X67832100Y-91557280D01*
X67887980Y-91476000D01*
X67948940Y-91384560D01*
X68017520Y-91285500D01*
X68027680Y-91270260D01*
X68096260Y-91168660D01*
X68159760Y-91074680D01*
X68215640Y-90990860D01*
X68263900Y-90917200D01*
X68302000Y-90858780D01*
X68327400Y-90818140D01*
X68340100Y-90797820D01*
X68340100Y-90797820D01*
X68337560Y-90785120D01*
X68324860Y-90767340D01*
X68304540Y-90739400D01*
X68268980Y-90698760D01*
X68220720Y-90645420D01*
X68154680Y-90579380D01*
X68073400Y-90495560D01*
X67974340Y-90396500D01*
X67954020Y-90376180D01*
X67854960Y-90274580D01*
X67763520Y-90188220D01*
X67687320Y-90114560D01*
X67623820Y-90056140D01*
X67575560Y-90012960D01*
X67545080Y-89987560D01*
X67534920Y-89982480D01*
X67517140Y-89990100D01*
X67479040Y-90010420D01*
X67423160Y-90045980D01*
X67352040Y-90091700D01*
X67270760Y-90145040D01*
X67176780Y-90208540D01*
X67077720Y-90274580D01*
X67067560Y-90282200D01*
X66968500Y-90350780D01*
X66874520Y-90414280D01*
X66790700Y-90472700D01*
X66717040Y-90520960D01*
X66658620Y-90559060D01*
X66617980Y-90587000D01*
X66597660Y-90599700D01*
X66597660Y-90599700D01*
X66584960Y-90604780D01*
X66567180Y-90602240D01*
X66539240Y-90597160D01*
X66501140Y-90584460D01*
X66447800Y-90566680D01*
X66376680Y-90538740D01*
X66282700Y-90500640D01*
X66216660Y-90472700D01*
X66099820Y-90426980D01*
X66008380Y-90388880D01*
X65934720Y-90358400D01*
X65881380Y-90333000D01*
X65843280Y-90315220D01*
X65815340Y-90302520D01*
X65800100Y-90289820D01*
X65789940Y-90279660D01*
X65784860Y-90272040D01*
X65782320Y-90264420D01*
X65777240Y-90244100D01*
X65769620Y-90200920D01*
X65756920Y-90134880D01*
X65739140Y-90051060D01*
X65721360Y-89952000D01*
X65701040Y-89842780D01*
X65678180Y-89725940D01*
X65675640Y-89713240D01*
X65652780Y-89593860D01*
X65632460Y-89484640D01*
X65612140Y-89385580D01*
X65594360Y-89301760D01*
X65579120Y-89235720D01*
X65568960Y-89190000D01*
X65563880Y-89169680D01*
X65561340Y-89169680D01*
X65553720Y-89164600D01*
X65535940Y-89159520D01*
X65508000Y-89156980D01*
X65464820Y-89154440D01*
X65403860Y-89151900D01*
X65325120Y-89149360D01*
X65226060Y-89149360D01*
X65101600Y-89149360D01*
X64994920Y-89149360D01*
X64873000Y-89149360D01*
X64758700Y-89149360D01*
X64657100Y-89151900D01*
X64568200Y-89154440D01*
X64499620Y-89154440D01*
X64451360Y-89156980D01*
X64425960Y-89159520D01*
X64425960Y-89159520D01*
X64418340Y-89177300D01*
X64405640Y-89220480D01*
X64390400Y-89286520D01*
X64372620Y-89375420D01*
X64349760Y-89484640D01*
X64326900Y-89609100D01*
X64304040Y-89725940D01*
X64281180Y-89847860D01*
X64258320Y-89959620D01*
X64238000Y-90061220D01*
X64222760Y-90147580D01*
X64207520Y-90216160D01*
X64194820Y-90264420D01*
X64189740Y-90289820D01*
X64187200Y-90292360D01*
X64169420Y-90302520D01*
X64131320Y-90320300D01*
X64072900Y-90345700D01*
X64004320Y-90376180D01*
X63923040Y-90409200D01*
X63836680Y-90444760D01*
X63747780Y-90480320D01*
X63661420Y-90515880D01*
X63580140Y-90546360D01*
X63509020Y-90574300D01*
X63453140Y-90594620D01*
X63415040Y-90607320D01*
X63399800Y-90612400D01*
X63384560Y-90602240D01*
X63349000Y-90579380D01*
X63295660Y-90543820D01*
X63227080Y-90495560D01*
X63145800Y-90439680D01*
X63054360Y-90378720D01*
X62952760Y-90310140D01*
X62929900Y-90292360D01*
X62828300Y-90223780D01*
X62734320Y-90160280D01*
X62647960Y-90104400D01*
X62574300Y-90056140D01*
X62515880Y-90018040D01*
X62475240Y-89992640D01*
X62452380Y-89982480D01*
X62449840Y-89982480D01*
X62434600Y-89990100D01*
X62401580Y-90018040D01*
X62355860Y-90061220D01*
X62297440Y-90117100D01*
X62228860Y-90180600D01*
X62155200Y-90254260D01*
X62076460Y-90330460D01*
X62000260Y-90409200D01*
X61921520Y-90485400D01*
X61850400Y-90561600D01*
X61784360Y-90627640D01*
X61728480Y-90688600D01*
X61682760Y-90736860D01*
X61654820Y-90772420D01*
X61642120Y-90790200D01*
X61642120Y-90790200D01*
X61649740Y-90807980D01*
X61672600Y-90843540D01*
X61708160Y-90899420D01*
X61753880Y-90970540D01*
X61807220Y-91051820D01*
X61868180Y-91143260D01*
X61936760Y-91242320D01*
X61939300Y-91247400D01*
X62007880Y-91346460D01*
X62071380Y-91440440D01*
X62129800Y-91524260D01*
X62178060Y-91595380D01*
X62213620Y-91653800D01*
X62241560Y-91691900D01*
X62251720Y-91712220D01*
X62251720Y-91712220D01*
X62254260Y-91724920D01*
X62251720Y-91745240D01*
X62241560Y-91778260D01*
X62226320Y-91826520D01*
X62200920Y-91890020D01*
X62165360Y-91973840D01*
X62122180Y-92077980D01*
X62099320Y-92131320D01*
X62053600Y-92238000D01*
X62012960Y-92329440D01*
X61974860Y-92410720D01*
X61944380Y-92471680D01*
X61921520Y-92514860D01*
X61908820Y-92535180D01*
X61906280Y-92537720D01*
X61888500Y-92542800D01*
X61845320Y-92552960D01*
X61779280Y-92565660D01*
X61698000Y-92583440D01*
X61598940Y-92601220D01*
X61489720Y-92624080D01*
X61370340Y-92646940D01*
X61357640Y-92646940D01*
X61223020Y-92674880D01*
X61103640Y-92697740D01*
X61002040Y-92718060D01*
X60923300Y-92735840D01*
X60864880Y-92751080D01*
X60829320Y-92761240D01*
X60821700Y-92763780D01*
X60819160Y-92781560D01*
X60816620Y-92824740D01*
X60814080Y-92888240D01*
X60814080Y-92972060D01*
X60811540Y-93071120D01*
X60811540Y-93180340D01*
X60809000Y-93302260D01*
X60809000Y-93332740D01*
X60809000Y-93332740D01*
D12*
G36*
X86956240Y-90607320D02*
X87550535Y-91201680D01*
X88449760Y-91201680D01*
X88449760Y-95997200D01*
X89648640Y-95997200D01*
X89648640Y-91201680D01*
X90547866Y-91201680D01*
X91142160Y-90607320D01*
X91736455Y-90012960D01*
X86361946Y-90012960D01*
X86956240Y-90607320D01*
X86956240Y-90607320D01*
G37*
X86956240Y-90607320D02*
X87550535Y-91201680D01*
X88449760Y-91201680D01*
X88449760Y-95997200D01*
X89648640Y-95997200D01*
X89648640Y-91201680D01*
X90547866Y-91201680D01*
X91142160Y-90607320D01*
X91736455Y-90012960D01*
X86361946Y-90012960D01*
X86956240Y-90607320D01*
G36*
X82165866Y-90012960D02*
X82760160Y-90607320D01*
X83354455Y-91201680D01*
X85152968Y-91201680D01*
X85455165Y-91504002D01*
X85757362Y-91806325D01*
X85455039Y-92108522D01*
X85152716Y-92410720D01*
X83349440Y-92410720D01*
X83349440Y-95997200D01*
X87840160Y-95997200D01*
X87840160Y-94808480D01*
X84548320Y-94808480D01*
X84548320Y-93599440D01*
X85742185Y-93599440D01*
X86946081Y-92395416D01*
X86946080Y-91801055D01*
X86946080Y-91206695D01*
X85752216Y-90012959D01*
X83959041Y-90012959D01*
X82165866Y-90012960D01*
X82165866Y-90012960D01*
G37*
X82165866Y-90012960D02*
X82760160Y-90607320D01*
X83354455Y-91201680D01*
X85152968Y-91201680D01*
X85455165Y-91504002D01*
X85757362Y-91806325D01*
X85455039Y-92108522D01*
X85152716Y-92410720D01*
X83349440Y-92410720D01*
X83349440Y-95997200D01*
X87840160Y-95997200D01*
X87840160Y-94808480D01*
X84548320Y-94808480D01*
X84548320Y-93599440D01*
X85742185Y-93599440D01*
X86946081Y-92395416D01*
X86946080Y-91801055D01*
X86946080Y-91206695D01*
X85752216Y-90012959D01*
X83959041Y-90012959D01*
X82165866Y-90012960D01*
G36*
X79153360Y-90012960D02*
X79153360Y-91201680D01*
X81551120Y-91201680D01*
X81551120Y-92410720D01*
X79153360Y-92410720D01*
X79153360Y-94803464D01*
X79750293Y-95400332D01*
X80347225Y-95997200D01*
X82739840Y-95997200D01*
X82739840Y-93599440D01*
X81551120Y-93599440D01*
X81551120Y-94808480D01*
X80946725Y-94808480D01*
X80644403Y-94506283D01*
X80342080Y-94204087D01*
X80342080Y-93599440D01*
X81551120Y-93599440D01*
X82739840Y-93599440D01*
X82739840Y-91206695D01*
X81545976Y-90012959D01*
X80349668Y-90012959D01*
X79153360Y-90012960D01*
X79153360Y-90012960D01*
G37*
X79153360Y-90012960D02*
X79153360Y-91201680D01*
X81551120Y-91201680D01*
X81551120Y-92410720D01*
X79153360Y-92410720D01*
X79153360Y-94803464D01*
X79750293Y-95400332D01*
X80347225Y-95997200D01*
X82739840Y-95997200D01*
X82739840Y-93599440D01*
X81551120Y-93599440D01*
X81551120Y-94808480D01*
X80946725Y-94808480D01*
X80644403Y-94506283D01*
X80342080Y-94204087D01*
X80342080Y-93599440D01*
X81551120Y-93599440D01*
X82739840Y-93599440D01*
X82739840Y-91206695D01*
X81545976Y-90012959D01*
X80349668Y-90012959D01*
X79153360Y-90012960D01*
G36*
X74357840Y-90607320D02*
X74952135Y-91201680D01*
X77355040Y-91201680D01*
X77355040Y-92410720D01*
X76151016Y-92410720D01*
X74957280Y-93604584D01*
X74957280Y-94803464D01*
X75554213Y-95400332D01*
X76151145Y-95997200D01*
X79727335Y-95997200D01*
X79133040Y-95402840D01*
X78538746Y-94808480D01*
X76146000Y-94808480D01*
X76146000Y-93599440D01*
X78543760Y-93599440D01*
X78543760Y-90012960D01*
X73763546Y-90012960D01*
X74357840Y-90607320D01*
X74357840Y-90607320D01*
G37*
X74357840Y-90607320D02*
X74952135Y-91201680D01*
X77355040Y-91201680D01*
X77355040Y-92410720D01*
X76151016Y-92410720D01*
X74957280Y-93604584D01*
X74957280Y-94803464D01*
X75554213Y-95400332D01*
X76151145Y-95997200D01*
X79727335Y-95997200D01*
X79133040Y-95402840D01*
X78538746Y-94808480D01*
X76146000Y-94808480D01*
X76146000Y-93599440D01*
X78543760Y-93599440D01*
X78543760Y-90012960D01*
X73763546Y-90012960D01*
X74357840Y-90607320D01*
D13*
X138874000Y-115951000D03*
D14*
X141414000Y-115951000D03*
D15*
X140144000Y-121031000D03*
D16*
X145224000Y-121031000D03*
X135064000Y-121031000D03*
D17*
X143143547Y-125030954D02*
X143954453Y-123571046D01*
X137604276Y-126110328D02*
X137643724Y-125531672D01*
D13*
X107918000Y-115951000D03*
D14*
X110458000Y-115951000D03*
D13*
X108077000Y-115951000D03*
D14*
X105537000Y-115951000D03*
D13*
X103156000Y-115951000D03*
D14*
X105696000Y-115951000D03*
D13*
X103315000Y-115951000D03*
D14*
X100775000Y-115951000D03*
D13*
X96012000Y-115951000D03*
D14*
X98552000Y-115951000D03*
D15*
X106807000Y-121031000D03*
D16*
X111887000Y-121031000D03*
D18*
X109997432Y-125205793D02*
X111002568Y-123396207D01*
D15*
X104426000Y-121031000D03*
D16*
X99346000Y-121031000D03*
D17*
X106651760Y-125967052D02*
X107948240Y-123632948D01*
D19*
X101773474Y-126210097D02*
X101826526Y-125431903D01*
D15*
X102045000Y-121031000D03*
D17*
X104551760Y-125867052D02*
X105848240Y-123532948D01*
D15*
X97282000Y-121031000D03*
D16*
X92202000Y-121031000D03*
D17*
X99751760Y-125867052D02*
X101048240Y-123532948D01*
X94742276Y-126110328D02*
X94781724Y-125531672D01*
D15*
X109188000Y-121031000D03*
D16*
X114268000Y-121031000D03*
D17*
X112187547Y-125030954D02*
X112998453Y-123571046D01*
D13*
X81725000Y-115951000D03*
D14*
X84265000Y-115951000D03*
D15*
X82995000Y-121031000D03*
D16*
X88075000Y-121031000D03*
D18*
X85997432Y-125205793D02*
X87002568Y-123396207D01*
D20*
X47974000Y-36703000D03*
X45974000Y-36703000D03*
D21*
X96570800Y-33054800D03*
X96570800Y-31054800D03*
D20*
X58690000Y-23876000D03*
X60690000Y-23876000D03*
D21*
X85217000Y-27416000D03*
X85217000Y-25416000D03*
D15*
X133001000Y-121031000D03*
D16*
X127921000Y-121031000D03*
D17*
X135271641Y-126311294D02*
X136728359Y-123688706D01*
X130461276Y-126110328D02*
X130500724Y-125531672D01*
D15*
X137763000Y-121031000D03*
D16*
X142843000Y-121031000D03*
D17*
X140762547Y-125030954D02*
X141573453Y-123571046D01*
D22*
X103696000Y-43078400D03*
X103696000Y-46578520D03*
D15*
X106807000Y-44831000D03*
D16*
X111887000Y-44831000D03*
X101727000Y-44831000D03*
D17*
X109806547Y-48830954D02*
X110617453Y-47371046D01*
X104267276Y-49910328D02*
X104306724Y-49331672D01*
D15*
X97282000Y-63881000D03*
D16*
X102362000Y-63881000D03*
X92202000Y-63881000D03*
D17*
X100281547Y-67880954D02*
X101092453Y-66421046D01*
X94742276Y-68960328D02*
X94781724Y-68381672D01*
D23*
X34619000Y-35301800D03*
X34619000Y-31601800D03*
X40819000Y-35301800D03*
X40819000Y-31601800D03*
D15*
X73469000Y-121031000D03*
D16*
X68389000Y-121031000D03*
D17*
X75851760Y-125867052D02*
X77148240Y-123532948D01*
X70929276Y-126110328D02*
X70968724Y-125531672D01*
D15*
X32988000Y-121031000D03*
D16*
X38068000Y-121031000D03*
X27908000Y-121031000D03*
D17*
X35987547Y-125030954D02*
X36798453Y-123571046D01*
X30448276Y-126110328D02*
X30487724Y-125531672D01*
D15*
X35370000Y-121031000D03*
D16*
X40450000Y-121031000D03*
X30290000Y-121031000D03*
D17*
X38369547Y-125030954D02*
X39180453Y-123571046D01*
X32830276Y-126110328D02*
X32869724Y-125531672D01*
D15*
X35370000Y-63881000D03*
D16*
X40450000Y-63881000D03*
X30290000Y-63881000D03*
D17*
X38369547Y-67880954D02*
X39180453Y-66421046D01*
X32830276Y-68960328D02*
X32869724Y-68381672D01*
D15*
X87757000Y-44831000D03*
D16*
X92837000Y-44831000D03*
X82677000Y-44831000D03*
D17*
X90756547Y-48830954D02*
X91567453Y-47371046D01*
X85217276Y-49910328D02*
X85256724Y-49331672D01*
D24*
X126111000Y-55349140D03*
X126111000Y-58188860D03*
D25*
X56500000Y-26128000D03*
X56500000Y-26778000D03*
X56500000Y-27428000D03*
X56500000Y-28078000D03*
X56500000Y-28728000D03*
X56500000Y-29378000D03*
X56500000Y-30028000D03*
X56500000Y-30678000D03*
X56500000Y-31328000D03*
X56500000Y-31978000D03*
X56500000Y-32628000D03*
X56500000Y-33278000D03*
X56500000Y-33928000D03*
X56500000Y-34578000D03*
X48910000Y-34578000D03*
X48910000Y-33928000D03*
X48910000Y-33278000D03*
X48910000Y-32628000D03*
X48910000Y-31978000D03*
X48910000Y-31328000D03*
X48910000Y-30678000D03*
X48910000Y-30028000D03*
X48910000Y-29378000D03*
X48910000Y-28728000D03*
X48910000Y-28078000D03*
X48910000Y-27428000D03*
X48910000Y-26778000D03*
X48910000Y-26128000D03*
D15*
X125857000Y-44831000D03*
D16*
X130937000Y-44831000D03*
X120777000Y-44831000D03*
D17*
X128856547Y-48830954D02*
X129667453Y-47371046D01*
X123317276Y-49910328D02*
X123356724Y-49331672D01*
D13*
X127127000Y-39751000D03*
D14*
X124587000Y-39751000D03*
D15*
X149669000Y-101981000D03*
D16*
X154749000Y-101981000D03*
X144589000Y-101981000D03*
D17*
X152668547Y-105980954D02*
X153479453Y-104521046D01*
X147129276Y-107060328D02*
X147168724Y-106481672D01*
D15*
X94901000Y-121031000D03*
D16*
X99981000Y-121031000D03*
X89821000Y-121031000D03*
D17*
X97900547Y-125030954D02*
X98711453Y-123571046D01*
X92361276Y-126110328D02*
X92400724Y-125531672D01*
D15*
X130619000Y-101981000D03*
D16*
X135699000Y-101981000D03*
X125539000Y-101981000D03*
D17*
X133618547Y-105980954D02*
X134429453Y-104521046D01*
X128079276Y-107060328D02*
X128118724Y-106481672D01*
D15*
X111570000Y-101981000D03*
D16*
X116650000Y-101981000D03*
X106490000Y-101981000D03*
D17*
X114569547Y-105980954D02*
X115380453Y-104521046D01*
X109030276Y-107060328D02*
X109069724Y-106481672D01*
D15*
X54420000Y-101981000D03*
D16*
X59500000Y-101981000D03*
X49340000Y-101981000D03*
D17*
X57419547Y-105980954D02*
X58230453Y-104521046D01*
X51880276Y-107060328D02*
X51919724Y-106481672D01*
D15*
X42513000Y-101981000D03*
D16*
X47593000Y-101981000D03*
X37433000Y-101981000D03*
D17*
X45512547Y-105980954D02*
X46323453Y-104521046D01*
X39973276Y-107060328D02*
X40012724Y-106481672D01*
D15*
X32988000Y-101981000D03*
D16*
X38068000Y-101981000D03*
X27908000Y-101981000D03*
D17*
X35987547Y-105980954D02*
X36798453Y-104521046D01*
X30448276Y-107060328D02*
X30487724Y-106481672D01*
D15*
X73469000Y-101981000D03*
D16*
X78549000Y-101981000D03*
X68389000Y-101981000D03*
D17*
X76468547Y-105980954D02*
X77279453Y-104521046D01*
X70929276Y-107060328D02*
X70968724Y-106481672D01*
D15*
X92519000Y-101981000D03*
D16*
X97599000Y-101981000D03*
X87439000Y-101981000D03*
D17*
X95518547Y-105980954D02*
X96329453Y-104521046D01*
X89979276Y-107060328D02*
X90018724Y-106481672D01*
D15*
X63945000Y-82931000D03*
D16*
X69025000Y-82931000D03*
X58865000Y-82931000D03*
D17*
X66944547Y-86930954D02*
X67755453Y-85471046D01*
X61405276Y-88010328D02*
X61444724Y-87431672D01*
D15*
X32988000Y-82931000D03*
D16*
X27908000Y-82931000D03*
D17*
X35271641Y-88111294D02*
X36728359Y-85488706D01*
X30448276Y-88010328D02*
X30487724Y-87431672D01*
D15*
X37751000Y-82931000D03*
D16*
X42831000Y-82931000D03*
D17*
X40750547Y-86930954D02*
X41561453Y-85471046D01*
D15*
X82995000Y-82931000D03*
D16*
X88075000Y-82931000D03*
X77915000Y-82931000D03*
D17*
X85994547Y-86930954D02*
X86805453Y-85471046D01*
X80455276Y-88010328D02*
X80494724Y-87431672D01*
D15*
X102045000Y-82931000D03*
D16*
X107125000Y-82931000D03*
X96965000Y-82931000D03*
D17*
X105044547Y-86930954D02*
X105855453Y-85471046D01*
X99505276Y-88010328D02*
X99544724Y-87431672D01*
D15*
X140144000Y-82931000D03*
D16*
X145224000Y-82931000D03*
X135064000Y-82931000D03*
D17*
X143143547Y-86930954D02*
X143954453Y-85471046D01*
X137604276Y-88010328D02*
X137643724Y-87431672D01*
D15*
X78232000Y-63881000D03*
D16*
X83312000Y-63881000D03*
X73152000Y-63881000D03*
D17*
X81231547Y-67880954D02*
X82042453Y-66421046D01*
X75692276Y-68960328D02*
X75731724Y-68381672D01*
D15*
X116332000Y-63881000D03*
D16*
X121412000Y-63881000D03*
X111252000Y-63881000D03*
D17*
X119331547Y-67880954D02*
X120142453Y-66421046D01*
X113792276Y-68960328D02*
X113831724Y-68381672D01*
D15*
X144907000Y-44831000D03*
D16*
X149987000Y-44831000D03*
X139827000Y-44831000D03*
D17*
X147906547Y-48830954D02*
X148717453Y-47371046D01*
X142367276Y-49910328D02*
X142406724Y-49331672D01*
D15*
X135382000Y-63881000D03*
D16*
X140462000Y-63881000D03*
X130302000Y-63881000D03*
D17*
X138381547Y-67880954D02*
X139192453Y-66421046D01*
X132842276Y-68960328D02*
X132881724Y-68381672D01*
D15*
X30607000Y-44831000D03*
D16*
X35687000Y-44831000D03*
X25527000Y-44831000D03*
D17*
X33606547Y-48830954D02*
X34417453Y-47371046D01*
X28067276Y-49910328D02*
X28106724Y-49331672D01*
D15*
X49657000Y-44831000D03*
D16*
X54737000Y-44831000D03*
X44577000Y-44831000D03*
D17*
X52656547Y-48830954D02*
X53467453Y-47371046D01*
X47117276Y-49910328D02*
X47156724Y-49331672D01*
D15*
X68707000Y-44831000D03*
D16*
X73787000Y-44831000D03*
X63627000Y-44831000D03*
D17*
X71706547Y-48830954D02*
X72517453Y-47371046D01*
X66167276Y-49910328D02*
X66206724Y-49331672D01*
D26*
X71815000Y-24603000D03*
X72315000Y-24603000D03*
X72815000Y-24603000D03*
X73315000Y-24603000D03*
X73815000Y-24603000D03*
X74315000Y-24603000D03*
X74815000Y-24603000D03*
X75315000Y-24603000D03*
X75815000Y-24603000D03*
X76315000Y-24603000D03*
X76815000Y-24603000D03*
X77315000Y-24603000D03*
X77815000Y-24603000D03*
X78315000Y-24603000D03*
X78815000Y-24603000D03*
X79315000Y-24603000D03*
D27*
X81315000Y-26603000D03*
X81315000Y-27103000D03*
X81315000Y-27603000D03*
X81315000Y-28103000D03*
X81315000Y-28603000D03*
X81315000Y-29103000D03*
X81315000Y-29603000D03*
X81315000Y-30103000D03*
X81315000Y-30603000D03*
X81315000Y-31103000D03*
X81315000Y-31603000D03*
X81315000Y-32103000D03*
X81315000Y-32603000D03*
X81315000Y-33103000D03*
X81315000Y-33603000D03*
X81315000Y-34103000D03*
D26*
X79315000Y-36103000D03*
X78815000Y-36103000D03*
X78315000Y-36103000D03*
X77815000Y-36103000D03*
X77315000Y-36103000D03*
X76815000Y-36103000D03*
X76315000Y-36103000D03*
X75815000Y-36103000D03*
X75315000Y-36103000D03*
X74815000Y-36103000D03*
X74315000Y-36103000D03*
X73815000Y-36103000D03*
X73315000Y-36103000D03*
X72815000Y-36103000D03*
X72315000Y-36103000D03*
X71815000Y-36103000D03*
D27*
X69815000Y-34103000D03*
X69815000Y-33603000D03*
X69815000Y-33103000D03*
X69815000Y-32603000D03*
X69815000Y-32103000D03*
X69815000Y-31603000D03*
X69815000Y-31103000D03*
X69815000Y-30603000D03*
X69815000Y-30103000D03*
X69815000Y-29603000D03*
X69815000Y-29103000D03*
X69815000Y-28603000D03*
X69815000Y-28103000D03*
X69815000Y-27603000D03*
X69815000Y-27103000D03*
X69815000Y-26603000D03*
D28*
X82385000Y-39581000D03*
X83985000Y-39581000D03*
X83985000Y-37381000D03*
X82385000Y-37381000D03*
D13*
X60452000Y-58501000D03*
D14*
X57912000Y-58501000D03*
D13*
X55690000Y-96901000D03*
D14*
X53150000Y-96901000D03*
D13*
X79502000Y-58501000D03*
D14*
X76962000Y-58501000D03*
D13*
X74739000Y-96901000D03*
D14*
X72199000Y-96901000D03*
D13*
X98552000Y-58801000D03*
D14*
X96012000Y-58801000D03*
D13*
X93789000Y-96901000D03*
D14*
X91249000Y-96901000D03*
D13*
X117602000Y-58801000D03*
D14*
X115062000Y-58801000D03*
D13*
X43783000Y-96901000D03*
D14*
X41243000Y-96901000D03*
D13*
X36640000Y-58501000D03*
D14*
X34100000Y-58501000D03*
D13*
X141414000Y-77851000D03*
D14*
X138874000Y-77851000D03*
D13*
X112840000Y-96901000D03*
D14*
X110300000Y-96901000D03*
D13*
X122364000Y-77851000D03*
D14*
X119824000Y-77851000D03*
D13*
X69977000Y-39751000D03*
D14*
X67437000Y-39751000D03*
D13*
X103315000Y-77851000D03*
D14*
X100775000Y-77851000D03*
D13*
X84265000Y-77851000D03*
D14*
X81725000Y-77851000D03*
D13*
X139033000Y-115951000D03*
D14*
X136493000Y-115951000D03*
D13*
X108077000Y-39751000D03*
D14*
X105537000Y-39751000D03*
D13*
X65215000Y-77851000D03*
D14*
X62675000Y-77851000D03*
D13*
X96171000Y-115951000D03*
D14*
X93631000Y-115951000D03*
D13*
X89027000Y-39751000D03*
D14*
X86487000Y-39751000D03*
D13*
X39021000Y-77851000D03*
D14*
X36481000Y-77851000D03*
D13*
X74739000Y-115951000D03*
D14*
X72199000Y-115951000D03*
D13*
X146177000Y-39751000D03*
D14*
X143637000Y-39751000D03*
D13*
X55531000Y-115951000D03*
D14*
X58071000Y-115951000D03*
D13*
X50927500Y-39751000D03*
D14*
X48387500Y-39751000D03*
D13*
X31718000Y-115951000D03*
D14*
X34258000Y-115951000D03*
D13*
X31877000Y-39751000D03*
D14*
X29337000Y-39751000D03*
D13*
X131889000Y-96901000D03*
D14*
X129349000Y-96901000D03*
D13*
X136652000Y-58801000D03*
D14*
X134112000Y-58801000D03*
D22*
X29877000Y-81178400D03*
X29877000Y-84678520D03*
X60834000Y-81178400D03*
X60834000Y-84678520D03*
X79884000Y-81178400D03*
X79884000Y-84678520D03*
X98934000Y-81178400D03*
X98934000Y-84678520D03*
X118000000Y-81178400D03*
X118000000Y-84678520D03*
X137033000Y-81178400D03*
X137033000Y-84678520D03*
X32260000Y-62128400D03*
X32260000Y-65628520D03*
X56071000Y-62058400D03*
X56071000Y-65558520D03*
X75121000Y-62128400D03*
X75121000Y-65628520D03*
X113221000Y-62128400D03*
X113221000Y-65628520D03*
X132267000Y-62128400D03*
X132267000Y-65628520D03*
X27495500Y-43078400D03*
X27495500Y-46578520D03*
X46545500Y-43078400D03*
X46545500Y-46578520D03*
X122746000Y-43078400D03*
X122746000Y-46578520D03*
X84645500Y-43078400D03*
X84645500Y-46578520D03*
X65595500Y-43078400D03*
X65595500Y-46578520D03*
X94171000Y-62128400D03*
X94171000Y-65628520D03*
X25654000Y-119151400D03*
X25654000Y-122651520D03*
X46824900Y-120307100D03*
X46824900Y-123807220D03*
X70345300Y-119468900D03*
X70345300Y-122969020D03*
X89357200Y-124071380D03*
X89357200Y-127571500D03*
X129921000Y-118897400D03*
X129921000Y-122397520D03*
X141796000Y-43078400D03*
X141796000Y-46578520D03*
X29877000Y-100228400D03*
X29877000Y-103728520D03*
X51310000Y-100228400D03*
X51310000Y-103728520D03*
X70358000Y-100228400D03*
X70358000Y-103728520D03*
X89408000Y-100228400D03*
X89408000Y-103728520D03*
X108460000Y-100228400D03*
X108460000Y-103728520D03*
X127508000Y-100228400D03*
X127508000Y-103728520D03*
D15*
X121094000Y-82931000D03*
D16*
X126174000Y-82931000D03*
X116014000Y-82931000D03*
D17*
X124093547Y-86930954D02*
X124904453Y-85471046D01*
X118554276Y-88010328D02*
X118593724Y-87431672D01*
D15*
X59182000Y-63811000D03*
D16*
X64262000Y-63811000D03*
X54102000Y-63811000D03*
D17*
X62181547Y-67810954D02*
X62992453Y-66351046D01*
X56642276Y-68890328D02*
X56681724Y-68311672D01*
D13*
X34258000Y-77851000D03*
D14*
X31718000Y-77851000D03*
D13*
X34258000Y-96901000D03*
D14*
X31718000Y-96901000D03*
D22*
X146558000Y-100228400D03*
X146558000Y-103728520D03*
D13*
X150939000Y-96901000D03*
D14*
X148399000Y-96901000D03*
D24*
X85217000Y-32407860D03*
X85217000Y-29568140D03*
X130937000Y-72240140D03*
X130937000Y-75079860D03*
D29*
X113433860Y-111379000D03*
X110594140Y-111379000D03*
X137055860Y-110109000D03*
X134216140Y-110109000D03*
X44599860Y-111633000D03*
X41760140Y-111633000D03*
X66189860Y-111633000D03*
X63350140Y-111633000D03*
X90192860Y-111379000D03*
X87353140Y-111379000D03*
X76603860Y-53848000D03*
X73764140Y-53848000D03*
D24*
X138049000Y-91417140D03*
X138049000Y-94256860D03*
D29*
X117243860Y-49911000D03*
X114404140Y-49911000D03*
X58442860Y-53975000D03*
X55603140Y-53975000D03*
X135658860Y-49149000D03*
X132819140Y-49149000D03*
D24*
X45466000Y-71605140D03*
X45466000Y-74444860D03*
D29*
X99463860Y-50546000D03*
X96624140Y-50546000D03*
D24*
X45085000Y-92986860D03*
X45085000Y-90147140D03*
X44704000Y-55222140D03*
X44704000Y-58061860D03*
D15*
X118713000Y-121031000D03*
D16*
X123793000Y-121031000D03*
X113633000Y-121031000D03*
D17*
X121712547Y-125030954D02*
X122523453Y-123571046D01*
X116173276Y-126110328D02*
X116212724Y-125531672D01*
D15*
X149669000Y-121031000D03*
D16*
X154749000Y-121031000D03*
X144589000Y-121031000D03*
D17*
X152668547Y-125030954D02*
X153479453Y-123571046D01*
X147129276Y-126110328D02*
X147168724Y-125531672D01*
D15*
X80613000Y-121031000D03*
D16*
X85693000Y-121031000D03*
X75533000Y-121031000D03*
D18*
X83397432Y-125205793D02*
X84402568Y-123396207D01*
D19*
X78066474Y-126210097D02*
X78119526Y-125431903D01*
D15*
X78232000Y-121031000D03*
D17*
X80851760Y-125867052D02*
X82148240Y-123532948D01*
D13*
X134271000Y-115951000D03*
D14*
X131731000Y-115951000D03*
D13*
X119983000Y-115951000D03*
D14*
X117443000Y-115951000D03*
D13*
X150939000Y-115951000D03*
D14*
X148399000Y-115951000D03*
D13*
X81883000Y-115951000D03*
D14*
X79343000Y-115951000D03*
D13*
X76962000Y-115951000D03*
D14*
X79502000Y-115951000D03*
D13*
X55690000Y-115951000D03*
D14*
X53150000Y-115951000D03*
D13*
X36640000Y-115951000D03*
D14*
X34100000Y-115951000D03*
D13*
X60452000Y-115951000D03*
D14*
X57912000Y-115951000D03*
D30*
X57404000Y-73660000D03*
X59944000Y-73660000D03*
X62484000Y-73660000D03*
X65024000Y-73660000D03*
X67564000Y-73660000D03*
X70104000Y-73660000D03*
X72644000Y-73660000D03*
X75184000Y-73660000D03*
X77724000Y-73660000D03*
X80264000Y-73660000D03*
X82804000Y-73660000D03*
X90424000Y-73660000D03*
X92964000Y-73660000D03*
X95504000Y-73660000D03*
X98044000Y-73660000D03*
D21*
X83312000Y-32782000D03*
X83312000Y-34782000D03*
X88036400Y-32521400D03*
X88036400Y-30521400D03*
X68986400Y-23130000D03*
X68986400Y-25130000D03*
D20*
X60690000Y-25908000D03*
X58690000Y-25908000D03*
X58690000Y-30480000D03*
X60690000Y-30480000D03*
X60690000Y-27940000D03*
X58690000Y-27940000D03*
D21*
X117894100Y-29822900D03*
X117894100Y-31822900D03*
X120040400Y-29835600D03*
X120040400Y-31835600D03*
X78867000Y-39640000D03*
X78867000Y-41640000D03*
D20*
X73390000Y-38481000D03*
X71390000Y-38481000D03*
D21*
X66802000Y-35830000D03*
X66802000Y-37830000D03*
X68834000Y-35830000D03*
X68834000Y-37830000D03*
D20*
X44355000Y-28956000D03*
X46355000Y-28956000D03*
X44339000Y-30734000D03*
X46339000Y-30734000D03*
D21*
X46736000Y-34909000D03*
X46736000Y-32909000D03*
D31*
X37211000Y-24028400D03*
X146799300Y-33147000D03*
X26974800Y-125209300D03*
X154254200Y-118516400D03*
D32*
X143282000Y-29200000D03*
X127482000Y-29200000D03*
D33*
X135382000Y-30100000D03*
X136382000Y-30100000D03*
X137382000Y-30100000D03*
X138382000Y-30100000D03*
X139382000Y-30100000D03*
X134382000Y-30100000D03*
X133382000Y-30100000D03*
X132382000Y-30100000D03*
X131382000Y-30100000D03*
D34*
X143052000Y-25200000D03*
X127712000Y-25200000D03*
D21*
X115785900Y-31822900D03*
X115785900Y-29822900D03*
X108877100Y-25174700D03*
X108877100Y-27174700D03*
D15*
X54420000Y-121031000D03*
D16*
X49340000Y-121031000D03*
D18*
X56854646Y-126141891D02*
X58345354Y-123458109D01*
D17*
X51880276Y-126110328D02*
X51919724Y-125531672D01*
D15*
X59182000Y-121031000D03*
D16*
X64262000Y-121031000D03*
D35*
X62073154Y-125249503D02*
X63126846Y-123352497D01*
D15*
X56801000Y-121031000D03*
D16*
X61881000Y-121031000D03*
X51721000Y-121031000D03*
D17*
X59800547Y-125030954D02*
X60611453Y-123571046D01*
X54261276Y-126110328D02*
X54300724Y-125531672D01*
D36*
X111510000Y-19250000D03*
X120490000Y-19250000D03*
X111870000Y-25200000D03*
X120130000Y-25200000D03*
D37*
X113600000Y-25100000D03*
X115200000Y-25100000D03*
X118400000Y-25100000D03*
X117600000Y-25100000D03*
X116800000Y-25100000D03*
X114400000Y-25100000D03*
X113200000Y-25800000D03*
X114800000Y-25800000D03*
X115600000Y-25800000D03*
X116400000Y-25800000D03*
X117200000Y-25800000D03*
X118800000Y-25800000D03*
D38*
X118750000Y-27110000D03*
X118250000Y-27110000D03*
X117750000Y-27110000D03*
X117250000Y-27110000D03*
X116750000Y-27110000D03*
X116250000Y-27110000D03*
X115750000Y-27110000D03*
X115250000Y-27110000D03*
X114750000Y-27110000D03*
X114250000Y-27110000D03*
X113750000Y-27110000D03*
X113250000Y-27110000D03*
D39*
X91998800Y-32564800D03*
X89698800Y-32564800D03*
X94298800Y-32564800D03*
D40*
X91998800Y-26464800D03*
D41*
X131076700Y-32610100D03*
X115074700Y-28651200D03*
X117551200Y-28130500D03*
X77724000Y-56769000D03*
X67945000Y-63246000D03*
X139192000Y-50546000D03*
X122682000Y-60579000D03*
X84289927Y-45076645D03*
X115697000Y-117729000D03*
X104241599Y-95123000D03*
X92710000Y-108077000D03*
X50698400Y-30530800D03*
X104267000Y-57861201D03*
X76014949Y-109093000D03*
X51435000Y-29591000D03*
X113538000Y-52197000D03*
X115062000Y-58801000D03*
X140335000Y-109728000D03*
X140335000Y-92964000D03*
X57150000Y-90093800D03*
X47609400Y-29378000D03*
X134620000Y-113411000D03*
X50927000Y-28194000D03*
X25552400Y-41351200D03*
X86487000Y-77851000D03*
X33248600Y-79375000D03*
X100775000Y-77851000D03*
X33362900Y-54190900D03*
X37160200Y-56172100D03*
X24714231Y-94056200D03*
X24714233Y-94056200D03*
X104775000Y-102108000D03*
X110490000Y-52578000D03*
X109093000Y-52070000D03*
X42291000Y-74803000D03*
X73660000Y-58547000D03*
X133273800Y-111810800D03*
X46990000Y-25933400D03*
X116840000Y-111760000D03*
X133731000Y-72644000D03*
X123317000Y-115697000D03*
X62738000Y-26924000D03*
X73380600Y-34137600D03*
X75819000Y-40259000D03*
X140081000Y-47655913D03*
X84531200Y-55346600D03*
X75184004Y-39624000D03*
X134024000Y-88773000D03*
X127787400Y-53086000D03*
X83286600Y-54635400D03*
X74422000Y-38735000D03*
X82143600Y-53568600D03*
X64770000Y-36068002D03*
X62483996Y-38354000D03*
X61849000Y-44577000D03*
X79857580Y-52197000D03*
X65532000Y-36576000D03*
X61849000Y-37211000D03*
X59055000Y-46990000D03*
X61087000Y-37846000D03*
X61087000Y-42926000D03*
X60692057Y-38782191D03*
X67564000Y-61353684D03*
X59667474Y-38226313D03*
X69469000Y-80010000D03*
X48387000Y-99187000D03*
X48387000Y-99187000D03*
X58547000Y-38735000D03*
X57531000Y-38227000D03*
X49403000Y-118364000D03*
X83591400Y-30632400D03*
X97917000Y-34754676D03*
X108204000Y-60579000D03*
X72390000Y-60477410D03*
X114703688Y-29845000D03*
X109842300Y-42659300D03*
X72301100Y-27343099D03*
X68834000Y-50673000D03*
X85598000Y-67056000D03*
X75184000Y-45466000D03*
X81407000Y-44221410D03*
X71647055Y-29083000D03*
X78105000Y-38481000D03*
X88138000Y-63500000D03*
X86741000Y-65024000D03*
X50571400Y-31572200D03*
X78384400Y-34264600D03*
X72491600Y-29083000D03*
X71424800Y-30835600D03*
X45085000Y-33782000D03*
X76454000Y-38735004D03*
X87121998Y-63500000D03*
X85471000Y-65151000D03*
X73837800Y-33375600D03*
X59562996Y-24892000D03*
X74676000Y-33502600D03*
X63754000Y-36830000D03*
X68441798Y-61887094D03*
X71501000Y-50927000D03*
X71755000Y-42037000D03*
X100926900Y-36182300D03*
X83057980Y-29809931D03*
X90678000Y-62230000D03*
X113665000Y-30556200D03*
X71628000Y-26797000D03*
X90042996Y-63246000D03*
X88519000Y-52070000D03*
X110617000Y-44196000D03*
X101600000Y-36957000D03*
X98933000Y-66294000D03*
X96647000Y-37820590D03*
X73749361Y-28664360D03*
X83019900Y-31711900D03*
X87503000Y-33782000D03*
X52832000Y-53213000D03*
X63169800Y-25069800D03*
X89890600Y-26276269D03*
X65596780Y-24956780D03*
X74879200Y-22555200D03*
X113626900Y-31610300D03*
X112179100Y-37211000D03*
X58547000Y-32639000D03*
X62103000Y-25781000D03*
X36576000Y-34163000D03*
X41275000Y-54610000D03*
X46659800Y-31953200D03*
X42926000Y-31725023D03*
X43307000Y-35814000D03*
X75759713Y-37912949D03*
X45720000Y-78105000D03*
X42418000Y-37084000D03*
X52070000Y-38100000D03*
X47362969Y-38141941D03*
X66040000Y-39217590D03*
X111544100Y-128917700D03*
X68453000Y-34671000D03*
X72186800Y-32232600D03*
X72364600Y-33070800D03*
X70205600Y-35153600D03*
X106781600Y-25082500D03*
X118935500Y-30911800D03*
D42*
X149987000Y-70241200D02*
X149981900Y-70236100D01*
X149981900Y-70236100D02*
X149987000Y-70241200D01*
D43*
X117551200Y-34201100D02*
X128308100Y-34201100D01*
X128308100Y-34201100D02*
X129485700Y-34201100D01*
X117551200Y-28130500D02*
X122237500Y-28130500D01*
X122237500Y-28130500D02*
X128308100Y-34201100D01*
X129485700Y-34201100D02*
X131076700Y-32610100D01*
X131076700Y-32610100D02*
X132382000Y-31304800D01*
X132382000Y-31304800D02*
X132382000Y-30100000D01*
X114769901Y-28346401D02*
X115074700Y-28651200D01*
X114750000Y-28326500D02*
X114769901Y-28346401D01*
X114750000Y-27110000D02*
X114750000Y-28326500D01*
X117250000Y-27829300D02*
X117551200Y-28130500D01*
X117250000Y-27110000D02*
X117250000Y-27829300D01*
X117982252Y-34201100D02*
X117551200Y-34201100D01*
X98646900Y-34201100D02*
X117120148Y-34201100D01*
X97500600Y-33054800D02*
X98646900Y-34201100D01*
X126873000Y-34201100D02*
X117982252Y-34201100D01*
X96570800Y-33054800D02*
X97500600Y-33054800D01*
X117120148Y-34201100D02*
X117551200Y-34201100D01*
X117200000Y-25800000D02*
X117250000Y-25850000D01*
X117250000Y-25850000D02*
X117250000Y-27110000D01*
X114800000Y-25800000D02*
X114750000Y-25850000D01*
X114750000Y-25850000D02*
X114750000Y-27110000D01*
X96570800Y-33054800D02*
X94788800Y-33054800D01*
X94788800Y-33054800D02*
X94298800Y-32564800D01*
X77724000Y-56769000D02*
X78028799Y-57073799D01*
X67564000Y-73660000D02*
X67564000Y-63627000D01*
X67564000Y-63627000D02*
X67945000Y-63246000D01*
X94308800Y-32554800D02*
X94298800Y-32564800D01*
X78028799Y-57073799D02*
X132664201Y-57073799D01*
X132664201Y-57073799D02*
X139192000Y-50546000D01*
D42*
X116128052Y-117729000D02*
X115697000Y-117729000D01*
X149161000Y-117729000D02*
X116128052Y-117729000D01*
X150939000Y-115951000D02*
X149161000Y-117729000D01*
X98552000Y-58801000D02*
X113309400Y-58801000D01*
X98552000Y-58801000D02*
X113269788Y-58801000D01*
X113269788Y-58801000D02*
X115047788Y-60579000D01*
X115047788Y-60579000D02*
X122250948Y-60579000D01*
X122250948Y-60579000D02*
X122682000Y-60579000D01*
X115087400Y-60579000D02*
X122682000Y-60579000D01*
X113309400Y-58801000D02*
X115087400Y-60579000D01*
X77676823Y-52120801D02*
X84289927Y-45507697D01*
X84289927Y-45507697D02*
X84289927Y-45076645D01*
X55603140Y-53873400D02*
X57355739Y-52120801D01*
X55603140Y-53975000D02*
X55603140Y-53873400D01*
X57355739Y-52120801D02*
X77676823Y-52120801D01*
X102362000Y-96901000D02*
X104140000Y-95123000D01*
X104140000Y-95123000D02*
X104241599Y-95123000D01*
X93789000Y-96901000D02*
X102362000Y-96901000D01*
X87353140Y-111379000D02*
X87353140Y-111277400D01*
X87353140Y-111277400D02*
X88380571Y-110249969D01*
X88380571Y-110249969D02*
X90537031Y-110249969D01*
X90537031Y-110249969D02*
X92405201Y-108381799D01*
X92405201Y-108381799D02*
X92710000Y-108077000D01*
X121412000Y-38354000D02*
X120269000Y-38354000D01*
X120269000Y-38354000D02*
X103287600Y-38354000D01*
X146177000Y-39751000D02*
X144640621Y-41287379D01*
X144640621Y-41287379D02*
X123202379Y-41287379D01*
X123202379Y-41287379D02*
X120269000Y-38354000D01*
X124042400Y-38354000D02*
X121412000Y-38354000D01*
X124587000Y-39751000D02*
X124587000Y-38898600D01*
X124587000Y-38898600D02*
X124042400Y-38354000D01*
X88646000Y-38354000D02*
X102616000Y-38354000D01*
X105537000Y-39751000D02*
X104684600Y-39751000D01*
X104684600Y-39751000D02*
X103287600Y-38354000D01*
X103287600Y-38354000D02*
X102616000Y-38354000D01*
X87884000Y-40259000D02*
X87884000Y-39116000D01*
X87884000Y-39116000D02*
X88646000Y-38354000D01*
X87212400Y-40930600D02*
X87884000Y-40259000D01*
X84455000Y-40930600D02*
X85634600Y-39751000D01*
X82713600Y-42672000D02*
X84455000Y-40930600D01*
X84455000Y-40930600D02*
X87212400Y-40930600D01*
X50927500Y-39751000D02*
X65151000Y-39751000D01*
X65151000Y-39751000D02*
X67437000Y-39751000D01*
X65786000Y-40386000D02*
X65151000Y-39751000D01*
X69999670Y-41148000D02*
X71523670Y-42672000D01*
X65786000Y-40386000D02*
X66548000Y-41148000D01*
X66548000Y-41148000D02*
X69999670Y-41148000D01*
X48910000Y-30678000D02*
X50551200Y-30678000D01*
X50551200Y-30678000D02*
X50698400Y-30530800D01*
X71523670Y-42672000D02*
X82713600Y-42672000D01*
X85634600Y-39751000D02*
X86487000Y-39751000D01*
X44704000Y-55222140D02*
X54457600Y-55222140D01*
X54457600Y-55222140D02*
X55603140Y-54076600D01*
X55603140Y-54076600D02*
X55603140Y-53975000D01*
X67437000Y-39751000D02*
X65786000Y-39751000D01*
X65786000Y-39751000D02*
X50927500Y-39751000D01*
X87187000Y-39127200D02*
X87110800Y-39127200D01*
X140335000Y-109728000D02*
X137807700Y-112255300D01*
X137807700Y-112255300D02*
X137807700Y-116447782D01*
X137807700Y-116447782D02*
X137161482Y-117094000D01*
X137161482Y-117094000D02*
X115062000Y-117094000D01*
X115062000Y-117094000D02*
X114096802Y-118059198D01*
X114096802Y-118059198D02*
X90284298Y-118059198D01*
X90284298Y-118059198D02*
X86918800Y-114693700D01*
X86918800Y-114693700D02*
X83140300Y-114693700D01*
X83140300Y-114693700D02*
X82582999Y-115251001D01*
X82582999Y-115251001D02*
X81883000Y-115951000D01*
X45085000Y-92986860D02*
X56235600Y-92986860D01*
X56235600Y-92986860D02*
X56235600Y-93040200D01*
X56235600Y-93040200D02*
X61417200Y-98221800D01*
X61417200Y-98221800D02*
X68465700Y-98221800D01*
X68465700Y-98221800D02*
X70993000Y-95694500D01*
X70993000Y-95694500D02*
X73532500Y-95694500D01*
X73532500Y-95694500D02*
X74739000Y-96901000D01*
X143637000Y-39751000D02*
X145288000Y-38100000D01*
X138176000Y-54483000D02*
X138176000Y-63627000D01*
X145288000Y-38100000D02*
X146685000Y-38100000D01*
X146685000Y-38100000D02*
X147828000Y-39243000D01*
X145440400Y-86868000D02*
X140335000Y-91973400D01*
X147828000Y-39243000D02*
X147828000Y-45593000D01*
X147828000Y-45593000D02*
X145923000Y-47498000D01*
X139446000Y-64897000D02*
X140081000Y-64897000D01*
X145923000Y-47498000D02*
X145923000Y-49149000D01*
X143510000Y-78613000D02*
X143510000Y-82931000D01*
X140970000Y-76454000D02*
X141351000Y-76835000D01*
X145923000Y-49149000D02*
X143510000Y-51562000D01*
X143510000Y-51562000D02*
X141097000Y-51562000D01*
X141097000Y-51562000D02*
X138176000Y-54483000D01*
X145161000Y-84074000D02*
X145796000Y-84709000D01*
X138176000Y-63627000D02*
X139446000Y-64897000D01*
X140970000Y-65786000D02*
X140970000Y-76454000D01*
X140081000Y-64897000D02*
X140970000Y-65786000D01*
X141351000Y-76835000D02*
X141732000Y-76835000D01*
X141732000Y-76835000D02*
X143510000Y-78613000D01*
X143510000Y-82931000D02*
X144653000Y-84074000D01*
X145440400Y-86842600D02*
X145440400Y-86868000D01*
X144653000Y-84074000D02*
X145161000Y-84074000D01*
X145796000Y-84709000D02*
X145796000Y-86487000D01*
X145796000Y-86487000D02*
X145440400Y-86842600D01*
X140335000Y-91973400D02*
X140335000Y-92964000D01*
X132243802Y-59816798D02*
X133259600Y-58801000D01*
X133259600Y-58801000D02*
X134112000Y-58801000D01*
X115914400Y-58801000D02*
X116904998Y-59791598D01*
X116904998Y-59791598D02*
X125224034Y-59791598D01*
X125224034Y-59791598D02*
X125249234Y-59816798D01*
X125249234Y-59816798D02*
X132243802Y-59816798D01*
X115062000Y-58801000D02*
X115914400Y-58801000D01*
X111438577Y-45892607D02*
X111424607Y-45892607D01*
X100606860Y-51689000D02*
X99463860Y-50546000D01*
X106045000Y-51689000D02*
X100606860Y-51689000D01*
X107950000Y-49784000D02*
X106045000Y-51689000D01*
X107950000Y-47498000D02*
X107950000Y-49784000D01*
X109728000Y-45720000D02*
X107950000Y-47498000D01*
X111252000Y-45720000D02*
X109728000Y-45720000D01*
X111424607Y-45892607D02*
X111252000Y-45720000D01*
X95140317Y-57861201D02*
X104267000Y-57861201D01*
X104267000Y-57861201D02*
X113269801Y-57861201D01*
X114404140Y-49911000D02*
X114404140Y-51330860D01*
X114404140Y-51330860D02*
X113538000Y-52197000D01*
X111438577Y-45892607D02*
X114404140Y-48858170D01*
X114404140Y-48858170D02*
X114404140Y-49911000D01*
X79502000Y-58501000D02*
X94500518Y-58501000D01*
X94500518Y-58501000D02*
X95140317Y-57861201D01*
X113269801Y-57861201D02*
X114209600Y-58801000D01*
X114209600Y-58801000D02*
X115062000Y-58801000D01*
X64837310Y-109093000D02*
X76014949Y-109093000D01*
X63350140Y-111633000D02*
X63350140Y-110580170D01*
X63350140Y-110580170D02*
X64837310Y-109093000D01*
X48910000Y-30028000D02*
X49777400Y-30028000D01*
X49777400Y-30028000D02*
X50214400Y-29591000D01*
X50214400Y-29591000D02*
X51435000Y-29591000D01*
X127127000Y-39751000D02*
X136906000Y-39751000D01*
X136906000Y-39751000D02*
X138836400Y-39751000D01*
X138836400Y-39751000D02*
X143637000Y-39751000D01*
X140335000Y-109728000D02*
X140307756Y-109701759D01*
X54407300Y-114668300D02*
X54254400Y-114668300D01*
X54254400Y-114668300D02*
X44693840Y-114668300D01*
X55690000Y-115951000D02*
X54407300Y-114668300D01*
X44693840Y-114668300D02*
X41760140Y-111734600D01*
X41760140Y-111734600D02*
X41760140Y-111633000D01*
X50039010Y-90147140D02*
X57096660Y-90147140D01*
X57096660Y-90147140D02*
X57150000Y-90093800D01*
X45085000Y-90147140D02*
X50039010Y-90147140D01*
X84265000Y-77851000D02*
X84265000Y-77533000D01*
X84265000Y-77533000D02*
X85725000Y-76073000D01*
X128651000Y-77851000D02*
X138874000Y-77851000D01*
X126873000Y-76073000D02*
X128651000Y-77851000D01*
X85725000Y-76073000D02*
X126873000Y-76073000D01*
X60452000Y-58501000D02*
X60452000Y-57912000D01*
X60452000Y-57912000D02*
X59436000Y-56896000D01*
X56134000Y-56896000D02*
X53940709Y-59089291D01*
X59436000Y-56896000D02*
X56134000Y-56896000D01*
X84265000Y-77851000D02*
X84265000Y-77787000D01*
X37334034Y-62487967D02*
X41652033Y-62487967D01*
X45466000Y-66301934D02*
X45466000Y-71605140D01*
X41652033Y-62487967D02*
X45466000Y-66301934D01*
X31605949Y-60142651D02*
X31551349Y-60142651D01*
X34493198Y-61391802D02*
X34493198Y-61417198D01*
X32639000Y-63246000D02*
X34493198Y-61391802D01*
X31496000Y-63246000D02*
X32639000Y-63246000D01*
X31242000Y-62992000D02*
X31496000Y-63246000D01*
X31242000Y-60452000D02*
X31242000Y-62992000D01*
X31551349Y-60142651D02*
X31242000Y-60452000D01*
X34100000Y-58501000D02*
X33247600Y-58501000D01*
X33247600Y-58501000D02*
X31605949Y-60142651D01*
X36576000Y-61729933D02*
X37334034Y-62487967D01*
X34544000Y-61391802D02*
X36245802Y-61391802D01*
X36245802Y-61391802D02*
X36576000Y-61722000D01*
X36576000Y-61722000D02*
X36576000Y-61729933D01*
X34100000Y-58501000D02*
X34952400Y-58501000D01*
X43620689Y-59089291D02*
X53940709Y-59089291D01*
X42103797Y-57572399D02*
X43620689Y-59089291D01*
X35881001Y-57572399D02*
X42103797Y-57572399D01*
X34952400Y-58501000D02*
X35881001Y-57572399D01*
X108077000Y-39751000D02*
X106275729Y-41552271D01*
X106275729Y-41552271D02*
X84817446Y-41552271D01*
X84817446Y-41552271D02*
X83313514Y-43056203D01*
X83313514Y-43056203D02*
X71414348Y-43056203D01*
X70393318Y-42035173D02*
X51099718Y-42035173D01*
X71414348Y-43056203D02*
X70393318Y-42035173D01*
X51099718Y-42035173D02*
X50311173Y-41246628D01*
X50311173Y-41246628D02*
X49149000Y-41246628D01*
X31685028Y-41246628D02*
X49149000Y-41246628D01*
X48387500Y-39751000D02*
X48387500Y-40603400D01*
X48387500Y-40603400D02*
X49030728Y-41246628D01*
X49030728Y-41246628D02*
X49149000Y-41246628D01*
X29337000Y-39751000D02*
X30189400Y-39751000D01*
X30189400Y-39751000D02*
X31685028Y-41246628D01*
X48910000Y-29378000D02*
X47609400Y-29378000D01*
X107938300Y-40350200D02*
X107859900Y-40367600D01*
X108101500Y-40340900D02*
X107938300Y-40350200D01*
X108181900Y-40349400D02*
X108101500Y-40340900D01*
X60452000Y-115951000D02*
X60452000Y-116586000D01*
X34258000Y-96901000D02*
X34258000Y-95911051D01*
X34258000Y-95911051D02*
X33596949Y-95250000D01*
X33596949Y-95250000D02*
X33401000Y-95250000D01*
X43121949Y-95250000D02*
X33401000Y-95250000D01*
X29210000Y-91853000D02*
X26828494Y-89471494D01*
X33401000Y-95250000D02*
X30004000Y-91853000D01*
X30004000Y-91853000D02*
X29210000Y-91853000D01*
X126467634Y-60122802D02*
X135330198Y-60122802D01*
X94042002Y-59918598D02*
X97942402Y-59918598D01*
X94016600Y-59944000D02*
X94042002Y-59918598D01*
X97942402Y-59918598D02*
X98131399Y-59729601D01*
X135330198Y-60122802D02*
X135952001Y-59500999D01*
X115045752Y-61112402D02*
X125478034Y-61112402D01*
X125478034Y-61112402D02*
X126467634Y-60122802D01*
X113662951Y-59729601D02*
X115045752Y-61112402D01*
X135952001Y-59500999D02*
X136652000Y-58801000D01*
X98131399Y-59729601D02*
X113662951Y-59729601D01*
X90294966Y-59918598D02*
X93991198Y-59918598D01*
X74666600Y-59944000D02*
X90269564Y-59944000D01*
X93991198Y-59918598D02*
X94016600Y-59944000D01*
X90269564Y-59944000D02*
X90294966Y-59918598D01*
X134271000Y-115951000D02*
X134271000Y-113760000D01*
X134271000Y-113760000D02*
X134620000Y-113411000D01*
X35243000Y-114554000D02*
X36640000Y-115951000D01*
X43783000Y-96901000D02*
X43783000Y-95911051D01*
X43783000Y-95911051D02*
X43121949Y-95250000D01*
X26828494Y-89471494D02*
X26828494Y-81888106D01*
X26828494Y-81888106D02*
X30865600Y-77851000D01*
X30865600Y-77851000D02*
X31718000Y-77851000D01*
X135658860Y-49149000D02*
X136610090Y-49149000D01*
X136610090Y-49149000D02*
X139848584Y-45910506D01*
X139848584Y-45910506D02*
X140301206Y-45910506D01*
X140301206Y-45910506D02*
X142450051Y-43761661D01*
X135658860Y-49149000D02*
X135658860Y-49250600D01*
X142404331Y-43807381D02*
X142450051Y-43761661D01*
X142450051Y-43761661D02*
X142450051Y-42395139D01*
X142450051Y-42395139D02*
X141647101Y-41592189D01*
X141647101Y-41592189D02*
X111292519Y-41592189D01*
X111292519Y-41592189D02*
X108522729Y-38822399D01*
X108522729Y-38822399D02*
X107631271Y-38822399D01*
X107631271Y-38822399D02*
X107148399Y-39305271D01*
X107148399Y-39305271D02*
X107148399Y-40196729D01*
X107148399Y-40196729D02*
X106145232Y-41199896D01*
X106145232Y-41199896D02*
X90475896Y-41199896D01*
X90475896Y-41199896D02*
X89027000Y-39751000D01*
X94016600Y-59944000D02*
X95159600Y-58801000D01*
X95159600Y-58801000D02*
X96012000Y-58801000D01*
X55616600Y-59944000D02*
X74666600Y-59944000D01*
X74666600Y-59944000D02*
X76109600Y-58501000D01*
X76109600Y-58501000D02*
X76962000Y-58501000D01*
X38083000Y-59944000D02*
X55616600Y-59944000D01*
X55616600Y-59944000D02*
X57059600Y-58501000D01*
X57059600Y-58501000D02*
X57912000Y-58501000D01*
X36640000Y-58501000D02*
X38083000Y-59944000D01*
X34130777Y-76603893D02*
X63967893Y-76603893D01*
X63967893Y-76603893D02*
X65215000Y-77851000D01*
X31718000Y-77851000D02*
X32883670Y-77851000D01*
X32883670Y-77851000D02*
X34130777Y-76603893D01*
X48910000Y-28728000D02*
X50393000Y-28728000D01*
X50393000Y-28728000D02*
X50927000Y-28194000D01*
X31718000Y-115951000D02*
X31718000Y-115221000D01*
X32385000Y-114554000D02*
X35243000Y-114554000D01*
X31718000Y-115221000D02*
X32385000Y-114554000D01*
X25552400Y-41351200D02*
X25552400Y-39497000D01*
X25552400Y-39497000D02*
X24942810Y-38887410D01*
X24942810Y-38887410D02*
X24942810Y-36649988D01*
X24942810Y-36649988D02*
X33514798Y-28078000D01*
X33514798Y-28078000D02*
X48910000Y-28078000D01*
X86487000Y-77851000D02*
X88011000Y-79375000D01*
X143534011Y-100181529D02*
X143150471Y-100181529D01*
X145012529Y-100181529D02*
X143534011Y-100181529D01*
X134216140Y-109115860D02*
X134216140Y-110109000D01*
X143150471Y-100181529D02*
X134216140Y-109115860D01*
X145796000Y-102616000D02*
X145796000Y-100965000D01*
X139827000Y-94488000D02*
X140411190Y-95072190D01*
X139827000Y-93853000D02*
X139827000Y-94488000D01*
X138846559Y-92872559D02*
X139827000Y-93853000D01*
X138775441Y-92872559D02*
X136433559Y-92872559D01*
X136433559Y-92872559D02*
X134978140Y-91417140D01*
X150622000Y-104394000D02*
X150876000Y-104394000D01*
X145288000Y-95072190D02*
X140411190Y-95072190D01*
X151765000Y-95885000D02*
X147701000Y-95885000D01*
X152273000Y-96393000D02*
X151765000Y-95885000D01*
X152273000Y-102489000D02*
X152273000Y-96393000D01*
X145288000Y-95123000D02*
X146050000Y-95885000D01*
X146050000Y-95885000D02*
X147701000Y-95885000D01*
X145288000Y-95072190D02*
X145288000Y-95123000D01*
X145796000Y-102616000D02*
X146939000Y-102616000D01*
X146939000Y-102616000D02*
X148717000Y-104394000D01*
X148717000Y-104394000D02*
X150622000Y-104394000D01*
X150876000Y-104394000D02*
X152273000Y-102997000D01*
X152273000Y-102997000D02*
X152273000Y-102489000D01*
X138775441Y-92872559D02*
X138846559Y-92872559D01*
X145796000Y-100965000D02*
X145012529Y-100181529D01*
X133018525Y-89408000D02*
X133018525Y-89457525D01*
X133018525Y-86868000D02*
X140112705Y-79773820D01*
X140112705Y-79773820D02*
X140112705Y-78740000D01*
X133018525Y-89408000D02*
X133018525Y-86868000D01*
X133018525Y-89457525D02*
X134978140Y-91417140D01*
X134978140Y-91417140D02*
X138049000Y-91417140D01*
X132969000Y-76059030D02*
X132969000Y-76073000D01*
X132969000Y-76073000D02*
X131953000Y-77089000D01*
X131953000Y-77089000D02*
X129540000Y-77089000D01*
X129540000Y-77089000D02*
X127000000Y-74549000D01*
X127000000Y-74549000D02*
X127000000Y-68732712D01*
X127000000Y-68732712D02*
X134287573Y-61445139D01*
X134287573Y-61445139D02*
X135382191Y-61445139D01*
X135382191Y-61445139D02*
X137580601Y-59246729D01*
X127480291Y-57872399D02*
X127163830Y-58188860D01*
X137580601Y-59246729D02*
X137580601Y-58355271D01*
X137580601Y-58355271D02*
X137097729Y-57872399D01*
X137097729Y-57872399D02*
X127480291Y-57872399D01*
X127163830Y-58188860D02*
X126111000Y-58188860D01*
X131989830Y-75079860D02*
X132969000Y-76059030D01*
X140112705Y-76739705D02*
X139432030Y-76059030D01*
X139432030Y-76059030D02*
X132969000Y-76059030D01*
X140112705Y-78486000D02*
X140112705Y-76922399D01*
X140112705Y-78740000D02*
X140112705Y-78486000D01*
X140112705Y-78486000D02*
X140112705Y-76739705D01*
X145012529Y-100181529D02*
X145173817Y-100181529D01*
X113539999Y-97600999D02*
X112840000Y-96901000D01*
X113768601Y-97829601D02*
X113539999Y-97600999D01*
X130469551Y-97829601D02*
X113768601Y-97829601D01*
X130960399Y-97338753D02*
X130469551Y-97829601D01*
X130960399Y-96455271D02*
X130960399Y-97338753D01*
X131443271Y-95972399D02*
X130960399Y-96455271D01*
X143639311Y-95972399D02*
X131443271Y-95972399D01*
X147212051Y-99545139D02*
X143639311Y-95972399D01*
X147212051Y-100838626D02*
X147212051Y-99545139D01*
X147093296Y-100957381D02*
X147212051Y-100838626D01*
X145949669Y-100957381D02*
X147093296Y-100957381D01*
X145173817Y-100181529D02*
X145949669Y-100957381D01*
X119824000Y-77851000D02*
X119824000Y-78703400D01*
X140112705Y-79152295D02*
X140112705Y-78740000D01*
X138049000Y-91417140D02*
X137320022Y-91417140D01*
X82423000Y-79375000D02*
X88011000Y-79375000D01*
X88011000Y-79375000D02*
X101473000Y-79375000D01*
X120523000Y-79375000D02*
X137668000Y-79375000D01*
X137668000Y-79375000D02*
X139890000Y-79375000D01*
X139890000Y-79375000D02*
X140112705Y-79152295D01*
X117602000Y-58801000D02*
X125498860Y-58801000D01*
X125498860Y-58801000D02*
X126111000Y-58188860D01*
X130937000Y-75079860D02*
X130835400Y-75079860D01*
X130937000Y-75079860D02*
X131989830Y-75079860D01*
X101473000Y-79375000D02*
X120523000Y-79375000D01*
X119824000Y-78703400D02*
X120495600Y-79375000D01*
X120495600Y-79375000D02*
X120523000Y-79375000D01*
X100775000Y-77851000D02*
X100775000Y-78703400D01*
X100775000Y-78703400D02*
X101446600Y-79375000D01*
X101446600Y-79375000D02*
X101473000Y-79375000D01*
X63373000Y-79375000D02*
X82423000Y-79375000D01*
X81725000Y-77851000D02*
X81725000Y-78703400D01*
X81725000Y-78703400D02*
X82396600Y-79375000D01*
X82396600Y-79375000D02*
X82423000Y-79375000D01*
X39624000Y-79375000D02*
X63373000Y-79375000D01*
X62675000Y-77851000D02*
X62675000Y-78703400D01*
X62675000Y-78703400D02*
X63346600Y-79375000D01*
X63346600Y-79375000D02*
X63373000Y-79375000D01*
X34798000Y-79375000D02*
X39624000Y-79375000D01*
X39021000Y-77851000D02*
X39021000Y-78840949D01*
X39021000Y-78840949D02*
X39555051Y-79375000D01*
X39555051Y-79375000D02*
X39624000Y-79375000D01*
X33248600Y-79375000D02*
X34798000Y-79375000D01*
X34258000Y-77851000D02*
X34258000Y-78840949D01*
X34258000Y-78840949D02*
X34792051Y-79375000D01*
X34792051Y-79375000D02*
X34798000Y-79375000D01*
X139890000Y-79375000D02*
X141414000Y-77851000D01*
X69812600Y-40355900D02*
X69759900Y-40367600D01*
X69977000Y-40343900D02*
X69922600Y-40343900D01*
X69922600Y-40343900D02*
X69812600Y-40355900D01*
X127039601Y-95972399D02*
X112090200Y-95972399D01*
X110300000Y-96901000D02*
X111152400Y-96901000D01*
X111152400Y-96901000D02*
X112081001Y-95972399D01*
X112081001Y-95972399D02*
X112090200Y-95972399D01*
X33362900Y-54190900D02*
X32931848Y-54190900D01*
X32931848Y-54190900D02*
X30658548Y-51917600D01*
X30658548Y-51917600D02*
X27406600Y-51917600D01*
X27406600Y-51917600D02*
X26024260Y-50535260D01*
X26024260Y-50535260D02*
X26024260Y-46494700D01*
X26606506Y-45912454D02*
X26024260Y-46494700D01*
X26024260Y-46494700D02*
X24714231Y-47804729D01*
X47557690Y-56261000D02*
X37249100Y-56261000D01*
X37249100Y-56261000D02*
X37160200Y-56172100D01*
X24714231Y-47804729D02*
X24714231Y-93625148D01*
X26606506Y-44312836D02*
X26606506Y-45912454D01*
X24714231Y-93625148D02*
X24714231Y-94056200D01*
X24638000Y-42344330D02*
X26606506Y-44312836D01*
X24638000Y-36523732D02*
X24638000Y-42344330D01*
X33733732Y-27428000D02*
X24638000Y-36523732D01*
X48910000Y-27428000D02*
X33733732Y-27428000D01*
X110594140Y-111379000D02*
X110490000Y-111379000D01*
X110490000Y-111379000D02*
X104775000Y-105664000D01*
X104775000Y-104895798D02*
X104775000Y-102108000D01*
X104775000Y-105664000D02*
X104775000Y-104895798D01*
X117243860Y-49911000D02*
X117243860Y-50949860D01*
X117243860Y-50949860D02*
X118110000Y-51816000D01*
X114300000Y-52908211D02*
X114985789Y-52908211D01*
X130152140Y-51816000D02*
X132819140Y-49149000D01*
X116078000Y-51816000D02*
X118110000Y-51816000D01*
X118110000Y-51816000D02*
X130152140Y-51816000D01*
X114985789Y-52908211D02*
X116078000Y-51816000D01*
X144272000Y-95377000D02*
X144526000Y-95377000D01*
X146050000Y-96901000D02*
X148399000Y-96901000D01*
X144526000Y-95377000D02*
X146050000Y-96901000D01*
X74791571Y-52718969D02*
X65024000Y-52718969D01*
X65024000Y-52718969D02*
X61565430Y-52718969D01*
X47557690Y-56261000D02*
X61481969Y-56261000D01*
X61481969Y-56261000D02*
X65024000Y-52718969D01*
X44704000Y-58061860D02*
X45756830Y-58061860D01*
X45756830Y-58061860D02*
X47557690Y-56261000D01*
X61565430Y-52718969D02*
X60309399Y-53975000D01*
X60309399Y-53975000D02*
X58442860Y-53975000D01*
X82399633Y-54102001D02*
X82549999Y-54102001D01*
X82549999Y-54102001D02*
X83743789Y-52908211D01*
X83743789Y-52908211D02*
X109601000Y-52908211D01*
X109601000Y-52908211D02*
X114300000Y-52908211D01*
X110490000Y-52578000D02*
X110185201Y-52882799D01*
X110185201Y-52882799D02*
X109626412Y-52882799D01*
X109626412Y-52882799D02*
X109601000Y-52908211D01*
X96624140Y-50546000D02*
X96624140Y-50647600D01*
X96624140Y-50647600D02*
X98046540Y-52070000D01*
X98046540Y-52070000D02*
X108661948Y-52070000D01*
X108661948Y-52070000D02*
X109093000Y-52070000D01*
X73764140Y-53848000D02*
X73764140Y-53746400D01*
X73764140Y-53746400D02*
X74791571Y-52718969D01*
X79590135Y-52718969D02*
X80973167Y-54102001D01*
X74791571Y-52718969D02*
X79590135Y-52718969D01*
X80973167Y-54102001D02*
X82399633Y-54102001D01*
X144272000Y-95377000D02*
X139700000Y-95377000D01*
X139700000Y-95377000D02*
X127635000Y-95377000D01*
X138049000Y-94256860D02*
X138150600Y-94256860D01*
X138150600Y-94256860D02*
X139270740Y-95377000D01*
X139270740Y-95377000D02*
X139700000Y-95377000D01*
X129349000Y-96901000D02*
X128496600Y-96901000D01*
X128496600Y-96901000D02*
X127567999Y-95972399D01*
X127567999Y-95972399D02*
X127039601Y-95972399D01*
X127635000Y-95377000D02*
X127039601Y-95972399D01*
X42291000Y-74803000D02*
X42649140Y-74444860D01*
X42649140Y-74444860D02*
X45466000Y-74444860D01*
X53848000Y-98246044D02*
X54407956Y-98806000D01*
X54407956Y-98806000D02*
X72719044Y-98806000D01*
X72719044Y-98806000D02*
X73279000Y-98246044D01*
X33952666Y-26778000D02*
X24180811Y-36549855D01*
X27127899Y-98247899D02*
X32212499Y-98247899D01*
X24180811Y-36549855D02*
X24180811Y-95300811D01*
X24180811Y-95300811D02*
X27127899Y-98247899D01*
X48910000Y-26778000D02*
X33952666Y-26778000D01*
X76603860Y-53848000D02*
X76603860Y-55603140D01*
X76603860Y-55603140D02*
X73660000Y-58547000D01*
X126111000Y-55349140D02*
X126009400Y-55349140D01*
X126009400Y-55349140D02*
X124818139Y-56540401D01*
X124818139Y-56540401D02*
X80247491Y-56540401D01*
X80247491Y-56540401D02*
X77555090Y-53848000D01*
X77555090Y-53848000D02*
X76603860Y-53848000D01*
X73279000Y-98246044D02*
X89051556Y-98246044D01*
X72199000Y-96901000D02*
X72199000Y-97753400D01*
X72199000Y-97753400D02*
X72691644Y-98246044D01*
X72691644Y-98246044D02*
X73279000Y-98246044D01*
X42392112Y-98246044D02*
X53848000Y-98246044D01*
X53150000Y-96901000D02*
X53150000Y-97753400D01*
X53150000Y-97753400D02*
X53642644Y-98246044D01*
X53642644Y-98246044D02*
X53848000Y-98246044D01*
X89051556Y-98246044D02*
X90396600Y-96901000D01*
X90396600Y-96901000D02*
X91249000Y-96901000D01*
X42392112Y-98246044D02*
X42291000Y-98247899D01*
X31718000Y-96901000D02*
X31718000Y-97753400D01*
X31718000Y-97753400D02*
X32212499Y-98247899D01*
X32212499Y-98247899D02*
X42291000Y-98247899D01*
X41243000Y-96901000D02*
X42392112Y-98246044D01*
X141414000Y-115951000D02*
X141414000Y-109473500D01*
X141414000Y-109473500D02*
X140462000Y-108521500D01*
X140462000Y-108521500D02*
X138366500Y-108521500D01*
X138366500Y-108521500D02*
X137055860Y-109832140D01*
X137055860Y-109832140D02*
X137055860Y-110109000D01*
X131445000Y-109982000D02*
X133273800Y-111810800D01*
X133273800Y-111810800D02*
X133731000Y-112268000D01*
X91567000Y-113411000D02*
X97561400Y-113411000D01*
X97561400Y-113411000D02*
X100812600Y-110159800D01*
X100812600Y-110159800D02*
X107988100Y-110159800D01*
X107988100Y-110159800D02*
X109207300Y-111379000D01*
X109207300Y-111379000D02*
X109207300Y-112369600D01*
X109207300Y-112369600D02*
X110248700Y-113411000D01*
X110248700Y-113411000D02*
X111277400Y-113411000D01*
X111277400Y-113411000D02*
X114554000Y-113411000D01*
X48715400Y-25933400D02*
X48910000Y-26128000D01*
X46990000Y-25933400D02*
X48715400Y-25933400D01*
X127508000Y-109982000D02*
X131445000Y-109982000D01*
X115570000Y-113030000D02*
X115189000Y-113411000D01*
X115189000Y-113411000D02*
X115062000Y-113411000D01*
X116205000Y-112395000D02*
X115570000Y-113030000D01*
X135128000Y-112268000D02*
X136493000Y-113633000D01*
X133731000Y-112268000D02*
X135128000Y-112268000D01*
X118618000Y-109982000D02*
X127508000Y-109982000D01*
X116205000Y-112395000D02*
X116840000Y-111760000D01*
X116840000Y-111760000D02*
X118618000Y-109982000D01*
X136493000Y-113633000D02*
X136493000Y-110671860D01*
X136493000Y-115951000D02*
X136493000Y-113633000D01*
X136493000Y-110671860D02*
X137055860Y-110109000D01*
X113433860Y-111379000D02*
X113433860Y-112290860D01*
X113433860Y-112290860D02*
X114554000Y-113411000D01*
X47329090Y-113411000D02*
X67056000Y-113411000D01*
X67056000Y-113411000D02*
X91567000Y-113411000D01*
X66189860Y-111633000D02*
X66189860Y-112685830D01*
X66189860Y-112685830D02*
X66915030Y-113411000D01*
X66915030Y-113411000D02*
X67056000Y-113411000D01*
X90192860Y-111379000D02*
X90192860Y-112431830D01*
X90192860Y-112431830D02*
X91172030Y-113411000D01*
X91172030Y-113411000D02*
X91567000Y-113411000D01*
X114554000Y-113411000D02*
X115062000Y-113411000D01*
X115062000Y-113411000D02*
X115189000Y-113411000D01*
X44599860Y-111633000D02*
X45551090Y-111633000D01*
X45551090Y-111633000D02*
X47329090Y-113411000D01*
X106438700Y-117602000D02*
X111277400Y-117602000D01*
X111277400Y-117602000D02*
X112903000Y-117602000D01*
X110458000Y-115951000D02*
X110458000Y-116803400D01*
X110458000Y-116803400D02*
X111256600Y-117602000D01*
X111256600Y-117602000D02*
X111277400Y-117602000D01*
X101676200Y-117602000D02*
X106438700Y-117602000D01*
X105696000Y-115951000D02*
X105696000Y-116803400D01*
X105696000Y-116803400D02*
X106438700Y-117546100D01*
X106438700Y-117546100D02*
X106438700Y-117602000D01*
X99275900Y-117602000D02*
X101676200Y-117602000D01*
X100775000Y-115951000D02*
X100775000Y-116803400D01*
X100775000Y-116803400D02*
X101573600Y-117602000D01*
X101573600Y-117602000D02*
X101676200Y-117602000D01*
X92824300Y-117602000D02*
X99275900Y-117602000D01*
X98552000Y-115951000D02*
X98552000Y-116803400D01*
X98552000Y-116803400D02*
X99275900Y-117527300D01*
X99275900Y-117527300D02*
X99275900Y-117602000D01*
X91668600Y-117602000D02*
X92824300Y-117602000D01*
X93631000Y-115951000D02*
X93631000Y-116803400D01*
X93631000Y-116803400D02*
X92832400Y-117602000D01*
X92832400Y-117602000D02*
X92824300Y-117602000D01*
X79502000Y-115951000D02*
X80354400Y-115951000D01*
X88455489Y-114388889D02*
X91668600Y-117602000D01*
X80354400Y-115951000D02*
X81916511Y-114388889D01*
X81916511Y-114388889D02*
X88455489Y-114388889D01*
X112903000Y-117602000D02*
X115824000Y-114681000D01*
X115824000Y-114681000D02*
X117475000Y-114681000D01*
X117475000Y-114681000D02*
X118237000Y-113919000D01*
X118237000Y-113919000D02*
X118237000Y-111506000D01*
X118237000Y-111506000D02*
X119380000Y-110363000D01*
X119380000Y-110363000D02*
X122555000Y-110363000D01*
X122555000Y-110363000D02*
X123444000Y-111252000D01*
X123444000Y-111252000D02*
X123444000Y-114554000D01*
X123444000Y-114554000D02*
X123317000Y-114681000D01*
X123317000Y-114681000D02*
X123317000Y-115697000D01*
X84265000Y-115951000D02*
X84265000Y-116803400D01*
X84265000Y-116803400D02*
X83668018Y-117400382D01*
X83668018Y-117400382D02*
X77200218Y-117400382D01*
X71450200Y-117400382D02*
X76936600Y-117400382D01*
X76936600Y-117400382D02*
X77041218Y-117400382D01*
X79502000Y-115951000D02*
X78649600Y-115951000D01*
X78649600Y-115951000D02*
X77200218Y-117400382D01*
X77200218Y-117400382D02*
X76936600Y-117400382D01*
X61923618Y-117400382D02*
X71450200Y-117400382D01*
X72199000Y-115951000D02*
X72199000Y-116803400D01*
X72199000Y-116803400D02*
X71602018Y-117400382D01*
X71602018Y-117400382D02*
X71450200Y-117400382D01*
X54696612Y-117400382D02*
X58610500Y-117400382D01*
X58610500Y-117400382D02*
X59637618Y-117400382D01*
X57912000Y-115951000D02*
X57912000Y-116803400D01*
X57912000Y-116803400D02*
X58508982Y-117400382D01*
X58508982Y-117400382D02*
X58610500Y-117400382D01*
X58071000Y-115951000D02*
X58071000Y-115411000D01*
X32766000Y-117348000D02*
X54114700Y-117348000D01*
X53150000Y-115951000D02*
X53150000Y-116803400D01*
X54114700Y-117348000D02*
X54644230Y-117348000D01*
X53150000Y-116803400D02*
X53694600Y-117348000D01*
X53694600Y-117348000D02*
X54114700Y-117348000D01*
X32766000Y-117348000D02*
X30099000Y-117348000D01*
X23876000Y-36423600D02*
X34061400Y-26238200D01*
X30099000Y-117348000D02*
X28702000Y-115951000D01*
X28702000Y-115951000D02*
X24663400Y-115951000D01*
X34061400Y-26238200D02*
X44297599Y-26238200D01*
X24663400Y-115951000D02*
X23876000Y-115163600D01*
X23876000Y-115163600D02*
X23876000Y-36423600D01*
X45135800Y-25399999D02*
X54904599Y-25399999D01*
X44297599Y-26238200D02*
X45135800Y-25399999D01*
X54904599Y-25399999D02*
X55632600Y-26128000D01*
X55632600Y-26128000D02*
X56500000Y-26128000D01*
X84265000Y-115951000D02*
X84582000Y-115951000D01*
X133731000Y-72644000D02*
X131340860Y-72644000D01*
X59637618Y-117400382D02*
X61923618Y-117400382D01*
X54644230Y-117348000D02*
X54696612Y-117400382D01*
X34258000Y-115951000D02*
X34163000Y-115951000D01*
X34163000Y-115951000D02*
X32766000Y-117348000D01*
X131340860Y-72644000D02*
X130937000Y-72240140D01*
D44*
X111870000Y-25200000D02*
X111870000Y-19610000D01*
X111870000Y-19610000D02*
X111510000Y-19250000D01*
X120130000Y-25200000D02*
X120130000Y-19610000D01*
X120130000Y-19610000D02*
X120490000Y-19250000D01*
X120490000Y-19250000D02*
X119582000Y-19250000D01*
X119582000Y-19250000D02*
X111510000Y-19250000D01*
X120130000Y-25200000D02*
X121038000Y-25200000D01*
X121038000Y-25200000D02*
X127712000Y-25200000D01*
X143052000Y-25200000D02*
X143052000Y-28970000D01*
X143052000Y-28970000D02*
X143282000Y-29200000D01*
X127712000Y-25200000D02*
X127712000Y-28970000D01*
X127712000Y-28970000D02*
X127482000Y-29200000D01*
D42*
X60816000Y-26924000D02*
X61087000Y-26924000D01*
X61087000Y-26924000D02*
X62306948Y-26924000D01*
X58690000Y-27940000D02*
X58690000Y-27815000D01*
X58690000Y-27815000D02*
X59581000Y-26924000D01*
X59581000Y-26924000D02*
X61087000Y-26924000D01*
X56500000Y-28078000D02*
X58552000Y-28078000D01*
X58552000Y-28078000D02*
X58690000Y-27940000D01*
X62306948Y-26924000D02*
X62738000Y-26924000D01*
X73380600Y-34137600D02*
X74752000Y-34137600D01*
X74752000Y-34137600D02*
X75815000Y-35200600D01*
X75815000Y-35200600D02*
X75815000Y-36103000D01*
X75226311Y-38318810D02*
X75260212Y-38352711D01*
X75315000Y-37005400D02*
X75226311Y-37094089D01*
X75315000Y-36103000D02*
X75315000Y-37005400D01*
X75226311Y-37094089D02*
X75226311Y-38318810D01*
X75260212Y-38352711D02*
X75260212Y-38783776D01*
X75260212Y-38783776D02*
X75819000Y-39342564D01*
X75819000Y-39342564D02*
X75819000Y-39827948D01*
X75819000Y-39827948D02*
X75819000Y-40259000D01*
X84531200Y-55346600D02*
X124002798Y-55346600D01*
X124002798Y-55346600D02*
X125027689Y-54321709D01*
X125027689Y-54321709D02*
X133415204Y-54321709D01*
X133415204Y-54321709D02*
X140081000Y-47655913D01*
X74815000Y-36103000D02*
X74815000Y-38338566D01*
X74815000Y-38338566D02*
X74955401Y-38478967D01*
X74955401Y-38964345D02*
X75184004Y-39192948D01*
X74955401Y-38478967D02*
X74955401Y-38964345D01*
X75184004Y-39192948D02*
X75184004Y-39624000D01*
X134024000Y-88773000D02*
X134024000Y-88812000D01*
X139834000Y-89916000D02*
X143549000Y-86201000D01*
X135128000Y-89916000D02*
X139834000Y-89916000D01*
X134024000Y-88812000D02*
X135128000Y-89916000D01*
X83286600Y-54635400D02*
X83905100Y-54016900D01*
X83905100Y-54016900D02*
X126856500Y-54016900D01*
X126856500Y-54016900D02*
X127482601Y-53390799D01*
X127482601Y-53390799D02*
X127787400Y-53086000D01*
X137624000Y-125821000D02*
X136549468Y-124746468D01*
X136549468Y-124746468D02*
X136253532Y-124746468D01*
X136253532Y-124746468D02*
X136000000Y-125000000D01*
X74315000Y-36103000D02*
X74315000Y-38628000D01*
X74315000Y-38628000D02*
X74422000Y-38735000D01*
X82143600Y-53568600D02*
X83108798Y-52603402D01*
X83108798Y-52603402D02*
X109349033Y-52603401D01*
X109349033Y-52603401D02*
X110212000Y-51740434D01*
X110212000Y-51740434D02*
X110212000Y-50110178D01*
X110212000Y-50110178D02*
X110212000Y-48101000D01*
X134652000Y-125230000D02*
X135243000Y-125821000D01*
X69815000Y-31103000D02*
X68912600Y-31103000D01*
X64770000Y-35636950D02*
X64770000Y-36068002D01*
X64770000Y-35245600D02*
X64770000Y-35636950D01*
X68912600Y-31103000D02*
X64770000Y-35245600D01*
X57600000Y-124600000D02*
X59801000Y-124600000D01*
X59801000Y-124600000D02*
X60100000Y-124301000D01*
X62483996Y-37031604D02*
X62483996Y-37922948D01*
X62483996Y-37922948D02*
X62483996Y-38354000D01*
X69815000Y-30603000D02*
X68912600Y-30603000D01*
X68912600Y-30603000D02*
X62483996Y-37031604D01*
X54566190Y-46596810D02*
X53062000Y-48101000D01*
X56586000Y-44577000D02*
X54566190Y-46596810D01*
X61849000Y-44577000D02*
X56586000Y-44577000D01*
X153074000Y-124301000D02*
X148951700Y-124301000D01*
X144970500Y-118364000D02*
X143712690Y-118364000D01*
X146875500Y-120269000D02*
X144970500Y-118364000D01*
X146875500Y-122224800D02*
X146875500Y-120269000D01*
X148951700Y-124301000D02*
X146875500Y-122224800D01*
X112593000Y-124301000D02*
X113366800Y-124301000D01*
X113366800Y-124301000D02*
X115849400Y-121818400D01*
X132168900Y-118364000D02*
X143712690Y-118364000D01*
X130632200Y-119900700D02*
X132168900Y-118364000D01*
X129006600Y-119900700D02*
X130632200Y-119900700D01*
X127914394Y-118808494D02*
X129006600Y-119900700D01*
X115849400Y-120142000D02*
X117182906Y-118808494D01*
X115849400Y-121818400D02*
X115849400Y-120142000D01*
X117182906Y-118808494D02*
X127914394Y-118808494D01*
X101800000Y-125821000D02*
X101800000Y-127936600D01*
X101800000Y-127936600D02*
X103733600Y-129870200D01*
X103733600Y-129870200D02*
X108102400Y-129870200D01*
X108102400Y-129870200D02*
X110500000Y-127472600D01*
X110500000Y-127472600D02*
X110500000Y-126224508D01*
X110500000Y-126224508D02*
X110500000Y-124301000D01*
X91162000Y-48101000D02*
X87066000Y-52197000D01*
X80288632Y-52197000D02*
X79857580Y-52197000D01*
X87066000Y-52197000D02*
X80288632Y-52197000D01*
X65532000Y-34983600D02*
X65532000Y-36144948D01*
X69815000Y-31603000D02*
X68912600Y-31603000D01*
X68912600Y-31603000D02*
X65532000Y-34983600D01*
X65532000Y-36144948D02*
X65532000Y-36576000D01*
X68802564Y-30103000D02*
X61849000Y-37056564D01*
X69815000Y-30103000D02*
X68802564Y-30103000D01*
X61849000Y-37056564D02*
X61849000Y-37211000D01*
X54559201Y-51485799D02*
X58750201Y-47294799D01*
X58750201Y-47294799D02*
X59055000Y-46990000D01*
X34012000Y-48101000D02*
X37396799Y-51485799D01*
X37396799Y-51485799D02*
X54559201Y-51485799D01*
X40576506Y-104203506D02*
X40119810Y-103746810D01*
X40119810Y-103746810D02*
X37897190Y-103746810D01*
X37897190Y-103746810D02*
X36393000Y-105251000D01*
X45918000Y-105251000D02*
X44870506Y-104203506D01*
X44870506Y-104203506D02*
X40576506Y-104203506D01*
X85236050Y-41910000D02*
X87388690Y-41910000D01*
X83458050Y-43688000D02*
X85236050Y-41910000D01*
X87388690Y-41910000D02*
X101949750Y-41910000D01*
X69815000Y-29603000D02*
X68667566Y-29603000D01*
X68667566Y-29603000D02*
X61087000Y-37183566D01*
X61087000Y-37183566D02*
X61087000Y-37414948D01*
X61087000Y-37414948D02*
X61087000Y-37846000D01*
X120999750Y-41910000D02*
X140049750Y-41910000D01*
X140049750Y-41910000D02*
X141218150Y-43078400D01*
X141218150Y-43078400D02*
X141796000Y-43078400D01*
X101949750Y-41910000D02*
X120999750Y-41910000D01*
X120999750Y-41910000D02*
X122168150Y-43078400D01*
X122168150Y-43078400D02*
X122746000Y-43078400D01*
X101949750Y-41910000D02*
X103118150Y-43078400D01*
X103118150Y-43078400D02*
X103696000Y-43078400D01*
X65595500Y-43078400D02*
X63500000Y-43078400D01*
X63500000Y-43078400D02*
X61239400Y-43078400D01*
X69898983Y-42339983D02*
X64238417Y-42339983D01*
X64238417Y-42339983D02*
X63500000Y-43078400D01*
X83458050Y-43688000D02*
X71247000Y-43688000D01*
X71247000Y-43688000D02*
X69898983Y-42339983D01*
X84645500Y-43078400D02*
X84067650Y-43078400D01*
X84067650Y-43078400D02*
X83458050Y-43688000D01*
X61239400Y-43078400D02*
X61087000Y-42926000D01*
X47244000Y-41783000D02*
X29368750Y-41783000D01*
X29368750Y-41783000D02*
X28073350Y-43078400D01*
X28073350Y-43078400D02*
X27495500Y-43078400D01*
X48069494Y-42608494D02*
X47244000Y-41783000D01*
X48387000Y-42608494D02*
X47593256Y-42608494D01*
X51241973Y-42608494D02*
X48387000Y-42608494D01*
X48387000Y-42608494D02*
X48069494Y-42608494D01*
X61087000Y-42926000D02*
X51559479Y-42926000D01*
X51559479Y-42926000D02*
X51241973Y-42608494D01*
X47593256Y-42608494D02*
X47123350Y-43078400D01*
X47123350Y-43078400D02*
X46545500Y-43078400D01*
X84296200Y-43502600D02*
X84645500Y-43078400D01*
X84645500Y-43078400D02*
X84994800Y-42654200D01*
X125604290Y-61417213D02*
X125667819Y-61353684D01*
X125667819Y-61353684D02*
X130914434Y-61353684D01*
X131689150Y-62128400D02*
X132267000Y-62128400D01*
X111931963Y-61417213D02*
X125604290Y-61417213D01*
X111868434Y-61353684D02*
X111931963Y-61417213D01*
X130914434Y-61353684D02*
X131689150Y-62128400D01*
X109476034Y-61366402D02*
X109488752Y-61353684D01*
X109488752Y-61353684D02*
X111868434Y-61353684D01*
X92831152Y-61366402D02*
X109476034Y-61366402D01*
X92818434Y-61353684D02*
X92831152Y-61366402D01*
X68580000Y-28435600D02*
X68580000Y-29083000D01*
X68580000Y-29083000D02*
X60387258Y-37275742D01*
X68912600Y-28103000D02*
X68580000Y-28435600D01*
X60387258Y-38477392D02*
X60692057Y-38782191D01*
X69815000Y-28103000D02*
X68912600Y-28103000D01*
X60387258Y-37275742D02*
X60387258Y-38477392D01*
X33931323Y-61363323D02*
X33931323Y-61318677D01*
X38862000Y-61087000D02*
X39128684Y-61353684D01*
X34163000Y-61087000D02*
X38862000Y-61087000D01*
X33931323Y-61318677D02*
X34163000Y-61087000D01*
X54788434Y-61353684D02*
X67564000Y-61353684D01*
X67564000Y-61353684D02*
X73768434Y-61353684D01*
X111868434Y-61353684D02*
X112643150Y-62128400D01*
X112643150Y-62128400D02*
X113221000Y-62128400D01*
X73768434Y-61353684D02*
X92818434Y-61353684D01*
X92818434Y-61353684D02*
X93593150Y-62128400D01*
X93593150Y-62128400D02*
X94171000Y-62128400D01*
X73768434Y-61353684D02*
X74543150Y-62128400D01*
X74543150Y-62128400D02*
X75121000Y-62128400D01*
X32260000Y-62128400D02*
X33166246Y-62128400D01*
X33166246Y-62128400D02*
X33931323Y-61363323D01*
X39128684Y-61353684D02*
X54788434Y-61353684D01*
X54788434Y-61353684D02*
X55493150Y-62058400D01*
X55493150Y-62058400D02*
X56071000Y-62058400D01*
X59667474Y-37795261D02*
X59667474Y-38226313D01*
X59667474Y-36848126D02*
X59667474Y-37795261D01*
X68912600Y-27603000D02*
X59667474Y-36848126D01*
X69815000Y-27603000D02*
X68912600Y-27603000D01*
X59087750Y-80010000D02*
X69469000Y-80010000D01*
X69469000Y-80010000D02*
X78137750Y-80010000D01*
X116253750Y-80010000D02*
X135286750Y-80010000D01*
X135286750Y-80010000D02*
X136455150Y-81178400D01*
X136455150Y-81178400D02*
X137033000Y-81178400D01*
X97187750Y-80010000D02*
X116253750Y-80010000D01*
X116253750Y-80010000D02*
X117422150Y-81178400D01*
X117422150Y-81178400D02*
X118000000Y-81178400D01*
X78137750Y-80010000D02*
X97187750Y-80010000D01*
X97187750Y-80010000D02*
X98356150Y-81178400D01*
X98356150Y-81178400D02*
X98934000Y-81178400D01*
X78137750Y-80010000D02*
X79306150Y-81178400D01*
X79306150Y-81178400D02*
X79884000Y-81178400D01*
X30970470Y-80010000D02*
X59087750Y-80010000D01*
X59087750Y-80010000D02*
X60256150Y-81178400D01*
X60256150Y-81178400D02*
X60834000Y-81178400D01*
X29877000Y-81178400D02*
X29877000Y-81103470D01*
X29877000Y-81103470D02*
X30970470Y-80010000D01*
X61214000Y-34801600D02*
X58547000Y-37468600D01*
X58547000Y-38735000D02*
X58547000Y-37468600D01*
X30265620Y-99187000D02*
X48387000Y-99187000D01*
X48387000Y-99187000D02*
X49690750Y-99187000D01*
X69815000Y-27103000D02*
X68912600Y-27103000D01*
X68912600Y-27103000D02*
X61214000Y-34801600D01*
X125888750Y-99187000D02*
X144938750Y-99187000D01*
X144938750Y-99187000D02*
X145980150Y-100228400D01*
X145980150Y-100228400D02*
X146558000Y-100228400D01*
X106840750Y-99187000D02*
X125888750Y-99187000D01*
X125888750Y-99187000D02*
X126930150Y-100228400D01*
X126930150Y-100228400D02*
X127508000Y-100228400D01*
X87788750Y-99187000D02*
X106840750Y-99187000D01*
X106840750Y-99187000D02*
X107882150Y-100228400D01*
X107882150Y-100228400D02*
X108460000Y-100228400D01*
X68738750Y-99187000D02*
X87788750Y-99187000D01*
X87788750Y-99187000D02*
X88830150Y-100228400D01*
X88830150Y-100228400D02*
X89408000Y-100228400D01*
X49690750Y-99187000D02*
X68738750Y-99187000D01*
X68738750Y-99187000D02*
X69780150Y-100228400D01*
X69780150Y-100228400D02*
X70358000Y-100228400D01*
X49690750Y-99187000D02*
X50732150Y-100228400D01*
X50732150Y-100228400D02*
X51310000Y-100228400D01*
X29877000Y-100228400D02*
X29877000Y-99575620D01*
X29877000Y-99575620D02*
X30265620Y-99187000D01*
X89357200Y-124071380D02*
X89935050Y-124071380D01*
X89935050Y-124071380D02*
X91033600Y-122972830D01*
X91033600Y-122972830D02*
X91033600Y-119189500D01*
X91033600Y-119189500D02*
X91859100Y-118364000D01*
X91224100Y-118364000D02*
X91859100Y-118364000D01*
X91859100Y-118364000D02*
X99822750Y-118364000D01*
X76009750Y-118364000D02*
X91224100Y-118364000D01*
X91508580Y-118364000D02*
X91224100Y-118364000D01*
X52197750Y-118364000D02*
X69710300Y-118364000D01*
X70345300Y-119468900D02*
X70345300Y-118816120D01*
X69710300Y-118364000D02*
X72009000Y-118364000D01*
X70345300Y-118816120D02*
X69893180Y-118364000D01*
X69893180Y-118364000D02*
X69710300Y-118364000D01*
X30138620Y-118364000D02*
X45453300Y-118364000D01*
X45453300Y-118364000D02*
X47625000Y-118364000D01*
X46824900Y-120307100D02*
X46824900Y-119654320D01*
X46824900Y-119654320D02*
X45534580Y-118364000D01*
X45534580Y-118364000D02*
X45453300Y-118364000D01*
X129921000Y-118897400D02*
X128803400Y-118897400D01*
X128803400Y-118897400D02*
X128270000Y-118364000D01*
X99822750Y-118364000D02*
X128270000Y-118364000D01*
X25654000Y-119151400D02*
X29351220Y-119151400D01*
X29351220Y-119151400D02*
X30138620Y-118364000D01*
X68520000Y-26603000D02*
X57531000Y-37592000D01*
X69815000Y-26603000D02*
X68520000Y-26603000D01*
X57531000Y-37592000D02*
X57531000Y-38227000D01*
X49403000Y-118364000D02*
X52197750Y-118364000D01*
X72009000Y-118364000D02*
X76009750Y-118364000D01*
X47625000Y-118364000D02*
X49403000Y-118364000D01*
X98348052Y-34754676D02*
X97917000Y-34754676D01*
X120098676Y-34754676D02*
X98348052Y-34754676D01*
X121793000Y-36449000D02*
X120098676Y-34754676D01*
X137382000Y-35072482D02*
X136005482Y-36449000D01*
X137382000Y-30100000D02*
X137382000Y-35072482D01*
X136005482Y-36449000D02*
X121793000Y-36449000D01*
X82510566Y-29603000D02*
X82928967Y-29184599D01*
X81315000Y-29603000D02*
X82510566Y-29603000D01*
X82928967Y-29184599D02*
X83441033Y-29184599D01*
X83441033Y-29184599D02*
X83591400Y-29334966D01*
X83591400Y-29334966D02*
X83591400Y-30632400D01*
X72390000Y-60477410D02*
X108102410Y-60477410D01*
X108102410Y-60477410D02*
X108204000Y-60579000D01*
X114398889Y-29540201D02*
X114703688Y-29845000D01*
X114250000Y-29391312D02*
X114398889Y-29540201D01*
X114250000Y-27110000D02*
X114250000Y-29391312D01*
X109537501Y-42354501D02*
X109842300Y-42659300D01*
X105994189Y-42354501D02*
X109537501Y-42354501D01*
X104541309Y-43807381D02*
X105994189Y-42354501D01*
X103087669Y-43807381D02*
X104541309Y-43807381D01*
X101888782Y-42608494D02*
X103087669Y-43807381D01*
X86396072Y-42608494D02*
X101888782Y-42608494D01*
X84071967Y-44043599D02*
X84960967Y-44043599D01*
X83756506Y-44359060D02*
X84071967Y-44043599D01*
X84960967Y-44043599D02*
X86396072Y-42608494D01*
X83756506Y-45349164D02*
X83756506Y-44359060D01*
X78737469Y-50368201D02*
X83756506Y-45349164D01*
X69138799Y-50368201D02*
X78737469Y-50368201D01*
X68834000Y-50673000D02*
X69138799Y-50368201D01*
X72315000Y-24603000D02*
X72315000Y-27329199D01*
X72315000Y-27329199D02*
X72301100Y-27343099D01*
X80593672Y-75198876D02*
X80593672Y-75243662D01*
X84308294Y-70637392D02*
X84297022Y-70605181D01*
X84271951Y-73213804D02*
X84264664Y-73198673D01*
X84308294Y-71246992D02*
X84297022Y-71214781D01*
X80264000Y-73660000D02*
X81026000Y-74422000D01*
X83996101Y-74138229D02*
X83996101Y-73350424D01*
X85411688Y-71641889D02*
X85445601Y-71638069D01*
X81026000Y-74422000D02*
X81053923Y-74457014D01*
X85137790Y-72384871D02*
X85137790Y-72368076D01*
X85293201Y-71790469D02*
X85297021Y-71756556D01*
X84350582Y-68013717D02*
X84379478Y-67995561D01*
X83565732Y-72475738D02*
X83558137Y-72442468D01*
X81053923Y-74457014D02*
X81073355Y-74497365D01*
X86140801Y-69809269D02*
X86174713Y-69805448D01*
X81073355Y-74497365D02*
X81083321Y-74541028D01*
X81556669Y-74959761D02*
X81591685Y-74987685D01*
X84297022Y-69385981D02*
X84293201Y-69352069D01*
X81026000Y-74704842D02*
X80650993Y-75079848D01*
X81083321Y-74541028D02*
X81083321Y-74585814D01*
X81427869Y-74930363D02*
X81472655Y-74930363D01*
X83996783Y-72044687D02*
X83989188Y-72011417D01*
X84945404Y-72560462D02*
X84962199Y-72560462D01*
X86259952Y-68952249D02*
X86235820Y-68928117D01*
X81083321Y-74585814D02*
X81073355Y-74629477D01*
X84254193Y-73291608D02*
X84264664Y-73278478D01*
X84411689Y-70110248D02*
X84379478Y-70098976D01*
X84411689Y-71329448D02*
X84379478Y-71318176D01*
X80593672Y-75243662D02*
X80603638Y-75287325D01*
X84264664Y-73198673D02*
X84254193Y-73185542D01*
X80814807Y-75420012D02*
X80858470Y-75410046D01*
X84379478Y-71043561D02*
X84411689Y-71032289D01*
X81073355Y-74629477D02*
X81053923Y-74669827D01*
X86289380Y-69690781D02*
X86293201Y-69656869D01*
X80650993Y-75079848D02*
X80623070Y-75114863D01*
X80726358Y-75410046D02*
X80770021Y-75420012D01*
X86259952Y-71390649D02*
X86235820Y-71366517D01*
X81053923Y-74669827D02*
X81026000Y-74704842D01*
X84379478Y-70708576D02*
X84350582Y-70690420D01*
X80623070Y-75114863D02*
X80603638Y-75155213D01*
X83565731Y-72375070D02*
X83580538Y-72344323D01*
X85116295Y-72429506D02*
X85126766Y-72416376D01*
X86293201Y-69047269D02*
X86289380Y-69013356D01*
X80603638Y-75287325D02*
X80623070Y-75327676D01*
X84326450Y-69866649D02*
X84350582Y-69842517D01*
X83977236Y-73379573D02*
X83994031Y-73379573D01*
X80603638Y-75155213D02*
X80593672Y-75198876D01*
X84308294Y-69285945D02*
X84326450Y-69257049D01*
X86206924Y-68574976D02*
X86235820Y-68556820D01*
X81343856Y-74959761D02*
X81384206Y-74940329D01*
X83628498Y-72296365D02*
X83659245Y-72281558D01*
X86293201Y-70266469D02*
X86289380Y-70232556D01*
X84010404Y-73383310D02*
X84025536Y-73390597D01*
X84059549Y-71865314D02*
X84090296Y-71850507D01*
X84379478Y-67995561D02*
X84411689Y-67984289D01*
X80623070Y-75327676D02*
X80650993Y-75362691D01*
X83989189Y-71977289D02*
X83996782Y-71944019D01*
X84379478Y-71318176D02*
X84350582Y-71300020D01*
X84445601Y-71333269D02*
X84411689Y-71329448D01*
X80858470Y-75410046D02*
X80898820Y-75390614D01*
X84293201Y-69352069D02*
X84297022Y-69318156D01*
X80650993Y-75362691D02*
X80686007Y-75390614D01*
X85094799Y-72278804D02*
X85094799Y-72262009D01*
X86278108Y-70200345D02*
X86259952Y-70171449D01*
X80898820Y-75390614D02*
X80933835Y-75362691D01*
X80686007Y-75390614D02*
X80726358Y-75410046D01*
X84083302Y-73422564D02*
X84100097Y-73422564D01*
X84411689Y-68281448D02*
X84379478Y-68270176D01*
X84379478Y-70098976D02*
X84350582Y-70080820D01*
X84545725Y-72782542D02*
X84560532Y-72751795D01*
X84326450Y-68647449D02*
X84350582Y-68623317D01*
X85350581Y-67642420D02*
X85326449Y-67618288D01*
X86289380Y-70909981D02*
X86293201Y-70876069D01*
X81591685Y-74987685D02*
X82169000Y-75565000D01*
X86206924Y-71348361D02*
X86174713Y-71337089D01*
X84275688Y-73230178D02*
X84271951Y-73213804D01*
X86206924Y-67690761D02*
X86174713Y-67679489D01*
X86140801Y-67675669D02*
X85445601Y-67675669D01*
X85308293Y-67589392D02*
X85297021Y-67557181D01*
X80770021Y-75420012D02*
X80814807Y-75420012D01*
X86174713Y-71024648D02*
X86206924Y-71013376D01*
X84297022Y-69995581D02*
X84293201Y-69961669D01*
X80933835Y-75362691D02*
X81308841Y-74987684D01*
X84123568Y-71842912D02*
X84157694Y-71842913D01*
X86140801Y-70723669D02*
X84445601Y-70723669D01*
X84978572Y-72556725D02*
X84993704Y-72549438D01*
X81308841Y-74987684D02*
X81343856Y-74959761D01*
X84379478Y-68270176D02*
X84350582Y-68252020D01*
X84411689Y-70719848D02*
X84379478Y-70708576D01*
X81384206Y-74940329D02*
X81427869Y-74930363D01*
X81472655Y-74930363D02*
X81516318Y-74940329D01*
X83601817Y-72533167D02*
X83580539Y-72506485D01*
X84308294Y-70505145D02*
X84326450Y-70476249D01*
X81516318Y-74940329D02*
X81556669Y-74959761D01*
X84326450Y-69447088D02*
X84308294Y-69418192D01*
X84335606Y-72830501D02*
X84366353Y-72845308D01*
X84326450Y-70476249D02*
X84350582Y-70452117D01*
X82169000Y-75565000D02*
X82569330Y-75565000D01*
X82569330Y-75565000D02*
X83996101Y-74138229D01*
X85576041Y-67077959D02*
X85598000Y-67056000D01*
X84100097Y-73422564D02*
X84116470Y-73418827D01*
X85293201Y-67360799D02*
X85576041Y-67077959D01*
X84497770Y-72830500D02*
X84524450Y-72809223D01*
X84913899Y-72549438D02*
X84929031Y-72556725D01*
X84524450Y-72809223D02*
X84524448Y-72809222D01*
X86259952Y-67733049D02*
X86235820Y-67708917D01*
X84445601Y-69199669D02*
X86140801Y-69199669D01*
X83996101Y-73350424D02*
X83945731Y-73390597D01*
X83945731Y-73390597D02*
X83960863Y-73383310D01*
X83960863Y-73383310D02*
X83977236Y-73379573D01*
X84308294Y-69895545D02*
X84326450Y-69866649D01*
X84568127Y-72718523D02*
X84568126Y-72684397D01*
X84379478Y-68879776D02*
X84350582Y-68861620D01*
X84297022Y-68166781D02*
X84293201Y-68132869D01*
X84131602Y-73411540D02*
X84144733Y-73401069D01*
X85098536Y-72295177D02*
X85094799Y-72278804D01*
X83994031Y-73379573D02*
X84010404Y-73383310D01*
X85116295Y-72217373D02*
X85293201Y-72040469D01*
X84025536Y-73390597D02*
X84051797Y-73411540D01*
X84379478Y-69824361D02*
X84411689Y-69813089D01*
X84051797Y-73411540D02*
X84066929Y-73418827D01*
X84560533Y-72651125D02*
X84545726Y-72620378D01*
X86206924Y-70403776D02*
X86235820Y-70385620D01*
X84350582Y-68252020D02*
X84326450Y-68227888D01*
X86140801Y-67980469D02*
X86174713Y-67976648D01*
X84190966Y-71850506D02*
X84221713Y-71865313D01*
X86174713Y-71337089D02*
X86140801Y-71333269D01*
X84271951Y-73263346D02*
X84275688Y-73246973D01*
X83558137Y-72442468D02*
X83558138Y-72408340D01*
X84066929Y-73418827D02*
X84083302Y-73422564D01*
X84116470Y-73418827D02*
X84131602Y-73411540D01*
X84929031Y-72556725D02*
X84945404Y-72560462D01*
X84144733Y-73401069D02*
X84254193Y-73291608D01*
X84433751Y-72852902D02*
X84467023Y-72845307D01*
X84264664Y-73278478D02*
X84271951Y-73263346D01*
X86206924Y-71013376D02*
X86235820Y-70995220D01*
X84411689Y-69813089D02*
X84445601Y-69809269D01*
X84275688Y-73246973D02*
X84275688Y-73230178D01*
X84254193Y-73185542D02*
X83601817Y-72533167D01*
X86278108Y-70942192D02*
X86289380Y-70909981D01*
X83558138Y-72408340D02*
X83565731Y-72375070D01*
X86140801Y-68590069D02*
X86174713Y-68586248D01*
X86174713Y-70415048D02*
X86206924Y-70403776D01*
X83580539Y-72506485D02*
X83565732Y-72475738D01*
X84248394Y-71886591D02*
X84900769Y-72538967D01*
X86278108Y-68371545D02*
X86259952Y-68342649D01*
X86278108Y-70332592D02*
X86289380Y-70300381D01*
X83580538Y-72344323D02*
X83601817Y-72317641D01*
X83759915Y-72281557D02*
X83790662Y-72296364D01*
X83601817Y-72317641D02*
X83628498Y-72296365D01*
X83659245Y-72281558D02*
X83692517Y-72273963D01*
X83692517Y-72273963D02*
X83726643Y-72273964D01*
X83726643Y-72273964D02*
X83759915Y-72281557D01*
X86289380Y-68403756D02*
X86278108Y-68371545D01*
X83790662Y-72296364D02*
X83817343Y-72317642D01*
X86278108Y-71419545D02*
X86259952Y-71390649D01*
X85094799Y-72262009D02*
X85098536Y-72245636D01*
X86289380Y-69622956D02*
X86278108Y-69590745D01*
X83817343Y-72317642D02*
X84308924Y-72809223D01*
X84308924Y-72809223D02*
X84335606Y-72830501D01*
X84524448Y-72809222D02*
X84545725Y-72782542D01*
X84366353Y-72845308D02*
X84399625Y-72852901D01*
X86140801Y-70114069D02*
X84445601Y-70114069D01*
X83989188Y-72011417D02*
X83989189Y-71977289D01*
X84293201Y-68132869D02*
X84297022Y-68098956D01*
X84399625Y-72852901D02*
X84433751Y-72852902D01*
X84467023Y-72845307D02*
X84497770Y-72830500D01*
X85134053Y-72351702D02*
X85126766Y-72336571D01*
X84560532Y-72751795D02*
X84568127Y-72718523D01*
X84568126Y-72684397D02*
X84560533Y-72651125D01*
X84326450Y-68037849D02*
X84350582Y-68013717D01*
X84350582Y-69842517D02*
X84379478Y-69824361D01*
X84545726Y-72620378D02*
X84524448Y-72593696D01*
X84524448Y-72593696D02*
X84032868Y-72102116D01*
X86293201Y-70876069D02*
X86289380Y-70842156D01*
X84032868Y-72102116D02*
X84011590Y-72075434D01*
X83996782Y-71944019D02*
X84011589Y-71913272D01*
X84011590Y-72075434D02*
X83996783Y-72044687D01*
X85134053Y-72401244D02*
X85137790Y-72384871D01*
X84962199Y-72560462D02*
X84978572Y-72556725D01*
X84411689Y-68891048D02*
X84379478Y-68879776D01*
X86235820Y-67708917D02*
X86206924Y-67690761D01*
X84297022Y-70537356D02*
X84308294Y-70505145D01*
X84011589Y-71913272D02*
X84032868Y-71886590D01*
X84032868Y-71886590D02*
X84059549Y-71865314D01*
X86140801Y-71028469D02*
X86174713Y-71024648D01*
X84090296Y-71850507D02*
X84123568Y-71842912D01*
X85297021Y-71756556D02*
X85308293Y-71724345D01*
X84157694Y-71842913D02*
X84190966Y-71850506D01*
X84326450Y-68837488D02*
X84308294Y-68808592D01*
X84221713Y-71865313D02*
X84248394Y-71886591D01*
X84297022Y-71214781D02*
X84293201Y-71180869D01*
X84445601Y-69809269D02*
X86140801Y-69809269D01*
X84308294Y-71114745D02*
X84326450Y-71085849D01*
X84900769Y-72538967D02*
X84913899Y-72549438D01*
X84993704Y-72549438D02*
X85006835Y-72538967D01*
X84350582Y-70452117D02*
X84379478Y-70433961D01*
X85006835Y-72538967D02*
X85116295Y-72429506D01*
X85126766Y-72416376D02*
X85134053Y-72401244D01*
X85137790Y-72368076D02*
X85134053Y-72351702D01*
X85126766Y-72336571D02*
X85105823Y-72310309D01*
X84326450Y-69257049D02*
X84350582Y-69232917D01*
X85105823Y-72310309D02*
X85098536Y-72295177D01*
X85098536Y-72245636D02*
X85105823Y-72230504D01*
X85105823Y-72230504D02*
X85116295Y-72217373D01*
X84297022Y-69318156D02*
X84308294Y-69285945D01*
X85293201Y-72040469D02*
X85293201Y-71790469D01*
X84308294Y-70027792D02*
X84297022Y-69995581D01*
X85308293Y-71724345D02*
X85326449Y-71695449D01*
X86289380Y-67794156D02*
X86278108Y-67761945D01*
X86259952Y-71580688D02*
X86278108Y-71551792D01*
X85326449Y-71695449D02*
X85350581Y-71671317D01*
X85350581Y-71671317D02*
X85379477Y-71653161D01*
X85379477Y-71653161D02*
X85411688Y-71641889D01*
X85445601Y-71638069D02*
X86140801Y-71638069D01*
X86140801Y-71638069D02*
X86174713Y-71634248D01*
X86235820Y-68556820D02*
X86259952Y-68532688D01*
X86174713Y-71634248D02*
X86206924Y-71622976D01*
X86206924Y-71622976D02*
X86235820Y-71604820D01*
X86235820Y-71604820D02*
X86259952Y-71580688D01*
X86206924Y-70738761D02*
X86174713Y-70727489D01*
X86278108Y-71551792D02*
X86289380Y-71519581D01*
X86140801Y-69199669D02*
X86174713Y-69195848D01*
X84350582Y-69232917D02*
X84379478Y-69214761D01*
X86289380Y-71519581D02*
X86293201Y-71485669D01*
X85293201Y-67523269D02*
X85293201Y-67360799D01*
X86293201Y-71485669D02*
X86289380Y-71451756D01*
X86289380Y-71451756D02*
X86278108Y-71419545D01*
X86278108Y-70809945D02*
X86259952Y-70781049D01*
X86235820Y-71366517D02*
X86206924Y-71348361D01*
X85326449Y-67618288D02*
X85308293Y-67589392D01*
X86140801Y-71333269D02*
X84445601Y-71333269D01*
X84350582Y-71300020D02*
X84326450Y-71275888D01*
X84326450Y-71275888D02*
X84308294Y-71246992D01*
X86235820Y-69166420D02*
X86259952Y-69142288D01*
X84293201Y-71180869D02*
X84297022Y-71146956D01*
X84297022Y-71146956D02*
X84308294Y-71114745D01*
X84326450Y-71085849D02*
X84350582Y-71061717D01*
X84445601Y-70723669D02*
X84411689Y-70719848D01*
X84350582Y-71061717D02*
X84379478Y-71043561D01*
X84411689Y-71032289D02*
X84445601Y-71028469D01*
X86289380Y-70300381D02*
X86293201Y-70266469D01*
X84445601Y-71028469D02*
X86140801Y-71028469D01*
X86235820Y-70995220D02*
X86259952Y-70971088D01*
X84293201Y-69961669D02*
X84297022Y-69927756D01*
X86259952Y-70971088D02*
X86278108Y-70942192D01*
X86289380Y-70842156D02*
X86278108Y-70809945D01*
X86259952Y-70781049D02*
X86235820Y-70756917D01*
X86235820Y-70756917D02*
X86206924Y-70738761D01*
X86174713Y-70727489D02*
X86140801Y-70723669D01*
X86289380Y-70232556D02*
X86278108Y-70200345D01*
X84350582Y-70690420D02*
X84326450Y-70666288D01*
X84379478Y-69489376D02*
X84350582Y-69471220D01*
X84326450Y-70666288D02*
X84308294Y-70637392D01*
X86174713Y-68289089D02*
X86140801Y-68285269D01*
X84445601Y-68285269D02*
X84411689Y-68281448D01*
X84297022Y-70605181D02*
X84293201Y-70571269D01*
X86259952Y-69561849D02*
X86235820Y-69537717D01*
X84293201Y-70571269D02*
X84297022Y-70537356D01*
X84379478Y-70433961D02*
X84411689Y-70422689D01*
X84411689Y-70422689D02*
X84445601Y-70418869D01*
X86235820Y-69776020D02*
X86259952Y-69751888D01*
X84445601Y-70418869D02*
X86140801Y-70418869D01*
X84445601Y-67980469D02*
X86140801Y-67980469D01*
X86140801Y-70418869D02*
X86174713Y-70415048D01*
X86235820Y-70385620D02*
X86259952Y-70361488D01*
X86259952Y-70361488D02*
X86278108Y-70332592D01*
X86259952Y-70171449D02*
X86235820Y-70147317D01*
X86235820Y-70147317D02*
X86206924Y-70129161D01*
X86206924Y-70129161D02*
X86174713Y-70117889D01*
X84411689Y-68593889D02*
X84445601Y-68590069D01*
X86174713Y-70117889D02*
X86140801Y-70114069D01*
X86235820Y-68928117D02*
X86206924Y-68909961D01*
X84445601Y-70114069D02*
X84411689Y-70110248D01*
X84350582Y-70080820D02*
X84326450Y-70056688D01*
X84326450Y-70056688D02*
X84308294Y-70027792D01*
X84297022Y-69927756D02*
X84308294Y-69895545D01*
X86174713Y-69805448D02*
X86206924Y-69794176D01*
X86278108Y-69113392D02*
X86289380Y-69081181D01*
X86206924Y-69794176D02*
X86235820Y-69776020D01*
X86259952Y-69751888D02*
X86278108Y-69722992D01*
X86278108Y-69722992D02*
X86289380Y-69690781D01*
X86293201Y-69656869D02*
X86289380Y-69622956D01*
X86278108Y-69590745D02*
X86259952Y-69561849D01*
X86235820Y-69537717D02*
X86206924Y-69519561D01*
X86206924Y-69519561D02*
X86174713Y-69508289D01*
X86174713Y-69508289D02*
X86140801Y-69504469D01*
X84308294Y-68808592D02*
X84297022Y-68776381D01*
X86140801Y-69504469D02*
X84445601Y-69504469D01*
X84445601Y-69504469D02*
X84411689Y-69500648D01*
X84411689Y-69500648D02*
X84379478Y-69489376D01*
X84350582Y-69471220D02*
X84326450Y-69447088D01*
X84308294Y-69418192D02*
X84297022Y-69385981D01*
X84379478Y-69214761D02*
X84411689Y-69203489D01*
X84411689Y-69203489D02*
X84445601Y-69199669D01*
X86174713Y-69195848D02*
X86206924Y-69184576D01*
X86206924Y-69184576D02*
X86235820Y-69166420D01*
X86259952Y-69142288D02*
X86278108Y-69113392D01*
X86289380Y-69081181D02*
X86293201Y-69047269D01*
X86289380Y-69013356D02*
X86278108Y-68981145D01*
X86278108Y-68981145D02*
X86259952Y-68952249D01*
X86206924Y-68909961D02*
X86174713Y-68898689D01*
X86174713Y-68898689D02*
X86140801Y-68894869D01*
X86140801Y-68894869D02*
X84445601Y-68894869D01*
X84445601Y-68894869D02*
X84411689Y-68891048D01*
X84350582Y-68861620D02*
X84326450Y-68837488D01*
X84297022Y-68776381D02*
X84293201Y-68742469D01*
X84293201Y-68742469D02*
X84297022Y-68708556D01*
X84297022Y-68708556D02*
X84308294Y-68676345D01*
X84308294Y-68676345D02*
X84326450Y-68647449D01*
X84350582Y-68623317D02*
X84379478Y-68605161D01*
X84379478Y-68605161D02*
X84411689Y-68593889D01*
X84445601Y-68590069D02*
X86140801Y-68590069D01*
X86174713Y-68586248D02*
X86206924Y-68574976D01*
X86259952Y-68532688D02*
X86278108Y-68503792D01*
X86278108Y-68503792D02*
X86289380Y-68471581D01*
X86289380Y-68471581D02*
X86293201Y-68437669D01*
X86293201Y-68437669D02*
X86289380Y-68403756D01*
X86259952Y-68342649D02*
X86235820Y-68318517D01*
X86235820Y-68318517D02*
X86206924Y-68300361D01*
X86206924Y-68300361D02*
X86174713Y-68289089D01*
X86140801Y-68285269D02*
X84445601Y-68285269D01*
X84326450Y-68227888D02*
X84308294Y-68198992D01*
X84308294Y-68198992D02*
X84297022Y-68166781D01*
X84297022Y-68098956D02*
X84308294Y-68066745D01*
X84308294Y-68066745D02*
X84326450Y-68037849D01*
X84411689Y-67984289D02*
X84445601Y-67980469D01*
X86174713Y-67976648D02*
X86206924Y-67965376D01*
X86206924Y-67965376D02*
X86235820Y-67947220D01*
X86235820Y-67947220D02*
X86259952Y-67923088D01*
X86259952Y-67923088D02*
X86278108Y-67894192D01*
X86278108Y-67894192D02*
X86289380Y-67861981D01*
X86289380Y-67861981D02*
X86293201Y-67828069D01*
X86293201Y-67828069D02*
X86289380Y-67794156D01*
X86278108Y-67761945D02*
X86259952Y-67733049D01*
X86174713Y-67679489D02*
X86140801Y-67675669D01*
X85445601Y-67675669D02*
X85411688Y-67671848D01*
X85411688Y-67671848D02*
X85379477Y-67660576D01*
X85379477Y-67660576D02*
X85350581Y-67642420D01*
X85297021Y-67557181D02*
X85293201Y-67523269D01*
X81407000Y-44221410D02*
X76428590Y-44221410D01*
X76428590Y-44221410D02*
X75184000Y-45466000D01*
X69815000Y-29103000D02*
X71627055Y-29103000D01*
X71627055Y-29103000D02*
X71647055Y-29083000D01*
X78384400Y-34264600D02*
X78315000Y-34334000D01*
X78315000Y-34334000D02*
X78315000Y-34910170D01*
X78315000Y-34910170D02*
X78315000Y-36103000D01*
X48233518Y-31328000D02*
X47512518Y-30607000D01*
X46355000Y-28956000D02*
X46355000Y-29081000D01*
X46355000Y-29081000D02*
X47512518Y-30238518D01*
X47512518Y-30238518D02*
X47512518Y-30607000D01*
X48910000Y-31328000D02*
X48233518Y-31328000D01*
X78105000Y-38481000D02*
X78409799Y-38176201D01*
X78409799Y-36197799D02*
X78315000Y-36103000D01*
X78409799Y-38176201D02*
X78409799Y-36197799D01*
X86741000Y-65024000D02*
X88138000Y-63627000D01*
X88138000Y-63627000D02*
X88138000Y-63500000D01*
X48910000Y-31328000D02*
X50327200Y-31328000D01*
X50327200Y-31328000D02*
X50571400Y-31572200D01*
X71424800Y-30835600D02*
X71424800Y-30149800D01*
X71424800Y-30149800D02*
X72491600Y-29083000D01*
X77815000Y-36103000D02*
X77693601Y-35981601D01*
X77693601Y-35170119D02*
X77597000Y-35073518D01*
X77569362Y-34994534D02*
X77574167Y-34973481D01*
X77693601Y-35981601D02*
X77693601Y-35170119D01*
X77597000Y-35073518D02*
X77583536Y-35056635D01*
X77583536Y-35056635D02*
X77574167Y-35037180D01*
X77574167Y-35037180D02*
X77569362Y-35016127D01*
X77619833Y-34900804D02*
X77624638Y-34879752D01*
X77610464Y-34920259D02*
X77619833Y-34900804D01*
X77624638Y-34879752D02*
X77624638Y-34858158D01*
X77569362Y-35016127D02*
X77569362Y-34994534D01*
X77574167Y-34973481D02*
X77583536Y-34954026D01*
X77583536Y-34954026D02*
X77610464Y-34920259D01*
X74244201Y-32969199D02*
X73837800Y-33375600D01*
X77619833Y-34837106D02*
X77610464Y-34817650D01*
X77245098Y-34721615D02*
X77165947Y-34642465D01*
X77624638Y-34858158D02*
X77619833Y-34837106D01*
X77610464Y-34817650D02*
X77597000Y-34800768D01*
X77281436Y-34744448D02*
X77261980Y-34735079D01*
X77261980Y-34735079D02*
X77245098Y-34721615D01*
X77597000Y-34800768D02*
X77517847Y-34721615D01*
X77517847Y-34721615D02*
X77500965Y-34708152D01*
X77460457Y-34693978D02*
X77438864Y-34693978D01*
X77481510Y-34698783D02*
X77460457Y-34693978D01*
X77500965Y-34708152D02*
X77481510Y-34698783D01*
X77438864Y-34693978D02*
X77417811Y-34698783D01*
X77417811Y-34698783D02*
X77398356Y-34708152D01*
X77398356Y-34708152D02*
X77364589Y-34735079D01*
X77364589Y-34735079D02*
X77345134Y-34744448D01*
X77165947Y-34642465D02*
X75492681Y-32969199D01*
X77345134Y-34744448D02*
X77324082Y-34749253D01*
X77324082Y-34749253D02*
X77302488Y-34749253D01*
X77302488Y-34749253D02*
X77281436Y-34744448D01*
X75492681Y-32969199D02*
X74244201Y-32969199D01*
X46339000Y-30750000D02*
X46339000Y-30734000D01*
X44958000Y-32131000D02*
X46339000Y-30750000D01*
X44958000Y-33655000D02*
X44958000Y-32131000D01*
X45085000Y-33782000D02*
X44958000Y-33655000D01*
X48910000Y-31978000D02*
X47566000Y-31978000D01*
X47566000Y-31978000D02*
X46347000Y-30759000D01*
X46347000Y-30759000D02*
X46347000Y-30734000D01*
X76475959Y-38713045D02*
X76454000Y-38735004D01*
X77815000Y-37374004D02*
X76475959Y-38713045D01*
X77815000Y-36103000D02*
X77815000Y-37374004D01*
X86817199Y-63804799D02*
X87121998Y-63500000D01*
X85775799Y-64846199D02*
X86817199Y-63804799D01*
X85471000Y-65151000D02*
X85775799Y-64846199D01*
X56500000Y-27428000D02*
X57408629Y-27428000D01*
X57408629Y-27428000D02*
X58037600Y-26799029D01*
X58037600Y-26799029D02*
X58037600Y-26685400D01*
X58037600Y-26685400D02*
X58690000Y-26033000D01*
X58690000Y-26033000D02*
X58690000Y-25908000D01*
X59562996Y-24892000D02*
X59562996Y-25035004D01*
X59562996Y-25035004D02*
X58690000Y-25908000D01*
X76315000Y-36103000D02*
X76315000Y-35141600D01*
X76315000Y-35141600D02*
X74676000Y-33502600D01*
X66802000Y-37830000D02*
X64754000Y-37830000D01*
X64754000Y-37830000D02*
X63754000Y-36830000D01*
X64500000Y-37576000D02*
X63754000Y-36830000D01*
X65937723Y-69087720D02*
X65966619Y-69069564D01*
X67571558Y-62757334D02*
X67580311Y-62750353D01*
X65905512Y-67879792D02*
X65937723Y-67868520D01*
X65142487Y-65746192D02*
X65110276Y-65734920D01*
X65024000Y-72303213D02*
X65027820Y-72269300D01*
X67580311Y-62750353D02*
X67590399Y-62745495D01*
X66008907Y-71932289D02*
X65990751Y-71903393D01*
X66020179Y-71964500D02*
X66008907Y-71932289D01*
X65937723Y-69422705D02*
X65905512Y-69411433D01*
X65905512Y-66050992D02*
X65937723Y-66039720D01*
X65871600Y-66054813D02*
X65905512Y-66050992D01*
X66008907Y-71454936D02*
X66020179Y-71422725D01*
X66020179Y-68374725D02*
X66024000Y-68340813D01*
X67590399Y-62745495D02*
X67601315Y-62743003D01*
X65258203Y-65092032D02*
X65291474Y-65084438D01*
X64039093Y-70540536D02*
X64027821Y-70508325D01*
X65024000Y-73660000D02*
X65024000Y-72303213D01*
X66648927Y-62265753D02*
X66675608Y-62244477D01*
X66008907Y-72064536D02*
X66020179Y-72032325D01*
X64110277Y-70337105D02*
X64142488Y-70325833D01*
X66497031Y-65224730D02*
X66527778Y-65209923D01*
X66463760Y-65232324D02*
X66497031Y-65224730D01*
X65081380Y-72184061D02*
X65110276Y-72165905D01*
X65990751Y-68855393D02*
X65966619Y-68831261D01*
X67864774Y-62603764D02*
X67869632Y-62593677D01*
X64110277Y-71830920D02*
X64081381Y-71812764D01*
X65027820Y-72269300D02*
X65039092Y-72237089D01*
X64057249Y-71788632D02*
X64039093Y-71759736D01*
X64110277Y-68508305D02*
X64142488Y-68497033D01*
X64142488Y-70325833D02*
X64176400Y-70322013D01*
X65966619Y-67850364D02*
X65990751Y-67826232D01*
X64176400Y-71846013D02*
X64142488Y-71842192D01*
X64139093Y-67360289D02*
X64157249Y-67331393D01*
X64157249Y-67331393D02*
X64181381Y-67307261D01*
X64039093Y-71759736D02*
X64027821Y-71727525D01*
X65039092Y-72237089D02*
X65057248Y-72208193D01*
X64124000Y-67426413D02*
X64127821Y-67392500D01*
X65176400Y-72150813D02*
X65871600Y-72150813D01*
X64081381Y-71574461D02*
X64110277Y-71556305D01*
X65905512Y-68489392D02*
X65937723Y-68478120D01*
X65057248Y-72208193D02*
X65081380Y-72184061D01*
X65024000Y-65597613D02*
X65024000Y-65304892D01*
X65110276Y-72165905D02*
X65142487Y-72154633D01*
X64039093Y-71627489D02*
X64057249Y-71598593D01*
X65966619Y-71269661D02*
X65937723Y-71251505D01*
X66985510Y-64542067D02*
X65786824Y-63343382D01*
X65905512Y-70927792D02*
X65937723Y-70916520D01*
X65871600Y-67883613D02*
X65905512Y-67879792D01*
X64081381Y-69983964D02*
X64057249Y-69959832D01*
X65142487Y-72154633D02*
X65176400Y-72150813D01*
X64081381Y-70355261D02*
X64110277Y-70337105D01*
X66008907Y-67187736D02*
X66020179Y-67155525D01*
X66020179Y-67155525D02*
X66024000Y-67121613D01*
X64039093Y-69798689D02*
X64057249Y-69769793D01*
X67683221Y-62771664D02*
X67694137Y-62769172D01*
X65765546Y-63316700D02*
X65750739Y-63285953D01*
X64027821Y-69898725D02*
X64024000Y-69864813D01*
X64027821Y-69289125D02*
X64024000Y-69255213D01*
X65871600Y-71541213D02*
X65905512Y-71537392D01*
X65871600Y-68798013D02*
X64176400Y-68798013D01*
X65871600Y-72150813D02*
X65905512Y-72146992D01*
X65966619Y-71507964D02*
X65990751Y-71483832D01*
X65937723Y-71526120D02*
X65966619Y-71507964D01*
X66008907Y-67665089D02*
X65990751Y-67636193D01*
X65905512Y-72146992D02*
X65937723Y-72135720D01*
X65369849Y-63783108D02*
X65355042Y-63752361D01*
X65391128Y-63809788D02*
X65369849Y-63783108D01*
X66554459Y-64973118D02*
X65391128Y-63809788D01*
X65937723Y-72135720D02*
X65966619Y-72117564D01*
X65966619Y-72117564D02*
X65990751Y-72093432D01*
X65990751Y-69655032D02*
X66008907Y-69626136D01*
X65871600Y-65750013D02*
X65176400Y-65750013D01*
X64081381Y-71812764D02*
X64057249Y-71788632D01*
X66217876Y-62696804D02*
X66244557Y-62675528D01*
X65990751Y-72093432D02*
X66008907Y-72064536D01*
X64127821Y-67392500D02*
X64139093Y-67360289D01*
X66406721Y-62675527D02*
X66433402Y-62696805D01*
X66375974Y-62660720D02*
X66406721Y-62675527D01*
X66008907Y-70845336D02*
X66020179Y-70813125D01*
X65990751Y-70874232D02*
X66008907Y-70845336D01*
X65937723Y-67868520D02*
X65966619Y-67850364D01*
X66174196Y-62821631D02*
X66174197Y-62787503D01*
X64276400Y-67274013D02*
X65871600Y-67274013D01*
X66020179Y-72032325D02*
X66024000Y-71998413D01*
X65937723Y-66374705D02*
X65905512Y-66363433D01*
X64039093Y-71017889D02*
X64057249Y-70988993D01*
X66024000Y-71998413D02*
X66020179Y-71964500D01*
X65990751Y-70264632D02*
X66008907Y-70235736D01*
X64057249Y-71598593D02*
X64081381Y-71574461D01*
X64057249Y-68740632D02*
X64039093Y-68711736D01*
X64039093Y-68711736D02*
X64027821Y-68679525D01*
X65990751Y-71903393D02*
X65966619Y-71879261D01*
X64027821Y-71117925D02*
X64024000Y-71084013D01*
X67169803Y-63885602D02*
X67154996Y-63854855D01*
X65905512Y-69411433D02*
X65871600Y-69407613D01*
X65966619Y-71879261D02*
X65937723Y-71861105D01*
X65990751Y-67826232D02*
X66008907Y-67797336D01*
X65937723Y-71861105D02*
X65905512Y-71849833D01*
X65871600Y-71846013D02*
X64176400Y-71846013D01*
X65905512Y-71849833D02*
X65871600Y-71846013D01*
X64142488Y-71842192D02*
X64110277Y-71830920D01*
X64110277Y-71221320D02*
X64081381Y-71203164D01*
X64081381Y-71203164D02*
X64057249Y-71179032D01*
X64142488Y-71232592D02*
X64110277Y-71221320D01*
X66958829Y-64778872D02*
X66985510Y-64757594D01*
X64027821Y-71727525D02*
X64024000Y-71693613D01*
X65937723Y-69697320D02*
X65966619Y-69679164D01*
X64507249Y-66302232D02*
X64489093Y-66273336D01*
X64531381Y-66326364D02*
X64507249Y-66302232D01*
X64024000Y-71693613D02*
X64027821Y-71659700D01*
X64081381Y-68526461D02*
X64110277Y-68508305D01*
X68145729Y-62183166D02*
X68441798Y-61887094D01*
X65937723Y-70032305D02*
X65905512Y-70021033D01*
X65966619Y-70050461D02*
X65937723Y-70032305D01*
X65990751Y-70074593D02*
X65966619Y-70050461D01*
X64057249Y-70988993D02*
X64081381Y-70964861D01*
X64027821Y-71659700D02*
X64039093Y-71627489D01*
X65325601Y-65084438D02*
X65358872Y-65092032D01*
X65990751Y-71293793D02*
X65966619Y-71269661D01*
X64110277Y-71556305D02*
X64142488Y-71545033D01*
X67857793Y-62541807D02*
X67470583Y-62154597D01*
X64142488Y-71545033D02*
X64176400Y-71541213D01*
X64176400Y-71541213D02*
X65871600Y-71541213D01*
X65643799Y-65274467D02*
X65677070Y-65266873D01*
X65905512Y-71537392D02*
X65937723Y-71526120D01*
X65905512Y-69098992D02*
X65937723Y-69087720D01*
X65990751Y-71483832D02*
X66008907Y-71454936D01*
X65990751Y-68435832D02*
X66008907Y-68406936D01*
X66020179Y-71422725D02*
X66024000Y-71388813D01*
X66024000Y-71388813D02*
X66020179Y-71354900D01*
X66024000Y-68340813D02*
X66020179Y-68306900D01*
X66020179Y-71354900D02*
X66008907Y-71322689D01*
X66008907Y-71322689D02*
X65990751Y-71293793D01*
X66008907Y-68274689D02*
X65990751Y-68245793D01*
X65937723Y-71251505D02*
X65905512Y-71240233D01*
X65905512Y-71240233D02*
X65871600Y-71236413D01*
X65871600Y-71236413D02*
X64176400Y-71236413D01*
X65576401Y-65266873D02*
X65609672Y-65274467D01*
X64176400Y-71236413D02*
X64142488Y-71232592D01*
X67008892Y-64087379D02*
X67043019Y-64087379D01*
X64057249Y-71179032D02*
X64039093Y-71150136D01*
X64039093Y-71150136D02*
X64027821Y-71117925D01*
X65990751Y-66416993D02*
X65966619Y-66392861D01*
X64027821Y-71050100D02*
X64039093Y-71017889D01*
X64027821Y-68069925D02*
X64024000Y-68036013D01*
X64024000Y-71084013D02*
X64027821Y-71050100D01*
X64176400Y-69712413D02*
X65871600Y-69712413D01*
X65778177Y-65140088D02*
X65778177Y-65105961D01*
X65770583Y-65173359D02*
X65778177Y-65140088D01*
X65755776Y-65204106D02*
X65770583Y-65173359D01*
X64110277Y-67898705D02*
X64142488Y-67887433D01*
X64081381Y-70964861D02*
X64110277Y-70946705D01*
X65458446Y-64308157D02*
X66338933Y-65188645D01*
X64142488Y-70935433D02*
X64176400Y-70931613D01*
X64110277Y-70946705D02*
X64142488Y-70935433D01*
X64176400Y-70931613D02*
X65871600Y-70931613D01*
X64142488Y-69403792D02*
X64110277Y-69392520D01*
X65937723Y-70306920D02*
X65966619Y-70288764D01*
X65905512Y-70318192D02*
X65937723Y-70306920D01*
X65871600Y-70322013D02*
X65905512Y-70318192D01*
X64057249Y-69350232D02*
X64039093Y-69321336D01*
X66769984Y-64757594D02*
X66796666Y-64778872D01*
X65606654Y-63594263D02*
X66769984Y-64757594D01*
X65871600Y-70931613D02*
X65905512Y-70927792D01*
X65990751Y-70684193D02*
X65966619Y-70660061D01*
X65333620Y-64264478D02*
X65367746Y-64264479D01*
X67869632Y-62560649D02*
X67864774Y-62550561D01*
X64242488Y-67574992D02*
X64210277Y-67563720D01*
X64081381Y-67916861D02*
X64110277Y-67898705D01*
X65966619Y-70898364D02*
X65990751Y-70874232D01*
X65937723Y-70916520D02*
X65966619Y-70898364D01*
X64039093Y-69321336D02*
X64027821Y-69289125D01*
X65448556Y-63558179D02*
X65481828Y-63550584D01*
X66020179Y-70813125D02*
X66024000Y-70779213D01*
X66008907Y-70713089D02*
X65990751Y-70684193D01*
X64142488Y-69716233D02*
X64176400Y-69712413D01*
X64027821Y-69830900D02*
X64039093Y-69798689D01*
X66275304Y-62660721D02*
X66308576Y-62653126D01*
X66020179Y-70745300D02*
X66008907Y-70713089D01*
X66024000Y-70779213D02*
X66020179Y-70745300D01*
X67318980Y-63292753D02*
X67332942Y-63275245D01*
X65905512Y-70630633D02*
X65871600Y-70626813D01*
X65937723Y-70641905D02*
X65905512Y-70630633D01*
X65966619Y-70660061D02*
X65937723Y-70641905D01*
X64176400Y-70626813D02*
X64142488Y-70622992D01*
X65871600Y-70626813D02*
X64176400Y-70626813D01*
X64142488Y-70622992D02*
X64110277Y-70611720D01*
X66598137Y-65063818D02*
X66590543Y-65030547D01*
X64024000Y-70474413D02*
X64027821Y-70440500D01*
X65966619Y-67612061D02*
X65937723Y-67593905D01*
X64081381Y-70593564D02*
X64057249Y-70569432D01*
X64110277Y-70611720D02*
X64081381Y-70593564D01*
X64057249Y-70569432D02*
X64039093Y-70540536D01*
X64176400Y-67883613D02*
X65871600Y-67883613D01*
X64027821Y-70508325D02*
X64024000Y-70474413D01*
X64027821Y-70440500D02*
X64039093Y-70408289D01*
X64039093Y-70408289D02*
X64057249Y-70379393D01*
X64057249Y-70379393D02*
X64081381Y-70355261D01*
X66020179Y-70203525D02*
X66024000Y-70169613D01*
X64176400Y-70322013D02*
X65871600Y-70322013D01*
X64181381Y-67307261D02*
X64210277Y-67289105D01*
X64210277Y-67289105D02*
X64242488Y-67277833D01*
X64057249Y-69959832D02*
X64039093Y-69930936D01*
X65966619Y-70288764D02*
X65990751Y-70264632D01*
X66008907Y-70235736D02*
X66020179Y-70203525D01*
X66020179Y-70135700D02*
X66008907Y-70103489D01*
X66024000Y-70169613D02*
X66020179Y-70135700D01*
X66796666Y-64778872D02*
X66827413Y-64793679D01*
X66008907Y-68406936D02*
X66020179Y-68374725D01*
X64210277Y-67563720D02*
X64181381Y-67545564D01*
X64039093Y-69930936D02*
X64027821Y-69898725D01*
X66008907Y-70103489D02*
X65990751Y-70074593D01*
X65871600Y-67578813D02*
X64276400Y-67578813D01*
X65905512Y-70021033D02*
X65871600Y-70017213D01*
X64027821Y-69221300D02*
X64039093Y-69189089D01*
X65990751Y-67216632D02*
X66008907Y-67187736D01*
X65905512Y-68192233D02*
X65871600Y-68188413D01*
X65871600Y-68188413D02*
X64176400Y-68188413D01*
X65786824Y-63127856D02*
X65813505Y-63106580D01*
X65765545Y-63154538D02*
X65786824Y-63127856D01*
X65750738Y-63185285D02*
X65765545Y-63154538D01*
X64027821Y-68002100D02*
X64039093Y-67969889D01*
X66605247Y-62390580D02*
X66605248Y-62356452D01*
X65871600Y-70017213D02*
X64176400Y-70017213D01*
X64176400Y-70017213D02*
X64142488Y-70013392D01*
X67154996Y-63854855D02*
X67133719Y-63828173D01*
X64439093Y-66750689D02*
X64457249Y-66721793D01*
X64427821Y-66782900D02*
X64439093Y-66750689D01*
X66008907Y-66578136D02*
X66020179Y-66545925D01*
X64439093Y-66882936D02*
X64427821Y-66850725D01*
X64142488Y-70013392D02*
X64110277Y-70002120D01*
X64110277Y-70002120D02*
X64081381Y-69983964D01*
X64024000Y-69864813D02*
X64027821Y-69830900D01*
X64057249Y-69769793D02*
X64081381Y-69745661D01*
X64110277Y-69727505D02*
X64142488Y-69716233D01*
X66598137Y-65097945D02*
X66598137Y-65063818D01*
X66590543Y-65131216D02*
X66598137Y-65097945D01*
X65743145Y-63218555D02*
X65750738Y-63185285D01*
X64024000Y-68645613D02*
X64027821Y-68611700D01*
X64027821Y-68611700D02*
X64039093Y-68579489D01*
X64081381Y-69745661D02*
X64110277Y-69727505D01*
X64542488Y-66668233D02*
X64576400Y-66664413D01*
X65871600Y-69712413D02*
X65905512Y-69708592D01*
X65966619Y-67240764D02*
X65990751Y-67216632D01*
X65355042Y-63752361D02*
X65347448Y-63719089D01*
X65905512Y-69708592D02*
X65937723Y-69697320D01*
X65966619Y-69679164D02*
X65990751Y-69655032D01*
X65481828Y-63550584D02*
X65515954Y-63550585D01*
X66008907Y-69626136D02*
X66020179Y-69593925D01*
X67120962Y-63380820D02*
X67141137Y-63390536D01*
X64039093Y-69189089D02*
X64057249Y-69160193D01*
X64057249Y-69160193D02*
X64081381Y-69136061D01*
X66020179Y-69593925D02*
X66024000Y-69560013D01*
X66024000Y-69560013D02*
X66020179Y-69526100D01*
X66020179Y-69526100D02*
X66008907Y-69493889D01*
X66008907Y-69493889D02*
X65990751Y-69464993D01*
X65355043Y-63651691D02*
X65369849Y-63620944D01*
X65990751Y-69464993D02*
X65966619Y-69440861D01*
X66648927Y-62481279D02*
X66627649Y-62454597D01*
X65966619Y-69440861D02*
X65937723Y-69422705D01*
X65871600Y-69407613D02*
X64176400Y-69407613D01*
X64176400Y-69407613D02*
X64142488Y-69403792D01*
X64157249Y-67521432D02*
X64139093Y-67492536D01*
X67177397Y-63918873D02*
X67169803Y-63885602D01*
X66918192Y-64043700D02*
X66944874Y-64064978D01*
X64110277Y-69392520D02*
X64081381Y-69374364D01*
X64081381Y-69374364D02*
X64057249Y-69350232D01*
X64024000Y-69255213D02*
X64027821Y-69221300D01*
X64181381Y-67545564D02*
X64157249Y-67521432D01*
X64081381Y-69136061D02*
X64110277Y-69117905D01*
X64110277Y-69117905D02*
X64142488Y-69106633D01*
X64142488Y-69106633D02*
X64176400Y-69102813D01*
X65905512Y-66660592D02*
X65937723Y-66649320D01*
X65871600Y-66664413D02*
X65905512Y-66660592D01*
X64176400Y-69102813D02*
X65871600Y-69102813D01*
X65734499Y-65015261D02*
X65242920Y-64523682D01*
X65176400Y-65750013D02*
X65142487Y-65746192D01*
X65871600Y-69102813D02*
X65905512Y-69098992D01*
X65937723Y-66984305D02*
X65905512Y-66973033D01*
X65990751Y-66607032D02*
X66008907Y-66578136D01*
X65966619Y-69069564D02*
X65990751Y-69045432D01*
X65990751Y-69045432D02*
X66008907Y-69016536D01*
X66008907Y-69016536D02*
X66020179Y-68984325D01*
X65905512Y-65753833D02*
X65871600Y-65750013D01*
X65990751Y-68245793D02*
X65966619Y-68221661D01*
X65966619Y-68221661D02*
X65937723Y-68203505D01*
X66020179Y-68984325D02*
X66024000Y-68950413D01*
X66308576Y-62653126D02*
X66342702Y-62653127D01*
X66024000Y-68950413D02*
X66020179Y-68916500D01*
X66020179Y-68916500D02*
X66008907Y-68884289D01*
X66008907Y-68884289D02*
X65990751Y-68855393D01*
X64510277Y-66954120D02*
X64481381Y-66935964D01*
X65966619Y-68831261D02*
X65937723Y-68813105D01*
X66612841Y-62323182D02*
X66627648Y-62292435D01*
X67227368Y-63380820D02*
X67244876Y-63366858D01*
X67207193Y-63390536D02*
X67227368Y-63380820D01*
X65937723Y-68813105D02*
X65905512Y-68801833D01*
X65905512Y-68801833D02*
X65871600Y-68798013D01*
X65291474Y-65084438D02*
X65325601Y-65084438D01*
X64176400Y-68798013D02*
X64142488Y-68794192D01*
X64531381Y-66088061D02*
X64560277Y-66069905D01*
X64142488Y-68794192D02*
X64110277Y-68782920D01*
X66002350Y-63127857D02*
X66918192Y-64043700D01*
X64110277Y-68782920D02*
X64081381Y-68764764D01*
X64081381Y-68764764D02*
X64057249Y-68740632D01*
X64027821Y-68679525D02*
X64024000Y-68645613D01*
X64039093Y-68579489D02*
X64057249Y-68550593D01*
X64057249Y-68550593D02*
X64081381Y-68526461D01*
X64142488Y-68497033D02*
X64176400Y-68493213D01*
X66196598Y-62885648D02*
X66181791Y-62854901D01*
X64176400Y-68493213D02*
X65871600Y-68493213D01*
X65871600Y-68493213D02*
X65905512Y-68489392D01*
X65937723Y-68478120D02*
X65966619Y-68459964D01*
X65966619Y-68459964D02*
X65990751Y-68435832D01*
X66739627Y-62222075D02*
X66773753Y-62222076D01*
X66020179Y-68306900D02*
X66008907Y-68274689D01*
X65905512Y-66973033D02*
X65871600Y-66969213D01*
X65937723Y-68203505D02*
X65905512Y-68192233D01*
X64176400Y-68188413D02*
X64142488Y-68184592D01*
X67449304Y-62127917D02*
X67434497Y-62097170D01*
X66196597Y-62723486D02*
X66217876Y-62696804D01*
X64142488Y-68184592D02*
X64110277Y-68173320D01*
X64110277Y-68173320D02*
X64081381Y-68155164D01*
X64081381Y-68155164D02*
X64057249Y-68131032D01*
X64242488Y-67277833D02*
X64276400Y-67274013D01*
X64057249Y-68131032D02*
X64039093Y-68102136D01*
X64477821Y-66241125D02*
X64474000Y-66207213D01*
X64039093Y-68102136D02*
X64027821Y-68069925D01*
X64024000Y-68036013D02*
X64027821Y-68002100D01*
X64039093Y-67969889D02*
X64057249Y-67940993D01*
X66675608Y-62244477D02*
X66706355Y-62229670D01*
X64057249Y-67940993D02*
X64081381Y-67916861D01*
X64142488Y-67887433D02*
X64176400Y-67883613D01*
X66008907Y-67797336D02*
X66020179Y-67765125D01*
X66020179Y-67765125D02*
X66024000Y-67731213D01*
X67076290Y-64079785D02*
X67107037Y-64064978D01*
X66024000Y-67731213D02*
X66020179Y-67697300D01*
X66020179Y-67697300D02*
X66008907Y-67665089D01*
X65990751Y-67636193D02*
X65966619Y-67612061D01*
X65937723Y-67593905D02*
X65905512Y-67582633D01*
X65905512Y-67582633D02*
X65871600Y-67578813D01*
X65707817Y-65252066D02*
X65734499Y-65230788D01*
X64276400Y-67578813D02*
X64242488Y-67574992D01*
X65975669Y-63106579D02*
X66002350Y-63127857D01*
X64626400Y-66054813D02*
X65871600Y-66054813D01*
X64592488Y-66058633D02*
X64626400Y-66054813D01*
X64139093Y-67492536D02*
X64127821Y-67460325D01*
X64127821Y-67460325D02*
X64124000Y-67426413D01*
X65871600Y-67274013D02*
X65905512Y-67270192D01*
X65905512Y-67270192D02*
X65937723Y-67258920D01*
X65937723Y-67258920D02*
X65966619Y-67240764D01*
X66024000Y-67121613D02*
X66020179Y-67087700D01*
X66827413Y-64793679D02*
X66860684Y-64801273D01*
X66008907Y-67055489D02*
X65990751Y-67026593D01*
X66020179Y-67087700D02*
X66008907Y-67055489D01*
X65990751Y-67026593D02*
X65966619Y-67002461D01*
X65966619Y-67002461D02*
X65937723Y-66984305D01*
X65750739Y-63285953D02*
X65743144Y-63252683D01*
X65871600Y-66969213D02*
X64576400Y-66969213D01*
X64542488Y-66965392D02*
X64510277Y-66954120D01*
X64576400Y-66969213D02*
X64542488Y-66965392D01*
X64457249Y-66911832D02*
X64439093Y-66882936D01*
X64481381Y-66935964D02*
X64457249Y-66911832D01*
X64427821Y-66850725D02*
X64424000Y-66816813D01*
X64424000Y-66816813D02*
X64427821Y-66782900D01*
X64457249Y-66721793D02*
X64481381Y-66697661D01*
X64481381Y-66697661D02*
X64510277Y-66679505D01*
X65221642Y-64497000D02*
X65206835Y-64466253D01*
X64510277Y-66679505D02*
X64542488Y-66668233D01*
X64576400Y-66664413D02*
X65871600Y-66664413D01*
X65966619Y-66631164D02*
X65990751Y-66607032D01*
X65937723Y-66649320D02*
X65966619Y-66631164D01*
X66020179Y-66545925D02*
X66024000Y-66512013D01*
X66024000Y-66512013D02*
X66020179Y-66478100D01*
X66008907Y-66445889D02*
X65990751Y-66416993D01*
X66020179Y-66478100D02*
X66008907Y-66445889D01*
X65966619Y-66392861D02*
X65937723Y-66374705D01*
X65905512Y-66363433D02*
X65871600Y-66359613D01*
X65871600Y-66359613D02*
X64626400Y-66359613D01*
X64626400Y-66359613D02*
X64592488Y-66355792D01*
X67672025Y-62771664D02*
X67683221Y-62771664D01*
X64592488Y-66355792D02*
X64560277Y-66344520D01*
X67356034Y-62757335D02*
X67382716Y-62778613D01*
X64560277Y-66344520D02*
X64531381Y-66326364D01*
X64489093Y-66273336D02*
X64477821Y-66241125D01*
X64474000Y-66207213D02*
X64477821Y-66173300D01*
X64477821Y-66173300D02*
X64489093Y-66141089D01*
X64507249Y-66112193D02*
X64531381Y-66088061D01*
X64489093Y-66141089D02*
X64507249Y-66112193D01*
X64560277Y-66069905D02*
X64592488Y-66058633D01*
X65937723Y-66039720D02*
X65966619Y-66021564D01*
X65966619Y-66021564D02*
X65990751Y-65997432D01*
X65990751Y-65997432D02*
X66008907Y-65968536D01*
X66008907Y-65968536D02*
X66020179Y-65936325D01*
X66020179Y-65936325D02*
X66024000Y-65902413D01*
X66024000Y-65902413D02*
X66020179Y-65868500D01*
X66020179Y-65868500D02*
X66008907Y-65836289D01*
X65743144Y-63252683D02*
X65743145Y-63218555D01*
X66008907Y-65836289D02*
X65990751Y-65807393D01*
X65990751Y-65807393D02*
X65966619Y-65783261D01*
X65966619Y-65783261D02*
X65937723Y-65765105D01*
X65579973Y-63572985D02*
X65606654Y-63594263D01*
X65937723Y-65765105D02*
X65905512Y-65753833D01*
X65110276Y-65734920D02*
X65081380Y-65716764D01*
X65057248Y-65692632D02*
X65039092Y-65663736D01*
X65081380Y-65716764D02*
X65057248Y-65692632D01*
X65039092Y-65663736D02*
X65027820Y-65631525D01*
X65027820Y-65631525D02*
X65024000Y-65597613D01*
X65024000Y-65304892D02*
X65200775Y-65128117D01*
X65227456Y-65106839D02*
X65258203Y-65092032D01*
X65200775Y-65128117D02*
X65227456Y-65106839D01*
X67029188Y-64632767D02*
X67021594Y-64599496D01*
X65358872Y-65092032D02*
X65389619Y-65106839D01*
X67651021Y-62764314D02*
X67661109Y-62769172D01*
X65389619Y-65106839D02*
X65416301Y-65128117D01*
X65416301Y-65128117D02*
X65518972Y-65230788D01*
X65518972Y-65230788D02*
X65545654Y-65252066D01*
X65545654Y-65252066D02*
X65576401Y-65266873D01*
X65609672Y-65274467D02*
X65643799Y-65274467D01*
X65677070Y-65266873D02*
X65707817Y-65252066D01*
X65734499Y-65230788D02*
X65755776Y-65204106D01*
X65300348Y-64272073D02*
X65333620Y-64264478D01*
X65755776Y-65041943D02*
X65734499Y-65015261D01*
X65770583Y-65072690D02*
X65755776Y-65041943D01*
X65778177Y-65105961D02*
X65770583Y-65072690D01*
X65242920Y-64523682D02*
X65221642Y-64497000D01*
X67169803Y-63986271D02*
X67177397Y-63953000D01*
X65199240Y-64432983D02*
X65199241Y-64398855D01*
X65206835Y-64466253D02*
X65199240Y-64432983D01*
X65199241Y-64398855D02*
X65206834Y-64365585D01*
X68020903Y-62226843D02*
X68055029Y-62226844D01*
X68055029Y-62226844D02*
X68088300Y-62219251D01*
X65221641Y-64334838D02*
X65242920Y-64308156D01*
X65206834Y-64365585D02*
X65221641Y-64334838D01*
X65269601Y-64286880D02*
X65300348Y-64272073D01*
X65242920Y-64308156D02*
X65269601Y-64286880D01*
X65367746Y-64264479D02*
X65401018Y-64272072D01*
X66575736Y-65161963D02*
X66590543Y-65131216D01*
X66554459Y-65188645D02*
X66575736Y-65161963D01*
X65431765Y-64286879D02*
X65458446Y-64308157D01*
X65401018Y-64272072D02*
X65431765Y-64286879D01*
X66338933Y-65188645D02*
X66365615Y-65209923D01*
X66365615Y-65209923D02*
X66396362Y-65224730D01*
X66396362Y-65224730D02*
X66429633Y-65232324D01*
X67133719Y-63828173D02*
X66217876Y-62912330D01*
X67342658Y-63189014D02*
X67332942Y-63168839D01*
X66429633Y-65232324D02*
X66463760Y-65232324D01*
X67154996Y-64017018D02*
X67169803Y-63986271D01*
X66527778Y-65209923D02*
X66554459Y-65188645D01*
X67694137Y-62769172D02*
X67704224Y-62764314D01*
X66975621Y-64079785D02*
X67008892Y-64087379D01*
X66575736Y-64999800D02*
X66554459Y-64973118D01*
X66590543Y-65030547D02*
X66575736Y-64999800D01*
X65347448Y-63684963D02*
X65355043Y-63651691D01*
X65347448Y-63719089D02*
X65347448Y-63684963D01*
X66433402Y-62696805D02*
X67103454Y-63366858D01*
X65391128Y-63594262D02*
X65417809Y-63572986D01*
X65369849Y-63620944D02*
X65391128Y-63594262D01*
X65417809Y-63572986D02*
X65448556Y-63558179D01*
X65549226Y-63558178D02*
X65579973Y-63572985D01*
X65515954Y-63550585D02*
X65549226Y-63558178D01*
X67133719Y-64043700D02*
X67154996Y-64017018D01*
X67107037Y-64064978D02*
X67133719Y-64043700D01*
X66894811Y-64801273D02*
X66928082Y-64793679D01*
X66860684Y-64801273D02*
X66894811Y-64801273D01*
X66928082Y-64793679D02*
X66958829Y-64778872D01*
X66985510Y-64757594D02*
X67006787Y-64730912D01*
X67021594Y-64700165D02*
X67029188Y-64666894D01*
X67006787Y-64730912D02*
X67021594Y-64700165D01*
X67029188Y-64666894D02*
X67029188Y-64632767D01*
X67006787Y-64568749D02*
X66985510Y-64542067D01*
X67021594Y-64599496D02*
X67006787Y-64568749D01*
X65786824Y-63343382D02*
X65765546Y-63316700D01*
X65844252Y-63091773D02*
X65877524Y-63084178D01*
X65813505Y-63106580D02*
X65844252Y-63091773D01*
X65877524Y-63084178D02*
X65911650Y-63084179D01*
X65911650Y-63084179D02*
X65944922Y-63091772D01*
X65944922Y-63091772D02*
X65975669Y-63106579D01*
X66944874Y-64064978D02*
X66975621Y-64079785D01*
X67043019Y-64087379D02*
X67076290Y-64079785D01*
X67177397Y-63953000D02*
X67177397Y-63918873D01*
X66217876Y-62912330D02*
X66196598Y-62885648D01*
X66181791Y-62854901D02*
X66174196Y-62821631D01*
X66174197Y-62787503D02*
X66181790Y-62754233D01*
X66181790Y-62754233D02*
X66196597Y-62723486D01*
X66244557Y-62675528D02*
X66275304Y-62660721D01*
X66342702Y-62653127D02*
X66375974Y-62660720D01*
X67103454Y-63366858D02*
X67120962Y-63380820D01*
X67141137Y-63390536D02*
X67162968Y-63395519D01*
X67571560Y-62757335D02*
X67571558Y-62757334D01*
X67162968Y-63395519D02*
X67185361Y-63395519D01*
X66627648Y-62292435D02*
X66648927Y-62265753D01*
X67185361Y-63395519D02*
X67207193Y-63390536D01*
X67244876Y-63366858D02*
X67318980Y-63292753D01*
X66837772Y-62244476D02*
X66864453Y-62265754D01*
X67332942Y-63275245D02*
X67342658Y-63255070D01*
X67342658Y-63255070D02*
X67347641Y-63233238D01*
X67347641Y-63233238D02*
X67347641Y-63210846D01*
X67347641Y-63210846D02*
X67342658Y-63189014D01*
X67332942Y-63168839D02*
X67318980Y-63151331D01*
X67318980Y-63151331D02*
X66648927Y-62481279D01*
X66627649Y-62454597D02*
X66612842Y-62423850D01*
X66612842Y-62423850D02*
X66605247Y-62390580D01*
X66605248Y-62356452D02*
X66612841Y-62323182D01*
X66706355Y-62229670D02*
X66739627Y-62222075D01*
X66807025Y-62229669D02*
X66837772Y-62244476D01*
X66773753Y-62222076D02*
X66807025Y-62229669D01*
X66864453Y-62265754D02*
X67356034Y-62757335D01*
X67382716Y-62778613D02*
X67413463Y-62793420D01*
X67413463Y-62793420D02*
X67446735Y-62801013D01*
X67446735Y-62801013D02*
X67480861Y-62801014D01*
X67480861Y-62801014D02*
X67514133Y-62793419D01*
X67544880Y-62778612D02*
X67571560Y-62757335D01*
X67514133Y-62793419D02*
X67544880Y-62778612D01*
X67601315Y-62743003D02*
X67612511Y-62743003D01*
X67612511Y-62743003D02*
X67623427Y-62745495D01*
X67623427Y-62745495D02*
X67633514Y-62750353D01*
X67633514Y-62750353D02*
X67651021Y-62764314D01*
X67661109Y-62769172D02*
X67672025Y-62771664D01*
X67704224Y-62764314D02*
X67712978Y-62757334D01*
X67712978Y-62757334D02*
X67857793Y-62612518D01*
X67857793Y-62612518D02*
X67864774Y-62603764D01*
X67869632Y-62593677D02*
X67872123Y-62582761D01*
X67872123Y-62582761D02*
X67872123Y-62571564D01*
X67872123Y-62571564D02*
X67869632Y-62560649D01*
X67864774Y-62550561D02*
X67857793Y-62541807D01*
X67470583Y-62154597D02*
X67449304Y-62127917D01*
X67434497Y-62097170D02*
X67426903Y-62063898D01*
X67426903Y-62063898D02*
X67426903Y-62029772D01*
X67426903Y-62029772D02*
X67434498Y-61996500D01*
X67434498Y-61996500D02*
X67449304Y-61965753D01*
X67449304Y-61965753D02*
X67470583Y-61939071D01*
X67470583Y-61939071D02*
X67497264Y-61917795D01*
X67497264Y-61917795D02*
X67528011Y-61902988D01*
X67528011Y-61902988D02*
X67561283Y-61895393D01*
X67561283Y-61895393D02*
X67595409Y-61895394D01*
X67595409Y-61895394D02*
X67628681Y-61902987D01*
X67628681Y-61902987D02*
X67659428Y-61917794D01*
X67659428Y-61917794D02*
X67686109Y-61939072D01*
X67686109Y-61939072D02*
X67930203Y-62183166D01*
X67930203Y-62183166D02*
X67956884Y-62204443D01*
X67956884Y-62204443D02*
X67987632Y-62219250D01*
X67987632Y-62219250D02*
X68020903Y-62226843D01*
X68088300Y-62219251D02*
X68119048Y-62204443D01*
X68119048Y-62204443D02*
X68145729Y-62183166D01*
X63754000Y-36830000D02*
X64058799Y-37134799D01*
X57728980Y-72252027D02*
X57663327Y-72304384D01*
X58132503Y-71848503D02*
X57728980Y-72252027D01*
X58759206Y-71337502D02*
X58677338Y-71356188D01*
X59944000Y-73660000D02*
X58928000Y-72644000D01*
X58928000Y-72644000D02*
X58875643Y-72578346D01*
X58839208Y-72502689D02*
X58820522Y-72420821D01*
X59066358Y-71444980D02*
X59000704Y-71392623D01*
X58928000Y-72113669D02*
X59066358Y-71975310D01*
X57425799Y-71442026D02*
X57444483Y-71360157D01*
X58875643Y-72578346D02*
X58839208Y-72502689D01*
X57421827Y-72359503D02*
X57339960Y-72340819D01*
X59066358Y-71975310D02*
X59118715Y-71909657D01*
X58820522Y-72420821D02*
X58820522Y-72336848D01*
X58925047Y-71356188D02*
X58843179Y-71337502D01*
X59118715Y-71909657D02*
X59155150Y-71833999D01*
X58601680Y-71392623D02*
X58536027Y-71444980D01*
X58820522Y-72336848D02*
X58839208Y-72254980D01*
X57337006Y-71583336D02*
X57389363Y-71517683D01*
X58875643Y-72179322D02*
X58928000Y-72113669D01*
X57587668Y-72340818D02*
X57505801Y-72359504D01*
X58677338Y-71356188D02*
X58601680Y-71392623D01*
X58839208Y-72254980D02*
X58875643Y-72179322D01*
X59155150Y-71833999D02*
X59173835Y-71752131D01*
X58536027Y-71444980D02*
X58132503Y-71848503D01*
X59173835Y-71668158D02*
X59155150Y-71586290D01*
X71501000Y-51181000D02*
X71501000Y-50927000D01*
X59173835Y-71752131D02*
X59173835Y-71668158D01*
X59118715Y-71510633D02*
X59066358Y-71444980D01*
X57198648Y-72252026D02*
X57146292Y-72186373D01*
X59155150Y-71586290D02*
X59118715Y-71510633D01*
X53390799Y-54076599D02*
X55753000Y-51714398D01*
X59000704Y-71392623D02*
X58925047Y-71356188D01*
X58843179Y-71337502D02*
X58759206Y-71337502D01*
X57505801Y-72359504D02*
X57421827Y-72359503D01*
X57663327Y-72304384D02*
X57587668Y-72340818D01*
X57339960Y-72340819D02*
X57264303Y-72304384D01*
X57264303Y-72304384D02*
X57198648Y-72252026D01*
X57091171Y-72028848D02*
X57091170Y-71944874D01*
X57146292Y-72186373D02*
X57109857Y-72110716D01*
X57109857Y-72110716D02*
X57091171Y-72028848D01*
X57389363Y-71517683D02*
X57425799Y-71442026D01*
X57091170Y-71944874D02*
X57109856Y-71863006D01*
X57109856Y-71863006D02*
X57146292Y-71787349D01*
X57146292Y-71787349D02*
X57198649Y-71721696D01*
X57198649Y-71721696D02*
X57337006Y-71583336D01*
X57444483Y-71360157D02*
X57444484Y-71276185D01*
X36036930Y-54076599D02*
X53390799Y-54076599D01*
X57444484Y-71276185D02*
X57425798Y-71194316D01*
X57425798Y-71194316D02*
X57389363Y-71118659D01*
X57389363Y-71118659D02*
X57337006Y-71053006D01*
X57337006Y-71053006D02*
X57227479Y-70943479D01*
X57227479Y-70943479D02*
X48914391Y-70943479D01*
X48914391Y-70943479D02*
X46768090Y-73089781D01*
X55753000Y-51714398D02*
X55753000Y-51816000D01*
X46768090Y-73089781D02*
X33973781Y-73089781D01*
X33973781Y-73089781D02*
X28753284Y-67869284D01*
X28753284Y-67869284D02*
X28753284Y-61360245D01*
X28753284Y-61360245D02*
X36036930Y-54076599D01*
X55753000Y-51816000D02*
X70866001Y-51815999D01*
X70866001Y-51815999D02*
X71501000Y-51181000D01*
X69048399Y-38076001D02*
X69048399Y-40196729D01*
X69048399Y-40196729D02*
X69531271Y-40679601D01*
X69531271Y-40679601D02*
X70397601Y-40679601D01*
X70397601Y-40679601D02*
X71755000Y-42037000D01*
X108896671Y-36182300D02*
X101357952Y-36182300D01*
X101357952Y-36182300D02*
X100926900Y-36182300D01*
X110560371Y-37846000D02*
X108896671Y-36182300D01*
X137667999Y-37846000D02*
X110560371Y-37846000D01*
X139382000Y-36131999D02*
X137667999Y-37846000D01*
X139382000Y-30100000D02*
X139382000Y-36131999D01*
X71665991Y-70400287D02*
X71677263Y-70368076D01*
X72644000Y-73660000D02*
X72644000Y-72263000D01*
X71677263Y-70368076D02*
X71695419Y-70339180D01*
X73507342Y-68761620D02*
X73473430Y-68757800D01*
X71695419Y-69119980D02*
X71719551Y-69095848D01*
X73473430Y-72110600D02*
X73507342Y-72106779D01*
X71814570Y-71501000D02*
X73473430Y-71501000D01*
X71780658Y-71504820D02*
X71814570Y-71501000D01*
X71695419Y-69729580D02*
X71719551Y-69705448D01*
X73625830Y-68300600D02*
X73622009Y-68266687D01*
X73622009Y-71314687D02*
X73610737Y-71282476D01*
X73568449Y-67810151D02*
X73592581Y-67786019D01*
X71695419Y-71138819D02*
X71677263Y-71109923D01*
X72644000Y-72263000D02*
X72647820Y-72229087D01*
X71719551Y-71162951D02*
X71695419Y-71138819D01*
X72796400Y-72110600D02*
X73473430Y-72110600D01*
X73592581Y-68815180D02*
X73568449Y-68791048D01*
X71665991Y-69248912D02*
X71662170Y-69215000D01*
X72647820Y-72229087D02*
X72659092Y-72196876D01*
X72640180Y-67115312D02*
X72644000Y-67081400D01*
X73622009Y-69485887D02*
X73610737Y-69453676D01*
X72659092Y-72196876D02*
X72677248Y-72167980D01*
X73568449Y-71839048D02*
X73539553Y-71820892D01*
X71677263Y-71719523D02*
X71665991Y-71687312D01*
X72943517Y-66590703D02*
X72974264Y-66605510D01*
X72730276Y-72125692D02*
X72762487Y-72114420D01*
X73622009Y-68334512D02*
X73625830Y-68300600D01*
X71748447Y-70571507D02*
X71719551Y-70553351D01*
X73507342Y-72106779D02*
X73539553Y-72095507D01*
X76009494Y-64899539D02*
X77213461Y-66103506D01*
X77213461Y-66103506D02*
X79364824Y-66103506D01*
X71695419Y-69310019D02*
X71677263Y-69281123D01*
X71719551Y-70553351D02*
X71695419Y-70529219D01*
X73568449Y-71229448D02*
X73539553Y-71211292D01*
X73592581Y-71253580D02*
X73568449Y-71229448D01*
X71662170Y-67995800D02*
X71665991Y-67961887D01*
X72677248Y-72167980D02*
X72701380Y-72143848D01*
X71780658Y-71192379D02*
X71748447Y-71181107D01*
X73568449Y-72077351D02*
X73592581Y-72053219D01*
X73539553Y-72095507D02*
X73568449Y-72077351D01*
X71780658Y-71801979D02*
X71748447Y-71790707D01*
X72701380Y-72143848D02*
X72730276Y-72125692D01*
X71748447Y-71790707D02*
X71719551Y-71772551D01*
X73473430Y-67538600D02*
X71814570Y-67538600D01*
X73625830Y-70739000D02*
X73622009Y-70705087D01*
X72762487Y-72114420D02*
X72796400Y-72110600D01*
X71695419Y-67481219D02*
X71677263Y-67452323D01*
X73592581Y-72053219D02*
X73610737Y-72024323D01*
X73610737Y-72024323D02*
X73622009Y-71992112D01*
X73539553Y-67828307D02*
X73568449Y-67810151D01*
X73622009Y-71992112D02*
X73625830Y-71958200D01*
X73625830Y-71958200D02*
X73622009Y-71924287D01*
X73622009Y-71924287D02*
X73610737Y-71892076D01*
X73610737Y-71892076D02*
X73592581Y-71863180D01*
X71719551Y-69705448D02*
X71748447Y-69687292D01*
X73568449Y-68419751D02*
X73592581Y-68395619D01*
X73592581Y-71863180D02*
X73568449Y-71839048D01*
X73473430Y-71805800D02*
X71814570Y-71805800D01*
X73539553Y-71820892D02*
X73507342Y-71809620D01*
X73507342Y-71809620D02*
X73473430Y-71805800D01*
X73473430Y-71196200D02*
X71814570Y-71196200D01*
X71814570Y-71805800D02*
X71780658Y-71801979D01*
X71719551Y-71772551D02*
X71695419Y-71748419D01*
X71695419Y-71748419D02*
X71677263Y-71719523D01*
X71665991Y-71687312D02*
X71662170Y-71653400D01*
X71748447Y-71181107D02*
X71719551Y-71162951D01*
X71665991Y-71619487D02*
X71677263Y-71587276D01*
X71662170Y-71653400D02*
X71665991Y-71619487D01*
X74512669Y-64899539D02*
X76009494Y-64899539D01*
X71695419Y-71558380D02*
X71719551Y-71534248D01*
X71677263Y-71587276D02*
X71695419Y-71558380D01*
X71748447Y-71516092D02*
X71780658Y-71504820D01*
X71719551Y-71534248D02*
X71748447Y-71516092D01*
X73507342Y-71497179D02*
X73539553Y-71485907D01*
X73473430Y-71501000D02*
X73507342Y-71497179D01*
X71814570Y-69062600D02*
X73473430Y-69062600D01*
X73610737Y-71282476D02*
X73592581Y-71253580D01*
X73539553Y-71485907D02*
X73568449Y-71467751D01*
X83238330Y-62230000D02*
X90246948Y-62230000D01*
X71665991Y-69181087D02*
X71677263Y-69148876D01*
X73568449Y-71467751D02*
X73592581Y-71443619D01*
X73622009Y-68944112D02*
X73625830Y-68910200D01*
X73610737Y-71414723D02*
X73622009Y-71382512D01*
X71695419Y-68090819D02*
X71677263Y-68061923D01*
X73592581Y-71443619D02*
X73610737Y-71414723D01*
X73473430Y-68148200D02*
X71814570Y-68148200D01*
X71665991Y-71009887D02*
X71677263Y-70977676D01*
X73622009Y-71382512D02*
X73625830Y-71348600D01*
X71814570Y-68148200D02*
X71780658Y-68144379D01*
X71677263Y-70977676D02*
X71695419Y-70948780D01*
X73625830Y-71348600D02*
X73622009Y-71314687D01*
X73539553Y-67553692D02*
X73507342Y-67542420D01*
X71665991Y-68571487D02*
X71677263Y-68539276D01*
X73539553Y-71211292D02*
X73507342Y-71200020D01*
X73592581Y-70834019D02*
X73610737Y-70805123D01*
X73568449Y-70858151D02*
X73592581Y-70834019D01*
X73507342Y-71200020D02*
X73473430Y-71196200D01*
X73000946Y-66626788D02*
X73373612Y-66999454D01*
X73592581Y-67595980D02*
X73568449Y-67571848D01*
X71677263Y-67320076D02*
X71695419Y-67291180D01*
X71814570Y-71196200D02*
X71780658Y-71192379D01*
X71695419Y-67291180D02*
X71719551Y-67267048D01*
X71665991Y-71077712D02*
X71662170Y-71043800D01*
X71677263Y-71109923D02*
X71665991Y-71077712D01*
X71662170Y-71043800D02*
X71665991Y-71009887D01*
X71814570Y-69977000D02*
X71780658Y-69973179D01*
X71719551Y-70924648D02*
X71748447Y-70906492D01*
X71695419Y-70948780D02*
X71719551Y-70924648D01*
X71814570Y-70891400D02*
X73473430Y-70891400D01*
X73473430Y-70891400D02*
X73507342Y-70887579D01*
X71748447Y-70906492D02*
X71780658Y-70895220D01*
X71780658Y-70895220D02*
X71814570Y-70891400D01*
X73507342Y-70887579D02*
X73539553Y-70876307D01*
X73610737Y-70805123D02*
X73622009Y-70772912D01*
X73539553Y-70876307D02*
X73568449Y-70858151D01*
X72910246Y-66583109D02*
X72943517Y-66590703D01*
X73622009Y-70772912D02*
X73625830Y-70739000D01*
X73622009Y-70705087D02*
X73610737Y-70672876D01*
X73592581Y-70643980D02*
X73568449Y-70619848D01*
X73610737Y-70672876D02*
X73592581Y-70643980D01*
X73568449Y-70619848D02*
X73539553Y-70601692D01*
X73539553Y-70601692D02*
X73507342Y-70590420D01*
X73507342Y-70590420D02*
X73473430Y-70586600D01*
X73473430Y-70586600D02*
X71814570Y-70586600D01*
X73610737Y-69453676D02*
X73592581Y-69424780D01*
X71814570Y-70586600D02*
X71780658Y-70582779D01*
X71748447Y-69077692D02*
X71780658Y-69066420D01*
X71780658Y-69676020D02*
X71814570Y-69672200D01*
X71780658Y-70582779D02*
X71748447Y-70571507D01*
X73507342Y-68449179D02*
X73539553Y-68437907D01*
X73473430Y-68453000D02*
X73507342Y-68449179D01*
X71695419Y-70529219D02*
X71677263Y-70500323D01*
X71677263Y-70500323D02*
X71665991Y-70468112D01*
X73568449Y-69638951D02*
X73592581Y-69614819D01*
X71665991Y-70468112D02*
X71662170Y-70434200D01*
X71662170Y-70434200D02*
X71665991Y-70400287D01*
X71695419Y-70339180D02*
X71719551Y-70315048D01*
X71719551Y-70315048D02*
X71748447Y-70296892D01*
X72842848Y-66590703D02*
X72876119Y-66583109D01*
X73473430Y-69062600D02*
X73507342Y-69058779D01*
X71814570Y-70281800D02*
X73473430Y-70281800D01*
X71748447Y-70296892D02*
X71780658Y-70285620D01*
X73473430Y-70281800D02*
X73507342Y-70277979D01*
X73507342Y-70277979D02*
X73539553Y-70266707D01*
X73592581Y-67786019D02*
X73610737Y-67757123D01*
X71780658Y-70285620D02*
X71814570Y-70281800D01*
X73373612Y-66999454D02*
X73400293Y-67020732D01*
X73539553Y-70266707D02*
X73568449Y-70248551D01*
X71695419Y-68510380D02*
X71719551Y-68486248D01*
X73568449Y-69400648D02*
X73539553Y-69382492D01*
X73592581Y-69424780D02*
X73568449Y-69400648D01*
X73568449Y-70248551D02*
X73592581Y-70224419D01*
X73592581Y-70224419D02*
X73610737Y-70195523D01*
X73610737Y-70195523D02*
X73622009Y-70163312D01*
X73622009Y-70163312D02*
X73625830Y-70129400D01*
X73622009Y-69553712D02*
X73625830Y-69519800D01*
X73568449Y-70010248D02*
X73539553Y-69992092D01*
X72628908Y-67147523D02*
X72640180Y-67115312D01*
X73625830Y-70129400D02*
X73622009Y-70095487D01*
X73507342Y-68152020D02*
X73473430Y-68148200D01*
X73507342Y-69980820D02*
X73473430Y-69977000D01*
X73622009Y-70095487D02*
X73610737Y-70063276D01*
X71677263Y-69758476D02*
X71695419Y-69729580D01*
X73610737Y-70063276D02*
X73592581Y-70034380D01*
X73592581Y-70034380D02*
X73568449Y-70010248D01*
X71677263Y-69890723D02*
X71665991Y-69858512D01*
X73539553Y-69992092D02*
X73507342Y-69980820D01*
X71665991Y-67961887D02*
X71677263Y-67929676D01*
X73473430Y-69977000D02*
X71814570Y-69977000D01*
X71780658Y-69973179D02*
X71748447Y-69961907D01*
X71719551Y-69334151D02*
X71695419Y-69310019D01*
X71748447Y-69961907D02*
X71719551Y-69943751D01*
X71814570Y-69367400D02*
X71780658Y-69363579D01*
X71719551Y-69943751D02*
X71695419Y-69919619D01*
X71695419Y-69919619D02*
X71677263Y-69890723D01*
X73610737Y-68234476D02*
X73592581Y-68205580D01*
X71665991Y-69858512D02*
X71662170Y-69824600D01*
X71677263Y-69148876D02*
X71695419Y-69119980D01*
X73622009Y-68266687D02*
X73610737Y-68234476D01*
X71814570Y-67233800D02*
X72491600Y-67233800D01*
X71662170Y-69824600D02*
X71665991Y-69790687D01*
X71665991Y-69790687D02*
X71677263Y-69758476D01*
X71748447Y-69687292D02*
X71780658Y-69676020D01*
X71677263Y-68061923D02*
X71665991Y-68029712D01*
X71677263Y-68671523D02*
X71665991Y-68639312D01*
X71677263Y-69281123D02*
X71665991Y-69248912D01*
X71814570Y-69672200D02*
X73473430Y-69672200D01*
X73507342Y-69668379D02*
X73539553Y-69657107D01*
X73473430Y-69672200D02*
X73507342Y-69668379D01*
X71748447Y-68742707D02*
X71719551Y-68724551D01*
X73539553Y-69657107D02*
X73568449Y-69638951D01*
X71677263Y-68539276D02*
X71695419Y-68510380D01*
X73592581Y-69614819D02*
X73610737Y-69585923D01*
X73610737Y-69585923D02*
X73622009Y-69553712D01*
X73539553Y-68163292D02*
X73507342Y-68152020D01*
X73568449Y-68181448D02*
X73539553Y-68163292D01*
X73507342Y-69371220D02*
X73473430Y-69367400D01*
X73625830Y-69519800D02*
X73622009Y-69485887D01*
X72644000Y-66768208D02*
X72785420Y-66626788D01*
X73539553Y-69382492D02*
X73507342Y-69371220D01*
X73473430Y-69367400D02*
X71814570Y-69367400D01*
X71780658Y-69363579D02*
X71748447Y-69352307D01*
X71748447Y-69352307D02*
X71719551Y-69334151D01*
X73568449Y-67571848D02*
X73539553Y-67553692D01*
X71662170Y-69215000D02*
X71665991Y-69181087D01*
X71748447Y-68133107D02*
X71719551Y-68114951D01*
X71719551Y-69095848D02*
X71748447Y-69077692D01*
X71780658Y-69066420D02*
X71814570Y-69062600D01*
X73507342Y-69058779D02*
X73539553Y-69047507D01*
X73539553Y-69047507D02*
X73568449Y-69029351D01*
X71719551Y-67876648D02*
X71748447Y-67858492D01*
X73568449Y-69029351D02*
X73592581Y-69005219D01*
X73592581Y-69005219D02*
X73610737Y-68976323D01*
X73610737Y-68976323D02*
X73622009Y-68944112D01*
X73610737Y-67624876D02*
X73592581Y-67595980D01*
X73625830Y-68910200D02*
X73622009Y-68876287D01*
X71780658Y-67237620D02*
X71814570Y-67233800D01*
X73622009Y-68876287D02*
X73610737Y-68844076D01*
X73610737Y-68844076D02*
X73592581Y-68815180D01*
X72610752Y-67176419D02*
X72628908Y-67147523D01*
X73568449Y-68791048D02*
X73539553Y-68772892D01*
X73539553Y-68772892D02*
X73507342Y-68761620D01*
X73610737Y-68366723D02*
X73622009Y-68334512D01*
X73473430Y-68757800D02*
X71814570Y-68757800D01*
X71814570Y-68757800D02*
X71780658Y-68753979D01*
X71780658Y-68753979D02*
X71748447Y-68742707D01*
X71719551Y-68724551D02*
X71695419Y-68700419D01*
X71695419Y-68700419D02*
X71677263Y-68671523D01*
X71665991Y-68639312D02*
X71662170Y-68605400D01*
X71662170Y-68605400D02*
X71665991Y-68571487D01*
X71719551Y-68486248D02*
X71748447Y-68468092D01*
X71748447Y-68468092D02*
X71780658Y-68456820D01*
X71665991Y-67420112D02*
X71662170Y-67386200D01*
X71665991Y-67352287D02*
X71677263Y-67320076D01*
X71662170Y-67386200D02*
X71665991Y-67352287D01*
X71780658Y-68456820D02*
X71814570Y-68453000D01*
X71814570Y-68453000D02*
X73473430Y-68453000D01*
X73539553Y-68437907D02*
X73568449Y-68419751D01*
X73592581Y-68395619D02*
X73610737Y-68366723D01*
X73592581Y-68205580D02*
X73568449Y-68181448D01*
X71780658Y-68144379D02*
X71748447Y-68133107D01*
X71719551Y-68114951D02*
X71695419Y-68090819D01*
X71665991Y-68029712D02*
X71662170Y-67995800D01*
X71677263Y-67929676D02*
X71695419Y-67900780D01*
X71695419Y-67900780D02*
X71719551Y-67876648D01*
X71748447Y-67858492D02*
X71780658Y-67847220D01*
X71780658Y-67847220D02*
X71814570Y-67843400D01*
X73473430Y-67843400D02*
X73507342Y-67839579D01*
X71814570Y-67843400D02*
X73473430Y-67843400D01*
X73507342Y-67839579D02*
X73539553Y-67828307D01*
X73610737Y-67757123D02*
X73622009Y-67724912D01*
X73622009Y-67724912D02*
X73625830Y-67691000D01*
X79364824Y-66103506D02*
X83238330Y-62230000D01*
X73625830Y-67691000D02*
X73622009Y-67657087D01*
X72785420Y-66626788D02*
X72812101Y-66605510D01*
X73622009Y-67657087D02*
X73610737Y-67624876D01*
X73507342Y-67542420D02*
X73473430Y-67538600D01*
X71814570Y-67538600D02*
X71780658Y-67534779D01*
X71780658Y-67534779D02*
X71748447Y-67523507D01*
X71748447Y-67523507D02*
X71719551Y-67505351D01*
X71719551Y-67505351D02*
X71695419Y-67481219D01*
X71677263Y-67452323D02*
X71665991Y-67420112D01*
X71719551Y-67267048D02*
X71748447Y-67248892D01*
X71748447Y-67248892D02*
X71780658Y-67237620D01*
X72525513Y-67229979D02*
X72557724Y-67218707D01*
X72491600Y-67233800D02*
X72525513Y-67229979D01*
X72557724Y-67218707D02*
X72586620Y-67200551D01*
X72586620Y-67200551D02*
X72610752Y-67176419D01*
X72644000Y-67081400D02*
X72644000Y-66768208D01*
X72812101Y-66605510D02*
X72842848Y-66590703D01*
X72876119Y-66583109D02*
X72910246Y-66583109D01*
X72974264Y-66605510D02*
X73000946Y-66626788D01*
X73400293Y-67020732D02*
X73431041Y-67035539D01*
X73431041Y-67035539D02*
X73464312Y-67043133D01*
X73464312Y-67043133D02*
X73498438Y-67043133D01*
X73498438Y-67043133D02*
X73531710Y-67035539D01*
X73531710Y-67035539D02*
X73562457Y-67020732D01*
X73562457Y-67020732D02*
X73589138Y-66999454D01*
X73589138Y-66999454D02*
X73610415Y-66972772D01*
X73610415Y-66972772D02*
X73625222Y-66942025D01*
X73625222Y-66942025D02*
X73632816Y-66908754D01*
X73632816Y-66908754D02*
X73632816Y-66874627D01*
X73632816Y-66874627D02*
X73625222Y-66841356D01*
X73625222Y-66841356D02*
X73610415Y-66810609D01*
X73610415Y-66810609D02*
X73589138Y-66783927D01*
X73589138Y-66783927D02*
X73216471Y-66411260D01*
X73216471Y-66411260D02*
X73195193Y-66384579D01*
X73195193Y-66384579D02*
X73180386Y-66353831D01*
X73180386Y-66353831D02*
X73172792Y-66320560D01*
X73172792Y-66320560D02*
X73172792Y-66286434D01*
X73172792Y-66286434D02*
X73180386Y-66253162D01*
X73180386Y-66253162D02*
X73195193Y-66222415D01*
X73195193Y-66222415D02*
X73216472Y-66195735D01*
X73216472Y-66195735D02*
X74512669Y-64899539D01*
X90246948Y-62230000D02*
X90678000Y-62230000D01*
X81315000Y-30103000D02*
X82764911Y-30103000D01*
X82764911Y-30103000D02*
X83047751Y-29820160D01*
X83047751Y-29820160D02*
X83057980Y-29809931D01*
X113750000Y-30471200D02*
X113665000Y-30556200D01*
X113750000Y-27110000D02*
X113750000Y-30471200D01*
X77724000Y-73660000D02*
X78623999Y-72760001D01*
X78629013Y-72472495D02*
X78643805Y-72430223D01*
X78737222Y-72336806D02*
X78779494Y-72322014D01*
X79574746Y-70603776D02*
X79589538Y-70561504D01*
X79519250Y-72273366D02*
X79550919Y-72241697D01*
X79550919Y-72241697D02*
X79574746Y-72203776D01*
X78623999Y-72760001D02*
X78623999Y-72517000D01*
X78623999Y-72517000D02*
X78629013Y-72472495D01*
X78643805Y-72430223D02*
X78667632Y-72392302D01*
X78667632Y-72392302D02*
X78699301Y-72360633D01*
X77673252Y-70830223D02*
X77697079Y-70792302D01*
X79594553Y-72117000D02*
X79589538Y-72072495D01*
X77673252Y-71003776D02*
X77658460Y-70961504D01*
X77808941Y-69511985D02*
X77766669Y-69497193D01*
X77658460Y-70961504D02*
X77653445Y-70917000D01*
X78699301Y-72360633D02*
X78737222Y-72336806D01*
X77653445Y-70917000D02*
X77658460Y-70872495D01*
X77766669Y-71897193D02*
X77728748Y-71873366D01*
X77808941Y-71911985D02*
X77766669Y-71897193D01*
X78779494Y-72322014D02*
X78823999Y-72317000D01*
X77658460Y-71672495D02*
X77673252Y-71630223D01*
X78823999Y-72317000D02*
X79394553Y-72317000D01*
X79439057Y-72311985D02*
X79481329Y-72297193D01*
X79394553Y-72317000D02*
X79439057Y-72311985D01*
X89738197Y-62941201D02*
X90042996Y-63246000D01*
X79519250Y-70673366D02*
X79550919Y-70641697D01*
X79481329Y-70697193D02*
X79519250Y-70673366D01*
X77697079Y-68392302D02*
X77728748Y-68360633D01*
X77728748Y-68360633D02*
X77766669Y-68336806D01*
X77673252Y-71803776D02*
X77658460Y-71761504D01*
X77697079Y-71841697D02*
X77673252Y-71803776D01*
X79481329Y-72297193D02*
X79519250Y-72273366D01*
X79589538Y-72161504D02*
X79594553Y-72117000D01*
X79574746Y-72203776D02*
X79589538Y-72161504D01*
X79550919Y-71992302D02*
X79519250Y-71960633D01*
X79574746Y-72030223D02*
X79550919Y-71992302D01*
X79589538Y-72072495D02*
X79574746Y-72030223D01*
X79574746Y-68830223D02*
X79550919Y-68792302D01*
X79439057Y-71922014D02*
X79394553Y-71917000D01*
X79481329Y-71936806D02*
X79439057Y-71922014D01*
X79519250Y-71960633D02*
X79481329Y-71936806D01*
X77853445Y-69117000D02*
X79394553Y-69117000D01*
X79394553Y-71917000D02*
X77853445Y-71917000D01*
X77853445Y-71917000D02*
X77808941Y-71911985D01*
X79394553Y-69917000D02*
X79439057Y-69911985D01*
X77853445Y-69917000D02*
X79394553Y-69917000D01*
X77808941Y-69922014D02*
X77853445Y-69917000D01*
X77728748Y-71873366D02*
X77697079Y-71841697D01*
X79439057Y-70711985D02*
X79481329Y-70697193D01*
X77658460Y-71761504D02*
X77653445Y-71717000D01*
X77653445Y-71717000D02*
X77658460Y-71672495D01*
X79439057Y-67922014D02*
X79394553Y-67917000D01*
X77673252Y-71630223D02*
X77697079Y-71592302D01*
X77697079Y-71592302D02*
X77728748Y-71560633D01*
X77808941Y-70311985D02*
X77766669Y-70297193D01*
X77728748Y-71560633D02*
X77766669Y-71536806D01*
X77766669Y-71536806D02*
X77808941Y-71522014D01*
X77808941Y-71522014D02*
X77853445Y-71517000D01*
X77853445Y-71517000D02*
X79394553Y-71517000D01*
X77653445Y-70117000D02*
X77658460Y-70072495D01*
X79481329Y-71497193D02*
X79519250Y-71473366D01*
X86537799Y-62941201D02*
X89738197Y-62941201D01*
X79394553Y-71517000D02*
X79439057Y-71511985D01*
X79439057Y-71511985D02*
X79481329Y-71497193D01*
X79589538Y-68961504D02*
X79594553Y-68917000D01*
X79594553Y-68917000D02*
X79589538Y-68872495D01*
X79589538Y-68872495D02*
X79574746Y-68830223D01*
X79519250Y-71473366D02*
X79550919Y-71441697D01*
X77853445Y-69517000D02*
X77808941Y-69511985D01*
X79550919Y-71441697D02*
X79574746Y-71403776D01*
X79574746Y-71403776D02*
X79589538Y-71361504D01*
X79589538Y-71361504D02*
X79594553Y-71317000D01*
X79594553Y-71317000D02*
X79589538Y-71272495D01*
X79589538Y-71272495D02*
X79574746Y-71230223D01*
X77697079Y-69992302D02*
X77728748Y-69960633D01*
X79574746Y-71230223D02*
X79550919Y-71192302D01*
X79550919Y-71192302D02*
X79519250Y-71160633D01*
X79394553Y-69517000D02*
X77853445Y-69517000D01*
X79439057Y-69522014D02*
X79394553Y-69517000D01*
X79519250Y-71160633D02*
X79481329Y-71136806D01*
X79394553Y-71117000D02*
X77853445Y-71117000D01*
X77697079Y-69192302D02*
X77728748Y-69160633D01*
X79481329Y-71136806D02*
X79439057Y-71122014D01*
X79439057Y-71122014D02*
X79394553Y-71117000D01*
X79519250Y-69073366D02*
X79550919Y-69041697D01*
X79550919Y-69041697D02*
X79574746Y-69003776D01*
X79589538Y-70561504D02*
X79594553Y-70517000D01*
X77853445Y-71117000D02*
X77808941Y-71111985D01*
X77766669Y-68697193D02*
X77728748Y-68673366D01*
X77808941Y-71111985D02*
X77766669Y-71097193D01*
X79594553Y-69717000D02*
X79589538Y-69672495D01*
X79589538Y-69761504D02*
X79594553Y-69717000D01*
X77766669Y-71097193D02*
X77728748Y-71073366D01*
X77728748Y-71073366D02*
X77697079Y-71041697D01*
X77697079Y-71041697D02*
X77673252Y-71003776D01*
X77658460Y-70872495D02*
X77673252Y-70830223D01*
X79550919Y-70641697D02*
X79574746Y-70603776D01*
X77728748Y-70760633D02*
X77766669Y-70736806D01*
X77697079Y-70792302D02*
X77728748Y-70760633D01*
X79594553Y-70517000D02*
X79589538Y-70472495D01*
X77728748Y-68673366D02*
X77697079Y-68641697D01*
X79574746Y-70430223D02*
X79550919Y-70392302D01*
X77808941Y-70722014D02*
X77853445Y-70717000D01*
X77766669Y-70736806D02*
X77808941Y-70722014D01*
X77853445Y-70717000D02*
X79394553Y-70717000D01*
X77853445Y-68717000D02*
X77808941Y-68711985D01*
X79394553Y-70717000D02*
X79439057Y-70711985D01*
X77766669Y-69936806D02*
X77808941Y-69922014D01*
X79589538Y-70472495D02*
X79574746Y-70430223D01*
X79519250Y-70360633D02*
X79481329Y-70336806D01*
X79550919Y-70392302D02*
X79519250Y-70360633D01*
X79439057Y-70322014D02*
X79394553Y-70317000D01*
X79481329Y-70336806D02*
X79439057Y-70322014D01*
X79394553Y-70317000D02*
X77853445Y-70317000D01*
X79439057Y-69111985D02*
X79481329Y-69097193D01*
X77853445Y-70317000D02*
X77808941Y-70311985D01*
X77766669Y-70297193D02*
X77728748Y-70273366D01*
X77728748Y-69960633D02*
X77766669Y-69936806D01*
X77728748Y-70273366D02*
X77697079Y-70241697D01*
X77697079Y-70241697D02*
X77673252Y-70203776D01*
X79589538Y-69672495D02*
X79574746Y-69630223D01*
X77658460Y-70161504D02*
X77653445Y-70117000D01*
X77673252Y-70203776D02*
X77658460Y-70161504D01*
X77658460Y-70072495D02*
X77673252Y-70030223D01*
X77673252Y-70030223D02*
X77697079Y-69992302D01*
X79439057Y-69911985D02*
X79481329Y-69897193D01*
X79550919Y-69841697D02*
X79574746Y-69803776D01*
X79519250Y-69873366D02*
X79550919Y-69841697D01*
X79481329Y-69897193D02*
X79519250Y-69873366D01*
X79519250Y-68273366D02*
X79550919Y-68241697D01*
X79574746Y-69803776D02*
X79589538Y-69761504D01*
X79550919Y-69592302D02*
X79519250Y-69560633D01*
X79574746Y-69630223D02*
X79550919Y-69592302D01*
X79519250Y-69560633D02*
X79481329Y-69536806D01*
X79481329Y-69536806D02*
X79439057Y-69522014D01*
X78643805Y-67803776D02*
X78629013Y-67761504D01*
X77766669Y-69497193D02*
X77728748Y-69473366D01*
X77728748Y-69473366D02*
X77697079Y-69441697D01*
X77673252Y-69403776D02*
X77658460Y-69361504D01*
X77697079Y-69441697D02*
X77673252Y-69403776D01*
X77658460Y-69272495D02*
X77673252Y-69230223D01*
X77653445Y-69317000D02*
X77658460Y-69272495D01*
X77658460Y-69361504D02*
X77653445Y-69317000D01*
X77673252Y-69230223D02*
X77697079Y-69192302D01*
X77728748Y-69160633D02*
X77766669Y-69136806D01*
X77766669Y-69136806D02*
X77808941Y-69122014D01*
X77808941Y-69122014D02*
X77853445Y-69117000D01*
X79394553Y-69117000D02*
X79439057Y-69111985D01*
X79481329Y-69097193D02*
X79519250Y-69073366D01*
X79574746Y-69003776D02*
X79589538Y-68961504D01*
X79550919Y-68792302D02*
X79519250Y-68760633D01*
X79519250Y-68760633D02*
X79481329Y-68736806D01*
X79481329Y-68736806D02*
X79439057Y-68722014D01*
X79439057Y-68722014D02*
X79394553Y-68717000D01*
X79394553Y-68717000D02*
X77853445Y-68717000D01*
X79394553Y-68317000D02*
X79439057Y-68311985D01*
X79439057Y-68311985D02*
X79481329Y-68297193D01*
X77808941Y-68711985D02*
X77766669Y-68697193D01*
X77697079Y-68641697D02*
X77673252Y-68603776D01*
X77673252Y-68603776D02*
X77658460Y-68561504D01*
X77658460Y-68561504D02*
X77653445Y-68517000D01*
X77653445Y-68517000D02*
X77658460Y-68472495D01*
X77658460Y-68472495D02*
X77673252Y-68430223D01*
X77673252Y-68430223D02*
X77697079Y-68392302D01*
X77766669Y-68336806D02*
X77808941Y-68322014D01*
X77808941Y-68322014D02*
X77853445Y-68317000D01*
X77853445Y-68317000D02*
X79394553Y-68317000D01*
X79481329Y-68297193D02*
X79519250Y-68273366D01*
X79550919Y-68241697D02*
X79574746Y-68203776D01*
X79574746Y-68203776D02*
X79589538Y-68161504D01*
X79589538Y-68161504D02*
X79594553Y-68117000D01*
X79594553Y-68117000D02*
X79589538Y-68072495D01*
X79589538Y-68072495D02*
X79574746Y-68030223D01*
X79574746Y-68030223D02*
X79550919Y-67992302D01*
X79550919Y-67992302D02*
X79519250Y-67960633D01*
X79519250Y-67960633D02*
X79481329Y-67936806D01*
X79481329Y-67936806D02*
X79439057Y-67922014D01*
X79394553Y-67917000D02*
X78823999Y-67917000D01*
X78823999Y-67917000D02*
X78779494Y-67911985D01*
X78779494Y-67911985D02*
X78737222Y-67897193D01*
X78737222Y-67897193D02*
X78699301Y-67873366D01*
X78699301Y-67873366D02*
X78667632Y-67841697D01*
X78667632Y-67841697D02*
X78643805Y-67803776D01*
X78629013Y-67761504D02*
X78623999Y-67717000D01*
X78623999Y-67717000D02*
X78623999Y-67447999D01*
X78623999Y-67447999D02*
X78613000Y-67437000D01*
X78613000Y-67437000D02*
X81280000Y-64770000D01*
X81280000Y-64770000D02*
X82677000Y-64770000D01*
X82677000Y-64770000D02*
X83185000Y-65278000D01*
X83185000Y-65278000D02*
X84201000Y-65278000D01*
X84201000Y-65278000D02*
X86537799Y-62941201D01*
X71815000Y-26610000D02*
X71628000Y-26797000D01*
X71815000Y-24603000D02*
X71815000Y-26610000D01*
X110617000Y-44196000D02*
X107759494Y-47053506D01*
X107759494Y-47053506D02*
X105547176Y-47053506D01*
X105547176Y-47053506D02*
X102245164Y-43751494D01*
X102245164Y-43751494D02*
X101208836Y-43751494D01*
X101208836Y-43751494D02*
X92890330Y-52070000D01*
X92890330Y-52070000D02*
X88519000Y-52070000D01*
X82804000Y-73660000D02*
X82804000Y-68961000D01*
X82804000Y-68961000D02*
X86106000Y-65659000D01*
X86106000Y-65659000D02*
X92021670Y-65659000D01*
X92021670Y-65659000D02*
X93164670Y-64516000D01*
X93164670Y-64516000D02*
X94434670Y-64516000D01*
X94434670Y-64516000D02*
X96212670Y-66294000D01*
X98501948Y-66294000D02*
X98933000Y-66294000D01*
X96212670Y-66294000D02*
X98501948Y-66294000D01*
X98880173Y-37820590D02*
X96647000Y-37820590D01*
X101600000Y-36957000D02*
X99743763Y-36957000D01*
X99743763Y-36957000D02*
X98880173Y-37820590D01*
X69815000Y-28603000D02*
X70717400Y-28603000D01*
X70717400Y-28603000D02*
X70770801Y-28549599D01*
X70770801Y-28549599D02*
X73634600Y-28549599D01*
X73634600Y-28549599D02*
X73749361Y-28664360D01*
X120040400Y-31835600D02*
X120040400Y-32488000D01*
X120040400Y-32488000D02*
X118898800Y-33629600D01*
X118798380Y-33730021D02*
X118298800Y-33730021D01*
X118198380Y-33629600D02*
X102667534Y-33629600D01*
X118820165Y-33725049D02*
X118809552Y-33728763D01*
X118809552Y-33728763D02*
X118798380Y-33730021D01*
X118898800Y-33629600D02*
X118887627Y-33630859D01*
X118243617Y-33658025D02*
X118237635Y-33648505D01*
X118247331Y-33668638D02*
X118243617Y-33658025D01*
X118249848Y-33690984D02*
X118247331Y-33668638D01*
X118847331Y-33690984D02*
X118843617Y-33701597D01*
X118209552Y-33630859D02*
X118198380Y-33629600D01*
X118887627Y-33630859D02*
X118877014Y-33634573D01*
X118877014Y-33634573D02*
X118867494Y-33640555D01*
X74315000Y-23700600D02*
X74315000Y-24603000D01*
X118867494Y-33640555D02*
X118859544Y-33648505D01*
X118859544Y-33648505D02*
X118853562Y-33658025D01*
X118267494Y-33719067D02*
X118259544Y-33711117D01*
X118849848Y-33668638D02*
X118847331Y-33690984D01*
X118853562Y-33658025D02*
X118849848Y-33668638D01*
X118843617Y-33701597D02*
X118837635Y-33711117D01*
X118837635Y-33711117D02*
X118829685Y-33719067D01*
X118829685Y-33719067D02*
X118820165Y-33725049D01*
X118287627Y-33728763D02*
X118277014Y-33725049D01*
X118298800Y-33730021D02*
X118287627Y-33728763D01*
X92662333Y-23624399D02*
X74391201Y-23624399D01*
X118277014Y-33725049D02*
X118267494Y-33719067D01*
X118259544Y-33711117D02*
X118253562Y-33701597D01*
X118253562Y-33701597D02*
X118249848Y-33690984D01*
X118229685Y-33640555D02*
X118220165Y-33634573D01*
X118237635Y-33648505D02*
X118229685Y-33640555D01*
X118220165Y-33634573D02*
X118209552Y-33630859D01*
X102667534Y-33629600D02*
X92662333Y-23624399D01*
X74391201Y-23624399D02*
X74315000Y-23700600D01*
X117894100Y-31822900D02*
X117894100Y-32475300D01*
X105249685Y-33171542D02*
X105241848Y-33159069D01*
X106156200Y-32152732D02*
X106089443Y-32160253D01*
X106463721Y-32901056D02*
X106456200Y-32834300D01*
X105254550Y-33185446D02*
X105249685Y-33171542D01*
X102603300Y-33134300D02*
X92631374Y-23162374D01*
X117894100Y-32475300D02*
X117235100Y-33134300D01*
X105841848Y-33241100D02*
X105831431Y-33251517D01*
X105856200Y-33200084D02*
X105854550Y-33214723D01*
X117235100Y-33134300D02*
X106756200Y-33134300D01*
X92631374Y-23162374D02*
X74353226Y-23162374D01*
X106456200Y-32452732D02*
X106448678Y-32385975D01*
X105790416Y-33265868D02*
X105321984Y-33265868D01*
X106756200Y-33134300D02*
X106689443Y-33126778D01*
X106456200Y-32834300D02*
X106456200Y-32452732D01*
X106689443Y-33126778D02*
X106626034Y-33104590D01*
X106626034Y-33104590D02*
X106569153Y-33068849D01*
X106448678Y-32385975D02*
X106426490Y-32322566D01*
X105863721Y-32385975D02*
X105856200Y-32452732D01*
X105849685Y-33228627D02*
X105841848Y-33241100D01*
X105969153Y-32218182D02*
X105921650Y-32265685D01*
X106569153Y-33068849D02*
X106521650Y-33021346D01*
X106521650Y-33021346D02*
X106485909Y-32964465D01*
X106343246Y-32218182D02*
X106286365Y-32182441D01*
X106485909Y-32964465D02*
X106463721Y-32901056D01*
X106390749Y-32265685D02*
X106343246Y-32218182D01*
X106426490Y-32322566D02*
X106390749Y-32265685D01*
X106286365Y-32182441D02*
X106222956Y-32160253D01*
X106222956Y-32160253D02*
X106156200Y-32152732D01*
X106089443Y-32160253D02*
X106026034Y-32182441D01*
X105262714Y-33228627D02*
X105257849Y-33214723D01*
X106026034Y-32182441D02*
X105969153Y-32218182D01*
X105885909Y-32322566D02*
X105863721Y-32385975D01*
X105921650Y-32265685D02*
X105885909Y-32322566D01*
X105205054Y-33135950D02*
X105190416Y-33134300D01*
X105854550Y-33214723D02*
X105849685Y-33228627D01*
X105856200Y-32452732D02*
X105856200Y-33200084D01*
X105831431Y-33251517D02*
X105818958Y-33259354D01*
X105818958Y-33259354D02*
X105805054Y-33264219D01*
X105805054Y-33264219D02*
X105790416Y-33265868D01*
X105321984Y-33265868D02*
X105307345Y-33264219D01*
X105280968Y-33251517D02*
X105270551Y-33241100D01*
X105307345Y-33264219D02*
X105293441Y-33259354D01*
X105293441Y-33259354D02*
X105280968Y-33251517D01*
X105270551Y-33241100D02*
X105262714Y-33228627D01*
X105257849Y-33214723D02*
X105254550Y-33185446D01*
X105241848Y-33159069D02*
X105231431Y-33148652D01*
X105231431Y-33148652D02*
X105218958Y-33140815D01*
X105218958Y-33140815D02*
X105205054Y-33135950D01*
X74353226Y-23162374D02*
X73815000Y-23700600D01*
X105190416Y-33134300D02*
X102603300Y-33134300D01*
X73815000Y-23700600D02*
X73815000Y-24603000D01*
D43*
X83019900Y-32142952D02*
X83019900Y-31711900D01*
X83019900Y-32452900D02*
X83019900Y-32142952D01*
X82369800Y-33103000D02*
X83019900Y-32452900D01*
X81315000Y-33103000D02*
X82369800Y-33103000D01*
X43307000Y-37960202D02*
X45212000Y-37960202D01*
X29179156Y-37960202D02*
X43307000Y-37960202D01*
X44339000Y-30734000D02*
X44339000Y-34671000D01*
X44339000Y-34671000D02*
X44339000Y-34953190D01*
X43307000Y-37960202D02*
X44339000Y-36928202D01*
X44339000Y-36928202D02*
X44339000Y-34671000D01*
X45212000Y-37960202D02*
X46074990Y-37960202D01*
X47747443Y-38746199D02*
X50765994Y-35727648D01*
X47443659Y-38746199D02*
X47747443Y-38746199D01*
X52832000Y-53213000D02*
X35586914Y-53213000D01*
X26765249Y-43822621D02*
X26765249Y-40374109D01*
X26765249Y-40374109D02*
X29179156Y-37960202D01*
X26987516Y-44044888D02*
X26765249Y-43822621D01*
X47382699Y-38807159D02*
X47443659Y-38746199D01*
X46074990Y-37960202D02*
X46921947Y-38807159D01*
X46921947Y-38807159D02*
X47382699Y-38807159D01*
X63208410Y-30390590D02*
X63208410Y-27940000D01*
X57871352Y-35727648D02*
X63208410Y-30390590D01*
X50765994Y-35727648D02*
X57871352Y-35727648D01*
X26987516Y-44613602D02*
X26987516Y-44044888D01*
X35586914Y-53213000D02*
X26987516Y-44613602D01*
X44355000Y-28956000D02*
X44355000Y-30718000D01*
X44355000Y-30718000D02*
X44339000Y-30734000D01*
X71390000Y-36528000D02*
X71815000Y-36103000D01*
X60690000Y-27940000D02*
X61494800Y-27940000D01*
X61494800Y-27940000D02*
X63208410Y-27940000D01*
X56500000Y-26778000D02*
X57519801Y-26777999D01*
X57519801Y-26777999D02*
X57519801Y-25046199D01*
X63208410Y-27940000D02*
X63881000Y-27267410D01*
X67183000Y-23735449D02*
X64910551Y-23735449D01*
X67183000Y-23735449D02*
X67788449Y-23130000D01*
X67788449Y-23130000D02*
X68986400Y-23130000D01*
X72815000Y-24603000D02*
X72815000Y-23654358D01*
X72815000Y-23793000D02*
X72815000Y-24603000D01*
X72815000Y-23654358D02*
X72290642Y-23130000D01*
X72290642Y-23130000D02*
X69916200Y-23130000D01*
X69916200Y-23130000D02*
X68986400Y-23130000D01*
X87934799Y-33350201D02*
X87503000Y-33782000D01*
X88720200Y-32564800D02*
X87934799Y-33350201D01*
X88036400Y-33248600D02*
X87934799Y-33350201D01*
X89698800Y-32564800D02*
X88720200Y-32564800D01*
X88036400Y-32334200D02*
X88036400Y-33248600D01*
X63881000Y-24765000D02*
X64910551Y-23735449D01*
X64910551Y-23735449D02*
X63881000Y-23735449D01*
X63881000Y-27267410D02*
X63881000Y-24765000D01*
X71815000Y-36103000D02*
X71815000Y-33423410D01*
X71815000Y-33423410D02*
X71577199Y-33185609D01*
X74672839Y-28603000D02*
X74672839Y-27409481D01*
X74672839Y-27409481D02*
X72815000Y-25551642D01*
X72921176Y-25657817D02*
X74676000Y-25657801D01*
X74676000Y-25657801D02*
X74815000Y-25657800D01*
X75315000Y-24603000D02*
X75315000Y-25203000D01*
X75315000Y-25203000D02*
X74860199Y-25657801D01*
X74860199Y-25657801D02*
X74676000Y-25657801D01*
X72815000Y-24603000D02*
X72815000Y-25551642D01*
X72815000Y-25551642D02*
X72921176Y-25657817D01*
X74815000Y-25657800D02*
X74815000Y-24603000D01*
X81315000Y-33103000D02*
X80260200Y-33103000D01*
X80260200Y-33103000D02*
X79062734Y-31905534D01*
X79062734Y-31905534D02*
X73714812Y-31905534D01*
X73714812Y-31905534D02*
X72974201Y-32893015D01*
X72974201Y-32893015D02*
X72974201Y-33363409D01*
X72974201Y-33363409D02*
X72657209Y-33680401D01*
X72657209Y-33680401D02*
X72071991Y-33680401D01*
X72071991Y-33680401D02*
X71577199Y-33185609D01*
X71577199Y-33185609D02*
X71577199Y-31698640D01*
X71577199Y-31698640D02*
X74672839Y-28603000D01*
X74672839Y-28603000D02*
X80260200Y-28603000D01*
X80260200Y-28603000D02*
X81315000Y-28603000D01*
X44339000Y-34953190D02*
X44351190Y-34953190D01*
X63881000Y-23735449D02*
X63091750Y-22946199D01*
X63091750Y-22946199D02*
X59494800Y-22946200D01*
X71390000Y-38481000D02*
X71390000Y-36528000D01*
X59494800Y-22946200D02*
X58690000Y-23751000D01*
X58690000Y-23751000D02*
X58690000Y-23876000D01*
X57519801Y-25046199D02*
X58690000Y-23876000D01*
X72315000Y-39930000D02*
X73271000Y-40886000D01*
X73271000Y-40886000D02*
X75057000Y-40886000D01*
X78105000Y-40886000D02*
X75057000Y-40886000D01*
X75057000Y-40886000D02*
X74889000Y-40886000D01*
X78740000Y-40886000D02*
X78105000Y-40886000D01*
X78740000Y-40886000D02*
X83684800Y-40886000D01*
X83684800Y-40886000D02*
X83985000Y-40585800D01*
X73390000Y-38481000D02*
X72315000Y-37406000D01*
X60690000Y-23876000D02*
X60690000Y-24001000D01*
X60690000Y-24001000D02*
X61758800Y-25069800D01*
X61758800Y-25069800D02*
X62611000Y-25069800D01*
X62611000Y-25069800D02*
X62611000Y-25273000D01*
X63169800Y-25069800D02*
X62611000Y-25069800D01*
X72315000Y-37406000D02*
X72315000Y-39930000D01*
X62611000Y-25273000D02*
X62407799Y-25476201D01*
X66167000Y-25527000D02*
X65596780Y-24956780D01*
X113322101Y-31305501D02*
X113626900Y-31610300D01*
X113250000Y-27764800D02*
X112674401Y-28340399D01*
X113250000Y-27110000D02*
X113250000Y-27764800D01*
X112674401Y-30657801D02*
X113322101Y-31305501D01*
X115785900Y-31822900D02*
X113839500Y-31822900D01*
X113839500Y-31822900D02*
X113626900Y-31610300D01*
X112674401Y-28340399D02*
X112674401Y-30657801D01*
X112179100Y-37211000D02*
X110934500Y-37211000D01*
X136786800Y-37211000D02*
X112179100Y-37211000D01*
X108877100Y-27174700D02*
X113185300Y-27174700D01*
X113185300Y-27174700D02*
X113250000Y-27110000D01*
X109118400Y-35394900D02*
X108204000Y-35394900D01*
X108204000Y-35394900D02*
X92290900Y-35394900D01*
X138382000Y-30100000D02*
X138382000Y-35615800D01*
X138382000Y-35615800D02*
X136786800Y-37211000D01*
X110934500Y-37211000D02*
X109118400Y-35394900D01*
X92290900Y-35394900D02*
X90709800Y-33813800D01*
X90709800Y-33813800D02*
X90709800Y-31242000D01*
X118800000Y-25800000D02*
X119149999Y-25450001D01*
X119149999Y-25450001D02*
X119149999Y-24880893D01*
X119149999Y-24880893D02*
X118714305Y-24445199D01*
X118714305Y-24445199D02*
X113285695Y-24445199D01*
X113285695Y-24445199D02*
X112850001Y-24880893D01*
X112850001Y-24880893D02*
X112850001Y-25450001D01*
X112850001Y-25450001D02*
X113200000Y-25800000D01*
X113250000Y-27110000D02*
X113250000Y-27310000D01*
X91998800Y-26464800D02*
X90069000Y-26464800D01*
X90069000Y-26464800D02*
X89890600Y-26286400D01*
X89890600Y-26286400D02*
X89890600Y-26276269D01*
X118800000Y-25800000D02*
X118800000Y-27060000D01*
X118800000Y-27060000D02*
X118750000Y-27110000D01*
X113200000Y-25800000D02*
X113200000Y-27060000D01*
X113200000Y-27060000D02*
X113250000Y-27110000D01*
X46659800Y-31953200D02*
X46659800Y-32832800D01*
X46659800Y-32832800D02*
X46736000Y-32909000D01*
X46736000Y-32909000D02*
X47017000Y-32628000D01*
X47017000Y-32628000D02*
X48910000Y-32628000D01*
X72315000Y-37406000D02*
X72315000Y-36103000D01*
X78867000Y-41640000D02*
X78859000Y-41640000D01*
X78859000Y-41640000D02*
X78105000Y-40886000D01*
X91998800Y-26464800D02*
X91998800Y-27559000D01*
X91998800Y-27559000D02*
X91998800Y-27719600D01*
X96570800Y-31054800D02*
X95641000Y-31054800D01*
X95641000Y-31054800D02*
X92145200Y-27559000D01*
X92145200Y-27559000D02*
X91998800Y-27559000D01*
X96570800Y-31054800D02*
X96445800Y-31054800D01*
X58547000Y-32639000D02*
X59885199Y-31300801D01*
X59885199Y-31300801D02*
X59885199Y-29631801D01*
X59885199Y-29631801D02*
X59926000Y-29591000D01*
X59758200Y-29423200D02*
X59926000Y-29591000D01*
X59926000Y-29591000D02*
X60563000Y-30228000D01*
X58214999Y-29423199D02*
X59758200Y-29423200D01*
X60690000Y-25908000D02*
X61976000Y-25908000D01*
X61976000Y-25908000D02*
X62103000Y-25781000D01*
X57519800Y-28728000D02*
X58214999Y-29423199D01*
X60563000Y-30228000D02*
X60563000Y-30353000D01*
X62407799Y-25476201D02*
X62103000Y-25781000D01*
X85342000Y-25416000D02*
X85217000Y-25416000D01*
X88036400Y-28110400D02*
X85342000Y-25416000D01*
X88036400Y-31021400D02*
X88036400Y-28110400D01*
X88036400Y-31021400D02*
X87977600Y-31021400D01*
X87977600Y-31021400D02*
X86422231Y-32576769D01*
X86422231Y-32576769D02*
X86422231Y-34415371D01*
X86422231Y-34415371D02*
X84896602Y-35941000D01*
X88036400Y-31021400D02*
X88257000Y-31242000D01*
X88257000Y-31242000D02*
X90709800Y-31242000D01*
X90709800Y-31242000D02*
X90930400Y-31021400D01*
X90930400Y-31021400D02*
X91710200Y-31021400D01*
X84896602Y-35941000D02*
X84880058Y-34926353D01*
X84880058Y-34839258D02*
X84880058Y-34926353D01*
X84068800Y-34028000D02*
X84880058Y-34839258D01*
X84937600Y-38455600D02*
X84896602Y-35941000D01*
X91710200Y-31021400D02*
X91710200Y-28008200D01*
X91710200Y-28008200D02*
X91998800Y-27719600D01*
X91998800Y-31310000D02*
X91710200Y-31021400D01*
X81315000Y-33603000D02*
X82384200Y-33603000D01*
X82384200Y-33603000D02*
X83312000Y-34530800D01*
X83312000Y-34530800D02*
X83312000Y-34782000D01*
X83439000Y-34028000D02*
X84068800Y-34028000D01*
X82809200Y-34028000D02*
X82384200Y-33603000D01*
X83439000Y-34028000D02*
X82809200Y-34028000D01*
X36576000Y-34163000D02*
X34619000Y-32206000D01*
X34619000Y-32206000D02*
X34619000Y-31601800D01*
X62484000Y-73660000D02*
X59386469Y-70562469D01*
X59386469Y-70562469D02*
X48756573Y-70562469D01*
X48756573Y-70562469D02*
X46610271Y-72708771D01*
X46610271Y-72708771D02*
X40795685Y-72708771D01*
X40795685Y-72708771D02*
X32522654Y-64435740D01*
X32522654Y-64435740D02*
X31445706Y-64435740D01*
X31445706Y-64435740D02*
X30844740Y-65036706D01*
X30844740Y-65036706D02*
X29735260Y-65036706D01*
X29735260Y-65036706D02*
X29134294Y-64435740D01*
X29134294Y-64435740D02*
X29134294Y-61518064D01*
X29134294Y-61518064D02*
X36042358Y-54610000D01*
X36042358Y-54610000D02*
X41275000Y-54610000D01*
X56500000Y-28728000D02*
X57519800Y-28728000D01*
X68834000Y-25527000D02*
X69486400Y-24874600D01*
X66167000Y-25527000D02*
X68834000Y-25527000D01*
X73315000Y-24603000D02*
X73315000Y-23548200D01*
X73315000Y-23548200D02*
X74308000Y-22555200D01*
X74308000Y-22555200D02*
X74448148Y-22555200D01*
X74448148Y-22555200D02*
X74879200Y-22555200D01*
X40819000Y-31601800D02*
X42802777Y-31601800D01*
X42802777Y-31601800D02*
X42926000Y-31725023D01*
X40819000Y-31601800D02*
X42015800Y-31601800D01*
X48910000Y-32628000D02*
X51786358Y-32628000D01*
X51786358Y-32628000D02*
X55686358Y-28728000D01*
X55686358Y-28728000D02*
X56500000Y-28728000D01*
X72315000Y-38287000D02*
X72315000Y-36103000D01*
X83985000Y-40585800D02*
X83985000Y-39581000D01*
X91998800Y-32564800D02*
X91998800Y-31310000D01*
X34619000Y-31601800D02*
X40819000Y-31601800D01*
X83985000Y-39581000D02*
X84937600Y-38455600D01*
X82385000Y-37381000D02*
X83985000Y-39581000D01*
D42*
X40819000Y-35301800D02*
X42794800Y-35301800D01*
X43002201Y-35509201D02*
X43307000Y-35814000D01*
X42794800Y-35301800D02*
X43002201Y-35509201D01*
X75759713Y-38852210D02*
X75759713Y-38344001D01*
X76793503Y-39886000D02*
X75759713Y-38852210D01*
X78740000Y-39886000D02*
X76793503Y-39886000D01*
X78815000Y-36103000D02*
X78815000Y-39811000D01*
X78815000Y-39811000D02*
X78740000Y-39886000D01*
X75759713Y-38344001D02*
X75759713Y-37912949D01*
X45720000Y-78105000D02*
X46902601Y-76922399D01*
X46902601Y-76922399D02*
X63557881Y-76922399D01*
X63557881Y-76922399D02*
X64286399Y-77650917D01*
X64286399Y-77650917D02*
X64286399Y-78296729D01*
X64286399Y-78296729D02*
X65059860Y-79070190D01*
X65059860Y-79070190D02*
X78694328Y-79070190D01*
X78694328Y-79070190D02*
X81665748Y-76098770D01*
X81665748Y-76098770D02*
X85268164Y-76098770D01*
X85268164Y-76098770D02*
X86578333Y-74788601D01*
X86578333Y-74788601D02*
X94375399Y-74788601D01*
X94375399Y-74788601D02*
X94604001Y-74559999D01*
X94604001Y-74559999D02*
X95504000Y-73660000D01*
X40819000Y-35301800D02*
X41169000Y-35301800D01*
X41169000Y-35301800D02*
X42418000Y-36550800D01*
X42418000Y-36550800D02*
X42418000Y-37084000D01*
X46736000Y-34909000D02*
X47061600Y-34909000D01*
X47061600Y-34909000D02*
X48042600Y-33928000D01*
X48042600Y-33928000D02*
X48910000Y-33928000D01*
X48756000Y-33774000D02*
X48910000Y-33928000D01*
X47362969Y-38141941D02*
X45974000Y-36752972D01*
X45974000Y-36752972D02*
X45974000Y-36703000D01*
X52374799Y-38404799D02*
X52070000Y-38100000D01*
X53365401Y-39395401D02*
X52374799Y-38404799D01*
X65431137Y-39395401D02*
X53365401Y-39395401D01*
X65608948Y-39217590D02*
X65431137Y-39395401D01*
X66040000Y-39217590D02*
X65608948Y-39217590D01*
X47058170Y-37837142D02*
X47362969Y-38141941D01*
X46363010Y-37141982D02*
X47058170Y-37837142D01*
X46363010Y-36449010D02*
X46363010Y-37141982D01*
X47974000Y-36703000D02*
X48769400Y-36703000D01*
X48117000Y-36703000D02*
X48769400Y-36703000D01*
X48769400Y-36703000D02*
X49853601Y-35618799D01*
X49853601Y-35618799D02*
X49853601Y-33354201D01*
X49853601Y-33354201D02*
X49777400Y-33278000D01*
X49777400Y-33278000D02*
X48910000Y-33278000D01*
X141796000Y-46578520D02*
X141796000Y-49030000D01*
X141796000Y-49030000D02*
X142387000Y-49621000D01*
X122746000Y-46578520D02*
X122746000Y-49030000D01*
X122746000Y-49030000D02*
X123337000Y-49621000D01*
X103696000Y-46578520D02*
X103696000Y-49030000D01*
X103696000Y-49030000D02*
X104287000Y-49621000D01*
X84645500Y-46578520D02*
X84645500Y-49029500D01*
X84645500Y-49029500D02*
X85237000Y-49621000D01*
X84994800Y-47002700D02*
X84645500Y-46578500D01*
X84994800Y-47078900D02*
X84994800Y-47002700D01*
X84995300Y-47087700D02*
X84994800Y-47078900D01*
X85237000Y-49621000D02*
X85257200Y-49331700D01*
X65595500Y-46578520D02*
X65595500Y-49029500D01*
X65595500Y-49029500D02*
X66187000Y-49621000D01*
X46545500Y-46578520D02*
X46545500Y-49029500D01*
X46545500Y-49029500D02*
X47137000Y-49621000D01*
X27495500Y-46578520D02*
X27495500Y-49029500D01*
X27495500Y-49029500D02*
X28087000Y-49621000D01*
X113221000Y-65628520D02*
X113221000Y-68080000D01*
X113221000Y-68080000D02*
X113812000Y-68671000D01*
X94171000Y-65628520D02*
X94171000Y-68080000D01*
X94171000Y-68080000D02*
X94762000Y-68671000D01*
X75121000Y-65628520D02*
X75121000Y-68080000D01*
X75121000Y-68080000D02*
X75712000Y-68671000D01*
X56071000Y-65558520D02*
X56071000Y-68010000D01*
X56071000Y-68010000D02*
X56662000Y-68601000D01*
X32260000Y-65628520D02*
X32260000Y-68081000D01*
X32260000Y-68081000D02*
X32850000Y-68671000D01*
X137033000Y-84678520D02*
X137033000Y-87130000D01*
X137033000Y-87130000D02*
X137624000Y-87721000D01*
X118000000Y-84678520D02*
X118000000Y-87147000D01*
X118000000Y-87147000D02*
X118574000Y-87721000D01*
X98934000Y-84678520D02*
X98934000Y-87130000D01*
X98934000Y-87130000D02*
X99525000Y-87721000D01*
X79884000Y-84678520D02*
X79884000Y-87130000D01*
X79884000Y-87130000D02*
X80475000Y-87721000D01*
X60834000Y-84678520D02*
X60834000Y-87130000D01*
X60834000Y-87130000D02*
X61425000Y-87721000D01*
X29877000Y-84678520D02*
X30454850Y-84678520D01*
X30454850Y-84678520D02*
X32576330Y-86800000D01*
X32576330Y-86800000D02*
X34470116Y-86800000D01*
X34470116Y-86800000D02*
X36000000Y-86800000D01*
X146558000Y-103728520D02*
X146558000Y-106180000D01*
X146558000Y-106180000D02*
X147149000Y-106771000D01*
X70358000Y-103728520D02*
X70358000Y-106180000D01*
X70358000Y-106180000D02*
X70949000Y-106771000D01*
X51310000Y-103728520D02*
X51310000Y-106181000D01*
X51310000Y-106181000D02*
X51900000Y-106771000D01*
X30468000Y-106771000D02*
X31774000Y-108077000D01*
X31774000Y-108077000D02*
X38687000Y-108077000D01*
X38687000Y-108077000D02*
X38894390Y-107869610D01*
X38894390Y-107869610D02*
X39993000Y-106771000D01*
X29877000Y-103728520D02*
X29877000Y-106180000D01*
X29877000Y-106180000D02*
X30468000Y-106771000D01*
X141168000Y-124301000D02*
X143549000Y-124301000D01*
X141168000Y-124301000D02*
X141168000Y-125379600D01*
X141168000Y-125379600D02*
X138150600Y-128397000D01*
X138150600Y-128397000D02*
X134874000Y-128397000D01*
X134874000Y-128397000D02*
X132298000Y-125821000D01*
X132298000Y-125821000D02*
X130481000Y-125821000D01*
X129921000Y-122397520D02*
X129921000Y-125261000D01*
X129921000Y-125261000D02*
X130481000Y-125821000D01*
X116193000Y-125821000D02*
X117765000Y-125821000D01*
X126365000Y-121705000D02*
X130481000Y-125821000D01*
X126365000Y-121539000D02*
X126365000Y-121705000D01*
X124460000Y-119634000D02*
X126365000Y-121539000D01*
X122428000Y-119634000D02*
X124460000Y-119634000D01*
X121412000Y-120650000D02*
X122428000Y-119634000D01*
X121412000Y-121793000D02*
X121412000Y-120650000D01*
X120650000Y-122555000D02*
X121412000Y-121793000D01*
X120650000Y-122936000D02*
X120650000Y-122555000D01*
X117765000Y-125821000D02*
X120650000Y-122936000D01*
X105200000Y-124700000D02*
X107200000Y-124700000D01*
X107200000Y-124700000D02*
X107300000Y-124800000D01*
X147149000Y-125821000D02*
X144612800Y-125821000D01*
X144612800Y-125821000D02*
X140525500Y-129908300D01*
X140525500Y-129908300D02*
X112534700Y-129908300D01*
X112534700Y-129908300D02*
X111544100Y-128917700D01*
X89357200Y-127571500D02*
X90630500Y-127571500D01*
X90630500Y-127571500D02*
X92381000Y-125821000D01*
X105200000Y-125686000D02*
X105200000Y-124700000D01*
X92381000Y-125821000D02*
X94762000Y-125821000D01*
X91770200Y-125210200D02*
X92381000Y-125821000D01*
X81500000Y-124700000D02*
X80505300Y-125694700D01*
X80505300Y-125694700D02*
X80505300Y-126504700D01*
X80505300Y-126504700D02*
X79044800Y-127965200D01*
X79044800Y-127965200D02*
X73093200Y-127965200D01*
X73093200Y-127965200D02*
X72023532Y-126895532D01*
X72023532Y-126895532D02*
X70949000Y-125821000D01*
X81500000Y-124700000D02*
X83501000Y-124700000D01*
X83501000Y-124700000D02*
X83900000Y-124301000D01*
X70345300Y-122969020D02*
X70345300Y-125217300D01*
X70345300Y-125217300D02*
X70949000Y-125821000D01*
X82217400Y-31603000D02*
X81315000Y-31603000D01*
X83364833Y-31153099D02*
X82667301Y-31153099D01*
X83668364Y-31456630D02*
X83364833Y-31153099D01*
X85115400Y-32407860D02*
X84164170Y-31456630D01*
X82667301Y-31153099D02*
X82217400Y-31603000D01*
X84164170Y-31456630D02*
X83668364Y-31456630D01*
X85217000Y-32407860D02*
X85115400Y-32407860D01*
X66802000Y-35830000D02*
X66802000Y-35177600D01*
X66802000Y-35177600D02*
X67308600Y-34671000D01*
X67308600Y-34671000D02*
X68021948Y-34671000D01*
X68021948Y-34671000D02*
X68453000Y-34671000D01*
X72186800Y-32232600D02*
X75316400Y-29103000D01*
X75316400Y-29103000D02*
X81315000Y-29103000D01*
X68834000Y-35830000D02*
X68959000Y-35830000D01*
X68959000Y-35830000D02*
X69635400Y-35153600D01*
X69635400Y-35153600D02*
X69774548Y-35153600D01*
X69774548Y-35153600D02*
X70205600Y-35153600D01*
X72364600Y-33070800D02*
X72364600Y-32844234D01*
X72364600Y-32844234D02*
X72720201Y-32488633D01*
X72720201Y-32488633D02*
X72720201Y-32130265D01*
X72720201Y-32130265D02*
X74247466Y-30603000D01*
X74247466Y-30603000D02*
X80412600Y-30603000D01*
X80412600Y-30603000D02*
X81315000Y-30603000D01*
X59063000Y-30353000D02*
X58151482Y-30353000D01*
X58151482Y-30353000D02*
X57176482Y-29378000D01*
X57176482Y-29378000D02*
X56500000Y-29378000D01*
X83985000Y-37381000D02*
X83985000Y-37281000D01*
X83985000Y-37281000D02*
X81315000Y-34611000D01*
X81315000Y-34611000D02*
X81315000Y-34405400D01*
X81315000Y-34405400D02*
X81315000Y-34103000D01*
X82385000Y-39581000D02*
X82385000Y-39481000D01*
X82385000Y-39481000D02*
X79315000Y-36411000D01*
X79315000Y-36411000D02*
X79315000Y-36103000D01*
X127508000Y-103728520D02*
X127508000Y-106180000D01*
X127508000Y-106180000D02*
X128099000Y-106771000D01*
X106781600Y-25082500D02*
X108784900Y-25082500D01*
X108784900Y-25082500D02*
X108877100Y-25174700D01*
X116250000Y-27110000D02*
X116250000Y-27845300D01*
X116250000Y-27845300D02*
X117132100Y-28727400D01*
X117132100Y-28727400D02*
X118807200Y-28727400D01*
X118807200Y-28727400D02*
X119915400Y-29835600D01*
X119915400Y-29835600D02*
X120040400Y-29835600D01*
X115600000Y-25800000D02*
X115600000Y-25957600D01*
X115600000Y-25957600D02*
X116250000Y-26607600D01*
X116250000Y-26607600D02*
X116250000Y-27110000D01*
X116775200Y-30377100D02*
X117309900Y-30911800D01*
X117309900Y-30911800D02*
X118935500Y-30911800D01*
X116775200Y-28829000D02*
X117769100Y-29822900D01*
X116775200Y-28829000D02*
X116775200Y-30377100D01*
X115750000Y-27803800D02*
X116775200Y-28829000D01*
X118935500Y-30911800D02*
X118330600Y-30911800D01*
X115750000Y-27110000D02*
X115750000Y-27803800D01*
X117769100Y-29822900D02*
X117894100Y-29822900D01*
X115250000Y-27110000D02*
X115250000Y-27734866D01*
X115250000Y-27734866D02*
X115785900Y-28270766D01*
X115785900Y-28270766D02*
X115785900Y-29170500D01*
X115785900Y-29170500D02*
X115785900Y-29822900D01*
X132267000Y-65628520D02*
X132267000Y-68076000D01*
X132267000Y-68076000D02*
X132862000Y-68671000D01*
X108460000Y-103728520D02*
X108460000Y-106181000D01*
X108460000Y-106181000D02*
X109050000Y-106771000D01*
X89408000Y-103728520D02*
X89408000Y-106180000D01*
X89408000Y-106180000D02*
X89999000Y-106771000D01*
X54281000Y-125821000D02*
X54408900Y-125821000D01*
X54408900Y-125821000D02*
X56222900Y-127635000D01*
X56222900Y-127635000D02*
X60032900Y-127635000D01*
X60032900Y-127635000D02*
X62115700Y-125552200D01*
X62115700Y-125552200D02*
X62115700Y-124785300D01*
X62115700Y-124785300D02*
X62600000Y-124301000D01*
X51900000Y-125821000D02*
X54281000Y-125821000D01*
X46824900Y-123807220D02*
X49886220Y-123807220D01*
X49886220Y-123807220D02*
X51900000Y-125821000D01*
X30468000Y-125821000D02*
X30468000Y-124186578D01*
X30468000Y-124186578D02*
X28932942Y-122651520D01*
X28932942Y-122651520D02*
X26231850Y-122651520D01*
X26231850Y-122651520D02*
X25654000Y-122651520D01*
X30468000Y-125821000D02*
X32850000Y-125821000D01*
X29877000Y-125230000D02*
X30468000Y-125821000D01*
X85217000Y-27424000D02*
X85217000Y-29568140D01*
M02*
