G04 #@! TF.FileFunction,Profile,NP*
%FSLAX46Y46*%
G04 Gerber Fmt 4.6, Leading zero omitted, Abs format (unit mm)*
G04 Created by KiCad (PCBNEW 4.0.1-stable) date 2/1/2016 10:13:23 PM*
%MOMM*%
G01*
G04 APERTURE LIST*
%ADD10C,0.150000*%
%ADD11C,0.127000*%
G04 APERTURE END LIST*
D10*
D11*
X142113000Y-20218400D02*
X146151600Y-20218400D01*
X142113000Y-28702000D02*
X142113000Y-20218400D01*
X128651000Y-28702000D02*
X142113000Y-28702000D01*
X128651000Y-20231100D02*
X128651000Y-28702000D01*
X146151600Y-29248100D02*
X146151600Y-20218400D01*
X121666000Y-20231100D02*
X128651000Y-20231100D01*
X121666000Y-18173700D02*
X121666000Y-20231100D01*
X110439200Y-18173700D02*
X121666000Y-18173700D01*
X110439200Y-22085300D02*
X110439200Y-18173700D01*
X110439200Y-22085300D02*
X101168200Y-22085300D01*
X95072200Y-22098000D02*
G75*
G03X101168200Y-22098000I3048000J0D01*
G01*
X146431000Y-80645000D02*
X141605000Y-76327000D01*
X156083000Y-115570000D02*
X156083000Y-125056900D01*
X154305000Y-114020600D02*
X156083000Y-115570000D01*
X154305000Y-106946700D02*
X154305000Y-114020600D01*
X152831800Y-130302000D02*
X156083000Y-125056900D01*
X29362400Y-130302000D02*
X152831800Y-130302000D01*
X23495000Y-124510800D02*
X29362400Y-130302000D01*
X151003000Y-33655000D02*
X146151600Y-29248100D01*
X36296600Y-22098000D02*
X95072200Y-22098000D01*
X23495000Y-35610800D02*
X23495000Y-124510800D01*
X23495000Y-35610800D02*
X36296600Y-22098000D01*
X155956000Y-104394000D02*
X154305000Y-106946700D01*
X155956000Y-99441000D02*
X155956000Y-104394000D01*
X151892000Y-95631000D02*
X155956000Y-99441000D01*
X146431000Y-95631000D02*
X151892000Y-95631000D01*
X146431000Y-80645000D02*
X146431000Y-95631000D01*
X141605000Y-51816000D02*
X141605000Y-76327000D01*
X148717000Y-51816000D02*
X141605000Y-51816000D01*
X151003000Y-48387000D02*
X148717000Y-51816000D01*
X151003000Y-33782000D02*
X151003000Y-48387000D01*
M02*
