G04 #@! TF.FileFunction,Legend,Top*
%FSLAX46Y46*%
G04 Gerber Fmt 4.6, Leading zero omitted, Abs format (unit mm)*
G04 Created by KiCad (PCBNEW 4.0.1-stable) date 2/1/2016 10:13:23 PM*
%MOMM*%
G01*
G04 APERTURE LIST*
%ADD10C,0.150000*%
%ADD11C,0.200000*%
G04 APERTURE END LIST*
D10*
D11*
X117619047Y-33852381D02*
X118190476Y-33852381D01*
X117904761Y-34852381D02*
X117904761Y-33852381D01*
X118476190Y-34804762D02*
X118619047Y-34852381D01*
X118857143Y-34852381D01*
X118952381Y-34804762D01*
X119000000Y-34757143D01*
X119047619Y-34661905D01*
X119047619Y-34566667D01*
X119000000Y-34471429D01*
X118952381Y-34423810D01*
X118857143Y-34376190D01*
X118666666Y-34328571D01*
X118571428Y-34280952D01*
X118523809Y-34233333D01*
X118476190Y-34138095D01*
X118476190Y-34042857D01*
X118523809Y-33947619D01*
X118571428Y-33900000D01*
X118666666Y-33852381D01*
X118904762Y-33852381D01*
X119047619Y-33900000D01*
X119904762Y-33852381D02*
X119714285Y-33852381D01*
X119619047Y-33900000D01*
X119571428Y-33947619D01*
X119476190Y-34090476D01*
X119428571Y-34280952D01*
X119428571Y-34661905D01*
X119476190Y-34757143D01*
X119523809Y-34804762D01*
X119619047Y-34852381D01*
X119809524Y-34852381D01*
X119904762Y-34804762D01*
X119952381Y-34757143D01*
X120000000Y-34661905D01*
X120000000Y-34423810D01*
X119952381Y-34328571D01*
X119904762Y-34280952D01*
X119809524Y-34233333D01*
X119619047Y-34233333D01*
X119523809Y-34280952D01*
X119476190Y-34328571D01*
X119428571Y-34423810D01*
X120904762Y-33852381D02*
X120428571Y-33852381D01*
X120380952Y-34328571D01*
X120428571Y-34280952D01*
X120523809Y-34233333D01*
X120761905Y-34233333D01*
X120857143Y-34280952D01*
X120904762Y-34328571D01*
X120952381Y-34423810D01*
X120952381Y-34661905D01*
X120904762Y-34757143D01*
X120857143Y-34804762D01*
X120761905Y-34852381D01*
X120523809Y-34852381D01*
X120428571Y-34804762D01*
X120380952Y-34757143D01*
X121380952Y-34471429D02*
X122142857Y-34471429D01*
X123095238Y-34852381D02*
X122619047Y-34852381D01*
X122619047Y-33852381D01*
X125523810Y-34852381D02*
X125190476Y-34376190D01*
X124952381Y-34852381D02*
X124952381Y-33852381D01*
X125333334Y-33852381D01*
X125428572Y-33900000D01*
X125476191Y-33947619D01*
X125523810Y-34042857D01*
X125523810Y-34185714D01*
X125476191Y-34280952D01*
X125428572Y-34328571D01*
X125333334Y-34376190D01*
X124952381Y-34376190D01*
X126333334Y-34804762D02*
X126238096Y-34852381D01*
X126047619Y-34852381D01*
X125952381Y-34804762D01*
X125904762Y-34709524D01*
X125904762Y-34328571D01*
X125952381Y-34233333D01*
X126047619Y-34185714D01*
X126238096Y-34185714D01*
X126333334Y-34233333D01*
X126380953Y-34328571D01*
X126380953Y-34423810D01*
X125904762Y-34519048D01*
X126714286Y-34185714D02*
X126952381Y-34852381D01*
X127190477Y-34185714D01*
X128523810Y-33852381D02*
X128619049Y-33852381D01*
X128714287Y-33900000D01*
X128761906Y-33947619D01*
X128809525Y-34042857D01*
X128857144Y-34233333D01*
X128857144Y-34471429D01*
X128809525Y-34661905D01*
X128761906Y-34757143D01*
X128714287Y-34804762D01*
X128619049Y-34852381D01*
X128523810Y-34852381D01*
X128428572Y-34804762D01*
X128380953Y-34757143D01*
X128333334Y-34661905D01*
X128285715Y-34471429D01*
X128285715Y-34233333D01*
X128333334Y-34042857D01*
X128380953Y-33947619D01*
X128428572Y-33900000D01*
X128523810Y-33852381D01*
X129285715Y-34757143D02*
X129333334Y-34804762D01*
X129285715Y-34852381D01*
X129238096Y-34804762D01*
X129285715Y-34757143D01*
X129285715Y-34852381D01*
X130285715Y-34852381D02*
X129714286Y-34852381D01*
X130000000Y-34852381D02*
X130000000Y-33852381D01*
X129904762Y-33995238D01*
X129809524Y-34090476D01*
X129714286Y-34138095D01*
X104309523Y-36452381D02*
X104309523Y-35452381D01*
X104547618Y-35452381D01*
X104690476Y-35500000D01*
X104785714Y-35595238D01*
X104833333Y-35690476D01*
X104880952Y-35880952D01*
X104880952Y-36023810D01*
X104833333Y-36214286D01*
X104785714Y-36309524D01*
X104690476Y-36404762D01*
X104547618Y-36452381D01*
X104309523Y-36452381D01*
X105690476Y-36404762D02*
X105595238Y-36452381D01*
X105404761Y-36452381D01*
X105309523Y-36404762D01*
X105261904Y-36309524D01*
X105261904Y-35928571D01*
X105309523Y-35833333D01*
X105404761Y-35785714D01*
X105595238Y-35785714D01*
X105690476Y-35833333D01*
X105738095Y-35928571D01*
X105738095Y-36023810D01*
X105261904Y-36119048D01*
X106119047Y-36404762D02*
X106214285Y-36452381D01*
X106404761Y-36452381D01*
X106500000Y-36404762D01*
X106547619Y-36309524D01*
X106547619Y-36261905D01*
X106500000Y-36166667D01*
X106404761Y-36119048D01*
X106261904Y-36119048D01*
X106166666Y-36071429D01*
X106119047Y-35976190D01*
X106119047Y-35928571D01*
X106166666Y-35833333D01*
X106261904Y-35785714D01*
X106404761Y-35785714D01*
X106500000Y-35833333D01*
X106976190Y-36452381D02*
X106976190Y-35785714D01*
X106976190Y-35452381D02*
X106928571Y-35500000D01*
X106976190Y-35547619D01*
X107023809Y-35500000D01*
X106976190Y-35452381D01*
X106976190Y-35547619D01*
X107880952Y-35785714D02*
X107880952Y-36595238D01*
X107833333Y-36690476D01*
X107785714Y-36738095D01*
X107690475Y-36785714D01*
X107547618Y-36785714D01*
X107452380Y-36738095D01*
X107880952Y-36404762D02*
X107785714Y-36452381D01*
X107595237Y-36452381D01*
X107499999Y-36404762D01*
X107452380Y-36357143D01*
X107404761Y-36261905D01*
X107404761Y-35976190D01*
X107452380Y-35880952D01*
X107499999Y-35833333D01*
X107595237Y-35785714D01*
X107785714Y-35785714D01*
X107880952Y-35833333D01*
X108357142Y-35785714D02*
X108357142Y-36452381D01*
X108357142Y-35880952D02*
X108404761Y-35833333D01*
X108499999Y-35785714D01*
X108642857Y-35785714D01*
X108738095Y-35833333D01*
X108785714Y-35928571D01*
X108785714Y-36452381D01*
X109642857Y-36404762D02*
X109547619Y-36452381D01*
X109357142Y-36452381D01*
X109261904Y-36404762D01*
X109214285Y-36309524D01*
X109214285Y-35928571D01*
X109261904Y-35833333D01*
X109357142Y-35785714D01*
X109547619Y-35785714D01*
X109642857Y-35833333D01*
X109690476Y-35928571D01*
X109690476Y-36023810D01*
X109214285Y-36119048D01*
X110547619Y-36452381D02*
X110547619Y-35452381D01*
X110547619Y-36404762D02*
X110452381Y-36452381D01*
X110261904Y-36452381D01*
X110166666Y-36404762D01*
X110119047Y-36357143D01*
X110071428Y-36261905D01*
X110071428Y-35976190D01*
X110119047Y-35880952D01*
X110166666Y-35833333D01*
X110261904Y-35785714D01*
X110452381Y-35785714D01*
X110547619Y-35833333D01*
X112595238Y-36452381D02*
X112547619Y-36452381D01*
X112452381Y-36404762D01*
X112309524Y-36261905D01*
X112071429Y-35976190D01*
X111976190Y-35833333D01*
X111928571Y-35690476D01*
X111928571Y-35595238D01*
X111976190Y-35500000D01*
X112071429Y-35452381D01*
X112119048Y-35452381D01*
X112214286Y-35500000D01*
X112261905Y-35595238D01*
X112261905Y-35642857D01*
X112214286Y-35738095D01*
X112166667Y-35785714D01*
X111880952Y-35976190D01*
X111833333Y-36023810D01*
X111785714Y-36119048D01*
X111785714Y-36261905D01*
X111833333Y-36357143D01*
X111880952Y-36404762D01*
X111976190Y-36452381D01*
X112119048Y-36452381D01*
X112214286Y-36404762D01*
X112261905Y-36357143D01*
X112404762Y-36166667D01*
X112452381Y-36023810D01*
X112452381Y-35928571D01*
X113785714Y-36452381D02*
X113785714Y-35452381D01*
X114023809Y-35452381D01*
X114166667Y-35500000D01*
X114261905Y-35595238D01*
X114309524Y-35690476D01*
X114357143Y-35880952D01*
X114357143Y-36023810D01*
X114309524Y-36214286D01*
X114261905Y-36309524D01*
X114166667Y-36404762D01*
X114023809Y-36452381D01*
X113785714Y-36452381D01*
X114785714Y-36452381D02*
X114785714Y-35785714D01*
X114785714Y-35976190D02*
X114833333Y-35880952D01*
X114880952Y-35833333D01*
X114976190Y-35785714D01*
X115071429Y-35785714D01*
X115833334Y-36452381D02*
X115833334Y-35928571D01*
X115785715Y-35833333D01*
X115690477Y-35785714D01*
X115500000Y-35785714D01*
X115404762Y-35833333D01*
X115833334Y-36404762D02*
X115738096Y-36452381D01*
X115500000Y-36452381D01*
X115404762Y-36404762D01*
X115357143Y-36309524D01*
X115357143Y-36214286D01*
X115404762Y-36119048D01*
X115500000Y-36071429D01*
X115738096Y-36071429D01*
X115833334Y-36023810D01*
X116214286Y-35785714D02*
X116404762Y-36452381D01*
X116595239Y-35976190D01*
X116785715Y-36452381D01*
X116976191Y-35785714D01*
X117357143Y-35785714D02*
X117357143Y-36452381D01*
X117357143Y-35880952D02*
X117404762Y-35833333D01*
X117500000Y-35785714D01*
X117642858Y-35785714D01*
X117738096Y-35833333D01*
X117785715Y-35928571D01*
X117785715Y-36452381D01*
X119023810Y-36452381D02*
X119023810Y-35785714D01*
X119023810Y-35452381D02*
X118976191Y-35500000D01*
X119023810Y-35547619D01*
X119071429Y-35500000D01*
X119023810Y-35452381D01*
X119023810Y-35547619D01*
X119500000Y-35785714D02*
X119500000Y-36452381D01*
X119500000Y-35880952D02*
X119547619Y-35833333D01*
X119642857Y-35785714D01*
X119785715Y-35785714D01*
X119880953Y-35833333D01*
X119928572Y-35928571D01*
X119928572Y-36452381D01*
X121166667Y-36452381D02*
X121166667Y-35452381D01*
X121738096Y-36452381D02*
X121309524Y-35880952D01*
X121738096Y-35452381D02*
X121166667Y-36023810D01*
X122166667Y-36452381D02*
X122166667Y-35785714D01*
X122166667Y-35452381D02*
X122119048Y-35500000D01*
X122166667Y-35547619D01*
X122214286Y-35500000D01*
X122166667Y-35452381D01*
X122166667Y-35547619D01*
X123214286Y-36357143D02*
X123166667Y-36404762D01*
X123023810Y-36452381D01*
X122928572Y-36452381D01*
X122785714Y-36404762D01*
X122690476Y-36309524D01*
X122642857Y-36214286D01*
X122595238Y-36023810D01*
X122595238Y-35880952D01*
X122642857Y-35690476D01*
X122690476Y-35595238D01*
X122785714Y-35500000D01*
X122928572Y-35452381D01*
X123023810Y-35452381D01*
X123166667Y-35500000D01*
X123214286Y-35547619D01*
X123595238Y-36166667D02*
X124071429Y-36166667D01*
X123500000Y-36452381D02*
X123833333Y-35452381D01*
X124166667Y-36452381D01*
X124500000Y-36452381D02*
X124500000Y-35452381D01*
X124738095Y-35452381D01*
X124880953Y-35500000D01*
X124976191Y-35595238D01*
X125023810Y-35690476D01*
X125071429Y-35880952D01*
X125071429Y-36023810D01*
X125023810Y-36214286D01*
X124976191Y-36309524D01*
X124880953Y-36404762D01*
X124738095Y-36452381D01*
X124500000Y-36452381D01*
X126261905Y-36452381D02*
X126261905Y-35452381D01*
X126261905Y-35833333D02*
X126357143Y-35785714D01*
X126547620Y-35785714D01*
X126642858Y-35833333D01*
X126690477Y-35880952D01*
X126738096Y-35976190D01*
X126738096Y-36261905D01*
X126690477Y-36357143D01*
X126642858Y-36404762D01*
X126547620Y-36452381D01*
X126357143Y-36452381D01*
X126261905Y-36404762D01*
X127071429Y-35785714D02*
X127309524Y-36452381D01*
X127547620Y-35785714D02*
X127309524Y-36452381D01*
X127214286Y-36690476D01*
X127166667Y-36738095D01*
X127071429Y-36785714D01*
X128690477Y-36452381D02*
X128690477Y-35452381D01*
X128690477Y-35833333D02*
X128785715Y-35785714D01*
X128976192Y-35785714D01*
X129071430Y-35833333D01*
X129119049Y-35880952D01*
X129166668Y-35976190D01*
X129166668Y-36261905D01*
X129119049Y-36357143D01*
X129071430Y-36404762D01*
X128976192Y-36452381D01*
X128785715Y-36452381D01*
X128690477Y-36404762D01*
X129500001Y-35785714D02*
X129738096Y-36452381D01*
X129976192Y-35785714D02*
X129738096Y-36452381D01*
X129642858Y-36690476D01*
X129595239Y-36738095D01*
X129500001Y-36785714D01*
X131119049Y-36452381D02*
X131119049Y-35452381D01*
X131452383Y-36166667D01*
X131785716Y-35452381D01*
X131785716Y-36452381D01*
X132404763Y-36452381D02*
X132309525Y-36404762D01*
X132261906Y-36357143D01*
X132214287Y-36261905D01*
X132214287Y-35976190D01*
X132261906Y-35880952D01*
X132309525Y-35833333D01*
X132404763Y-35785714D01*
X132547621Y-35785714D01*
X132642859Y-35833333D01*
X132690478Y-35880952D01*
X132738097Y-35976190D01*
X132738097Y-36261905D01*
X132690478Y-36357143D01*
X132642859Y-36404762D01*
X132547621Y-36452381D01*
X132404763Y-36452381D01*
X133166668Y-36452381D02*
X133166668Y-35452381D01*
X133595240Y-36452381D02*
X133595240Y-35928571D01*
X133547621Y-35833333D01*
X133452383Y-35785714D01*
X133309525Y-35785714D01*
X133214287Y-35833333D01*
X133166668Y-35880952D01*
X134071430Y-36452381D02*
X134071430Y-35785714D01*
X134071430Y-35452381D02*
X134023811Y-35500000D01*
X134071430Y-35547619D01*
X134119049Y-35500000D01*
X134071430Y-35452381D01*
X134071430Y-35547619D01*
X134404763Y-35785714D02*
X134785715Y-35785714D01*
X134547620Y-35452381D02*
X134547620Y-36309524D01*
X134595239Y-36404762D01*
X134690477Y-36452381D01*
X134785715Y-36452381D01*
X135928573Y-35452381D02*
X135833335Y-35642857D01*
X136357144Y-36452381D02*
X136357144Y-35452381D01*
X136690478Y-36166667D01*
X137023811Y-35452381D01*
X137023811Y-36452381D01*
X137690477Y-35452381D02*
X137880954Y-35452381D01*
X137976192Y-35500000D01*
X138071430Y-35595238D01*
X138119049Y-35785714D01*
X138119049Y-36119048D01*
X138071430Y-36309524D01*
X137976192Y-36404762D01*
X137880954Y-36452381D01*
X137690477Y-36452381D01*
X137595239Y-36404762D01*
X137500001Y-36309524D01*
X137452382Y-36119048D01*
X137452382Y-35785714D01*
X137500001Y-35595238D01*
X137595239Y-35500000D01*
X137690477Y-35452381D01*
X138452382Y-35452381D02*
X139119049Y-35452381D01*
X138452382Y-36452381D01*
X139119049Y-36452381D01*
X139547620Y-35452381D02*
X139452382Y-35642857D01*
X141261906Y-35500000D02*
X141166668Y-35452381D01*
X141023811Y-35452381D01*
X140880953Y-35500000D01*
X140785715Y-35595238D01*
X140738096Y-35690476D01*
X140690477Y-35880952D01*
X140690477Y-36023810D01*
X140738096Y-36214286D01*
X140785715Y-36309524D01*
X140880953Y-36404762D01*
X141023811Y-36452381D01*
X141119049Y-36452381D01*
X141261906Y-36404762D01*
X141309525Y-36357143D01*
X141309525Y-36023810D01*
X141119049Y-36023810D01*
X142166668Y-36452381D02*
X142166668Y-35928571D01*
X142119049Y-35833333D01*
X142023811Y-35785714D01*
X141833334Y-35785714D01*
X141738096Y-35833333D01*
X142166668Y-36404762D02*
X142071430Y-36452381D01*
X141833334Y-36452381D01*
X141738096Y-36404762D01*
X141690477Y-36309524D01*
X141690477Y-36214286D01*
X141738096Y-36119048D01*
X141833334Y-36071429D01*
X142071430Y-36071429D01*
X142166668Y-36023810D01*
X142642858Y-36452381D02*
X142642858Y-35785714D01*
X142642858Y-35976190D02*
X142690477Y-35880952D01*
X142738096Y-35833333D01*
X142833334Y-35785714D01*
X142928573Y-35785714D01*
X143690478Y-35785714D02*
X143690478Y-36595238D01*
X143642859Y-36690476D01*
X143595240Y-36738095D01*
X143500001Y-36785714D01*
X143357144Y-36785714D01*
X143261906Y-36738095D01*
X143690478Y-36404762D02*
X143595240Y-36452381D01*
X143404763Y-36452381D01*
X143309525Y-36404762D01*
X143261906Y-36357143D01*
X143214287Y-36261905D01*
X143214287Y-35976190D01*
X143261906Y-35880952D01*
X143309525Y-35833333D01*
X143404763Y-35785714D01*
X143595240Y-35785714D01*
X143690478Y-35833333D01*
X114238095Y-37528571D02*
X114380952Y-37576190D01*
X114428571Y-37623810D01*
X114476190Y-37719048D01*
X114476190Y-37861905D01*
X114428571Y-37957143D01*
X114380952Y-38004762D01*
X114285714Y-38052381D01*
X113904761Y-38052381D01*
X113904761Y-37052381D01*
X114238095Y-37052381D01*
X114333333Y-37100000D01*
X114380952Y-37147619D01*
X114428571Y-37242857D01*
X114428571Y-37338095D01*
X114380952Y-37433333D01*
X114333333Y-37480952D01*
X114238095Y-37528571D01*
X113904761Y-37528571D01*
X115333333Y-38052381D02*
X115333333Y-37528571D01*
X115285714Y-37433333D01*
X115190476Y-37385714D01*
X114999999Y-37385714D01*
X114904761Y-37433333D01*
X115333333Y-38004762D02*
X115238095Y-38052381D01*
X114999999Y-38052381D01*
X114904761Y-38004762D01*
X114857142Y-37909524D01*
X114857142Y-37814286D01*
X114904761Y-37719048D01*
X114999999Y-37671429D01*
X115238095Y-37671429D01*
X115333333Y-37623810D01*
X115761904Y-38004762D02*
X115857142Y-38052381D01*
X116047618Y-38052381D01*
X116142857Y-38004762D01*
X116190476Y-37909524D01*
X116190476Y-37861905D01*
X116142857Y-37766667D01*
X116047618Y-37719048D01*
X115904761Y-37719048D01*
X115809523Y-37671429D01*
X115761904Y-37576190D01*
X115761904Y-37528571D01*
X115809523Y-37433333D01*
X115904761Y-37385714D01*
X116047618Y-37385714D01*
X116142857Y-37433333D01*
X117000000Y-38004762D02*
X116904762Y-38052381D01*
X116714285Y-38052381D01*
X116619047Y-38004762D01*
X116571428Y-37909524D01*
X116571428Y-37528571D01*
X116619047Y-37433333D01*
X116714285Y-37385714D01*
X116904762Y-37385714D01*
X117000000Y-37433333D01*
X117047619Y-37528571D01*
X117047619Y-37623810D01*
X116571428Y-37719048D01*
X117904762Y-38052381D02*
X117904762Y-37052381D01*
X117904762Y-38004762D02*
X117809524Y-38052381D01*
X117619047Y-38052381D01*
X117523809Y-38004762D01*
X117476190Y-37957143D01*
X117428571Y-37861905D01*
X117428571Y-37576190D01*
X117476190Y-37480952D01*
X117523809Y-37433333D01*
X117619047Y-37385714D01*
X117809524Y-37385714D01*
X117904762Y-37433333D01*
X119285714Y-38052381D02*
X119190476Y-38004762D01*
X119142857Y-37957143D01*
X119095238Y-37861905D01*
X119095238Y-37576190D01*
X119142857Y-37480952D01*
X119190476Y-37433333D01*
X119285714Y-37385714D01*
X119428572Y-37385714D01*
X119523810Y-37433333D01*
X119571429Y-37480952D01*
X119619048Y-37576190D01*
X119619048Y-37861905D01*
X119571429Y-37957143D01*
X119523810Y-38004762D01*
X119428572Y-38052381D01*
X119285714Y-38052381D01*
X120047619Y-37385714D02*
X120047619Y-38052381D01*
X120047619Y-37480952D02*
X120095238Y-37433333D01*
X120190476Y-37385714D01*
X120333334Y-37385714D01*
X120428572Y-37433333D01*
X120476191Y-37528571D01*
X120476191Y-38052381D01*
X121714286Y-38052381D02*
X121714286Y-37052381D01*
X122761905Y-37957143D02*
X122714286Y-38004762D01*
X122571429Y-38052381D01*
X122476191Y-38052381D01*
X122333333Y-38004762D01*
X122238095Y-37909524D01*
X122190476Y-37814286D01*
X122142857Y-37623810D01*
X122142857Y-37480952D01*
X122190476Y-37290476D01*
X122238095Y-37195238D01*
X122333333Y-37100000D01*
X122476191Y-37052381D01*
X122571429Y-37052381D01*
X122714286Y-37100000D01*
X122761905Y-37147619D01*
X123190476Y-37528571D02*
X123523810Y-37528571D01*
X123666667Y-38052381D02*
X123190476Y-38052381D01*
X123190476Y-37052381D01*
X123666667Y-37052381D01*
X124095238Y-38052381D02*
X124095238Y-37052381D01*
X124333333Y-37052381D01*
X124476191Y-37100000D01*
X124571429Y-37195238D01*
X124619048Y-37290476D01*
X124666667Y-37480952D01*
X124666667Y-37623810D01*
X124619048Y-37814286D01*
X124571429Y-37909524D01*
X124476191Y-38004762D01*
X124333333Y-38052381D01*
X124095238Y-38052381D01*
X125095238Y-37671429D02*
X125857143Y-37671429D01*
X126809524Y-38052381D02*
X126333333Y-38052381D01*
X126333333Y-37052381D01*
X128476191Y-38052381D02*
X128142857Y-37576190D01*
X127904762Y-38052381D02*
X127904762Y-37052381D01*
X128285715Y-37052381D01*
X128380953Y-37100000D01*
X128428572Y-37147619D01*
X128476191Y-37242857D01*
X128476191Y-37385714D01*
X128428572Y-37480952D01*
X128380953Y-37528571D01*
X128285715Y-37576190D01*
X127904762Y-37576190D01*
X129285715Y-38004762D02*
X129190477Y-38052381D01*
X129000000Y-38052381D01*
X128904762Y-38004762D01*
X128857143Y-37909524D01*
X128857143Y-37528571D01*
X128904762Y-37433333D01*
X129000000Y-37385714D01*
X129190477Y-37385714D01*
X129285715Y-37433333D01*
X129333334Y-37528571D01*
X129333334Y-37623810D01*
X128857143Y-37719048D01*
X129666667Y-37385714D02*
X129904762Y-38052381D01*
X130142858Y-37385714D01*
X131809525Y-38052381D02*
X131238096Y-38052381D01*
X131523810Y-38052381D02*
X131523810Y-37052381D01*
X131428572Y-37195238D01*
X131333334Y-37290476D01*
X131238096Y-37338095D01*
X132238096Y-37957143D02*
X132285715Y-38004762D01*
X132238096Y-38052381D01*
X132190477Y-38004762D01*
X132238096Y-37957143D01*
X132238096Y-38052381D01*
X133238096Y-38052381D02*
X132666667Y-38052381D01*
X132952381Y-38052381D02*
X132952381Y-37052381D01*
X132857143Y-37195238D01*
X132761905Y-37290476D01*
X132666667Y-37338095D01*
X134095239Y-38052381D02*
X134095239Y-37052381D01*
X134095239Y-38004762D02*
X134000001Y-38052381D01*
X133809524Y-38052381D01*
X133714286Y-38004762D01*
X133666667Y-37957143D01*
X133619048Y-37861905D01*
X133619048Y-37576190D01*
X133666667Y-37480952D01*
X133714286Y-37433333D01*
X133809524Y-37385714D01*
X134000001Y-37385714D01*
X134095239Y-37433333D01*
M02*
