M48
;DRILL file {KiCad 4.0.1-stable} date 2/1/2016 9:55:24 PM
;FORMAT={-:-/ absolute / metric / decimal}
FMAT,2
METRIC,TZ
T1C0.305
T2C0.400
T3C0.500
T4C0.600
T5C0.800
T6C1.000
T7C1.500
%
G90
G05
M71
T1
X24.714Y-94.056
X24.714Y-94.056
X25.552Y-41.351
X33.249Y-79.375
X33.363Y-54.191
X36.576Y-34.163
X37.16Y-56.172
X41.275Y-54.61
X42.291Y-74.803
X42.418Y-37.084
X42.926Y-31.725
X43.307Y-35.814
X45.085Y-33.782
X45.72Y-78.105
X46.66Y-31.953
X46.99Y-25.933
X47.363Y-38.142
X47.609Y-29.378
X48.387Y-99.187
X48.387Y-99.187
X49.403Y-118.364
X50.571Y-31.572
X50.698Y-30.531
X50.927Y-28.194
X51.435Y-29.591
X52.07Y-38.1
X52.832Y-53.213
X57.15Y-90.094
X57.531Y-38.227
X58.547Y-32.639
X58.547Y-38.735
X59.055Y-46.99
X59.563Y-24.892
X59.667Y-38.226
X60.692Y-38.782
X61.087Y-37.846
X61.087Y-42.926
X61.849Y-37.211
X61.849Y-44.577
X62.103Y-25.781
X62.484Y-38.354
X62.738Y-26.924
X63.17Y-25.07
X63.754Y-36.83
X64.77Y-36.068
X65.532Y-36.576
X65.597Y-24.957
X66.04Y-39.218
X67.564Y-61.354
X67.945Y-63.246
X68.442Y-61.887
X68.453Y-34.671
X68.834Y-50.673
X69.469Y-80.01
X70.206Y-35.154
X71.425Y-30.836
X71.501Y-50.927
X71.628Y-26.797
X71.647Y-29.083
X71.755Y-42.037
X72.187Y-32.233
X72.301Y-27.343
X72.365Y-33.071
X72.39Y-60.477
X72.492Y-29.083
X73.381Y-34.138
X73.66Y-58.547
X73.749Y-28.664
X73.838Y-33.376
X74.422Y-38.735
X74.676Y-33.503
X74.879Y-22.555
X75.184Y-45.466
X75.184Y-39.624
X75.76Y-37.913
X75.819Y-40.259
X76.015Y-109.093
X76.454Y-38.735
X77.724Y-56.769
X78.105Y-38.481
X78.384Y-34.265
X79.858Y-52.197
X81.407Y-44.221
X82.144Y-53.569
X83.02Y-31.712
X83.058Y-29.81
X83.287Y-54.635
X83.591Y-30.632
X84.29Y-45.077
X84.531Y-55.347
X85.471Y-65.151
X85.598Y-67.056
X86.487Y-77.851
X86.741Y-65.024
X87.122Y-63.5
X87.503Y-33.782
X88.138Y-63.5
X88.519Y-52.07
X89.891Y-26.276
X90.043Y-63.246
X90.678Y-62.23
X92.71Y-108.077
X96.647Y-37.821
X97.917Y-34.755
X98.933Y-66.294
X100.775Y-77.851
X100.927Y-36.182
X101.6Y-36.957
X104.242Y-95.123
X104.267Y-57.861
X104.775Y-102.108
X106.782Y-25.082
X108.204Y-60.579
X109.093Y-52.07
X109.842Y-42.659
X110.49Y-52.578
X110.617Y-44.196
X111.544Y-128.918
X112.179Y-37.211
X113.538Y-52.197
X113.627Y-31.61
X113.665Y-30.556
X114.704Y-29.845
X115.062Y-58.801
X115.075Y-28.651
X115.697Y-117.729
X116.84Y-111.76
X117.551Y-28.13
X118.935Y-30.912
X122.682Y-60.579
X123.317Y-115.697
X127.787Y-53.086
X131.077Y-32.61
X133.274Y-111.811
X133.731Y-72.644
X134.024Y-88.773
X134.62Y-113.411
X139.192Y-50.546
X140.081Y-47.656
X140.335Y-92.964
X140.335Y-109.728
T2
X113.2Y-25.8
X113.6Y-25.1
X114.4Y-25.1
X114.8Y-25.8
X115.2Y-25.1
X115.6Y-25.8
X116.4Y-25.8
X116.8Y-25.1
X117.2Y-25.8
X117.6Y-25.1
X118.4Y-25.1
X118.8Y-25.8
T5
X29.337Y-39.751
X31.718Y-77.851
X31.718Y-96.901
X31.718Y-115.951
X31.877Y-39.751
X34.1Y-58.501
X34.1Y-115.951
X34.258Y-77.851
X34.258Y-96.901
X34.258Y-115.951
X36.481Y-77.851
X36.64Y-58.501
X36.64Y-115.951
X39.021Y-77.851
X41.243Y-96.901
X43.783Y-96.901
X48.387Y-39.751
X50.927Y-39.751
X53.15Y-96.901
X53.15Y-115.951
X55.531Y-115.951
X55.69Y-96.901
X55.69Y-115.951
X57.912Y-58.501
X57.912Y-115.951
X58.071Y-115.951
X60.452Y-58.501
X60.452Y-115.951
X62.675Y-77.851
X65.215Y-77.851
X67.437Y-39.751
X69.977Y-39.751
X72.199Y-96.901
X72.199Y-115.951
X74.739Y-96.901
X74.739Y-115.951
X76.962Y-58.501
X76.962Y-115.951
X79.343Y-115.951
X79.502Y-58.501
X79.502Y-115.951
X81.725Y-77.851
X81.725Y-115.951
X81.883Y-115.951
X84.265Y-77.851
X84.265Y-115.951
X86.487Y-39.751
X89.027Y-39.751
X91.249Y-96.901
X93.631Y-115.951
X93.789Y-96.901
X96.012Y-58.801
X96.012Y-115.951
X96.171Y-115.951
X98.552Y-58.801
X98.552Y-115.951
X100.775Y-77.851
X100.775Y-115.951
X103.156Y-115.951
X103.315Y-77.851
X103.315Y-115.951
X105.537Y-39.751
X105.537Y-115.951
X105.696Y-115.951
X107.918Y-115.951
X108.077Y-39.751
X108.077Y-115.951
X110.3Y-96.901
X110.458Y-115.951
X112.84Y-96.901
X115.062Y-58.801
X117.443Y-115.951
X117.602Y-58.801
X119.824Y-77.851
X119.983Y-115.951
X122.364Y-77.851
X124.587Y-39.751
X127.127Y-39.751
X129.349Y-96.901
X131.731Y-115.951
X131.889Y-96.901
X134.112Y-58.801
X134.271Y-115.951
X136.493Y-115.951
X136.652Y-58.801
X138.874Y-77.851
X138.874Y-115.951
X139.033Y-115.951
X141.414Y-77.851
X141.414Y-115.951
X143.637Y-39.751
X146.177Y-39.751
X148.399Y-96.901
X148.399Y-115.951
X150.939Y-96.901
X150.939Y-115.951
T6
X57.404Y-73.66
X59.944Y-73.66
X62.484Y-73.66
X65.024Y-73.66
X67.564Y-73.66
X70.104Y-73.66
X72.644Y-73.66
X75.184Y-73.66
X77.724Y-73.66
X80.264Y-73.66
X82.804Y-73.66
X90.424Y-73.66
X92.964Y-73.66
X95.504Y-73.66
X98.044Y-73.66
T3
X111.51Y-18.95G85X111.51Y-19.55
G05
X111.87Y-24.9G85X111.87Y-25.5
G05
X120.13Y-24.9G85X120.13Y-25.5
G05
X120.49Y-18.95G85X120.49Y-19.55
G05
T4
X127.482Y-28.4G85X127.482Y-30.
G05
X143.282Y-28.4G85X143.282Y-30.
G05
T7
X28.067Y-49.91G85X28.107Y-49.332
G05
X30.448Y-88.01G85X30.488Y-87.432
G05
X30.448Y-107.06G85X30.488Y-106.482
G05
X30.448Y-126.11G85X30.488Y-125.532
G05
X32.83Y-68.96G85X32.87Y-68.382
G05
X32.83Y-126.11G85X32.87Y-125.532
G05
X33.607Y-48.831G85X34.417Y-47.371
G05
X35.272Y-88.111G85X36.728Y-85.489
G05
X35.988Y-105.981G85X36.798Y-104.521
G05
X35.988Y-125.031G85X36.798Y-123.571
G05
X38.37Y-67.881G85X39.18Y-66.421
G05
X38.37Y-125.031G85X39.18Y-123.571
G05
X39.973Y-107.06G85X40.013Y-106.482
G05
X40.751Y-86.931G85X41.561Y-85.471
G05
X45.513Y-105.981G85X46.323Y-104.521
G05
X47.117Y-49.91G85X47.157Y-49.332
G05
X51.88Y-107.06G85X51.92Y-106.482
G05
X51.88Y-126.11G85X51.92Y-125.532
G05
X52.657Y-48.831G85X53.467Y-47.371
G05
X54.261Y-126.11G85X54.301Y-125.532
G05
X56.642Y-68.89G85X56.682Y-68.312
G05
X56.952Y-125.967G85X58.248Y-123.633
G05
X57.42Y-105.981G85X58.23Y-104.521
G05
X59.801Y-125.031G85X60.611Y-123.571
G05
X61.405Y-88.01G85X61.445Y-87.432
G05
X62.182Y-67.811G85X62.992Y-66.351
G05
X62.195Y-125.031G85X63.005Y-123.571
G05
X66.167Y-49.91G85X66.207Y-49.332
G05
X66.945Y-86.931G85X67.755Y-85.471
G05
X70.929Y-107.06G85X70.969Y-106.482
G05
X70.929Y-126.11G85X70.969Y-125.532
G05
X71.707Y-48.831G85X72.517Y-47.371
G05
X75.692Y-68.96G85X75.732Y-68.382
G05
X75.852Y-125.867G85X77.148Y-123.533
G05
X76.469Y-105.981G85X77.279Y-104.521
G05
X78.073Y-126.11G85X78.113Y-125.532
G05
X80.455Y-88.01G85X80.495Y-87.432
G05
X80.852Y-125.867G85X82.148Y-123.533
G05
X81.232Y-67.881G85X82.042Y-66.421
G05
X83.495Y-125.031G85X84.305Y-123.571
G05
X85.217Y-49.91G85X85.257Y-49.332
G05
X85.995Y-86.931G85X86.805Y-85.471
G05
X86.095Y-125.031G85X86.905Y-123.571
G05
X89.979Y-107.06G85X90.019Y-106.482
G05
X90.757Y-48.831G85X91.567Y-47.371
G05
X92.361Y-126.11G85X92.401Y-125.532
G05
X94.742Y-68.96G85X94.782Y-68.382
G05
X94.742Y-126.11G85X94.782Y-125.532
G05
X95.519Y-105.981G85X96.329Y-104.521
G05
X97.901Y-125.031G85X98.711Y-123.571
G05
X99.505Y-88.01G85X99.545Y-87.432
G05
X99.752Y-125.867G85X101.048Y-123.533
G05
X100.282Y-67.881G85X101.092Y-66.421
G05
X101.78Y-126.11G85X101.82Y-125.532
G05
X104.267Y-49.91G85X104.307Y-49.332
G05
X104.552Y-125.867G85X105.848Y-123.533
G05
X105.045Y-86.931G85X105.855Y-85.471
G05
X106.652Y-125.967G85X107.948Y-123.633
G05
X109.03Y-107.06G85X109.07Y-106.482
G05
X109.807Y-48.831G85X110.617Y-47.371
G05
X110.095Y-125.031G85X110.905Y-123.571
G05
X112.188Y-125.031G85X112.998Y-123.571
G05
X113.792Y-68.96G85X113.832Y-68.382
G05
X114.57Y-105.981G85X115.38Y-104.521
G05
X116.173Y-126.11G85X116.213Y-125.532
G05
X118.554Y-88.01G85X118.594Y-87.432
G05
X119.332Y-67.881G85X120.142Y-66.421
G05
X121.713Y-125.031G85X122.523Y-123.571
G05
X123.317Y-49.91G85X123.357Y-49.332
G05
X124.094Y-86.931G85X124.904Y-85.471
G05
X128.079Y-107.06G85X128.119Y-106.482
G05
X128.857Y-48.831G85X129.667Y-47.371
G05
X130.461Y-126.11G85X130.501Y-125.532
G05
X132.842Y-68.96G85X132.882Y-68.382
G05
X133.619Y-105.981G85X134.429Y-104.521
G05
X135.272Y-126.311G85X136.728Y-123.689
G05
X137.604Y-88.01G85X137.644Y-87.432
G05
X137.604Y-126.11G85X137.644Y-125.532
G05
X138.382Y-67.881G85X139.192Y-66.421
G05
X140.763Y-125.031G85X141.573Y-123.571
G05
X142.367Y-49.91G85X142.407Y-49.332
G05
X143.144Y-86.931G85X143.954Y-85.471
G05
X143.144Y-125.031G85X143.954Y-123.571
G05
X147.129Y-107.06G85X147.169Y-106.482
G05
X147.129Y-126.11G85X147.169Y-125.532
G05
X147.907Y-48.831G85X148.717Y-47.371
G05
X152.669Y-105.981G85X153.479Y-104.521
G05
X152.669Y-125.031G85X153.479Y-123.571
G05
T0
M30
