G04 #@! TF.FileFunction,Paste,Bot*
%FSLAX46Y46*%
G04 Gerber Fmt 4.6, Leading zero omitted, Abs format (unit mm)*
G04 Created by KiCad (PCBNEW 4.0.1-stable) date 2/1/2016 10:13:23 PM*
%MOMM*%
G01*
G04 APERTURE LIST*
%ADD10C,0.150000*%
%ADD11R,1.000000X1.250000*%
%ADD12R,1.250000X1.000000*%
%ADD13R,0.850900X1.000760*%
%ADD14R,1.800000X1.100000*%
%ADD15R,1.800860X1.597660*%
%ADD16R,1.430000X0.400000*%
%ADD17R,0.300000X1.500000*%
%ADD18R,1.500000X0.300000*%
%ADD19R,1.200000X1.400000*%
%ADD20R,1.597660X1.800860*%
%ADD21O,1.800000X3.500000*%
%ADD22R,0.700000X1.800000*%
%ADD23R,1.640000X2.200000*%
%ADD24R,0.300000X0.700000*%
%ADD25R,0.950000X1.900000*%
%ADD26R,3.250000X1.900000*%
G04 APERTURE END LIST*
D10*
D11*
X47974000Y-36703000D03*
X45974000Y-36703000D03*
D12*
X96570800Y-33054800D03*
X96570800Y-31054800D03*
D11*
X58690000Y-23876000D03*
X60690000Y-23876000D03*
D12*
X85217000Y-27416000D03*
X85217000Y-25416000D03*
D13*
X103696000Y-43078400D03*
X103696000Y-46578520D03*
D14*
X34619000Y-35301800D03*
X34619000Y-31601800D03*
X40819000Y-35301800D03*
X40819000Y-31601800D03*
D15*
X126111000Y-55349140D03*
X126111000Y-58188860D03*
D16*
X56500000Y-26128000D03*
X56500000Y-26778000D03*
X56500000Y-27428000D03*
X56500000Y-28078000D03*
X56500000Y-28728000D03*
X56500000Y-29378000D03*
X56500000Y-30028000D03*
X56500000Y-30678000D03*
X56500000Y-31328000D03*
X56500000Y-31978000D03*
X56500000Y-32628000D03*
X56500000Y-33278000D03*
X56500000Y-33928000D03*
X56500000Y-34578000D03*
X48910000Y-34578000D03*
X48910000Y-33928000D03*
X48910000Y-33278000D03*
X48910000Y-32628000D03*
X48910000Y-31978000D03*
X48910000Y-31328000D03*
X48910000Y-30678000D03*
X48910000Y-30028000D03*
X48910000Y-29378000D03*
X48910000Y-28728000D03*
X48910000Y-28078000D03*
X48910000Y-27428000D03*
X48910000Y-26778000D03*
X48910000Y-26128000D03*
D17*
X71815000Y-24603000D03*
X72315000Y-24603000D03*
X72815000Y-24603000D03*
X73315000Y-24603000D03*
X73815000Y-24603000D03*
X74315000Y-24603000D03*
X74815000Y-24603000D03*
X75315000Y-24603000D03*
X75815000Y-24603000D03*
X76315000Y-24603000D03*
X76815000Y-24603000D03*
X77315000Y-24603000D03*
X77815000Y-24603000D03*
X78315000Y-24603000D03*
X78815000Y-24603000D03*
X79315000Y-24603000D03*
D18*
X81315000Y-26603000D03*
X81315000Y-27103000D03*
X81315000Y-27603000D03*
X81315000Y-28103000D03*
X81315000Y-28603000D03*
X81315000Y-29103000D03*
X81315000Y-29603000D03*
X81315000Y-30103000D03*
X81315000Y-30603000D03*
X81315000Y-31103000D03*
X81315000Y-31603000D03*
X81315000Y-32103000D03*
X81315000Y-32603000D03*
X81315000Y-33103000D03*
X81315000Y-33603000D03*
X81315000Y-34103000D03*
D17*
X79315000Y-36103000D03*
X78815000Y-36103000D03*
X78315000Y-36103000D03*
X77815000Y-36103000D03*
X77315000Y-36103000D03*
X76815000Y-36103000D03*
X76315000Y-36103000D03*
X75815000Y-36103000D03*
X75315000Y-36103000D03*
X74815000Y-36103000D03*
X74315000Y-36103000D03*
X73815000Y-36103000D03*
X73315000Y-36103000D03*
X72815000Y-36103000D03*
X72315000Y-36103000D03*
X71815000Y-36103000D03*
D18*
X69815000Y-34103000D03*
X69815000Y-33603000D03*
X69815000Y-33103000D03*
X69815000Y-32603000D03*
X69815000Y-32103000D03*
X69815000Y-31603000D03*
X69815000Y-31103000D03*
X69815000Y-30603000D03*
X69815000Y-30103000D03*
X69815000Y-29603000D03*
X69815000Y-29103000D03*
X69815000Y-28603000D03*
X69815000Y-28103000D03*
X69815000Y-27603000D03*
X69815000Y-27103000D03*
X69815000Y-26603000D03*
D19*
X82385000Y-39581000D03*
X83985000Y-39581000D03*
X83985000Y-37381000D03*
X82385000Y-37381000D03*
D13*
X29877000Y-81178400D03*
X29877000Y-84678520D03*
X60834000Y-81178400D03*
X60834000Y-84678520D03*
X79884000Y-81178400D03*
X79884000Y-84678520D03*
X98934000Y-81178400D03*
X98934000Y-84678520D03*
X118000000Y-81178400D03*
X118000000Y-84678520D03*
X137033000Y-81178400D03*
X137033000Y-84678520D03*
X32260000Y-62128400D03*
X32260000Y-65628520D03*
X56071000Y-62058400D03*
X56071000Y-65558520D03*
X75121000Y-62128400D03*
X75121000Y-65628520D03*
X113221000Y-62128400D03*
X113221000Y-65628520D03*
X132267000Y-62128400D03*
X132267000Y-65628520D03*
X27495500Y-43078400D03*
X27495500Y-46578520D03*
X46545500Y-43078400D03*
X46545500Y-46578520D03*
X122746000Y-43078400D03*
X122746000Y-46578520D03*
X84645500Y-43078400D03*
X84645500Y-46578520D03*
X65595500Y-43078400D03*
X65595500Y-46578520D03*
X94171000Y-62128400D03*
X94171000Y-65628520D03*
X25654000Y-119151400D03*
X25654000Y-122651520D03*
X46824900Y-120307100D03*
X46824900Y-123807220D03*
X70345300Y-119468900D03*
X70345300Y-122969020D03*
X89357200Y-124071380D03*
X89357200Y-127571500D03*
X129921000Y-118897400D03*
X129921000Y-122397520D03*
X141796000Y-43078400D03*
X141796000Y-46578520D03*
X29877000Y-100228400D03*
X29877000Y-103728520D03*
X51310000Y-100228400D03*
X51310000Y-103728520D03*
X70358000Y-100228400D03*
X70358000Y-103728520D03*
X89408000Y-100228400D03*
X89408000Y-103728520D03*
X108460000Y-100228400D03*
X108460000Y-103728520D03*
X127508000Y-100228400D03*
X127508000Y-103728520D03*
X146558000Y-100228400D03*
X146558000Y-103728520D03*
D15*
X85217000Y-32407860D03*
X85217000Y-29568140D03*
X130937000Y-72240140D03*
X130937000Y-75079860D03*
D20*
X113433860Y-111379000D03*
X110594140Y-111379000D03*
X137055860Y-110109000D03*
X134216140Y-110109000D03*
X44599860Y-111633000D03*
X41760140Y-111633000D03*
X66189860Y-111633000D03*
X63350140Y-111633000D03*
X90192860Y-111379000D03*
X87353140Y-111379000D03*
X76603860Y-53848000D03*
X73764140Y-53848000D03*
D15*
X138049000Y-91417140D03*
X138049000Y-94256860D03*
D20*
X117243860Y-49911000D03*
X114404140Y-49911000D03*
X58442860Y-53975000D03*
X55603140Y-53975000D03*
X135658860Y-49149000D03*
X132819140Y-49149000D03*
D15*
X45466000Y-71605140D03*
X45466000Y-74444860D03*
D20*
X99463860Y-50546000D03*
X96624140Y-50546000D03*
D15*
X45085000Y-92986860D03*
X45085000Y-90147140D03*
X44704000Y-55222140D03*
X44704000Y-58061860D03*
D12*
X83312000Y-32782000D03*
X83312000Y-34782000D03*
X88036400Y-32521400D03*
X88036400Y-30521400D03*
X68986400Y-23130000D03*
X68986400Y-25130000D03*
D11*
X60690000Y-25908000D03*
X58690000Y-25908000D03*
X58690000Y-30480000D03*
X60690000Y-30480000D03*
X60690000Y-27940000D03*
X58690000Y-27940000D03*
D12*
X117894100Y-29822900D03*
X117894100Y-31822900D03*
X120040400Y-29835600D03*
X120040400Y-31835600D03*
X78867000Y-39640000D03*
X78867000Y-41640000D03*
D11*
X73390000Y-38481000D03*
X71390000Y-38481000D03*
D12*
X66802000Y-35830000D03*
X66802000Y-37830000D03*
X68834000Y-35830000D03*
X68834000Y-37830000D03*
D11*
X44355000Y-28956000D03*
X46355000Y-28956000D03*
X44339000Y-30734000D03*
X46339000Y-30734000D03*
D12*
X46736000Y-34909000D03*
X46736000Y-32909000D03*
D21*
X143282000Y-29200000D03*
X127482000Y-29200000D03*
D22*
X135382000Y-30100000D03*
X136382000Y-30100000D03*
X137382000Y-30100000D03*
X138382000Y-30100000D03*
X139382000Y-30100000D03*
X134382000Y-30100000D03*
X133382000Y-30100000D03*
X132382000Y-30100000D03*
X131382000Y-30100000D03*
D23*
X143052000Y-25200000D03*
X127712000Y-25200000D03*
D12*
X115785900Y-31822900D03*
X115785900Y-29822900D03*
X108877100Y-25174700D03*
X108877100Y-27174700D03*
D24*
X118750000Y-27110000D03*
X118250000Y-27110000D03*
X117750000Y-27110000D03*
X117250000Y-27110000D03*
X116750000Y-27110000D03*
X116250000Y-27110000D03*
X115750000Y-27110000D03*
X115250000Y-27110000D03*
X114750000Y-27110000D03*
X114250000Y-27110000D03*
X113750000Y-27110000D03*
X113250000Y-27110000D03*
D25*
X91998800Y-32564800D03*
X89698800Y-32564800D03*
X94298800Y-32564800D03*
D26*
X91998800Y-26464800D03*
M02*
