M48
;DRILL file {KiCad 4.0.1-stable} date 2/1/2016 9:56:52 PM
;FORMAT={-:-/ absolute / metric / decimal}
FMAT,2
METRIC,TZ
T1C0.305
T2C0.400
T3C0.500
T4C0.600
T5C0.800
T6C1.000
T7C1.500
%
G90
G05
M71
T1
X18.11Y-59.436
X22.733Y-77.343
X24.05Y-56.715
X25.781Y-86.741
X28.702Y-58.674
X30.937Y-93.345
X31.066Y-32.935
X31.369Y-34.036
X31.648Y-98.552
X32.512Y-37.084
X32.766Y-91.948
X33.909Y-77.089
X34.163Y-54.102
X35.23Y-98.755
X35.306Y-95.631
X35.509Y-82.194
X36.195Y-108.077
X36.576Y-34.163
X36.83Y-109.601
X38.227Y-36.83
X39.243Y-70.866
X42.926Y-31.725
X43.307Y-35.814
X44.577Y-74.422
X45.085Y-33.782
X46.66Y-31.953
X47.363Y-38.142
X47.609Y-29.378
X47.625Y-66.929
X49.276Y-76.835
X49.403Y-118.626
X49.53Y-58.674
X50.419Y-54.61
X50.571Y-31.572
X50.698Y-30.531
X50.927Y-28.194
X51.435Y-29.591
X52.07Y-38.1
X52.832Y-53.213
X52.832Y-99.568
X54.483Y-27.559
X55.753Y-78.78
X57.023Y-108.844
X57.531Y-38.227
X58.547Y-32.639
X58.547Y-38.735
X58.801Y-39.929
X58.966Y-56.083
X59.055Y-46.99
X59.563Y-24.892
X59.667Y-38.226
X60.692Y-38.782
X60.96Y-42.037
X61.087Y-37.846
X61.824Y-70.155
X61.849Y-37.211
X61.849Y-44.577
X61.976Y-62.484
X61.979Y-58.953
X62.103Y-25.781
X62.484Y-38.354
X62.738Y-26.924
X62.865Y-58.42
X63.17Y-25.07
X63.754Y-36.83
X64.77Y-36.068
X64.834Y-105.219
X65.532Y-36.576
X65.597Y-24.957
X66.04Y-39.218
X67.564Y-61.354
X67.564Y-41.402
X67.945Y-63.246
X68.326Y-80.126
X68.442Y-61.887
X68.453Y-34.671
X68.834Y-49.784
X70.206Y-35.154
X71.425Y-30.836
X71.647Y-29.083
X71.806Y-26.543
X71.882Y-51.816
X72.187Y-32.233
X72.365Y-33.071
X72.39Y-60.477
X72.492Y-29.083
X73.381Y-34.138
X73.749Y-28.664
X73.762Y-27.813
X73.838Y-33.376
X74.422Y-38.735
X74.676Y-33.503
X74.879Y-22.555
X75.151Y-45.499
X75.184Y-39.624
X75.565Y-53.848
X75.565Y-51.562
X75.76Y-37.913
X75.819Y-40.259
X76.358Y-37.441
X76.962Y-38.735
X77.089Y-37.719
X77.724Y-56.769
X78.105Y-38.481
X78.384Y-34.265
X81.407Y-44.221
X82.169Y-47.115
X82.846Y-51.901
X83.109Y-31.725
X83.185Y-29.718
X83.693Y-52.705
X83.871Y-30.531
X83.871Y-30.531
X84.582Y-53.467
X85.471Y-65.151
X85.598Y-67.056
X86.233Y-53.086
X86.741Y-65.024
X87.122Y-63.5
X87.503Y-33.782
X88.011Y-50.419
X88.138Y-63.5
X88.773Y-54.813
X89.027Y-110.363
X89.891Y-26.441
X90.043Y-63.246
X90.678Y-62.23
X92.799Y-111.468
X94.234Y-63.881
X96.355Y-53.708
X96.647Y-37.821
X97.282Y-67.564
X97.434Y-34.272
X99.06Y-112.635
X99.136Y-114.338
X99.568Y-35.865
X100.203Y-36.703
X101.981Y-50.546
X102.489Y-58.801
X104.838Y-42.862
X104.889Y-26.975
X107.442Y-69.71
X107.442Y-76.581
X108.204Y-60.579
X109.22Y-25.286
X110.617Y-44.196
X111.252Y-57.912
X112.395Y-94.488
X113.081Y-56.769
X113.17Y-33.782
X113.995Y-114.325
X114.681Y-29.756
X114.808Y-111.125
X115.659Y-32.08
X116.167Y-29.235
X116.614Y-28.469
X119.189Y-28.308
X120.358Y-30.95
X121.412Y-53.975
X121.412Y-58.801
X123.241Y-27.241
X139.027Y-34.971
X141.859Y-79.566
X144.196Y-98.59
X151.384Y-53.848
X153.162Y-56.007
X173.101Y-81.788
X174.142Y-53.962
X174.6Y-103.124
X175.057Y-82.664
X175.374Y-109.207
X175.641Y-56.769
T2
X114.7Y-25.968
X115.1Y-25.268
X115.9Y-25.268
X116.3Y-25.968
X116.7Y-25.268
X117.1Y-25.968
X117.9Y-25.968
X118.3Y-25.268
X118.7Y-25.968
X119.1Y-25.268
X119.9Y-25.268
X120.3Y-25.968
T5
X19.812Y-58.801
X22.352Y-58.801
X24.574Y-77.851
X27.114Y-77.851
X29.337Y-39.751
X31.877Y-39.751
X34.1Y-96.901
X36.64Y-96.901
X38.862Y-58.801
X41.402Y-58.801
X43.625Y-77.851
X43.625Y-115.951
X46.006Y-115.951
X46.165Y-77.851
X46.165Y-115.951
X48.387Y-39.751
X48.546Y-115.951
X50.768Y-115.951
X50.927Y-39.751
X53.15Y-96.901
X53.308Y-115.951
X55.69Y-96.901
X57.912Y-58.801
X60.452Y-58.801
X62.675Y-77.851
X65.215Y-77.851
X67.437Y-39.751
X69.977Y-39.751
X72.199Y-96.901
X74.581Y-115.951
X74.739Y-96.901
X76.962Y-58.801
X76.962Y-115.951
X77.121Y-115.951
X79.343Y-115.951
X79.502Y-58.801
X79.502Y-115.951
X81.725Y-77.851
X81.725Y-115.951
X81.883Y-115.951
X84.265Y-77.851
X84.265Y-115.951
X86.487Y-39.751
X86.487Y-115.951
X88.868Y-115.951
X89.027Y-39.751
X89.027Y-115.951
X91.249Y-96.901
X91.249Y-115.951
X91.408Y-115.951
X93.789Y-96.901
X93.789Y-115.951
X96.012Y-58.801
X98.393Y-115.951
X98.552Y-58.801
X100.775Y-77.851
X100.933Y-115.951
X103.156Y-115.951
X103.315Y-77.851
X105.537Y-39.751
X105.537Y-115.951
X105.696Y-115.951
X108.077Y-39.751
X108.077Y-115.951
X110.3Y-96.901
X110.3Y-115.951
X112.681Y-115.951
X112.84Y-96.901
X112.84Y-115.951
X115.062Y-58.801
X115.221Y-115.951
X117.602Y-58.801
X119.824Y-77.851
X119.824Y-115.951
X122.206Y-115.951
X122.364Y-77.851
X122.364Y-115.951
X124.587Y-39.751
X124.587Y-115.951
X124.746Y-115.951
X127.127Y-39.751
X127.127Y-115.951
X134.112Y-58.801
X136.493Y-96.901
X136.493Y-115.951
X136.652Y-58.801
X138.874Y-77.851
X139.033Y-96.901
X139.033Y-115.951
X141.414Y-77.851
X143.637Y-39.751
X143.637Y-115.951
X146.018Y-96.901
X146.177Y-39.751
X146.177Y-115.951
X148.558Y-96.901
X150.781Y-77.851
X153.162Y-39.751
X153.321Y-77.851
X155.702Y-39.751
X156.496Y-72.136
X156.496Y-74.676
X157.924Y-58.801
X160.306Y-77.851
X160.306Y-115.951
X160.464Y-58.801
X162.687Y-39.751
X162.687Y-96.901
X162.687Y-115.951
X162.846Y-77.851
X162.846Y-115.951
X165.227Y-39.751
X165.227Y-96.901
X165.227Y-115.951
X181.737Y-39.751
X181.737Y-58.801
X181.737Y-77.851
X181.737Y-96.901
X181.737Y-115.951
X184.277Y-39.751
X184.277Y-58.801
X184.277Y-77.851
X184.277Y-96.901
X184.277Y-115.951
T6
X57.404Y-73.66
X59.944Y-73.66
X62.484Y-73.66
X65.024Y-73.66
X67.564Y-73.66
X70.104Y-73.66
X72.644Y-73.66
X75.184Y-73.66
X77.724Y-73.66
X80.264Y-73.66
X82.804Y-73.66
X90.424Y-73.66
X92.964Y-73.66
X95.504Y-73.66
X98.044Y-73.66
T7
X116.459Y-125.031
X117.969Y-123.371
X126.084Y-125.031
X127.394Y-123.571
X128.8Y-125.4
X129.775Y-123.571
T3
X113.01Y-19.118G85X113.01Y-19.718
G05
X113.37Y-25.068G85X113.37Y-25.668
G05
X121.63Y-25.068G85X121.63Y-25.668
G05
X121.99Y-19.118G85X121.99Y-19.718
G05
T4
X128.982Y-28.4G85X128.982Y-30.
G05
X144.782Y-28.4G85X144.782Y-30.
G05
T7
X18.542Y-68.96G85X18.582Y-68.382
G05
X23.304Y-88.01G85X23.344Y-87.432
G05
X24.082Y-67.881G85X24.892Y-66.421
G05
X28.067Y-49.91G85X28.107Y-49.332
G05
X28.844Y-86.931G85X29.654Y-85.471
G05
X32.83Y-107.06G85X32.87Y-106.482
G05
X33.607Y-48.831G85X34.417Y-47.371
G05
X37.592Y-68.89G85X37.632Y-68.312
G05
X38.37Y-105.981G85X39.18Y-104.521
G05
X42.355Y-88.01G85X42.395Y-87.432
G05
X42.355Y-126.11G85X42.395Y-125.532
G05
X43.132Y-67.811G85X43.942Y-66.351
G05
X44.736Y-126.11G85X44.776Y-125.532
G05
X47.117Y-49.91G85X47.157Y-49.332
G05
X47.895Y-86.931G85X48.705Y-85.471
G05
X47.895Y-125.031G85X48.705Y-123.571
G05
X49.572Y-126.211G85X51.028Y-123.589
G05
X51.88Y-107.06G85X51.92Y-106.482
G05
X52.657Y-48.831G85X53.467Y-47.371
G05
X55.038Y-125.031G85X55.848Y-123.571
G05
X56.642Y-68.96G85X56.682Y-68.382
G05
X57.42Y-105.981G85X58.23Y-104.521
G05
X61.405Y-88.01G85X61.445Y-87.432
G05
X62.182Y-67.881G85X62.992Y-66.421
G05
X66.167Y-49.91G85X66.207Y-49.332
G05
X66.945Y-86.931G85X67.755Y-85.471
G05
X70.929Y-107.06G85X70.969Y-106.482
G05
X71.707Y-48.831G85X72.517Y-47.371
G05
X73.311Y-126.11G85X73.351Y-125.532
G05
X75.692Y-68.96G85X75.732Y-68.382
G05
X75.692Y-126.11G85X75.732Y-125.532
G05
X76.469Y-105.981G85X77.279Y-104.521
G05
X78.452Y-125.967G85X79.748Y-123.633
G05
X80.455Y-88.01G85X80.495Y-87.432
G05
X80.509Y-126.211G85X81.965Y-123.589
G05
X81.232Y-67.881G85X82.042Y-66.421
G05
X83.895Y-125.031G85X84.705Y-123.571
G05
X85.217Y-49.91G85X85.257Y-49.332
G05
X85.272Y-126.211G85X86.728Y-123.589
G05
X85.995Y-86.931G85X86.805Y-85.471
G05
X87.598Y-126.11G85X87.638Y-125.532
G05
X89.979Y-107.06G85X90.019Y-106.482
G05
X89.934Y-126.211G85X91.39Y-123.589
G05
X90.757Y-48.831G85X91.567Y-47.371
G05
X93.238Y-125.031G85X94.048Y-123.571
G05
X94.742Y-68.96G85X94.782Y-68.382
G05
X95.219Y-125.031G85X96.029Y-123.571
G05
X95.519Y-105.981G85X96.329Y-104.521
G05
X97.423Y-126.11G85X97.463Y-125.532
G05
X99.505Y-88.01G85X99.545Y-87.432
G05
X100.282Y-67.881G85X101.092Y-66.421
G05
X101.828Y-126.211G85X103.284Y-123.589
G05
X104.267Y-49.91G85X104.307Y-49.332
G05
X104.267Y-126.11G85X104.307Y-125.532
G05
X105.045Y-86.931G85X105.855Y-85.471
G05
X107.426Y-125.031G85X108.236Y-123.571
G05
X109.03Y-107.06G85X109.07Y-106.482
G05
X108.972Y-126.211G85X110.428Y-123.589
G05
X109.807Y-48.831G85X110.617Y-47.371
G05
X111.411Y-126.11G85X111.451Y-125.532
G05
X113.792Y-68.96G85X113.832Y-68.382
G05
X114.57Y-105.981G85X115.38Y-104.521
G05
X114.57Y-125.031G85X115.38Y-123.571
G05
X118.554Y-88.01G85X118.594Y-87.432
G05
X118.68Y-126.11G85X118.72Y-125.532
G05
X119.332Y-67.881G85X120.142Y-66.421
G05
X120.736Y-126.11G85X120.776Y-125.532
G05
X123.317Y-49.91G85X123.357Y-49.332
G05
X123.551Y-125.967G85X124.847Y-123.633
G05
X124.094Y-86.931G85X124.904Y-85.471
G05
X128.857Y-48.831G85X129.667Y-47.371
G05
X132.842Y-68.96G85X132.882Y-68.382
G05
X135.223Y-107.06G85X135.263Y-106.482
G05
X135.223Y-126.11G85X135.263Y-125.532
G05
X137.604Y-88.01G85X137.644Y-87.432
G05
X138.382Y-67.881G85X139.192Y-66.421
G05
X140.763Y-105.981G85X141.573Y-104.521
G05
X140.763Y-125.031G85X141.573Y-123.571
G05
X142.367Y-49.91G85X142.407Y-49.332
G05
X142.367Y-126.11G85X142.407Y-125.532
G05
X143.144Y-86.931G85X143.954Y-85.471
G05
X144.748Y-107.06G85X144.788Y-106.482
G05
X147.907Y-48.831G85X148.717Y-47.371
G05
X147.907Y-125.031G85X148.717Y-123.571
G05
X149.511Y-88.01G85X149.551Y-87.432
G05
X150.288Y-105.981G85X151.098Y-104.521
G05
X151.892Y-49.91G85X151.932Y-49.332
G05
X155.051Y-86.931G85X155.861Y-85.471
G05
X156.654Y-69.087G85X156.694Y-68.509
G05
X157.432Y-48.831G85X158.242Y-47.371
G05
X159.036Y-88.01G85X159.076Y-87.432
G05
X159.036Y-126.11G85X159.076Y-125.532
G05
X161.417Y-49.91G85X161.457Y-49.332
G05
X161.417Y-107.06G85X161.457Y-106.482
G05
X161.417Y-126.11G85X161.457Y-125.532
G05
X162.194Y-68.008G85X163.004Y-66.548
G05
X165.576Y-70.406G85X164.116Y-69.596
G05
X164.576Y-86.931G85X165.386Y-85.471
G05
X164.576Y-125.031G85X165.386Y-123.571
G05
X166.655Y-75.946G85X166.077Y-75.906
G05
X166.957Y-48.831G85X167.767Y-47.371
G05
X166.957Y-105.981G85X167.767Y-104.521
G05
X166.957Y-125.031G85X167.767Y-123.571
G05
X180.467Y-49.91G85X180.507Y-49.332
G05
X180.467Y-68.96G85X180.507Y-68.382
G05
X180.467Y-88.01G85X180.507Y-87.432
G05
X180.467Y-107.06G85X180.507Y-106.482
G05
X180.467Y-126.11G85X180.507Y-125.532
G05
X186.007Y-48.831G85X186.817Y-47.371
G05
X186.007Y-67.881G85X186.817Y-66.421
G05
X186.007Y-86.931G85X186.817Y-85.471
G05
X186.007Y-105.981G85X186.817Y-104.521
G05
X186.007Y-125.031G85X186.817Y-123.571
G05
T0
M30
