G04 #@! TF.FileFunction,Legend,Top*
%FSLAX46Y46*%
G04 Gerber Fmt 4.6, Leading zero omitted, Abs format (unit mm)*
G04 Created by KiCad (PCBNEW 4.0.1-stable) date 2/1/2016 10:06:34 PM*
%MOMM*%
G01*
G04 APERTURE LIST*
%ADD10C,0.150000*%
%ADD11C,0.200000*%
G04 APERTURE END LIST*
D10*
D11*
X114523809Y-34352381D02*
X115095238Y-34352381D01*
X114809523Y-35352381D02*
X114809523Y-34352381D01*
X115380952Y-35304762D02*
X115523809Y-35352381D01*
X115761905Y-35352381D01*
X115857143Y-35304762D01*
X115904762Y-35257143D01*
X115952381Y-35161905D01*
X115952381Y-35066667D01*
X115904762Y-34971429D01*
X115857143Y-34923810D01*
X115761905Y-34876190D01*
X115571428Y-34828571D01*
X115476190Y-34780952D01*
X115428571Y-34733333D01*
X115380952Y-34638095D01*
X115380952Y-34542857D01*
X115428571Y-34447619D01*
X115476190Y-34400000D01*
X115571428Y-34352381D01*
X115809524Y-34352381D01*
X115952381Y-34400000D01*
X116809524Y-34352381D02*
X116619047Y-34352381D01*
X116523809Y-34400000D01*
X116476190Y-34447619D01*
X116380952Y-34590476D01*
X116333333Y-34780952D01*
X116333333Y-35161905D01*
X116380952Y-35257143D01*
X116428571Y-35304762D01*
X116523809Y-35352381D01*
X116714286Y-35352381D01*
X116809524Y-35304762D01*
X116857143Y-35257143D01*
X116904762Y-35161905D01*
X116904762Y-34923810D01*
X116857143Y-34828571D01*
X116809524Y-34780952D01*
X116714286Y-34733333D01*
X116523809Y-34733333D01*
X116428571Y-34780952D01*
X116380952Y-34828571D01*
X116333333Y-34923810D01*
X117809524Y-34352381D02*
X117333333Y-34352381D01*
X117285714Y-34828571D01*
X117333333Y-34780952D01*
X117428571Y-34733333D01*
X117666667Y-34733333D01*
X117761905Y-34780952D01*
X117809524Y-34828571D01*
X117857143Y-34923810D01*
X117857143Y-35161905D01*
X117809524Y-35257143D01*
X117761905Y-35304762D01*
X117666667Y-35352381D01*
X117428571Y-35352381D01*
X117333333Y-35304762D01*
X117285714Y-35257143D01*
X118285714Y-34971429D02*
X119047619Y-34971429D01*
X120095238Y-35352381D02*
X119761904Y-34876190D01*
X119523809Y-35352381D02*
X119523809Y-34352381D01*
X119904762Y-34352381D01*
X120000000Y-34400000D01*
X120047619Y-34447619D01*
X120095238Y-34542857D01*
X120095238Y-34685714D01*
X120047619Y-34780952D01*
X120000000Y-34828571D01*
X119904762Y-34876190D01*
X119523809Y-34876190D01*
X122619048Y-35352381D02*
X122285714Y-34876190D01*
X122047619Y-35352381D02*
X122047619Y-34352381D01*
X122428572Y-34352381D01*
X122523810Y-34400000D01*
X122571429Y-34447619D01*
X122619048Y-34542857D01*
X122619048Y-34685714D01*
X122571429Y-34780952D01*
X122523810Y-34828571D01*
X122428572Y-34876190D01*
X122047619Y-34876190D01*
X123428572Y-35304762D02*
X123333334Y-35352381D01*
X123142857Y-35352381D01*
X123047619Y-35304762D01*
X123000000Y-35209524D01*
X123000000Y-34828571D01*
X123047619Y-34733333D01*
X123142857Y-34685714D01*
X123333334Y-34685714D01*
X123428572Y-34733333D01*
X123476191Y-34828571D01*
X123476191Y-34923810D01*
X123000000Y-35019048D01*
X123809524Y-34685714D02*
X124047619Y-35352381D01*
X124285715Y-34685714D01*
X125619048Y-34352381D02*
X125714287Y-34352381D01*
X125809525Y-34400000D01*
X125857144Y-34447619D01*
X125904763Y-34542857D01*
X125952382Y-34733333D01*
X125952382Y-34971429D01*
X125904763Y-35161905D01*
X125857144Y-35257143D01*
X125809525Y-35304762D01*
X125714287Y-35352381D01*
X125619048Y-35352381D01*
X125523810Y-35304762D01*
X125476191Y-35257143D01*
X125428572Y-35161905D01*
X125380953Y-34971429D01*
X125380953Y-34733333D01*
X125428572Y-34542857D01*
X125476191Y-34447619D01*
X125523810Y-34400000D01*
X125619048Y-34352381D01*
X126380953Y-35257143D02*
X126428572Y-35304762D01*
X126380953Y-35352381D01*
X126333334Y-35304762D01*
X126380953Y-35257143D01*
X126380953Y-35352381D01*
X127380953Y-35352381D02*
X126809524Y-35352381D01*
X127095238Y-35352381D02*
X127095238Y-34352381D01*
X127000000Y-34495238D01*
X126904762Y-34590476D01*
X126809524Y-34638095D01*
X101309523Y-36952381D02*
X101309523Y-35952381D01*
X101547618Y-35952381D01*
X101690476Y-36000000D01*
X101785714Y-36095238D01*
X101833333Y-36190476D01*
X101880952Y-36380952D01*
X101880952Y-36523810D01*
X101833333Y-36714286D01*
X101785714Y-36809524D01*
X101690476Y-36904762D01*
X101547618Y-36952381D01*
X101309523Y-36952381D01*
X102690476Y-36904762D02*
X102595238Y-36952381D01*
X102404761Y-36952381D01*
X102309523Y-36904762D01*
X102261904Y-36809524D01*
X102261904Y-36428571D01*
X102309523Y-36333333D01*
X102404761Y-36285714D01*
X102595238Y-36285714D01*
X102690476Y-36333333D01*
X102738095Y-36428571D01*
X102738095Y-36523810D01*
X102261904Y-36619048D01*
X103119047Y-36904762D02*
X103214285Y-36952381D01*
X103404761Y-36952381D01*
X103500000Y-36904762D01*
X103547619Y-36809524D01*
X103547619Y-36761905D01*
X103500000Y-36666667D01*
X103404761Y-36619048D01*
X103261904Y-36619048D01*
X103166666Y-36571429D01*
X103119047Y-36476190D01*
X103119047Y-36428571D01*
X103166666Y-36333333D01*
X103261904Y-36285714D01*
X103404761Y-36285714D01*
X103500000Y-36333333D01*
X103976190Y-36952381D02*
X103976190Y-36285714D01*
X103976190Y-35952381D02*
X103928571Y-36000000D01*
X103976190Y-36047619D01*
X104023809Y-36000000D01*
X103976190Y-35952381D01*
X103976190Y-36047619D01*
X104880952Y-36285714D02*
X104880952Y-37095238D01*
X104833333Y-37190476D01*
X104785714Y-37238095D01*
X104690475Y-37285714D01*
X104547618Y-37285714D01*
X104452380Y-37238095D01*
X104880952Y-36904762D02*
X104785714Y-36952381D01*
X104595237Y-36952381D01*
X104499999Y-36904762D01*
X104452380Y-36857143D01*
X104404761Y-36761905D01*
X104404761Y-36476190D01*
X104452380Y-36380952D01*
X104499999Y-36333333D01*
X104595237Y-36285714D01*
X104785714Y-36285714D01*
X104880952Y-36333333D01*
X105357142Y-36285714D02*
X105357142Y-36952381D01*
X105357142Y-36380952D02*
X105404761Y-36333333D01*
X105499999Y-36285714D01*
X105642857Y-36285714D01*
X105738095Y-36333333D01*
X105785714Y-36428571D01*
X105785714Y-36952381D01*
X106642857Y-36904762D02*
X106547619Y-36952381D01*
X106357142Y-36952381D01*
X106261904Y-36904762D01*
X106214285Y-36809524D01*
X106214285Y-36428571D01*
X106261904Y-36333333D01*
X106357142Y-36285714D01*
X106547619Y-36285714D01*
X106642857Y-36333333D01*
X106690476Y-36428571D01*
X106690476Y-36523810D01*
X106214285Y-36619048D01*
X107547619Y-36952381D02*
X107547619Y-35952381D01*
X107547619Y-36904762D02*
X107452381Y-36952381D01*
X107261904Y-36952381D01*
X107166666Y-36904762D01*
X107119047Y-36857143D01*
X107071428Y-36761905D01*
X107071428Y-36476190D01*
X107119047Y-36380952D01*
X107166666Y-36333333D01*
X107261904Y-36285714D01*
X107452381Y-36285714D01*
X107547619Y-36333333D01*
X109595238Y-36952381D02*
X109547619Y-36952381D01*
X109452381Y-36904762D01*
X109309524Y-36761905D01*
X109071429Y-36476190D01*
X108976190Y-36333333D01*
X108928571Y-36190476D01*
X108928571Y-36095238D01*
X108976190Y-36000000D01*
X109071429Y-35952381D01*
X109119048Y-35952381D01*
X109214286Y-36000000D01*
X109261905Y-36095238D01*
X109261905Y-36142857D01*
X109214286Y-36238095D01*
X109166667Y-36285714D01*
X108880952Y-36476190D01*
X108833333Y-36523810D01*
X108785714Y-36619048D01*
X108785714Y-36761905D01*
X108833333Y-36857143D01*
X108880952Y-36904762D01*
X108976190Y-36952381D01*
X109119048Y-36952381D01*
X109214286Y-36904762D01*
X109261905Y-36857143D01*
X109404762Y-36666667D01*
X109452381Y-36523810D01*
X109452381Y-36428571D01*
X110785714Y-36952381D02*
X110785714Y-35952381D01*
X111023809Y-35952381D01*
X111166667Y-36000000D01*
X111261905Y-36095238D01*
X111309524Y-36190476D01*
X111357143Y-36380952D01*
X111357143Y-36523810D01*
X111309524Y-36714286D01*
X111261905Y-36809524D01*
X111166667Y-36904762D01*
X111023809Y-36952381D01*
X110785714Y-36952381D01*
X111785714Y-36952381D02*
X111785714Y-36285714D01*
X111785714Y-36476190D02*
X111833333Y-36380952D01*
X111880952Y-36333333D01*
X111976190Y-36285714D01*
X112071429Y-36285714D01*
X112833334Y-36952381D02*
X112833334Y-36428571D01*
X112785715Y-36333333D01*
X112690477Y-36285714D01*
X112500000Y-36285714D01*
X112404762Y-36333333D01*
X112833334Y-36904762D02*
X112738096Y-36952381D01*
X112500000Y-36952381D01*
X112404762Y-36904762D01*
X112357143Y-36809524D01*
X112357143Y-36714286D01*
X112404762Y-36619048D01*
X112500000Y-36571429D01*
X112738096Y-36571429D01*
X112833334Y-36523810D01*
X113214286Y-36285714D02*
X113404762Y-36952381D01*
X113595239Y-36476190D01*
X113785715Y-36952381D01*
X113976191Y-36285714D01*
X114357143Y-36285714D02*
X114357143Y-36952381D01*
X114357143Y-36380952D02*
X114404762Y-36333333D01*
X114500000Y-36285714D01*
X114642858Y-36285714D01*
X114738096Y-36333333D01*
X114785715Y-36428571D01*
X114785715Y-36952381D01*
X116023810Y-36952381D02*
X116023810Y-36285714D01*
X116023810Y-35952381D02*
X115976191Y-36000000D01*
X116023810Y-36047619D01*
X116071429Y-36000000D01*
X116023810Y-35952381D01*
X116023810Y-36047619D01*
X116500000Y-36285714D02*
X116500000Y-36952381D01*
X116500000Y-36380952D02*
X116547619Y-36333333D01*
X116642857Y-36285714D01*
X116785715Y-36285714D01*
X116880953Y-36333333D01*
X116928572Y-36428571D01*
X116928572Y-36952381D01*
X118166667Y-36952381D02*
X118166667Y-35952381D01*
X118738096Y-36952381D02*
X118309524Y-36380952D01*
X118738096Y-35952381D02*
X118166667Y-36523810D01*
X119166667Y-36952381D02*
X119166667Y-36285714D01*
X119166667Y-35952381D02*
X119119048Y-36000000D01*
X119166667Y-36047619D01*
X119214286Y-36000000D01*
X119166667Y-35952381D01*
X119166667Y-36047619D01*
X120214286Y-36857143D02*
X120166667Y-36904762D01*
X120023810Y-36952381D01*
X119928572Y-36952381D01*
X119785714Y-36904762D01*
X119690476Y-36809524D01*
X119642857Y-36714286D01*
X119595238Y-36523810D01*
X119595238Y-36380952D01*
X119642857Y-36190476D01*
X119690476Y-36095238D01*
X119785714Y-36000000D01*
X119928572Y-35952381D01*
X120023810Y-35952381D01*
X120166667Y-36000000D01*
X120214286Y-36047619D01*
X120595238Y-36666667D02*
X121071429Y-36666667D01*
X120500000Y-36952381D02*
X120833333Y-35952381D01*
X121166667Y-36952381D01*
X121500000Y-36952381D02*
X121500000Y-35952381D01*
X121738095Y-35952381D01*
X121880953Y-36000000D01*
X121976191Y-36095238D01*
X122023810Y-36190476D01*
X122071429Y-36380952D01*
X122071429Y-36523810D01*
X122023810Y-36714286D01*
X121976191Y-36809524D01*
X121880953Y-36904762D01*
X121738095Y-36952381D01*
X121500000Y-36952381D01*
X123261905Y-36952381D02*
X123261905Y-35952381D01*
X123261905Y-36333333D02*
X123357143Y-36285714D01*
X123547620Y-36285714D01*
X123642858Y-36333333D01*
X123690477Y-36380952D01*
X123738096Y-36476190D01*
X123738096Y-36761905D01*
X123690477Y-36857143D01*
X123642858Y-36904762D01*
X123547620Y-36952381D01*
X123357143Y-36952381D01*
X123261905Y-36904762D01*
X124071429Y-36285714D02*
X124309524Y-36952381D01*
X124547620Y-36285714D02*
X124309524Y-36952381D01*
X124214286Y-37190476D01*
X124166667Y-37238095D01*
X124071429Y-37285714D01*
X125690477Y-36952381D02*
X125690477Y-35952381D01*
X125690477Y-36333333D02*
X125785715Y-36285714D01*
X125976192Y-36285714D01*
X126071430Y-36333333D01*
X126119049Y-36380952D01*
X126166668Y-36476190D01*
X126166668Y-36761905D01*
X126119049Y-36857143D01*
X126071430Y-36904762D01*
X125976192Y-36952381D01*
X125785715Y-36952381D01*
X125690477Y-36904762D01*
X126500001Y-36285714D02*
X126738096Y-36952381D01*
X126976192Y-36285714D02*
X126738096Y-36952381D01*
X126642858Y-37190476D01*
X126595239Y-37238095D01*
X126500001Y-37285714D01*
X128119049Y-36952381D02*
X128119049Y-35952381D01*
X128452383Y-36666667D01*
X128785716Y-35952381D01*
X128785716Y-36952381D01*
X129404763Y-36952381D02*
X129309525Y-36904762D01*
X129261906Y-36857143D01*
X129214287Y-36761905D01*
X129214287Y-36476190D01*
X129261906Y-36380952D01*
X129309525Y-36333333D01*
X129404763Y-36285714D01*
X129547621Y-36285714D01*
X129642859Y-36333333D01*
X129690478Y-36380952D01*
X129738097Y-36476190D01*
X129738097Y-36761905D01*
X129690478Y-36857143D01*
X129642859Y-36904762D01*
X129547621Y-36952381D01*
X129404763Y-36952381D01*
X130166668Y-36952381D02*
X130166668Y-35952381D01*
X130595240Y-36952381D02*
X130595240Y-36428571D01*
X130547621Y-36333333D01*
X130452383Y-36285714D01*
X130309525Y-36285714D01*
X130214287Y-36333333D01*
X130166668Y-36380952D01*
X131071430Y-36952381D02*
X131071430Y-36285714D01*
X131071430Y-35952381D02*
X131023811Y-36000000D01*
X131071430Y-36047619D01*
X131119049Y-36000000D01*
X131071430Y-35952381D01*
X131071430Y-36047619D01*
X131404763Y-36285714D02*
X131785715Y-36285714D01*
X131547620Y-35952381D02*
X131547620Y-36809524D01*
X131595239Y-36904762D01*
X131690477Y-36952381D01*
X131785715Y-36952381D01*
X132928573Y-35952381D02*
X132833335Y-36142857D01*
X133357144Y-36952381D02*
X133357144Y-35952381D01*
X133690478Y-36666667D01*
X134023811Y-35952381D01*
X134023811Y-36952381D01*
X134690477Y-35952381D02*
X134880954Y-35952381D01*
X134976192Y-36000000D01*
X135071430Y-36095238D01*
X135119049Y-36285714D01*
X135119049Y-36619048D01*
X135071430Y-36809524D01*
X134976192Y-36904762D01*
X134880954Y-36952381D01*
X134690477Y-36952381D01*
X134595239Y-36904762D01*
X134500001Y-36809524D01*
X134452382Y-36619048D01*
X134452382Y-36285714D01*
X134500001Y-36095238D01*
X134595239Y-36000000D01*
X134690477Y-35952381D01*
X135452382Y-35952381D02*
X136119049Y-35952381D01*
X135452382Y-36952381D01*
X136119049Y-36952381D01*
X136547620Y-35952381D02*
X136452382Y-36142857D01*
X138261906Y-36000000D02*
X138166668Y-35952381D01*
X138023811Y-35952381D01*
X137880953Y-36000000D01*
X137785715Y-36095238D01*
X137738096Y-36190476D01*
X137690477Y-36380952D01*
X137690477Y-36523810D01*
X137738096Y-36714286D01*
X137785715Y-36809524D01*
X137880953Y-36904762D01*
X138023811Y-36952381D01*
X138119049Y-36952381D01*
X138261906Y-36904762D01*
X138309525Y-36857143D01*
X138309525Y-36523810D01*
X138119049Y-36523810D01*
X139166668Y-36952381D02*
X139166668Y-36428571D01*
X139119049Y-36333333D01*
X139023811Y-36285714D01*
X138833334Y-36285714D01*
X138738096Y-36333333D01*
X139166668Y-36904762D02*
X139071430Y-36952381D01*
X138833334Y-36952381D01*
X138738096Y-36904762D01*
X138690477Y-36809524D01*
X138690477Y-36714286D01*
X138738096Y-36619048D01*
X138833334Y-36571429D01*
X139071430Y-36571429D01*
X139166668Y-36523810D01*
X139642858Y-36952381D02*
X139642858Y-36285714D01*
X139642858Y-36476190D02*
X139690477Y-36380952D01*
X139738096Y-36333333D01*
X139833334Y-36285714D01*
X139928573Y-36285714D01*
X140690478Y-36285714D02*
X140690478Y-37095238D01*
X140642859Y-37190476D01*
X140595240Y-37238095D01*
X140500001Y-37285714D01*
X140357144Y-37285714D01*
X140261906Y-37238095D01*
X140690478Y-36904762D02*
X140595240Y-36952381D01*
X140404763Y-36952381D01*
X140309525Y-36904762D01*
X140261906Y-36857143D01*
X140214287Y-36761905D01*
X140214287Y-36476190D01*
X140261906Y-36380952D01*
X140309525Y-36333333D01*
X140404763Y-36285714D01*
X140595240Y-36285714D01*
X140690478Y-36333333D01*
X111238095Y-38028571D02*
X111380952Y-38076190D01*
X111428571Y-38123810D01*
X111476190Y-38219048D01*
X111476190Y-38361905D01*
X111428571Y-38457143D01*
X111380952Y-38504762D01*
X111285714Y-38552381D01*
X110904761Y-38552381D01*
X110904761Y-37552381D01*
X111238095Y-37552381D01*
X111333333Y-37600000D01*
X111380952Y-37647619D01*
X111428571Y-37742857D01*
X111428571Y-37838095D01*
X111380952Y-37933333D01*
X111333333Y-37980952D01*
X111238095Y-38028571D01*
X110904761Y-38028571D01*
X112333333Y-38552381D02*
X112333333Y-38028571D01*
X112285714Y-37933333D01*
X112190476Y-37885714D01*
X111999999Y-37885714D01*
X111904761Y-37933333D01*
X112333333Y-38504762D02*
X112238095Y-38552381D01*
X111999999Y-38552381D01*
X111904761Y-38504762D01*
X111857142Y-38409524D01*
X111857142Y-38314286D01*
X111904761Y-38219048D01*
X111999999Y-38171429D01*
X112238095Y-38171429D01*
X112333333Y-38123810D01*
X112761904Y-38504762D02*
X112857142Y-38552381D01*
X113047618Y-38552381D01*
X113142857Y-38504762D01*
X113190476Y-38409524D01*
X113190476Y-38361905D01*
X113142857Y-38266667D01*
X113047618Y-38219048D01*
X112904761Y-38219048D01*
X112809523Y-38171429D01*
X112761904Y-38076190D01*
X112761904Y-38028571D01*
X112809523Y-37933333D01*
X112904761Y-37885714D01*
X113047618Y-37885714D01*
X113142857Y-37933333D01*
X114000000Y-38504762D02*
X113904762Y-38552381D01*
X113714285Y-38552381D01*
X113619047Y-38504762D01*
X113571428Y-38409524D01*
X113571428Y-38028571D01*
X113619047Y-37933333D01*
X113714285Y-37885714D01*
X113904762Y-37885714D01*
X114000000Y-37933333D01*
X114047619Y-38028571D01*
X114047619Y-38123810D01*
X113571428Y-38219048D01*
X114904762Y-38552381D02*
X114904762Y-37552381D01*
X114904762Y-38504762D02*
X114809524Y-38552381D01*
X114619047Y-38552381D01*
X114523809Y-38504762D01*
X114476190Y-38457143D01*
X114428571Y-38361905D01*
X114428571Y-38076190D01*
X114476190Y-37980952D01*
X114523809Y-37933333D01*
X114619047Y-37885714D01*
X114809524Y-37885714D01*
X114904762Y-37933333D01*
X116285714Y-38552381D02*
X116190476Y-38504762D01*
X116142857Y-38457143D01*
X116095238Y-38361905D01*
X116095238Y-38076190D01*
X116142857Y-37980952D01*
X116190476Y-37933333D01*
X116285714Y-37885714D01*
X116428572Y-37885714D01*
X116523810Y-37933333D01*
X116571429Y-37980952D01*
X116619048Y-38076190D01*
X116619048Y-38361905D01*
X116571429Y-38457143D01*
X116523810Y-38504762D01*
X116428572Y-38552381D01*
X116285714Y-38552381D01*
X117047619Y-37885714D02*
X117047619Y-38552381D01*
X117047619Y-37980952D02*
X117095238Y-37933333D01*
X117190476Y-37885714D01*
X117333334Y-37885714D01*
X117428572Y-37933333D01*
X117476191Y-38028571D01*
X117476191Y-38552381D01*
X118714286Y-38552381D02*
X118714286Y-37552381D01*
X119761905Y-38457143D02*
X119714286Y-38504762D01*
X119571429Y-38552381D01*
X119476191Y-38552381D01*
X119333333Y-38504762D01*
X119238095Y-38409524D01*
X119190476Y-38314286D01*
X119142857Y-38123810D01*
X119142857Y-37980952D01*
X119190476Y-37790476D01*
X119238095Y-37695238D01*
X119333333Y-37600000D01*
X119476191Y-37552381D01*
X119571429Y-37552381D01*
X119714286Y-37600000D01*
X119761905Y-37647619D01*
X120190476Y-38028571D02*
X120523810Y-38028571D01*
X120666667Y-38552381D02*
X120190476Y-38552381D01*
X120190476Y-37552381D01*
X120666667Y-37552381D01*
X121095238Y-38552381D02*
X121095238Y-37552381D01*
X121333333Y-37552381D01*
X121476191Y-37600000D01*
X121571429Y-37695238D01*
X121619048Y-37790476D01*
X121666667Y-37980952D01*
X121666667Y-38123810D01*
X121619048Y-38314286D01*
X121571429Y-38409524D01*
X121476191Y-38504762D01*
X121333333Y-38552381D01*
X121095238Y-38552381D01*
X122095238Y-38171429D02*
X122857143Y-38171429D01*
X123809524Y-38552381D02*
X123333333Y-38552381D01*
X123333333Y-37552381D01*
X125476191Y-38552381D02*
X125142857Y-38076190D01*
X124904762Y-38552381D02*
X124904762Y-37552381D01*
X125285715Y-37552381D01*
X125380953Y-37600000D01*
X125428572Y-37647619D01*
X125476191Y-37742857D01*
X125476191Y-37885714D01*
X125428572Y-37980952D01*
X125380953Y-38028571D01*
X125285715Y-38076190D01*
X124904762Y-38076190D01*
X126285715Y-38504762D02*
X126190477Y-38552381D01*
X126000000Y-38552381D01*
X125904762Y-38504762D01*
X125857143Y-38409524D01*
X125857143Y-38028571D01*
X125904762Y-37933333D01*
X126000000Y-37885714D01*
X126190477Y-37885714D01*
X126285715Y-37933333D01*
X126333334Y-38028571D01*
X126333334Y-38123810D01*
X125857143Y-38219048D01*
X126666667Y-37885714D02*
X126904762Y-38552381D01*
X127142858Y-37885714D01*
X128809525Y-38552381D02*
X128238096Y-38552381D01*
X128523810Y-38552381D02*
X128523810Y-37552381D01*
X128428572Y-37695238D01*
X128333334Y-37790476D01*
X128238096Y-37838095D01*
X129238096Y-38457143D02*
X129285715Y-38504762D01*
X129238096Y-38552381D01*
X129190477Y-38504762D01*
X129238096Y-38457143D01*
X129238096Y-38552381D01*
X130238096Y-38552381D02*
X129666667Y-38552381D01*
X129952381Y-38552381D02*
X129952381Y-37552381D01*
X129857143Y-37695238D01*
X129761905Y-37790476D01*
X129666667Y-37838095D01*
X131095239Y-38552381D02*
X131095239Y-37552381D01*
X131095239Y-38504762D02*
X131000001Y-38552381D01*
X130809524Y-38552381D01*
X130714286Y-38504762D01*
X130666667Y-38457143D01*
X130619048Y-38361905D01*
X130619048Y-38076190D01*
X130666667Y-37980952D01*
X130714286Y-37933333D01*
X130809524Y-37885714D01*
X131000001Y-37885714D01*
X131095239Y-37933333D01*
M02*
