M48
;DRILL file {KiCad 4.0.1-stable} date 2/1/2016 9:56:52 PM
;FORMAT={-:-/ absolute / metric / decimal}
FMAT,2
METRIC,TZ
T1C0.650
T2C1.702
T3C3.048
T4C3.988
T5C6.000
%
G90
G05
M71
T1
X113.9Y-26.618
T2
X16.002Y-63.881
X20.764Y-82.931
X25.527Y-44.831
X26.162Y-63.881
X30.29Y-101.981
X30.924Y-82.931
X35.052Y-63.811
X35.687Y-44.831
X39.815Y-82.931
X39.815Y-121.031
X40.45Y-101.981
X42.196Y-121.031
X44.577Y-44.831
X45.212Y-63.811
X49.34Y-101.981
X49.975Y-82.931
X49.975Y-121.031
X52.356Y-121.031
X54.102Y-63.881
X54.737Y-44.831
X57.118Y-121.031
X58.865Y-82.931
X59.5Y-101.981
X63.627Y-44.831
X64.262Y-63.881
X68.389Y-101.981
X69.025Y-82.931
X70.771Y-121.031
X73.152Y-63.881
X73.152Y-121.031
X73.787Y-44.831
X77.915Y-82.931
X78.549Y-101.981
X82.677Y-44.831
X83.312Y-63.881
X85.058Y-121.031
X85.693Y-121.031
X87.439Y-101.981
X88.075Y-82.931
X92.202Y-63.881
X92.837Y-44.831
X94.583Y-121.031
X96.965Y-82.931
X97.599Y-101.981
X101.727Y-44.831
X101.727Y-121.031
X102.362Y-63.881
X106.49Y-101.981
X107.125Y-82.931
X108.871Y-121.031
X109.506Y-121.031
X111.252Y-63.881
X111.887Y-44.831
X116.014Y-82.931
X116.014Y-121.031
X116.65Y-101.981
X116.65Y-121.031
X118.396Y-121.031
X119.031Y-121.031
X120.777Y-44.831
X121.412Y-63.881
X126.174Y-82.931
X128.556Y-121.031
X130.302Y-63.881
X130.937Y-44.831
X130.937Y-121.031
X132.683Y-101.981
X132.683Y-121.031
X135.064Y-82.931
X139.827Y-44.831
X139.827Y-121.031
X140.462Y-63.881
X142.208Y-101.981
X142.843Y-101.981
X142.843Y-121.031
X145.224Y-82.931
X146.971Y-82.931
X149.352Y-44.831
X149.987Y-44.831
X149.987Y-121.031
X152.368Y-101.981
X154.114Y-64.008
X156.496Y-82.931
X156.496Y-121.031
X157.131Y-82.931
X158.877Y-44.831
X158.877Y-101.981
X158.877Y-121.031
X159.512Y-44.831
X161.576Y-78.486
X164.274Y-64.008
X166.656Y-82.931
X166.656Y-121.031
X169.037Y-44.831
X169.037Y-101.981
X169.037Y-121.031
X177.927Y-44.831
X177.927Y-63.881
X177.927Y-82.931
X177.927Y-101.981
X177.927Y-121.031
X188.087Y-44.831
X188.087Y-63.881
X188.087Y-82.931
X188.087Y-101.981
X188.087Y-121.031
T3
X32.957Y-128.016
X35.338Y-128.016
X40.1Y-128.016
X56.833Y-128.016
X59.214Y-128.016
X63.976Y-128.016
X135.35Y-94.996
X140.113Y-89.916
X142.494Y-37.846
X159.226Y-94.996
X163.989Y-89.916
X166.37Y-37.846
X168.561Y-61.468
X168.561Y-85.344
T4
X21.082Y-63.881
X25.844Y-82.931
X30.607Y-44.831
X32.957Y-112.776
X35.338Y-112.776
X35.37Y-101.981
X40.1Y-112.776
X40.132Y-63.811
X44.895Y-82.931
X44.895Y-121.031
X47.276Y-121.031
X49.657Y-44.831
X52.038Y-121.031
X54.42Y-101.981
X56.833Y-112.776
X59.182Y-63.881
X59.214Y-112.776
X63.945Y-82.931
X63.976Y-112.776
X68.707Y-44.831
X73.469Y-101.981
X75.851Y-121.031
X78.232Y-63.881
X78.232Y-121.031
X80.613Y-121.031
X82.995Y-82.931
X82.995Y-121.031
X87.757Y-44.831
X87.757Y-121.031
X90.138Y-121.031
X92.519Y-101.981
X92.519Y-121.031
X97.282Y-63.881
X99.663Y-121.031
X102.045Y-82.931
X104.426Y-121.031
X106.807Y-44.831
X106.807Y-121.031
X111.57Y-101.981
X111.57Y-121.031
X113.951Y-121.031
X116.332Y-63.881
X121.094Y-82.931
X121.094Y-121.031
X123.476Y-121.031
X125.857Y-44.831
X125.857Y-121.031
X135.35Y-110.236
X135.382Y-63.881
X137.763Y-101.981
X137.763Y-121.031
X140.113Y-74.676
X140.144Y-82.931
X142.494Y-53.086
X144.907Y-44.831
X144.907Y-121.031
X147.288Y-101.981
X152.051Y-82.931
X153.321Y-61.468
X153.321Y-85.344
X154.432Y-44.831
X159.194Y-64.008
X159.226Y-110.236
X161.576Y-73.406
X161.576Y-82.931
X161.576Y-121.031
X163.957Y-44.831
X163.957Y-101.981
X163.957Y-121.031
X163.989Y-74.676
X166.37Y-53.086
X183.007Y-44.831
X183.007Y-63.881
X183.007Y-82.931
X183.007Y-101.981
X183.007Y-121.031
T5
X124.79Y-102.083
T1
X120.95Y-26.618G85X121.25Y-26.618
G05
T0
M30
