G04 #@! TF.FileFunction,Soldermask,Bot*
%FSLAX46Y46*%
G04 Gerber Fmt 4.6, Leading zero omitted, Abs format (unit mm)*
G04 Created by KiCad (PCBNEW 4.0.1-stable) date 2/1/2016 10:06:34 PM*
%MOMM*%
G01*
G04 APERTURE LIST*
%ADD10C,0.150000*%
%ADD11C,0.002540*%
%ADD12C,0.010000*%
%ADD13C,4.140210*%
%ADD14C,1.854210*%
%ADD15C,2.652400*%
%ADD16C,2.152400*%
%ADD17C,2.540000*%
%ADD18C,3.479800*%
%ADD19O,1.552400X1.552400*%
%ADD20R,1.552400X1.552400*%
%ADD21C,2.252400*%
%ADD22C,2.352400*%
%ADD23O,2.152400X2.652400*%
%ADD24O,2.152400X2.352400*%
%ADD25R,1.152400X1.402400*%
%ADD26R,1.402400X1.152400*%
%ADD27R,1.003300X1.153160*%
%ADD28R,1.952400X1.252400*%
%ADD29R,1.582400X0.552400*%
%ADD30R,1.102400X2.052400*%
%ADD31R,3.402400X2.052400*%
%ADD32R,0.452400X1.652400*%
%ADD33R,1.652400X0.452400*%
%ADD34R,1.352400X1.552400*%
%ADD35R,1.153160X1.003300*%
%ADD36R,1.953260X1.750060*%
%ADD37C,1.952400*%
%ADD38R,1.750060X1.953260*%
%ADD39C,6.152400*%
%ADD40C,3.000000*%
%ADD41O,1.952400X3.652400*%
%ADD42R,0.852400X1.952400*%
%ADD43R,1.792400X2.352400*%
%ADD44O,0.952400X1.552400*%
%ADD45C,0.802400*%
%ADD46O,1.102400X0.802400*%
%ADD47C,0.752400*%
%ADD48R,0.452400X0.852400*%
%ADD49C,2.152400*%
%ADD50C,2.652400*%
%ADD51C,2.452400*%
G04 APERTURE END LIST*
D10*
D11*
G36*
X145669300Y-32492760D02*
X145669300Y-32629920D01*
X145669300Y-32741680D01*
X145671840Y-32830580D01*
X145671840Y-32901700D01*
X145674380Y-32955040D01*
X145676920Y-32993140D01*
X145679460Y-33021080D01*
X145684540Y-33036320D01*
X145689620Y-33041400D01*
X145707400Y-33049020D01*
X145750580Y-33059180D01*
X145814080Y-33074420D01*
X145895360Y-33089660D01*
X145991880Y-33109980D01*
X146101100Y-33130300D01*
X146215400Y-33153160D01*
X146342400Y-33176020D01*
X146456700Y-33198880D01*
X146555760Y-33219200D01*
X146637040Y-33236980D01*
X146698000Y-33249680D01*
X146733560Y-33259840D01*
X146743720Y-33264920D01*
X146753880Y-33282700D01*
X146774200Y-33320800D01*
X146799600Y-33379220D01*
X146830080Y-33447800D01*
X146863100Y-33524000D01*
X146896120Y-33607820D01*
X146929140Y-33689100D01*
X146959620Y-33765300D01*
X146985020Y-33833880D01*
X147005340Y-33889760D01*
X147018040Y-33927860D01*
X147020580Y-33943100D01*
X147012960Y-33955800D01*
X146990100Y-33991360D01*
X146954540Y-34044700D01*
X146908820Y-34110740D01*
X146855480Y-34189480D01*
X146797060Y-34275840D01*
X146758960Y-34329180D01*
X146502420Y-34705100D01*
X146502420Y-34872740D01*
X146502420Y-35040380D01*
X146893580Y-35431540D01*
X147284740Y-35822700D01*
X147449840Y-35822700D01*
X147612400Y-35822700D01*
X147983240Y-35568700D01*
X148351540Y-35314700D01*
X148470920Y-35378200D01*
X148587760Y-35444240D01*
X148760480Y-35439160D01*
X148933200Y-35434080D01*
X149311660Y-34524760D01*
X149690120Y-33615440D01*
X149690120Y-33470660D01*
X149690120Y-33407160D01*
X149687580Y-33353820D01*
X149685040Y-33318260D01*
X149682500Y-33305560D01*
X149667260Y-33287780D01*
X149634240Y-33259840D01*
X149588520Y-33224280D01*
X149545340Y-33193800D01*
X149428500Y-33107440D01*
X149331980Y-33026160D01*
X149253240Y-32944880D01*
X149187200Y-32858520D01*
X149128780Y-32759460D01*
X149090680Y-32685800D01*
X149032260Y-32553720D01*
X148999240Y-32434340D01*
X148991620Y-32325120D01*
X148996700Y-32256540D01*
X149042420Y-32091440D01*
X149113540Y-31936500D01*
X149204980Y-31791720D01*
X149321820Y-31659640D01*
X149456440Y-31545340D01*
X149606300Y-31451360D01*
X149626620Y-31441200D01*
X149733300Y-31392940D01*
X149837440Y-31359920D01*
X149936500Y-31339600D01*
X149994920Y-31334520D01*
X150101600Y-31347220D01*
X150220980Y-31380240D01*
X150345440Y-31433580D01*
X150467360Y-31504700D01*
X150581660Y-31588520D01*
X150685800Y-31682500D01*
X150751840Y-31753620D01*
X150812800Y-31842520D01*
X150873760Y-31949200D01*
X150924560Y-32063500D01*
X150965200Y-32172720D01*
X150975360Y-32208280D01*
X150988060Y-32281940D01*
X150993140Y-32350520D01*
X150988060Y-32416560D01*
X150967740Y-32492760D01*
X150937260Y-32586740D01*
X150929640Y-32607060D01*
X150855980Y-32762000D01*
X150759460Y-32904240D01*
X150637540Y-33036320D01*
X150492760Y-33155700D01*
X150393700Y-33224280D01*
X150353060Y-33252220D01*
X150320040Y-33275080D01*
X150304800Y-33287780D01*
X150302260Y-33308100D01*
X150297180Y-33351280D01*
X150297180Y-33407160D01*
X150294640Y-33460500D01*
X150294640Y-33615440D01*
X150662940Y-34499360D01*
X150723900Y-34651760D01*
X150782320Y-34794000D01*
X150838200Y-34928620D01*
X150889000Y-35050540D01*
X150934720Y-35157220D01*
X150972820Y-35248660D01*
X151003300Y-35324860D01*
X151026160Y-35378200D01*
X151041400Y-35408680D01*
X151043940Y-35413760D01*
X151051560Y-35426460D01*
X151066800Y-35434080D01*
X151092200Y-35439160D01*
X151132840Y-35441700D01*
X151193800Y-35441700D01*
X151224280Y-35441700D01*
X151391920Y-35441700D01*
X151511300Y-35378200D01*
X151630680Y-35314700D01*
X151861820Y-35474720D01*
X151945640Y-35530600D01*
X152032000Y-35591560D01*
X152115820Y-35647440D01*
X152186940Y-35695700D01*
X152232660Y-35728720D01*
X152372360Y-35822700D01*
X152537460Y-35822700D01*
X152700020Y-35822700D01*
X153093720Y-35431540D01*
X153484880Y-35040380D01*
X153484880Y-34875280D01*
X153484880Y-34804160D01*
X153482340Y-34755900D01*
X153477260Y-34720340D01*
X153469640Y-34694940D01*
X153454400Y-34669540D01*
X153436620Y-34644140D01*
X153416300Y-34613660D01*
X153383280Y-34562860D01*
X153337560Y-34496820D01*
X153286760Y-34420620D01*
X153228340Y-34336800D01*
X153177540Y-34260600D01*
X153119120Y-34176780D01*
X153068320Y-34100580D01*
X153025140Y-34034540D01*
X152992120Y-33981200D01*
X152969260Y-33945640D01*
X152961640Y-33930400D01*
X152966720Y-33912620D01*
X152981960Y-33871980D01*
X153002280Y-33813560D01*
X153032760Y-33739900D01*
X153065780Y-33656080D01*
X153091180Y-33590040D01*
X153134360Y-33480820D01*
X153169920Y-33397000D01*
X153197860Y-33333500D01*
X153220720Y-33290320D01*
X153235960Y-33264920D01*
X153248660Y-33254760D01*
X153271520Y-33249680D01*
X153314700Y-33239520D01*
X153380740Y-33226820D01*
X153464560Y-33209040D01*
X153563620Y-33191260D01*
X153672840Y-33168400D01*
X153779520Y-33150620D01*
X153893820Y-33127760D01*
X154003040Y-33107440D01*
X154097020Y-33087120D01*
X154178300Y-33071880D01*
X154241800Y-33056640D01*
X154282440Y-33046480D01*
X154297680Y-33041400D01*
X154302760Y-33033780D01*
X154305300Y-33016000D01*
X154307840Y-32985520D01*
X154310380Y-32942340D01*
X154312920Y-32883920D01*
X154315460Y-32805180D01*
X154315460Y-32708660D01*
X154315460Y-32589280D01*
X154318000Y-32441960D01*
X154318000Y-32330200D01*
X154318000Y-31634240D01*
X154284980Y-31616460D01*
X154264660Y-31608840D01*
X154218940Y-31596140D01*
X154152900Y-31583440D01*
X154069080Y-31565660D01*
X153970020Y-31545340D01*
X153858260Y-31525020D01*
X153741420Y-31502160D01*
X153738880Y-31502160D01*
X153622040Y-31479300D01*
X153512820Y-31458980D01*
X153413760Y-31438660D01*
X153332480Y-31420880D01*
X153268980Y-31408180D01*
X153225800Y-31395480D01*
X153205480Y-31390400D01*
X153205480Y-31390400D01*
X153195320Y-31372620D01*
X153177540Y-31334520D01*
X153152140Y-31278640D01*
X153119120Y-31210060D01*
X153086100Y-31133860D01*
X153053080Y-31055120D01*
X153017520Y-30978920D01*
X152987040Y-30907800D01*
X152961640Y-30844300D01*
X152943860Y-30798580D01*
X152933700Y-30770640D01*
X152933700Y-30768100D01*
X152941320Y-30752860D01*
X152964180Y-30717300D01*
X152997200Y-30663960D01*
X153042920Y-30595380D01*
X153096260Y-30516640D01*
X153157220Y-30427740D01*
X153208020Y-30351540D01*
X153484880Y-29950220D01*
X153484880Y-29787660D01*
X153484880Y-29625100D01*
X153093720Y-29231400D01*
X152702560Y-28840240D01*
X152534920Y-28840240D01*
X152367280Y-28840240D01*
X152011680Y-29084080D01*
X151920240Y-29145040D01*
X151833880Y-29206000D01*
X151755140Y-29259340D01*
X151689100Y-29305060D01*
X151638300Y-29340620D01*
X151605280Y-29363480D01*
X151600200Y-29366020D01*
X151541780Y-29406660D01*
X151275080Y-29297440D01*
X151170940Y-29256800D01*
X151092200Y-29223780D01*
X151031240Y-29198380D01*
X150988060Y-29178060D01*
X150960120Y-29162820D01*
X150942340Y-29150120D01*
X150929640Y-29139960D01*
X150924560Y-29127260D01*
X150924560Y-29124720D01*
X150919480Y-29104400D01*
X150909320Y-29058680D01*
X150896620Y-28995180D01*
X150881380Y-28911360D01*
X150861060Y-28812300D01*
X150840740Y-28703080D01*
X150820420Y-28583700D01*
X150817880Y-28571000D01*
X150795020Y-28454160D01*
X150772160Y-28342400D01*
X150754380Y-28243340D01*
X150736600Y-28159520D01*
X150721360Y-28093480D01*
X150711200Y-28047760D01*
X150703580Y-28027440D01*
X150703580Y-28027440D01*
X150695960Y-28022360D01*
X150678180Y-28019820D01*
X150652780Y-28014740D01*
X150612140Y-28012200D01*
X150556260Y-28012200D01*
X150482600Y-28009660D01*
X150391160Y-28009660D01*
X150276860Y-28007120D01*
X150137160Y-28007120D01*
X149994920Y-28007120D01*
X149857760Y-28007120D01*
X149728220Y-28009660D01*
X149611380Y-28009660D01*
X149507240Y-28012200D01*
X149418340Y-28012200D01*
X149352300Y-28014740D01*
X149306580Y-28017280D01*
X149283720Y-28019820D01*
X149283720Y-28019820D01*
X149276100Y-28037600D01*
X149265940Y-28078240D01*
X149250700Y-28146820D01*
X149230380Y-28233180D01*
X149210060Y-28342400D01*
X149184660Y-28469400D01*
X149166880Y-28565920D01*
X149144020Y-28685300D01*
X149123700Y-28799600D01*
X149103380Y-28901200D01*
X149088140Y-28987560D01*
X149072900Y-29056140D01*
X149062740Y-29104400D01*
X149057660Y-29129800D01*
X149057660Y-29129800D01*
X149044960Y-29145040D01*
X149014480Y-29162820D01*
X148968760Y-29185680D01*
X148900180Y-29216160D01*
X148811280Y-29256800D01*
X148745240Y-29282200D01*
X148648720Y-29322840D01*
X148575060Y-29350780D01*
X148521720Y-29373640D01*
X148481080Y-29386340D01*
X148455680Y-29391420D01*
X148435360Y-29393960D01*
X148422660Y-29388880D01*
X148409960Y-29383800D01*
X148407420Y-29381260D01*
X148387100Y-29368560D01*
X148346460Y-29340620D01*
X148290580Y-29299980D01*
X148216920Y-29251720D01*
X148135640Y-29195840D01*
X148044200Y-29134880D01*
X147993400Y-29099320D01*
X147617480Y-28840240D01*
X147449840Y-28840240D01*
X147284740Y-28840240D01*
X146893580Y-29231400D01*
X146502420Y-29622560D01*
X146502420Y-29790200D01*
X146502420Y-29957840D01*
X146779280Y-30359160D01*
X147056140Y-30760480D01*
X146924060Y-31072900D01*
X146883420Y-31161800D01*
X146847860Y-31243080D01*
X146814840Y-31309120D01*
X146789440Y-31359920D01*
X146771660Y-31390400D01*
X146766580Y-31395480D01*
X146746260Y-31400560D01*
X146703080Y-31410720D01*
X146639580Y-31425960D01*
X146555760Y-31441200D01*
X146456700Y-31461520D01*
X146347480Y-31481840D01*
X146230640Y-31504700D01*
X146217940Y-31507240D01*
X146080780Y-31532640D01*
X145961400Y-31555500D01*
X145862340Y-31575820D01*
X145781060Y-31593600D01*
X145722640Y-31608840D01*
X145689620Y-31619000D01*
X145682000Y-31624080D01*
X145679460Y-31639320D01*
X145676920Y-31682500D01*
X145674380Y-31748540D01*
X145671840Y-31834900D01*
X145671840Y-31936500D01*
X145669300Y-32050800D01*
X145669300Y-32177800D01*
X145669300Y-32314960D01*
X145669300Y-32332740D01*
X145669300Y-32492760D01*
X145669300Y-32492760D01*
X145669300Y-32492760D01*
G37*
X145669300Y-32492760D02*
X145669300Y-32629920D01*
X145669300Y-32741680D01*
X145671840Y-32830580D01*
X145671840Y-32901700D01*
X145674380Y-32955040D01*
X145676920Y-32993140D01*
X145679460Y-33021080D01*
X145684540Y-33036320D01*
X145689620Y-33041400D01*
X145707400Y-33049020D01*
X145750580Y-33059180D01*
X145814080Y-33074420D01*
X145895360Y-33089660D01*
X145991880Y-33109980D01*
X146101100Y-33130300D01*
X146215400Y-33153160D01*
X146342400Y-33176020D01*
X146456700Y-33198880D01*
X146555760Y-33219200D01*
X146637040Y-33236980D01*
X146698000Y-33249680D01*
X146733560Y-33259840D01*
X146743720Y-33264920D01*
X146753880Y-33282700D01*
X146774200Y-33320800D01*
X146799600Y-33379220D01*
X146830080Y-33447800D01*
X146863100Y-33524000D01*
X146896120Y-33607820D01*
X146929140Y-33689100D01*
X146959620Y-33765300D01*
X146985020Y-33833880D01*
X147005340Y-33889760D01*
X147018040Y-33927860D01*
X147020580Y-33943100D01*
X147012960Y-33955800D01*
X146990100Y-33991360D01*
X146954540Y-34044700D01*
X146908820Y-34110740D01*
X146855480Y-34189480D01*
X146797060Y-34275840D01*
X146758960Y-34329180D01*
X146502420Y-34705100D01*
X146502420Y-34872740D01*
X146502420Y-35040380D01*
X146893580Y-35431540D01*
X147284740Y-35822700D01*
X147449840Y-35822700D01*
X147612400Y-35822700D01*
X147983240Y-35568700D01*
X148351540Y-35314700D01*
X148470920Y-35378200D01*
X148587760Y-35444240D01*
X148760480Y-35439160D01*
X148933200Y-35434080D01*
X149311660Y-34524760D01*
X149690120Y-33615440D01*
X149690120Y-33470660D01*
X149690120Y-33407160D01*
X149687580Y-33353820D01*
X149685040Y-33318260D01*
X149682500Y-33305560D01*
X149667260Y-33287780D01*
X149634240Y-33259840D01*
X149588520Y-33224280D01*
X149545340Y-33193800D01*
X149428500Y-33107440D01*
X149331980Y-33026160D01*
X149253240Y-32944880D01*
X149187200Y-32858520D01*
X149128780Y-32759460D01*
X149090680Y-32685800D01*
X149032260Y-32553720D01*
X148999240Y-32434340D01*
X148991620Y-32325120D01*
X148996700Y-32256540D01*
X149042420Y-32091440D01*
X149113540Y-31936500D01*
X149204980Y-31791720D01*
X149321820Y-31659640D01*
X149456440Y-31545340D01*
X149606300Y-31451360D01*
X149626620Y-31441200D01*
X149733300Y-31392940D01*
X149837440Y-31359920D01*
X149936500Y-31339600D01*
X149994920Y-31334520D01*
X150101600Y-31347220D01*
X150220980Y-31380240D01*
X150345440Y-31433580D01*
X150467360Y-31504700D01*
X150581660Y-31588520D01*
X150685800Y-31682500D01*
X150751840Y-31753620D01*
X150812800Y-31842520D01*
X150873760Y-31949200D01*
X150924560Y-32063500D01*
X150965200Y-32172720D01*
X150975360Y-32208280D01*
X150988060Y-32281940D01*
X150993140Y-32350520D01*
X150988060Y-32416560D01*
X150967740Y-32492760D01*
X150937260Y-32586740D01*
X150929640Y-32607060D01*
X150855980Y-32762000D01*
X150759460Y-32904240D01*
X150637540Y-33036320D01*
X150492760Y-33155700D01*
X150393700Y-33224280D01*
X150353060Y-33252220D01*
X150320040Y-33275080D01*
X150304800Y-33287780D01*
X150302260Y-33308100D01*
X150297180Y-33351280D01*
X150297180Y-33407160D01*
X150294640Y-33460500D01*
X150294640Y-33615440D01*
X150662940Y-34499360D01*
X150723900Y-34651760D01*
X150782320Y-34794000D01*
X150838200Y-34928620D01*
X150889000Y-35050540D01*
X150934720Y-35157220D01*
X150972820Y-35248660D01*
X151003300Y-35324860D01*
X151026160Y-35378200D01*
X151041400Y-35408680D01*
X151043940Y-35413760D01*
X151051560Y-35426460D01*
X151066800Y-35434080D01*
X151092200Y-35439160D01*
X151132840Y-35441700D01*
X151193800Y-35441700D01*
X151224280Y-35441700D01*
X151391920Y-35441700D01*
X151511300Y-35378200D01*
X151630680Y-35314700D01*
X151861820Y-35474720D01*
X151945640Y-35530600D01*
X152032000Y-35591560D01*
X152115820Y-35647440D01*
X152186940Y-35695700D01*
X152232660Y-35728720D01*
X152372360Y-35822700D01*
X152537460Y-35822700D01*
X152700020Y-35822700D01*
X153093720Y-35431540D01*
X153484880Y-35040380D01*
X153484880Y-34875280D01*
X153484880Y-34804160D01*
X153482340Y-34755900D01*
X153477260Y-34720340D01*
X153469640Y-34694940D01*
X153454400Y-34669540D01*
X153436620Y-34644140D01*
X153416300Y-34613660D01*
X153383280Y-34562860D01*
X153337560Y-34496820D01*
X153286760Y-34420620D01*
X153228340Y-34336800D01*
X153177540Y-34260600D01*
X153119120Y-34176780D01*
X153068320Y-34100580D01*
X153025140Y-34034540D01*
X152992120Y-33981200D01*
X152969260Y-33945640D01*
X152961640Y-33930400D01*
X152966720Y-33912620D01*
X152981960Y-33871980D01*
X153002280Y-33813560D01*
X153032760Y-33739900D01*
X153065780Y-33656080D01*
X153091180Y-33590040D01*
X153134360Y-33480820D01*
X153169920Y-33397000D01*
X153197860Y-33333500D01*
X153220720Y-33290320D01*
X153235960Y-33264920D01*
X153248660Y-33254760D01*
X153271520Y-33249680D01*
X153314700Y-33239520D01*
X153380740Y-33226820D01*
X153464560Y-33209040D01*
X153563620Y-33191260D01*
X153672840Y-33168400D01*
X153779520Y-33150620D01*
X153893820Y-33127760D01*
X154003040Y-33107440D01*
X154097020Y-33087120D01*
X154178300Y-33071880D01*
X154241800Y-33056640D01*
X154282440Y-33046480D01*
X154297680Y-33041400D01*
X154302760Y-33033780D01*
X154305300Y-33016000D01*
X154307840Y-32985520D01*
X154310380Y-32942340D01*
X154312920Y-32883920D01*
X154315460Y-32805180D01*
X154315460Y-32708660D01*
X154315460Y-32589280D01*
X154318000Y-32441960D01*
X154318000Y-32330200D01*
X154318000Y-31634240D01*
X154284980Y-31616460D01*
X154264660Y-31608840D01*
X154218940Y-31596140D01*
X154152900Y-31583440D01*
X154069080Y-31565660D01*
X153970020Y-31545340D01*
X153858260Y-31525020D01*
X153741420Y-31502160D01*
X153738880Y-31502160D01*
X153622040Y-31479300D01*
X153512820Y-31458980D01*
X153413760Y-31438660D01*
X153332480Y-31420880D01*
X153268980Y-31408180D01*
X153225800Y-31395480D01*
X153205480Y-31390400D01*
X153205480Y-31390400D01*
X153195320Y-31372620D01*
X153177540Y-31334520D01*
X153152140Y-31278640D01*
X153119120Y-31210060D01*
X153086100Y-31133860D01*
X153053080Y-31055120D01*
X153017520Y-30978920D01*
X152987040Y-30907800D01*
X152961640Y-30844300D01*
X152943860Y-30798580D01*
X152933700Y-30770640D01*
X152933700Y-30768100D01*
X152941320Y-30752860D01*
X152964180Y-30717300D01*
X152997200Y-30663960D01*
X153042920Y-30595380D01*
X153096260Y-30516640D01*
X153157220Y-30427740D01*
X153208020Y-30351540D01*
X153484880Y-29950220D01*
X153484880Y-29787660D01*
X153484880Y-29625100D01*
X153093720Y-29231400D01*
X152702560Y-28840240D01*
X152534920Y-28840240D01*
X152367280Y-28840240D01*
X152011680Y-29084080D01*
X151920240Y-29145040D01*
X151833880Y-29206000D01*
X151755140Y-29259340D01*
X151689100Y-29305060D01*
X151638300Y-29340620D01*
X151605280Y-29363480D01*
X151600200Y-29366020D01*
X151541780Y-29406660D01*
X151275080Y-29297440D01*
X151170940Y-29256800D01*
X151092200Y-29223780D01*
X151031240Y-29198380D01*
X150988060Y-29178060D01*
X150960120Y-29162820D01*
X150942340Y-29150120D01*
X150929640Y-29139960D01*
X150924560Y-29127260D01*
X150924560Y-29124720D01*
X150919480Y-29104400D01*
X150909320Y-29058680D01*
X150896620Y-28995180D01*
X150881380Y-28911360D01*
X150861060Y-28812300D01*
X150840740Y-28703080D01*
X150820420Y-28583700D01*
X150817880Y-28571000D01*
X150795020Y-28454160D01*
X150772160Y-28342400D01*
X150754380Y-28243340D01*
X150736600Y-28159520D01*
X150721360Y-28093480D01*
X150711200Y-28047760D01*
X150703580Y-28027440D01*
X150703580Y-28027440D01*
X150695960Y-28022360D01*
X150678180Y-28019820D01*
X150652780Y-28014740D01*
X150612140Y-28012200D01*
X150556260Y-28012200D01*
X150482600Y-28009660D01*
X150391160Y-28009660D01*
X150276860Y-28007120D01*
X150137160Y-28007120D01*
X149994920Y-28007120D01*
X149857760Y-28007120D01*
X149728220Y-28009660D01*
X149611380Y-28009660D01*
X149507240Y-28012200D01*
X149418340Y-28012200D01*
X149352300Y-28014740D01*
X149306580Y-28017280D01*
X149283720Y-28019820D01*
X149283720Y-28019820D01*
X149276100Y-28037600D01*
X149265940Y-28078240D01*
X149250700Y-28146820D01*
X149230380Y-28233180D01*
X149210060Y-28342400D01*
X149184660Y-28469400D01*
X149166880Y-28565920D01*
X149144020Y-28685300D01*
X149123700Y-28799600D01*
X149103380Y-28901200D01*
X149088140Y-28987560D01*
X149072900Y-29056140D01*
X149062740Y-29104400D01*
X149057660Y-29129800D01*
X149057660Y-29129800D01*
X149044960Y-29145040D01*
X149014480Y-29162820D01*
X148968760Y-29185680D01*
X148900180Y-29216160D01*
X148811280Y-29256800D01*
X148745240Y-29282200D01*
X148648720Y-29322840D01*
X148575060Y-29350780D01*
X148521720Y-29373640D01*
X148481080Y-29386340D01*
X148455680Y-29391420D01*
X148435360Y-29393960D01*
X148422660Y-29388880D01*
X148409960Y-29383800D01*
X148407420Y-29381260D01*
X148387100Y-29368560D01*
X148346460Y-29340620D01*
X148290580Y-29299980D01*
X148216920Y-29251720D01*
X148135640Y-29195840D01*
X148044200Y-29134880D01*
X147993400Y-29099320D01*
X147617480Y-28840240D01*
X147449840Y-28840240D01*
X147284740Y-28840240D01*
X146893580Y-29231400D01*
X146502420Y-29622560D01*
X146502420Y-29790200D01*
X146502420Y-29957840D01*
X146779280Y-30359160D01*
X147056140Y-30760480D01*
X146924060Y-31072900D01*
X146883420Y-31161800D01*
X146847860Y-31243080D01*
X146814840Y-31309120D01*
X146789440Y-31359920D01*
X146771660Y-31390400D01*
X146766580Y-31395480D01*
X146746260Y-31400560D01*
X146703080Y-31410720D01*
X146639580Y-31425960D01*
X146555760Y-31441200D01*
X146456700Y-31461520D01*
X146347480Y-31481840D01*
X146230640Y-31504700D01*
X146217940Y-31507240D01*
X146080780Y-31532640D01*
X145961400Y-31555500D01*
X145862340Y-31575820D01*
X145781060Y-31593600D01*
X145722640Y-31608840D01*
X145689620Y-31619000D01*
X145682000Y-31624080D01*
X145679460Y-31639320D01*
X145676920Y-31682500D01*
X145674380Y-31748540D01*
X145671840Y-31834900D01*
X145671840Y-31936500D01*
X145669300Y-32050800D01*
X145669300Y-32177800D01*
X145669300Y-32314960D01*
X145669300Y-32332740D01*
X145669300Y-32492760D01*
X145669300Y-32492760D01*
D12*
G36*
X162169680Y-30435360D02*
X164567440Y-30435360D01*
X164567440Y-31166880D01*
X162169680Y-31166880D01*
X162169680Y-32497840D01*
X162169622Y-32660521D01*
X162169453Y-32817499D01*
X162169178Y-32967585D01*
X162168806Y-33109589D01*
X162168343Y-33242325D01*
X162167796Y-33364602D01*
X162167172Y-33475233D01*
X162166478Y-33573030D01*
X162165721Y-33656804D01*
X162164908Y-33725366D01*
X162164045Y-33777528D01*
X162163140Y-33812102D01*
X162162200Y-33827899D01*
X162161914Y-33828800D01*
X162152603Y-33821938D01*
X162131432Y-33802868D01*
X162100798Y-33773856D01*
X162063100Y-33737174D01*
X162022361Y-33696720D01*
X161890574Y-33564640D01*
X159639840Y-33564640D01*
X159639840Y-32843280D01*
X162037600Y-32843280D01*
X162037600Y-28769120D01*
X156434407Y-28769120D01*
X157267481Y-29602240D01*
X158100554Y-30435360D01*
X160361200Y-30435360D01*
X160361200Y-31166880D01*
X159835392Y-31166879D01*
X159309583Y-31166879D01*
X158636512Y-31840008D01*
X157963440Y-32513136D01*
X157963441Y-33204017D01*
X157963441Y-33894897D01*
X158636569Y-34567968D01*
X159309697Y-35241040D01*
X166233839Y-35241040D01*
X166231367Y-32843280D01*
X164567440Y-32843280D01*
X164567440Y-33564640D01*
X164287871Y-33564640D01*
X164061896Y-33338497D01*
X163835920Y-33112354D01*
X163835920Y-32843280D01*
X164567440Y-32843280D01*
X166231367Y-32843280D01*
X166231220Y-32701204D01*
X166228600Y-30161369D01*
X166335280Y-30267252D01*
X166378935Y-30309981D01*
X166412673Y-30340978D01*
X166440567Y-30363248D01*
X166466691Y-30379795D01*
X166495116Y-30393626D01*
X166520965Y-30404247D01*
X166599969Y-30435359D01*
X167450711Y-30435359D01*
X168301452Y-30435360D01*
X168484121Y-30618240D01*
X168666789Y-30801119D01*
X168484120Y-30983999D01*
X168301452Y-31166880D01*
X166365760Y-31166880D01*
X166365760Y-35241040D01*
X171334000Y-35241040D01*
X171334000Y-33564640D01*
X168032000Y-33564640D01*
X168032000Y-32843280D01*
X168562889Y-32843280D01*
X169093778Y-32843279D01*
X169766998Y-32170002D01*
X170440219Y-31496724D01*
X170437530Y-30846662D01*
X170436924Y-30733099D01*
X170436085Y-30625215D01*
X170435044Y-30524783D01*
X170433831Y-30433575D01*
X170432478Y-30353363D01*
X170431016Y-30285919D01*
X170429475Y-30233015D01*
X170427885Y-30196423D01*
X170426279Y-30177916D01*
X170425860Y-30176280D01*
X170429837Y-30176740D01*
X170446152Y-30189833D01*
X170472828Y-30213772D01*
X170507884Y-30246772D01*
X170549343Y-30287045D01*
X170558071Y-30295660D01*
X170699264Y-30435360D01*
X171466080Y-30435360D01*
X171466080Y-35241040D01*
X173132320Y-35241040D01*
X173132320Y-30435360D01*
X173899447Y-30435360D01*
X174732521Y-29602240D01*
X175565594Y-28769120D01*
X162169680Y-28769120D01*
X162169680Y-30435360D01*
X162169680Y-30435360D01*
G37*
X162169680Y-30435360D02*
X164567440Y-30435360D01*
X164567440Y-31166880D01*
X162169680Y-31166880D01*
X162169680Y-32497840D01*
X162169622Y-32660521D01*
X162169453Y-32817499D01*
X162169178Y-32967585D01*
X162168806Y-33109589D01*
X162168343Y-33242325D01*
X162167796Y-33364602D01*
X162167172Y-33475233D01*
X162166478Y-33573030D01*
X162165721Y-33656804D01*
X162164908Y-33725366D01*
X162164045Y-33777528D01*
X162163140Y-33812102D01*
X162162200Y-33827899D01*
X162161914Y-33828800D01*
X162152603Y-33821938D01*
X162131432Y-33802868D01*
X162100798Y-33773856D01*
X162063100Y-33737174D01*
X162022361Y-33696720D01*
X161890574Y-33564640D01*
X159639840Y-33564640D01*
X159639840Y-32843280D01*
X162037600Y-32843280D01*
X162037600Y-28769120D01*
X156434407Y-28769120D01*
X157267481Y-29602240D01*
X158100554Y-30435360D01*
X160361200Y-30435360D01*
X160361200Y-31166880D01*
X159835392Y-31166879D01*
X159309583Y-31166879D01*
X158636512Y-31840008D01*
X157963440Y-32513136D01*
X157963441Y-33204017D01*
X157963441Y-33894897D01*
X158636569Y-34567968D01*
X159309697Y-35241040D01*
X166233839Y-35241040D01*
X166231367Y-32843280D01*
X164567440Y-32843280D01*
X164567440Y-33564640D01*
X164287871Y-33564640D01*
X164061896Y-33338497D01*
X163835920Y-33112354D01*
X163835920Y-32843280D01*
X164567440Y-32843280D01*
X166231367Y-32843280D01*
X166231220Y-32701204D01*
X166228600Y-30161369D01*
X166335280Y-30267252D01*
X166378935Y-30309981D01*
X166412673Y-30340978D01*
X166440567Y-30363248D01*
X166466691Y-30379795D01*
X166495116Y-30393626D01*
X166520965Y-30404247D01*
X166599969Y-30435359D01*
X167450711Y-30435359D01*
X168301452Y-30435360D01*
X168484121Y-30618240D01*
X168666789Y-30801119D01*
X168484120Y-30983999D01*
X168301452Y-31166880D01*
X166365760Y-31166880D01*
X166365760Y-35241040D01*
X171334000Y-35241040D01*
X171334000Y-33564640D01*
X168032000Y-33564640D01*
X168032000Y-32843280D01*
X168562889Y-32843280D01*
X169093778Y-32843279D01*
X169766998Y-32170002D01*
X170440219Y-31496724D01*
X170437530Y-30846662D01*
X170436924Y-30733099D01*
X170436085Y-30625215D01*
X170435044Y-30524783D01*
X170433831Y-30433575D01*
X170432478Y-30353363D01*
X170431016Y-30285919D01*
X170429475Y-30233015D01*
X170427885Y-30196423D01*
X170426279Y-30177916D01*
X170425860Y-30176280D01*
X170429837Y-30176740D01*
X170446152Y-30189833D01*
X170472828Y-30213772D01*
X170507884Y-30246772D01*
X170549343Y-30287045D01*
X170558071Y-30295660D01*
X170699264Y-30435360D01*
X171466080Y-30435360D01*
X171466080Y-35241040D01*
X173132320Y-35241040D01*
X173132320Y-30435360D01*
X173899447Y-30435360D01*
X174732521Y-29602240D01*
X175565594Y-28769120D01*
X162169680Y-28769120D01*
X162169680Y-30435360D01*
D13*
X104426000Y-121031000D03*
D14*
X109506000Y-121031000D03*
D15*
X107425547Y-125030954D02*
X108236453Y-123571046D01*
D13*
X99663000Y-121031000D03*
D14*
X94583000Y-121031000D03*
D15*
X101827641Y-126211294D02*
X103284359Y-123588706D01*
D16*
X97423276Y-126110328D02*
X97462724Y-125531672D01*
D13*
X111570000Y-121031000D03*
D14*
X116650000Y-121031000D03*
D15*
X114569547Y-125030954D02*
X115380453Y-123571046D01*
D13*
X44895000Y-121031000D03*
D14*
X49975000Y-121031000D03*
X39815000Y-121031000D03*
D15*
X47894547Y-125030954D02*
X48705453Y-123571046D01*
X42355276Y-126110328D02*
X42394724Y-125531672D01*
D17*
X56833000Y-128016000D03*
X32957000Y-128016000D03*
D18*
X56833000Y-112776000D03*
X32957000Y-112776000D03*
D17*
X63976000Y-128016000D03*
X40100000Y-128016000D03*
D18*
X63976000Y-112776000D03*
X40100000Y-112776000D03*
D19*
X77121000Y-115951000D03*
D20*
X74581000Y-115951000D03*
D19*
X76962000Y-115951000D03*
D20*
X79502000Y-115951000D03*
D19*
X81725000Y-115951000D03*
D20*
X84265000Y-115951000D03*
D19*
X46165000Y-115951000D03*
D20*
X43625000Y-115951000D03*
D13*
X87757000Y-121031000D03*
D21*
X89836526Y-126386134D02*
X91487474Y-123413866D01*
D13*
X78232000Y-121031000D03*
D14*
X73152000Y-121031000D03*
D22*
X80435805Y-126342424D02*
X82038195Y-123457576D01*
D15*
X75692276Y-126110328D02*
X75731724Y-125531672D01*
D13*
X92519000Y-121031000D03*
D16*
X95097154Y-125249503D02*
X96150846Y-123352497D01*
D19*
X100933000Y-115951000D03*
D20*
X98393000Y-115951000D03*
D19*
X122364000Y-115951000D03*
D20*
X119824000Y-115951000D03*
D19*
X122206000Y-115951000D03*
D20*
X124746000Y-115951000D03*
D13*
X125857000Y-121031000D03*
D14*
X130937000Y-121031000D03*
D23*
X129775000Y-123571000D03*
D24*
X128800000Y-125400000D03*
D13*
X121094000Y-121031000D03*
D14*
X116014000Y-121031000D03*
D15*
X123550760Y-125967052D02*
X124847240Y-123632948D01*
D16*
X118680276Y-126110328D02*
X118719724Y-125531672D01*
D19*
X139033000Y-115951000D03*
D20*
X136493000Y-115951000D03*
D13*
X137763000Y-121031000D03*
D14*
X142843000Y-121031000D03*
X132683000Y-121031000D03*
D15*
X140762547Y-125030954D02*
X141573453Y-123571046D01*
X135223276Y-126110328D02*
X135262724Y-125531672D01*
D19*
X160306000Y-115951000D03*
D20*
X162846000Y-115951000D03*
D13*
X161576000Y-121031000D03*
D14*
X166656000Y-121031000D03*
X156496000Y-121031000D03*
D15*
X164575547Y-125030954D02*
X165386453Y-123571046D01*
X159036276Y-126110328D02*
X159075724Y-125531672D01*
D13*
X52038000Y-121031000D03*
D14*
X57118000Y-121031000D03*
D15*
X55037547Y-125030954D02*
X55848453Y-123571046D01*
D13*
X106807000Y-121031000D03*
D14*
X101727000Y-121031000D03*
D15*
X108971641Y-126211294D02*
X110428359Y-123588706D01*
X104267276Y-126110328D02*
X104306724Y-125531672D01*
D25*
X47974000Y-36703000D03*
X45974000Y-36703000D03*
D26*
X96570800Y-33054800D03*
X96570800Y-31054800D03*
D25*
X60690000Y-23876000D03*
X58690000Y-23876000D03*
D26*
X85217000Y-27416000D03*
X85217000Y-25416000D03*
D27*
X103696000Y-43078400D03*
X103696000Y-46578520D03*
D13*
X106807000Y-44831000D03*
D14*
X111887000Y-44831000D03*
X101727000Y-44831000D03*
D15*
X109806547Y-48830954D02*
X110617453Y-47371046D01*
X104267276Y-49910328D02*
X104306724Y-49331672D01*
D13*
X78232000Y-63881000D03*
D14*
X83312000Y-63881000D03*
X73152000Y-63881000D03*
D15*
X81231547Y-67880954D02*
X82042453Y-66421046D01*
X75692276Y-68960328D02*
X75731724Y-68381672D01*
D28*
X34619000Y-35301800D03*
X34619000Y-31601800D03*
X40819000Y-35301800D03*
X40819000Y-31601800D03*
D13*
X90138000Y-121031000D03*
D14*
X85058000Y-121031000D03*
D21*
X93140432Y-125205793D02*
X94145568Y-123396207D01*
D16*
X87581272Y-126359750D02*
X87654728Y-125282250D01*
D17*
X59214000Y-128016000D03*
X35338000Y-128016000D03*
D18*
X59214000Y-112776000D03*
X35338000Y-112776000D03*
D13*
X21082000Y-63881000D03*
D14*
X26162000Y-63881000D03*
X16002000Y-63881000D03*
D15*
X24081547Y-67880954D02*
X24892453Y-66421046D01*
X18542276Y-68960328D02*
X18581724Y-68381672D01*
D13*
X87757000Y-44831000D03*
D14*
X92837000Y-44831000D03*
X82677000Y-44831000D03*
D15*
X90756547Y-48830954D02*
X91567453Y-47371046D01*
X85217276Y-49910328D02*
X85256724Y-49331672D01*
D29*
X56500000Y-26128000D03*
X56500000Y-26778000D03*
X56500000Y-27428000D03*
X56500000Y-28078000D03*
X56500000Y-28728000D03*
X56500000Y-29378000D03*
X56500000Y-30028000D03*
X56500000Y-30678000D03*
X56500000Y-31328000D03*
X56500000Y-31978000D03*
X56500000Y-32628000D03*
X56500000Y-33278000D03*
X56500000Y-33928000D03*
X56500000Y-34578000D03*
X48910000Y-34578000D03*
X48910000Y-33928000D03*
X48910000Y-33278000D03*
X48910000Y-32628000D03*
X48910000Y-31978000D03*
X48910000Y-31328000D03*
X48910000Y-30678000D03*
X48910000Y-30028000D03*
X48910000Y-29378000D03*
X48910000Y-28728000D03*
X48910000Y-28078000D03*
X48910000Y-27428000D03*
X48910000Y-26778000D03*
X48910000Y-26128000D03*
D30*
X91998800Y-32564800D03*
X89698800Y-32564800D03*
X94298800Y-32564800D03*
D31*
X91998800Y-26464800D03*
D13*
X125857000Y-44831000D03*
D14*
X130937000Y-44831000D03*
X120777000Y-44831000D03*
D15*
X128856547Y-48830954D02*
X129667453Y-47371046D01*
X123317276Y-49910328D02*
X123356724Y-49331672D01*
D19*
X184277000Y-58801000D03*
D20*
X181737000Y-58801000D03*
D13*
X163957000Y-101981000D03*
D14*
X169037000Y-101981000D03*
X158877000Y-101981000D03*
D15*
X166956547Y-105980954D02*
X167767453Y-104521046D01*
X161417276Y-107060328D02*
X161456724Y-106481672D01*
D13*
X137763000Y-101981000D03*
D14*
X142843000Y-101981000D03*
X132683000Y-101981000D03*
D15*
X140762547Y-105980954D02*
X141573453Y-104521046D01*
X135223276Y-107060328D02*
X135262724Y-106481672D01*
D13*
X111570000Y-101981000D03*
D14*
X116650000Y-101981000D03*
X106490000Y-101981000D03*
D15*
X114569547Y-105980954D02*
X115380453Y-104521046D01*
X109030276Y-107060328D02*
X109069724Y-106481672D01*
D13*
X54420000Y-101981000D03*
D14*
X59500000Y-101981000D03*
X49340000Y-101981000D03*
D15*
X57419547Y-105980954D02*
X58230453Y-104521046D01*
X51880276Y-107060328D02*
X51919724Y-106481672D01*
D13*
X35370000Y-101981000D03*
D14*
X40450000Y-101981000D03*
X30290000Y-101981000D03*
D15*
X38369547Y-105980954D02*
X39180453Y-104521046D01*
X32830276Y-107060328D02*
X32869724Y-106481672D01*
D13*
X73469000Y-101981000D03*
D14*
X78549000Y-101981000D03*
X68389000Y-101981000D03*
D15*
X76468547Y-105980954D02*
X77279453Y-104521046D01*
X70929276Y-107060328D02*
X70968724Y-106481672D01*
D13*
X92519000Y-101981000D03*
D14*
X97599000Y-101981000D03*
X87439000Y-101981000D03*
D15*
X95518547Y-105980954D02*
X96329453Y-104521046D01*
X89979276Y-107060328D02*
X90018724Y-106481672D01*
D13*
X44895000Y-82931000D03*
D14*
X49975000Y-82931000D03*
X39815000Y-82931000D03*
D15*
X47894547Y-86930954D02*
X48705453Y-85471046D01*
X42355276Y-88010328D02*
X42394724Y-87431672D01*
D13*
X63945000Y-82931000D03*
D14*
X69025000Y-82931000D03*
X58865000Y-82931000D03*
D15*
X66944547Y-86930954D02*
X67755453Y-85471046D01*
X61405276Y-88010328D02*
X61444724Y-87431672D01*
D13*
X82995000Y-82931000D03*
D14*
X88075000Y-82931000D03*
X77915000Y-82931000D03*
D15*
X85994547Y-86930954D02*
X86805453Y-85471046D01*
X80455276Y-88010328D02*
X80494724Y-87431672D01*
D13*
X121094000Y-82931000D03*
D14*
X126174000Y-82931000D03*
X116014000Y-82931000D03*
D15*
X124093547Y-86930954D02*
X124904453Y-85471046D01*
X118554276Y-88010328D02*
X118593724Y-87431672D01*
D13*
X59182000Y-63881000D03*
D14*
X64262000Y-63881000D03*
X54102000Y-63881000D03*
D15*
X62181547Y-67880954D02*
X62992453Y-66421046D01*
X56642276Y-68960328D02*
X56681724Y-68381672D01*
D13*
X97282000Y-63881000D03*
D14*
X102362000Y-63881000D03*
X92202000Y-63881000D03*
D15*
X100281547Y-67880954D02*
X101092453Y-66421046D01*
X94742276Y-68960328D02*
X94781724Y-68381672D01*
D13*
X144907000Y-44831000D03*
D14*
X149987000Y-44831000D03*
X139827000Y-44831000D03*
D15*
X147906547Y-48830954D02*
X148717453Y-47371046D01*
X142367276Y-49910328D02*
X142406724Y-49331672D01*
D13*
X116332000Y-63881000D03*
D14*
X121412000Y-63881000D03*
X111252000Y-63881000D03*
D15*
X119331547Y-67880954D02*
X120142453Y-66421046D01*
X113792276Y-68960328D02*
X113831724Y-68381672D01*
D13*
X30607000Y-44831000D03*
D14*
X35687000Y-44831000D03*
X25527000Y-44831000D03*
D15*
X33606547Y-48830954D02*
X34417453Y-47371046D01*
X28067276Y-49910328D02*
X28106724Y-49331672D01*
D13*
X49657000Y-44831000D03*
D14*
X54737000Y-44831000D03*
X44577000Y-44831000D03*
D15*
X52656547Y-48830954D02*
X53467453Y-47371046D01*
X47117276Y-49910328D02*
X47156724Y-49331672D01*
D13*
X68707000Y-44831000D03*
D14*
X73787000Y-44831000D03*
X63627000Y-44831000D03*
D15*
X71706547Y-48830954D02*
X72517453Y-47371046D01*
X66167276Y-49910328D02*
X66206724Y-49331672D01*
D32*
X71815000Y-24603000D03*
X72315000Y-24603000D03*
X72815000Y-24603000D03*
X73315000Y-24603000D03*
X73815000Y-24603000D03*
X74315000Y-24603000D03*
X74815000Y-24603000D03*
X75315000Y-24603000D03*
X75815000Y-24603000D03*
X76315000Y-24603000D03*
X76815000Y-24603000D03*
X77315000Y-24603000D03*
X77815000Y-24603000D03*
X78315000Y-24603000D03*
X78815000Y-24603000D03*
X79315000Y-24603000D03*
D33*
X81315000Y-26603000D03*
X81315000Y-27103000D03*
X81315000Y-27603000D03*
X81315000Y-28103000D03*
X81315000Y-28603000D03*
X81315000Y-29103000D03*
X81315000Y-29603000D03*
X81315000Y-30103000D03*
X81315000Y-30603000D03*
X81315000Y-31103000D03*
X81315000Y-31603000D03*
X81315000Y-32103000D03*
X81315000Y-32603000D03*
X81315000Y-33103000D03*
X81315000Y-33603000D03*
X81315000Y-34103000D03*
D32*
X79315000Y-36103000D03*
X78815000Y-36103000D03*
X78315000Y-36103000D03*
X77815000Y-36103000D03*
X77315000Y-36103000D03*
X76815000Y-36103000D03*
X76315000Y-36103000D03*
X75815000Y-36103000D03*
X75315000Y-36103000D03*
X74815000Y-36103000D03*
X74315000Y-36103000D03*
X73815000Y-36103000D03*
X73315000Y-36103000D03*
X72815000Y-36103000D03*
X72315000Y-36103000D03*
X71815000Y-36103000D03*
D33*
X69815000Y-34103000D03*
X69815000Y-33603000D03*
X69815000Y-33103000D03*
X69815000Y-32603000D03*
X69815000Y-32103000D03*
X69815000Y-31603000D03*
X69815000Y-31103000D03*
X69815000Y-30603000D03*
X69815000Y-30103000D03*
X69815000Y-29603000D03*
X69815000Y-29103000D03*
X69815000Y-28603000D03*
X69815000Y-28103000D03*
X69815000Y-27603000D03*
X69815000Y-27103000D03*
X69815000Y-26603000D03*
D34*
X82385000Y-39581000D03*
X83985000Y-39581000D03*
X83985000Y-37381000D03*
X82385000Y-37381000D03*
D19*
X122364000Y-77851000D03*
D20*
X119824000Y-77851000D03*
D19*
X65215000Y-77851000D03*
D20*
X62675000Y-77851000D03*
D19*
X136652000Y-58801000D03*
D20*
X134112000Y-58801000D03*
D19*
X79502000Y-58801000D03*
D20*
X76962000Y-58801000D03*
D19*
X146177000Y-39751000D03*
D20*
X143637000Y-39751000D03*
D19*
X89027000Y-39751000D03*
D20*
X86487000Y-39751000D03*
D19*
X165227000Y-115951000D03*
D20*
X162687000Y-115951000D03*
D19*
X74739000Y-96901000D03*
D20*
X72199000Y-96901000D03*
D19*
X139033000Y-96901000D03*
D20*
X136493000Y-96901000D03*
D19*
X146177000Y-115951000D03*
D20*
X143637000Y-115951000D03*
D19*
X115221000Y-115951000D03*
D20*
X112681000Y-115951000D03*
D19*
X127127000Y-39751000D03*
D20*
X124587000Y-39751000D03*
D19*
X184277000Y-115951000D03*
D20*
X181737000Y-115951000D03*
D19*
X117602000Y-58801000D03*
D20*
X115062000Y-58801000D03*
D19*
X103315000Y-77851000D03*
D20*
X100775000Y-77851000D03*
D19*
X55690000Y-96901000D03*
D20*
X53150000Y-96901000D03*
D19*
X184277000Y-77851000D03*
D20*
X181737000Y-77851000D03*
D19*
X112840000Y-96901000D03*
D20*
X110300000Y-96901000D03*
D19*
X50927000Y-39751000D03*
D20*
X48387000Y-39751000D03*
D19*
X184277000Y-96901000D03*
D20*
X181737000Y-96901000D03*
D19*
X127127000Y-115951000D03*
D20*
X124587000Y-115951000D03*
D19*
X41402000Y-58801000D03*
D20*
X38862000Y-58801000D03*
D19*
X184277000Y-39751000D03*
D20*
X181737000Y-39751000D03*
D19*
X27114000Y-77851000D03*
D20*
X24574000Y-77851000D03*
D19*
X165227000Y-39751000D03*
D20*
X162687000Y-39751000D03*
D19*
X36640000Y-96901000D03*
D20*
X34100000Y-96901000D03*
D19*
X160464000Y-58801000D03*
D20*
X157924000Y-58801000D03*
D19*
X93789000Y-96901000D03*
D20*
X91249000Y-96901000D03*
D19*
X165227000Y-96901000D03*
D20*
X162687000Y-96901000D03*
D27*
X22733000Y-81305400D03*
X22733000Y-84805520D03*
X41784000Y-81178400D03*
X41784000Y-84678520D03*
X60834500Y-81178400D03*
X60834500Y-84678520D03*
X79884000Y-81178400D03*
X79884000Y-84678520D03*
X98950000Y-81178400D03*
X98950000Y-84678520D03*
X118000000Y-81178400D03*
X118000000Y-84678520D03*
X18000000Y-62128400D03*
X18000000Y-65628520D03*
X37021000Y-62058400D03*
X37021000Y-65558520D03*
X56071000Y-62128400D03*
X56071000Y-65628520D03*
X94171000Y-62128400D03*
X94171000Y-65628520D03*
X113221000Y-62128400D03*
X113221000Y-65628520D03*
X27495500Y-43078400D03*
X27495500Y-46578520D03*
X46545500Y-43078400D03*
X46545500Y-46578520D03*
X122746000Y-43078400D03*
X122746000Y-46578520D03*
X84645500Y-43078400D03*
X84645500Y-46578520D03*
X65595500Y-43078400D03*
X65595500Y-46578520D03*
X75121000Y-62128400D03*
X75121000Y-65628520D03*
X37439600Y-119253000D03*
X37439600Y-122753120D03*
X68884800Y-122377200D03*
X68884800Y-125877320D03*
X131686300Y-124942600D03*
X131686300Y-128442720D03*
D35*
X97180400Y-128397000D03*
X100680520Y-128397000D03*
D27*
X134670800Y-119608600D03*
X134670800Y-123108720D03*
X32260000Y-100228400D03*
X32260000Y-103728520D03*
X51310000Y-100228400D03*
X51310000Y-103728520D03*
X70358000Y-100228400D03*
X70358000Y-103728520D03*
X89408000Y-100228400D03*
X89408000Y-103728520D03*
X108460000Y-100228400D03*
X108460000Y-103728520D03*
X134652000Y-100228400D03*
X134652000Y-103728520D03*
D13*
X102045000Y-82931000D03*
D14*
X107125000Y-82931000D03*
X96965000Y-82931000D03*
D15*
X105044547Y-86930954D02*
X105855453Y-85471046D01*
X99505276Y-88010328D02*
X99544724Y-87431672D01*
D13*
X40132000Y-63811000D03*
D14*
X45212000Y-63811000D03*
X35052000Y-63811000D03*
D15*
X43131547Y-67810954D02*
X43942453Y-66351046D01*
X37592276Y-68890328D02*
X37631724Y-68311672D01*
D27*
X160846000Y-100228400D03*
X160846000Y-103728520D03*
D19*
X84265000Y-77851000D03*
D20*
X81725000Y-77851000D03*
D36*
X85217000Y-32407860D03*
X85217000Y-29568140D03*
D37*
X57404000Y-73660000D03*
X59944000Y-73660000D03*
X62484000Y-73660000D03*
X65024000Y-73660000D03*
X67564000Y-73660000D03*
X70104000Y-73660000D03*
X72644000Y-73660000D03*
X75184000Y-73660000D03*
X77724000Y-73660000D03*
X80264000Y-73660000D03*
X82804000Y-73660000D03*
X90424000Y-73660000D03*
X92964000Y-73660000D03*
X95504000Y-73660000D03*
X98044000Y-73660000D03*
D26*
X83312000Y-32782000D03*
X83312000Y-34782000D03*
X88036400Y-32521400D03*
X88036400Y-30521400D03*
X68986400Y-23130000D03*
X68986400Y-25130000D03*
D25*
X60690000Y-25908000D03*
X58690000Y-25908000D03*
X58690000Y-30480000D03*
X60690000Y-30480000D03*
X60690000Y-27940000D03*
X58690000Y-27940000D03*
D26*
X119354600Y-29899100D03*
X119354600Y-31899100D03*
X121424700Y-29899100D03*
X121424700Y-31899100D03*
X78867000Y-39640000D03*
X78867000Y-41640000D03*
D25*
X71390000Y-38481000D03*
X73390000Y-38481000D03*
D26*
X66802000Y-35830000D03*
X66802000Y-37830000D03*
X68834000Y-35830000D03*
X68834000Y-37830000D03*
D25*
X44355000Y-28956000D03*
X46355000Y-28956000D03*
X44339000Y-30734000D03*
X46339000Y-30734000D03*
D26*
X46736000Y-34909000D03*
X46736000Y-32909000D03*
D27*
X132271000Y-62128400D03*
X132271000Y-65628520D03*
X179896000Y-100228400D03*
X179896000Y-103728520D03*
X179896000Y-43078400D03*
X179896000Y-46578520D03*
X173329600Y-43294300D03*
X173329600Y-46794420D03*
X179896000Y-62128400D03*
X179896000Y-65628520D03*
X156073000Y-62255400D03*
X156073000Y-65755520D03*
X179896000Y-81178400D03*
X179896000Y-84678520D03*
X148950000Y-81178400D03*
X148950000Y-84678520D03*
D13*
X135382000Y-63881000D03*
D14*
X140462000Y-63881000D03*
X130302000Y-63881000D03*
D15*
X138381547Y-67880954D02*
X139192453Y-66421046D01*
X132842276Y-68960328D02*
X132881724Y-68381672D01*
D13*
X183007000Y-101981000D03*
D14*
X188087000Y-101981000D03*
X177927000Y-101981000D03*
D15*
X186006547Y-105980954D02*
X186817453Y-104521046D01*
X180467276Y-107060328D02*
X180506724Y-106481672D01*
D13*
X183007000Y-44831000D03*
D14*
X188087000Y-44831000D03*
X177927000Y-44831000D03*
D15*
X186006547Y-48830954D02*
X186817453Y-47371046D01*
X180467276Y-49910328D02*
X180506724Y-49331672D01*
D13*
X163957000Y-44831000D03*
D14*
X169037000Y-44831000D03*
X158877000Y-44831000D03*
D15*
X166956547Y-48830954D02*
X167767453Y-47371046D01*
X161417276Y-49910328D02*
X161456724Y-49331672D01*
D13*
X183007000Y-63881000D03*
D14*
X188087000Y-63881000D03*
X177927000Y-63881000D03*
D15*
X186006547Y-67880954D02*
X186817453Y-66421046D01*
X180467276Y-68960328D02*
X180506724Y-68381672D01*
D13*
X159194000Y-64008000D03*
D14*
X164274000Y-64008000D03*
X154114000Y-64008000D03*
D15*
X162193547Y-68007954D02*
X163004453Y-66548046D01*
X156654276Y-69087328D02*
X156693724Y-68508672D01*
D13*
X183007000Y-82931000D03*
D14*
X188087000Y-82931000D03*
X177927000Y-82931000D03*
D15*
X186006547Y-86930954D02*
X186817453Y-85471046D01*
X180467276Y-88010328D02*
X180506724Y-87431672D01*
D13*
X152051000Y-82931000D03*
D14*
X157131000Y-82931000D03*
X146971000Y-82931000D03*
D15*
X155050547Y-86930954D02*
X155861453Y-85471046D01*
X149511276Y-88010328D02*
X149550724Y-87431672D01*
D13*
X25844000Y-82931000D03*
D14*
X30924000Y-82931000D03*
X20764000Y-82931000D03*
D15*
X28843547Y-86930954D02*
X29654453Y-85471046D01*
X23304276Y-88010328D02*
X23343724Y-87431672D01*
D27*
X141800000Y-43078400D03*
X141800000Y-46578520D03*
X179896000Y-119278400D03*
X179896000Y-122778520D03*
X154190700Y-119926100D03*
X154190700Y-123426220D03*
D13*
X183007000Y-121031000D03*
D14*
X188087000Y-121031000D03*
X177927000Y-121031000D03*
D15*
X186006547Y-125030954D02*
X186817453Y-123571046D01*
X180467276Y-126110328D02*
X180506724Y-125531672D01*
D13*
X163957000Y-121031000D03*
D14*
X169037000Y-121031000D03*
X158877000Y-121031000D03*
D15*
X166956547Y-125030954D02*
X167767453Y-123571046D01*
X161417276Y-126110328D02*
X161456724Y-125531672D01*
D13*
X144907000Y-121031000D03*
D14*
X149987000Y-121031000D03*
X139827000Y-121031000D03*
D15*
X147906547Y-125030954D02*
X148717453Y-123571046D01*
X142367276Y-126110328D02*
X142406724Y-125531672D01*
D13*
X82995000Y-121031000D03*
D15*
X85271641Y-126211294D02*
X86728359Y-123588706D01*
D13*
X47276000Y-121031000D03*
D14*
X52356000Y-121031000D03*
X42196000Y-121031000D03*
D15*
X49571641Y-126211294D02*
X51028359Y-123588706D01*
X44736276Y-126110328D02*
X44775724Y-125531672D01*
D13*
X154432000Y-44831000D03*
D14*
X159512000Y-44831000D03*
X149352000Y-44831000D03*
D15*
X157431547Y-48830954D02*
X158242453Y-47371046D01*
X151892276Y-49910328D02*
X151931724Y-49331672D01*
D13*
X140144000Y-82931000D03*
D14*
X145224000Y-82931000D03*
X135064000Y-82931000D03*
D15*
X143143547Y-86930954D02*
X143954453Y-85471046D01*
X137604276Y-88010328D02*
X137643724Y-87431672D01*
D13*
X161576000Y-73406000D03*
D14*
X161576000Y-78486000D03*
D15*
X165575954Y-70406453D02*
X164116046Y-69595547D01*
X166655328Y-75945724D02*
X166076672Y-75906276D01*
D17*
X142494000Y-37846000D03*
X166370000Y-37846000D03*
D18*
X142494000Y-53086000D03*
X166370000Y-53086000D03*
D17*
X163989000Y-89916000D03*
X140113000Y-89916000D03*
D18*
X163989000Y-74676000D03*
X140113000Y-74676000D03*
D19*
X153321000Y-77851000D03*
D20*
X150781000Y-77851000D03*
D19*
X108077000Y-39751000D03*
D20*
X105537000Y-39751000D03*
D19*
X98552000Y-58801000D03*
D20*
X96012000Y-58801000D03*
D19*
X93789000Y-115951000D03*
D20*
X91249000Y-115951000D03*
D19*
X69977000Y-39751000D03*
D20*
X67437000Y-39751000D03*
D19*
X60452000Y-58801000D03*
D20*
X57912000Y-58801000D03*
D19*
X46165000Y-77851000D03*
D20*
X43625000Y-77851000D03*
D19*
X53308000Y-115951000D03*
D20*
X50768000Y-115951000D03*
D19*
X22352000Y-58801000D03*
D20*
X19812000Y-58801000D03*
D19*
X31877000Y-39751000D03*
D20*
X29337000Y-39751000D03*
D19*
X155702000Y-39751000D03*
D20*
X153162000Y-39751000D03*
D19*
X141414000Y-77851000D03*
D20*
X138874000Y-77851000D03*
D19*
X156496000Y-74676000D03*
D20*
X156496000Y-72136000D03*
D19*
X110300000Y-115951000D03*
D20*
X112840000Y-115951000D03*
D19*
X108077000Y-115951000D03*
D20*
X105537000Y-115951000D03*
D19*
X89027000Y-115951000D03*
D20*
X86487000Y-115951000D03*
D19*
X88868000Y-115951000D03*
D20*
X91408000Y-115951000D03*
D19*
X46006000Y-115951000D03*
D20*
X48546000Y-115951000D03*
D38*
X44218860Y-108585000D03*
X41379140Y-108585000D03*
X65427860Y-106934000D03*
X62588140Y-106934000D03*
X94234000Y-111506000D03*
X91394280Y-111506000D03*
X119888000Y-111125000D03*
X117048280Y-111125000D03*
X144653000Y-111252000D03*
X141813280Y-111252000D03*
X174520860Y-111506000D03*
X171681140Y-111506000D03*
X31899860Y-54102000D03*
X29060140Y-54102000D03*
X59077860Y-54483000D03*
X56238140Y-54483000D03*
X94637860Y-53721000D03*
X91798140Y-53721000D03*
X118767860Y-53721000D03*
X115928140Y-53721000D03*
X151384000Y-53848000D03*
X148544280Y-53848000D03*
X175536860Y-53848000D03*
X172697140Y-53848000D03*
D36*
X25781000Y-54206140D03*
X25781000Y-57045860D03*
X33782000Y-81153000D03*
X33782000Y-83992720D03*
X43180000Y-101323140D03*
X43180000Y-104162860D03*
X179197000Y-53952140D03*
X179197000Y-56791860D03*
X174879000Y-81234280D03*
X174879000Y-84074000D03*
X175133000Y-104648000D03*
X175133000Y-107487720D03*
D19*
X148558000Y-96901000D03*
D20*
X146018000Y-96901000D03*
D13*
X147288000Y-101981000D03*
D14*
X152368000Y-101981000D03*
X142208000Y-101981000D03*
D15*
X150287547Y-105980954D02*
X151098453Y-104521046D01*
X144748276Y-107060328D02*
X144787724Y-106481672D01*
D17*
X135350000Y-94996000D03*
X159226000Y-94996000D03*
D18*
X135350000Y-110236000D03*
X159226000Y-110236000D03*
D39*
X124790200Y-102082600D03*
D17*
X168561000Y-61468000D03*
X168561000Y-85344000D03*
D18*
X153321000Y-61468000D03*
X153321000Y-85344000D03*
D40*
X38950900Y-24053800D03*
X187325000Y-39039800D03*
X182880000Y-128295400D03*
X32677100Y-124701300D03*
D41*
X144782000Y-29200000D03*
X128982000Y-29200000D03*
D42*
X136882000Y-30100000D03*
X137882000Y-30100000D03*
X138882000Y-30100000D03*
X139882000Y-30100000D03*
X140882000Y-30100000D03*
X135882000Y-30100000D03*
X134882000Y-30100000D03*
X133882000Y-30100000D03*
X132882000Y-30100000D03*
D43*
X144552000Y-25200000D03*
X129212000Y-25200000D03*
D26*
X117284500Y-31899100D03*
X117284500Y-29899100D03*
X111036100Y-25327100D03*
X111036100Y-27327100D03*
D19*
X162846000Y-77851000D03*
D20*
X160306000Y-77851000D03*
D27*
X137000000Y-81178400D03*
X137000000Y-84678520D03*
D13*
X161576000Y-82931000D03*
D14*
X166656000Y-82931000D03*
X156496000Y-82931000D03*
D15*
X164575547Y-86930954D02*
X165386453Y-85471046D01*
X159036276Y-88010328D02*
X159075724Y-87431672D01*
D44*
X113010000Y-19418300D03*
X121990000Y-19418300D03*
X113370000Y-25368300D03*
X121630000Y-25368300D03*
D45*
X113900000Y-26618300D03*
D46*
X121100000Y-26618300D03*
D47*
X115100000Y-25268300D03*
X116700000Y-25268300D03*
X119900000Y-25268300D03*
X119100000Y-25268300D03*
X118300000Y-25268300D03*
X115900000Y-25268300D03*
X114700000Y-25968300D03*
X116300000Y-25968300D03*
X117100000Y-25968300D03*
X117900000Y-25968300D03*
X118700000Y-25968300D03*
X120300000Y-25968300D03*
D48*
X120250000Y-27278300D03*
X119750000Y-27278300D03*
X119250000Y-27278300D03*
X118750000Y-27278300D03*
X118250000Y-27278300D03*
X117750000Y-27278300D03*
X117250000Y-27278300D03*
X116750000Y-27278300D03*
X116250000Y-27278300D03*
X115750000Y-27278300D03*
X115250000Y-27278300D03*
X114750000Y-27278300D03*
D13*
X123476000Y-121031000D03*
D14*
X128556000Y-121031000D03*
X118396000Y-121031000D03*
D15*
X120736276Y-126110328D02*
X120775724Y-125531672D01*
D49*
X127394000Y-123571000D03*
D50*
X126084000Y-125031000D03*
D13*
X113951000Y-121031000D03*
D14*
X119031000Y-121031000D03*
X108871000Y-121031000D03*
D15*
X111411276Y-126110328D02*
X111450724Y-125531672D01*
D49*
X117969000Y-123371000D03*
X116459000Y-125031000D03*
D13*
X75851000Y-121031000D03*
D14*
X70771000Y-121031000D03*
D51*
X78403203Y-126054472D02*
X79796797Y-123545528D01*
D15*
X73311276Y-126110328D02*
X73350724Y-125531672D01*
D13*
X80613000Y-121031000D03*
D14*
X85693000Y-121031000D03*
D21*
X83797432Y-125205793D02*
X84802568Y-123396207D01*
D19*
X103156000Y-115951000D03*
D20*
X105696000Y-115951000D03*
D19*
X81883000Y-115951000D03*
D20*
X79343000Y-115951000D03*
M02*
