G04 #@! TF.FileFunction,Profile,NP*
%FSLAX46Y46*%
G04 Gerber Fmt 4.6, Leading zero omitted, Abs format (unit mm)*
G04 Created by KiCad (PCBNEW 4.0.1-stable) date 2/1/2016 10:06:34 PM*
%MOMM*%
G01*
G04 APERTURE LIST*
%ADD10C,0.150000*%
%ADD11C,0.127000*%
G04 APERTURE END LIST*
D10*
D11*
X143611600Y-20231100D02*
X148640800Y-20231100D01*
X143611600Y-28714700D02*
X143611600Y-20231100D01*
X130149600Y-28714700D02*
X143611600Y-28714700D01*
X130149600Y-20231100D02*
X130149600Y-28714700D01*
X111798100Y-22098000D02*
X111798100Y-18173700D01*
X101193600Y-22098000D02*
X111798100Y-22098000D01*
X148640800Y-20231100D02*
X148640800Y-24523700D01*
X189357000Y-124942600D02*
X183819800Y-130302000D01*
X66789300Y-130314700D02*
X30581600Y-130302000D01*
X72783700Y-130314700D02*
G75*
G03X66789300Y-130314700I-2997200J0D01*
G01*
X130149600Y-20231100D02*
X123025400Y-20231100D01*
X148640800Y-24523700D02*
G75*
G03X154635200Y-24523700I2997200J0D01*
G01*
X111798600Y-18173700D02*
X123025400Y-18173700D01*
X95199200Y-22098000D02*
G75*
G03X101193600Y-22098000I2997200J0D01*
G01*
X172643800Y-24511000D02*
X154635200Y-24523700D01*
X189357000Y-38176200D02*
X172643800Y-24511000D01*
X189357000Y-124942600D02*
X189357000Y-38176200D01*
X72783700Y-130314700D02*
X183819800Y-130302000D01*
X30581600Y-107746800D02*
X30581600Y-130302000D01*
X29210000Y-103632000D02*
X30581600Y-107746800D01*
X29210000Y-91948000D02*
X29210000Y-103632000D01*
X27051000Y-89789000D02*
X29210000Y-91948000D01*
X21590000Y-89789000D02*
X27051000Y-89789000D01*
X21590000Y-85852000D02*
X21590000Y-89789000D01*
X19304000Y-83566000D02*
X21590000Y-85852000D01*
X19304000Y-81788000D02*
X19304000Y-83566000D01*
X20574000Y-80391000D02*
X19304000Y-81788000D01*
X20574000Y-72644000D02*
X20574000Y-80391000D01*
X14605000Y-68580000D02*
X20574000Y-72644000D01*
X14605000Y-59817000D02*
X14605000Y-68580000D01*
X18161000Y-56515000D02*
X14605000Y-59817000D01*
X22225000Y-56515000D02*
X18161000Y-56515000D01*
X23622000Y-54991000D02*
X22225000Y-56515000D01*
X23622000Y-36550600D02*
X23622000Y-54991000D01*
X38100000Y-22098000D02*
X23622000Y-36550600D01*
X123024900Y-20231100D02*
X123024900Y-18173700D01*
X38100000Y-22098000D02*
X95199200Y-22098000D01*
M02*
