G04 #@! TF.FileFunction,Soldermask,Bot*
%FSLAX46Y46*%
G04 Gerber Fmt 4.6, Leading zero omitted, Abs format (unit mm)*
G04 Created by KiCad (PCBNEW 4.0.1-stable) date 2/25/2016 3:38:44 PM*
%MOMM*%
G01*
G04 APERTURE LIST*
%ADD10C,0.150000*%
%ADD11C,0.002540*%
%ADD12C,0.010000*%
%ADD13C,4.140210*%
%ADD14C,1.854210*%
%ADD15C,2.652400*%
%ADD16O,0.952400X1.552400*%
%ADD17C,0.802400*%
%ADD18O,1.102400X0.802400*%
%ADD19C,0.752400*%
%ADD20R,0.452400X0.852400*%
%ADD21C,1.952400*%
%ADD22C,0.939800*%
%ADD23C,1.143010*%
%ADD24C,2.527310*%
%ADD25O,2.652400X2.652400*%
%ADD26O,2.352400X2.652400*%
%ADD27C,2.052400*%
%ADD28C,2.540000*%
%ADD29C,3.479800*%
%ADD30R,1.351280X1.351280*%
%ADD31O,1.552400X1.552400*%
%ADD32R,1.552400X1.552400*%
%ADD33R,1.152400X1.402400*%
%ADD34R,1.402400X1.152400*%
%ADD35R,1.003300X1.153160*%
%ADD36R,1.952400X1.252400*%
%ADD37R,1.582400X0.552400*%
%ADD38R,0.452400X1.652400*%
%ADD39R,1.652400X0.452400*%
%ADD40R,1.352400X1.552400*%
%ADD41C,6.152400*%
%ADD42C,3.000000*%
%ADD43O,1.952400X3.652400*%
%ADD44R,0.852400X1.952400*%
%ADD45R,1.792400X2.352400*%
%ADD46R,1.102400X2.052400*%
%ADD47R,3.402400X2.052400*%
%ADD48R,1.153160X1.003300*%
%ADD49C,0.652400*%
%ADD50R,1.642400X0.752400*%
%ADD51R,1.642400X0.892400*%
%ADD52R,2.804160X2.181860*%
%ADD53R,0.702400X0.952400*%
%ADD54R,1.852400X1.852400*%
%ADD55C,1.852400*%
%ADD56R,2.051000X1.400000*%
%ADD57R,1.400000X2.051000*%
G04 APERTURE END LIST*
D10*
D11*
G36*
X94095700Y-134348660D02*
X94095700Y-134485820D01*
X94095700Y-134597580D01*
X94098240Y-134686480D01*
X94098240Y-134757600D01*
X94100780Y-134810940D01*
X94103320Y-134849040D01*
X94105860Y-134876980D01*
X94110940Y-134892220D01*
X94116020Y-134897300D01*
X94133800Y-134904920D01*
X94176980Y-134915080D01*
X94240480Y-134930320D01*
X94321760Y-134945560D01*
X94418280Y-134965880D01*
X94527500Y-134986200D01*
X94641800Y-135009060D01*
X94768800Y-135031920D01*
X94883100Y-135054780D01*
X94982160Y-135075100D01*
X95063440Y-135092880D01*
X95124400Y-135105580D01*
X95159960Y-135115740D01*
X95170120Y-135120820D01*
X95180280Y-135138600D01*
X95200600Y-135176700D01*
X95226000Y-135235120D01*
X95256480Y-135303700D01*
X95289500Y-135379900D01*
X95322520Y-135463720D01*
X95355540Y-135545000D01*
X95386020Y-135621200D01*
X95411420Y-135689780D01*
X95431740Y-135745660D01*
X95444440Y-135783760D01*
X95446980Y-135799000D01*
X95439360Y-135811700D01*
X95416500Y-135847260D01*
X95380940Y-135900600D01*
X95335220Y-135966640D01*
X95281880Y-136045380D01*
X95223460Y-136131740D01*
X95185360Y-136185080D01*
X94928820Y-136561000D01*
X94928820Y-136728640D01*
X94928820Y-136896280D01*
X95319980Y-137287440D01*
X95711140Y-137678600D01*
X95876240Y-137678600D01*
X96038800Y-137678600D01*
X96409640Y-137424600D01*
X96777940Y-137170600D01*
X96897320Y-137234100D01*
X97014160Y-137300140D01*
X97186880Y-137295060D01*
X97359600Y-137289980D01*
X97738060Y-136380660D01*
X98116520Y-135471340D01*
X98116520Y-135326560D01*
X98116520Y-135263060D01*
X98113980Y-135209720D01*
X98111440Y-135174160D01*
X98108900Y-135161460D01*
X98093660Y-135143680D01*
X98060640Y-135115740D01*
X98014920Y-135080180D01*
X97971740Y-135049700D01*
X97854900Y-134963340D01*
X97758380Y-134882060D01*
X97679640Y-134800780D01*
X97613600Y-134714420D01*
X97555180Y-134615360D01*
X97517080Y-134541700D01*
X97458660Y-134409620D01*
X97425640Y-134290240D01*
X97418020Y-134181020D01*
X97423100Y-134112440D01*
X97468820Y-133947340D01*
X97539940Y-133792400D01*
X97631380Y-133647620D01*
X97748220Y-133515540D01*
X97882840Y-133401240D01*
X98032700Y-133307260D01*
X98053020Y-133297100D01*
X98159700Y-133248840D01*
X98263840Y-133215820D01*
X98362900Y-133195500D01*
X98421320Y-133190420D01*
X98528000Y-133203120D01*
X98647380Y-133236140D01*
X98771840Y-133289480D01*
X98893760Y-133360600D01*
X99008060Y-133444420D01*
X99112200Y-133538400D01*
X99178240Y-133609520D01*
X99239200Y-133698420D01*
X99300160Y-133805100D01*
X99350960Y-133919400D01*
X99391600Y-134028620D01*
X99401760Y-134064180D01*
X99414460Y-134137840D01*
X99419540Y-134206420D01*
X99414460Y-134272460D01*
X99394140Y-134348660D01*
X99363660Y-134442640D01*
X99356040Y-134462960D01*
X99282380Y-134617900D01*
X99185860Y-134760140D01*
X99063940Y-134892220D01*
X98919160Y-135011600D01*
X98820100Y-135080180D01*
X98779460Y-135108120D01*
X98746440Y-135130980D01*
X98731200Y-135143680D01*
X98728660Y-135164000D01*
X98723580Y-135207180D01*
X98723580Y-135263060D01*
X98721040Y-135316400D01*
X98721040Y-135471340D01*
X99089340Y-136355260D01*
X99150300Y-136507660D01*
X99208720Y-136649900D01*
X99264600Y-136784520D01*
X99315400Y-136906440D01*
X99361120Y-137013120D01*
X99399220Y-137104560D01*
X99429700Y-137180760D01*
X99452560Y-137234100D01*
X99467800Y-137264580D01*
X99470340Y-137269660D01*
X99477960Y-137282360D01*
X99493200Y-137289980D01*
X99518600Y-137295060D01*
X99559240Y-137297600D01*
X99620200Y-137297600D01*
X99650680Y-137297600D01*
X99818320Y-137297600D01*
X99937700Y-137234100D01*
X100057080Y-137170600D01*
X100288220Y-137330620D01*
X100372040Y-137386500D01*
X100458400Y-137447460D01*
X100542220Y-137503340D01*
X100613340Y-137551600D01*
X100659060Y-137584620D01*
X100798760Y-137678600D01*
X100963860Y-137678600D01*
X101126420Y-137678600D01*
X101520120Y-137287440D01*
X101911280Y-136896280D01*
X101911280Y-136731180D01*
X101911280Y-136660060D01*
X101908740Y-136611800D01*
X101903660Y-136576240D01*
X101896040Y-136550840D01*
X101880800Y-136525440D01*
X101863020Y-136500040D01*
X101842700Y-136469560D01*
X101809680Y-136418760D01*
X101763960Y-136352720D01*
X101713160Y-136276520D01*
X101654740Y-136192700D01*
X101603940Y-136116500D01*
X101545520Y-136032680D01*
X101494720Y-135956480D01*
X101451540Y-135890440D01*
X101418520Y-135837100D01*
X101395660Y-135801540D01*
X101388040Y-135786300D01*
X101393120Y-135768520D01*
X101408360Y-135727880D01*
X101428680Y-135669460D01*
X101459160Y-135595800D01*
X101492180Y-135511980D01*
X101517580Y-135445940D01*
X101560760Y-135336720D01*
X101596320Y-135252900D01*
X101624260Y-135189400D01*
X101647120Y-135146220D01*
X101662360Y-135120820D01*
X101675060Y-135110660D01*
X101697920Y-135105580D01*
X101741100Y-135095420D01*
X101807140Y-135082720D01*
X101890960Y-135064940D01*
X101990020Y-135047160D01*
X102099240Y-135024300D01*
X102205920Y-135006520D01*
X102320220Y-134983660D01*
X102429440Y-134963340D01*
X102523420Y-134943020D01*
X102604700Y-134927780D01*
X102668200Y-134912540D01*
X102708840Y-134902380D01*
X102724080Y-134897300D01*
X102729160Y-134889680D01*
X102731700Y-134871900D01*
X102734240Y-134841420D01*
X102736780Y-134798240D01*
X102739320Y-134739820D01*
X102741860Y-134661080D01*
X102741860Y-134564560D01*
X102741860Y-134445180D01*
X102744400Y-134297860D01*
X102744400Y-134186100D01*
X102744400Y-133490140D01*
X102711380Y-133472360D01*
X102691060Y-133464740D01*
X102645340Y-133452040D01*
X102579300Y-133439340D01*
X102495480Y-133421560D01*
X102396420Y-133401240D01*
X102284660Y-133380920D01*
X102167820Y-133358060D01*
X102165280Y-133358060D01*
X102048440Y-133335200D01*
X101939220Y-133314880D01*
X101840160Y-133294560D01*
X101758880Y-133276780D01*
X101695380Y-133264080D01*
X101652200Y-133251380D01*
X101631880Y-133246300D01*
X101631880Y-133246300D01*
X101621720Y-133228520D01*
X101603940Y-133190420D01*
X101578540Y-133134540D01*
X101545520Y-133065960D01*
X101512500Y-132989760D01*
X101479480Y-132911020D01*
X101443920Y-132834820D01*
X101413440Y-132763700D01*
X101388040Y-132700200D01*
X101370260Y-132654480D01*
X101360100Y-132626540D01*
X101360100Y-132624000D01*
X101367720Y-132608760D01*
X101390580Y-132573200D01*
X101423600Y-132519860D01*
X101469320Y-132451280D01*
X101522660Y-132372540D01*
X101583620Y-132283640D01*
X101634420Y-132207440D01*
X101911280Y-131806120D01*
X101911280Y-131643560D01*
X101911280Y-131481000D01*
X101520120Y-131087300D01*
X101128960Y-130696140D01*
X100961320Y-130696140D01*
X100793680Y-130696140D01*
X100438080Y-130939980D01*
X100346640Y-131000940D01*
X100260280Y-131061900D01*
X100181540Y-131115240D01*
X100115500Y-131160960D01*
X100064700Y-131196520D01*
X100031680Y-131219380D01*
X100026600Y-131221920D01*
X99968180Y-131262560D01*
X99701480Y-131153340D01*
X99597340Y-131112700D01*
X99518600Y-131079680D01*
X99457640Y-131054280D01*
X99414460Y-131033960D01*
X99386520Y-131018720D01*
X99368740Y-131006020D01*
X99356040Y-130995860D01*
X99350960Y-130983160D01*
X99350960Y-130980620D01*
X99345880Y-130960300D01*
X99335720Y-130914580D01*
X99323020Y-130851080D01*
X99307780Y-130767260D01*
X99287460Y-130668200D01*
X99267140Y-130558980D01*
X99246820Y-130439600D01*
X99244280Y-130426900D01*
X99221420Y-130310060D01*
X99198560Y-130198300D01*
X99180780Y-130099240D01*
X99163000Y-130015420D01*
X99147760Y-129949380D01*
X99137600Y-129903660D01*
X99129980Y-129883340D01*
X99129980Y-129883340D01*
X99122360Y-129878260D01*
X99104580Y-129875720D01*
X99079180Y-129870640D01*
X99038540Y-129868100D01*
X98982660Y-129868100D01*
X98909000Y-129865560D01*
X98817560Y-129865560D01*
X98703260Y-129863020D01*
X98563560Y-129863020D01*
X98421320Y-129863020D01*
X98284160Y-129863020D01*
X98154620Y-129865560D01*
X98037780Y-129865560D01*
X97933640Y-129868100D01*
X97844740Y-129868100D01*
X97778700Y-129870640D01*
X97732980Y-129873180D01*
X97710120Y-129875720D01*
X97710120Y-129875720D01*
X97702500Y-129893500D01*
X97692340Y-129934140D01*
X97677100Y-130002720D01*
X97656780Y-130089080D01*
X97636460Y-130198300D01*
X97611060Y-130325300D01*
X97593280Y-130421820D01*
X97570420Y-130541200D01*
X97550100Y-130655500D01*
X97529780Y-130757100D01*
X97514540Y-130843460D01*
X97499300Y-130912040D01*
X97489140Y-130960300D01*
X97484060Y-130985700D01*
X97484060Y-130985700D01*
X97471360Y-131000940D01*
X97440880Y-131018720D01*
X97395160Y-131041580D01*
X97326580Y-131072060D01*
X97237680Y-131112700D01*
X97171640Y-131138100D01*
X97075120Y-131178740D01*
X97001460Y-131206680D01*
X96948120Y-131229540D01*
X96907480Y-131242240D01*
X96882080Y-131247320D01*
X96861760Y-131249860D01*
X96849060Y-131244780D01*
X96836360Y-131239700D01*
X96833820Y-131237160D01*
X96813500Y-131224460D01*
X96772860Y-131196520D01*
X96716980Y-131155880D01*
X96643320Y-131107620D01*
X96562040Y-131051740D01*
X96470600Y-130990780D01*
X96419800Y-130955220D01*
X96043880Y-130696140D01*
X95876240Y-130696140D01*
X95711140Y-130696140D01*
X95319980Y-131087300D01*
X94928820Y-131478460D01*
X94928820Y-131646100D01*
X94928820Y-131813740D01*
X95205680Y-132215060D01*
X95482540Y-132616380D01*
X95350460Y-132928800D01*
X95309820Y-133017700D01*
X95274260Y-133098980D01*
X95241240Y-133165020D01*
X95215840Y-133215820D01*
X95198060Y-133246300D01*
X95192980Y-133251380D01*
X95172660Y-133256460D01*
X95129480Y-133266620D01*
X95065980Y-133281860D01*
X94982160Y-133297100D01*
X94883100Y-133317420D01*
X94773880Y-133337740D01*
X94657040Y-133360600D01*
X94644340Y-133363140D01*
X94507180Y-133388540D01*
X94387800Y-133411400D01*
X94288740Y-133431720D01*
X94207460Y-133449500D01*
X94149040Y-133464740D01*
X94116020Y-133474900D01*
X94108400Y-133479980D01*
X94105860Y-133495220D01*
X94103320Y-133538400D01*
X94100780Y-133604440D01*
X94098240Y-133690800D01*
X94098240Y-133792400D01*
X94095700Y-133906700D01*
X94095700Y-134033700D01*
X94095700Y-134170860D01*
X94095700Y-134188640D01*
X94095700Y-134348660D01*
X94095700Y-134348660D01*
X94095700Y-134348660D01*
G37*
X94095700Y-134348660D02*
X94095700Y-134485820D01*
X94095700Y-134597580D01*
X94098240Y-134686480D01*
X94098240Y-134757600D01*
X94100780Y-134810940D01*
X94103320Y-134849040D01*
X94105860Y-134876980D01*
X94110940Y-134892220D01*
X94116020Y-134897300D01*
X94133800Y-134904920D01*
X94176980Y-134915080D01*
X94240480Y-134930320D01*
X94321760Y-134945560D01*
X94418280Y-134965880D01*
X94527500Y-134986200D01*
X94641800Y-135009060D01*
X94768800Y-135031920D01*
X94883100Y-135054780D01*
X94982160Y-135075100D01*
X95063440Y-135092880D01*
X95124400Y-135105580D01*
X95159960Y-135115740D01*
X95170120Y-135120820D01*
X95180280Y-135138600D01*
X95200600Y-135176700D01*
X95226000Y-135235120D01*
X95256480Y-135303700D01*
X95289500Y-135379900D01*
X95322520Y-135463720D01*
X95355540Y-135545000D01*
X95386020Y-135621200D01*
X95411420Y-135689780D01*
X95431740Y-135745660D01*
X95444440Y-135783760D01*
X95446980Y-135799000D01*
X95439360Y-135811700D01*
X95416500Y-135847260D01*
X95380940Y-135900600D01*
X95335220Y-135966640D01*
X95281880Y-136045380D01*
X95223460Y-136131740D01*
X95185360Y-136185080D01*
X94928820Y-136561000D01*
X94928820Y-136728640D01*
X94928820Y-136896280D01*
X95319980Y-137287440D01*
X95711140Y-137678600D01*
X95876240Y-137678600D01*
X96038800Y-137678600D01*
X96409640Y-137424600D01*
X96777940Y-137170600D01*
X96897320Y-137234100D01*
X97014160Y-137300140D01*
X97186880Y-137295060D01*
X97359600Y-137289980D01*
X97738060Y-136380660D01*
X98116520Y-135471340D01*
X98116520Y-135326560D01*
X98116520Y-135263060D01*
X98113980Y-135209720D01*
X98111440Y-135174160D01*
X98108900Y-135161460D01*
X98093660Y-135143680D01*
X98060640Y-135115740D01*
X98014920Y-135080180D01*
X97971740Y-135049700D01*
X97854900Y-134963340D01*
X97758380Y-134882060D01*
X97679640Y-134800780D01*
X97613600Y-134714420D01*
X97555180Y-134615360D01*
X97517080Y-134541700D01*
X97458660Y-134409620D01*
X97425640Y-134290240D01*
X97418020Y-134181020D01*
X97423100Y-134112440D01*
X97468820Y-133947340D01*
X97539940Y-133792400D01*
X97631380Y-133647620D01*
X97748220Y-133515540D01*
X97882840Y-133401240D01*
X98032700Y-133307260D01*
X98053020Y-133297100D01*
X98159700Y-133248840D01*
X98263840Y-133215820D01*
X98362900Y-133195500D01*
X98421320Y-133190420D01*
X98528000Y-133203120D01*
X98647380Y-133236140D01*
X98771840Y-133289480D01*
X98893760Y-133360600D01*
X99008060Y-133444420D01*
X99112200Y-133538400D01*
X99178240Y-133609520D01*
X99239200Y-133698420D01*
X99300160Y-133805100D01*
X99350960Y-133919400D01*
X99391600Y-134028620D01*
X99401760Y-134064180D01*
X99414460Y-134137840D01*
X99419540Y-134206420D01*
X99414460Y-134272460D01*
X99394140Y-134348660D01*
X99363660Y-134442640D01*
X99356040Y-134462960D01*
X99282380Y-134617900D01*
X99185860Y-134760140D01*
X99063940Y-134892220D01*
X98919160Y-135011600D01*
X98820100Y-135080180D01*
X98779460Y-135108120D01*
X98746440Y-135130980D01*
X98731200Y-135143680D01*
X98728660Y-135164000D01*
X98723580Y-135207180D01*
X98723580Y-135263060D01*
X98721040Y-135316400D01*
X98721040Y-135471340D01*
X99089340Y-136355260D01*
X99150300Y-136507660D01*
X99208720Y-136649900D01*
X99264600Y-136784520D01*
X99315400Y-136906440D01*
X99361120Y-137013120D01*
X99399220Y-137104560D01*
X99429700Y-137180760D01*
X99452560Y-137234100D01*
X99467800Y-137264580D01*
X99470340Y-137269660D01*
X99477960Y-137282360D01*
X99493200Y-137289980D01*
X99518600Y-137295060D01*
X99559240Y-137297600D01*
X99620200Y-137297600D01*
X99650680Y-137297600D01*
X99818320Y-137297600D01*
X99937700Y-137234100D01*
X100057080Y-137170600D01*
X100288220Y-137330620D01*
X100372040Y-137386500D01*
X100458400Y-137447460D01*
X100542220Y-137503340D01*
X100613340Y-137551600D01*
X100659060Y-137584620D01*
X100798760Y-137678600D01*
X100963860Y-137678600D01*
X101126420Y-137678600D01*
X101520120Y-137287440D01*
X101911280Y-136896280D01*
X101911280Y-136731180D01*
X101911280Y-136660060D01*
X101908740Y-136611800D01*
X101903660Y-136576240D01*
X101896040Y-136550840D01*
X101880800Y-136525440D01*
X101863020Y-136500040D01*
X101842700Y-136469560D01*
X101809680Y-136418760D01*
X101763960Y-136352720D01*
X101713160Y-136276520D01*
X101654740Y-136192700D01*
X101603940Y-136116500D01*
X101545520Y-136032680D01*
X101494720Y-135956480D01*
X101451540Y-135890440D01*
X101418520Y-135837100D01*
X101395660Y-135801540D01*
X101388040Y-135786300D01*
X101393120Y-135768520D01*
X101408360Y-135727880D01*
X101428680Y-135669460D01*
X101459160Y-135595800D01*
X101492180Y-135511980D01*
X101517580Y-135445940D01*
X101560760Y-135336720D01*
X101596320Y-135252900D01*
X101624260Y-135189400D01*
X101647120Y-135146220D01*
X101662360Y-135120820D01*
X101675060Y-135110660D01*
X101697920Y-135105580D01*
X101741100Y-135095420D01*
X101807140Y-135082720D01*
X101890960Y-135064940D01*
X101990020Y-135047160D01*
X102099240Y-135024300D01*
X102205920Y-135006520D01*
X102320220Y-134983660D01*
X102429440Y-134963340D01*
X102523420Y-134943020D01*
X102604700Y-134927780D01*
X102668200Y-134912540D01*
X102708840Y-134902380D01*
X102724080Y-134897300D01*
X102729160Y-134889680D01*
X102731700Y-134871900D01*
X102734240Y-134841420D01*
X102736780Y-134798240D01*
X102739320Y-134739820D01*
X102741860Y-134661080D01*
X102741860Y-134564560D01*
X102741860Y-134445180D01*
X102744400Y-134297860D01*
X102744400Y-134186100D01*
X102744400Y-133490140D01*
X102711380Y-133472360D01*
X102691060Y-133464740D01*
X102645340Y-133452040D01*
X102579300Y-133439340D01*
X102495480Y-133421560D01*
X102396420Y-133401240D01*
X102284660Y-133380920D01*
X102167820Y-133358060D01*
X102165280Y-133358060D01*
X102048440Y-133335200D01*
X101939220Y-133314880D01*
X101840160Y-133294560D01*
X101758880Y-133276780D01*
X101695380Y-133264080D01*
X101652200Y-133251380D01*
X101631880Y-133246300D01*
X101631880Y-133246300D01*
X101621720Y-133228520D01*
X101603940Y-133190420D01*
X101578540Y-133134540D01*
X101545520Y-133065960D01*
X101512500Y-132989760D01*
X101479480Y-132911020D01*
X101443920Y-132834820D01*
X101413440Y-132763700D01*
X101388040Y-132700200D01*
X101370260Y-132654480D01*
X101360100Y-132626540D01*
X101360100Y-132624000D01*
X101367720Y-132608760D01*
X101390580Y-132573200D01*
X101423600Y-132519860D01*
X101469320Y-132451280D01*
X101522660Y-132372540D01*
X101583620Y-132283640D01*
X101634420Y-132207440D01*
X101911280Y-131806120D01*
X101911280Y-131643560D01*
X101911280Y-131481000D01*
X101520120Y-131087300D01*
X101128960Y-130696140D01*
X100961320Y-130696140D01*
X100793680Y-130696140D01*
X100438080Y-130939980D01*
X100346640Y-131000940D01*
X100260280Y-131061900D01*
X100181540Y-131115240D01*
X100115500Y-131160960D01*
X100064700Y-131196520D01*
X100031680Y-131219380D01*
X100026600Y-131221920D01*
X99968180Y-131262560D01*
X99701480Y-131153340D01*
X99597340Y-131112700D01*
X99518600Y-131079680D01*
X99457640Y-131054280D01*
X99414460Y-131033960D01*
X99386520Y-131018720D01*
X99368740Y-131006020D01*
X99356040Y-130995860D01*
X99350960Y-130983160D01*
X99350960Y-130980620D01*
X99345880Y-130960300D01*
X99335720Y-130914580D01*
X99323020Y-130851080D01*
X99307780Y-130767260D01*
X99287460Y-130668200D01*
X99267140Y-130558980D01*
X99246820Y-130439600D01*
X99244280Y-130426900D01*
X99221420Y-130310060D01*
X99198560Y-130198300D01*
X99180780Y-130099240D01*
X99163000Y-130015420D01*
X99147760Y-129949380D01*
X99137600Y-129903660D01*
X99129980Y-129883340D01*
X99129980Y-129883340D01*
X99122360Y-129878260D01*
X99104580Y-129875720D01*
X99079180Y-129870640D01*
X99038540Y-129868100D01*
X98982660Y-129868100D01*
X98909000Y-129865560D01*
X98817560Y-129865560D01*
X98703260Y-129863020D01*
X98563560Y-129863020D01*
X98421320Y-129863020D01*
X98284160Y-129863020D01*
X98154620Y-129865560D01*
X98037780Y-129865560D01*
X97933640Y-129868100D01*
X97844740Y-129868100D01*
X97778700Y-129870640D01*
X97732980Y-129873180D01*
X97710120Y-129875720D01*
X97710120Y-129875720D01*
X97702500Y-129893500D01*
X97692340Y-129934140D01*
X97677100Y-130002720D01*
X97656780Y-130089080D01*
X97636460Y-130198300D01*
X97611060Y-130325300D01*
X97593280Y-130421820D01*
X97570420Y-130541200D01*
X97550100Y-130655500D01*
X97529780Y-130757100D01*
X97514540Y-130843460D01*
X97499300Y-130912040D01*
X97489140Y-130960300D01*
X97484060Y-130985700D01*
X97484060Y-130985700D01*
X97471360Y-131000940D01*
X97440880Y-131018720D01*
X97395160Y-131041580D01*
X97326580Y-131072060D01*
X97237680Y-131112700D01*
X97171640Y-131138100D01*
X97075120Y-131178740D01*
X97001460Y-131206680D01*
X96948120Y-131229540D01*
X96907480Y-131242240D01*
X96882080Y-131247320D01*
X96861760Y-131249860D01*
X96849060Y-131244780D01*
X96836360Y-131239700D01*
X96833820Y-131237160D01*
X96813500Y-131224460D01*
X96772860Y-131196520D01*
X96716980Y-131155880D01*
X96643320Y-131107620D01*
X96562040Y-131051740D01*
X96470600Y-130990780D01*
X96419800Y-130955220D01*
X96043880Y-130696140D01*
X95876240Y-130696140D01*
X95711140Y-130696140D01*
X95319980Y-131087300D01*
X94928820Y-131478460D01*
X94928820Y-131646100D01*
X94928820Y-131813740D01*
X95205680Y-132215060D01*
X95482540Y-132616380D01*
X95350460Y-132928800D01*
X95309820Y-133017700D01*
X95274260Y-133098980D01*
X95241240Y-133165020D01*
X95215840Y-133215820D01*
X95198060Y-133246300D01*
X95192980Y-133251380D01*
X95172660Y-133256460D01*
X95129480Y-133266620D01*
X95065980Y-133281860D01*
X94982160Y-133297100D01*
X94883100Y-133317420D01*
X94773880Y-133337740D01*
X94657040Y-133360600D01*
X94644340Y-133363140D01*
X94507180Y-133388540D01*
X94387800Y-133411400D01*
X94288740Y-133431720D01*
X94207460Y-133449500D01*
X94149040Y-133464740D01*
X94116020Y-133474900D01*
X94108400Y-133479980D01*
X94105860Y-133495220D01*
X94103320Y-133538400D01*
X94100780Y-133604440D01*
X94098240Y-133690800D01*
X94098240Y-133792400D01*
X94095700Y-133906700D01*
X94095700Y-134033700D01*
X94095700Y-134170860D01*
X94095700Y-134188640D01*
X94095700Y-134348660D01*
X94095700Y-134348660D01*
D12*
G36*
X112346080Y-132291260D02*
X114743840Y-132291260D01*
X114743840Y-133022780D01*
X112346080Y-133022780D01*
X112346080Y-134353740D01*
X112346022Y-134516421D01*
X112345853Y-134673399D01*
X112345578Y-134823485D01*
X112345206Y-134965489D01*
X112344743Y-135098225D01*
X112344196Y-135220502D01*
X112343572Y-135331133D01*
X112342878Y-135428930D01*
X112342121Y-135512704D01*
X112341308Y-135581266D01*
X112340445Y-135633428D01*
X112339540Y-135668002D01*
X112338600Y-135683799D01*
X112338314Y-135684700D01*
X112329003Y-135677838D01*
X112307832Y-135658768D01*
X112277198Y-135629756D01*
X112239500Y-135593074D01*
X112198761Y-135552620D01*
X112066974Y-135420540D01*
X109816240Y-135420540D01*
X109816240Y-134699180D01*
X112214000Y-134699180D01*
X112214000Y-130625020D01*
X106610807Y-130625020D01*
X107443881Y-131458140D01*
X108276954Y-132291260D01*
X110537600Y-132291260D01*
X110537600Y-133022780D01*
X110011792Y-133022779D01*
X109485983Y-133022779D01*
X108812912Y-133695908D01*
X108139840Y-134369036D01*
X108139841Y-135059917D01*
X108139841Y-135750797D01*
X108812969Y-136423868D01*
X109486097Y-137096940D01*
X116410239Y-137096940D01*
X116407767Y-134699180D01*
X114743840Y-134699180D01*
X114743840Y-135420540D01*
X114464271Y-135420540D01*
X114238296Y-135194397D01*
X114012320Y-134968254D01*
X114012320Y-134699180D01*
X114743840Y-134699180D01*
X116407767Y-134699180D01*
X116407620Y-134557104D01*
X116405000Y-132017269D01*
X116511680Y-132123152D01*
X116555335Y-132165881D01*
X116589073Y-132196878D01*
X116616967Y-132219148D01*
X116643091Y-132235695D01*
X116671516Y-132249526D01*
X116697365Y-132260147D01*
X116776369Y-132291259D01*
X117627111Y-132291259D01*
X118477852Y-132291260D01*
X118660521Y-132474140D01*
X118843189Y-132657019D01*
X118660520Y-132839899D01*
X118477852Y-133022780D01*
X116542160Y-133022780D01*
X116542160Y-137096940D01*
X121510400Y-137096940D01*
X121510400Y-135420540D01*
X118208400Y-135420540D01*
X118208400Y-134699180D01*
X118739289Y-134699180D01*
X119270178Y-134699179D01*
X119943398Y-134025902D01*
X120616619Y-133352624D01*
X120613930Y-132702562D01*
X120613324Y-132588999D01*
X120612485Y-132481115D01*
X120611444Y-132380683D01*
X120610231Y-132289475D01*
X120608878Y-132209263D01*
X120607416Y-132141819D01*
X120605875Y-132088915D01*
X120604285Y-132052323D01*
X120602679Y-132033816D01*
X120602260Y-132032180D01*
X120606237Y-132032640D01*
X120622552Y-132045733D01*
X120649228Y-132069672D01*
X120684284Y-132102672D01*
X120725743Y-132142945D01*
X120734471Y-132151560D01*
X120875664Y-132291260D01*
X121642480Y-132291260D01*
X121642480Y-137096940D01*
X123308720Y-137096940D01*
X123308720Y-132291260D01*
X124075847Y-132291260D01*
X124908921Y-131458140D01*
X125741994Y-130625020D01*
X112346080Y-130625020D01*
X112346080Y-132291260D01*
X112346080Y-132291260D01*
G37*
X112346080Y-132291260D02*
X114743840Y-132291260D01*
X114743840Y-133022780D01*
X112346080Y-133022780D01*
X112346080Y-134353740D01*
X112346022Y-134516421D01*
X112345853Y-134673399D01*
X112345578Y-134823485D01*
X112345206Y-134965489D01*
X112344743Y-135098225D01*
X112344196Y-135220502D01*
X112343572Y-135331133D01*
X112342878Y-135428930D01*
X112342121Y-135512704D01*
X112341308Y-135581266D01*
X112340445Y-135633428D01*
X112339540Y-135668002D01*
X112338600Y-135683799D01*
X112338314Y-135684700D01*
X112329003Y-135677838D01*
X112307832Y-135658768D01*
X112277198Y-135629756D01*
X112239500Y-135593074D01*
X112198761Y-135552620D01*
X112066974Y-135420540D01*
X109816240Y-135420540D01*
X109816240Y-134699180D01*
X112214000Y-134699180D01*
X112214000Y-130625020D01*
X106610807Y-130625020D01*
X107443881Y-131458140D01*
X108276954Y-132291260D01*
X110537600Y-132291260D01*
X110537600Y-133022780D01*
X110011792Y-133022779D01*
X109485983Y-133022779D01*
X108812912Y-133695908D01*
X108139840Y-134369036D01*
X108139841Y-135059917D01*
X108139841Y-135750797D01*
X108812969Y-136423868D01*
X109486097Y-137096940D01*
X116410239Y-137096940D01*
X116407767Y-134699180D01*
X114743840Y-134699180D01*
X114743840Y-135420540D01*
X114464271Y-135420540D01*
X114238296Y-135194397D01*
X114012320Y-134968254D01*
X114012320Y-134699180D01*
X114743840Y-134699180D01*
X116407767Y-134699180D01*
X116407620Y-134557104D01*
X116405000Y-132017269D01*
X116511680Y-132123152D01*
X116555335Y-132165881D01*
X116589073Y-132196878D01*
X116616967Y-132219148D01*
X116643091Y-132235695D01*
X116671516Y-132249526D01*
X116697365Y-132260147D01*
X116776369Y-132291259D01*
X117627111Y-132291259D01*
X118477852Y-132291260D01*
X118660521Y-132474140D01*
X118843189Y-132657019D01*
X118660520Y-132839899D01*
X118477852Y-133022780D01*
X116542160Y-133022780D01*
X116542160Y-137096940D01*
X121510400Y-137096940D01*
X121510400Y-135420540D01*
X118208400Y-135420540D01*
X118208400Y-134699180D01*
X118739289Y-134699180D01*
X119270178Y-134699179D01*
X119943398Y-134025902D01*
X120616619Y-133352624D01*
X120613930Y-132702562D01*
X120613324Y-132588999D01*
X120612485Y-132481115D01*
X120611444Y-132380683D01*
X120610231Y-132289475D01*
X120608878Y-132209263D01*
X120607416Y-132141819D01*
X120605875Y-132088915D01*
X120604285Y-132052323D01*
X120602679Y-132033816D01*
X120602260Y-132032180D01*
X120606237Y-132032640D01*
X120622552Y-132045733D01*
X120649228Y-132069672D01*
X120684284Y-132102672D01*
X120725743Y-132142945D01*
X120734471Y-132151560D01*
X120875664Y-132291260D01*
X121642480Y-132291260D01*
X121642480Y-137096940D01*
X123308720Y-137096940D01*
X123308720Y-132291260D01*
X124075847Y-132291260D01*
X124908921Y-131458140D01*
X125741994Y-130625020D01*
X112346080Y-130625020D01*
X112346080Y-132291260D01*
D11*
G36*
X266669300Y-134348660D02*
X266669300Y-134485820D01*
X266669300Y-134597580D01*
X266671840Y-134686480D01*
X266671840Y-134757600D01*
X266674380Y-134810940D01*
X266676920Y-134849040D01*
X266679460Y-134876980D01*
X266684540Y-134892220D01*
X266689620Y-134897300D01*
X266707400Y-134904920D01*
X266750580Y-134915080D01*
X266814080Y-134930320D01*
X266895360Y-134945560D01*
X266991880Y-134965880D01*
X267101100Y-134986200D01*
X267215400Y-135009060D01*
X267342400Y-135031920D01*
X267456700Y-135054780D01*
X267555760Y-135075100D01*
X267637040Y-135092880D01*
X267698000Y-135105580D01*
X267733560Y-135115740D01*
X267743720Y-135120820D01*
X267753880Y-135138600D01*
X267774200Y-135176700D01*
X267799600Y-135235120D01*
X267830080Y-135303700D01*
X267863100Y-135379900D01*
X267896120Y-135463720D01*
X267929140Y-135545000D01*
X267959620Y-135621200D01*
X267985020Y-135689780D01*
X268005340Y-135745660D01*
X268018040Y-135783760D01*
X268020580Y-135799000D01*
X268012960Y-135811700D01*
X267990100Y-135847260D01*
X267954540Y-135900600D01*
X267908820Y-135966640D01*
X267855480Y-136045380D01*
X267797060Y-136131740D01*
X267758960Y-136185080D01*
X267502420Y-136561000D01*
X267502420Y-136728640D01*
X267502420Y-136896280D01*
X267893580Y-137287440D01*
X268284740Y-137678600D01*
X268449840Y-137678600D01*
X268612400Y-137678600D01*
X268983240Y-137424600D01*
X269351540Y-137170600D01*
X269470920Y-137234100D01*
X269587760Y-137300140D01*
X269760480Y-137295060D01*
X269933200Y-137289980D01*
X270311660Y-136380660D01*
X270690120Y-135471340D01*
X270690120Y-135326560D01*
X270690120Y-135263060D01*
X270687580Y-135209720D01*
X270685040Y-135174160D01*
X270682500Y-135161460D01*
X270667260Y-135143680D01*
X270634240Y-135115740D01*
X270588520Y-135080180D01*
X270545340Y-135049700D01*
X270428500Y-134963340D01*
X270331980Y-134882060D01*
X270253240Y-134800780D01*
X270187200Y-134714420D01*
X270128780Y-134615360D01*
X270090680Y-134541700D01*
X270032260Y-134409620D01*
X269999240Y-134290240D01*
X269991620Y-134181020D01*
X269996700Y-134112440D01*
X270042420Y-133947340D01*
X270113540Y-133792400D01*
X270204980Y-133647620D01*
X270321820Y-133515540D01*
X270456440Y-133401240D01*
X270606300Y-133307260D01*
X270626620Y-133297100D01*
X270733300Y-133248840D01*
X270837440Y-133215820D01*
X270936500Y-133195500D01*
X270994920Y-133190420D01*
X271101600Y-133203120D01*
X271220980Y-133236140D01*
X271345440Y-133289480D01*
X271467360Y-133360600D01*
X271581660Y-133444420D01*
X271685800Y-133538400D01*
X271751840Y-133609520D01*
X271812800Y-133698420D01*
X271873760Y-133805100D01*
X271924560Y-133919400D01*
X271965200Y-134028620D01*
X271975360Y-134064180D01*
X271988060Y-134137840D01*
X271993140Y-134206420D01*
X271988060Y-134272460D01*
X271967740Y-134348660D01*
X271937260Y-134442640D01*
X271929640Y-134462960D01*
X271855980Y-134617900D01*
X271759460Y-134760140D01*
X271637540Y-134892220D01*
X271492760Y-135011600D01*
X271393700Y-135080180D01*
X271353060Y-135108120D01*
X271320040Y-135130980D01*
X271304800Y-135143680D01*
X271302260Y-135164000D01*
X271297180Y-135207180D01*
X271297180Y-135263060D01*
X271294640Y-135316400D01*
X271294640Y-135471340D01*
X271662940Y-136355260D01*
X271723900Y-136507660D01*
X271782320Y-136649900D01*
X271838200Y-136784520D01*
X271889000Y-136906440D01*
X271934720Y-137013120D01*
X271972820Y-137104560D01*
X272003300Y-137180760D01*
X272026160Y-137234100D01*
X272041400Y-137264580D01*
X272043940Y-137269660D01*
X272051560Y-137282360D01*
X272066800Y-137289980D01*
X272092200Y-137295060D01*
X272132840Y-137297600D01*
X272193800Y-137297600D01*
X272224280Y-137297600D01*
X272391920Y-137297600D01*
X272511300Y-137234100D01*
X272630680Y-137170600D01*
X272861820Y-137330620D01*
X272945640Y-137386500D01*
X273032000Y-137447460D01*
X273115820Y-137503340D01*
X273186940Y-137551600D01*
X273232660Y-137584620D01*
X273372360Y-137678600D01*
X273537460Y-137678600D01*
X273700020Y-137678600D01*
X274093720Y-137287440D01*
X274484880Y-136896280D01*
X274484880Y-136731180D01*
X274484880Y-136660060D01*
X274482340Y-136611800D01*
X274477260Y-136576240D01*
X274469640Y-136550840D01*
X274454400Y-136525440D01*
X274436620Y-136500040D01*
X274416300Y-136469560D01*
X274383280Y-136418760D01*
X274337560Y-136352720D01*
X274286760Y-136276520D01*
X274228340Y-136192700D01*
X274177540Y-136116500D01*
X274119120Y-136032680D01*
X274068320Y-135956480D01*
X274025140Y-135890440D01*
X273992120Y-135837100D01*
X273969260Y-135801540D01*
X273961640Y-135786300D01*
X273966720Y-135768520D01*
X273981960Y-135727880D01*
X274002280Y-135669460D01*
X274032760Y-135595800D01*
X274065780Y-135511980D01*
X274091180Y-135445940D01*
X274134360Y-135336720D01*
X274169920Y-135252900D01*
X274197860Y-135189400D01*
X274220720Y-135146220D01*
X274235960Y-135120820D01*
X274248660Y-135110660D01*
X274271520Y-135105580D01*
X274314700Y-135095420D01*
X274380740Y-135082720D01*
X274464560Y-135064940D01*
X274563620Y-135047160D01*
X274672840Y-135024300D01*
X274779520Y-135006520D01*
X274893820Y-134983660D01*
X275003040Y-134963340D01*
X275097020Y-134943020D01*
X275178300Y-134927780D01*
X275241800Y-134912540D01*
X275282440Y-134902380D01*
X275297680Y-134897300D01*
X275302760Y-134889680D01*
X275305300Y-134871900D01*
X275307840Y-134841420D01*
X275310380Y-134798240D01*
X275312920Y-134739820D01*
X275315460Y-134661080D01*
X275315460Y-134564560D01*
X275315460Y-134445180D01*
X275318000Y-134297860D01*
X275318000Y-134186100D01*
X275318000Y-133490140D01*
X275284980Y-133472360D01*
X275264660Y-133464740D01*
X275218940Y-133452040D01*
X275152900Y-133439340D01*
X275069080Y-133421560D01*
X274970020Y-133401240D01*
X274858260Y-133380920D01*
X274741420Y-133358060D01*
X274738880Y-133358060D01*
X274622040Y-133335200D01*
X274512820Y-133314880D01*
X274413760Y-133294560D01*
X274332480Y-133276780D01*
X274268980Y-133264080D01*
X274225800Y-133251380D01*
X274205480Y-133246300D01*
X274205480Y-133246300D01*
X274195320Y-133228520D01*
X274177540Y-133190420D01*
X274152140Y-133134540D01*
X274119120Y-133065960D01*
X274086100Y-132989760D01*
X274053080Y-132911020D01*
X274017520Y-132834820D01*
X273987040Y-132763700D01*
X273961640Y-132700200D01*
X273943860Y-132654480D01*
X273933700Y-132626540D01*
X273933700Y-132624000D01*
X273941320Y-132608760D01*
X273964180Y-132573200D01*
X273997200Y-132519860D01*
X274042920Y-132451280D01*
X274096260Y-132372540D01*
X274157220Y-132283640D01*
X274208020Y-132207440D01*
X274484880Y-131806120D01*
X274484880Y-131643560D01*
X274484880Y-131481000D01*
X274093720Y-131087300D01*
X273702560Y-130696140D01*
X273534920Y-130696140D01*
X273367280Y-130696140D01*
X273011680Y-130939980D01*
X272920240Y-131000940D01*
X272833880Y-131061900D01*
X272755140Y-131115240D01*
X272689100Y-131160960D01*
X272638300Y-131196520D01*
X272605280Y-131219380D01*
X272600200Y-131221920D01*
X272541780Y-131262560D01*
X272275080Y-131153340D01*
X272170940Y-131112700D01*
X272092200Y-131079680D01*
X272031240Y-131054280D01*
X271988060Y-131033960D01*
X271960120Y-131018720D01*
X271942340Y-131006020D01*
X271929640Y-130995860D01*
X271924560Y-130983160D01*
X271924560Y-130980620D01*
X271919480Y-130960300D01*
X271909320Y-130914580D01*
X271896620Y-130851080D01*
X271881380Y-130767260D01*
X271861060Y-130668200D01*
X271840740Y-130558980D01*
X271820420Y-130439600D01*
X271817880Y-130426900D01*
X271795020Y-130310060D01*
X271772160Y-130198300D01*
X271754380Y-130099240D01*
X271736600Y-130015420D01*
X271721360Y-129949380D01*
X271711200Y-129903660D01*
X271703580Y-129883340D01*
X271703580Y-129883340D01*
X271695960Y-129878260D01*
X271678180Y-129875720D01*
X271652780Y-129870640D01*
X271612140Y-129868100D01*
X271556260Y-129868100D01*
X271482600Y-129865560D01*
X271391160Y-129865560D01*
X271276860Y-129863020D01*
X271137160Y-129863020D01*
X270994920Y-129863020D01*
X270857760Y-129863020D01*
X270728220Y-129865560D01*
X270611380Y-129865560D01*
X270507240Y-129868100D01*
X270418340Y-129868100D01*
X270352300Y-129870640D01*
X270306580Y-129873180D01*
X270283720Y-129875720D01*
X270283720Y-129875720D01*
X270276100Y-129893500D01*
X270265940Y-129934140D01*
X270250700Y-130002720D01*
X270230380Y-130089080D01*
X270210060Y-130198300D01*
X270184660Y-130325300D01*
X270166880Y-130421820D01*
X270144020Y-130541200D01*
X270123700Y-130655500D01*
X270103380Y-130757100D01*
X270088140Y-130843460D01*
X270072900Y-130912040D01*
X270062740Y-130960300D01*
X270057660Y-130985700D01*
X270057660Y-130985700D01*
X270044960Y-131000940D01*
X270014480Y-131018720D01*
X269968760Y-131041580D01*
X269900180Y-131072060D01*
X269811280Y-131112700D01*
X269745240Y-131138100D01*
X269648720Y-131178740D01*
X269575060Y-131206680D01*
X269521720Y-131229540D01*
X269481080Y-131242240D01*
X269455680Y-131247320D01*
X269435360Y-131249860D01*
X269422660Y-131244780D01*
X269409960Y-131239700D01*
X269407420Y-131237160D01*
X269387100Y-131224460D01*
X269346460Y-131196520D01*
X269290580Y-131155880D01*
X269216920Y-131107620D01*
X269135640Y-131051740D01*
X269044200Y-130990780D01*
X268993400Y-130955220D01*
X268617480Y-130696140D01*
X268449840Y-130696140D01*
X268284740Y-130696140D01*
X267893580Y-131087300D01*
X267502420Y-131478460D01*
X267502420Y-131646100D01*
X267502420Y-131813740D01*
X267779280Y-132215060D01*
X268056140Y-132616380D01*
X267924060Y-132928800D01*
X267883420Y-133017700D01*
X267847860Y-133098980D01*
X267814840Y-133165020D01*
X267789440Y-133215820D01*
X267771660Y-133246300D01*
X267766580Y-133251380D01*
X267746260Y-133256460D01*
X267703080Y-133266620D01*
X267639580Y-133281860D01*
X267555760Y-133297100D01*
X267456700Y-133317420D01*
X267347480Y-133337740D01*
X267230640Y-133360600D01*
X267217940Y-133363140D01*
X267080780Y-133388540D01*
X266961400Y-133411400D01*
X266862340Y-133431720D01*
X266781060Y-133449500D01*
X266722640Y-133464740D01*
X266689620Y-133474900D01*
X266682000Y-133479980D01*
X266679460Y-133495220D01*
X266676920Y-133538400D01*
X266674380Y-133604440D01*
X266671840Y-133690800D01*
X266671840Y-133792400D01*
X266669300Y-133906700D01*
X266669300Y-134033700D01*
X266669300Y-134170860D01*
X266669300Y-134188640D01*
X266669300Y-134348660D01*
X266669300Y-134348660D01*
X266669300Y-134348660D01*
G37*
X266669300Y-134348660D02*
X266669300Y-134485820D01*
X266669300Y-134597580D01*
X266671840Y-134686480D01*
X266671840Y-134757600D01*
X266674380Y-134810940D01*
X266676920Y-134849040D01*
X266679460Y-134876980D01*
X266684540Y-134892220D01*
X266689620Y-134897300D01*
X266707400Y-134904920D01*
X266750580Y-134915080D01*
X266814080Y-134930320D01*
X266895360Y-134945560D01*
X266991880Y-134965880D01*
X267101100Y-134986200D01*
X267215400Y-135009060D01*
X267342400Y-135031920D01*
X267456700Y-135054780D01*
X267555760Y-135075100D01*
X267637040Y-135092880D01*
X267698000Y-135105580D01*
X267733560Y-135115740D01*
X267743720Y-135120820D01*
X267753880Y-135138600D01*
X267774200Y-135176700D01*
X267799600Y-135235120D01*
X267830080Y-135303700D01*
X267863100Y-135379900D01*
X267896120Y-135463720D01*
X267929140Y-135545000D01*
X267959620Y-135621200D01*
X267985020Y-135689780D01*
X268005340Y-135745660D01*
X268018040Y-135783760D01*
X268020580Y-135799000D01*
X268012960Y-135811700D01*
X267990100Y-135847260D01*
X267954540Y-135900600D01*
X267908820Y-135966640D01*
X267855480Y-136045380D01*
X267797060Y-136131740D01*
X267758960Y-136185080D01*
X267502420Y-136561000D01*
X267502420Y-136728640D01*
X267502420Y-136896280D01*
X267893580Y-137287440D01*
X268284740Y-137678600D01*
X268449840Y-137678600D01*
X268612400Y-137678600D01*
X268983240Y-137424600D01*
X269351540Y-137170600D01*
X269470920Y-137234100D01*
X269587760Y-137300140D01*
X269760480Y-137295060D01*
X269933200Y-137289980D01*
X270311660Y-136380660D01*
X270690120Y-135471340D01*
X270690120Y-135326560D01*
X270690120Y-135263060D01*
X270687580Y-135209720D01*
X270685040Y-135174160D01*
X270682500Y-135161460D01*
X270667260Y-135143680D01*
X270634240Y-135115740D01*
X270588520Y-135080180D01*
X270545340Y-135049700D01*
X270428500Y-134963340D01*
X270331980Y-134882060D01*
X270253240Y-134800780D01*
X270187200Y-134714420D01*
X270128780Y-134615360D01*
X270090680Y-134541700D01*
X270032260Y-134409620D01*
X269999240Y-134290240D01*
X269991620Y-134181020D01*
X269996700Y-134112440D01*
X270042420Y-133947340D01*
X270113540Y-133792400D01*
X270204980Y-133647620D01*
X270321820Y-133515540D01*
X270456440Y-133401240D01*
X270606300Y-133307260D01*
X270626620Y-133297100D01*
X270733300Y-133248840D01*
X270837440Y-133215820D01*
X270936500Y-133195500D01*
X270994920Y-133190420D01*
X271101600Y-133203120D01*
X271220980Y-133236140D01*
X271345440Y-133289480D01*
X271467360Y-133360600D01*
X271581660Y-133444420D01*
X271685800Y-133538400D01*
X271751840Y-133609520D01*
X271812800Y-133698420D01*
X271873760Y-133805100D01*
X271924560Y-133919400D01*
X271965200Y-134028620D01*
X271975360Y-134064180D01*
X271988060Y-134137840D01*
X271993140Y-134206420D01*
X271988060Y-134272460D01*
X271967740Y-134348660D01*
X271937260Y-134442640D01*
X271929640Y-134462960D01*
X271855980Y-134617900D01*
X271759460Y-134760140D01*
X271637540Y-134892220D01*
X271492760Y-135011600D01*
X271393700Y-135080180D01*
X271353060Y-135108120D01*
X271320040Y-135130980D01*
X271304800Y-135143680D01*
X271302260Y-135164000D01*
X271297180Y-135207180D01*
X271297180Y-135263060D01*
X271294640Y-135316400D01*
X271294640Y-135471340D01*
X271662940Y-136355260D01*
X271723900Y-136507660D01*
X271782320Y-136649900D01*
X271838200Y-136784520D01*
X271889000Y-136906440D01*
X271934720Y-137013120D01*
X271972820Y-137104560D01*
X272003300Y-137180760D01*
X272026160Y-137234100D01*
X272041400Y-137264580D01*
X272043940Y-137269660D01*
X272051560Y-137282360D01*
X272066800Y-137289980D01*
X272092200Y-137295060D01*
X272132840Y-137297600D01*
X272193800Y-137297600D01*
X272224280Y-137297600D01*
X272391920Y-137297600D01*
X272511300Y-137234100D01*
X272630680Y-137170600D01*
X272861820Y-137330620D01*
X272945640Y-137386500D01*
X273032000Y-137447460D01*
X273115820Y-137503340D01*
X273186940Y-137551600D01*
X273232660Y-137584620D01*
X273372360Y-137678600D01*
X273537460Y-137678600D01*
X273700020Y-137678600D01*
X274093720Y-137287440D01*
X274484880Y-136896280D01*
X274484880Y-136731180D01*
X274484880Y-136660060D01*
X274482340Y-136611800D01*
X274477260Y-136576240D01*
X274469640Y-136550840D01*
X274454400Y-136525440D01*
X274436620Y-136500040D01*
X274416300Y-136469560D01*
X274383280Y-136418760D01*
X274337560Y-136352720D01*
X274286760Y-136276520D01*
X274228340Y-136192700D01*
X274177540Y-136116500D01*
X274119120Y-136032680D01*
X274068320Y-135956480D01*
X274025140Y-135890440D01*
X273992120Y-135837100D01*
X273969260Y-135801540D01*
X273961640Y-135786300D01*
X273966720Y-135768520D01*
X273981960Y-135727880D01*
X274002280Y-135669460D01*
X274032760Y-135595800D01*
X274065780Y-135511980D01*
X274091180Y-135445940D01*
X274134360Y-135336720D01*
X274169920Y-135252900D01*
X274197860Y-135189400D01*
X274220720Y-135146220D01*
X274235960Y-135120820D01*
X274248660Y-135110660D01*
X274271520Y-135105580D01*
X274314700Y-135095420D01*
X274380740Y-135082720D01*
X274464560Y-135064940D01*
X274563620Y-135047160D01*
X274672840Y-135024300D01*
X274779520Y-135006520D01*
X274893820Y-134983660D01*
X275003040Y-134963340D01*
X275097020Y-134943020D01*
X275178300Y-134927780D01*
X275241800Y-134912540D01*
X275282440Y-134902380D01*
X275297680Y-134897300D01*
X275302760Y-134889680D01*
X275305300Y-134871900D01*
X275307840Y-134841420D01*
X275310380Y-134798240D01*
X275312920Y-134739820D01*
X275315460Y-134661080D01*
X275315460Y-134564560D01*
X275315460Y-134445180D01*
X275318000Y-134297860D01*
X275318000Y-134186100D01*
X275318000Y-133490140D01*
X275284980Y-133472360D01*
X275264660Y-133464740D01*
X275218940Y-133452040D01*
X275152900Y-133439340D01*
X275069080Y-133421560D01*
X274970020Y-133401240D01*
X274858260Y-133380920D01*
X274741420Y-133358060D01*
X274738880Y-133358060D01*
X274622040Y-133335200D01*
X274512820Y-133314880D01*
X274413760Y-133294560D01*
X274332480Y-133276780D01*
X274268980Y-133264080D01*
X274225800Y-133251380D01*
X274205480Y-133246300D01*
X274205480Y-133246300D01*
X274195320Y-133228520D01*
X274177540Y-133190420D01*
X274152140Y-133134540D01*
X274119120Y-133065960D01*
X274086100Y-132989760D01*
X274053080Y-132911020D01*
X274017520Y-132834820D01*
X273987040Y-132763700D01*
X273961640Y-132700200D01*
X273943860Y-132654480D01*
X273933700Y-132626540D01*
X273933700Y-132624000D01*
X273941320Y-132608760D01*
X273964180Y-132573200D01*
X273997200Y-132519860D01*
X274042920Y-132451280D01*
X274096260Y-132372540D01*
X274157220Y-132283640D01*
X274208020Y-132207440D01*
X274484880Y-131806120D01*
X274484880Y-131643560D01*
X274484880Y-131481000D01*
X274093720Y-131087300D01*
X273702560Y-130696140D01*
X273534920Y-130696140D01*
X273367280Y-130696140D01*
X273011680Y-130939980D01*
X272920240Y-131000940D01*
X272833880Y-131061900D01*
X272755140Y-131115240D01*
X272689100Y-131160960D01*
X272638300Y-131196520D01*
X272605280Y-131219380D01*
X272600200Y-131221920D01*
X272541780Y-131262560D01*
X272275080Y-131153340D01*
X272170940Y-131112700D01*
X272092200Y-131079680D01*
X272031240Y-131054280D01*
X271988060Y-131033960D01*
X271960120Y-131018720D01*
X271942340Y-131006020D01*
X271929640Y-130995860D01*
X271924560Y-130983160D01*
X271924560Y-130980620D01*
X271919480Y-130960300D01*
X271909320Y-130914580D01*
X271896620Y-130851080D01*
X271881380Y-130767260D01*
X271861060Y-130668200D01*
X271840740Y-130558980D01*
X271820420Y-130439600D01*
X271817880Y-130426900D01*
X271795020Y-130310060D01*
X271772160Y-130198300D01*
X271754380Y-130099240D01*
X271736600Y-130015420D01*
X271721360Y-129949380D01*
X271711200Y-129903660D01*
X271703580Y-129883340D01*
X271703580Y-129883340D01*
X271695960Y-129878260D01*
X271678180Y-129875720D01*
X271652780Y-129870640D01*
X271612140Y-129868100D01*
X271556260Y-129868100D01*
X271482600Y-129865560D01*
X271391160Y-129865560D01*
X271276860Y-129863020D01*
X271137160Y-129863020D01*
X270994920Y-129863020D01*
X270857760Y-129863020D01*
X270728220Y-129865560D01*
X270611380Y-129865560D01*
X270507240Y-129868100D01*
X270418340Y-129868100D01*
X270352300Y-129870640D01*
X270306580Y-129873180D01*
X270283720Y-129875720D01*
X270283720Y-129875720D01*
X270276100Y-129893500D01*
X270265940Y-129934140D01*
X270250700Y-130002720D01*
X270230380Y-130089080D01*
X270210060Y-130198300D01*
X270184660Y-130325300D01*
X270166880Y-130421820D01*
X270144020Y-130541200D01*
X270123700Y-130655500D01*
X270103380Y-130757100D01*
X270088140Y-130843460D01*
X270072900Y-130912040D01*
X270062740Y-130960300D01*
X270057660Y-130985700D01*
X270057660Y-130985700D01*
X270044960Y-131000940D01*
X270014480Y-131018720D01*
X269968760Y-131041580D01*
X269900180Y-131072060D01*
X269811280Y-131112700D01*
X269745240Y-131138100D01*
X269648720Y-131178740D01*
X269575060Y-131206680D01*
X269521720Y-131229540D01*
X269481080Y-131242240D01*
X269455680Y-131247320D01*
X269435360Y-131249860D01*
X269422660Y-131244780D01*
X269409960Y-131239700D01*
X269407420Y-131237160D01*
X269387100Y-131224460D01*
X269346460Y-131196520D01*
X269290580Y-131155880D01*
X269216920Y-131107620D01*
X269135640Y-131051740D01*
X269044200Y-130990780D01*
X268993400Y-130955220D01*
X268617480Y-130696140D01*
X268449840Y-130696140D01*
X268284740Y-130696140D01*
X267893580Y-131087300D01*
X267502420Y-131478460D01*
X267502420Y-131646100D01*
X267502420Y-131813740D01*
X267779280Y-132215060D01*
X268056140Y-132616380D01*
X267924060Y-132928800D01*
X267883420Y-133017700D01*
X267847860Y-133098980D01*
X267814840Y-133165020D01*
X267789440Y-133215820D01*
X267771660Y-133246300D01*
X267766580Y-133251380D01*
X267746260Y-133256460D01*
X267703080Y-133266620D01*
X267639580Y-133281860D01*
X267555760Y-133297100D01*
X267456700Y-133317420D01*
X267347480Y-133337740D01*
X267230640Y-133360600D01*
X267217940Y-133363140D01*
X267080780Y-133388540D01*
X266961400Y-133411400D01*
X266862340Y-133431720D01*
X266781060Y-133449500D01*
X266722640Y-133464740D01*
X266689620Y-133474900D01*
X266682000Y-133479980D01*
X266679460Y-133495220D01*
X266676920Y-133538400D01*
X266674380Y-133604440D01*
X266671840Y-133690800D01*
X266671840Y-133792400D01*
X266669300Y-133906700D01*
X266669300Y-134033700D01*
X266669300Y-134170860D01*
X266669300Y-134188640D01*
X266669300Y-134348660D01*
X266669300Y-134348660D01*
D12*
G36*
X286169680Y-132291260D02*
X288567440Y-132291260D01*
X288567440Y-133022780D01*
X286169680Y-133022780D01*
X286169680Y-134353740D01*
X286169622Y-134516421D01*
X286169453Y-134673399D01*
X286169178Y-134823485D01*
X286168806Y-134965489D01*
X286168343Y-135098225D01*
X286167796Y-135220502D01*
X286167172Y-135331133D01*
X286166478Y-135428930D01*
X286165721Y-135512704D01*
X286164908Y-135581266D01*
X286164045Y-135633428D01*
X286163140Y-135668002D01*
X286162200Y-135683799D01*
X286161914Y-135684700D01*
X286152603Y-135677838D01*
X286131432Y-135658768D01*
X286100798Y-135629756D01*
X286063100Y-135593074D01*
X286022361Y-135552620D01*
X285890574Y-135420540D01*
X283639840Y-135420540D01*
X283639840Y-134699180D01*
X286037600Y-134699180D01*
X286037600Y-130625020D01*
X280434407Y-130625020D01*
X281267481Y-131458140D01*
X282100554Y-132291260D01*
X284361200Y-132291260D01*
X284361200Y-133022780D01*
X283835392Y-133022779D01*
X283309583Y-133022779D01*
X282636512Y-133695908D01*
X281963440Y-134369036D01*
X281963441Y-135059917D01*
X281963441Y-135750797D01*
X282636569Y-136423868D01*
X283309697Y-137096940D01*
X290233839Y-137096940D01*
X290231367Y-134699180D01*
X288567440Y-134699180D01*
X288567440Y-135420540D01*
X288287871Y-135420540D01*
X288061896Y-135194397D01*
X287835920Y-134968254D01*
X287835920Y-134699180D01*
X288567440Y-134699180D01*
X290231367Y-134699180D01*
X290231220Y-134557104D01*
X290228600Y-132017269D01*
X290335280Y-132123152D01*
X290378935Y-132165881D01*
X290412673Y-132196878D01*
X290440567Y-132219148D01*
X290466691Y-132235695D01*
X290495116Y-132249526D01*
X290520965Y-132260147D01*
X290599969Y-132291259D01*
X291450711Y-132291259D01*
X292301452Y-132291260D01*
X292484121Y-132474140D01*
X292666789Y-132657019D01*
X292484120Y-132839899D01*
X292301452Y-133022780D01*
X290365760Y-133022780D01*
X290365760Y-137096940D01*
X295334000Y-137096940D01*
X295334000Y-135420540D01*
X292032000Y-135420540D01*
X292032000Y-134699180D01*
X292562889Y-134699180D01*
X293093778Y-134699179D01*
X293766998Y-134025902D01*
X294440219Y-133352624D01*
X294437530Y-132702562D01*
X294436924Y-132588999D01*
X294436085Y-132481115D01*
X294435044Y-132380683D01*
X294433831Y-132289475D01*
X294432478Y-132209263D01*
X294431016Y-132141819D01*
X294429475Y-132088915D01*
X294427885Y-132052323D01*
X294426279Y-132033816D01*
X294425860Y-132032180D01*
X294429837Y-132032640D01*
X294446152Y-132045733D01*
X294472828Y-132069672D01*
X294507884Y-132102672D01*
X294549343Y-132142945D01*
X294558071Y-132151560D01*
X294699264Y-132291260D01*
X295466080Y-132291260D01*
X295466080Y-137096940D01*
X297132320Y-137096940D01*
X297132320Y-132291260D01*
X297899447Y-132291260D01*
X298732521Y-131458140D01*
X299565594Y-130625020D01*
X286169680Y-130625020D01*
X286169680Y-132291260D01*
X286169680Y-132291260D01*
G37*
X286169680Y-132291260D02*
X288567440Y-132291260D01*
X288567440Y-133022780D01*
X286169680Y-133022780D01*
X286169680Y-134353740D01*
X286169622Y-134516421D01*
X286169453Y-134673399D01*
X286169178Y-134823485D01*
X286168806Y-134965489D01*
X286168343Y-135098225D01*
X286167796Y-135220502D01*
X286167172Y-135331133D01*
X286166478Y-135428930D01*
X286165721Y-135512704D01*
X286164908Y-135581266D01*
X286164045Y-135633428D01*
X286163140Y-135668002D01*
X286162200Y-135683799D01*
X286161914Y-135684700D01*
X286152603Y-135677838D01*
X286131432Y-135658768D01*
X286100798Y-135629756D01*
X286063100Y-135593074D01*
X286022361Y-135552620D01*
X285890574Y-135420540D01*
X283639840Y-135420540D01*
X283639840Y-134699180D01*
X286037600Y-134699180D01*
X286037600Y-130625020D01*
X280434407Y-130625020D01*
X281267481Y-131458140D01*
X282100554Y-132291260D01*
X284361200Y-132291260D01*
X284361200Y-133022780D01*
X283835392Y-133022779D01*
X283309583Y-133022779D01*
X282636512Y-133695908D01*
X281963440Y-134369036D01*
X281963441Y-135059917D01*
X281963441Y-135750797D01*
X282636569Y-136423868D01*
X283309697Y-137096940D01*
X290233839Y-137096940D01*
X290231367Y-134699180D01*
X288567440Y-134699180D01*
X288567440Y-135420540D01*
X288287871Y-135420540D01*
X288061896Y-135194397D01*
X287835920Y-134968254D01*
X287835920Y-134699180D01*
X288567440Y-134699180D01*
X290231367Y-134699180D01*
X290231220Y-134557104D01*
X290228600Y-132017269D01*
X290335280Y-132123152D01*
X290378935Y-132165881D01*
X290412673Y-132196878D01*
X290440567Y-132219148D01*
X290466691Y-132235695D01*
X290495116Y-132249526D01*
X290520965Y-132260147D01*
X290599969Y-132291259D01*
X291450711Y-132291259D01*
X292301452Y-132291260D01*
X292484121Y-132474140D01*
X292666789Y-132657019D01*
X292484120Y-132839899D01*
X292301452Y-133022780D01*
X290365760Y-133022780D01*
X290365760Y-137096940D01*
X295334000Y-137096940D01*
X295334000Y-135420540D01*
X292032000Y-135420540D01*
X292032000Y-134699180D01*
X292562889Y-134699180D01*
X293093778Y-134699179D01*
X293766998Y-134025902D01*
X294440219Y-133352624D01*
X294437530Y-132702562D01*
X294436924Y-132588999D01*
X294436085Y-132481115D01*
X294435044Y-132380683D01*
X294433831Y-132289475D01*
X294432478Y-132209263D01*
X294431016Y-132141819D01*
X294429475Y-132088915D01*
X294427885Y-132052323D01*
X294426279Y-132033816D01*
X294425860Y-132032180D01*
X294429837Y-132032640D01*
X294446152Y-132045733D01*
X294472828Y-132069672D01*
X294507884Y-132102672D01*
X294549343Y-132142945D01*
X294558071Y-132151560D01*
X294699264Y-132291260D01*
X295466080Y-132291260D01*
X295466080Y-137096940D01*
X297132320Y-137096940D01*
X297132320Y-132291260D01*
X297899447Y-132291260D01*
X298732521Y-131458140D01*
X299565594Y-130625020D01*
X286169680Y-130625020D01*
X286169680Y-132291260D01*
D13*
X264058400Y-104736900D03*
D14*
X269138400Y-104736900D03*
X258978400Y-104736900D03*
D15*
X267976400Y-107276900D03*
X266666400Y-108736900D03*
X261625400Y-109816900D03*
X261665400Y-109236900D03*
D13*
X235483400Y-85686900D03*
D14*
X240563400Y-85686900D03*
X230403400Y-85686900D03*
D15*
X239401400Y-88226900D03*
X238091400Y-89686900D03*
X233050400Y-90766900D03*
X233090400Y-90186900D03*
D16*
X279786400Y-60274200D03*
X288766400Y-60274200D03*
X280146400Y-66224200D03*
X288406400Y-66224200D03*
D17*
X280676400Y-67474200D03*
D18*
X287876400Y-67474200D03*
D19*
X281876400Y-66124200D03*
X283476400Y-66124200D03*
X286676400Y-66124200D03*
X285876400Y-66124200D03*
X285076400Y-66124200D03*
X282676400Y-66124200D03*
X281476400Y-66824200D03*
X283076400Y-66824200D03*
X283876400Y-66824200D03*
X284676400Y-66824200D03*
X285476400Y-66824200D03*
X287076400Y-66824200D03*
D20*
X287026400Y-68134200D03*
X286526400Y-68134200D03*
X286026400Y-68134200D03*
X285526400Y-68134200D03*
X285026400Y-68134200D03*
X284526400Y-68134200D03*
X284026400Y-68134200D03*
X283526400Y-68134200D03*
X283026400Y-68134200D03*
X282526400Y-68134200D03*
X282026400Y-68134200D03*
X281526400Y-68134200D03*
D21*
X90830400Y-114515900D03*
X93370400Y-114515900D03*
X95910400Y-114515900D03*
X98450400Y-114515900D03*
X100990400Y-114515900D03*
X103530400Y-114515900D03*
X106070400Y-114515900D03*
X108610400Y-114515900D03*
X111150400Y-114515900D03*
X113690400Y-114515900D03*
X116230400Y-114515900D03*
X118770400Y-114515900D03*
X121310400Y-114515900D03*
X123850400Y-114515900D03*
X126390400Y-114515900D03*
D22*
X145618200Y-116000000D03*
X144348200Y-116000000D03*
X145618200Y-114730000D03*
X144348200Y-114730000D03*
X144348200Y-113460000D03*
X145618200Y-113460000D03*
X145618200Y-117270000D03*
X144348200Y-117270000D03*
X145618200Y-118540000D03*
X144348200Y-118540000D03*
D23*
X144983200Y-119810000D03*
X145999200Y-112190000D03*
X143967200Y-112190000D03*
D24*
X147523200Y-119810000D03*
X147523200Y-114095000D03*
X142443200Y-119810000D03*
X142443200Y-114095000D03*
D13*
X256914400Y-161886900D03*
D14*
X261994400Y-161886900D03*
X251834400Y-161886900D03*
D25*
X260432400Y-164026900D03*
X259322400Y-165886900D03*
X254281400Y-166966900D03*
X254321400Y-166386900D03*
D13*
X254533400Y-161886900D03*
D14*
X259613400Y-161886900D03*
X249453400Y-161886900D03*
D15*
X258451400Y-164426900D03*
X257141400Y-165886900D03*
X252100400Y-166966900D03*
X252140400Y-166386900D03*
D13*
X292633400Y-161886900D03*
D14*
X297713400Y-161886900D03*
X287553400Y-161886900D03*
D15*
X296551400Y-164426900D03*
D25*
X295541400Y-166186900D03*
X290400400Y-166966900D03*
X290440400Y-166386900D03*
D13*
X173570400Y-161886900D03*
D14*
X178650400Y-161886900D03*
X168490400Y-161886900D03*
D15*
X177488400Y-164426900D03*
X176178400Y-165886900D03*
X171137400Y-166966900D03*
X171177400Y-166386900D03*
D13*
X140233400Y-161886900D03*
D14*
X145313400Y-161886900D03*
D15*
X144151400Y-164426900D03*
D25*
X143141400Y-166186900D03*
X138000400Y-166966900D03*
X138040400Y-166386900D03*
D13*
X137852400Y-161886900D03*
D14*
X132772400Y-161886900D03*
D25*
X141470400Y-164126900D03*
D15*
X140460400Y-165886900D03*
D25*
X135219400Y-166966900D03*
X135259400Y-166386900D03*
D13*
X135471400Y-161886900D03*
D14*
X130391400Y-161886900D03*
D15*
X139389400Y-164426900D03*
X138079400Y-165886900D03*
X133038400Y-166966900D03*
X133078400Y-166386900D03*
D13*
X130708400Y-161886900D03*
D14*
X125628400Y-161886900D03*
D15*
X134626400Y-164426900D03*
X133316400Y-165886900D03*
X128275400Y-166966900D03*
X128315400Y-166386900D03*
D13*
X142614400Y-161886900D03*
D14*
X147694400Y-161886900D03*
D15*
X146532400Y-164426900D03*
X145222400Y-165886900D03*
X140181400Y-166966900D03*
X140221400Y-166386900D03*
D13*
X116421400Y-161886900D03*
D14*
X121501400Y-161886900D03*
D15*
X120339400Y-164426900D03*
D25*
X119329400Y-166186900D03*
X114188400Y-166966900D03*
X114228400Y-166386900D03*
D13*
X166427400Y-161886900D03*
D14*
X171507400Y-161886900D03*
X161347400Y-161886900D03*
D15*
X170345400Y-164426900D03*
X169035400Y-165886900D03*
X163994400Y-166966900D03*
X164034400Y-166386900D03*
D13*
X171189400Y-161886900D03*
D14*
X176269400Y-161886900D03*
D15*
X175107400Y-164426900D03*
X173797400Y-165886900D03*
X168756400Y-166966900D03*
X168796400Y-166386900D03*
D13*
X140233400Y-85686900D03*
D14*
X145313400Y-85686900D03*
X135153400Y-85686900D03*
D15*
X144151400Y-88226900D03*
X142841400Y-89686900D03*
X137800400Y-90766900D03*
X137840400Y-90186900D03*
D13*
X130708400Y-104736900D03*
D14*
X135788400Y-104736900D03*
X125628400Y-104736900D03*
D15*
X134626400Y-107276900D03*
X133316400Y-108736900D03*
X128275400Y-109816900D03*
X128315400Y-109236900D03*
D13*
X106895400Y-161886900D03*
D14*
X101815400Y-161886900D03*
D15*
X110813400Y-164426900D03*
X109503400Y-165886900D03*
X104462400Y-166966900D03*
X104502400Y-166386900D03*
D13*
X66414400Y-161886900D03*
D14*
X71494400Y-161886900D03*
X61334400Y-161886900D03*
D15*
X70332400Y-164426900D03*
X69022400Y-165886900D03*
X63981400Y-166966900D03*
X64021400Y-166386900D03*
D13*
X68796400Y-161886900D03*
D14*
X73876400Y-161886900D03*
X63716400Y-161886900D03*
D15*
X72714400Y-164426900D03*
X71404400Y-165886900D03*
X66363400Y-166966900D03*
X66403400Y-166386900D03*
D13*
X68796400Y-104736900D03*
D14*
X73876400Y-104736900D03*
X63716400Y-104736900D03*
D15*
X72714400Y-107276900D03*
X71404400Y-108736900D03*
X66363400Y-109816900D03*
X66403400Y-109236900D03*
D13*
X159283400Y-85686900D03*
D14*
X164363400Y-85686900D03*
X154203400Y-85686900D03*
D15*
X163201400Y-88226900D03*
X161891400Y-89686900D03*
X156850400Y-90766900D03*
X156890400Y-90186900D03*
D13*
X183095400Y-142836900D03*
D14*
X188175400Y-142836900D03*
X178015400Y-142836900D03*
D15*
X187013400Y-145376900D03*
X185703400Y-146836900D03*
X180662400Y-147916900D03*
X180702400Y-147336900D03*
D13*
X128327400Y-161886900D03*
D14*
X133407400Y-161886900D03*
X123247400Y-161886900D03*
D15*
X132245400Y-164426900D03*
X130935400Y-165886900D03*
X125894400Y-166966900D03*
X125934400Y-166386900D03*
D13*
X164045400Y-142836900D03*
D14*
X169125400Y-142836900D03*
X158965400Y-142836900D03*
D15*
X167963400Y-145376900D03*
X166653400Y-146836900D03*
X161612400Y-147916900D03*
X161652400Y-147336900D03*
D13*
X144996400Y-142836900D03*
D14*
X150076400Y-142836900D03*
X139916400Y-142836900D03*
D15*
X148914400Y-145376900D03*
X147604400Y-146836900D03*
X142563400Y-147916900D03*
X142603400Y-147336900D03*
D13*
X87846400Y-142836900D03*
D14*
X92926400Y-142836900D03*
X82766400Y-142836900D03*
D15*
X91764400Y-145376900D03*
X90454400Y-146836900D03*
X85413400Y-147916900D03*
X85453400Y-147336900D03*
D13*
X75939400Y-142836900D03*
D14*
X81019400Y-142836900D03*
X70859400Y-142836900D03*
D15*
X79857400Y-145376900D03*
X78547400Y-146836900D03*
X73506400Y-147916900D03*
X73546400Y-147336900D03*
D13*
X66414400Y-142836900D03*
D14*
X71494400Y-142836900D03*
X61334400Y-142836900D03*
D15*
X70332400Y-145376900D03*
X69022400Y-146836900D03*
X63981400Y-147916900D03*
X64021400Y-147336900D03*
D13*
X106895400Y-142836900D03*
D14*
X111975400Y-142836900D03*
X101815400Y-142836900D03*
D15*
X110813400Y-145376900D03*
X109503400Y-146836900D03*
X104462400Y-147916900D03*
X104502400Y-147336900D03*
D13*
X125945400Y-142836900D03*
D14*
X131025400Y-142836900D03*
X120865400Y-142836900D03*
D15*
X129863400Y-145376900D03*
X128553400Y-146836900D03*
X123512400Y-147916900D03*
X123552400Y-147336900D03*
D13*
X97371400Y-123786900D03*
D14*
X102451400Y-123786900D03*
X92291400Y-123786900D03*
D15*
X101289400Y-126326900D03*
X99979400Y-127786900D03*
X94938400Y-128866900D03*
X94978400Y-128286900D03*
D13*
X71177400Y-123786900D03*
D14*
X76257400Y-123786900D03*
D15*
X75095400Y-126326900D03*
X73785400Y-127786900D03*
X68744400Y-128866900D03*
X68784400Y-128286900D03*
D13*
X116421400Y-123786900D03*
D14*
X121501400Y-123786900D03*
X111341400Y-123786900D03*
D15*
X120339400Y-126326900D03*
X119029400Y-127786900D03*
X113988400Y-128866900D03*
X114028400Y-128286900D03*
D13*
X135471400Y-123786900D03*
D14*
X140551400Y-123786900D03*
X130391400Y-123786900D03*
D15*
X139389400Y-126326900D03*
X138079400Y-127786900D03*
X133038400Y-128866900D03*
X133078400Y-128286900D03*
D13*
X173570400Y-123786900D03*
D14*
X178650400Y-123786900D03*
X168490400Y-123786900D03*
D15*
X177488400Y-126326900D03*
X176178400Y-127786900D03*
X171137400Y-128866900D03*
X171177400Y-128286900D03*
D13*
X111658400Y-104736900D03*
D14*
X116738400Y-104736900D03*
X106578400Y-104736900D03*
D15*
X115576400Y-107276900D03*
X114266400Y-108736900D03*
X109225400Y-109816900D03*
X109265400Y-109236900D03*
D13*
X149758400Y-104736900D03*
D14*
X154838400Y-104736900D03*
X144678400Y-104736900D03*
D15*
X153676400Y-107276900D03*
X152366400Y-108736900D03*
X147325400Y-109816900D03*
X147365400Y-109236900D03*
D13*
X178333400Y-85686900D03*
D14*
X183413400Y-85686900D03*
X173253400Y-85686900D03*
D15*
X182251400Y-88226900D03*
X180941400Y-89686900D03*
X175900400Y-90766900D03*
X175940400Y-90186900D03*
D13*
X168808400Y-104736900D03*
D14*
X173888400Y-104736900D03*
X163728400Y-104736900D03*
D15*
X172726400Y-107276900D03*
X171416400Y-108736900D03*
X166375400Y-109816900D03*
X166415400Y-109236900D03*
D13*
X154520400Y-123786900D03*
D14*
X159600400Y-123786900D03*
X149440400Y-123786900D03*
D15*
X158438400Y-126326900D03*
X157128400Y-127786900D03*
X152087400Y-128866900D03*
X152127400Y-128286900D03*
D13*
X92608400Y-104666900D03*
D14*
X97688400Y-104666900D03*
X87528400Y-104666900D03*
D15*
X96526400Y-107206900D03*
X95216400Y-108666900D03*
X90175400Y-109746900D03*
X90215400Y-109166900D03*
D13*
X152139400Y-161886900D03*
D14*
X157219400Y-161886900D03*
X147059400Y-161886900D03*
D15*
X156057400Y-164426900D03*
X154747400Y-165886900D03*
X149706400Y-166966900D03*
X149746400Y-166386900D03*
D13*
X183095400Y-161886900D03*
D14*
X188175400Y-161886900D03*
X178015400Y-161886900D03*
D15*
X187013400Y-164426900D03*
X185703400Y-165886900D03*
X180662400Y-166966900D03*
X180702400Y-166386900D03*
D13*
X114039400Y-161886900D03*
D14*
X119119400Y-161886900D03*
X108959400Y-161886900D03*
D25*
X117657400Y-164126900D03*
D15*
X116647400Y-165886900D03*
D25*
X111406400Y-166966900D03*
X111446400Y-166386900D03*
D13*
X111658400Y-161886900D03*
D15*
X115576400Y-164426900D03*
X114266400Y-165886900D03*
X109225400Y-166966900D03*
X109265400Y-166386900D03*
D13*
X87846400Y-161886900D03*
D14*
X82766400Y-161886900D03*
D15*
X91764400Y-164426900D03*
X90454400Y-165886900D03*
X85413400Y-166966900D03*
X85453400Y-166386900D03*
D13*
X92608400Y-161886900D03*
D14*
X97688400Y-161886900D03*
D15*
X96526400Y-164426900D03*
D25*
X95516400Y-166186900D03*
X90375400Y-166966900D03*
X90415400Y-166386900D03*
D13*
X90227400Y-161886900D03*
D14*
X95307400Y-161886900D03*
X85147400Y-161886900D03*
D25*
X93845400Y-164126900D03*
D15*
X92835400Y-165886900D03*
D25*
X87594400Y-166966900D03*
X87634400Y-166386900D03*
D13*
X271202400Y-161886900D03*
D14*
X276282400Y-161886900D03*
X266122400Y-161886900D03*
D15*
X275120400Y-164426900D03*
X273810400Y-165886900D03*
X268769400Y-166966900D03*
X268809400Y-166386900D03*
D13*
X266439400Y-161886900D03*
D14*
X261359400Y-161886900D03*
D15*
X270357400Y-164426900D03*
X269047400Y-165886900D03*
D25*
X264206400Y-166966900D03*
X264246400Y-166586900D03*
D13*
X278346400Y-161886900D03*
D14*
X283426400Y-161886900D03*
X273266400Y-161886900D03*
D15*
X282264400Y-164426900D03*
X280954400Y-165886900D03*
X275913400Y-166966900D03*
X275953400Y-166386900D03*
D13*
X211671400Y-161886900D03*
D14*
X216751400Y-161886900D03*
X206591400Y-161886900D03*
D15*
X215589400Y-164426900D03*
X214279400Y-165886900D03*
X209238400Y-166966900D03*
X209278400Y-166386900D03*
D13*
X245008400Y-161886900D03*
D14*
X250088400Y-161886900D03*
X239928400Y-161886900D03*
D25*
X248626400Y-164126900D03*
D15*
X247616400Y-165886900D03*
D25*
X242375400Y-166966900D03*
X242415400Y-166386900D03*
D13*
X259295400Y-161886900D03*
D26*
X263113400Y-164126900D03*
D27*
X261703400Y-166319913D02*
X262003400Y-165800297D01*
D25*
X257062400Y-166966900D03*
X257102400Y-166386900D03*
D13*
X287870400Y-161886900D03*
D14*
X282790400Y-161886900D03*
D15*
X291788400Y-164426900D03*
X290478400Y-165886900D03*
D25*
X285637400Y-166966900D03*
X285677400Y-166586900D03*
D13*
X304539400Y-161886900D03*
D14*
X309619400Y-161886900D03*
X299459400Y-161886900D03*
D15*
X308457400Y-164426900D03*
X307147400Y-165886900D03*
X302106400Y-166966900D03*
X302146400Y-166386900D03*
D13*
X328352400Y-161886900D03*
D14*
X333432400Y-161886900D03*
X323272400Y-161886900D03*
D15*
X332270400Y-164426900D03*
X330960400Y-165886900D03*
X325919400Y-166966900D03*
X325959400Y-166386900D03*
D13*
X218814400Y-161886900D03*
D14*
X223894400Y-161886900D03*
X213734400Y-161886900D03*
D15*
X222732400Y-164426900D03*
X221422400Y-165886900D03*
X216381400Y-166966900D03*
X216421400Y-166386900D03*
D13*
X273583400Y-161886900D03*
D14*
X268503400Y-161886900D03*
D15*
X277501400Y-164426900D03*
X276191400Y-165886900D03*
X271150400Y-166966900D03*
X271190400Y-166386900D03*
D13*
X273583400Y-85686900D03*
D14*
X278663400Y-85686900D03*
X268503400Y-85686900D03*
D15*
X277501400Y-88226900D03*
X276191400Y-89686900D03*
X271150400Y-90766900D03*
X271190400Y-90186900D03*
D13*
X245008400Y-104736900D03*
D14*
X250088400Y-104736900D03*
X239928400Y-104736900D03*
D15*
X248926400Y-107276900D03*
X247616400Y-108736900D03*
X242575400Y-109816900D03*
X242615400Y-109236900D03*
D13*
X187858400Y-104736900D03*
D14*
X192938400Y-104736900D03*
X182778400Y-104736900D03*
D15*
X191776400Y-107276900D03*
X190466400Y-108736900D03*
X185425400Y-109816900D03*
X185465400Y-109236900D03*
D13*
X254533400Y-85686900D03*
D14*
X259613400Y-85686900D03*
X249453400Y-85686900D03*
D15*
X258451400Y-88226900D03*
X257141400Y-89686900D03*
X252100400Y-90766900D03*
X252140400Y-90186900D03*
D13*
X292633400Y-85686900D03*
D14*
X297713400Y-85686900D03*
X287553400Y-85686900D03*
D15*
X296551400Y-88226900D03*
X295241400Y-89686900D03*
X290200400Y-90766900D03*
X290240400Y-90186900D03*
D13*
X330733400Y-142836900D03*
D14*
X335813400Y-142836900D03*
X325653400Y-142836900D03*
D15*
X334651400Y-145376900D03*
X333341400Y-146836900D03*
X328300400Y-147916900D03*
X328340400Y-147336900D03*
D13*
X304539400Y-142836900D03*
D14*
X309619400Y-142836900D03*
X299459400Y-142836900D03*
D15*
X308457400Y-145376900D03*
X307147400Y-146836900D03*
X302106400Y-147916900D03*
X302146400Y-147336900D03*
D13*
X278346400Y-142836900D03*
D14*
X283426400Y-142836900D03*
X273266400Y-142836900D03*
D15*
X282264400Y-145376900D03*
X280954400Y-146836900D03*
X275913400Y-147916900D03*
X275953400Y-147336900D03*
D13*
X221196400Y-142836900D03*
D14*
X226276400Y-142836900D03*
X216116400Y-142836900D03*
D15*
X225114400Y-145376900D03*
X223804400Y-146836900D03*
X218763400Y-147916900D03*
X218803400Y-147336900D03*
D13*
X202146400Y-142836900D03*
D14*
X207226400Y-142836900D03*
X197066400Y-142836900D03*
D15*
X206064400Y-145376900D03*
X204754400Y-146836900D03*
X199713400Y-147916900D03*
X199753400Y-147336900D03*
D13*
X240245400Y-142836900D03*
D14*
X245325400Y-142836900D03*
X235165400Y-142836900D03*
D15*
X244163400Y-145376900D03*
X242853400Y-146836900D03*
X237812400Y-147916900D03*
X237852400Y-147336900D03*
D13*
X259295400Y-142836900D03*
D14*
X264375400Y-142836900D03*
X254215400Y-142836900D03*
D15*
X263213400Y-145376900D03*
X261903400Y-146836900D03*
X256862400Y-147916900D03*
X256902400Y-147336900D03*
D13*
X211671400Y-123786900D03*
D14*
X216751400Y-123786900D03*
X206591400Y-123786900D03*
D15*
X215589400Y-126326900D03*
X214279400Y-127786900D03*
X209238400Y-128866900D03*
X209278400Y-128286900D03*
D13*
X230721400Y-123786900D03*
D14*
X235801400Y-123786900D03*
X225641400Y-123786900D03*
D15*
X234639400Y-126326900D03*
X233329400Y-127786900D03*
X228288400Y-128866900D03*
X228328400Y-128286900D03*
D13*
X249771400Y-123786900D03*
D14*
X254851400Y-123786900D03*
X244691400Y-123786900D03*
D15*
X253689400Y-126326900D03*
X252379400Y-127786900D03*
X247338400Y-128866900D03*
X247378400Y-128286900D03*
D13*
X287870400Y-123786900D03*
D14*
X292950400Y-123786900D03*
X282790400Y-123786900D03*
D15*
X291788400Y-126326900D03*
X290478400Y-127786900D03*
X285437400Y-128866900D03*
X285477400Y-128286900D03*
D13*
X225958400Y-104736900D03*
D14*
X231038400Y-104736900D03*
X220878400Y-104736900D03*
D15*
X229876400Y-107276900D03*
X228566400Y-108736900D03*
X223525400Y-109816900D03*
X223565400Y-109236900D03*
D13*
X311683400Y-85686900D03*
D14*
X316763400Y-85686900D03*
X306603400Y-85686900D03*
D15*
X315601400Y-88226900D03*
X314291400Y-89686900D03*
X309250400Y-90766900D03*
X309290400Y-90186900D03*
D13*
X283108400Y-104736900D03*
D14*
X288188400Y-104736900D03*
X278028400Y-104736900D03*
D15*
X287026400Y-107276900D03*
X285716400Y-108736900D03*
X280675400Y-109816900D03*
X280715400Y-109236900D03*
D13*
X197383400Y-85686900D03*
D14*
X202463400Y-85686900D03*
X192303400Y-85686900D03*
D15*
X201301400Y-88226900D03*
X199991400Y-89686900D03*
X194950400Y-90766900D03*
X194990400Y-90186900D03*
D13*
X216433400Y-85686900D03*
D14*
X221513400Y-85686900D03*
X211353400Y-85686900D03*
D15*
X220351400Y-88226900D03*
X219041400Y-89686900D03*
X214000400Y-90766900D03*
X214040400Y-90186900D03*
D13*
X268821400Y-123786900D03*
D14*
X273901400Y-123786900D03*
X263741400Y-123786900D03*
D15*
X272739400Y-126326900D03*
X271429400Y-127786900D03*
X266388400Y-128866900D03*
X266428400Y-128286900D03*
D13*
X206908400Y-104666900D03*
D14*
X211988400Y-104666900D03*
X201828400Y-104666900D03*
D15*
X210826400Y-107206900D03*
X209516400Y-108666900D03*
X204475400Y-109746900D03*
X204515400Y-109166900D03*
D13*
X302158400Y-104736900D03*
D14*
X307238400Y-104736900D03*
X297078400Y-104736900D03*
D15*
X306076400Y-107276900D03*
X304766400Y-108736900D03*
X299725400Y-109816900D03*
X299765400Y-109236900D03*
D13*
X349783400Y-142836900D03*
D14*
X354863400Y-142836900D03*
X344703400Y-142836900D03*
D15*
X353701400Y-145376900D03*
X352391400Y-146836900D03*
X347350400Y-147916900D03*
X347390400Y-147336900D03*
D13*
X349783400Y-85686900D03*
D14*
X354863400Y-85686900D03*
X344703400Y-85686900D03*
D15*
X353701400Y-88226900D03*
X352391400Y-89686900D03*
X347350400Y-90766900D03*
X347390400Y-90186900D03*
D13*
X330733400Y-85686900D03*
D14*
X335813400Y-85686900D03*
X325653400Y-85686900D03*
D15*
X334651400Y-88226900D03*
X333341400Y-89686900D03*
X328300400Y-90766900D03*
X328340400Y-90186900D03*
D13*
X349783400Y-104736900D03*
D14*
X354863400Y-104736900D03*
X344703400Y-104736900D03*
D15*
X353701400Y-107276900D03*
X352391400Y-108736900D03*
X347350400Y-109816900D03*
X347390400Y-109236900D03*
D13*
X325970400Y-104863900D03*
D14*
X331050400Y-104863900D03*
X320890400Y-104863900D03*
D15*
X329888400Y-107403900D03*
X328578400Y-108863900D03*
X323537400Y-109943900D03*
X323577400Y-109363900D03*
D13*
X349783400Y-123786900D03*
D14*
X354863400Y-123786900D03*
X344703400Y-123786900D03*
D15*
X353701400Y-126326900D03*
X352391400Y-127786900D03*
X347350400Y-128866900D03*
X347390400Y-128286900D03*
D13*
X318827400Y-123786900D03*
D14*
X323907400Y-123786900D03*
X313747400Y-123786900D03*
D15*
X322745400Y-126326900D03*
X321435400Y-127786900D03*
X316394400Y-128866900D03*
X316434400Y-128286900D03*
D13*
X192620400Y-123786900D03*
D14*
X197700400Y-123786900D03*
X187540400Y-123786900D03*
D15*
X196538400Y-126326900D03*
X195228400Y-127786900D03*
X190187400Y-128866900D03*
X190227400Y-128286900D03*
D13*
X349783400Y-161886900D03*
D14*
X354863400Y-161886900D03*
X344703400Y-161886900D03*
D15*
X353701400Y-164426900D03*
X352391400Y-165886900D03*
X347350400Y-166966900D03*
X347390400Y-166386900D03*
D13*
X330733400Y-161886900D03*
D14*
X335813400Y-161886900D03*
X325653400Y-161886900D03*
D15*
X334651400Y-164426900D03*
X333341400Y-165886900D03*
X328300400Y-166966900D03*
X328340400Y-166386900D03*
D13*
X311683400Y-161886900D03*
D14*
X316763400Y-161886900D03*
X306603400Y-161886900D03*
D15*
X315601400Y-164426900D03*
X314291400Y-165886900D03*
X309250400Y-166966900D03*
X309290400Y-166386900D03*
D13*
X249771400Y-161886900D03*
D15*
X253689400Y-164426900D03*
X252379400Y-165886900D03*
X247338400Y-166966900D03*
X247378400Y-166386900D03*
D13*
X214052400Y-161886900D03*
D14*
X208972400Y-161886900D03*
D15*
X217970400Y-164426900D03*
X216660400Y-165886900D03*
X211619400Y-166966900D03*
X211659400Y-166386900D03*
D13*
X321208400Y-85686900D03*
D14*
X326288400Y-85686900D03*
X316128400Y-85686900D03*
D15*
X325126400Y-88226900D03*
X323816400Y-89686900D03*
X318775400Y-90766900D03*
X318815400Y-90186900D03*
D13*
X306920400Y-123786900D03*
D14*
X312000400Y-123786900D03*
X301840400Y-123786900D03*
D15*
X310838400Y-126326900D03*
X309528400Y-127786900D03*
X304487400Y-128866900D03*
X304527400Y-128286900D03*
D13*
X328352400Y-114261900D03*
D14*
X328352400Y-119341900D03*
D15*
X330892400Y-110343900D03*
X332352400Y-111653900D03*
X333432400Y-116694900D03*
X332852400Y-116654900D03*
D13*
X314064400Y-142836900D03*
D14*
X319144400Y-142836900D03*
X308984400Y-142836900D03*
D15*
X317982400Y-145376900D03*
X316672400Y-146836900D03*
X311631400Y-147916900D03*
X311671400Y-147336900D03*
D13*
X328352400Y-123786900D03*
D14*
X333432400Y-123786900D03*
X323272400Y-123786900D03*
D15*
X332270400Y-126326900D03*
X330960400Y-127786900D03*
X325919400Y-128866900D03*
X325959400Y-128286900D03*
D13*
X242627400Y-161886900D03*
D14*
X247707400Y-161886900D03*
X237547400Y-161886900D03*
D15*
X246545400Y-164426900D03*
X245235400Y-165886900D03*
X240194400Y-166966900D03*
X240234400Y-166386900D03*
D13*
X247389400Y-161886900D03*
D14*
X252469400Y-161886900D03*
D15*
X251307400Y-164426900D03*
D25*
X250297400Y-166186900D03*
X245156400Y-166966900D03*
X245196400Y-166386900D03*
D13*
X121183400Y-85686900D03*
D14*
X126263400Y-85686900D03*
X116103400Y-85686900D03*
D15*
X125101400Y-88226900D03*
X123791400Y-89686900D03*
X118750400Y-90766900D03*
X118790400Y-90186900D03*
D13*
X102133400Y-85686900D03*
D14*
X107213400Y-85686900D03*
X97053400Y-85686900D03*
D15*
X106051400Y-88226900D03*
X104741400Y-89686900D03*
X99700400Y-90766900D03*
X99740400Y-90186900D03*
D13*
X83083400Y-85686900D03*
D14*
X88163400Y-85686900D03*
X78003400Y-85686900D03*
D15*
X87001400Y-88226900D03*
X85691400Y-89686900D03*
X80650400Y-90766900D03*
X80690400Y-90186900D03*
D13*
X64033400Y-85686900D03*
D14*
X69113400Y-85686900D03*
X58953400Y-85686900D03*
D15*
X67951400Y-88226900D03*
X66641400Y-89686900D03*
X61600400Y-90766900D03*
X61640400Y-90186900D03*
D13*
X66414400Y-123786900D03*
D14*
X61334400Y-123786900D03*
D15*
X70332400Y-126326900D03*
X69022400Y-127786900D03*
X63981400Y-128866900D03*
X64021400Y-128286900D03*
D16*
X144936400Y-60105900D03*
X153916400Y-60105900D03*
X145296400Y-66055900D03*
X153556400Y-66055900D03*
D17*
X145826400Y-67305900D03*
D18*
X153026400Y-67305900D03*
D19*
X147026400Y-65955900D03*
X148626400Y-65955900D03*
X151826400Y-65955900D03*
X151026400Y-65955900D03*
X150226400Y-65955900D03*
X147826400Y-65955900D03*
X146626400Y-66655900D03*
X148226400Y-66655900D03*
X149026400Y-66655900D03*
X149826400Y-66655900D03*
X150626400Y-66655900D03*
X152226400Y-66655900D03*
D20*
X152176400Y-67965900D03*
X151676400Y-67965900D03*
X151176400Y-67965900D03*
X150676400Y-67965900D03*
X150176400Y-67965900D03*
X149676400Y-67965900D03*
X149176400Y-67965900D03*
X148676400Y-67965900D03*
X148176400Y-67965900D03*
X147676400Y-67965900D03*
X147176400Y-67965900D03*
X146676400Y-67965900D03*
D28*
X335337400Y-102323900D03*
X335337400Y-126199900D03*
D29*
X320097400Y-102323900D03*
X320097400Y-126199900D03*
D28*
X164077400Y-168871900D03*
X140201400Y-168871900D03*
D29*
X164077400Y-153631900D03*
X140201400Y-153631900D03*
D28*
X64001400Y-135851900D03*
X87877400Y-135851900D03*
D29*
X64001400Y-151091900D03*
X87877400Y-151091900D03*
D30*
X251993400Y-72892920D03*
X251993400Y-70794880D03*
D31*
X172300400Y-156806900D03*
D32*
X174840400Y-156806900D03*
D31*
X141344400Y-156806900D03*
D32*
X143884400Y-156806900D03*
D31*
X141503400Y-156806900D03*
D32*
X138963400Y-156806900D03*
D31*
X136582400Y-156806900D03*
D32*
X139122400Y-156806900D03*
D31*
X136741400Y-156806900D03*
D32*
X134201400Y-156806900D03*
D31*
X129438400Y-156806900D03*
D32*
X131978400Y-156806900D03*
D31*
X115151400Y-156806900D03*
D32*
X117691400Y-156806900D03*
D33*
X81400400Y-77558900D03*
X79400400Y-77558900D03*
D34*
X129997200Y-73910700D03*
X129997200Y-71910700D03*
D33*
X92116400Y-64731900D03*
X94116400Y-64731900D03*
D34*
X118643400Y-68271900D03*
X118643400Y-66271900D03*
D35*
X137122400Y-83934300D03*
X137122400Y-87434420D03*
D36*
X68045400Y-76157700D03*
X68045400Y-72457700D03*
X74245400Y-76157700D03*
X74245400Y-72457700D03*
D37*
X89926400Y-66983900D03*
X89926400Y-67633900D03*
X89926400Y-68283900D03*
X89926400Y-68933900D03*
X89926400Y-69583900D03*
X89926400Y-70233900D03*
X89926400Y-70883900D03*
X89926400Y-71533900D03*
X89926400Y-72183900D03*
X89926400Y-72833900D03*
X89926400Y-73483900D03*
X89926400Y-74133900D03*
X89926400Y-74783900D03*
X89926400Y-75433900D03*
X82336400Y-75433900D03*
X82336400Y-74783900D03*
X82336400Y-74133900D03*
X82336400Y-73483900D03*
X82336400Y-72833900D03*
X82336400Y-72183900D03*
X82336400Y-71533900D03*
X82336400Y-70883900D03*
X82336400Y-70233900D03*
X82336400Y-69583900D03*
X82336400Y-68933900D03*
X82336400Y-68283900D03*
X82336400Y-67633900D03*
X82336400Y-66983900D03*
D31*
X160553400Y-80606900D03*
D32*
X158013400Y-80606900D03*
D38*
X105241400Y-65458900D03*
X105741400Y-65458900D03*
X106241400Y-65458900D03*
X106741400Y-65458900D03*
X107241400Y-65458900D03*
X107741400Y-65458900D03*
X108241400Y-65458900D03*
X108741400Y-65458900D03*
X109241400Y-65458900D03*
X109741400Y-65458900D03*
X110241400Y-65458900D03*
X110741400Y-65458900D03*
X111241400Y-65458900D03*
X111741400Y-65458900D03*
X112241400Y-65458900D03*
X112741400Y-65458900D03*
D39*
X114741400Y-67458900D03*
X114741400Y-67958900D03*
X114741400Y-68458900D03*
X114741400Y-68958900D03*
X114741400Y-69458900D03*
X114741400Y-69958900D03*
X114741400Y-70458900D03*
X114741400Y-70958900D03*
X114741400Y-71458900D03*
X114741400Y-71958900D03*
X114741400Y-72458900D03*
X114741400Y-72958900D03*
X114741400Y-73458900D03*
X114741400Y-73958900D03*
X114741400Y-74458900D03*
X114741400Y-74958900D03*
D38*
X112741400Y-76958900D03*
X112241400Y-76958900D03*
X111741400Y-76958900D03*
X111241400Y-76958900D03*
X110741400Y-76958900D03*
X110241400Y-76958900D03*
X109741400Y-76958900D03*
X109241400Y-76958900D03*
X108741400Y-76958900D03*
X108241400Y-76958900D03*
X107741400Y-76958900D03*
X107241400Y-76958900D03*
X106741400Y-76958900D03*
X106241400Y-76958900D03*
X105741400Y-76958900D03*
X105241400Y-76958900D03*
D39*
X103241400Y-74958900D03*
X103241400Y-74458900D03*
X103241400Y-73958900D03*
X103241400Y-73458900D03*
X103241400Y-72958900D03*
X103241400Y-72458900D03*
X103241400Y-71958900D03*
X103241400Y-71458900D03*
X103241400Y-70958900D03*
X103241400Y-70458900D03*
X103241400Y-69958900D03*
X103241400Y-69458900D03*
X103241400Y-68958900D03*
X103241400Y-68458900D03*
X103241400Y-67958900D03*
X103241400Y-67458900D03*
D40*
X115811400Y-80436900D03*
X117411400Y-80436900D03*
X117411400Y-78236900D03*
X115811400Y-78236900D03*
D31*
X93878400Y-99356900D03*
D32*
X91338400Y-99356900D03*
D31*
X89116400Y-137756900D03*
D32*
X86576400Y-137756900D03*
D31*
X112928400Y-99356900D03*
D32*
X110388400Y-99356900D03*
D31*
X108165400Y-137756900D03*
D32*
X105625400Y-137756900D03*
D31*
X131978400Y-99656900D03*
D32*
X129438400Y-99656900D03*
D31*
X127215400Y-137756900D03*
D32*
X124675400Y-137756900D03*
D31*
X151028400Y-99656900D03*
D32*
X148488400Y-99656900D03*
D31*
X77209400Y-137756900D03*
D32*
X74669400Y-137756900D03*
D31*
X70066400Y-99356900D03*
D32*
X67526400Y-99356900D03*
D31*
X174840400Y-118706900D03*
D32*
X172300400Y-118706900D03*
D31*
X146266400Y-137756900D03*
D32*
X143726400Y-137756900D03*
D31*
X155790400Y-118706900D03*
D32*
X153250400Y-118706900D03*
D31*
X103403400Y-80606900D03*
D32*
X100863400Y-80606900D03*
D31*
X136741400Y-118706900D03*
D32*
X134201400Y-118706900D03*
D31*
X117691400Y-118706900D03*
D32*
X115151400Y-118706900D03*
D31*
X172459400Y-156806900D03*
D32*
X169919400Y-156806900D03*
D31*
X141503400Y-80606900D03*
D32*
X138963400Y-80606900D03*
D31*
X98641400Y-118706900D03*
D32*
X96101400Y-118706900D03*
D31*
X129597400Y-156806900D03*
D32*
X127057400Y-156806900D03*
D31*
X122453400Y-80606900D03*
D32*
X119913400Y-80606900D03*
D31*
X72447400Y-118706900D03*
D32*
X69907400Y-118706900D03*
D31*
X108165400Y-156806900D03*
D32*
X105625400Y-156806900D03*
D31*
X179603400Y-80606900D03*
D32*
X177063400Y-80606900D03*
D31*
X88957400Y-156806900D03*
D32*
X91497400Y-156806900D03*
D31*
X84353900Y-80606900D03*
D32*
X81813900Y-80606900D03*
D31*
X65144400Y-156806900D03*
D32*
X67684400Y-156806900D03*
D31*
X65303400Y-80606900D03*
D32*
X62763400Y-80606900D03*
D31*
X165315400Y-137756900D03*
D32*
X162775400Y-137756900D03*
D31*
X170078400Y-99656900D03*
D32*
X167538400Y-99656900D03*
D35*
X63303400Y-122034300D03*
X63303400Y-125534420D03*
X94260400Y-122034300D03*
X94260400Y-125534420D03*
X113310400Y-122034300D03*
X113310400Y-125534420D03*
X132360400Y-122034300D03*
X132360400Y-125534420D03*
X151426400Y-122034300D03*
X151426400Y-125534420D03*
X170459400Y-122034300D03*
X170459400Y-125534420D03*
X65686400Y-102984300D03*
X65686400Y-106484420D03*
X89497400Y-102914300D03*
X89497400Y-106414420D03*
X108547400Y-102984300D03*
X108547400Y-106484420D03*
X146647400Y-102984300D03*
X146647400Y-106484420D03*
X165693400Y-102984300D03*
X165693400Y-106484420D03*
X60921900Y-83934300D03*
X60921900Y-87434420D03*
X79971900Y-83934300D03*
X79971900Y-87434420D03*
X156172400Y-83934300D03*
X156172400Y-87434420D03*
X118071900Y-83934300D03*
X118071900Y-87434420D03*
X99021900Y-83934300D03*
X99021900Y-87434420D03*
X127597400Y-102984300D03*
X127597400Y-106484420D03*
X59080400Y-160007300D03*
X59080400Y-163507420D03*
X80251300Y-161163000D03*
X80251300Y-164663120D03*
X103771700Y-160324800D03*
X103771700Y-163824920D03*
X122783600Y-164927280D03*
X122783600Y-168427400D03*
X163347400Y-159753300D03*
X163347400Y-163253420D03*
X175222400Y-83934300D03*
X175222400Y-87434420D03*
X63303400Y-141084300D03*
X63303400Y-144584420D03*
X84736400Y-141084300D03*
X84736400Y-144584420D03*
X103784400Y-141084300D03*
X103784400Y-144584420D03*
X122834400Y-141084300D03*
X122834400Y-144584420D03*
X141886400Y-141084300D03*
X141886400Y-144584420D03*
X160934400Y-141084300D03*
X160934400Y-144584420D03*
D31*
X67684400Y-118706900D03*
D32*
X65144400Y-118706900D03*
D31*
X67684400Y-137756900D03*
D32*
X65144400Y-137756900D03*
D35*
X179984400Y-141084300D03*
X179984400Y-144584420D03*
D31*
X184365400Y-137756900D03*
D32*
X181825400Y-137756900D03*
D31*
X167697400Y-156806900D03*
D32*
X165157400Y-156806900D03*
D31*
X153409400Y-156806900D03*
D32*
X150869400Y-156806900D03*
D31*
X184365400Y-156806900D03*
D32*
X181825400Y-156806900D03*
D31*
X115309400Y-156806900D03*
D32*
X112769400Y-156806900D03*
D31*
X110388400Y-156806900D03*
D32*
X112928400Y-156806900D03*
D31*
X89116400Y-156806900D03*
D32*
X86576400Y-156806900D03*
D31*
X70066400Y-156806900D03*
D32*
X67526400Y-156806900D03*
D31*
X93878400Y-156806900D03*
D32*
X91338400Y-156806900D03*
D34*
X116738400Y-73637900D03*
X116738400Y-75637900D03*
X121462800Y-73377300D03*
X121462800Y-71377300D03*
X102412800Y-63985900D03*
X102412800Y-65985900D03*
D33*
X94116400Y-66763900D03*
X92116400Y-66763900D03*
X92116400Y-71335900D03*
X94116400Y-71335900D03*
X94116400Y-68795900D03*
X92116400Y-68795900D03*
X154000000Y-70878700D03*
X152000000Y-70878700D03*
X154000000Y-72872600D03*
X152000000Y-72872600D03*
D34*
X112293400Y-80495900D03*
X112293400Y-82495900D03*
D33*
X106816400Y-79336900D03*
X104816400Y-79336900D03*
D34*
X100228400Y-76685900D03*
X100228400Y-78685900D03*
X102260400Y-76685900D03*
X102260400Y-78685900D03*
D33*
X77781400Y-69811900D03*
X79781400Y-69811900D03*
X77765400Y-71589900D03*
X79765400Y-71589900D03*
D34*
X80162400Y-75764900D03*
X80162400Y-73764900D03*
D41*
X84378800Y-124625100D03*
D42*
X70637400Y-64884300D03*
X180225700Y-74002900D03*
X60401200Y-166065200D03*
X187680600Y-159372300D03*
D43*
X176708400Y-70055900D03*
X160908400Y-70055900D03*
D44*
X168808400Y-70955900D03*
X169808400Y-70955900D03*
X170808400Y-70955900D03*
X171808400Y-70955900D03*
X172808400Y-70955900D03*
X167808400Y-70955900D03*
X166808400Y-70955900D03*
X165808400Y-70955900D03*
X164808400Y-70955900D03*
D45*
X176478400Y-66055900D03*
X161138400Y-66055900D03*
D34*
X148805900Y-72653400D03*
X148805900Y-70653400D03*
X142303500Y-66030600D03*
X142303500Y-68030600D03*
D46*
X125425200Y-73420700D03*
X123125200Y-73420700D03*
X127725200Y-73420700D03*
D47*
X125425200Y-67320700D03*
D31*
X243897400Y-156806900D03*
D32*
X241357400Y-156806900D03*
D31*
X243738400Y-156806900D03*
D32*
X246278400Y-156806900D03*
D31*
X248501400Y-156806900D03*
D32*
X251041400Y-156806900D03*
D31*
X212941400Y-156806900D03*
D32*
X210401400Y-156806900D03*
D31*
X267709400Y-156806900D03*
D32*
X265169400Y-156806900D03*
D31*
X289140400Y-156806900D03*
D32*
X286600400Y-156806900D03*
D31*
X288982400Y-156806900D03*
D32*
X291522400Y-156806900D03*
D31*
X305809400Y-156806900D03*
D32*
X303269400Y-156806900D03*
D31*
X327082400Y-156806900D03*
D32*
X329622400Y-156806900D03*
D33*
X214750400Y-77558900D03*
X212750400Y-77558900D03*
D34*
X263347200Y-73910700D03*
X263347200Y-71910700D03*
D33*
X227466400Y-64731900D03*
X225466400Y-64731900D03*
D34*
X251993400Y-68271900D03*
X251993400Y-66271900D03*
D35*
X270472400Y-83934300D03*
X270472400Y-87434420D03*
D36*
X201395400Y-76157700D03*
X201395400Y-72457700D03*
X207595400Y-76157700D03*
X207595400Y-72457700D03*
D37*
X223276400Y-66983900D03*
X223276400Y-67633900D03*
X223276400Y-68283900D03*
X223276400Y-68933900D03*
X223276400Y-69583900D03*
X223276400Y-70233900D03*
X223276400Y-70883900D03*
X223276400Y-71533900D03*
X223276400Y-72183900D03*
X223276400Y-72833900D03*
X223276400Y-73483900D03*
X223276400Y-74133900D03*
X223276400Y-74783900D03*
X223276400Y-75433900D03*
X215686400Y-75433900D03*
X215686400Y-74783900D03*
X215686400Y-74133900D03*
X215686400Y-73483900D03*
X215686400Y-72833900D03*
X215686400Y-72183900D03*
X215686400Y-71533900D03*
X215686400Y-70883900D03*
X215686400Y-70233900D03*
X215686400Y-69583900D03*
X215686400Y-68933900D03*
X215686400Y-68283900D03*
X215686400Y-67633900D03*
X215686400Y-66983900D03*
D46*
X258775200Y-73420700D03*
X256475200Y-73420700D03*
X261075200Y-73420700D03*
D47*
X258775200Y-67320700D03*
D31*
X351053400Y-99656900D03*
D32*
X348513400Y-99656900D03*
D38*
X238591400Y-65458900D03*
X239091400Y-65458900D03*
X239591400Y-65458900D03*
X240091400Y-65458900D03*
X240591400Y-65458900D03*
X241091400Y-65458900D03*
X241591400Y-65458900D03*
X242091400Y-65458900D03*
X242591400Y-65458900D03*
X243091400Y-65458900D03*
X243591400Y-65458900D03*
X244091400Y-65458900D03*
X244591400Y-65458900D03*
X245091400Y-65458900D03*
X245591400Y-65458900D03*
X246091400Y-65458900D03*
D39*
X248091400Y-67458900D03*
X248091400Y-67958900D03*
X248091400Y-68458900D03*
X248091400Y-68958900D03*
X248091400Y-69458900D03*
X248091400Y-69958900D03*
X248091400Y-70458900D03*
X248091400Y-70958900D03*
X248091400Y-71458900D03*
X248091400Y-71958900D03*
X248091400Y-72458900D03*
X248091400Y-72958900D03*
X248091400Y-73458900D03*
X248091400Y-73958900D03*
X248091400Y-74458900D03*
X248091400Y-74958900D03*
D38*
X246091400Y-76958900D03*
X245591400Y-76958900D03*
X245091400Y-76958900D03*
X244591400Y-76958900D03*
X244091400Y-76958900D03*
X243591400Y-76958900D03*
X243091400Y-76958900D03*
X242591400Y-76958900D03*
X242091400Y-76958900D03*
X241591400Y-76958900D03*
X241091400Y-76958900D03*
X240591400Y-76958900D03*
X240091400Y-76958900D03*
X239591400Y-76958900D03*
X239091400Y-76958900D03*
X238591400Y-76958900D03*
D39*
X236591400Y-74958900D03*
X236591400Y-74458900D03*
X236591400Y-73958900D03*
X236591400Y-73458900D03*
X236591400Y-72958900D03*
X236591400Y-72458900D03*
X236591400Y-71958900D03*
X236591400Y-71458900D03*
X236591400Y-70958900D03*
X236591400Y-70458900D03*
X236591400Y-69958900D03*
X236591400Y-69458900D03*
X236591400Y-68958900D03*
X236591400Y-68458900D03*
X236591400Y-67958900D03*
X236591400Y-67458900D03*
D40*
X249161400Y-80436900D03*
X250761400Y-80436900D03*
X250761400Y-78236900D03*
X249161400Y-78236900D03*
D31*
X289140400Y-118706900D03*
D32*
X286600400Y-118706900D03*
D31*
X231991400Y-118706900D03*
D32*
X229451400Y-118706900D03*
D31*
X303428400Y-99656900D03*
D32*
X300888400Y-99656900D03*
D31*
X246278400Y-99656900D03*
D32*
X243738400Y-99656900D03*
D31*
X312953400Y-80606900D03*
D32*
X310413400Y-80606900D03*
D31*
X255803400Y-80606900D03*
D32*
X253263400Y-80606900D03*
D31*
X332003400Y-156806900D03*
D32*
X329463400Y-156806900D03*
D31*
X241515400Y-137756900D03*
D32*
X238975400Y-137756900D03*
D31*
X305809400Y-137756900D03*
D32*
X303269400Y-137756900D03*
D31*
X312953400Y-156806900D03*
D32*
X310413400Y-156806900D03*
D31*
X281997400Y-156806900D03*
D32*
X279457400Y-156806900D03*
D31*
X293903400Y-80606900D03*
D32*
X291363400Y-80606900D03*
D31*
X351053400Y-156806900D03*
D32*
X348513400Y-156806900D03*
D31*
X284378400Y-99656900D03*
D32*
X281838400Y-99656900D03*
D31*
X270091400Y-118706900D03*
D32*
X267551400Y-118706900D03*
D31*
X222466400Y-137756900D03*
D32*
X219926400Y-137756900D03*
D31*
X351053400Y-118706900D03*
D32*
X348513400Y-118706900D03*
D31*
X279616400Y-137756900D03*
D32*
X277076400Y-137756900D03*
D31*
X217703400Y-80606900D03*
D32*
X215163400Y-80606900D03*
D31*
X351053400Y-137756900D03*
D32*
X348513400Y-137756900D03*
D31*
X293903400Y-156806900D03*
D32*
X291363400Y-156806900D03*
D31*
X208178400Y-99656900D03*
D32*
X205638400Y-99656900D03*
D31*
X351053400Y-80606900D03*
D32*
X348513400Y-80606900D03*
D31*
X193890400Y-118706900D03*
D32*
X191350400Y-118706900D03*
D31*
X332003400Y-80606900D03*
D32*
X329463400Y-80606900D03*
D31*
X203416400Y-137756900D03*
D32*
X200876400Y-137756900D03*
D31*
X327240400Y-99656900D03*
D32*
X324700400Y-99656900D03*
D31*
X260565400Y-137756900D03*
D32*
X258025400Y-137756900D03*
D31*
X332003400Y-137756900D03*
D32*
X329463400Y-137756900D03*
D35*
X189509400Y-122161300D03*
X189509400Y-125661420D03*
X208560400Y-122034300D03*
X208560400Y-125534420D03*
X227610900Y-122034300D03*
X227610900Y-125534420D03*
X246660400Y-122034300D03*
X246660400Y-125534420D03*
X265726400Y-122034300D03*
X265726400Y-125534420D03*
X284776400Y-122034300D03*
X284776400Y-125534420D03*
X184776400Y-102984300D03*
X184776400Y-106484420D03*
X203797400Y-102914300D03*
X203797400Y-106414420D03*
X222847400Y-102984300D03*
X222847400Y-106484420D03*
X260947400Y-102984300D03*
X260947400Y-106484420D03*
X279997400Y-102984300D03*
X279997400Y-106484420D03*
X194271900Y-83934300D03*
X194271900Y-87434420D03*
X213321900Y-83934300D03*
X213321900Y-87434420D03*
X289522400Y-83934300D03*
X289522400Y-87434420D03*
X251421900Y-83934300D03*
X251421900Y-87434420D03*
X232371900Y-83934300D03*
X232371900Y-87434420D03*
X241897400Y-102984300D03*
X241897400Y-106484420D03*
X204216000Y-160108900D03*
X204216000Y-163609020D03*
X235661200Y-163233100D03*
X235661200Y-166733220D03*
X298462700Y-165798500D03*
X298462700Y-169298620D03*
D48*
X264845800Y-169468800D03*
X268345920Y-169468800D03*
D35*
X301447200Y-160464500D03*
X301447200Y-163964620D03*
X199036400Y-141084300D03*
X199036400Y-144584420D03*
X218086400Y-141084300D03*
X218086400Y-144584420D03*
X237134400Y-141084300D03*
X237134400Y-144584420D03*
X256184400Y-141084300D03*
X256184400Y-144584420D03*
X275236400Y-141084300D03*
X275236400Y-144584420D03*
X301428400Y-141084300D03*
X301428400Y-144584420D03*
X327622400Y-141084300D03*
X327622400Y-144584420D03*
D31*
X251041400Y-118706900D03*
D32*
X248501400Y-118706900D03*
D34*
X250088400Y-73637900D03*
X250088400Y-75637900D03*
X254812800Y-73377300D03*
X254812800Y-71377300D03*
X235762800Y-63985900D03*
X235762800Y-65985900D03*
D33*
X227466400Y-66763900D03*
X225466400Y-66763900D03*
X225466400Y-71335900D03*
X227466400Y-71335900D03*
X227466400Y-68795900D03*
X225466400Y-68795900D03*
X288987300Y-71983600D03*
X286987300Y-71983600D03*
X288987300Y-73799700D03*
X286987300Y-73799700D03*
D34*
X245643400Y-80495900D03*
X245643400Y-82495900D03*
D33*
X238166400Y-79336900D03*
X240166400Y-79336900D03*
D34*
X233578400Y-76685900D03*
X233578400Y-78685900D03*
X235610400Y-76685900D03*
X235610400Y-78685900D03*
D33*
X211131400Y-69811900D03*
X213131400Y-69811900D03*
X211115400Y-71589900D03*
X213115400Y-71589900D03*
D34*
X213512400Y-75764900D03*
X213512400Y-73764900D03*
D35*
X299047400Y-102984300D03*
X299047400Y-106484420D03*
X346672400Y-141084300D03*
X346672400Y-144584420D03*
X346672400Y-83934300D03*
X346672400Y-87434420D03*
X340106000Y-84150200D03*
X340106000Y-87650320D03*
X346672400Y-102984300D03*
X346672400Y-106484420D03*
X322849400Y-103111300D03*
X322849400Y-106611420D03*
X346672400Y-122034300D03*
X346672400Y-125534420D03*
X315726400Y-122034300D03*
X315726400Y-125534420D03*
X308576400Y-83934300D03*
X308576400Y-87434420D03*
X346672400Y-160134300D03*
X346672400Y-163634420D03*
X320967100Y-160782000D03*
X320967100Y-164282120D03*
D31*
X320097400Y-118706900D03*
D32*
X317557400Y-118706900D03*
D31*
X274853400Y-80606900D03*
D32*
X272313400Y-80606900D03*
D31*
X265328400Y-99656900D03*
D32*
X262788400Y-99656900D03*
D31*
X260565400Y-156806900D03*
D32*
X258025400Y-156806900D03*
D31*
X236753400Y-80606900D03*
D32*
X234213400Y-80606900D03*
D31*
X227228400Y-99656900D03*
D32*
X224688400Y-99656900D03*
D31*
X212941400Y-118706900D03*
D32*
X210401400Y-118706900D03*
D31*
X220084400Y-156806900D03*
D32*
X217544400Y-156806900D03*
D31*
X189128400Y-99656900D03*
D32*
X186588400Y-99656900D03*
D31*
X198653400Y-80606900D03*
D32*
X196113400Y-80606900D03*
D31*
X322478400Y-80606900D03*
D32*
X319938400Y-80606900D03*
D31*
X308190400Y-118706900D03*
D32*
X305650400Y-118706900D03*
D31*
X323272400Y-115531900D03*
D32*
X323272400Y-112991900D03*
D31*
X277076400Y-156806900D03*
D32*
X279616400Y-156806900D03*
D31*
X274853400Y-156806900D03*
D32*
X272313400Y-156806900D03*
D31*
X255803400Y-156806900D03*
D32*
X253263400Y-156806900D03*
D31*
X255644400Y-156806900D03*
D32*
X258184400Y-156806900D03*
D31*
X212782400Y-156806900D03*
D32*
X215322400Y-156806900D03*
D31*
X315334400Y-137756900D03*
D32*
X312794400Y-137756900D03*
D41*
X291566600Y-142938500D03*
D42*
X205727300Y-64909700D03*
X354101400Y-79895700D03*
X349656400Y-169151300D03*
X199453500Y-165557200D03*
D43*
X311558400Y-70055900D03*
X295758400Y-70055900D03*
D44*
X303658400Y-70955900D03*
X304658400Y-70955900D03*
X305658400Y-70955900D03*
X306658400Y-70955900D03*
X307658400Y-70955900D03*
X302658400Y-70955900D03*
X301658400Y-70955900D03*
X300658400Y-70955900D03*
X299658400Y-70955900D03*
D45*
X311328400Y-66055900D03*
X295988400Y-66055900D03*
D34*
X284060900Y-72755000D03*
X284060900Y-70755000D03*
X277812500Y-66183000D03*
X277812500Y-68183000D03*
D31*
X329622400Y-118706900D03*
D32*
X327082400Y-118706900D03*
D35*
X303776400Y-122034300D03*
X303776400Y-125534420D03*
D31*
X269932400Y-156806900D03*
D32*
X272472400Y-156806900D03*
D31*
X248659400Y-156806900D03*
D32*
X246119400Y-156806900D03*
D49*
X190500000Y-81100000D03*
X190500000Y-81900000D03*
X190500000Y-80300000D03*
X190500000Y-79500000D03*
X190500000Y-82700000D03*
X190500000Y-78700000D03*
X190500000Y-83500000D03*
X190500000Y-77900000D03*
X184500000Y-81100000D03*
X184500000Y-81900000D03*
X184500000Y-80300000D03*
X184500000Y-79500000D03*
X184500000Y-82700000D03*
X184500000Y-78700000D03*
X184500000Y-83500000D03*
X184500000Y-77900000D03*
D30*
X118643400Y-72892920D03*
X118643400Y-70794880D03*
D34*
X167665400Y-92548200D03*
X167665400Y-94548200D03*
X136639300Y-95053400D03*
X136639300Y-97053400D03*
X104063800Y-94732600D03*
X104063800Y-96732600D03*
X72720200Y-94338900D03*
X72720200Y-96338900D03*
D33*
X64334900Y-154533600D03*
X62334900Y-154533600D03*
D34*
X95084900Y-150866600D03*
X95084900Y-152866600D03*
X127215900Y-152822400D03*
X127215900Y-154822400D03*
X166992300Y-149609300D03*
X166992300Y-151609300D03*
X139687300Y-73605900D03*
X139687300Y-71605900D03*
X197866000Y-97570800D03*
X197866000Y-95570800D03*
X233349800Y-96999300D03*
X233349800Y-94999300D03*
X267601700Y-96389700D03*
X267601700Y-94389700D03*
X303199800Y-97875600D03*
X303199800Y-95875600D03*
X337693000Y-97177100D03*
X337693000Y-95177100D03*
X338607400Y-153425400D03*
X338607400Y-151425400D03*
X317284100Y-153260300D03*
X317284100Y-151260300D03*
X284251400Y-153069800D03*
X284251400Y-151069800D03*
X251434600Y-153400000D03*
X251434600Y-151400000D03*
X219951300Y-152599900D03*
X219951300Y-150599900D03*
X271792700Y-73415400D03*
X271792700Y-71415400D03*
D28*
X183127400Y-168871900D03*
X159251400Y-168871900D03*
D29*
X183127400Y-153631900D03*
X159251400Y-153631900D03*
D28*
X178365400Y-168871900D03*
X154489400Y-168871900D03*
D29*
X178365400Y-153631900D03*
X154489400Y-153631900D03*
D28*
X185508400Y-168871900D03*
X161632400Y-168871900D03*
D29*
X185508400Y-153631900D03*
X161632400Y-153631900D03*
D28*
X330765400Y-130771900D03*
X306889400Y-130771900D03*
D29*
X330765400Y-115531900D03*
X306889400Y-115531900D03*
D28*
X333146400Y-92671900D03*
X309270400Y-92671900D03*
D29*
X333146400Y-77431900D03*
X309270400Y-77431900D03*
D28*
X302126400Y-135851900D03*
X326002400Y-135851900D03*
D29*
X302126400Y-151091900D03*
X326002400Y-151091900D03*
D28*
X225990400Y-168871900D03*
X202114400Y-168871900D03*
D29*
X225990400Y-153631900D03*
X202114400Y-153631900D03*
D28*
X223609400Y-168871900D03*
X199733400Y-168871900D03*
D29*
X223609400Y-153631900D03*
X199733400Y-153631900D03*
D28*
X230752400Y-168871900D03*
X206876400Y-168871900D03*
D29*
X230752400Y-153631900D03*
X206876400Y-153631900D03*
D13*
X280727400Y-161886900D03*
D14*
X285807400Y-161886900D03*
X275647400Y-161886900D03*
D25*
X284445400Y-164226900D03*
X283135400Y-165686900D03*
D15*
X278294400Y-166966900D03*
X278334400Y-166386900D03*
D13*
X290252400Y-161886900D03*
D14*
X295332400Y-161886900D03*
X285172400Y-161886900D03*
D25*
X293870400Y-164126900D03*
D15*
X292860400Y-165886900D03*
D25*
X287619400Y-166966900D03*
X287659400Y-166386900D03*
D22*
X247738900Y-133959600D03*
X247738900Y-135229600D03*
X246468900Y-133959600D03*
X246468900Y-135229600D03*
X245198900Y-135229600D03*
X245198900Y-133959600D03*
X249008900Y-133959600D03*
X249008900Y-135229600D03*
X250278900Y-133959600D03*
X250278900Y-135229600D03*
D23*
X251548900Y-134594600D03*
X243928900Y-133578600D03*
X243928900Y-135610600D03*
D24*
X251548900Y-132054600D03*
X245833900Y-132054600D03*
X251548900Y-137134600D03*
X245833900Y-137134600D03*
D50*
X266696200Y-73276500D03*
X266696200Y-72326500D03*
X266696200Y-71376500D03*
D51*
X269396200Y-71376500D03*
X269396200Y-73276500D03*
D50*
X134184400Y-73479700D03*
X134184400Y-72529700D03*
X134184400Y-71579700D03*
D51*
X136884400Y-71579700D03*
X136884400Y-73479700D03*
D21*
X224180400Y-114515900D03*
X226720400Y-114515900D03*
X229260400Y-114515900D03*
X231800400Y-114515900D03*
X234340400Y-114515900D03*
X236880400Y-114515900D03*
X239420400Y-114515900D03*
X241960400Y-114515900D03*
X244500400Y-114515900D03*
X247040400Y-114515900D03*
X249580400Y-114515900D03*
X252120400Y-114515900D03*
X254660400Y-114515900D03*
X257200400Y-114515900D03*
X259740400Y-114515900D03*
D33*
X114697000Y-65595500D03*
X116697000Y-65595500D03*
X248059700Y-65455800D03*
X250059700Y-65455800D03*
D34*
X144551400Y-71561200D03*
X144551400Y-69561200D03*
X279577800Y-72412100D03*
X279577800Y-70412100D03*
D52*
X155613100Y-62966600D03*
X151442420Y-62966600D03*
X290591240Y-62534800D03*
X286420560Y-62534800D03*
D53*
X290758800Y-71716900D03*
X291708800Y-71716900D03*
X292658800Y-71716900D03*
X292658800Y-74116900D03*
X291708800Y-74116900D03*
X290758800Y-74116900D03*
X155920400Y-71952000D03*
X156870400Y-71952000D03*
X157820400Y-71952000D03*
X157820400Y-74352000D03*
X156870400Y-74352000D03*
X155920400Y-74352000D03*
D54*
X337000000Y-71000000D03*
D55*
X339540000Y-71000000D03*
D54*
X330000000Y-71000000D03*
D55*
X332540000Y-71000000D03*
D54*
X323000000Y-71000000D03*
D55*
X325540000Y-71000000D03*
D56*
X211423000Y-154100000D03*
X216577000Y-154100000D03*
X216577000Y-150900000D03*
X211423000Y-150900000D03*
X243923000Y-154100000D03*
X249077000Y-154100000D03*
X249077000Y-150900000D03*
X243923000Y-150900000D03*
D57*
X281600000Y-154577000D03*
X281600000Y-149423000D03*
X278400000Y-149423000D03*
X278400000Y-154577000D03*
D56*
X308923000Y-154100000D03*
X314077000Y-154100000D03*
X314077000Y-150900000D03*
X308923000Y-150900000D03*
D57*
X344600000Y-155077000D03*
X344600000Y-149923000D03*
X341400000Y-149923000D03*
X341400000Y-155077000D03*
D56*
X345577000Y-94400000D03*
X340423000Y-94400000D03*
X340423000Y-97600000D03*
X345577000Y-97600000D03*
D57*
X307900000Y-96423000D03*
X307900000Y-101577000D03*
X311100000Y-101577000D03*
X311100000Y-96423000D03*
D56*
X275577000Y-94400000D03*
X270423000Y-94400000D03*
X270423000Y-97600000D03*
X275577000Y-97600000D03*
D57*
X236400000Y-93423000D03*
X236400000Y-98577000D03*
X239600000Y-98577000D03*
X239600000Y-93423000D03*
D56*
X205577000Y-94400000D03*
X200423000Y-94400000D03*
X200423000Y-97600000D03*
X205577000Y-97600000D03*
X128423000Y-97600000D03*
X133577000Y-97600000D03*
X133577000Y-94400000D03*
X128423000Y-94400000D03*
D57*
X100600000Y-98577000D03*
X100600000Y-93423000D03*
X97400000Y-93423000D03*
X97400000Y-98577000D03*
D56*
X64423000Y-97600000D03*
X69577000Y-97600000D03*
X69577000Y-94400000D03*
X64423000Y-94400000D03*
X72577000Y-150400000D03*
X67423000Y-150400000D03*
X67423000Y-153600000D03*
X72577000Y-153600000D03*
D57*
X98400000Y-149423000D03*
X98400000Y-154577000D03*
X101600000Y-154577000D03*
X101600000Y-149423000D03*
D56*
X135577000Y-150400000D03*
X130423000Y-150400000D03*
X130423000Y-153600000D03*
X135577000Y-153600000D03*
D57*
X169400000Y-148423000D03*
X169400000Y-153577000D03*
X172600000Y-153577000D03*
X172600000Y-148423000D03*
X164600000Y-98577000D03*
X164600000Y-93423000D03*
X161400000Y-93423000D03*
X161400000Y-98577000D03*
M02*
