M48
;DRILL file {KiCad 4.0.1-stable} date 2/25/2016 3:38:46 PM
;FORMAT={-:-/ absolute / metric / decimal}
FMAT,2
METRIC,TZ
T1C0.305
T2C0.400
T3C0.500
T4C0.600
T5C0.800
T6C1.000
T7C1.001
T8C1.400
T9C1.500
%
G90
G05
M71
T1
X58.306Y-139.433
X58.655Y-121.183
X58.979Y-82.207
X59.563Y-139.624
X59.721Y-128.918
X60.592Y-114.236
X61.862Y-139.916
X62.992Y-131.407
X66.637Y-96.279
X66.675Y-120.231
X70.002Y-75.019
X71.12Y-96.799
X74.27Y-98.374
X74.346Y-94.45
X75.844Y-77.94
X76.352Y-72.581
X76.733Y-76.67
X79.146Y-118.961
X80.086Y-72.809
X80.416Y-66.789
X80.789Y-78.998
X81.036Y-70.234
X81.813Y-140.043
X81.813Y-140.043
X82.829Y-159.22
X84.125Y-71.387
X84.353Y-69.05
X84.374Y-72.874
X84.861Y-70.447
X85.001Y-72.441
X85.496Y-78.956
X86.258Y-94.069
X90.957Y-79.083
X91.973Y-73.495
X91.973Y-79.591
X92.481Y-87.846
X92.989Y-65.748
X93.094Y-79.082
X94.118Y-79.638
X94.513Y-78.702
X94.513Y-83.782
X95.275Y-78.067
X95.275Y-85.433
X95.364Y-68.123
X95.91Y-79.21
X96.596Y-65.926
X96.647Y-78.803
X96.749Y-67.627
X97.104Y-78.181
X98.196Y-76.924
X98.958Y-77.432
X99.023Y-65.813
X99.466Y-80.073
X99.708Y-102.21
X99.72Y-119.482
X101.106Y-102.743
X101.371Y-104.102
X101.498Y-74.155
X101.549Y-74.968
X101.868Y-102.743
X102.895Y-121.082
X104.432Y-92.558
X105.067Y-91.999
X105.093Y-67.386
X105.182Y-69.904
X105.558Y-72.96
X105.651Y-67.945
X105.689Y-73.711
X105.741Y-69.346
X105.842Y-98.819
X105.943Y-75.451
X106.743Y-63.589
X107.251Y-74.219
X107.848Y-79.591
X107.852Y-74.688
X108.61Y-80.48
X108.735Y-74.33
X109.143Y-88.989
X109.186Y-78.769
X109.245Y-81.115
X109.449Y-151.194
X109.932Y-88.989
X110.071Y-79.451
X110.562Y-80.034
X112.954Y-117.828
X113.284Y-93.193
X113.322Y-72.238
X113.535Y-85.179
X113.535Y-85.969
X115.392Y-93.751
X116.446Y-72.568
X116.586Y-95.999
X117.018Y-70.7
X117.018Y-71.489
X117.958Y-96.088
X118.986Y-74.917
X120.078Y-78.575
X120.929Y-74.638
X120.993Y-118.275
X123.317Y-67.132
X130.569Y-77.063
X131.127Y-76.505
X132.347Y-72.263
X134.201Y-118.707
X136.449Y-78.575
X137.668Y-135.979
X137.668Y-147.218
X138.074Y-95.212
X138.481Y-116.053
X138.989Y-97.091
X139.205Y-112.484
X139.763Y-99.035
X140.208Y-65.938
X141.326Y-109.144
X141.884Y-108.585
X142.901Y-83.896
X143.459Y-83.338
X144.45Y-110.833
X144.551Y-71.561
X144.97Y-169.774
X145.301Y-75.121
X146.19Y-78.905
X146.861Y-69.346
X147.053Y-72.466
X147.574Y-158.687
X147.625Y-69.558
X147.93Y-117.27
X149.276Y-114.694
X150.314Y-69.68
X150.872Y-70.239
X151.442Y-62.967
X153.314Y-74.587
X154.711Y-149.555
X155.613Y-62.967
X156.083Y-117.018
X156.87Y-71.952
X156.87Y-74.352
X157.607Y-67.793
X158.216Y-101.295
X159.004Y-97.244
X163.093Y-94.666
X163.69Y-149.466
X164.503Y-73.466
X166.027Y-93.129
X167.45Y-129.629
X171.818Y-72.466
X172.403Y-89.611
X183.921Y-106.845
X189.509Y-118.199
X191.618Y-98.552
X191.757Y-101.651
X192.557Y-127.597
X194.119Y-109.461
X195.478Y-99.53
X197.843Y-73.791
X198.145Y-74.892
X199.288Y-77.94
X200.508Y-77.851
X202.006Y-139.611
X202.324Y-111.658
X203.352Y-75.019
X203.657Y-97.942
X205.003Y-77.686
X209.702Y-72.581
X210.083Y-76.67
X211.353Y-115.278
X213.436Y-72.809
X214.139Y-78.998
X214.386Y-70.234
X214.401Y-107.785
X216.052Y-117.691
X216.179Y-97.307
X216.179Y-159.482
X217.475Y-71.387
X217.703Y-69.05
X217.767Y-72.784
X218.211Y-70.447
X218.275Y-72.123
X218.846Y-78.956
X219.608Y-140.424
X220.142Y-93.129
X221.259Y-68.415
X222.098Y-93.269
X224.307Y-79.083
X225.323Y-73.495
X225.323Y-79.591
X225.428Y-96.482
X225.577Y-80.785
X225.831Y-87.846
X226.339Y-65.748
X226.444Y-79.082
X227.419Y-110.82
X227.468Y-79.638
X227.736Y-82.893
X227.863Y-78.702
X228.625Y-78.067
X228.625Y-85.433
X228.752Y-103.34
X228.755Y-99.809
X228.879Y-66.637
X229.26Y-79.21
X229.514Y-67.78
X229.946Y-65.926
X230.218Y-78.412
X230.888Y-78.94
X231.559Y-76.391
X232.296Y-76.733
X232.373Y-65.813
X232.613Y-135.014
X232.816Y-80.073
X234.34Y-102.21
X235.054Y-74.727
X235.181Y-75.526
X235.255Y-108.095
X235.623Y-108.852
X236.83Y-135.903
X237.719Y-121.056
X238.319Y-101.674
X238.319Y-102.464
X238.328Y-67.005
X238.506Y-68.949
X238.887Y-67.564
X238.963Y-73.088
X239.065Y-69.507
X239.141Y-73.927
X239.319Y-75.527
X239.852Y-63.83
X241.046Y-74.302
X241.198Y-79.591
X241.478Y-74.93
X241.935Y-85.534
X241.96Y-80.48
X242.265Y-131.686
X242.536Y-78.769
X242.557Y-97.041
X242.57Y-75.209
X242.595Y-81.115
X243.066Y-130.277
X243.134Y-78.297
X243.624Y-130.835
X243.751Y-87.896
X243.751Y-88.685
X243.865Y-78.575
X244.361Y-94.056
X244.373Y-80.084
X244.907Y-79.464
X246.418Y-72.276
X246.799Y-94.145
X247.127Y-84.621
X247.685Y-85.18
X247.701Y-136.131
X247.701Y-131.762
X249.123Y-136.157
X249.39Y-89.256
X249.428Y-83.871
X249.623Y-92.757
X249.885Y-72.581
X249.978Y-69.953
X250.469Y-93.561
X250.536Y-70.511
X251.358Y-94.259
X251.548Y-104.42
X252.337Y-104.42
X252.565Y-75.667
X252.806Y-121.539
X253.009Y-93.942
X254.279Y-74.638
X255.537Y-98.933
X256.032Y-66.319
X256.032Y-126.975
X258.766Y-102.567
X258.788Y-100.71
X259.325Y-103.125
X259.346Y-101.268
X263.614Y-76.098
X264.172Y-75.54
X264.655Y-93.904
X265.074Y-72.657
X268.757Y-91.402
X269.265Y-99.657
X273.431Y-73.635
X274.218Y-110.566
X274.218Y-117.437
X275.996Y-66.142
X276.758Y-121.907
X278.028Y-98.768
X278.854Y-81.216
X279.578Y-72.412
X279.921Y-75.209
X279.933Y-95.479
X280.67Y-76.987
X282.296Y-69.717
X282.435Y-72.936
X282.854Y-69.159
X286.233Y-69.901
X286.421Y-62.535
X286.791Y-70.459
X288.188Y-99.657
X290.591Y-62.535
X291.709Y-71.717
X291.709Y-74.117
X292.938Y-68.796
X306.654Y-72.428
X308.635Y-120.421
X311.531Y-139.421
X336.106Y-149.923
X336.664Y-151.32
X340.627Y-99.898
X341.719Y-99.416
X342.9Y-147.193
X343.256Y-99.847
T2
X146.626Y-66.656
X147.026Y-65.956
X147.826Y-65.956
X148.226Y-66.656
X148.626Y-65.956
X149.026Y-66.656
X149.826Y-66.656
X150.226Y-65.956
X150.626Y-66.656
X151.026Y-65.956
X151.826Y-65.956
X152.226Y-66.656
X281.476Y-66.824
X281.876Y-66.124
X282.676Y-66.124
X283.076Y-66.824
X283.476Y-66.124
X283.876Y-66.824
X284.676Y-66.824
X285.076Y-66.124
X285.476Y-66.824
X285.876Y-66.124
X286.676Y-66.124
X287.076Y-66.824
T5
X62.763Y-80.607
X65.144Y-118.707
X65.144Y-137.757
X65.144Y-156.807
X65.303Y-80.607
X67.526Y-99.357
X67.526Y-156.807
X67.684Y-118.707
X67.684Y-137.757
X67.684Y-156.807
X69.907Y-118.707
X70.066Y-99.357
X70.066Y-156.807
X72.447Y-118.707
X74.669Y-137.757
X77.209Y-137.757
X81.814Y-80.607
X84.354Y-80.607
X86.576Y-137.757
X86.576Y-156.807
X88.957Y-156.807
X89.116Y-137.757
X89.116Y-156.807
X91.338Y-99.357
X91.338Y-156.807
X91.497Y-156.807
X93.878Y-99.357
X93.878Y-156.807
X96.101Y-118.707
X98.641Y-118.707
X100.863Y-80.607
X103.403Y-80.607
X105.625Y-137.757
X105.625Y-156.807
X108.165Y-137.757
X108.165Y-156.807
X110.388Y-99.357
X110.388Y-156.807
X112.769Y-156.807
X112.928Y-99.357
X112.928Y-156.807
X115.151Y-118.707
X115.151Y-156.807
X115.309Y-156.807
X117.691Y-118.707
X117.691Y-156.807
X119.913Y-80.607
X122.453Y-80.607
X124.675Y-137.757
X127.057Y-156.807
X127.215Y-137.757
X129.438Y-99.657
X129.438Y-156.807
X129.597Y-156.807
X131.978Y-99.657
X131.978Y-156.807
X134.201Y-118.707
X134.201Y-156.807
X136.582Y-156.807
X136.741Y-118.707
X136.741Y-156.807
X138.963Y-80.607
X138.963Y-156.807
X139.122Y-156.807
X141.344Y-156.807
X141.503Y-80.607
X141.503Y-156.807
X143.726Y-137.757
X143.884Y-156.807
X146.266Y-137.757
X148.488Y-99.657
X150.869Y-156.807
X151.028Y-99.657
X153.25Y-118.707
X153.409Y-156.807
X155.79Y-118.707
X158.013Y-80.607
X160.553Y-80.607
X162.775Y-137.757
X165.157Y-156.807
X165.315Y-137.757
X167.538Y-99.657
X167.697Y-156.807
X169.919Y-156.807
X170.078Y-99.657
X172.3Y-118.707
X172.3Y-156.807
X172.459Y-156.807
X174.84Y-118.707
X174.84Y-156.807
X177.063Y-80.607
X179.603Y-80.607
X181.825Y-137.757
X181.825Y-156.807
X184.365Y-137.757
X184.365Y-156.807
X186.588Y-99.657
X189.128Y-99.657
X191.35Y-118.707
X193.89Y-118.707
X196.113Y-80.607
X198.653Y-80.607
X200.876Y-137.757
X203.416Y-137.757
X205.638Y-99.657
X208.178Y-99.657
X210.401Y-118.707
X210.401Y-156.807
X212.782Y-156.807
X212.941Y-118.707
X212.941Y-156.807
X215.163Y-80.607
X215.322Y-156.807
X217.544Y-156.807
X217.703Y-80.607
X219.926Y-137.757
X220.084Y-156.807
X222.466Y-137.757
X224.688Y-99.657
X227.228Y-99.657
X229.451Y-118.707
X231.991Y-118.707
X234.213Y-80.607
X236.753Y-80.607
X238.975Y-137.757
X241.357Y-156.807
X241.515Y-137.757
X243.738Y-99.657
X243.738Y-156.807
X243.897Y-156.807
X246.119Y-156.807
X246.278Y-99.657
X246.278Y-156.807
X248.501Y-118.707
X248.501Y-156.807
X248.659Y-156.807
X251.041Y-118.707
X251.041Y-156.807
X253.263Y-80.607
X253.263Y-156.807
X255.644Y-156.807
X255.803Y-80.607
X255.803Y-156.807
X258.025Y-137.757
X258.025Y-156.807
X258.184Y-156.807
X260.565Y-137.757
X260.565Y-156.807
X262.788Y-99.657
X265.169Y-156.807
X265.328Y-99.657
X267.551Y-118.707
X267.709Y-156.807
X269.932Y-156.807
X270.091Y-118.707
X272.313Y-80.607
X272.313Y-156.807
X272.472Y-156.807
X274.853Y-80.607
X274.853Y-156.807
X277.076Y-137.757
X277.076Y-156.807
X279.457Y-156.807
X279.616Y-137.757
X279.616Y-156.807
X281.838Y-99.657
X281.997Y-156.807
X284.378Y-99.657
X286.6Y-118.707
X286.6Y-156.807
X288.982Y-156.807
X289.14Y-118.707
X289.14Y-156.807
X291.363Y-80.607
X291.363Y-156.807
X291.522Y-156.807
X293.903Y-80.607
X293.903Y-156.807
X300.888Y-99.657
X303.269Y-137.757
X303.269Y-156.807
X303.428Y-99.657
X305.65Y-118.707
X305.809Y-137.757
X305.809Y-156.807
X308.19Y-118.707
X310.413Y-80.607
X310.413Y-156.807
X312.794Y-137.757
X312.953Y-80.607
X312.953Y-156.807
X315.334Y-137.757
X317.557Y-118.707
X319.938Y-80.607
X320.097Y-118.707
X322.478Y-80.607
X323.272Y-112.992
X323.272Y-115.532
X324.7Y-99.657
X327.082Y-118.707
X327.082Y-156.807
X327.24Y-99.657
X329.463Y-80.607
X329.463Y-137.757
X329.463Y-156.807
X329.622Y-118.707
X329.622Y-156.807
X332.003Y-80.607
X332.003Y-137.757
X332.003Y-156.807
X348.513Y-80.607
X348.513Y-99.657
X348.513Y-118.707
X348.513Y-137.757
X348.513Y-156.807
X351.053Y-80.607
X351.053Y-99.657
X351.053Y-118.707
X351.053Y-137.757
X351.053Y-156.807
T6
X90.83Y-114.516
X93.37Y-114.516
X95.91Y-114.516
X98.45Y-114.516
X100.99Y-114.516
X103.53Y-114.516
X106.07Y-114.516
X108.61Y-114.516
X111.15Y-114.516
X113.69Y-114.516
X116.23Y-114.516
X118.77Y-114.516
X121.31Y-114.516
X123.85Y-114.516
X126.39Y-114.516
X224.18Y-114.516
X226.72Y-114.516
X229.26Y-114.516
X231.8Y-114.516
X234.34Y-114.516
X236.88Y-114.516
X239.42Y-114.516
X241.96Y-114.516
X244.5Y-114.516
X247.04Y-114.516
X249.58Y-114.516
X252.12Y-114.516
X254.66Y-114.516
X257.2Y-114.516
X259.74Y-114.516
T7
X323.Y-71.
X325.54Y-71.
X330.Y-71.
X332.54Y-71.
X337.Y-71.
X339.54Y-71.
T8
X260.732Y-164.327
X261.953Y-165.887
T9
X61.6Y-90.767
X61.64Y-90.187
X63.981Y-128.867
X63.981Y-147.917
X63.981Y-166.967
X64.021Y-128.287
X64.021Y-147.337
X64.021Y-166.387
X66.363Y-109.817
X66.363Y-166.967
X66.403Y-109.237
X66.403Y-166.387
X66.641Y-89.687
X67.951Y-88.227
X68.744Y-128.867
X68.784Y-128.287
X69.022Y-127.787
X69.022Y-146.837
X69.022Y-165.887
X70.332Y-126.327
X70.332Y-145.377
X70.332Y-164.427
X71.404Y-108.737
X71.404Y-165.887
X72.714Y-107.277
X72.714Y-164.427
X73.506Y-147.917
X73.546Y-147.337
X73.785Y-127.787
X75.095Y-126.327
X78.547Y-146.837
X79.857Y-145.377
X80.65Y-90.767
X80.69Y-90.187
X85.413Y-147.917
X85.413Y-166.967
X85.453Y-147.337
X85.453Y-166.387
X85.691Y-89.687
X87.001Y-88.227
X87.794Y-166.967
X87.834Y-166.387
X90.175Y-109.747
X90.175Y-166.967
X90.215Y-109.167
X90.215Y-166.387
X90.454Y-146.837
X90.454Y-165.887
X91.764Y-145.377
X91.764Y-164.427
X92.835Y-165.887
X94.045Y-164.327
X94.938Y-128.867
X94.978Y-128.287
X95.216Y-108.667
X95.316Y-165.987
X96.526Y-107.207
X96.526Y-164.427
X99.7Y-90.767
X99.74Y-90.187
X99.979Y-127.787
X101.289Y-126.327
X104.462Y-147.917
X104.462Y-166.967
X104.502Y-147.337
X104.502Y-166.387
X104.741Y-89.687
X106.051Y-88.227
X109.225Y-109.817
X109.225Y-166.967
X109.265Y-109.237
X109.265Y-166.387
X109.503Y-146.837
X109.503Y-165.887
X110.813Y-145.377
X110.813Y-164.427
X111.606Y-166.967
X111.646Y-166.387
X113.988Y-128.867
X113.988Y-166.967
X114.028Y-128.287
X114.028Y-166.387
X114.266Y-108.737
X114.266Y-165.887
X115.576Y-107.277
X115.576Y-164.427
X116.647Y-165.887
X117.857Y-164.327
X118.75Y-90.767
X118.79Y-90.187
X119.029Y-127.787
X119.129Y-165.987
X120.339Y-126.327
X120.339Y-164.427
X123.512Y-147.917
X123.552Y-147.337
X123.791Y-89.687
X125.101Y-88.227
X125.894Y-166.967
X125.934Y-166.387
X128.275Y-109.817
X128.275Y-166.967
X128.315Y-109.237
X128.315Y-166.387
X128.553Y-146.837
X129.863Y-145.377
X130.935Y-165.887
X132.245Y-164.427
X133.038Y-128.867
X133.038Y-166.967
X133.078Y-128.287
X133.078Y-166.387
X133.316Y-108.737
X133.316Y-165.887
X134.626Y-107.277
X134.626Y-164.427
X135.419Y-166.967
X135.459Y-166.387
X137.8Y-90.767
X137.8Y-166.967
X137.84Y-90.187
X137.84Y-166.387
X138.079Y-127.787
X138.079Y-165.887
X139.389Y-126.327
X139.389Y-164.427
X140.181Y-166.967
X140.221Y-166.387
X140.46Y-165.887
X141.67Y-164.327
X142.563Y-147.917
X142.603Y-147.337
X142.841Y-89.687
X142.941Y-165.987
X144.151Y-88.227
X144.151Y-164.427
X145.222Y-165.887
X146.532Y-164.427
X147.325Y-109.817
X147.365Y-109.237
X147.604Y-146.837
X148.914Y-145.377
X149.706Y-166.967
X149.746Y-166.387
X152.087Y-128.867
X152.127Y-128.287
X152.366Y-108.737
X153.676Y-107.277
X154.747Y-165.887
X156.057Y-164.427
X156.85Y-90.767
X156.89Y-90.187
X157.128Y-127.787
X158.438Y-126.327
X161.612Y-147.917
X161.652Y-147.337
X161.891Y-89.687
X163.201Y-88.227
X163.994Y-166.967
X164.034Y-166.387
X166.375Y-109.817
X166.415Y-109.237
X166.653Y-146.837
X167.963Y-145.377
X168.756Y-166.967
X168.796Y-166.387
X169.035Y-165.887
X170.345Y-164.427
X171.137Y-128.867
X171.137Y-166.967
X171.177Y-128.287
X171.177Y-166.387
X171.416Y-108.737
X172.726Y-107.277
X173.797Y-165.887
X175.107Y-164.427
X175.9Y-90.767
X175.94Y-90.187
X176.178Y-127.787
X176.178Y-165.887
X177.488Y-126.327
X177.488Y-164.427
X180.662Y-147.917
X180.662Y-166.967
X180.702Y-147.337
X180.702Y-166.387
X180.941Y-89.687
X182.251Y-88.227
X185.425Y-109.817
X185.465Y-109.237
X185.703Y-146.837
X185.703Y-165.887
X187.013Y-145.377
X187.013Y-164.427
X190.187Y-128.867
X190.227Y-128.287
X190.466Y-108.737
X191.776Y-107.277
X194.95Y-90.767
X194.99Y-90.187
X195.228Y-127.787
X196.538Y-126.327
X199.713Y-147.917
X199.753Y-147.337
X199.991Y-89.687
X201.301Y-88.227
X204.475Y-109.747
X204.515Y-109.167
X204.754Y-146.837
X206.064Y-145.377
X209.238Y-128.867
X209.238Y-166.967
X209.278Y-128.287
X209.278Y-166.387
X209.516Y-108.667
X210.826Y-107.207
X211.619Y-166.967
X211.659Y-166.387
X214.Y-90.767
X214.04Y-90.187
X214.279Y-127.787
X214.279Y-165.887
X215.589Y-126.327
X215.589Y-164.427
X216.381Y-166.967
X216.421Y-166.387
X216.66Y-165.887
X217.97Y-164.427
X218.763Y-147.917
X218.803Y-147.337
X219.041Y-89.687
X220.351Y-88.227
X221.422Y-165.887
X222.732Y-164.427
X223.525Y-109.817
X223.565Y-109.237
X223.804Y-146.837
X225.114Y-145.377
X228.288Y-128.867
X228.328Y-128.287
X228.566Y-108.737
X229.876Y-107.277
X233.05Y-90.767
X233.09Y-90.187
X233.329Y-127.787
X234.639Y-126.327
X237.812Y-147.917
X237.852Y-147.337
X238.091Y-89.687
X239.401Y-88.227
X240.194Y-166.967
X240.234Y-166.387
X242.575Y-109.817
X242.575Y-166.967
X242.615Y-109.237
X242.615Y-166.387
X242.853Y-146.837
X244.163Y-145.377
X244.956Y-166.967
X244.996Y-166.387
X245.235Y-165.887
X246.545Y-164.427
X247.338Y-128.867
X247.338Y-166.967
X247.378Y-128.287
X247.378Y-166.387
X247.616Y-108.737
X247.616Y-165.887
X248.826Y-164.327
X248.926Y-107.277
X250.097Y-165.987
X251.307Y-164.427
X252.1Y-90.767
X252.1Y-166.967
X252.14Y-90.187
X252.14Y-166.387
X252.379Y-127.787
X252.379Y-165.887
X253.689Y-126.327
X253.689Y-164.427
X254.481Y-166.967
X254.521Y-166.387
X256.862Y-147.917
X256.862Y-166.967
X256.902Y-147.337
X256.902Y-166.387
X257.141Y-89.687
X257.141Y-165.887
X258.451Y-88.227
X258.451Y-164.427
X259.522Y-165.887
X261.625Y-109.817
X261.665Y-109.237
X261.903Y-146.837
X263.113Y-164.327
X263.213Y-145.377
X264.006Y-166.967
X264.046Y-166.387
X266.388Y-128.867
X266.428Y-128.287
X266.666Y-108.737
X267.976Y-107.277
X268.769Y-166.967
X268.809Y-166.387
X269.047Y-165.887
X270.357Y-164.427
X271.15Y-90.767
X271.15Y-166.967
X271.19Y-90.187
X271.19Y-166.387
X271.429Y-127.787
X272.739Y-126.327
X273.81Y-165.887
X275.12Y-164.427
X275.913Y-147.917
X275.913Y-166.967
X275.953Y-147.337
X275.953Y-166.387
X276.191Y-89.687
X276.191Y-165.887
X277.501Y-88.227
X277.501Y-164.427
X278.294Y-166.967
X278.334Y-166.387
X280.675Y-109.817
X280.715Y-109.237
X280.954Y-146.837
X280.954Y-165.887
X282.264Y-145.377
X282.264Y-164.427
X283.335Y-165.887
X284.645Y-164.427
X285.437Y-128.867
X285.437Y-166.967
X285.477Y-128.287
X285.477Y-166.387
X285.716Y-108.737
X287.026Y-107.277
X287.819Y-166.967
X287.859Y-166.387
X290.2Y-90.767
X290.2Y-166.967
X290.24Y-90.187
X290.24Y-166.387
X290.478Y-127.787
X290.478Y-165.887
X291.788Y-126.327
X291.788Y-164.427
X292.86Y-165.887
X294.07Y-164.327
X295.241Y-89.687
X295.341Y-165.987
X296.551Y-88.227
X296.551Y-164.427
X299.725Y-109.817
X299.765Y-109.237
X302.106Y-147.917
X302.106Y-166.967
X302.146Y-147.337
X302.146Y-166.387
X304.487Y-128.867
X304.527Y-128.287
X304.766Y-108.737
X306.076Y-107.277
X307.147Y-146.837
X307.147Y-165.887
X308.457Y-145.377
X308.457Y-164.427
X309.25Y-90.767
X309.25Y-166.967
X309.29Y-90.187
X309.29Y-166.387
X309.528Y-127.787
X310.838Y-126.327
X311.631Y-147.917
X311.671Y-147.337
X314.291Y-89.687
X314.291Y-165.887
X315.601Y-88.227
X315.601Y-164.427
X316.394Y-128.867
X316.434Y-128.287
X316.672Y-146.837
X317.982Y-145.377
X318.775Y-90.767
X318.815Y-90.187
X321.435Y-127.787
X322.745Y-126.327
X323.537Y-109.944
X323.577Y-109.364
X323.816Y-89.687
X325.126Y-88.227
X325.919Y-128.867
X325.919Y-166.967
X325.959Y-128.287
X325.959Y-166.387
X328.3Y-90.767
X328.3Y-147.917
X328.3Y-166.967
X328.34Y-90.187
X328.34Y-147.337
X328.34Y-166.387
X328.578Y-108.864
X329.888Y-107.404
X330.892Y-110.344
X330.96Y-127.787
X330.96Y-165.887
X332.27Y-126.327
X332.27Y-164.427
X332.352Y-111.654
X332.852Y-116.655
X333.341Y-89.687
X333.341Y-146.837
X333.341Y-165.887
X333.432Y-116.695
X334.651Y-88.227
X334.651Y-145.377
X334.651Y-164.427
X347.35Y-90.767
X347.35Y-109.817
X347.35Y-128.867
X347.35Y-147.917
X347.35Y-166.967
X347.39Y-90.187
X347.39Y-109.237
X347.39Y-128.287
X347.39Y-147.337
X347.39Y-166.387
X352.391Y-89.687
X352.391Y-108.737
X352.391Y-127.787
X352.391Y-146.837
X352.391Y-165.887
X353.701Y-88.227
X353.701Y-107.277
X353.701Y-126.327
X353.701Y-145.377
X353.701Y-164.427
T3
X144.936Y-59.806G85X144.936Y-60.406
G05
X145.296Y-65.756G85X145.296Y-66.356
G05
X153.556Y-65.756G85X153.556Y-66.356
G05
X153.916Y-59.806G85X153.916Y-60.406
G05
X279.786Y-59.974G85X279.786Y-60.574
G05
X280.146Y-65.924G85X280.146Y-66.524
G05
X288.406Y-65.924G85X288.406Y-66.524
G05
X288.766Y-59.974G85X288.766Y-60.574
G05
T4
X160.908Y-69.256G85X160.908Y-70.856
G05
X176.708Y-69.256G85X176.708Y-70.856
G05
X295.758Y-69.256G85X295.758Y-70.856
G05
X311.558Y-69.256G85X311.558Y-70.856
G05
T0
M30
