G04 #@! TF.FileFunction,Legend,Top*
%FSLAX46Y46*%
G04 Gerber Fmt 4.6, Leading zero omitted, Abs format (unit mm)*
G04 Created by KiCad (PCBNEW 4.0.1-stable) date 2/8/2016 10:38:53 PM*
%MOMM*%
G01*
G04 APERTURE LIST*
%ADD10C,0.150000*%
%ADD11C,0.200000*%
G04 APERTURE END LIST*
D10*
D11*
X151045447Y-74708281D02*
X151616876Y-74708281D01*
X151331161Y-75708281D02*
X151331161Y-74708281D01*
X151902590Y-75660662D02*
X152045447Y-75708281D01*
X152283543Y-75708281D01*
X152378781Y-75660662D01*
X152426400Y-75613043D01*
X152474019Y-75517805D01*
X152474019Y-75422567D01*
X152426400Y-75327329D01*
X152378781Y-75279710D01*
X152283543Y-75232090D01*
X152093066Y-75184471D01*
X151997828Y-75136852D01*
X151950209Y-75089233D01*
X151902590Y-74993995D01*
X151902590Y-74898757D01*
X151950209Y-74803519D01*
X151997828Y-74755900D01*
X152093066Y-74708281D01*
X152331162Y-74708281D01*
X152474019Y-74755900D01*
X153331162Y-74708281D02*
X153140685Y-74708281D01*
X153045447Y-74755900D01*
X152997828Y-74803519D01*
X152902590Y-74946376D01*
X152854971Y-75136852D01*
X152854971Y-75517805D01*
X152902590Y-75613043D01*
X152950209Y-75660662D01*
X153045447Y-75708281D01*
X153235924Y-75708281D01*
X153331162Y-75660662D01*
X153378781Y-75613043D01*
X153426400Y-75517805D01*
X153426400Y-75279710D01*
X153378781Y-75184471D01*
X153331162Y-75136852D01*
X153235924Y-75089233D01*
X153045447Y-75089233D01*
X152950209Y-75136852D01*
X152902590Y-75184471D01*
X152854971Y-75279710D01*
X154331162Y-74708281D02*
X153854971Y-74708281D01*
X153807352Y-75184471D01*
X153854971Y-75136852D01*
X153950209Y-75089233D01*
X154188305Y-75089233D01*
X154283543Y-75136852D01*
X154331162Y-75184471D01*
X154378781Y-75279710D01*
X154378781Y-75517805D01*
X154331162Y-75613043D01*
X154283543Y-75660662D01*
X154188305Y-75708281D01*
X153950209Y-75708281D01*
X153854971Y-75660662D01*
X153807352Y-75613043D01*
X154807352Y-75327329D02*
X155569257Y-75327329D01*
X156521638Y-75708281D02*
X156045447Y-75708281D01*
X156045447Y-74708281D01*
X158950210Y-75708281D02*
X158616876Y-75232090D01*
X158378781Y-75708281D02*
X158378781Y-74708281D01*
X158759734Y-74708281D01*
X158854972Y-74755900D01*
X158902591Y-74803519D01*
X158950210Y-74898757D01*
X158950210Y-75041614D01*
X158902591Y-75136852D01*
X158854972Y-75184471D01*
X158759734Y-75232090D01*
X158378781Y-75232090D01*
X159759734Y-75660662D02*
X159664496Y-75708281D01*
X159474019Y-75708281D01*
X159378781Y-75660662D01*
X159331162Y-75565424D01*
X159331162Y-75184471D01*
X159378781Y-75089233D01*
X159474019Y-75041614D01*
X159664496Y-75041614D01*
X159759734Y-75089233D01*
X159807353Y-75184471D01*
X159807353Y-75279710D01*
X159331162Y-75374948D01*
X160140686Y-75041614D02*
X160378781Y-75708281D01*
X160616877Y-75041614D01*
X161950210Y-74708281D02*
X162045449Y-74708281D01*
X162140687Y-74755900D01*
X162188306Y-74803519D01*
X162235925Y-74898757D01*
X162283544Y-75089233D01*
X162283544Y-75327329D01*
X162235925Y-75517805D01*
X162188306Y-75613043D01*
X162140687Y-75660662D01*
X162045449Y-75708281D01*
X161950210Y-75708281D01*
X161854972Y-75660662D01*
X161807353Y-75613043D01*
X161759734Y-75517805D01*
X161712115Y-75327329D01*
X161712115Y-75089233D01*
X161759734Y-74898757D01*
X161807353Y-74803519D01*
X161854972Y-74755900D01*
X161950210Y-74708281D01*
X162712115Y-75613043D02*
X162759734Y-75660662D01*
X162712115Y-75708281D01*
X162664496Y-75660662D01*
X162712115Y-75613043D01*
X162712115Y-75708281D01*
X163140686Y-74803519D02*
X163188305Y-74755900D01*
X163283543Y-74708281D01*
X163521639Y-74708281D01*
X163616877Y-74755900D01*
X163664496Y-74803519D01*
X163712115Y-74898757D01*
X163712115Y-74993995D01*
X163664496Y-75136852D01*
X163093067Y-75708281D01*
X163712115Y-75708281D01*
X137735923Y-77308281D02*
X137735923Y-76308281D01*
X137974018Y-76308281D01*
X138116876Y-76355900D01*
X138212114Y-76451138D01*
X138259733Y-76546376D01*
X138307352Y-76736852D01*
X138307352Y-76879710D01*
X138259733Y-77070186D01*
X138212114Y-77165424D01*
X138116876Y-77260662D01*
X137974018Y-77308281D01*
X137735923Y-77308281D01*
X139116876Y-77260662D02*
X139021638Y-77308281D01*
X138831161Y-77308281D01*
X138735923Y-77260662D01*
X138688304Y-77165424D01*
X138688304Y-76784471D01*
X138735923Y-76689233D01*
X138831161Y-76641614D01*
X139021638Y-76641614D01*
X139116876Y-76689233D01*
X139164495Y-76784471D01*
X139164495Y-76879710D01*
X138688304Y-76974948D01*
X139545447Y-77260662D02*
X139640685Y-77308281D01*
X139831161Y-77308281D01*
X139926400Y-77260662D01*
X139974019Y-77165424D01*
X139974019Y-77117805D01*
X139926400Y-77022567D01*
X139831161Y-76974948D01*
X139688304Y-76974948D01*
X139593066Y-76927329D01*
X139545447Y-76832090D01*
X139545447Y-76784471D01*
X139593066Y-76689233D01*
X139688304Y-76641614D01*
X139831161Y-76641614D01*
X139926400Y-76689233D01*
X140402590Y-77308281D02*
X140402590Y-76641614D01*
X140402590Y-76308281D02*
X140354971Y-76355900D01*
X140402590Y-76403519D01*
X140450209Y-76355900D01*
X140402590Y-76308281D01*
X140402590Y-76403519D01*
X141307352Y-76641614D02*
X141307352Y-77451138D01*
X141259733Y-77546376D01*
X141212114Y-77593995D01*
X141116875Y-77641614D01*
X140974018Y-77641614D01*
X140878780Y-77593995D01*
X141307352Y-77260662D02*
X141212114Y-77308281D01*
X141021637Y-77308281D01*
X140926399Y-77260662D01*
X140878780Y-77213043D01*
X140831161Y-77117805D01*
X140831161Y-76832090D01*
X140878780Y-76736852D01*
X140926399Y-76689233D01*
X141021637Y-76641614D01*
X141212114Y-76641614D01*
X141307352Y-76689233D01*
X141783542Y-76641614D02*
X141783542Y-77308281D01*
X141783542Y-76736852D02*
X141831161Y-76689233D01*
X141926399Y-76641614D01*
X142069257Y-76641614D01*
X142164495Y-76689233D01*
X142212114Y-76784471D01*
X142212114Y-77308281D01*
X143069257Y-77260662D02*
X142974019Y-77308281D01*
X142783542Y-77308281D01*
X142688304Y-77260662D01*
X142640685Y-77165424D01*
X142640685Y-76784471D01*
X142688304Y-76689233D01*
X142783542Y-76641614D01*
X142974019Y-76641614D01*
X143069257Y-76689233D01*
X143116876Y-76784471D01*
X143116876Y-76879710D01*
X142640685Y-76974948D01*
X143974019Y-77308281D02*
X143974019Y-76308281D01*
X143974019Y-77260662D02*
X143878781Y-77308281D01*
X143688304Y-77308281D01*
X143593066Y-77260662D01*
X143545447Y-77213043D01*
X143497828Y-77117805D01*
X143497828Y-76832090D01*
X143545447Y-76736852D01*
X143593066Y-76689233D01*
X143688304Y-76641614D01*
X143878781Y-76641614D01*
X143974019Y-76689233D01*
X146021638Y-77308281D02*
X145974019Y-77308281D01*
X145878781Y-77260662D01*
X145735924Y-77117805D01*
X145497829Y-76832090D01*
X145402590Y-76689233D01*
X145354971Y-76546376D01*
X145354971Y-76451138D01*
X145402590Y-76355900D01*
X145497829Y-76308281D01*
X145545448Y-76308281D01*
X145640686Y-76355900D01*
X145688305Y-76451138D01*
X145688305Y-76498757D01*
X145640686Y-76593995D01*
X145593067Y-76641614D01*
X145307352Y-76832090D01*
X145259733Y-76879710D01*
X145212114Y-76974948D01*
X145212114Y-77117805D01*
X145259733Y-77213043D01*
X145307352Y-77260662D01*
X145402590Y-77308281D01*
X145545448Y-77308281D01*
X145640686Y-77260662D01*
X145688305Y-77213043D01*
X145831162Y-77022567D01*
X145878781Y-76879710D01*
X145878781Y-76784471D01*
X147212114Y-77308281D02*
X147212114Y-76308281D01*
X147450209Y-76308281D01*
X147593067Y-76355900D01*
X147688305Y-76451138D01*
X147735924Y-76546376D01*
X147783543Y-76736852D01*
X147783543Y-76879710D01*
X147735924Y-77070186D01*
X147688305Y-77165424D01*
X147593067Y-77260662D01*
X147450209Y-77308281D01*
X147212114Y-77308281D01*
X148212114Y-77308281D02*
X148212114Y-76641614D01*
X148212114Y-76832090D02*
X148259733Y-76736852D01*
X148307352Y-76689233D01*
X148402590Y-76641614D01*
X148497829Y-76641614D01*
X149259734Y-77308281D02*
X149259734Y-76784471D01*
X149212115Y-76689233D01*
X149116877Y-76641614D01*
X148926400Y-76641614D01*
X148831162Y-76689233D01*
X149259734Y-77260662D02*
X149164496Y-77308281D01*
X148926400Y-77308281D01*
X148831162Y-77260662D01*
X148783543Y-77165424D01*
X148783543Y-77070186D01*
X148831162Y-76974948D01*
X148926400Y-76927329D01*
X149164496Y-76927329D01*
X149259734Y-76879710D01*
X149640686Y-76641614D02*
X149831162Y-77308281D01*
X150021639Y-76832090D01*
X150212115Y-77308281D01*
X150402591Y-76641614D01*
X150783543Y-76641614D02*
X150783543Y-77308281D01*
X150783543Y-76736852D02*
X150831162Y-76689233D01*
X150926400Y-76641614D01*
X151069258Y-76641614D01*
X151164496Y-76689233D01*
X151212115Y-76784471D01*
X151212115Y-77308281D01*
X152450210Y-77308281D02*
X152450210Y-76641614D01*
X152450210Y-76308281D02*
X152402591Y-76355900D01*
X152450210Y-76403519D01*
X152497829Y-76355900D01*
X152450210Y-76308281D01*
X152450210Y-76403519D01*
X152926400Y-76641614D02*
X152926400Y-77308281D01*
X152926400Y-76736852D02*
X152974019Y-76689233D01*
X153069257Y-76641614D01*
X153212115Y-76641614D01*
X153307353Y-76689233D01*
X153354972Y-76784471D01*
X153354972Y-77308281D01*
X154593067Y-77308281D02*
X154593067Y-76308281D01*
X155164496Y-77308281D02*
X154735924Y-76736852D01*
X155164496Y-76308281D02*
X154593067Y-76879710D01*
X155593067Y-77308281D02*
X155593067Y-76641614D01*
X155593067Y-76308281D02*
X155545448Y-76355900D01*
X155593067Y-76403519D01*
X155640686Y-76355900D01*
X155593067Y-76308281D01*
X155593067Y-76403519D01*
X156640686Y-77213043D02*
X156593067Y-77260662D01*
X156450210Y-77308281D01*
X156354972Y-77308281D01*
X156212114Y-77260662D01*
X156116876Y-77165424D01*
X156069257Y-77070186D01*
X156021638Y-76879710D01*
X156021638Y-76736852D01*
X156069257Y-76546376D01*
X156116876Y-76451138D01*
X156212114Y-76355900D01*
X156354972Y-76308281D01*
X156450210Y-76308281D01*
X156593067Y-76355900D01*
X156640686Y-76403519D01*
X157021638Y-77022567D02*
X157497829Y-77022567D01*
X156926400Y-77308281D02*
X157259733Y-76308281D01*
X157593067Y-77308281D01*
X157926400Y-77308281D02*
X157926400Y-76308281D01*
X158164495Y-76308281D01*
X158307353Y-76355900D01*
X158402591Y-76451138D01*
X158450210Y-76546376D01*
X158497829Y-76736852D01*
X158497829Y-76879710D01*
X158450210Y-77070186D01*
X158402591Y-77165424D01*
X158307353Y-77260662D01*
X158164495Y-77308281D01*
X157926400Y-77308281D01*
X159688305Y-77308281D02*
X159688305Y-76308281D01*
X159688305Y-76689233D02*
X159783543Y-76641614D01*
X159974020Y-76641614D01*
X160069258Y-76689233D01*
X160116877Y-76736852D01*
X160164496Y-76832090D01*
X160164496Y-77117805D01*
X160116877Y-77213043D01*
X160069258Y-77260662D01*
X159974020Y-77308281D01*
X159783543Y-77308281D01*
X159688305Y-77260662D01*
X160497829Y-76641614D02*
X160735924Y-77308281D01*
X160974020Y-76641614D02*
X160735924Y-77308281D01*
X160640686Y-77546376D01*
X160593067Y-77593995D01*
X160497829Y-77641614D01*
X162116877Y-77308281D02*
X162116877Y-76308281D01*
X162116877Y-76689233D02*
X162212115Y-76641614D01*
X162402592Y-76641614D01*
X162497830Y-76689233D01*
X162545449Y-76736852D01*
X162593068Y-76832090D01*
X162593068Y-77117805D01*
X162545449Y-77213043D01*
X162497830Y-77260662D01*
X162402592Y-77308281D01*
X162212115Y-77308281D01*
X162116877Y-77260662D01*
X162926401Y-76641614D02*
X163164496Y-77308281D01*
X163402592Y-76641614D02*
X163164496Y-77308281D01*
X163069258Y-77546376D01*
X163021639Y-77593995D01*
X162926401Y-77641614D01*
X164545449Y-77308281D02*
X164545449Y-76308281D01*
X164878783Y-77022567D01*
X165212116Y-76308281D01*
X165212116Y-77308281D01*
X165831163Y-77308281D02*
X165735925Y-77260662D01*
X165688306Y-77213043D01*
X165640687Y-77117805D01*
X165640687Y-76832090D01*
X165688306Y-76736852D01*
X165735925Y-76689233D01*
X165831163Y-76641614D01*
X165974021Y-76641614D01*
X166069259Y-76689233D01*
X166116878Y-76736852D01*
X166164497Y-76832090D01*
X166164497Y-77117805D01*
X166116878Y-77213043D01*
X166069259Y-77260662D01*
X165974021Y-77308281D01*
X165831163Y-77308281D01*
X166593068Y-77308281D02*
X166593068Y-76308281D01*
X167021640Y-77308281D02*
X167021640Y-76784471D01*
X166974021Y-76689233D01*
X166878783Y-76641614D01*
X166735925Y-76641614D01*
X166640687Y-76689233D01*
X166593068Y-76736852D01*
X167497830Y-77308281D02*
X167497830Y-76641614D01*
X167497830Y-76308281D02*
X167450211Y-76355900D01*
X167497830Y-76403519D01*
X167545449Y-76355900D01*
X167497830Y-76308281D01*
X167497830Y-76403519D01*
X167831163Y-76641614D02*
X168212115Y-76641614D01*
X167974020Y-76308281D02*
X167974020Y-77165424D01*
X168021639Y-77260662D01*
X168116877Y-77308281D01*
X168212115Y-77308281D01*
X169354973Y-76308281D02*
X169259735Y-76498757D01*
X169783544Y-77308281D02*
X169783544Y-76308281D01*
X170116878Y-77022567D01*
X170450211Y-76308281D01*
X170450211Y-77308281D01*
X171116877Y-76308281D02*
X171307354Y-76308281D01*
X171402592Y-76355900D01*
X171497830Y-76451138D01*
X171545449Y-76641614D01*
X171545449Y-76974948D01*
X171497830Y-77165424D01*
X171402592Y-77260662D01*
X171307354Y-77308281D01*
X171116877Y-77308281D01*
X171021639Y-77260662D01*
X170926401Y-77165424D01*
X170878782Y-76974948D01*
X170878782Y-76641614D01*
X170926401Y-76451138D01*
X171021639Y-76355900D01*
X171116877Y-76308281D01*
X171878782Y-76308281D02*
X172545449Y-76308281D01*
X171878782Y-77308281D01*
X172545449Y-77308281D01*
X172974020Y-76308281D02*
X172878782Y-76498757D01*
X174688306Y-76355900D02*
X174593068Y-76308281D01*
X174450211Y-76308281D01*
X174307353Y-76355900D01*
X174212115Y-76451138D01*
X174164496Y-76546376D01*
X174116877Y-76736852D01*
X174116877Y-76879710D01*
X174164496Y-77070186D01*
X174212115Y-77165424D01*
X174307353Y-77260662D01*
X174450211Y-77308281D01*
X174545449Y-77308281D01*
X174688306Y-77260662D01*
X174735925Y-77213043D01*
X174735925Y-76879710D01*
X174545449Y-76879710D01*
X175593068Y-77308281D02*
X175593068Y-76784471D01*
X175545449Y-76689233D01*
X175450211Y-76641614D01*
X175259734Y-76641614D01*
X175164496Y-76689233D01*
X175593068Y-77260662D02*
X175497830Y-77308281D01*
X175259734Y-77308281D01*
X175164496Y-77260662D01*
X175116877Y-77165424D01*
X175116877Y-77070186D01*
X175164496Y-76974948D01*
X175259734Y-76927329D01*
X175497830Y-76927329D01*
X175593068Y-76879710D01*
X176069258Y-77308281D02*
X176069258Y-76641614D01*
X176069258Y-76832090D02*
X176116877Y-76736852D01*
X176164496Y-76689233D01*
X176259734Y-76641614D01*
X176354973Y-76641614D01*
X177116878Y-76641614D02*
X177116878Y-77451138D01*
X177069259Y-77546376D01*
X177021640Y-77593995D01*
X176926401Y-77641614D01*
X176783544Y-77641614D01*
X176688306Y-77593995D01*
X177116878Y-77260662D02*
X177021640Y-77308281D01*
X176831163Y-77308281D01*
X176735925Y-77260662D01*
X176688306Y-77213043D01*
X176640687Y-77117805D01*
X176640687Y-76832090D01*
X176688306Y-76736852D01*
X176735925Y-76689233D01*
X176831163Y-76641614D01*
X177021640Y-76641614D01*
X177116878Y-76689233D01*
X147664495Y-78384471D02*
X147807352Y-78432090D01*
X147854971Y-78479710D01*
X147902590Y-78574948D01*
X147902590Y-78717805D01*
X147854971Y-78813043D01*
X147807352Y-78860662D01*
X147712114Y-78908281D01*
X147331161Y-78908281D01*
X147331161Y-77908281D01*
X147664495Y-77908281D01*
X147759733Y-77955900D01*
X147807352Y-78003519D01*
X147854971Y-78098757D01*
X147854971Y-78193995D01*
X147807352Y-78289233D01*
X147759733Y-78336852D01*
X147664495Y-78384471D01*
X147331161Y-78384471D01*
X148759733Y-78908281D02*
X148759733Y-78384471D01*
X148712114Y-78289233D01*
X148616876Y-78241614D01*
X148426399Y-78241614D01*
X148331161Y-78289233D01*
X148759733Y-78860662D02*
X148664495Y-78908281D01*
X148426399Y-78908281D01*
X148331161Y-78860662D01*
X148283542Y-78765424D01*
X148283542Y-78670186D01*
X148331161Y-78574948D01*
X148426399Y-78527329D01*
X148664495Y-78527329D01*
X148759733Y-78479710D01*
X149188304Y-78860662D02*
X149283542Y-78908281D01*
X149474018Y-78908281D01*
X149569257Y-78860662D01*
X149616876Y-78765424D01*
X149616876Y-78717805D01*
X149569257Y-78622567D01*
X149474018Y-78574948D01*
X149331161Y-78574948D01*
X149235923Y-78527329D01*
X149188304Y-78432090D01*
X149188304Y-78384471D01*
X149235923Y-78289233D01*
X149331161Y-78241614D01*
X149474018Y-78241614D01*
X149569257Y-78289233D01*
X150426400Y-78860662D02*
X150331162Y-78908281D01*
X150140685Y-78908281D01*
X150045447Y-78860662D01*
X149997828Y-78765424D01*
X149997828Y-78384471D01*
X150045447Y-78289233D01*
X150140685Y-78241614D01*
X150331162Y-78241614D01*
X150426400Y-78289233D01*
X150474019Y-78384471D01*
X150474019Y-78479710D01*
X149997828Y-78574948D01*
X151331162Y-78908281D02*
X151331162Y-77908281D01*
X151331162Y-78860662D02*
X151235924Y-78908281D01*
X151045447Y-78908281D01*
X150950209Y-78860662D01*
X150902590Y-78813043D01*
X150854971Y-78717805D01*
X150854971Y-78432090D01*
X150902590Y-78336852D01*
X150950209Y-78289233D01*
X151045447Y-78241614D01*
X151235924Y-78241614D01*
X151331162Y-78289233D01*
X152712114Y-78908281D02*
X152616876Y-78860662D01*
X152569257Y-78813043D01*
X152521638Y-78717805D01*
X152521638Y-78432090D01*
X152569257Y-78336852D01*
X152616876Y-78289233D01*
X152712114Y-78241614D01*
X152854972Y-78241614D01*
X152950210Y-78289233D01*
X152997829Y-78336852D01*
X153045448Y-78432090D01*
X153045448Y-78717805D01*
X152997829Y-78813043D01*
X152950210Y-78860662D01*
X152854972Y-78908281D01*
X152712114Y-78908281D01*
X153474019Y-78241614D02*
X153474019Y-78908281D01*
X153474019Y-78336852D02*
X153521638Y-78289233D01*
X153616876Y-78241614D01*
X153759734Y-78241614D01*
X153854972Y-78289233D01*
X153902591Y-78384471D01*
X153902591Y-78908281D01*
X155140686Y-78908281D02*
X155140686Y-77908281D01*
X156188305Y-78813043D02*
X156140686Y-78860662D01*
X155997829Y-78908281D01*
X155902591Y-78908281D01*
X155759733Y-78860662D01*
X155664495Y-78765424D01*
X155616876Y-78670186D01*
X155569257Y-78479710D01*
X155569257Y-78336852D01*
X155616876Y-78146376D01*
X155664495Y-78051138D01*
X155759733Y-77955900D01*
X155902591Y-77908281D01*
X155997829Y-77908281D01*
X156140686Y-77955900D01*
X156188305Y-78003519D01*
X156616876Y-78384471D02*
X156950210Y-78384471D01*
X157093067Y-78908281D02*
X156616876Y-78908281D01*
X156616876Y-77908281D01*
X157093067Y-77908281D01*
X157521638Y-78908281D02*
X157521638Y-77908281D01*
X157759733Y-77908281D01*
X157902591Y-77955900D01*
X157997829Y-78051138D01*
X158045448Y-78146376D01*
X158093067Y-78336852D01*
X158093067Y-78479710D01*
X158045448Y-78670186D01*
X157997829Y-78765424D01*
X157902591Y-78860662D01*
X157759733Y-78908281D01*
X157521638Y-78908281D01*
X158521638Y-78527329D02*
X159283543Y-78527329D01*
X160235924Y-78908281D02*
X159759733Y-78908281D01*
X159759733Y-77908281D01*
X161902591Y-78908281D02*
X161569257Y-78432090D01*
X161331162Y-78908281D02*
X161331162Y-77908281D01*
X161712115Y-77908281D01*
X161807353Y-77955900D01*
X161854972Y-78003519D01*
X161902591Y-78098757D01*
X161902591Y-78241614D01*
X161854972Y-78336852D01*
X161807353Y-78384471D01*
X161712115Y-78432090D01*
X161331162Y-78432090D01*
X162712115Y-78860662D02*
X162616877Y-78908281D01*
X162426400Y-78908281D01*
X162331162Y-78860662D01*
X162283543Y-78765424D01*
X162283543Y-78384471D01*
X162331162Y-78289233D01*
X162426400Y-78241614D01*
X162616877Y-78241614D01*
X162712115Y-78289233D01*
X162759734Y-78384471D01*
X162759734Y-78479710D01*
X162283543Y-78574948D01*
X163093067Y-78241614D02*
X163331162Y-78908281D01*
X163569258Y-78241614D01*
X165235925Y-78908281D02*
X164664496Y-78908281D01*
X164950210Y-78908281D02*
X164950210Y-77908281D01*
X164854972Y-78051138D01*
X164759734Y-78146376D01*
X164664496Y-78193995D01*
X165664496Y-78813043D02*
X165712115Y-78860662D01*
X165664496Y-78908281D01*
X165616877Y-78860662D01*
X165664496Y-78813043D01*
X165664496Y-78908281D01*
X166664496Y-78908281D02*
X166093067Y-78908281D01*
X166378781Y-78908281D02*
X166378781Y-77908281D01*
X166283543Y-78051138D01*
X166188305Y-78146376D01*
X166093067Y-78193995D01*
X167521639Y-78908281D02*
X167521639Y-77908281D01*
X167521639Y-78860662D02*
X167426401Y-78908281D01*
X167235924Y-78908281D01*
X167140686Y-78860662D01*
X167093067Y-78813043D01*
X167045448Y-78717805D01*
X167045448Y-78432090D01*
X167093067Y-78336852D01*
X167140686Y-78289233D01*
X167235924Y-78241614D01*
X167426401Y-78241614D01*
X167521639Y-78289233D01*
X281300209Y-75208281D02*
X281871638Y-75208281D01*
X281585923Y-76208281D02*
X281585923Y-75208281D01*
X282157352Y-76160662D02*
X282300209Y-76208281D01*
X282538305Y-76208281D01*
X282633543Y-76160662D01*
X282681162Y-76113043D01*
X282728781Y-76017805D01*
X282728781Y-75922567D01*
X282681162Y-75827329D01*
X282633543Y-75779710D01*
X282538305Y-75732090D01*
X282347828Y-75684471D01*
X282252590Y-75636852D01*
X282204971Y-75589233D01*
X282157352Y-75493995D01*
X282157352Y-75398757D01*
X282204971Y-75303519D01*
X282252590Y-75255900D01*
X282347828Y-75208281D01*
X282585924Y-75208281D01*
X282728781Y-75255900D01*
X283585924Y-75208281D02*
X283395447Y-75208281D01*
X283300209Y-75255900D01*
X283252590Y-75303519D01*
X283157352Y-75446376D01*
X283109733Y-75636852D01*
X283109733Y-76017805D01*
X283157352Y-76113043D01*
X283204971Y-76160662D01*
X283300209Y-76208281D01*
X283490686Y-76208281D01*
X283585924Y-76160662D01*
X283633543Y-76113043D01*
X283681162Y-76017805D01*
X283681162Y-75779710D01*
X283633543Y-75684471D01*
X283585924Y-75636852D01*
X283490686Y-75589233D01*
X283300209Y-75589233D01*
X283204971Y-75636852D01*
X283157352Y-75684471D01*
X283109733Y-75779710D01*
X284585924Y-75208281D02*
X284109733Y-75208281D01*
X284062114Y-75684471D01*
X284109733Y-75636852D01*
X284204971Y-75589233D01*
X284443067Y-75589233D01*
X284538305Y-75636852D01*
X284585924Y-75684471D01*
X284633543Y-75779710D01*
X284633543Y-76017805D01*
X284585924Y-76113043D01*
X284538305Y-76160662D01*
X284443067Y-76208281D01*
X284204971Y-76208281D01*
X284109733Y-76160662D01*
X284062114Y-76113043D01*
X285062114Y-75827329D02*
X285824019Y-75827329D01*
X286871638Y-76208281D02*
X286538304Y-75732090D01*
X286300209Y-76208281D02*
X286300209Y-75208281D01*
X286681162Y-75208281D01*
X286776400Y-75255900D01*
X286824019Y-75303519D01*
X286871638Y-75398757D01*
X286871638Y-75541614D01*
X286824019Y-75636852D01*
X286776400Y-75684471D01*
X286681162Y-75732090D01*
X286300209Y-75732090D01*
X289395448Y-76208281D02*
X289062114Y-75732090D01*
X288824019Y-76208281D02*
X288824019Y-75208281D01*
X289204972Y-75208281D01*
X289300210Y-75255900D01*
X289347829Y-75303519D01*
X289395448Y-75398757D01*
X289395448Y-75541614D01*
X289347829Y-75636852D01*
X289300210Y-75684471D01*
X289204972Y-75732090D01*
X288824019Y-75732090D01*
X290204972Y-76160662D02*
X290109734Y-76208281D01*
X289919257Y-76208281D01*
X289824019Y-76160662D01*
X289776400Y-76065424D01*
X289776400Y-75684471D01*
X289824019Y-75589233D01*
X289919257Y-75541614D01*
X290109734Y-75541614D01*
X290204972Y-75589233D01*
X290252591Y-75684471D01*
X290252591Y-75779710D01*
X289776400Y-75874948D01*
X290585924Y-75541614D02*
X290824019Y-76208281D01*
X291062115Y-75541614D01*
X292395448Y-75208281D02*
X292490687Y-75208281D01*
X292585925Y-75255900D01*
X292633544Y-75303519D01*
X292681163Y-75398757D01*
X292728782Y-75589233D01*
X292728782Y-75827329D01*
X292681163Y-76017805D01*
X292633544Y-76113043D01*
X292585925Y-76160662D01*
X292490687Y-76208281D01*
X292395448Y-76208281D01*
X292300210Y-76160662D01*
X292252591Y-76113043D01*
X292204972Y-76017805D01*
X292157353Y-75827329D01*
X292157353Y-75589233D01*
X292204972Y-75398757D01*
X292252591Y-75303519D01*
X292300210Y-75255900D01*
X292395448Y-75208281D01*
X293157353Y-76113043D02*
X293204972Y-76160662D01*
X293157353Y-76208281D01*
X293109734Y-76160662D01*
X293157353Y-76113043D01*
X293157353Y-76208281D01*
X293585924Y-75303519D02*
X293633543Y-75255900D01*
X293728781Y-75208281D01*
X293966877Y-75208281D01*
X294062115Y-75255900D01*
X294109734Y-75303519D01*
X294157353Y-75398757D01*
X294157353Y-75493995D01*
X294109734Y-75636852D01*
X293538305Y-76208281D01*
X294157353Y-76208281D01*
X268085923Y-77808281D02*
X268085923Y-76808281D01*
X268324018Y-76808281D01*
X268466876Y-76855900D01*
X268562114Y-76951138D01*
X268609733Y-77046376D01*
X268657352Y-77236852D01*
X268657352Y-77379710D01*
X268609733Y-77570186D01*
X268562114Y-77665424D01*
X268466876Y-77760662D01*
X268324018Y-77808281D01*
X268085923Y-77808281D01*
X269466876Y-77760662D02*
X269371638Y-77808281D01*
X269181161Y-77808281D01*
X269085923Y-77760662D01*
X269038304Y-77665424D01*
X269038304Y-77284471D01*
X269085923Y-77189233D01*
X269181161Y-77141614D01*
X269371638Y-77141614D01*
X269466876Y-77189233D01*
X269514495Y-77284471D01*
X269514495Y-77379710D01*
X269038304Y-77474948D01*
X269895447Y-77760662D02*
X269990685Y-77808281D01*
X270181161Y-77808281D01*
X270276400Y-77760662D01*
X270324019Y-77665424D01*
X270324019Y-77617805D01*
X270276400Y-77522567D01*
X270181161Y-77474948D01*
X270038304Y-77474948D01*
X269943066Y-77427329D01*
X269895447Y-77332090D01*
X269895447Y-77284471D01*
X269943066Y-77189233D01*
X270038304Y-77141614D01*
X270181161Y-77141614D01*
X270276400Y-77189233D01*
X270752590Y-77808281D02*
X270752590Y-77141614D01*
X270752590Y-76808281D02*
X270704971Y-76855900D01*
X270752590Y-76903519D01*
X270800209Y-76855900D01*
X270752590Y-76808281D01*
X270752590Y-76903519D01*
X271657352Y-77141614D02*
X271657352Y-77951138D01*
X271609733Y-78046376D01*
X271562114Y-78093995D01*
X271466875Y-78141614D01*
X271324018Y-78141614D01*
X271228780Y-78093995D01*
X271657352Y-77760662D02*
X271562114Y-77808281D01*
X271371637Y-77808281D01*
X271276399Y-77760662D01*
X271228780Y-77713043D01*
X271181161Y-77617805D01*
X271181161Y-77332090D01*
X271228780Y-77236852D01*
X271276399Y-77189233D01*
X271371637Y-77141614D01*
X271562114Y-77141614D01*
X271657352Y-77189233D01*
X272133542Y-77141614D02*
X272133542Y-77808281D01*
X272133542Y-77236852D02*
X272181161Y-77189233D01*
X272276399Y-77141614D01*
X272419257Y-77141614D01*
X272514495Y-77189233D01*
X272562114Y-77284471D01*
X272562114Y-77808281D01*
X273419257Y-77760662D02*
X273324019Y-77808281D01*
X273133542Y-77808281D01*
X273038304Y-77760662D01*
X272990685Y-77665424D01*
X272990685Y-77284471D01*
X273038304Y-77189233D01*
X273133542Y-77141614D01*
X273324019Y-77141614D01*
X273419257Y-77189233D01*
X273466876Y-77284471D01*
X273466876Y-77379710D01*
X272990685Y-77474948D01*
X274324019Y-77808281D02*
X274324019Y-76808281D01*
X274324019Y-77760662D02*
X274228781Y-77808281D01*
X274038304Y-77808281D01*
X273943066Y-77760662D01*
X273895447Y-77713043D01*
X273847828Y-77617805D01*
X273847828Y-77332090D01*
X273895447Y-77236852D01*
X273943066Y-77189233D01*
X274038304Y-77141614D01*
X274228781Y-77141614D01*
X274324019Y-77189233D01*
X276371638Y-77808281D02*
X276324019Y-77808281D01*
X276228781Y-77760662D01*
X276085924Y-77617805D01*
X275847829Y-77332090D01*
X275752590Y-77189233D01*
X275704971Y-77046376D01*
X275704971Y-76951138D01*
X275752590Y-76855900D01*
X275847829Y-76808281D01*
X275895448Y-76808281D01*
X275990686Y-76855900D01*
X276038305Y-76951138D01*
X276038305Y-76998757D01*
X275990686Y-77093995D01*
X275943067Y-77141614D01*
X275657352Y-77332090D01*
X275609733Y-77379710D01*
X275562114Y-77474948D01*
X275562114Y-77617805D01*
X275609733Y-77713043D01*
X275657352Y-77760662D01*
X275752590Y-77808281D01*
X275895448Y-77808281D01*
X275990686Y-77760662D01*
X276038305Y-77713043D01*
X276181162Y-77522567D01*
X276228781Y-77379710D01*
X276228781Y-77284471D01*
X277562114Y-77808281D02*
X277562114Y-76808281D01*
X277800209Y-76808281D01*
X277943067Y-76855900D01*
X278038305Y-76951138D01*
X278085924Y-77046376D01*
X278133543Y-77236852D01*
X278133543Y-77379710D01*
X278085924Y-77570186D01*
X278038305Y-77665424D01*
X277943067Y-77760662D01*
X277800209Y-77808281D01*
X277562114Y-77808281D01*
X278562114Y-77808281D02*
X278562114Y-77141614D01*
X278562114Y-77332090D02*
X278609733Y-77236852D01*
X278657352Y-77189233D01*
X278752590Y-77141614D01*
X278847829Y-77141614D01*
X279609734Y-77808281D02*
X279609734Y-77284471D01*
X279562115Y-77189233D01*
X279466877Y-77141614D01*
X279276400Y-77141614D01*
X279181162Y-77189233D01*
X279609734Y-77760662D02*
X279514496Y-77808281D01*
X279276400Y-77808281D01*
X279181162Y-77760662D01*
X279133543Y-77665424D01*
X279133543Y-77570186D01*
X279181162Y-77474948D01*
X279276400Y-77427329D01*
X279514496Y-77427329D01*
X279609734Y-77379710D01*
X279990686Y-77141614D02*
X280181162Y-77808281D01*
X280371639Y-77332090D01*
X280562115Y-77808281D01*
X280752591Y-77141614D01*
X281133543Y-77141614D02*
X281133543Y-77808281D01*
X281133543Y-77236852D02*
X281181162Y-77189233D01*
X281276400Y-77141614D01*
X281419258Y-77141614D01*
X281514496Y-77189233D01*
X281562115Y-77284471D01*
X281562115Y-77808281D01*
X282800210Y-77808281D02*
X282800210Y-77141614D01*
X282800210Y-76808281D02*
X282752591Y-76855900D01*
X282800210Y-76903519D01*
X282847829Y-76855900D01*
X282800210Y-76808281D01*
X282800210Y-76903519D01*
X283276400Y-77141614D02*
X283276400Y-77808281D01*
X283276400Y-77236852D02*
X283324019Y-77189233D01*
X283419257Y-77141614D01*
X283562115Y-77141614D01*
X283657353Y-77189233D01*
X283704972Y-77284471D01*
X283704972Y-77808281D01*
X284943067Y-77808281D02*
X284943067Y-76808281D01*
X285514496Y-77808281D02*
X285085924Y-77236852D01*
X285514496Y-76808281D02*
X284943067Y-77379710D01*
X285943067Y-77808281D02*
X285943067Y-77141614D01*
X285943067Y-76808281D02*
X285895448Y-76855900D01*
X285943067Y-76903519D01*
X285990686Y-76855900D01*
X285943067Y-76808281D01*
X285943067Y-76903519D01*
X286990686Y-77713043D02*
X286943067Y-77760662D01*
X286800210Y-77808281D01*
X286704972Y-77808281D01*
X286562114Y-77760662D01*
X286466876Y-77665424D01*
X286419257Y-77570186D01*
X286371638Y-77379710D01*
X286371638Y-77236852D01*
X286419257Y-77046376D01*
X286466876Y-76951138D01*
X286562114Y-76855900D01*
X286704972Y-76808281D01*
X286800210Y-76808281D01*
X286943067Y-76855900D01*
X286990686Y-76903519D01*
X287371638Y-77522567D02*
X287847829Y-77522567D01*
X287276400Y-77808281D02*
X287609733Y-76808281D01*
X287943067Y-77808281D01*
X288276400Y-77808281D02*
X288276400Y-76808281D01*
X288514495Y-76808281D01*
X288657353Y-76855900D01*
X288752591Y-76951138D01*
X288800210Y-77046376D01*
X288847829Y-77236852D01*
X288847829Y-77379710D01*
X288800210Y-77570186D01*
X288752591Y-77665424D01*
X288657353Y-77760662D01*
X288514495Y-77808281D01*
X288276400Y-77808281D01*
X290038305Y-77808281D02*
X290038305Y-76808281D01*
X290038305Y-77189233D02*
X290133543Y-77141614D01*
X290324020Y-77141614D01*
X290419258Y-77189233D01*
X290466877Y-77236852D01*
X290514496Y-77332090D01*
X290514496Y-77617805D01*
X290466877Y-77713043D01*
X290419258Y-77760662D01*
X290324020Y-77808281D01*
X290133543Y-77808281D01*
X290038305Y-77760662D01*
X290847829Y-77141614D02*
X291085924Y-77808281D01*
X291324020Y-77141614D02*
X291085924Y-77808281D01*
X290990686Y-78046376D01*
X290943067Y-78093995D01*
X290847829Y-78141614D01*
X292466877Y-77808281D02*
X292466877Y-76808281D01*
X292466877Y-77189233D02*
X292562115Y-77141614D01*
X292752592Y-77141614D01*
X292847830Y-77189233D01*
X292895449Y-77236852D01*
X292943068Y-77332090D01*
X292943068Y-77617805D01*
X292895449Y-77713043D01*
X292847830Y-77760662D01*
X292752592Y-77808281D01*
X292562115Y-77808281D01*
X292466877Y-77760662D01*
X293276401Y-77141614D02*
X293514496Y-77808281D01*
X293752592Y-77141614D02*
X293514496Y-77808281D01*
X293419258Y-78046376D01*
X293371639Y-78093995D01*
X293276401Y-78141614D01*
X294895449Y-77808281D02*
X294895449Y-76808281D01*
X295228783Y-77522567D01*
X295562116Y-76808281D01*
X295562116Y-77808281D01*
X296181163Y-77808281D02*
X296085925Y-77760662D01*
X296038306Y-77713043D01*
X295990687Y-77617805D01*
X295990687Y-77332090D01*
X296038306Y-77236852D01*
X296085925Y-77189233D01*
X296181163Y-77141614D01*
X296324021Y-77141614D01*
X296419259Y-77189233D01*
X296466878Y-77236852D01*
X296514497Y-77332090D01*
X296514497Y-77617805D01*
X296466878Y-77713043D01*
X296419259Y-77760662D01*
X296324021Y-77808281D01*
X296181163Y-77808281D01*
X296943068Y-77808281D02*
X296943068Y-76808281D01*
X297371640Y-77808281D02*
X297371640Y-77284471D01*
X297324021Y-77189233D01*
X297228783Y-77141614D01*
X297085925Y-77141614D01*
X296990687Y-77189233D01*
X296943068Y-77236852D01*
X297847830Y-77808281D02*
X297847830Y-77141614D01*
X297847830Y-76808281D02*
X297800211Y-76855900D01*
X297847830Y-76903519D01*
X297895449Y-76855900D01*
X297847830Y-76808281D01*
X297847830Y-76903519D01*
X298181163Y-77141614D02*
X298562115Y-77141614D01*
X298324020Y-76808281D02*
X298324020Y-77665424D01*
X298371639Y-77760662D01*
X298466877Y-77808281D01*
X298562115Y-77808281D01*
X299704973Y-76808281D02*
X299609735Y-76998757D01*
X300133544Y-77808281D02*
X300133544Y-76808281D01*
X300466878Y-77522567D01*
X300800211Y-76808281D01*
X300800211Y-77808281D01*
X301466877Y-76808281D02*
X301657354Y-76808281D01*
X301752592Y-76855900D01*
X301847830Y-76951138D01*
X301895449Y-77141614D01*
X301895449Y-77474948D01*
X301847830Y-77665424D01*
X301752592Y-77760662D01*
X301657354Y-77808281D01*
X301466877Y-77808281D01*
X301371639Y-77760662D01*
X301276401Y-77665424D01*
X301228782Y-77474948D01*
X301228782Y-77141614D01*
X301276401Y-76951138D01*
X301371639Y-76855900D01*
X301466877Y-76808281D01*
X302228782Y-76808281D02*
X302895449Y-76808281D01*
X302228782Y-77808281D01*
X302895449Y-77808281D01*
X303324020Y-76808281D02*
X303228782Y-76998757D01*
X305038306Y-76855900D02*
X304943068Y-76808281D01*
X304800211Y-76808281D01*
X304657353Y-76855900D01*
X304562115Y-76951138D01*
X304514496Y-77046376D01*
X304466877Y-77236852D01*
X304466877Y-77379710D01*
X304514496Y-77570186D01*
X304562115Y-77665424D01*
X304657353Y-77760662D01*
X304800211Y-77808281D01*
X304895449Y-77808281D01*
X305038306Y-77760662D01*
X305085925Y-77713043D01*
X305085925Y-77379710D01*
X304895449Y-77379710D01*
X305943068Y-77808281D02*
X305943068Y-77284471D01*
X305895449Y-77189233D01*
X305800211Y-77141614D01*
X305609734Y-77141614D01*
X305514496Y-77189233D01*
X305943068Y-77760662D02*
X305847830Y-77808281D01*
X305609734Y-77808281D01*
X305514496Y-77760662D01*
X305466877Y-77665424D01*
X305466877Y-77570186D01*
X305514496Y-77474948D01*
X305609734Y-77427329D01*
X305847830Y-77427329D01*
X305943068Y-77379710D01*
X306419258Y-77808281D02*
X306419258Y-77141614D01*
X306419258Y-77332090D02*
X306466877Y-77236852D01*
X306514496Y-77189233D01*
X306609734Y-77141614D01*
X306704973Y-77141614D01*
X307466878Y-77141614D02*
X307466878Y-77951138D01*
X307419259Y-78046376D01*
X307371640Y-78093995D01*
X307276401Y-78141614D01*
X307133544Y-78141614D01*
X307038306Y-78093995D01*
X307466878Y-77760662D02*
X307371640Y-77808281D01*
X307181163Y-77808281D01*
X307085925Y-77760662D01*
X307038306Y-77713043D01*
X306990687Y-77617805D01*
X306990687Y-77332090D01*
X307038306Y-77236852D01*
X307085925Y-77189233D01*
X307181163Y-77141614D01*
X307371640Y-77141614D01*
X307466878Y-77189233D01*
X278014495Y-78884471D02*
X278157352Y-78932090D01*
X278204971Y-78979710D01*
X278252590Y-79074948D01*
X278252590Y-79217805D01*
X278204971Y-79313043D01*
X278157352Y-79360662D01*
X278062114Y-79408281D01*
X277681161Y-79408281D01*
X277681161Y-78408281D01*
X278014495Y-78408281D01*
X278109733Y-78455900D01*
X278157352Y-78503519D01*
X278204971Y-78598757D01*
X278204971Y-78693995D01*
X278157352Y-78789233D01*
X278109733Y-78836852D01*
X278014495Y-78884471D01*
X277681161Y-78884471D01*
X279109733Y-79408281D02*
X279109733Y-78884471D01*
X279062114Y-78789233D01*
X278966876Y-78741614D01*
X278776399Y-78741614D01*
X278681161Y-78789233D01*
X279109733Y-79360662D02*
X279014495Y-79408281D01*
X278776399Y-79408281D01*
X278681161Y-79360662D01*
X278633542Y-79265424D01*
X278633542Y-79170186D01*
X278681161Y-79074948D01*
X278776399Y-79027329D01*
X279014495Y-79027329D01*
X279109733Y-78979710D01*
X279538304Y-79360662D02*
X279633542Y-79408281D01*
X279824018Y-79408281D01*
X279919257Y-79360662D01*
X279966876Y-79265424D01*
X279966876Y-79217805D01*
X279919257Y-79122567D01*
X279824018Y-79074948D01*
X279681161Y-79074948D01*
X279585923Y-79027329D01*
X279538304Y-78932090D01*
X279538304Y-78884471D01*
X279585923Y-78789233D01*
X279681161Y-78741614D01*
X279824018Y-78741614D01*
X279919257Y-78789233D01*
X280776400Y-79360662D02*
X280681162Y-79408281D01*
X280490685Y-79408281D01*
X280395447Y-79360662D01*
X280347828Y-79265424D01*
X280347828Y-78884471D01*
X280395447Y-78789233D01*
X280490685Y-78741614D01*
X280681162Y-78741614D01*
X280776400Y-78789233D01*
X280824019Y-78884471D01*
X280824019Y-78979710D01*
X280347828Y-79074948D01*
X281681162Y-79408281D02*
X281681162Y-78408281D01*
X281681162Y-79360662D02*
X281585924Y-79408281D01*
X281395447Y-79408281D01*
X281300209Y-79360662D01*
X281252590Y-79313043D01*
X281204971Y-79217805D01*
X281204971Y-78932090D01*
X281252590Y-78836852D01*
X281300209Y-78789233D01*
X281395447Y-78741614D01*
X281585924Y-78741614D01*
X281681162Y-78789233D01*
X283062114Y-79408281D02*
X282966876Y-79360662D01*
X282919257Y-79313043D01*
X282871638Y-79217805D01*
X282871638Y-78932090D01*
X282919257Y-78836852D01*
X282966876Y-78789233D01*
X283062114Y-78741614D01*
X283204972Y-78741614D01*
X283300210Y-78789233D01*
X283347829Y-78836852D01*
X283395448Y-78932090D01*
X283395448Y-79217805D01*
X283347829Y-79313043D01*
X283300210Y-79360662D01*
X283204972Y-79408281D01*
X283062114Y-79408281D01*
X283824019Y-78741614D02*
X283824019Y-79408281D01*
X283824019Y-78836852D02*
X283871638Y-78789233D01*
X283966876Y-78741614D01*
X284109734Y-78741614D01*
X284204972Y-78789233D01*
X284252591Y-78884471D01*
X284252591Y-79408281D01*
X285490686Y-79408281D02*
X285490686Y-78408281D01*
X286538305Y-79313043D02*
X286490686Y-79360662D01*
X286347829Y-79408281D01*
X286252591Y-79408281D01*
X286109733Y-79360662D01*
X286014495Y-79265424D01*
X285966876Y-79170186D01*
X285919257Y-78979710D01*
X285919257Y-78836852D01*
X285966876Y-78646376D01*
X286014495Y-78551138D01*
X286109733Y-78455900D01*
X286252591Y-78408281D01*
X286347829Y-78408281D01*
X286490686Y-78455900D01*
X286538305Y-78503519D01*
X286966876Y-78884471D02*
X287300210Y-78884471D01*
X287443067Y-79408281D02*
X286966876Y-79408281D01*
X286966876Y-78408281D01*
X287443067Y-78408281D01*
X287871638Y-79408281D02*
X287871638Y-78408281D01*
X288109733Y-78408281D01*
X288252591Y-78455900D01*
X288347829Y-78551138D01*
X288395448Y-78646376D01*
X288443067Y-78836852D01*
X288443067Y-78979710D01*
X288395448Y-79170186D01*
X288347829Y-79265424D01*
X288252591Y-79360662D01*
X288109733Y-79408281D01*
X287871638Y-79408281D01*
X288871638Y-79027329D02*
X289633543Y-79027329D01*
X290585924Y-79408281D02*
X290109733Y-79408281D01*
X290109733Y-78408281D01*
X292252591Y-79408281D02*
X291919257Y-78932090D01*
X291681162Y-79408281D02*
X291681162Y-78408281D01*
X292062115Y-78408281D01*
X292157353Y-78455900D01*
X292204972Y-78503519D01*
X292252591Y-78598757D01*
X292252591Y-78741614D01*
X292204972Y-78836852D01*
X292157353Y-78884471D01*
X292062115Y-78932090D01*
X291681162Y-78932090D01*
X293062115Y-79360662D02*
X292966877Y-79408281D01*
X292776400Y-79408281D01*
X292681162Y-79360662D01*
X292633543Y-79265424D01*
X292633543Y-78884471D01*
X292681162Y-78789233D01*
X292776400Y-78741614D01*
X292966877Y-78741614D01*
X293062115Y-78789233D01*
X293109734Y-78884471D01*
X293109734Y-78979710D01*
X292633543Y-79074948D01*
X293443067Y-78741614D02*
X293681162Y-79408281D01*
X293919258Y-78741614D01*
X295585925Y-79408281D02*
X295014496Y-79408281D01*
X295300210Y-79408281D02*
X295300210Y-78408281D01*
X295204972Y-78551138D01*
X295109734Y-78646376D01*
X295014496Y-78693995D01*
X296014496Y-79313043D02*
X296062115Y-79360662D01*
X296014496Y-79408281D01*
X295966877Y-79360662D01*
X296014496Y-79313043D01*
X296014496Y-79408281D01*
X297014496Y-79408281D02*
X296443067Y-79408281D01*
X296728781Y-79408281D02*
X296728781Y-78408281D01*
X296633543Y-78551138D01*
X296538305Y-78646376D01*
X296443067Y-78693995D01*
X297871639Y-79408281D02*
X297871639Y-78408281D01*
X297871639Y-79360662D02*
X297776401Y-79408281D01*
X297585924Y-79408281D01*
X297490686Y-79360662D01*
X297443067Y-79313043D01*
X297395448Y-79217805D01*
X297395448Y-78932090D01*
X297443067Y-78836852D01*
X297490686Y-78789233D01*
X297585924Y-78741614D01*
X297776401Y-78741614D01*
X297871639Y-78789233D01*
M02*
