M48
;DRILL file {KiCad 4.0.1-stable} date 2/8/2016 10:39:09 PM
;FORMAT={-:-/ absolute / metric / decimal}
FMAT,2
METRIC,TZ
T1C0.305
T2C0.400
T3C0.500
T4C0.600
T5C0.800
T6C1.000
T7C1.500
%
G90
G05
M71
T1
X58.141Y-134.912
X58.141Y-134.912
X58.979Y-82.207
X66.675Y-120.231
X66.789Y-95.047
X70.002Y-75.019
X70.587Y-97.028
X74.701Y-95.466
X75.717Y-115.659
X75.844Y-77.94
X76.352Y-72.581
X76.733Y-76.67
X78.511Y-74.638
X79.146Y-118.961
X80.086Y-72.809
X80.416Y-66.789
X80.789Y-78.998
X81.036Y-70.234
X81.813Y-140.043
X81.813Y-140.043
X82.829Y-159.22
X83.998Y-72.428
X84.125Y-71.387
X84.353Y-69.05
X84.861Y-70.447
X85.496Y-78.956
X86.258Y-94.069
X90.576Y-130.95
X90.957Y-79.083
X91.973Y-73.495
X91.973Y-79.591
X92.481Y-87.846
X92.989Y-65.748
X93.094Y-79.082
X94.118Y-79.638
X94.513Y-78.702
X94.513Y-83.782
X95.275Y-78.067
X95.275Y-85.433
X95.529Y-66.637
X95.91Y-79.21
X96.164Y-67.78
X96.596Y-65.926
X97.18Y-77.686
X98.196Y-76.924
X98.958Y-77.432
X99.023Y-65.813
X99.466Y-80.073
X100.99Y-102.21
X101.371Y-104.102
X101.868Y-102.743
X101.879Y-75.527
X102.26Y-91.529
X102.895Y-120.866
X103.632Y-76.01
X104.851Y-71.691
X104.927Y-91.783
X105.054Y-67.653
X105.073Y-69.939
X105.181Y-82.893
X105.613Y-73.088
X105.727Y-68.199
X105.791Y-73.927
X105.816Y-101.333
X105.918Y-69.939
X106.807Y-74.993
X107.086Y-99.403
X107.176Y-69.52
X107.264Y-74.231
X107.848Y-79.591
X108.102Y-74.358
X108.306Y-63.411
X108.61Y-86.322
X108.61Y-80.48
X109.186Y-78.769
X109.245Y-81.115
X109.441Y-149.949
X109.88Y-79.591
X111.15Y-97.625
X111.531Y-79.337
X111.811Y-75.12
X113.284Y-93.053
X114.833Y-85.077
X115.57Y-94.424
X116.446Y-72.568
X116.484Y-70.666
X116.713Y-95.491
X117.018Y-71.488
X117.716Y-85.933
X117.958Y-96.203
X118.897Y-106.007
X119.024Y-107.912
X119.913Y-118.707
X120.167Y-105.88
X120.548Y-104.356
X120.929Y-74.638
X121.564Y-104.356
X121.945Y-92.926
X123.317Y-67.132
X123.469Y-104.102
X124.104Y-103.086
X126.136Y-148.933
X130.073Y-78.676
X131.343Y-75.611
X132.359Y-107.15
X134.201Y-118.707
X134.353Y-77.038
X135.026Y-77.813
X137.668Y-135.979
X137.693Y-98.717
X138.201Y-142.964
X140.208Y-65.938
X141.63Y-101.435
X142.519Y-92.926
X143.269Y-83.515
X143.916Y-93.434
X144.043Y-85.052
X144.97Y-169.774
X145.606Y-78.067
X146.964Y-93.053
X147.053Y-72.466
X147.091Y-71.412
X148.13Y-70.701
X148.488Y-99.657
X148.501Y-69.507
X149.123Y-158.585
X150.266Y-152.616
X150.978Y-68.986
X152.362Y-71.768
X156.108Y-101.435
X156.743Y-156.553
X161.214Y-93.942
X164.503Y-73.466
X166.7Y-152.667
X167.157Y-113.5
X167.45Y-129.629
X168.046Y-154.267
X172.403Y-89.611
X172.618Y-91.402
X173.457Y-129.057
X173.761Y-150.584
X183.921Y-106.845
X184.887Y-100.292
X189.509Y-118.199
X190.895Y-98.456
X192.557Y-127.597
X195.478Y-99.53
X197.714Y-134.201
X197.843Y-73.791
X198.145Y-74.892
X198.425Y-139.408
X199.288Y-77.94
X199.542Y-132.804
X200.215Y-94.31
X200.685Y-117.945
X200.939Y-94.958
X202.006Y-139.611
X202.082Y-136.487
X202.286Y-123.05
X202.971Y-148.933
X203.352Y-75.019
X203.606Y-150.457
X205.003Y-77.686
X206.019Y-111.722
X209.702Y-72.581
X210.083Y-76.67
X211.353Y-115.278
X211.861Y-74.638
X213.436Y-72.809
X214.139Y-78.998
X214.386Y-70.234
X214.401Y-107.785
X216.052Y-117.691
X216.179Y-159.482
X216.306Y-99.53
X217.195Y-95.466
X217.348Y-72.428
X217.475Y-71.387
X217.703Y-69.05
X218.211Y-70.447
X218.846Y-78.956
X219.608Y-94.069
X219.608Y-140.424
X221.259Y-68.415
X222.529Y-119.636
X223.799Y-149.7
X224.307Y-79.083
X225.323Y-73.495
X225.323Y-79.591
X225.577Y-80.785
X225.742Y-96.939
X225.831Y-87.846
X226.339Y-65.748
X226.444Y-79.082
X227.468Y-79.638
X227.736Y-82.893
X227.863Y-78.702
X228.6Y-111.011
X228.625Y-78.067
X228.625Y-85.433
X228.752Y-103.34
X228.755Y-99.809
X228.879Y-66.637
X229.26Y-79.21
X229.514Y-67.78
X229.641Y-99.276
X229.946Y-65.926
X230.53Y-77.686
X231.546Y-76.924
X231.61Y-146.075
X232.308Y-77.432
X232.373Y-65.813
X232.816Y-80.073
X234.34Y-102.21
X234.34Y-82.258
X234.721Y-104.102
X235.102Y-120.981
X235.218Y-102.743
X235.229Y-75.527
X235.61Y-90.64
X236.982Y-76.01
X238.201Y-71.691
X238.423Y-69.939
X238.582Y-67.399
X238.658Y-92.672
X238.963Y-73.088
X239.141Y-73.927
X239.166Y-101.333
X239.268Y-69.939
X240.157Y-74.993
X240.526Y-69.52
X240.538Y-68.669
X240.614Y-74.231
X241.198Y-79.591
X241.452Y-74.358
X241.656Y-63.411
X241.928Y-86.355
X241.96Y-80.48
X242.341Y-94.704
X242.341Y-92.418
X242.536Y-78.769
X242.595Y-81.115
X243.134Y-78.297
X243.738Y-79.591
X243.865Y-78.575
X244.5Y-97.625
X244.881Y-79.337
X245.161Y-75.12
X248.183Y-85.077
X248.945Y-87.971
X249.623Y-92.757
X249.885Y-72.581
X249.961Y-70.574
X250.469Y-93.561
X250.647Y-71.387
X250.647Y-71.387
X251.358Y-94.323
X252.247Y-106.007
X252.374Y-107.912
X253.009Y-93.942
X253.517Y-105.88
X253.898Y-104.356
X254.279Y-74.638
X254.787Y-91.275
X254.914Y-104.356
X255.549Y-95.669
X255.803Y-151.219
X256.667Y-67.297
X256.819Y-104.102
X257.454Y-103.086
X259.575Y-152.324
X261.01Y-104.737
X263.131Y-94.564
X263.423Y-78.676
X264.058Y-108.42
X264.211Y-75.128
X265.836Y-153.491
X265.913Y-155.194
X266.344Y-76.721
X266.979Y-77.559
X268.757Y-91.402
X269.265Y-99.657
X271.615Y-83.718
X271.666Y-67.831
X274.218Y-110.566
X274.218Y-117.437
X274.98Y-101.435
X275.996Y-66.142
X277.393Y-85.052
X278.028Y-98.768
X279.171Y-135.344
X279.857Y-97.625
X279.946Y-74.638
X280.772Y-155.181
X281.457Y-70.612
X281.584Y-151.981
X282.435Y-72.936
X282.943Y-70.091
X283.39Y-69.325
X285.966Y-69.164
X287.134Y-71.806
X288.188Y-94.831
X288.188Y-99.657
X290.017Y-68.097
X305.803Y-75.827
X308.635Y-120.421
X310.972Y-139.446
X318.16Y-94.704
X319.938Y-96.863
X339.877Y-122.644
X340.919Y-94.818
X341.376Y-143.98
X341.833Y-123.52
X342.151Y-150.063
X342.417Y-97.625
T2
X146.626Y-66.656
X147.026Y-65.956
X147.826Y-65.956
X148.226Y-66.656
X148.626Y-65.956
X149.026Y-66.656
X149.826Y-66.656
X150.226Y-65.956
X150.626Y-66.656
X151.026Y-65.956
X151.826Y-65.956
X152.226Y-66.656
X281.476Y-66.824
X281.876Y-66.124
X282.676Y-66.124
X283.076Y-66.824
X283.476Y-66.124
X283.876Y-66.824
X284.676Y-66.824
X285.076Y-66.124
X285.476Y-66.824
X285.876Y-66.124
X286.676Y-66.124
X287.076Y-66.824
T5
X62.763Y-80.607
X65.144Y-118.707
X65.144Y-137.757
X65.144Y-156.807
X65.303Y-80.607
X67.526Y-99.357
X67.526Y-156.807
X67.684Y-118.707
X67.684Y-137.757
X67.684Y-156.807
X69.907Y-118.707
X70.066Y-99.357
X70.066Y-156.807
X72.447Y-118.707
X74.669Y-137.757
X77.209Y-137.757
X81.814Y-80.607
X84.354Y-80.607
X86.576Y-137.757
X86.576Y-156.807
X88.957Y-156.807
X89.116Y-137.757
X89.116Y-156.807
X91.338Y-99.357
X91.338Y-156.807
X91.497Y-156.807
X93.878Y-99.357
X93.878Y-156.807
X96.101Y-118.707
X98.641Y-118.707
X100.863Y-80.607
X103.403Y-80.607
X105.625Y-137.757
X105.625Y-156.807
X108.165Y-137.757
X108.165Y-156.807
X110.388Y-99.357
X110.388Y-156.807
X112.769Y-156.807
X112.928Y-99.357
X112.928Y-156.807
X115.151Y-118.707
X115.151Y-156.807
X115.309Y-156.807
X117.691Y-118.707
X117.691Y-156.807
X119.913Y-80.607
X122.453Y-80.607
X124.675Y-137.757
X127.057Y-156.807
X127.215Y-137.757
X129.438Y-99.657
X129.438Y-156.807
X129.597Y-156.807
X131.978Y-99.657
X131.978Y-156.807
X134.201Y-118.707
X134.201Y-156.807
X136.582Y-156.807
X136.741Y-118.707
X136.741Y-156.807
X138.963Y-80.607
X138.963Y-156.807
X139.122Y-156.807
X141.344Y-156.807
X141.503Y-80.607
X141.503Y-156.807
X143.726Y-137.757
X143.884Y-156.807
X146.266Y-137.757
X148.488Y-99.657
X150.869Y-156.807
X151.028Y-99.657
X153.25Y-118.707
X153.409Y-156.807
X155.79Y-118.707
X158.013Y-80.607
X160.553Y-80.607
X162.775Y-137.757
X165.157Y-156.807
X165.315Y-137.757
X167.538Y-99.657
X167.697Y-156.807
X169.919Y-156.807
X170.078Y-99.657
X172.3Y-118.707
X172.3Y-156.807
X172.459Y-156.807
X174.84Y-118.707
X174.84Y-156.807
X177.063Y-80.607
X179.603Y-80.607
X181.825Y-137.757
X181.825Y-156.807
X184.365Y-137.757
X184.365Y-156.807
X186.588Y-99.657
X189.128Y-99.657
X191.35Y-118.707
X193.89Y-118.707
X196.113Y-80.607
X198.653Y-80.607
X200.876Y-137.757
X203.416Y-137.757
X205.638Y-99.657
X208.178Y-99.657
X210.401Y-118.707
X210.401Y-156.807
X212.782Y-156.807
X212.941Y-118.707
X212.941Y-156.807
X215.163Y-80.607
X215.322Y-156.807
X217.544Y-156.807
X217.703Y-80.607
X219.926Y-137.757
X220.084Y-156.807
X222.466Y-137.757
X224.688Y-99.657
X227.228Y-99.657
X229.451Y-118.707
X231.991Y-118.707
X234.213Y-80.607
X236.753Y-80.607
X238.975Y-137.757
X241.357Y-156.807
X241.515Y-137.757
X243.738Y-99.657
X243.738Y-156.807
X243.897Y-156.807
X246.119Y-156.807
X246.278Y-99.657
X246.278Y-156.807
X248.501Y-118.707
X248.501Y-156.807
X248.659Y-156.807
X251.041Y-118.707
X251.041Y-156.807
X253.263Y-80.607
X253.263Y-156.807
X255.644Y-156.807
X255.803Y-80.607
X255.803Y-156.807
X258.025Y-137.757
X258.025Y-156.807
X258.184Y-156.807
X260.565Y-137.757
X260.565Y-156.807
X262.788Y-99.657
X265.169Y-156.807
X265.328Y-99.657
X267.551Y-118.707
X267.709Y-156.807
X269.932Y-156.807
X270.091Y-118.707
X272.313Y-80.607
X272.313Y-156.807
X272.472Y-156.807
X274.853Y-80.607
X274.853Y-156.807
X277.076Y-137.757
X277.076Y-156.807
X279.457Y-156.807
X279.616Y-137.757
X279.616Y-156.807
X281.838Y-99.657
X281.997Y-156.807
X284.378Y-99.657
X286.6Y-118.707
X286.6Y-156.807
X288.982Y-156.807
X289.14Y-118.707
X289.14Y-156.807
X291.363Y-80.607
X291.363Y-156.807
X291.522Y-156.807
X293.903Y-80.607
X293.903Y-156.807
X300.888Y-99.657
X303.269Y-137.757
X303.269Y-156.807
X303.428Y-99.657
X305.65Y-118.707
X305.809Y-137.757
X305.809Y-156.807
X308.19Y-118.707
X310.413Y-80.607
X310.413Y-156.807
X312.794Y-137.757
X312.953Y-80.607
X312.953Y-156.807
X315.334Y-137.757
X317.557Y-118.707
X319.938Y-80.607
X320.097Y-118.707
X322.478Y-80.607
X323.272Y-112.992
X323.272Y-115.532
X324.7Y-99.657
X327.082Y-118.707
X327.082Y-156.807
X327.24Y-99.657
X329.463Y-80.607
X329.463Y-137.757
X329.463Y-156.807
X329.622Y-118.707
X329.622Y-156.807
X332.003Y-80.607
X332.003Y-137.757
X332.003Y-156.807
X348.513Y-80.607
X348.513Y-99.657
X348.513Y-118.707
X348.513Y-137.757
X348.513Y-156.807
X351.053Y-80.607
X351.053Y-99.657
X351.053Y-118.707
X351.053Y-137.757
X351.053Y-156.807
T6
X90.83Y-114.516
X93.37Y-114.516
X95.91Y-114.516
X98.45Y-114.516
X100.99Y-114.516
X103.53Y-114.516
X106.07Y-114.516
X108.61Y-114.516
X111.15Y-114.516
X113.69Y-114.516
X116.23Y-114.516
X123.85Y-114.516
X126.39Y-114.516
X128.93Y-114.516
X131.47Y-114.516
X224.18Y-114.516
X226.72Y-114.516
X229.26Y-114.516
X231.8Y-114.516
X234.34Y-114.516
X236.88Y-114.516
X239.42Y-114.516
X241.96Y-114.516
X244.5Y-114.516
X247.04Y-114.516
X249.58Y-114.516
X257.2Y-114.516
X259.74Y-114.516
X262.28Y-114.516
X264.82Y-114.516
T7
X283.235Y-165.887
X284.745Y-164.227
X292.86Y-165.887
X294.17Y-164.427
X295.576Y-166.256
X296.551Y-164.427
T3
X144.936Y-59.806G85X144.936Y-60.406
G05
X145.296Y-65.756G85X145.296Y-66.356
G05
X153.556Y-65.756G85X153.556Y-66.356
G05
X153.916Y-59.806G85X153.916Y-60.406
G05
X279.786Y-59.974G85X279.786Y-60.574
G05
X280.146Y-65.924G85X280.146Y-66.524
G05
X288.406Y-65.924G85X288.406Y-66.524
G05
X288.766Y-59.974G85X288.766Y-60.574
G05
T4
X160.908Y-69.256G85X160.908Y-70.856
G05
X176.708Y-69.256G85X176.708Y-70.856
G05
X295.758Y-69.256G85X295.758Y-70.856
G05
X311.558Y-69.256G85X311.558Y-70.856
G05
T7
X61.494Y-90.766G85X61.533Y-90.188
G05
X63.875Y-128.866G85X63.914Y-128.288
G05
X63.875Y-147.916G85X63.914Y-147.338
G05
X63.875Y-166.966G85X63.914Y-166.388
G05
X66.257Y-109.816G85X66.296Y-109.238
G05
X66.257Y-166.966G85X66.296Y-166.388
G05
X67.033Y-89.687G85X67.844Y-88.227
G05
X68.698Y-128.967G85X70.155Y-126.345
G05
X69.414Y-146.837G85X70.225Y-145.377
G05
X69.414Y-165.887G85X70.225Y-164.427
G05
X71.796Y-108.737G85X72.607Y-107.277
G05
X71.796Y-165.887G85X72.607Y-164.427
G05
X73.4Y-147.916G85X73.439Y-147.338
G05
X74.177Y-127.787G85X74.988Y-126.327
G05
X78.939Y-146.837G85X79.75Y-145.377
G05
X80.544Y-90.766G85X80.583Y-90.188
G05
X85.307Y-147.916G85X85.346Y-147.338
G05
X85.307Y-166.966G85X85.346Y-166.388
G05
X86.083Y-89.687G85X86.894Y-88.227
G05
X87.688Y-166.966G85X87.727Y-166.388
G05
X90.069Y-109.746G85X90.108Y-109.168
G05
X90.378Y-166.823G85X91.675Y-164.489
G05
X90.846Y-146.837G85X91.657Y-145.377
G05
X93.227Y-165.887G85X94.038Y-164.427
G05
X94.832Y-128.866G85X94.871Y-128.288
G05
X95.608Y-108.667G85X96.419Y-107.207
G05
X95.621Y-165.887G85X96.432Y-164.427
G05
X99.594Y-90.766G85X99.633Y-90.188
G05
X100.371Y-127.787G85X101.182Y-126.327
G05
X104.356Y-147.916G85X104.395Y-147.338
G05
X104.356Y-166.966G85X104.395Y-166.388
G05
X105.133Y-89.687G85X105.944Y-88.227
G05
X109.119Y-109.816G85X109.158Y-109.238
G05
X109.278Y-166.723G85X110.575Y-164.389
G05
X109.895Y-146.837G85X110.706Y-145.377
G05
X111.5Y-166.966G85X111.539Y-166.388
G05
X113.882Y-128.866G85X113.921Y-128.288
G05
X114.278Y-166.723G85X115.575Y-164.389
G05
X114.658Y-108.737G85X115.469Y-107.277
G05
X116.921Y-165.887G85X117.732Y-164.427
G05
X118.644Y-90.766G85X118.683Y-90.188
G05
X119.421Y-127.787G85X120.232Y-126.327
G05
X119.521Y-165.887G85X120.332Y-164.427
G05
X123.406Y-147.916G85X123.445Y-147.338
G05
X124.183Y-89.687G85X124.994Y-88.227
G05
X125.788Y-166.966G85X125.827Y-166.388
G05
X128.169Y-109.816G85X128.208Y-109.238
G05
X128.169Y-166.966G85X128.208Y-166.388
G05
X128.945Y-146.837G85X129.756Y-145.377
G05
X131.327Y-165.887G85X132.138Y-164.427
G05
X132.932Y-128.866G85X132.971Y-128.288
G05
X133.178Y-166.723G85X134.475Y-164.389
G05
X133.708Y-108.737G85X134.519Y-107.277
G05
X135.207Y-166.966G85X135.246Y-166.388
G05
X137.694Y-90.766G85X137.733Y-90.188
G05
X137.978Y-166.723G85X139.275Y-164.389
G05
X138.471Y-127.787G85X139.282Y-126.327
G05
X140.078Y-166.823G85X141.375Y-164.489
G05
X142.457Y-147.916G85X142.496Y-147.338
G05
X143.233Y-89.687G85X144.044Y-88.227
G05
X143.521Y-165.887G85X144.332Y-164.427
G05
X145.614Y-165.887G85X146.425Y-164.427
G05
X147.219Y-109.816G85X147.258Y-109.238
G05
X147.996Y-146.837G85X148.807Y-145.377
G05
X149.6Y-166.966G85X149.639Y-166.388
G05
X151.981Y-128.866G85X152.02Y-128.288
G05
X152.758Y-108.737G85X153.569Y-107.277
G05
X155.139Y-165.887G85X155.95Y-164.427
G05
X156.744Y-90.766G85X156.783Y-90.188
G05
X157.52Y-127.787G85X158.331Y-126.327
G05
X161.506Y-147.916G85X161.545Y-147.338
G05
X162.283Y-89.687G85X163.094Y-88.227
G05
X163.888Y-166.966G85X163.927Y-166.388
G05
X166.269Y-109.816G85X166.308Y-109.238
G05
X167.045Y-146.837G85X167.856Y-145.377
G05
X168.698Y-167.167G85X170.155Y-164.545
G05
X171.031Y-128.866G85X171.07Y-128.288
G05
X171.031Y-166.966G85X171.07Y-166.388
G05
X171.808Y-108.737G85X172.619Y-107.277
G05
X174.189Y-165.887G85X175.Y-164.427
G05
X175.794Y-90.766G85X175.833Y-90.188
G05
X176.57Y-127.787G85X177.381Y-126.327
G05
X176.57Y-165.887G85X177.381Y-164.427
G05
X180.556Y-147.916G85X180.595Y-147.338
G05
X180.556Y-166.966G85X180.595Y-166.388
G05
X181.333Y-89.687G85X182.144Y-88.227
G05
X185.319Y-109.816G85X185.358Y-109.238
G05
X186.095Y-146.837G85X186.906Y-145.377
G05
X186.095Y-165.887G85X186.906Y-164.427
G05
X190.081Y-128.866G85X190.12Y-128.288
G05
X190.858Y-108.737G85X191.669Y-107.277
G05
X194.844Y-90.766G85X194.883Y-90.188
G05
X195.62Y-127.787G85X196.431Y-126.327
G05
X199.607Y-147.916G85X199.646Y-147.338
G05
X200.383Y-89.687G85X201.194Y-88.227
G05
X204.369Y-109.746G85X204.408Y-109.168
G05
X205.146Y-146.837G85X205.957Y-145.377
G05
X209.132Y-128.866G85X209.171Y-128.288
G05
X209.132Y-166.966G85X209.171Y-166.388
G05
X209.908Y-108.667G85X210.719Y-107.207
G05
X211.513Y-166.966G85X211.552Y-166.388
G05
X213.894Y-90.766G85X213.933Y-90.188
G05
X214.671Y-127.787G85X215.482Y-126.327
G05
X214.671Y-165.887G85X215.482Y-164.427
G05
X216.348Y-167.067G85X217.805Y-164.445
G05
X218.657Y-147.916G85X218.696Y-147.338
G05
X219.433Y-89.687G85X220.244Y-88.227
G05
X221.814Y-165.887G85X222.625Y-164.427
G05
X223.419Y-109.816G85X223.458Y-109.238
G05
X224.196Y-146.837G85X225.007Y-145.377
G05
X228.182Y-128.866G85X228.221Y-128.288
G05
X228.958Y-108.737G85X229.769Y-107.277
G05
X232.944Y-90.766G85X232.983Y-90.188
G05
X233.721Y-127.787G85X234.532Y-126.327
G05
X237.706Y-147.916G85X237.745Y-147.338
G05
X238.483Y-89.687G85X239.294Y-88.227
G05
X240.088Y-166.966G85X240.127Y-166.388
G05
X242.469Y-109.816G85X242.508Y-109.238
G05
X242.469Y-166.966G85X242.508Y-166.388
G05
X243.245Y-146.837G85X244.056Y-145.377
G05
X245.228Y-166.823G85X246.525Y-164.489
G05
X247.232Y-128.866G85X247.271Y-128.288
G05
X247.285Y-167.067G85X248.742Y-164.445
G05
X248.008Y-108.737G85X248.819Y-107.277
G05
X250.671Y-165.887G85X251.482Y-164.427
G05
X251.994Y-90.766G85X252.033Y-90.188
G05
X252.048Y-167.067G85X253.505Y-164.445
G05
X252.771Y-127.787G85X253.582Y-126.327
G05
X254.375Y-166.966G85X254.414Y-166.388
G05
X256.756Y-147.916G85X256.795Y-147.338
G05
X256.71Y-167.067G85X258.167Y-164.445
G05
X257.533Y-89.687G85X258.344Y-88.227
G05
X260.014Y-165.887G85X260.825Y-164.427
G05
X261.519Y-109.816G85X261.558Y-109.238
G05
X261.995Y-165.887G85X262.806Y-164.427
G05
X262.295Y-146.837G85X263.106Y-145.377
G05
X264.2Y-166.966G85X264.239Y-166.388
G05
X266.282Y-128.866G85X266.321Y-128.288
G05
X267.058Y-108.737G85X267.869Y-107.277
G05
X268.604Y-167.067G85X270.061Y-164.445
G05
X271.044Y-90.766G85X271.083Y-90.188
G05
X271.044Y-166.966G85X271.083Y-166.388
G05
X271.821Y-127.787G85X272.632Y-126.327
G05
X274.202Y-165.887G85X275.013Y-164.427
G05
X275.807Y-147.916G85X275.846Y-147.338
G05
X275.748Y-167.067G85X277.205Y-164.445
G05
X276.583Y-89.687G85X277.394Y-88.227
G05
X278.188Y-166.966G85X278.227Y-166.388
G05
X280.569Y-109.816G85X280.608Y-109.238
G05
X281.346Y-146.837G85X282.157Y-145.377
G05
X281.346Y-165.887G85X282.157Y-164.427
G05
X285.331Y-128.866G85X285.37Y-128.288
G05
X285.457Y-166.966G85X285.496Y-166.388
G05
X286.108Y-108.737G85X286.919Y-107.277
G05
X287.513Y-166.966G85X287.552Y-166.388
G05
X290.094Y-90.766G85X290.133Y-90.188
G05
X290.327Y-166.823G85X291.624Y-164.489
G05
X290.87Y-127.787G85X291.681Y-126.327
G05
X295.633Y-89.687G85X296.444Y-88.227
G05
X299.619Y-109.816G85X299.658Y-109.238
G05
X302.Y-147.916G85X302.039Y-147.338
G05
X302.Y-166.966G85X302.039Y-166.388
G05
X304.381Y-128.866G85X304.42Y-128.288
G05
X305.158Y-108.737G85X305.969Y-107.277
G05
X307.539Y-146.837G85X308.35Y-145.377
G05
X307.539Y-165.887G85X308.35Y-164.427
G05
X309.144Y-90.766G85X309.183Y-90.188
G05
X309.144Y-166.966G85X309.183Y-166.388
G05
X309.92Y-127.787G85X310.731Y-126.327
G05
X311.525Y-147.916G85X311.564Y-147.338
G05
X314.683Y-89.687G85X315.494Y-88.227
G05
X314.683Y-165.887G85X315.494Y-164.427
G05
X316.288Y-128.866G85X316.327Y-128.288
G05
X317.064Y-146.837G85X317.875Y-145.377
G05
X318.669Y-90.766G85X318.708Y-90.188
G05
X321.827Y-127.787G85X322.638Y-126.327
G05
X323.431Y-109.943G85X323.47Y-109.365
G05
X324.208Y-89.687G85X325.019Y-88.227
G05
X325.813Y-128.866G85X325.852Y-128.288
G05
X325.813Y-166.966G85X325.852Y-166.388
G05
X328.194Y-90.766G85X328.233Y-90.188
G05
X328.194Y-147.916G85X328.233Y-147.338
G05
X328.194Y-166.966G85X328.233Y-166.388
G05
X328.97Y-108.864G85X329.781Y-107.404
G05
X332.352Y-111.262G85X330.892Y-110.451
G05
X331.352Y-127.787G85X332.163Y-126.327
G05
X331.352Y-165.887G85X332.163Y-164.427
G05
X333.432Y-116.802G85X332.853Y-116.762
G05
X333.733Y-89.687G85X334.544Y-88.227
G05
X333.733Y-146.837G85X334.544Y-145.377
G05
X333.733Y-165.887G85X334.544Y-164.427
G05
X347.244Y-90.766G85X347.283Y-90.188
G05
X347.244Y-109.816G85X347.283Y-109.238
G05
X347.244Y-128.866G85X347.283Y-128.288
G05
X347.244Y-147.916G85X347.283Y-147.338
G05
X347.244Y-166.966G85X347.283Y-166.388
G05
X352.783Y-89.687G85X353.594Y-88.227
G05
X352.783Y-108.737G85X353.594Y-107.277
G05
X352.783Y-127.787G85X353.594Y-126.327
G05
X352.783Y-146.837G85X353.594Y-145.377
G05
X352.783Y-165.887G85X353.594Y-164.427
G05
T0
M30
