G04 #@! TF.FileFunction,Paste,Bot*
%FSLAX46Y46*%
G04 Gerber Fmt 4.6, Leading zero omitted, Abs format (unit mm)*
G04 Created by KiCad (PCBNEW 4.0.1-stable) date 2/25/2016 3:38:44 PM*
%MOMM*%
G01*
G04 APERTURE LIST*
%ADD10C,0.150000*%
%ADD11R,0.300000X0.700000*%
%ADD12R,1.198880X1.198880*%
%ADD13R,1.000000X1.250000*%
%ADD14R,1.250000X1.000000*%
%ADD15R,0.850900X1.000760*%
%ADD16R,1.800000X1.100000*%
%ADD17R,1.430000X0.400000*%
%ADD18R,0.300000X1.500000*%
%ADD19R,1.500000X0.300000*%
%ADD20R,1.200000X1.400000*%
%ADD21O,1.800000X3.500000*%
%ADD22R,0.700000X1.800000*%
%ADD23R,1.640000X2.200000*%
%ADD24R,0.950000X1.900000*%
%ADD25R,3.250000X1.900000*%
%ADD26R,1.000760X0.850900*%
%ADD27R,1.490000X0.600000*%
%ADD28R,1.490000X0.740000*%
%ADD29R,2.651760X2.029460*%
%ADD30R,0.550000X0.800000*%
%ADD31R,1.651000X1.000000*%
%ADD32R,1.000000X1.651000*%
G04 APERTURE END LIST*
D10*
D11*
X287026400Y-68134200D03*
X286526400Y-68134200D03*
X286026400Y-68134200D03*
X285526400Y-68134200D03*
X285026400Y-68134200D03*
X284526400Y-68134200D03*
X284026400Y-68134200D03*
X283526400Y-68134200D03*
X283026400Y-68134200D03*
X282526400Y-68134200D03*
X282026400Y-68134200D03*
X281526400Y-68134200D03*
X152176400Y-67965900D03*
X151676400Y-67965900D03*
X151176400Y-67965900D03*
X150676400Y-67965900D03*
X150176400Y-67965900D03*
X149676400Y-67965900D03*
X149176400Y-67965900D03*
X148676400Y-67965900D03*
X148176400Y-67965900D03*
X147676400Y-67965900D03*
X147176400Y-67965900D03*
X146676400Y-67965900D03*
D12*
X251993400Y-72892920D03*
X251993400Y-70794880D03*
D13*
X81400400Y-77558900D03*
X79400400Y-77558900D03*
D14*
X129997200Y-73910700D03*
X129997200Y-71910700D03*
D13*
X92116400Y-64731900D03*
X94116400Y-64731900D03*
D14*
X118643400Y-68271900D03*
X118643400Y-66271900D03*
D15*
X137122400Y-83934300D03*
X137122400Y-87434420D03*
D16*
X68045400Y-76157700D03*
X68045400Y-72457700D03*
X74245400Y-76157700D03*
X74245400Y-72457700D03*
D17*
X89926400Y-66983900D03*
X89926400Y-67633900D03*
X89926400Y-68283900D03*
X89926400Y-68933900D03*
X89926400Y-69583900D03*
X89926400Y-70233900D03*
X89926400Y-70883900D03*
X89926400Y-71533900D03*
X89926400Y-72183900D03*
X89926400Y-72833900D03*
X89926400Y-73483900D03*
X89926400Y-74133900D03*
X89926400Y-74783900D03*
X89926400Y-75433900D03*
X82336400Y-75433900D03*
X82336400Y-74783900D03*
X82336400Y-74133900D03*
X82336400Y-73483900D03*
X82336400Y-72833900D03*
X82336400Y-72183900D03*
X82336400Y-71533900D03*
X82336400Y-70883900D03*
X82336400Y-70233900D03*
X82336400Y-69583900D03*
X82336400Y-68933900D03*
X82336400Y-68283900D03*
X82336400Y-67633900D03*
X82336400Y-66983900D03*
D18*
X105241400Y-65458900D03*
X105741400Y-65458900D03*
X106241400Y-65458900D03*
X106741400Y-65458900D03*
X107241400Y-65458900D03*
X107741400Y-65458900D03*
X108241400Y-65458900D03*
X108741400Y-65458900D03*
X109241400Y-65458900D03*
X109741400Y-65458900D03*
X110241400Y-65458900D03*
X110741400Y-65458900D03*
X111241400Y-65458900D03*
X111741400Y-65458900D03*
X112241400Y-65458900D03*
X112741400Y-65458900D03*
D19*
X114741400Y-67458900D03*
X114741400Y-67958900D03*
X114741400Y-68458900D03*
X114741400Y-68958900D03*
X114741400Y-69458900D03*
X114741400Y-69958900D03*
X114741400Y-70458900D03*
X114741400Y-70958900D03*
X114741400Y-71458900D03*
X114741400Y-71958900D03*
X114741400Y-72458900D03*
X114741400Y-72958900D03*
X114741400Y-73458900D03*
X114741400Y-73958900D03*
X114741400Y-74458900D03*
X114741400Y-74958900D03*
D18*
X112741400Y-76958900D03*
X112241400Y-76958900D03*
X111741400Y-76958900D03*
X111241400Y-76958900D03*
X110741400Y-76958900D03*
X110241400Y-76958900D03*
X109741400Y-76958900D03*
X109241400Y-76958900D03*
X108741400Y-76958900D03*
X108241400Y-76958900D03*
X107741400Y-76958900D03*
X107241400Y-76958900D03*
X106741400Y-76958900D03*
X106241400Y-76958900D03*
X105741400Y-76958900D03*
X105241400Y-76958900D03*
D19*
X103241400Y-74958900D03*
X103241400Y-74458900D03*
X103241400Y-73958900D03*
X103241400Y-73458900D03*
X103241400Y-72958900D03*
X103241400Y-72458900D03*
X103241400Y-71958900D03*
X103241400Y-71458900D03*
X103241400Y-70958900D03*
X103241400Y-70458900D03*
X103241400Y-69958900D03*
X103241400Y-69458900D03*
X103241400Y-68958900D03*
X103241400Y-68458900D03*
X103241400Y-67958900D03*
X103241400Y-67458900D03*
D20*
X115811400Y-80436900D03*
X117411400Y-80436900D03*
X117411400Y-78236900D03*
X115811400Y-78236900D03*
D15*
X63303400Y-122034300D03*
X63303400Y-125534420D03*
X94260400Y-122034300D03*
X94260400Y-125534420D03*
X113310400Y-122034300D03*
X113310400Y-125534420D03*
X132360400Y-122034300D03*
X132360400Y-125534420D03*
X151426400Y-122034300D03*
X151426400Y-125534420D03*
X170459400Y-122034300D03*
X170459400Y-125534420D03*
X65686400Y-102984300D03*
X65686400Y-106484420D03*
X89497400Y-102914300D03*
X89497400Y-106414420D03*
X108547400Y-102984300D03*
X108547400Y-106484420D03*
X146647400Y-102984300D03*
X146647400Y-106484420D03*
X165693400Y-102984300D03*
X165693400Y-106484420D03*
X60921900Y-83934300D03*
X60921900Y-87434420D03*
X79971900Y-83934300D03*
X79971900Y-87434420D03*
X156172400Y-83934300D03*
X156172400Y-87434420D03*
X118071900Y-83934300D03*
X118071900Y-87434420D03*
X99021900Y-83934300D03*
X99021900Y-87434420D03*
X127597400Y-102984300D03*
X127597400Y-106484420D03*
X59080400Y-160007300D03*
X59080400Y-163507420D03*
X80251300Y-161163000D03*
X80251300Y-164663120D03*
X103771700Y-160324800D03*
X103771700Y-163824920D03*
X122783600Y-164927280D03*
X122783600Y-168427400D03*
X163347400Y-159753300D03*
X163347400Y-163253420D03*
X175222400Y-83934300D03*
X175222400Y-87434420D03*
X63303400Y-141084300D03*
X63303400Y-144584420D03*
X84736400Y-141084300D03*
X84736400Y-144584420D03*
X103784400Y-141084300D03*
X103784400Y-144584420D03*
X122834400Y-141084300D03*
X122834400Y-144584420D03*
X141886400Y-141084300D03*
X141886400Y-144584420D03*
X160934400Y-141084300D03*
X160934400Y-144584420D03*
X179984400Y-141084300D03*
X179984400Y-144584420D03*
D14*
X116738400Y-73637900D03*
X116738400Y-75637900D03*
X121462800Y-73377300D03*
X121462800Y-71377300D03*
X102412800Y-63985900D03*
X102412800Y-65985900D03*
D13*
X94116400Y-66763900D03*
X92116400Y-66763900D03*
X92116400Y-71335900D03*
X94116400Y-71335900D03*
X94116400Y-68795900D03*
X92116400Y-68795900D03*
X154000000Y-70878700D03*
X152000000Y-70878700D03*
X154000000Y-72872600D03*
X152000000Y-72872600D03*
D14*
X112293400Y-80495900D03*
X112293400Y-82495900D03*
D13*
X106816400Y-79336900D03*
X104816400Y-79336900D03*
D14*
X100228400Y-76685900D03*
X100228400Y-78685900D03*
X102260400Y-76685900D03*
X102260400Y-78685900D03*
D13*
X77781400Y-69811900D03*
X79781400Y-69811900D03*
X77765400Y-71589900D03*
X79765400Y-71589900D03*
D14*
X80162400Y-75764900D03*
X80162400Y-73764900D03*
D21*
X176708400Y-70055900D03*
X160908400Y-70055900D03*
D22*
X168808400Y-70955900D03*
X169808400Y-70955900D03*
X170808400Y-70955900D03*
X171808400Y-70955900D03*
X172808400Y-70955900D03*
X167808400Y-70955900D03*
X166808400Y-70955900D03*
X165808400Y-70955900D03*
X164808400Y-70955900D03*
D23*
X176478400Y-66055900D03*
X161138400Y-66055900D03*
D14*
X148805900Y-72653400D03*
X148805900Y-70653400D03*
X142303500Y-66030600D03*
X142303500Y-68030600D03*
D24*
X125425200Y-73420700D03*
X123125200Y-73420700D03*
X127725200Y-73420700D03*
D25*
X125425200Y-67320700D03*
D13*
X214750400Y-77558900D03*
X212750400Y-77558900D03*
D14*
X263347200Y-73910700D03*
X263347200Y-71910700D03*
D13*
X227466400Y-64731900D03*
X225466400Y-64731900D03*
D14*
X251993400Y-68271900D03*
X251993400Y-66271900D03*
D15*
X270472400Y-83934300D03*
X270472400Y-87434420D03*
D16*
X201395400Y-76157700D03*
X201395400Y-72457700D03*
X207595400Y-76157700D03*
X207595400Y-72457700D03*
D17*
X223276400Y-66983900D03*
X223276400Y-67633900D03*
X223276400Y-68283900D03*
X223276400Y-68933900D03*
X223276400Y-69583900D03*
X223276400Y-70233900D03*
X223276400Y-70883900D03*
X223276400Y-71533900D03*
X223276400Y-72183900D03*
X223276400Y-72833900D03*
X223276400Y-73483900D03*
X223276400Y-74133900D03*
X223276400Y-74783900D03*
X223276400Y-75433900D03*
X215686400Y-75433900D03*
X215686400Y-74783900D03*
X215686400Y-74133900D03*
X215686400Y-73483900D03*
X215686400Y-72833900D03*
X215686400Y-72183900D03*
X215686400Y-71533900D03*
X215686400Y-70883900D03*
X215686400Y-70233900D03*
X215686400Y-69583900D03*
X215686400Y-68933900D03*
X215686400Y-68283900D03*
X215686400Y-67633900D03*
X215686400Y-66983900D03*
D24*
X258775200Y-73420700D03*
X256475200Y-73420700D03*
X261075200Y-73420700D03*
D25*
X258775200Y-67320700D03*
D18*
X238591400Y-65458900D03*
X239091400Y-65458900D03*
X239591400Y-65458900D03*
X240091400Y-65458900D03*
X240591400Y-65458900D03*
X241091400Y-65458900D03*
X241591400Y-65458900D03*
X242091400Y-65458900D03*
X242591400Y-65458900D03*
X243091400Y-65458900D03*
X243591400Y-65458900D03*
X244091400Y-65458900D03*
X244591400Y-65458900D03*
X245091400Y-65458900D03*
X245591400Y-65458900D03*
X246091400Y-65458900D03*
D19*
X248091400Y-67458900D03*
X248091400Y-67958900D03*
X248091400Y-68458900D03*
X248091400Y-68958900D03*
X248091400Y-69458900D03*
X248091400Y-69958900D03*
X248091400Y-70458900D03*
X248091400Y-70958900D03*
X248091400Y-71458900D03*
X248091400Y-71958900D03*
X248091400Y-72458900D03*
X248091400Y-72958900D03*
X248091400Y-73458900D03*
X248091400Y-73958900D03*
X248091400Y-74458900D03*
X248091400Y-74958900D03*
D18*
X246091400Y-76958900D03*
X245591400Y-76958900D03*
X245091400Y-76958900D03*
X244591400Y-76958900D03*
X244091400Y-76958900D03*
X243591400Y-76958900D03*
X243091400Y-76958900D03*
X242591400Y-76958900D03*
X242091400Y-76958900D03*
X241591400Y-76958900D03*
X241091400Y-76958900D03*
X240591400Y-76958900D03*
X240091400Y-76958900D03*
X239591400Y-76958900D03*
X239091400Y-76958900D03*
X238591400Y-76958900D03*
D19*
X236591400Y-74958900D03*
X236591400Y-74458900D03*
X236591400Y-73958900D03*
X236591400Y-73458900D03*
X236591400Y-72958900D03*
X236591400Y-72458900D03*
X236591400Y-71958900D03*
X236591400Y-71458900D03*
X236591400Y-70958900D03*
X236591400Y-70458900D03*
X236591400Y-69958900D03*
X236591400Y-69458900D03*
X236591400Y-68958900D03*
X236591400Y-68458900D03*
X236591400Y-67958900D03*
X236591400Y-67458900D03*
D20*
X249161400Y-80436900D03*
X250761400Y-80436900D03*
X250761400Y-78236900D03*
X249161400Y-78236900D03*
D15*
X189509400Y-122161300D03*
X189509400Y-125661420D03*
X208560400Y-122034300D03*
X208560400Y-125534420D03*
X227610900Y-122034300D03*
X227610900Y-125534420D03*
X246660400Y-122034300D03*
X246660400Y-125534420D03*
X265726400Y-122034300D03*
X265726400Y-125534420D03*
X284776400Y-122034300D03*
X284776400Y-125534420D03*
X184776400Y-102984300D03*
X184776400Y-106484420D03*
X203797400Y-102914300D03*
X203797400Y-106414420D03*
X222847400Y-102984300D03*
X222847400Y-106484420D03*
X260947400Y-102984300D03*
X260947400Y-106484420D03*
X279997400Y-102984300D03*
X279997400Y-106484420D03*
X194271900Y-83934300D03*
X194271900Y-87434420D03*
X213321900Y-83934300D03*
X213321900Y-87434420D03*
X289522400Y-83934300D03*
X289522400Y-87434420D03*
X251421900Y-83934300D03*
X251421900Y-87434420D03*
X232371900Y-83934300D03*
X232371900Y-87434420D03*
X241897400Y-102984300D03*
X241897400Y-106484420D03*
X204216000Y-160108900D03*
X204216000Y-163609020D03*
X235661200Y-163233100D03*
X235661200Y-166733220D03*
X298462700Y-165798500D03*
X298462700Y-169298620D03*
D26*
X264845800Y-169468800D03*
X268345920Y-169468800D03*
D15*
X301447200Y-160464500D03*
X301447200Y-163964620D03*
X199036400Y-141084300D03*
X199036400Y-144584420D03*
X218086400Y-141084300D03*
X218086400Y-144584420D03*
X237134400Y-141084300D03*
X237134400Y-144584420D03*
X256184400Y-141084300D03*
X256184400Y-144584420D03*
X275236400Y-141084300D03*
X275236400Y-144584420D03*
X301428400Y-141084300D03*
X301428400Y-144584420D03*
X327622400Y-141084300D03*
X327622400Y-144584420D03*
D14*
X250088400Y-73637900D03*
X250088400Y-75637900D03*
X254812800Y-73377300D03*
X254812800Y-71377300D03*
X235762800Y-63985900D03*
X235762800Y-65985900D03*
D13*
X227466400Y-66763900D03*
X225466400Y-66763900D03*
X225466400Y-71335900D03*
X227466400Y-71335900D03*
X227466400Y-68795900D03*
X225466400Y-68795900D03*
X288987300Y-71983600D03*
X286987300Y-71983600D03*
X288987300Y-73799700D03*
X286987300Y-73799700D03*
D14*
X245643400Y-80495900D03*
X245643400Y-82495900D03*
D13*
X238166400Y-79336900D03*
X240166400Y-79336900D03*
D14*
X233578400Y-76685900D03*
X233578400Y-78685900D03*
X235610400Y-76685900D03*
X235610400Y-78685900D03*
D13*
X211131400Y-69811900D03*
X213131400Y-69811900D03*
X211115400Y-71589900D03*
X213115400Y-71589900D03*
D14*
X213512400Y-75764900D03*
X213512400Y-73764900D03*
D15*
X299047400Y-102984300D03*
X299047400Y-106484420D03*
X346672400Y-141084300D03*
X346672400Y-144584420D03*
X346672400Y-83934300D03*
X346672400Y-87434420D03*
X340106000Y-84150200D03*
X340106000Y-87650320D03*
X346672400Y-102984300D03*
X346672400Y-106484420D03*
X322849400Y-103111300D03*
X322849400Y-106611420D03*
X346672400Y-122034300D03*
X346672400Y-125534420D03*
X315726400Y-122034300D03*
X315726400Y-125534420D03*
X308576400Y-83934300D03*
X308576400Y-87434420D03*
X346672400Y-160134300D03*
X346672400Y-163634420D03*
X320967100Y-160782000D03*
X320967100Y-164282120D03*
D21*
X311558400Y-70055900D03*
X295758400Y-70055900D03*
D22*
X303658400Y-70955900D03*
X304658400Y-70955900D03*
X305658400Y-70955900D03*
X306658400Y-70955900D03*
X307658400Y-70955900D03*
X302658400Y-70955900D03*
X301658400Y-70955900D03*
X300658400Y-70955900D03*
X299658400Y-70955900D03*
D23*
X311328400Y-66055900D03*
X295988400Y-66055900D03*
D14*
X284060900Y-72755000D03*
X284060900Y-70755000D03*
X277812500Y-66183000D03*
X277812500Y-68183000D03*
D15*
X303776400Y-122034300D03*
X303776400Y-125534420D03*
D12*
X118643400Y-72892920D03*
X118643400Y-70794880D03*
D14*
X167665400Y-92548200D03*
X167665400Y-94548200D03*
X136639300Y-95053400D03*
X136639300Y-97053400D03*
X104063800Y-94732600D03*
X104063800Y-96732600D03*
X72720200Y-94338900D03*
X72720200Y-96338900D03*
D13*
X64334900Y-154533600D03*
X62334900Y-154533600D03*
D14*
X95084900Y-150866600D03*
X95084900Y-152866600D03*
X127215900Y-152822400D03*
X127215900Y-154822400D03*
X166992300Y-149609300D03*
X166992300Y-151609300D03*
X139687300Y-73605900D03*
X139687300Y-71605900D03*
X197866000Y-97570800D03*
X197866000Y-95570800D03*
X233349800Y-96999300D03*
X233349800Y-94999300D03*
X267601700Y-96389700D03*
X267601700Y-94389700D03*
X303199800Y-97875600D03*
X303199800Y-95875600D03*
X337693000Y-97177100D03*
X337693000Y-95177100D03*
X338607400Y-153425400D03*
X338607400Y-151425400D03*
X317284100Y-153260300D03*
X317284100Y-151260300D03*
X284251400Y-153069800D03*
X284251400Y-151069800D03*
X251434600Y-153400000D03*
X251434600Y-151400000D03*
X219951300Y-152599900D03*
X219951300Y-150599900D03*
X271792700Y-73415400D03*
X271792700Y-71415400D03*
D27*
X266696200Y-73276500D03*
X266696200Y-72326500D03*
X266696200Y-71376500D03*
D28*
X269396200Y-71376500D03*
X269396200Y-73276500D03*
D27*
X134184400Y-73479700D03*
X134184400Y-72529700D03*
X134184400Y-71579700D03*
D28*
X136884400Y-71579700D03*
X136884400Y-73479700D03*
D13*
X114697000Y-65595500D03*
X116697000Y-65595500D03*
X248059700Y-65455800D03*
X250059700Y-65455800D03*
D14*
X144551400Y-71561200D03*
X144551400Y-69561200D03*
X279577800Y-72412100D03*
X279577800Y-70412100D03*
D29*
X155613100Y-62966600D03*
X151442420Y-62966600D03*
X290591240Y-62534800D03*
X286420560Y-62534800D03*
D30*
X290758800Y-71716900D03*
X291708800Y-71716900D03*
X292658800Y-71716900D03*
X292658800Y-74116900D03*
X291708800Y-74116900D03*
X290758800Y-74116900D03*
X155920400Y-71952000D03*
X156870400Y-71952000D03*
X157820400Y-71952000D03*
X157820400Y-74352000D03*
X156870400Y-74352000D03*
X155920400Y-74352000D03*
D31*
X211423000Y-154100000D03*
X216577000Y-154100000D03*
X216577000Y-150900000D03*
X211423000Y-150900000D03*
X243923000Y-154100000D03*
X249077000Y-154100000D03*
X249077000Y-150900000D03*
X243923000Y-150900000D03*
D32*
X281600000Y-154577000D03*
X281600000Y-149423000D03*
X278400000Y-149423000D03*
X278400000Y-154577000D03*
D31*
X308923000Y-154100000D03*
X314077000Y-154100000D03*
X314077000Y-150900000D03*
X308923000Y-150900000D03*
D32*
X344600000Y-155077000D03*
X344600000Y-149923000D03*
X341400000Y-149923000D03*
X341400000Y-155077000D03*
D31*
X345577000Y-94400000D03*
X340423000Y-94400000D03*
X340423000Y-97600000D03*
X345577000Y-97600000D03*
D32*
X307900000Y-96423000D03*
X307900000Y-101577000D03*
X311100000Y-101577000D03*
X311100000Y-96423000D03*
D31*
X275577000Y-94400000D03*
X270423000Y-94400000D03*
X270423000Y-97600000D03*
X275577000Y-97600000D03*
D32*
X236400000Y-93423000D03*
X236400000Y-98577000D03*
X239600000Y-98577000D03*
X239600000Y-93423000D03*
D31*
X205577000Y-94400000D03*
X200423000Y-94400000D03*
X200423000Y-97600000D03*
X205577000Y-97600000D03*
X128423000Y-97600000D03*
X133577000Y-97600000D03*
X133577000Y-94400000D03*
X128423000Y-94400000D03*
D32*
X100600000Y-98577000D03*
X100600000Y-93423000D03*
X97400000Y-93423000D03*
X97400000Y-98577000D03*
D31*
X64423000Y-97600000D03*
X69577000Y-97600000D03*
X69577000Y-94400000D03*
X64423000Y-94400000D03*
X72577000Y-150400000D03*
X67423000Y-150400000D03*
X67423000Y-153600000D03*
X72577000Y-153600000D03*
D32*
X98400000Y-149423000D03*
X98400000Y-154577000D03*
X101600000Y-154577000D03*
X101600000Y-149423000D03*
D31*
X135577000Y-150400000D03*
X130423000Y-150400000D03*
X130423000Y-153600000D03*
X135577000Y-153600000D03*
D32*
X169400000Y-148423000D03*
X169400000Y-153577000D03*
X172600000Y-153577000D03*
X172600000Y-148423000D03*
X164600000Y-98577000D03*
X164600000Y-93423000D03*
X161400000Y-93423000D03*
X161400000Y-98577000D03*
M02*
