M48
;DRILL file {KiCad 4.0.1-stable} date 2/25/2016 3:38:46 PM
;FORMAT={-:-/ absolute / metric / decimal}
FMAT,2
METRIC,TZ
T1C0.500
T2C0.650
T3C0.991
T4C1.702
T5C2.375
T6C3.048
T7C3.988
T8C6.000
%
G90
G05
M71
T1
X184.5Y-77.9
X184.5Y-78.7
X184.5Y-79.5
X184.5Y-80.3
X184.5Y-81.1
X184.5Y-81.9
X184.5Y-82.7
X184.5Y-83.5
X190.5Y-77.9
X190.5Y-78.7
X190.5Y-79.5
X190.5Y-80.3
X190.5Y-81.1
X190.5Y-81.9
X190.5Y-82.7
X190.5Y-83.5
T2
X145.826Y-67.306
X280.676Y-67.474
T3
X143.967Y-112.19
X144.983Y-119.81
X145.999Y-112.19
X243.929Y-133.579
X243.929Y-135.611
X251.549Y-134.595
T4
X58.953Y-85.687
X61.334Y-123.787
X61.334Y-142.837
X61.334Y-161.887
X63.716Y-104.737
X63.716Y-161.887
X69.113Y-85.687
X70.859Y-142.837
X71.494Y-142.837
X71.494Y-161.887
X73.876Y-104.737
X73.876Y-161.887
X76.257Y-123.787
X78.003Y-85.687
X81.019Y-142.837
X82.766Y-142.837
X82.766Y-161.887
X85.147Y-161.887
X87.528Y-104.667
X88.163Y-85.687
X92.291Y-123.787
X92.926Y-142.837
X95.307Y-161.887
X97.053Y-85.687
X97.688Y-104.667
X97.688Y-161.887
X101.815Y-142.837
X101.815Y-161.887
X102.451Y-123.787
X106.578Y-104.737
X107.213Y-85.687
X108.959Y-161.887
X111.341Y-123.787
X111.975Y-142.837
X116.103Y-85.687
X116.738Y-104.737
X119.119Y-161.887
X120.865Y-142.837
X121.501Y-123.787
X121.501Y-161.887
X123.247Y-161.887
X125.628Y-104.737
X125.628Y-161.887
X126.263Y-85.687
X130.391Y-123.787
X130.391Y-161.887
X131.025Y-142.837
X132.772Y-161.887
X133.407Y-161.887
X135.153Y-85.687
X135.788Y-104.737
X139.916Y-142.837
X140.551Y-123.787
X144.678Y-104.737
X145.313Y-85.687
X145.313Y-161.887
X147.059Y-161.887
X147.694Y-161.887
X149.44Y-123.787
X150.076Y-142.837
X154.203Y-85.687
X154.838Y-104.737
X157.219Y-161.887
X158.965Y-142.837
X159.6Y-123.787
X161.347Y-161.887
X163.728Y-104.737
X164.363Y-85.687
X168.49Y-123.787
X168.49Y-161.887
X169.125Y-142.837
X171.507Y-161.887
X173.253Y-85.687
X173.888Y-104.737
X176.269Y-161.887
X178.015Y-142.837
X178.015Y-161.887
X178.65Y-123.787
X178.65Y-161.887
X182.778Y-104.737
X183.413Y-85.687
X187.54Y-123.787
X188.175Y-142.837
X188.175Y-161.887
X192.303Y-85.687
X192.938Y-104.737
X197.066Y-142.837
X197.7Y-123.787
X201.828Y-104.667
X202.463Y-85.687
X206.591Y-123.787
X206.591Y-161.887
X207.226Y-142.837
X208.972Y-161.887
X211.353Y-85.687
X211.988Y-104.667
X213.734Y-161.887
X216.116Y-142.837
X216.751Y-123.787
X216.751Y-161.887
X220.878Y-104.737
X221.513Y-85.687
X223.894Y-161.887
X225.641Y-123.787
X226.276Y-142.837
X230.403Y-85.687
X231.038Y-104.737
X235.165Y-142.837
X235.801Y-123.787
X237.547Y-161.887
X239.928Y-104.737
X239.928Y-161.887
X240.563Y-85.687
X244.691Y-123.787
X245.325Y-142.837
X247.707Y-161.887
X249.453Y-85.687
X249.453Y-161.887
X250.088Y-104.737
X250.088Y-161.887
X251.834Y-161.887
X252.469Y-161.887
X254.215Y-142.837
X254.851Y-123.787
X258.978Y-104.737
X259.613Y-85.687
X259.613Y-161.887
X261.359Y-161.887
X261.994Y-161.887
X263.741Y-123.787
X264.375Y-142.837
X266.122Y-161.887
X268.503Y-85.687
X268.503Y-161.887
X269.138Y-104.737
X273.266Y-142.837
X273.266Y-161.887
X273.901Y-123.787
X275.647Y-161.887
X276.282Y-161.887
X278.028Y-104.737
X278.663Y-85.687
X282.79Y-123.787
X282.79Y-161.887
X283.426Y-142.837
X283.426Y-161.887
X285.172Y-161.887
X285.807Y-161.887
X287.553Y-85.687
X287.553Y-161.887
X288.188Y-104.737
X292.95Y-123.787
X295.332Y-161.887
X297.078Y-104.737
X297.713Y-85.687
X297.713Y-161.887
X299.459Y-142.837
X299.459Y-161.887
X301.84Y-123.787
X306.603Y-85.687
X306.603Y-161.887
X307.238Y-104.737
X308.984Y-142.837
X309.619Y-142.837
X309.619Y-161.887
X312.Y-123.787
X313.747Y-123.787
X316.128Y-85.687
X316.763Y-85.687
X316.763Y-161.887
X319.144Y-142.837
X320.89Y-104.864
X323.272Y-123.787
X323.272Y-161.887
X323.907Y-123.787
X325.653Y-85.687
X325.653Y-142.837
X325.653Y-161.887
X326.288Y-85.687
X328.352Y-119.342
X331.05Y-104.864
X333.432Y-123.787
X333.432Y-161.887
X335.813Y-85.687
X335.813Y-142.837
X335.813Y-161.887
X344.703Y-85.687
X344.703Y-104.737
X344.703Y-123.787
X344.703Y-142.837
X344.703Y-161.887
X354.863Y-85.687
X354.863Y-104.737
X354.863Y-123.787
X354.863Y-142.837
X354.863Y-161.887
T5
X142.443Y-114.095
X142.443Y-119.81
X147.523Y-114.095
X147.523Y-119.81
X245.834Y-132.055
X245.834Y-137.135
X251.549Y-132.055
X251.549Y-137.135
T6
X64.001Y-135.852
X87.877Y-135.852
X140.201Y-168.872
X154.489Y-168.872
X159.251Y-168.872
X161.632Y-168.872
X164.077Y-168.872
X178.365Y-168.872
X183.127Y-168.872
X185.508Y-168.872
X199.733Y-168.872
X202.114Y-168.872
X206.876Y-168.872
X223.609Y-168.872
X225.99Y-168.872
X230.752Y-168.872
X302.126Y-135.852
X306.889Y-130.772
X309.27Y-92.672
X326.002Y-135.852
X330.765Y-130.772
X333.146Y-92.672
X335.337Y-102.324
X335.337Y-126.2
T7
X64.001Y-151.092
X64.033Y-85.687
X66.414Y-123.787
X66.414Y-142.837
X66.414Y-161.887
X68.796Y-104.737
X68.796Y-161.887
X71.177Y-123.787
X75.939Y-142.837
X83.083Y-85.687
X87.846Y-142.837
X87.846Y-161.887
X87.877Y-151.092
X90.227Y-161.887
X92.608Y-104.667
X92.608Y-161.887
X97.371Y-123.787
X102.133Y-85.687
X106.895Y-142.837
X106.895Y-161.887
X111.658Y-104.737
X111.658Y-161.887
X114.039Y-161.887
X116.421Y-123.787
X116.421Y-161.887
X121.183Y-85.687
X125.945Y-142.837
X128.327Y-161.887
X130.708Y-104.737
X130.708Y-161.887
X135.471Y-123.787
X135.471Y-161.887
X137.852Y-161.887
X140.201Y-153.632
X140.233Y-85.687
X140.233Y-161.887
X142.614Y-161.887
X144.996Y-142.837
X149.758Y-104.737
X152.139Y-161.887
X154.489Y-153.632
X154.52Y-123.787
X159.251Y-153.632
X159.283Y-85.687
X161.632Y-153.632
X164.045Y-142.837
X164.077Y-153.632
X166.427Y-161.887
X168.808Y-104.737
X171.189Y-161.887
X173.57Y-123.787
X173.57Y-161.887
X178.333Y-85.687
X178.365Y-153.632
X183.095Y-142.837
X183.095Y-161.887
X183.127Y-153.632
X185.508Y-153.632
X187.858Y-104.737
X192.62Y-123.787
X197.383Y-85.687
X199.733Y-153.632
X202.114Y-153.632
X202.146Y-142.837
X206.876Y-153.632
X206.908Y-104.667
X211.671Y-123.787
X211.671Y-161.887
X214.052Y-161.887
X216.433Y-85.687
X218.814Y-161.887
X221.196Y-142.837
X223.609Y-153.632
X225.958Y-104.737
X225.99Y-153.632
X230.721Y-123.787
X230.752Y-153.632
X235.483Y-85.687
X240.245Y-142.837
X242.627Y-161.887
X245.008Y-104.737
X245.008Y-161.887
X247.389Y-161.887
X249.771Y-123.787
X249.771Y-161.887
X254.533Y-85.687
X254.533Y-161.887
X256.914Y-161.887
X259.295Y-142.837
X259.295Y-161.887
X264.058Y-104.737
X266.439Y-161.887
X268.821Y-123.787
X271.202Y-161.887
X273.583Y-85.687
X273.583Y-161.887
X278.346Y-142.837
X278.346Y-161.887
X280.727Y-161.887
X283.108Y-104.737
X287.87Y-123.787
X287.87Y-161.887
X290.252Y-161.887
X292.633Y-85.687
X292.633Y-161.887
X302.126Y-151.092
X302.158Y-104.737
X304.539Y-142.837
X304.539Y-161.887
X306.889Y-115.532
X306.92Y-123.787
X309.27Y-77.432
X311.683Y-85.687
X311.683Y-161.887
X314.064Y-142.837
X318.827Y-123.787
X320.097Y-102.324
X320.097Y-126.2
X321.208Y-85.687
X325.97Y-104.864
X326.002Y-151.092
X328.352Y-114.262
X328.352Y-123.787
X328.352Y-161.887
X330.733Y-85.687
X330.733Y-142.837
X330.733Y-161.887
X330.765Y-115.532
X333.146Y-77.432
X349.783Y-85.687
X349.783Y-104.737
X349.783Y-123.787
X349.783Y-142.837
X349.783Y-161.887
T8
X84.379Y-124.625
X291.567Y-142.939
T2
X152.876Y-67.306G85X153.176Y-67.306
G05
X287.726Y-67.474G85X288.026Y-67.474
G05
T0
M30
