G04 #@! TF.FileFunction,Soldermask,Top*
%FSLAX46Y46*%
G04 Gerber Fmt 4.6, Leading zero omitted, Abs format (unit mm)*
G04 Created by KiCad (PCBNEW 4.0.1-stable) date 2/25/2016 3:38:44 PM*
%MOMM*%
G01*
G04 APERTURE LIST*
%ADD10C,0.150000*%
%ADD11C,0.010000*%
%ADD12C,0.002540*%
%ADD13C,4.140210*%
%ADD14C,1.854210*%
%ADD15C,2.652400*%
%ADD16O,0.952400X1.552400*%
%ADD17C,0.802400*%
%ADD18O,1.102400X0.802400*%
%ADD19C,0.752400*%
%ADD20C,1.952400*%
%ADD21C,1.143010*%
%ADD22C,2.527310*%
%ADD23O,2.652400X2.652400*%
%ADD24O,2.352400X2.652400*%
%ADD25C,2.052400*%
%ADD26C,2.540000*%
%ADD27C,3.479800*%
%ADD28O,1.552400X1.552400*%
%ADD29R,1.552400X1.552400*%
%ADD30C,6.152400*%
%ADD31O,1.952400X3.652400*%
%ADD32C,0.652400*%
%ADD33R,1.852400X1.852400*%
%ADD34C,1.852400*%
G04 APERTURE END LIST*
D10*
D11*
G36*
X120006720Y-132291260D02*
X117608960Y-132291260D01*
X117608960Y-133022780D01*
X120006720Y-133022780D01*
X120006720Y-134353740D01*
X120006778Y-134516421D01*
X120006947Y-134673399D01*
X120007222Y-134823485D01*
X120007594Y-134965489D01*
X120008057Y-135098225D01*
X120008604Y-135220502D01*
X120009228Y-135331133D01*
X120009922Y-135428930D01*
X120010679Y-135512704D01*
X120011492Y-135581266D01*
X120012355Y-135633428D01*
X120013260Y-135668002D01*
X120014200Y-135683799D01*
X120014486Y-135684700D01*
X120023797Y-135677838D01*
X120044968Y-135658768D01*
X120075602Y-135629756D01*
X120113300Y-135593074D01*
X120154039Y-135552620D01*
X120285826Y-135420540D01*
X122536560Y-135420540D01*
X122536560Y-134699180D01*
X120138800Y-134699180D01*
X120138800Y-130625020D01*
X125741993Y-130625020D01*
X124908919Y-131458140D01*
X124075846Y-132291260D01*
X121815200Y-132291260D01*
X121815200Y-133022780D01*
X122341008Y-133022779D01*
X122866817Y-133022779D01*
X123539888Y-133695908D01*
X124212960Y-134369036D01*
X124212959Y-135059917D01*
X124212959Y-135750797D01*
X123539831Y-136423868D01*
X122866703Y-137096940D01*
X115942561Y-137096940D01*
X115945033Y-134699180D01*
X117608960Y-134699180D01*
X117608960Y-135420540D01*
X117888529Y-135420540D01*
X118114504Y-135194397D01*
X118340480Y-134968254D01*
X118340480Y-134699180D01*
X117608960Y-134699180D01*
X115945033Y-134699180D01*
X115945180Y-134557104D01*
X115947800Y-132017269D01*
X115841120Y-132123152D01*
X115797465Y-132165881D01*
X115763727Y-132196878D01*
X115735833Y-132219148D01*
X115709709Y-132235695D01*
X115681284Y-132249526D01*
X115655435Y-132260147D01*
X115576431Y-132291259D01*
X114725689Y-132291259D01*
X113874948Y-132291260D01*
X113692279Y-132474140D01*
X113509611Y-132657019D01*
X113692280Y-132839899D01*
X113874948Y-133022780D01*
X115810640Y-133022780D01*
X115810640Y-137096940D01*
X110842400Y-137096940D01*
X110842400Y-135420540D01*
X114144400Y-135420540D01*
X114144400Y-134699180D01*
X113613511Y-134699180D01*
X113082622Y-134699179D01*
X112409402Y-134025902D01*
X111736181Y-133352624D01*
X111738870Y-132702562D01*
X111739476Y-132588999D01*
X111740315Y-132481115D01*
X111741356Y-132380683D01*
X111742569Y-132289475D01*
X111743922Y-132209263D01*
X111745384Y-132141819D01*
X111746925Y-132088915D01*
X111748515Y-132052323D01*
X111750121Y-132033816D01*
X111750540Y-132032180D01*
X111746563Y-132032640D01*
X111730248Y-132045733D01*
X111703572Y-132069672D01*
X111668516Y-132102672D01*
X111627057Y-132142945D01*
X111618329Y-132151560D01*
X111477136Y-132291260D01*
X110710320Y-132291260D01*
X110710320Y-137096940D01*
X109044080Y-137096940D01*
X109044080Y-132291260D01*
X108276953Y-132291260D01*
X107443879Y-131458140D01*
X106610806Y-130625020D01*
X120006720Y-130625020D01*
X120006720Y-132291260D01*
X120006720Y-132291260D01*
G37*
X120006720Y-132291260D02*
X117608960Y-132291260D01*
X117608960Y-133022780D01*
X120006720Y-133022780D01*
X120006720Y-134353740D01*
X120006778Y-134516421D01*
X120006947Y-134673399D01*
X120007222Y-134823485D01*
X120007594Y-134965489D01*
X120008057Y-135098225D01*
X120008604Y-135220502D01*
X120009228Y-135331133D01*
X120009922Y-135428930D01*
X120010679Y-135512704D01*
X120011492Y-135581266D01*
X120012355Y-135633428D01*
X120013260Y-135668002D01*
X120014200Y-135683799D01*
X120014486Y-135684700D01*
X120023797Y-135677838D01*
X120044968Y-135658768D01*
X120075602Y-135629756D01*
X120113300Y-135593074D01*
X120154039Y-135552620D01*
X120285826Y-135420540D01*
X122536560Y-135420540D01*
X122536560Y-134699180D01*
X120138800Y-134699180D01*
X120138800Y-130625020D01*
X125741993Y-130625020D01*
X124908919Y-131458140D01*
X124075846Y-132291260D01*
X121815200Y-132291260D01*
X121815200Y-133022780D01*
X122341008Y-133022779D01*
X122866817Y-133022779D01*
X123539888Y-133695908D01*
X124212960Y-134369036D01*
X124212959Y-135059917D01*
X124212959Y-135750797D01*
X123539831Y-136423868D01*
X122866703Y-137096940D01*
X115942561Y-137096940D01*
X115945033Y-134699180D01*
X117608960Y-134699180D01*
X117608960Y-135420540D01*
X117888529Y-135420540D01*
X118114504Y-135194397D01*
X118340480Y-134968254D01*
X118340480Y-134699180D01*
X117608960Y-134699180D01*
X115945033Y-134699180D01*
X115945180Y-134557104D01*
X115947800Y-132017269D01*
X115841120Y-132123152D01*
X115797465Y-132165881D01*
X115763727Y-132196878D01*
X115735833Y-132219148D01*
X115709709Y-132235695D01*
X115681284Y-132249526D01*
X115655435Y-132260147D01*
X115576431Y-132291259D01*
X114725689Y-132291259D01*
X113874948Y-132291260D01*
X113692279Y-132474140D01*
X113509611Y-132657019D01*
X113692280Y-132839899D01*
X113874948Y-133022780D01*
X115810640Y-133022780D01*
X115810640Y-137096940D01*
X110842400Y-137096940D01*
X110842400Y-135420540D01*
X114144400Y-135420540D01*
X114144400Y-134699180D01*
X113613511Y-134699180D01*
X113082622Y-134699179D01*
X112409402Y-134025902D01*
X111736181Y-133352624D01*
X111738870Y-132702562D01*
X111739476Y-132588999D01*
X111740315Y-132481115D01*
X111741356Y-132380683D01*
X111742569Y-132289475D01*
X111743922Y-132209263D01*
X111745384Y-132141819D01*
X111746925Y-132088915D01*
X111748515Y-132052323D01*
X111750121Y-132033816D01*
X111750540Y-132032180D01*
X111746563Y-132032640D01*
X111730248Y-132045733D01*
X111703572Y-132069672D01*
X111668516Y-132102672D01*
X111627057Y-132142945D01*
X111618329Y-132151560D01*
X111477136Y-132291260D01*
X110710320Y-132291260D01*
X110710320Y-137096940D01*
X109044080Y-137096940D01*
X109044080Y-132291260D01*
X108276953Y-132291260D01*
X107443879Y-131458140D01*
X106610806Y-130625020D01*
X120006720Y-130625020D01*
X120006720Y-132291260D01*
D12*
G36*
X102757100Y-134348660D02*
X102757100Y-134485820D01*
X102757100Y-134597580D01*
X102754560Y-134686480D01*
X102754560Y-134757600D01*
X102752020Y-134810940D01*
X102749480Y-134849040D01*
X102746940Y-134876980D01*
X102741860Y-134892220D01*
X102736780Y-134897300D01*
X102719000Y-134904920D01*
X102675820Y-134915080D01*
X102612320Y-134930320D01*
X102531040Y-134945560D01*
X102434520Y-134965880D01*
X102325300Y-134986200D01*
X102211000Y-135009060D01*
X102084000Y-135031920D01*
X101969700Y-135054780D01*
X101870640Y-135075100D01*
X101789360Y-135092880D01*
X101728400Y-135105580D01*
X101692840Y-135115740D01*
X101682680Y-135120820D01*
X101672520Y-135138600D01*
X101652200Y-135176700D01*
X101626800Y-135235120D01*
X101596320Y-135303700D01*
X101563300Y-135379900D01*
X101530280Y-135463720D01*
X101497260Y-135545000D01*
X101466780Y-135621200D01*
X101441380Y-135689780D01*
X101421060Y-135745660D01*
X101408360Y-135783760D01*
X101405820Y-135799000D01*
X101413440Y-135811700D01*
X101436300Y-135847260D01*
X101471860Y-135900600D01*
X101517580Y-135966640D01*
X101570920Y-136045380D01*
X101629340Y-136131740D01*
X101667440Y-136185080D01*
X101923980Y-136561000D01*
X101923980Y-136728640D01*
X101923980Y-136896280D01*
X101532820Y-137287440D01*
X101141660Y-137678600D01*
X100976560Y-137678600D01*
X100814000Y-137678600D01*
X100443160Y-137424600D01*
X100074860Y-137170600D01*
X99955480Y-137234100D01*
X99838640Y-137300140D01*
X99665920Y-137295060D01*
X99493200Y-137289980D01*
X99114740Y-136380660D01*
X98736280Y-135471340D01*
X98736280Y-135326560D01*
X98736280Y-135263060D01*
X98738820Y-135209720D01*
X98741360Y-135174160D01*
X98743900Y-135161460D01*
X98759140Y-135143680D01*
X98792160Y-135115740D01*
X98837880Y-135080180D01*
X98881060Y-135049700D01*
X98997900Y-134963340D01*
X99094420Y-134882060D01*
X99173160Y-134800780D01*
X99239200Y-134714420D01*
X99297620Y-134615360D01*
X99335720Y-134541700D01*
X99394140Y-134409620D01*
X99427160Y-134290240D01*
X99434780Y-134181020D01*
X99429700Y-134112440D01*
X99383980Y-133947340D01*
X99312860Y-133792400D01*
X99221420Y-133647620D01*
X99104580Y-133515540D01*
X98969960Y-133401240D01*
X98820100Y-133307260D01*
X98799780Y-133297100D01*
X98693100Y-133248840D01*
X98588960Y-133215820D01*
X98489900Y-133195500D01*
X98431480Y-133190420D01*
X98324800Y-133203120D01*
X98205420Y-133236140D01*
X98080960Y-133289480D01*
X97959040Y-133360600D01*
X97844740Y-133444420D01*
X97740600Y-133538400D01*
X97674560Y-133609520D01*
X97613600Y-133698420D01*
X97552640Y-133805100D01*
X97501840Y-133919400D01*
X97461200Y-134028620D01*
X97451040Y-134064180D01*
X97438340Y-134137840D01*
X97433260Y-134206420D01*
X97438340Y-134272460D01*
X97458660Y-134348660D01*
X97489140Y-134442640D01*
X97496760Y-134462960D01*
X97570420Y-134617900D01*
X97666940Y-134760140D01*
X97788860Y-134892220D01*
X97933640Y-135011600D01*
X98032700Y-135080180D01*
X98073340Y-135108120D01*
X98106360Y-135130980D01*
X98121600Y-135143680D01*
X98124140Y-135164000D01*
X98129220Y-135207180D01*
X98129220Y-135263060D01*
X98131760Y-135316400D01*
X98131760Y-135471340D01*
X97763460Y-136355260D01*
X97702500Y-136507660D01*
X97644080Y-136649900D01*
X97588200Y-136784520D01*
X97537400Y-136906440D01*
X97491680Y-137013120D01*
X97453580Y-137104560D01*
X97423100Y-137180760D01*
X97400240Y-137234100D01*
X97385000Y-137264580D01*
X97382460Y-137269660D01*
X97374840Y-137282360D01*
X97359600Y-137289980D01*
X97334200Y-137295060D01*
X97293560Y-137297600D01*
X97232600Y-137297600D01*
X97202120Y-137297600D01*
X97034480Y-137297600D01*
X96915100Y-137234100D01*
X96795720Y-137170600D01*
X96564580Y-137330620D01*
X96480760Y-137386500D01*
X96394400Y-137447460D01*
X96310580Y-137503340D01*
X96239460Y-137551600D01*
X96193740Y-137584620D01*
X96054040Y-137678600D01*
X95888940Y-137678600D01*
X95726380Y-137678600D01*
X95332680Y-137287440D01*
X94941520Y-136896280D01*
X94941520Y-136731180D01*
X94941520Y-136660060D01*
X94944060Y-136611800D01*
X94949140Y-136576240D01*
X94956760Y-136550840D01*
X94972000Y-136525440D01*
X94989780Y-136500040D01*
X95010100Y-136469560D01*
X95043120Y-136418760D01*
X95088840Y-136352720D01*
X95139640Y-136276520D01*
X95198060Y-136192700D01*
X95248860Y-136116500D01*
X95307280Y-136032680D01*
X95358080Y-135956480D01*
X95401260Y-135890440D01*
X95434280Y-135837100D01*
X95457140Y-135801540D01*
X95464760Y-135786300D01*
X95459680Y-135768520D01*
X95444440Y-135727880D01*
X95424120Y-135669460D01*
X95393640Y-135595800D01*
X95360620Y-135511980D01*
X95335220Y-135445940D01*
X95292040Y-135336720D01*
X95256480Y-135252900D01*
X95228540Y-135189400D01*
X95205680Y-135146220D01*
X95190440Y-135120820D01*
X95177740Y-135110660D01*
X95154880Y-135105580D01*
X95111700Y-135095420D01*
X95045660Y-135082720D01*
X94961840Y-135064940D01*
X94862780Y-135047160D01*
X94753560Y-135024300D01*
X94646880Y-135006520D01*
X94532580Y-134983660D01*
X94423360Y-134963340D01*
X94329380Y-134943020D01*
X94248100Y-134927780D01*
X94184600Y-134912540D01*
X94143960Y-134902380D01*
X94128720Y-134897300D01*
X94123640Y-134889680D01*
X94121100Y-134871900D01*
X94118560Y-134841420D01*
X94116020Y-134798240D01*
X94113480Y-134739820D01*
X94110940Y-134661080D01*
X94110940Y-134564560D01*
X94110940Y-134445180D01*
X94108400Y-134297860D01*
X94108400Y-134186100D01*
X94108400Y-133490140D01*
X94141420Y-133472360D01*
X94161740Y-133464740D01*
X94207460Y-133452040D01*
X94273500Y-133439340D01*
X94357320Y-133421560D01*
X94456380Y-133401240D01*
X94568140Y-133380920D01*
X94684980Y-133358060D01*
X94687520Y-133358060D01*
X94804360Y-133335200D01*
X94913580Y-133314880D01*
X95012640Y-133294560D01*
X95093920Y-133276780D01*
X95157420Y-133264080D01*
X95200600Y-133251380D01*
X95220920Y-133246300D01*
X95220920Y-133246300D01*
X95231080Y-133228520D01*
X95248860Y-133190420D01*
X95274260Y-133134540D01*
X95307280Y-133065960D01*
X95340300Y-132989760D01*
X95373320Y-132911020D01*
X95408880Y-132834820D01*
X95439360Y-132763700D01*
X95464760Y-132700200D01*
X95482540Y-132654480D01*
X95492700Y-132626540D01*
X95492700Y-132624000D01*
X95485080Y-132608760D01*
X95462220Y-132573200D01*
X95429200Y-132519860D01*
X95383480Y-132451280D01*
X95330140Y-132372540D01*
X95269180Y-132283640D01*
X95218380Y-132207440D01*
X94941520Y-131806120D01*
X94941520Y-131643560D01*
X94941520Y-131481000D01*
X95332680Y-131087300D01*
X95723840Y-130696140D01*
X95891480Y-130696140D01*
X96059120Y-130696140D01*
X96414720Y-130939980D01*
X96506160Y-131000940D01*
X96592520Y-131061900D01*
X96671260Y-131115240D01*
X96737300Y-131160960D01*
X96788100Y-131196520D01*
X96821120Y-131219380D01*
X96826200Y-131221920D01*
X96884620Y-131262560D01*
X97151320Y-131153340D01*
X97255460Y-131112700D01*
X97334200Y-131079680D01*
X97395160Y-131054280D01*
X97438340Y-131033960D01*
X97466280Y-131018720D01*
X97484060Y-131006020D01*
X97496760Y-130995860D01*
X97501840Y-130983160D01*
X97501840Y-130980620D01*
X97506920Y-130960300D01*
X97517080Y-130914580D01*
X97529780Y-130851080D01*
X97545020Y-130767260D01*
X97565340Y-130668200D01*
X97585660Y-130558980D01*
X97605980Y-130439600D01*
X97608520Y-130426900D01*
X97631380Y-130310060D01*
X97654240Y-130198300D01*
X97672020Y-130099240D01*
X97689800Y-130015420D01*
X97705040Y-129949380D01*
X97715200Y-129903660D01*
X97722820Y-129883340D01*
X97722820Y-129883340D01*
X97730440Y-129878260D01*
X97748220Y-129875720D01*
X97773620Y-129870640D01*
X97814260Y-129868100D01*
X97870140Y-129868100D01*
X97943800Y-129865560D01*
X98035240Y-129865560D01*
X98149540Y-129863020D01*
X98289240Y-129863020D01*
X98431480Y-129863020D01*
X98568640Y-129863020D01*
X98698180Y-129865560D01*
X98815020Y-129865560D01*
X98919160Y-129868100D01*
X99008060Y-129868100D01*
X99074100Y-129870640D01*
X99119820Y-129873180D01*
X99142680Y-129875720D01*
X99142680Y-129875720D01*
X99150300Y-129893500D01*
X99160460Y-129934140D01*
X99175700Y-130002720D01*
X99196020Y-130089080D01*
X99216340Y-130198300D01*
X99241740Y-130325300D01*
X99259520Y-130421820D01*
X99282380Y-130541200D01*
X99302700Y-130655500D01*
X99323020Y-130757100D01*
X99338260Y-130843460D01*
X99353500Y-130912040D01*
X99363660Y-130960300D01*
X99368740Y-130985700D01*
X99368740Y-130985700D01*
X99381440Y-131000940D01*
X99411920Y-131018720D01*
X99457640Y-131041580D01*
X99526220Y-131072060D01*
X99615120Y-131112700D01*
X99681160Y-131138100D01*
X99777680Y-131178740D01*
X99851340Y-131206680D01*
X99904680Y-131229540D01*
X99945320Y-131242240D01*
X99970720Y-131247320D01*
X99991040Y-131249860D01*
X100003740Y-131244780D01*
X100016440Y-131239700D01*
X100018980Y-131237160D01*
X100039300Y-131224460D01*
X100079940Y-131196520D01*
X100135820Y-131155880D01*
X100209480Y-131107620D01*
X100290760Y-131051740D01*
X100382200Y-130990780D01*
X100433000Y-130955220D01*
X100808920Y-130696140D01*
X100976560Y-130696140D01*
X101141660Y-130696140D01*
X101532820Y-131087300D01*
X101923980Y-131478460D01*
X101923980Y-131646100D01*
X101923980Y-131813740D01*
X101647120Y-132215060D01*
X101370260Y-132616380D01*
X101502340Y-132928800D01*
X101542980Y-133017700D01*
X101578540Y-133098980D01*
X101611560Y-133165020D01*
X101636960Y-133215820D01*
X101654740Y-133246300D01*
X101659820Y-133251380D01*
X101680140Y-133256460D01*
X101723320Y-133266620D01*
X101786820Y-133281860D01*
X101870640Y-133297100D01*
X101969700Y-133317420D01*
X102078920Y-133337740D01*
X102195760Y-133360600D01*
X102208460Y-133363140D01*
X102345620Y-133388540D01*
X102465000Y-133411400D01*
X102564060Y-133431720D01*
X102645340Y-133449500D01*
X102703760Y-133464740D01*
X102736780Y-133474900D01*
X102744400Y-133479980D01*
X102746940Y-133495220D01*
X102749480Y-133538400D01*
X102752020Y-133604440D01*
X102754560Y-133690800D01*
X102754560Y-133792400D01*
X102757100Y-133906700D01*
X102757100Y-134033700D01*
X102757100Y-134170860D01*
X102757100Y-134188640D01*
X102757100Y-134348660D01*
X102757100Y-134348660D01*
X102757100Y-134348660D01*
G37*
X102757100Y-134348660D02*
X102757100Y-134485820D01*
X102757100Y-134597580D01*
X102754560Y-134686480D01*
X102754560Y-134757600D01*
X102752020Y-134810940D01*
X102749480Y-134849040D01*
X102746940Y-134876980D01*
X102741860Y-134892220D01*
X102736780Y-134897300D01*
X102719000Y-134904920D01*
X102675820Y-134915080D01*
X102612320Y-134930320D01*
X102531040Y-134945560D01*
X102434520Y-134965880D01*
X102325300Y-134986200D01*
X102211000Y-135009060D01*
X102084000Y-135031920D01*
X101969700Y-135054780D01*
X101870640Y-135075100D01*
X101789360Y-135092880D01*
X101728400Y-135105580D01*
X101692840Y-135115740D01*
X101682680Y-135120820D01*
X101672520Y-135138600D01*
X101652200Y-135176700D01*
X101626800Y-135235120D01*
X101596320Y-135303700D01*
X101563300Y-135379900D01*
X101530280Y-135463720D01*
X101497260Y-135545000D01*
X101466780Y-135621200D01*
X101441380Y-135689780D01*
X101421060Y-135745660D01*
X101408360Y-135783760D01*
X101405820Y-135799000D01*
X101413440Y-135811700D01*
X101436300Y-135847260D01*
X101471860Y-135900600D01*
X101517580Y-135966640D01*
X101570920Y-136045380D01*
X101629340Y-136131740D01*
X101667440Y-136185080D01*
X101923980Y-136561000D01*
X101923980Y-136728640D01*
X101923980Y-136896280D01*
X101532820Y-137287440D01*
X101141660Y-137678600D01*
X100976560Y-137678600D01*
X100814000Y-137678600D01*
X100443160Y-137424600D01*
X100074860Y-137170600D01*
X99955480Y-137234100D01*
X99838640Y-137300140D01*
X99665920Y-137295060D01*
X99493200Y-137289980D01*
X99114740Y-136380660D01*
X98736280Y-135471340D01*
X98736280Y-135326560D01*
X98736280Y-135263060D01*
X98738820Y-135209720D01*
X98741360Y-135174160D01*
X98743900Y-135161460D01*
X98759140Y-135143680D01*
X98792160Y-135115740D01*
X98837880Y-135080180D01*
X98881060Y-135049700D01*
X98997900Y-134963340D01*
X99094420Y-134882060D01*
X99173160Y-134800780D01*
X99239200Y-134714420D01*
X99297620Y-134615360D01*
X99335720Y-134541700D01*
X99394140Y-134409620D01*
X99427160Y-134290240D01*
X99434780Y-134181020D01*
X99429700Y-134112440D01*
X99383980Y-133947340D01*
X99312860Y-133792400D01*
X99221420Y-133647620D01*
X99104580Y-133515540D01*
X98969960Y-133401240D01*
X98820100Y-133307260D01*
X98799780Y-133297100D01*
X98693100Y-133248840D01*
X98588960Y-133215820D01*
X98489900Y-133195500D01*
X98431480Y-133190420D01*
X98324800Y-133203120D01*
X98205420Y-133236140D01*
X98080960Y-133289480D01*
X97959040Y-133360600D01*
X97844740Y-133444420D01*
X97740600Y-133538400D01*
X97674560Y-133609520D01*
X97613600Y-133698420D01*
X97552640Y-133805100D01*
X97501840Y-133919400D01*
X97461200Y-134028620D01*
X97451040Y-134064180D01*
X97438340Y-134137840D01*
X97433260Y-134206420D01*
X97438340Y-134272460D01*
X97458660Y-134348660D01*
X97489140Y-134442640D01*
X97496760Y-134462960D01*
X97570420Y-134617900D01*
X97666940Y-134760140D01*
X97788860Y-134892220D01*
X97933640Y-135011600D01*
X98032700Y-135080180D01*
X98073340Y-135108120D01*
X98106360Y-135130980D01*
X98121600Y-135143680D01*
X98124140Y-135164000D01*
X98129220Y-135207180D01*
X98129220Y-135263060D01*
X98131760Y-135316400D01*
X98131760Y-135471340D01*
X97763460Y-136355260D01*
X97702500Y-136507660D01*
X97644080Y-136649900D01*
X97588200Y-136784520D01*
X97537400Y-136906440D01*
X97491680Y-137013120D01*
X97453580Y-137104560D01*
X97423100Y-137180760D01*
X97400240Y-137234100D01*
X97385000Y-137264580D01*
X97382460Y-137269660D01*
X97374840Y-137282360D01*
X97359600Y-137289980D01*
X97334200Y-137295060D01*
X97293560Y-137297600D01*
X97232600Y-137297600D01*
X97202120Y-137297600D01*
X97034480Y-137297600D01*
X96915100Y-137234100D01*
X96795720Y-137170600D01*
X96564580Y-137330620D01*
X96480760Y-137386500D01*
X96394400Y-137447460D01*
X96310580Y-137503340D01*
X96239460Y-137551600D01*
X96193740Y-137584620D01*
X96054040Y-137678600D01*
X95888940Y-137678600D01*
X95726380Y-137678600D01*
X95332680Y-137287440D01*
X94941520Y-136896280D01*
X94941520Y-136731180D01*
X94941520Y-136660060D01*
X94944060Y-136611800D01*
X94949140Y-136576240D01*
X94956760Y-136550840D01*
X94972000Y-136525440D01*
X94989780Y-136500040D01*
X95010100Y-136469560D01*
X95043120Y-136418760D01*
X95088840Y-136352720D01*
X95139640Y-136276520D01*
X95198060Y-136192700D01*
X95248860Y-136116500D01*
X95307280Y-136032680D01*
X95358080Y-135956480D01*
X95401260Y-135890440D01*
X95434280Y-135837100D01*
X95457140Y-135801540D01*
X95464760Y-135786300D01*
X95459680Y-135768520D01*
X95444440Y-135727880D01*
X95424120Y-135669460D01*
X95393640Y-135595800D01*
X95360620Y-135511980D01*
X95335220Y-135445940D01*
X95292040Y-135336720D01*
X95256480Y-135252900D01*
X95228540Y-135189400D01*
X95205680Y-135146220D01*
X95190440Y-135120820D01*
X95177740Y-135110660D01*
X95154880Y-135105580D01*
X95111700Y-135095420D01*
X95045660Y-135082720D01*
X94961840Y-135064940D01*
X94862780Y-135047160D01*
X94753560Y-135024300D01*
X94646880Y-135006520D01*
X94532580Y-134983660D01*
X94423360Y-134963340D01*
X94329380Y-134943020D01*
X94248100Y-134927780D01*
X94184600Y-134912540D01*
X94143960Y-134902380D01*
X94128720Y-134897300D01*
X94123640Y-134889680D01*
X94121100Y-134871900D01*
X94118560Y-134841420D01*
X94116020Y-134798240D01*
X94113480Y-134739820D01*
X94110940Y-134661080D01*
X94110940Y-134564560D01*
X94110940Y-134445180D01*
X94108400Y-134297860D01*
X94108400Y-134186100D01*
X94108400Y-133490140D01*
X94141420Y-133472360D01*
X94161740Y-133464740D01*
X94207460Y-133452040D01*
X94273500Y-133439340D01*
X94357320Y-133421560D01*
X94456380Y-133401240D01*
X94568140Y-133380920D01*
X94684980Y-133358060D01*
X94687520Y-133358060D01*
X94804360Y-133335200D01*
X94913580Y-133314880D01*
X95012640Y-133294560D01*
X95093920Y-133276780D01*
X95157420Y-133264080D01*
X95200600Y-133251380D01*
X95220920Y-133246300D01*
X95220920Y-133246300D01*
X95231080Y-133228520D01*
X95248860Y-133190420D01*
X95274260Y-133134540D01*
X95307280Y-133065960D01*
X95340300Y-132989760D01*
X95373320Y-132911020D01*
X95408880Y-132834820D01*
X95439360Y-132763700D01*
X95464760Y-132700200D01*
X95482540Y-132654480D01*
X95492700Y-132626540D01*
X95492700Y-132624000D01*
X95485080Y-132608760D01*
X95462220Y-132573200D01*
X95429200Y-132519860D01*
X95383480Y-132451280D01*
X95330140Y-132372540D01*
X95269180Y-132283640D01*
X95218380Y-132207440D01*
X94941520Y-131806120D01*
X94941520Y-131643560D01*
X94941520Y-131481000D01*
X95332680Y-131087300D01*
X95723840Y-130696140D01*
X95891480Y-130696140D01*
X96059120Y-130696140D01*
X96414720Y-130939980D01*
X96506160Y-131000940D01*
X96592520Y-131061900D01*
X96671260Y-131115240D01*
X96737300Y-131160960D01*
X96788100Y-131196520D01*
X96821120Y-131219380D01*
X96826200Y-131221920D01*
X96884620Y-131262560D01*
X97151320Y-131153340D01*
X97255460Y-131112700D01*
X97334200Y-131079680D01*
X97395160Y-131054280D01*
X97438340Y-131033960D01*
X97466280Y-131018720D01*
X97484060Y-131006020D01*
X97496760Y-130995860D01*
X97501840Y-130983160D01*
X97501840Y-130980620D01*
X97506920Y-130960300D01*
X97517080Y-130914580D01*
X97529780Y-130851080D01*
X97545020Y-130767260D01*
X97565340Y-130668200D01*
X97585660Y-130558980D01*
X97605980Y-130439600D01*
X97608520Y-130426900D01*
X97631380Y-130310060D01*
X97654240Y-130198300D01*
X97672020Y-130099240D01*
X97689800Y-130015420D01*
X97705040Y-129949380D01*
X97715200Y-129903660D01*
X97722820Y-129883340D01*
X97722820Y-129883340D01*
X97730440Y-129878260D01*
X97748220Y-129875720D01*
X97773620Y-129870640D01*
X97814260Y-129868100D01*
X97870140Y-129868100D01*
X97943800Y-129865560D01*
X98035240Y-129865560D01*
X98149540Y-129863020D01*
X98289240Y-129863020D01*
X98431480Y-129863020D01*
X98568640Y-129863020D01*
X98698180Y-129865560D01*
X98815020Y-129865560D01*
X98919160Y-129868100D01*
X99008060Y-129868100D01*
X99074100Y-129870640D01*
X99119820Y-129873180D01*
X99142680Y-129875720D01*
X99142680Y-129875720D01*
X99150300Y-129893500D01*
X99160460Y-129934140D01*
X99175700Y-130002720D01*
X99196020Y-130089080D01*
X99216340Y-130198300D01*
X99241740Y-130325300D01*
X99259520Y-130421820D01*
X99282380Y-130541200D01*
X99302700Y-130655500D01*
X99323020Y-130757100D01*
X99338260Y-130843460D01*
X99353500Y-130912040D01*
X99363660Y-130960300D01*
X99368740Y-130985700D01*
X99368740Y-130985700D01*
X99381440Y-131000940D01*
X99411920Y-131018720D01*
X99457640Y-131041580D01*
X99526220Y-131072060D01*
X99615120Y-131112700D01*
X99681160Y-131138100D01*
X99777680Y-131178740D01*
X99851340Y-131206680D01*
X99904680Y-131229540D01*
X99945320Y-131242240D01*
X99970720Y-131247320D01*
X99991040Y-131249860D01*
X100003740Y-131244780D01*
X100016440Y-131239700D01*
X100018980Y-131237160D01*
X100039300Y-131224460D01*
X100079940Y-131196520D01*
X100135820Y-131155880D01*
X100209480Y-131107620D01*
X100290760Y-131051740D01*
X100382200Y-130990780D01*
X100433000Y-130955220D01*
X100808920Y-130696140D01*
X100976560Y-130696140D01*
X101141660Y-130696140D01*
X101532820Y-131087300D01*
X101923980Y-131478460D01*
X101923980Y-131646100D01*
X101923980Y-131813740D01*
X101647120Y-132215060D01*
X101370260Y-132616380D01*
X101502340Y-132928800D01*
X101542980Y-133017700D01*
X101578540Y-133098980D01*
X101611560Y-133165020D01*
X101636960Y-133215820D01*
X101654740Y-133246300D01*
X101659820Y-133251380D01*
X101680140Y-133256460D01*
X101723320Y-133266620D01*
X101786820Y-133281860D01*
X101870640Y-133297100D01*
X101969700Y-133317420D01*
X102078920Y-133337740D01*
X102195760Y-133360600D01*
X102208460Y-133363140D01*
X102345620Y-133388540D01*
X102465000Y-133411400D01*
X102564060Y-133431720D01*
X102645340Y-133449500D01*
X102703760Y-133464740D01*
X102736780Y-133474900D01*
X102744400Y-133479980D01*
X102746940Y-133495220D01*
X102749480Y-133538400D01*
X102752020Y-133604440D01*
X102754560Y-133690800D01*
X102754560Y-133792400D01*
X102757100Y-133906700D01*
X102757100Y-134033700D01*
X102757100Y-134170860D01*
X102757100Y-134188640D01*
X102757100Y-134348660D01*
X102757100Y-134348660D01*
D11*
G36*
X293830320Y-132291260D02*
X291432560Y-132291260D01*
X291432560Y-133022780D01*
X293830320Y-133022780D01*
X293830320Y-134353740D01*
X293830378Y-134516421D01*
X293830547Y-134673399D01*
X293830822Y-134823485D01*
X293831194Y-134965489D01*
X293831657Y-135098225D01*
X293832204Y-135220502D01*
X293832828Y-135331133D01*
X293833522Y-135428930D01*
X293834279Y-135512704D01*
X293835092Y-135581266D01*
X293835955Y-135633428D01*
X293836860Y-135668002D01*
X293837800Y-135683799D01*
X293838086Y-135684700D01*
X293847397Y-135677838D01*
X293868568Y-135658768D01*
X293899202Y-135629756D01*
X293936900Y-135593074D01*
X293977639Y-135552620D01*
X294109426Y-135420540D01*
X296360160Y-135420540D01*
X296360160Y-134699180D01*
X293962400Y-134699180D01*
X293962400Y-130625020D01*
X299565593Y-130625020D01*
X298732519Y-131458140D01*
X297899446Y-132291260D01*
X295638800Y-132291260D01*
X295638800Y-133022780D01*
X296164608Y-133022779D01*
X296690417Y-133022779D01*
X297363488Y-133695908D01*
X298036560Y-134369036D01*
X298036559Y-135059917D01*
X298036559Y-135750797D01*
X297363431Y-136423868D01*
X296690303Y-137096940D01*
X289766161Y-137096940D01*
X289768633Y-134699180D01*
X291432560Y-134699180D01*
X291432560Y-135420540D01*
X291712129Y-135420540D01*
X291938104Y-135194397D01*
X292164080Y-134968254D01*
X292164080Y-134699180D01*
X291432560Y-134699180D01*
X289768633Y-134699180D01*
X289768780Y-134557104D01*
X289771400Y-132017269D01*
X289664720Y-132123152D01*
X289621065Y-132165881D01*
X289587327Y-132196878D01*
X289559433Y-132219148D01*
X289533309Y-132235695D01*
X289504884Y-132249526D01*
X289479035Y-132260147D01*
X289400031Y-132291259D01*
X288549289Y-132291259D01*
X287698548Y-132291260D01*
X287515879Y-132474140D01*
X287333211Y-132657019D01*
X287515880Y-132839899D01*
X287698548Y-133022780D01*
X289634240Y-133022780D01*
X289634240Y-137096940D01*
X284666000Y-137096940D01*
X284666000Y-135420540D01*
X287968000Y-135420540D01*
X287968000Y-134699180D01*
X287437111Y-134699180D01*
X286906222Y-134699179D01*
X286233002Y-134025902D01*
X285559781Y-133352624D01*
X285562470Y-132702562D01*
X285563076Y-132588999D01*
X285563915Y-132481115D01*
X285564956Y-132380683D01*
X285566169Y-132289475D01*
X285567522Y-132209263D01*
X285568984Y-132141819D01*
X285570525Y-132088915D01*
X285572115Y-132052323D01*
X285573721Y-132033816D01*
X285574140Y-132032180D01*
X285570163Y-132032640D01*
X285553848Y-132045733D01*
X285527172Y-132069672D01*
X285492116Y-132102672D01*
X285450657Y-132142945D01*
X285441929Y-132151560D01*
X285300736Y-132291260D01*
X284533920Y-132291260D01*
X284533920Y-137096940D01*
X282867680Y-137096940D01*
X282867680Y-132291260D01*
X282100553Y-132291260D01*
X281267479Y-131458140D01*
X280434406Y-130625020D01*
X293830320Y-130625020D01*
X293830320Y-132291260D01*
X293830320Y-132291260D01*
G37*
X293830320Y-132291260D02*
X291432560Y-132291260D01*
X291432560Y-133022780D01*
X293830320Y-133022780D01*
X293830320Y-134353740D01*
X293830378Y-134516421D01*
X293830547Y-134673399D01*
X293830822Y-134823485D01*
X293831194Y-134965489D01*
X293831657Y-135098225D01*
X293832204Y-135220502D01*
X293832828Y-135331133D01*
X293833522Y-135428930D01*
X293834279Y-135512704D01*
X293835092Y-135581266D01*
X293835955Y-135633428D01*
X293836860Y-135668002D01*
X293837800Y-135683799D01*
X293838086Y-135684700D01*
X293847397Y-135677838D01*
X293868568Y-135658768D01*
X293899202Y-135629756D01*
X293936900Y-135593074D01*
X293977639Y-135552620D01*
X294109426Y-135420540D01*
X296360160Y-135420540D01*
X296360160Y-134699180D01*
X293962400Y-134699180D01*
X293962400Y-130625020D01*
X299565593Y-130625020D01*
X298732519Y-131458140D01*
X297899446Y-132291260D01*
X295638800Y-132291260D01*
X295638800Y-133022780D01*
X296164608Y-133022779D01*
X296690417Y-133022779D01*
X297363488Y-133695908D01*
X298036560Y-134369036D01*
X298036559Y-135059917D01*
X298036559Y-135750797D01*
X297363431Y-136423868D01*
X296690303Y-137096940D01*
X289766161Y-137096940D01*
X289768633Y-134699180D01*
X291432560Y-134699180D01*
X291432560Y-135420540D01*
X291712129Y-135420540D01*
X291938104Y-135194397D01*
X292164080Y-134968254D01*
X292164080Y-134699180D01*
X291432560Y-134699180D01*
X289768633Y-134699180D01*
X289768780Y-134557104D01*
X289771400Y-132017269D01*
X289664720Y-132123152D01*
X289621065Y-132165881D01*
X289587327Y-132196878D01*
X289559433Y-132219148D01*
X289533309Y-132235695D01*
X289504884Y-132249526D01*
X289479035Y-132260147D01*
X289400031Y-132291259D01*
X288549289Y-132291259D01*
X287698548Y-132291260D01*
X287515879Y-132474140D01*
X287333211Y-132657019D01*
X287515880Y-132839899D01*
X287698548Y-133022780D01*
X289634240Y-133022780D01*
X289634240Y-137096940D01*
X284666000Y-137096940D01*
X284666000Y-135420540D01*
X287968000Y-135420540D01*
X287968000Y-134699180D01*
X287437111Y-134699180D01*
X286906222Y-134699179D01*
X286233002Y-134025902D01*
X285559781Y-133352624D01*
X285562470Y-132702562D01*
X285563076Y-132588999D01*
X285563915Y-132481115D01*
X285564956Y-132380683D01*
X285566169Y-132289475D01*
X285567522Y-132209263D01*
X285568984Y-132141819D01*
X285570525Y-132088915D01*
X285572115Y-132052323D01*
X285573721Y-132033816D01*
X285574140Y-132032180D01*
X285570163Y-132032640D01*
X285553848Y-132045733D01*
X285527172Y-132069672D01*
X285492116Y-132102672D01*
X285450657Y-132142945D01*
X285441929Y-132151560D01*
X285300736Y-132291260D01*
X284533920Y-132291260D01*
X284533920Y-137096940D01*
X282867680Y-137096940D01*
X282867680Y-132291260D01*
X282100553Y-132291260D01*
X281267479Y-131458140D01*
X280434406Y-130625020D01*
X293830320Y-130625020D01*
X293830320Y-132291260D01*
D12*
G36*
X275330700Y-134348660D02*
X275330700Y-134485820D01*
X275330700Y-134597580D01*
X275328160Y-134686480D01*
X275328160Y-134757600D01*
X275325620Y-134810940D01*
X275323080Y-134849040D01*
X275320540Y-134876980D01*
X275315460Y-134892220D01*
X275310380Y-134897300D01*
X275292600Y-134904920D01*
X275249420Y-134915080D01*
X275185920Y-134930320D01*
X275104640Y-134945560D01*
X275008120Y-134965880D01*
X274898900Y-134986200D01*
X274784600Y-135009060D01*
X274657600Y-135031920D01*
X274543300Y-135054780D01*
X274444240Y-135075100D01*
X274362960Y-135092880D01*
X274302000Y-135105580D01*
X274266440Y-135115740D01*
X274256280Y-135120820D01*
X274246120Y-135138600D01*
X274225800Y-135176700D01*
X274200400Y-135235120D01*
X274169920Y-135303700D01*
X274136900Y-135379900D01*
X274103880Y-135463720D01*
X274070860Y-135545000D01*
X274040380Y-135621200D01*
X274014980Y-135689780D01*
X273994660Y-135745660D01*
X273981960Y-135783760D01*
X273979420Y-135799000D01*
X273987040Y-135811700D01*
X274009900Y-135847260D01*
X274045460Y-135900600D01*
X274091180Y-135966640D01*
X274144520Y-136045380D01*
X274202940Y-136131740D01*
X274241040Y-136185080D01*
X274497580Y-136561000D01*
X274497580Y-136728640D01*
X274497580Y-136896280D01*
X274106420Y-137287440D01*
X273715260Y-137678600D01*
X273550160Y-137678600D01*
X273387600Y-137678600D01*
X273016760Y-137424600D01*
X272648460Y-137170600D01*
X272529080Y-137234100D01*
X272412240Y-137300140D01*
X272239520Y-137295060D01*
X272066800Y-137289980D01*
X271688340Y-136380660D01*
X271309880Y-135471340D01*
X271309880Y-135326560D01*
X271309880Y-135263060D01*
X271312420Y-135209720D01*
X271314960Y-135174160D01*
X271317500Y-135161460D01*
X271332740Y-135143680D01*
X271365760Y-135115740D01*
X271411480Y-135080180D01*
X271454660Y-135049700D01*
X271571500Y-134963340D01*
X271668020Y-134882060D01*
X271746760Y-134800780D01*
X271812800Y-134714420D01*
X271871220Y-134615360D01*
X271909320Y-134541700D01*
X271967740Y-134409620D01*
X272000760Y-134290240D01*
X272008380Y-134181020D01*
X272003300Y-134112440D01*
X271957580Y-133947340D01*
X271886460Y-133792400D01*
X271795020Y-133647620D01*
X271678180Y-133515540D01*
X271543560Y-133401240D01*
X271393700Y-133307260D01*
X271373380Y-133297100D01*
X271266700Y-133248840D01*
X271162560Y-133215820D01*
X271063500Y-133195500D01*
X271005080Y-133190420D01*
X270898400Y-133203120D01*
X270779020Y-133236140D01*
X270654560Y-133289480D01*
X270532640Y-133360600D01*
X270418340Y-133444420D01*
X270314200Y-133538400D01*
X270248160Y-133609520D01*
X270187200Y-133698420D01*
X270126240Y-133805100D01*
X270075440Y-133919400D01*
X270034800Y-134028620D01*
X270024640Y-134064180D01*
X270011940Y-134137840D01*
X270006860Y-134206420D01*
X270011940Y-134272460D01*
X270032260Y-134348660D01*
X270062740Y-134442640D01*
X270070360Y-134462960D01*
X270144020Y-134617900D01*
X270240540Y-134760140D01*
X270362460Y-134892220D01*
X270507240Y-135011600D01*
X270606300Y-135080180D01*
X270646940Y-135108120D01*
X270679960Y-135130980D01*
X270695200Y-135143680D01*
X270697740Y-135164000D01*
X270702820Y-135207180D01*
X270702820Y-135263060D01*
X270705360Y-135316400D01*
X270705360Y-135471340D01*
X270337060Y-136355260D01*
X270276100Y-136507660D01*
X270217680Y-136649900D01*
X270161800Y-136784520D01*
X270111000Y-136906440D01*
X270065280Y-137013120D01*
X270027180Y-137104560D01*
X269996700Y-137180760D01*
X269973840Y-137234100D01*
X269958600Y-137264580D01*
X269956060Y-137269660D01*
X269948440Y-137282360D01*
X269933200Y-137289980D01*
X269907800Y-137295060D01*
X269867160Y-137297600D01*
X269806200Y-137297600D01*
X269775720Y-137297600D01*
X269608080Y-137297600D01*
X269488700Y-137234100D01*
X269369320Y-137170600D01*
X269138180Y-137330620D01*
X269054360Y-137386500D01*
X268968000Y-137447460D01*
X268884180Y-137503340D01*
X268813060Y-137551600D01*
X268767340Y-137584620D01*
X268627640Y-137678600D01*
X268462540Y-137678600D01*
X268299980Y-137678600D01*
X267906280Y-137287440D01*
X267515120Y-136896280D01*
X267515120Y-136731180D01*
X267515120Y-136660060D01*
X267517660Y-136611800D01*
X267522740Y-136576240D01*
X267530360Y-136550840D01*
X267545600Y-136525440D01*
X267563380Y-136500040D01*
X267583700Y-136469560D01*
X267616720Y-136418760D01*
X267662440Y-136352720D01*
X267713240Y-136276520D01*
X267771660Y-136192700D01*
X267822460Y-136116500D01*
X267880880Y-136032680D01*
X267931680Y-135956480D01*
X267974860Y-135890440D01*
X268007880Y-135837100D01*
X268030740Y-135801540D01*
X268038360Y-135786300D01*
X268033280Y-135768520D01*
X268018040Y-135727880D01*
X267997720Y-135669460D01*
X267967240Y-135595800D01*
X267934220Y-135511980D01*
X267908820Y-135445940D01*
X267865640Y-135336720D01*
X267830080Y-135252900D01*
X267802140Y-135189400D01*
X267779280Y-135146220D01*
X267764040Y-135120820D01*
X267751340Y-135110660D01*
X267728480Y-135105580D01*
X267685300Y-135095420D01*
X267619260Y-135082720D01*
X267535440Y-135064940D01*
X267436380Y-135047160D01*
X267327160Y-135024300D01*
X267220480Y-135006520D01*
X267106180Y-134983660D01*
X266996960Y-134963340D01*
X266902980Y-134943020D01*
X266821700Y-134927780D01*
X266758200Y-134912540D01*
X266717560Y-134902380D01*
X266702320Y-134897300D01*
X266697240Y-134889680D01*
X266694700Y-134871900D01*
X266692160Y-134841420D01*
X266689620Y-134798240D01*
X266687080Y-134739820D01*
X266684540Y-134661080D01*
X266684540Y-134564560D01*
X266684540Y-134445180D01*
X266682000Y-134297860D01*
X266682000Y-134186100D01*
X266682000Y-133490140D01*
X266715020Y-133472360D01*
X266735340Y-133464740D01*
X266781060Y-133452040D01*
X266847100Y-133439340D01*
X266930920Y-133421560D01*
X267029980Y-133401240D01*
X267141740Y-133380920D01*
X267258580Y-133358060D01*
X267261120Y-133358060D01*
X267377960Y-133335200D01*
X267487180Y-133314880D01*
X267586240Y-133294560D01*
X267667520Y-133276780D01*
X267731020Y-133264080D01*
X267774200Y-133251380D01*
X267794520Y-133246300D01*
X267794520Y-133246300D01*
X267804680Y-133228520D01*
X267822460Y-133190420D01*
X267847860Y-133134540D01*
X267880880Y-133065960D01*
X267913900Y-132989760D01*
X267946920Y-132911020D01*
X267982480Y-132834820D01*
X268012960Y-132763700D01*
X268038360Y-132700200D01*
X268056140Y-132654480D01*
X268066300Y-132626540D01*
X268066300Y-132624000D01*
X268058680Y-132608760D01*
X268035820Y-132573200D01*
X268002800Y-132519860D01*
X267957080Y-132451280D01*
X267903740Y-132372540D01*
X267842780Y-132283640D01*
X267791980Y-132207440D01*
X267515120Y-131806120D01*
X267515120Y-131643560D01*
X267515120Y-131481000D01*
X267906280Y-131087300D01*
X268297440Y-130696140D01*
X268465080Y-130696140D01*
X268632720Y-130696140D01*
X268988320Y-130939980D01*
X269079760Y-131000940D01*
X269166120Y-131061900D01*
X269244860Y-131115240D01*
X269310900Y-131160960D01*
X269361700Y-131196520D01*
X269394720Y-131219380D01*
X269399800Y-131221920D01*
X269458220Y-131262560D01*
X269724920Y-131153340D01*
X269829060Y-131112700D01*
X269907800Y-131079680D01*
X269968760Y-131054280D01*
X270011940Y-131033960D01*
X270039880Y-131018720D01*
X270057660Y-131006020D01*
X270070360Y-130995860D01*
X270075440Y-130983160D01*
X270075440Y-130980620D01*
X270080520Y-130960300D01*
X270090680Y-130914580D01*
X270103380Y-130851080D01*
X270118620Y-130767260D01*
X270138940Y-130668200D01*
X270159260Y-130558980D01*
X270179580Y-130439600D01*
X270182120Y-130426900D01*
X270204980Y-130310060D01*
X270227840Y-130198300D01*
X270245620Y-130099240D01*
X270263400Y-130015420D01*
X270278640Y-129949380D01*
X270288800Y-129903660D01*
X270296420Y-129883340D01*
X270296420Y-129883340D01*
X270304040Y-129878260D01*
X270321820Y-129875720D01*
X270347220Y-129870640D01*
X270387860Y-129868100D01*
X270443740Y-129868100D01*
X270517400Y-129865560D01*
X270608840Y-129865560D01*
X270723140Y-129863020D01*
X270862840Y-129863020D01*
X271005080Y-129863020D01*
X271142240Y-129863020D01*
X271271780Y-129865560D01*
X271388620Y-129865560D01*
X271492760Y-129868100D01*
X271581660Y-129868100D01*
X271647700Y-129870640D01*
X271693420Y-129873180D01*
X271716280Y-129875720D01*
X271716280Y-129875720D01*
X271723900Y-129893500D01*
X271734060Y-129934140D01*
X271749300Y-130002720D01*
X271769620Y-130089080D01*
X271789940Y-130198300D01*
X271815340Y-130325300D01*
X271833120Y-130421820D01*
X271855980Y-130541200D01*
X271876300Y-130655500D01*
X271896620Y-130757100D01*
X271911860Y-130843460D01*
X271927100Y-130912040D01*
X271937260Y-130960300D01*
X271942340Y-130985700D01*
X271942340Y-130985700D01*
X271955040Y-131000940D01*
X271985520Y-131018720D01*
X272031240Y-131041580D01*
X272099820Y-131072060D01*
X272188720Y-131112700D01*
X272254760Y-131138100D01*
X272351280Y-131178740D01*
X272424940Y-131206680D01*
X272478280Y-131229540D01*
X272518920Y-131242240D01*
X272544320Y-131247320D01*
X272564640Y-131249860D01*
X272577340Y-131244780D01*
X272590040Y-131239700D01*
X272592580Y-131237160D01*
X272612900Y-131224460D01*
X272653540Y-131196520D01*
X272709420Y-131155880D01*
X272783080Y-131107620D01*
X272864360Y-131051740D01*
X272955800Y-130990780D01*
X273006600Y-130955220D01*
X273382520Y-130696140D01*
X273550160Y-130696140D01*
X273715260Y-130696140D01*
X274106420Y-131087300D01*
X274497580Y-131478460D01*
X274497580Y-131646100D01*
X274497580Y-131813740D01*
X274220720Y-132215060D01*
X273943860Y-132616380D01*
X274075940Y-132928800D01*
X274116580Y-133017700D01*
X274152140Y-133098980D01*
X274185160Y-133165020D01*
X274210560Y-133215820D01*
X274228340Y-133246300D01*
X274233420Y-133251380D01*
X274253740Y-133256460D01*
X274296920Y-133266620D01*
X274360420Y-133281860D01*
X274444240Y-133297100D01*
X274543300Y-133317420D01*
X274652520Y-133337740D01*
X274769360Y-133360600D01*
X274782060Y-133363140D01*
X274919220Y-133388540D01*
X275038600Y-133411400D01*
X275137660Y-133431720D01*
X275218940Y-133449500D01*
X275277360Y-133464740D01*
X275310380Y-133474900D01*
X275318000Y-133479980D01*
X275320540Y-133495220D01*
X275323080Y-133538400D01*
X275325620Y-133604440D01*
X275328160Y-133690800D01*
X275328160Y-133792400D01*
X275330700Y-133906700D01*
X275330700Y-134033700D01*
X275330700Y-134170860D01*
X275330700Y-134188640D01*
X275330700Y-134348660D01*
X275330700Y-134348660D01*
X275330700Y-134348660D01*
G37*
X275330700Y-134348660D02*
X275330700Y-134485820D01*
X275330700Y-134597580D01*
X275328160Y-134686480D01*
X275328160Y-134757600D01*
X275325620Y-134810940D01*
X275323080Y-134849040D01*
X275320540Y-134876980D01*
X275315460Y-134892220D01*
X275310380Y-134897300D01*
X275292600Y-134904920D01*
X275249420Y-134915080D01*
X275185920Y-134930320D01*
X275104640Y-134945560D01*
X275008120Y-134965880D01*
X274898900Y-134986200D01*
X274784600Y-135009060D01*
X274657600Y-135031920D01*
X274543300Y-135054780D01*
X274444240Y-135075100D01*
X274362960Y-135092880D01*
X274302000Y-135105580D01*
X274266440Y-135115740D01*
X274256280Y-135120820D01*
X274246120Y-135138600D01*
X274225800Y-135176700D01*
X274200400Y-135235120D01*
X274169920Y-135303700D01*
X274136900Y-135379900D01*
X274103880Y-135463720D01*
X274070860Y-135545000D01*
X274040380Y-135621200D01*
X274014980Y-135689780D01*
X273994660Y-135745660D01*
X273981960Y-135783760D01*
X273979420Y-135799000D01*
X273987040Y-135811700D01*
X274009900Y-135847260D01*
X274045460Y-135900600D01*
X274091180Y-135966640D01*
X274144520Y-136045380D01*
X274202940Y-136131740D01*
X274241040Y-136185080D01*
X274497580Y-136561000D01*
X274497580Y-136728640D01*
X274497580Y-136896280D01*
X274106420Y-137287440D01*
X273715260Y-137678600D01*
X273550160Y-137678600D01*
X273387600Y-137678600D01*
X273016760Y-137424600D01*
X272648460Y-137170600D01*
X272529080Y-137234100D01*
X272412240Y-137300140D01*
X272239520Y-137295060D01*
X272066800Y-137289980D01*
X271688340Y-136380660D01*
X271309880Y-135471340D01*
X271309880Y-135326560D01*
X271309880Y-135263060D01*
X271312420Y-135209720D01*
X271314960Y-135174160D01*
X271317500Y-135161460D01*
X271332740Y-135143680D01*
X271365760Y-135115740D01*
X271411480Y-135080180D01*
X271454660Y-135049700D01*
X271571500Y-134963340D01*
X271668020Y-134882060D01*
X271746760Y-134800780D01*
X271812800Y-134714420D01*
X271871220Y-134615360D01*
X271909320Y-134541700D01*
X271967740Y-134409620D01*
X272000760Y-134290240D01*
X272008380Y-134181020D01*
X272003300Y-134112440D01*
X271957580Y-133947340D01*
X271886460Y-133792400D01*
X271795020Y-133647620D01*
X271678180Y-133515540D01*
X271543560Y-133401240D01*
X271393700Y-133307260D01*
X271373380Y-133297100D01*
X271266700Y-133248840D01*
X271162560Y-133215820D01*
X271063500Y-133195500D01*
X271005080Y-133190420D01*
X270898400Y-133203120D01*
X270779020Y-133236140D01*
X270654560Y-133289480D01*
X270532640Y-133360600D01*
X270418340Y-133444420D01*
X270314200Y-133538400D01*
X270248160Y-133609520D01*
X270187200Y-133698420D01*
X270126240Y-133805100D01*
X270075440Y-133919400D01*
X270034800Y-134028620D01*
X270024640Y-134064180D01*
X270011940Y-134137840D01*
X270006860Y-134206420D01*
X270011940Y-134272460D01*
X270032260Y-134348660D01*
X270062740Y-134442640D01*
X270070360Y-134462960D01*
X270144020Y-134617900D01*
X270240540Y-134760140D01*
X270362460Y-134892220D01*
X270507240Y-135011600D01*
X270606300Y-135080180D01*
X270646940Y-135108120D01*
X270679960Y-135130980D01*
X270695200Y-135143680D01*
X270697740Y-135164000D01*
X270702820Y-135207180D01*
X270702820Y-135263060D01*
X270705360Y-135316400D01*
X270705360Y-135471340D01*
X270337060Y-136355260D01*
X270276100Y-136507660D01*
X270217680Y-136649900D01*
X270161800Y-136784520D01*
X270111000Y-136906440D01*
X270065280Y-137013120D01*
X270027180Y-137104560D01*
X269996700Y-137180760D01*
X269973840Y-137234100D01*
X269958600Y-137264580D01*
X269956060Y-137269660D01*
X269948440Y-137282360D01*
X269933200Y-137289980D01*
X269907800Y-137295060D01*
X269867160Y-137297600D01*
X269806200Y-137297600D01*
X269775720Y-137297600D01*
X269608080Y-137297600D01*
X269488700Y-137234100D01*
X269369320Y-137170600D01*
X269138180Y-137330620D01*
X269054360Y-137386500D01*
X268968000Y-137447460D01*
X268884180Y-137503340D01*
X268813060Y-137551600D01*
X268767340Y-137584620D01*
X268627640Y-137678600D01*
X268462540Y-137678600D01*
X268299980Y-137678600D01*
X267906280Y-137287440D01*
X267515120Y-136896280D01*
X267515120Y-136731180D01*
X267515120Y-136660060D01*
X267517660Y-136611800D01*
X267522740Y-136576240D01*
X267530360Y-136550840D01*
X267545600Y-136525440D01*
X267563380Y-136500040D01*
X267583700Y-136469560D01*
X267616720Y-136418760D01*
X267662440Y-136352720D01*
X267713240Y-136276520D01*
X267771660Y-136192700D01*
X267822460Y-136116500D01*
X267880880Y-136032680D01*
X267931680Y-135956480D01*
X267974860Y-135890440D01*
X268007880Y-135837100D01*
X268030740Y-135801540D01*
X268038360Y-135786300D01*
X268033280Y-135768520D01*
X268018040Y-135727880D01*
X267997720Y-135669460D01*
X267967240Y-135595800D01*
X267934220Y-135511980D01*
X267908820Y-135445940D01*
X267865640Y-135336720D01*
X267830080Y-135252900D01*
X267802140Y-135189400D01*
X267779280Y-135146220D01*
X267764040Y-135120820D01*
X267751340Y-135110660D01*
X267728480Y-135105580D01*
X267685300Y-135095420D01*
X267619260Y-135082720D01*
X267535440Y-135064940D01*
X267436380Y-135047160D01*
X267327160Y-135024300D01*
X267220480Y-135006520D01*
X267106180Y-134983660D01*
X266996960Y-134963340D01*
X266902980Y-134943020D01*
X266821700Y-134927780D01*
X266758200Y-134912540D01*
X266717560Y-134902380D01*
X266702320Y-134897300D01*
X266697240Y-134889680D01*
X266694700Y-134871900D01*
X266692160Y-134841420D01*
X266689620Y-134798240D01*
X266687080Y-134739820D01*
X266684540Y-134661080D01*
X266684540Y-134564560D01*
X266684540Y-134445180D01*
X266682000Y-134297860D01*
X266682000Y-134186100D01*
X266682000Y-133490140D01*
X266715020Y-133472360D01*
X266735340Y-133464740D01*
X266781060Y-133452040D01*
X266847100Y-133439340D01*
X266930920Y-133421560D01*
X267029980Y-133401240D01*
X267141740Y-133380920D01*
X267258580Y-133358060D01*
X267261120Y-133358060D01*
X267377960Y-133335200D01*
X267487180Y-133314880D01*
X267586240Y-133294560D01*
X267667520Y-133276780D01*
X267731020Y-133264080D01*
X267774200Y-133251380D01*
X267794520Y-133246300D01*
X267794520Y-133246300D01*
X267804680Y-133228520D01*
X267822460Y-133190420D01*
X267847860Y-133134540D01*
X267880880Y-133065960D01*
X267913900Y-132989760D01*
X267946920Y-132911020D01*
X267982480Y-132834820D01*
X268012960Y-132763700D01*
X268038360Y-132700200D01*
X268056140Y-132654480D01*
X268066300Y-132626540D01*
X268066300Y-132624000D01*
X268058680Y-132608760D01*
X268035820Y-132573200D01*
X268002800Y-132519860D01*
X267957080Y-132451280D01*
X267903740Y-132372540D01*
X267842780Y-132283640D01*
X267791980Y-132207440D01*
X267515120Y-131806120D01*
X267515120Y-131643560D01*
X267515120Y-131481000D01*
X267906280Y-131087300D01*
X268297440Y-130696140D01*
X268465080Y-130696140D01*
X268632720Y-130696140D01*
X268988320Y-130939980D01*
X269079760Y-131000940D01*
X269166120Y-131061900D01*
X269244860Y-131115240D01*
X269310900Y-131160960D01*
X269361700Y-131196520D01*
X269394720Y-131219380D01*
X269399800Y-131221920D01*
X269458220Y-131262560D01*
X269724920Y-131153340D01*
X269829060Y-131112700D01*
X269907800Y-131079680D01*
X269968760Y-131054280D01*
X270011940Y-131033960D01*
X270039880Y-131018720D01*
X270057660Y-131006020D01*
X270070360Y-130995860D01*
X270075440Y-130983160D01*
X270075440Y-130980620D01*
X270080520Y-130960300D01*
X270090680Y-130914580D01*
X270103380Y-130851080D01*
X270118620Y-130767260D01*
X270138940Y-130668200D01*
X270159260Y-130558980D01*
X270179580Y-130439600D01*
X270182120Y-130426900D01*
X270204980Y-130310060D01*
X270227840Y-130198300D01*
X270245620Y-130099240D01*
X270263400Y-130015420D01*
X270278640Y-129949380D01*
X270288800Y-129903660D01*
X270296420Y-129883340D01*
X270296420Y-129883340D01*
X270304040Y-129878260D01*
X270321820Y-129875720D01*
X270347220Y-129870640D01*
X270387860Y-129868100D01*
X270443740Y-129868100D01*
X270517400Y-129865560D01*
X270608840Y-129865560D01*
X270723140Y-129863020D01*
X270862840Y-129863020D01*
X271005080Y-129863020D01*
X271142240Y-129863020D01*
X271271780Y-129865560D01*
X271388620Y-129865560D01*
X271492760Y-129868100D01*
X271581660Y-129868100D01*
X271647700Y-129870640D01*
X271693420Y-129873180D01*
X271716280Y-129875720D01*
X271716280Y-129875720D01*
X271723900Y-129893500D01*
X271734060Y-129934140D01*
X271749300Y-130002720D01*
X271769620Y-130089080D01*
X271789940Y-130198300D01*
X271815340Y-130325300D01*
X271833120Y-130421820D01*
X271855980Y-130541200D01*
X271876300Y-130655500D01*
X271896620Y-130757100D01*
X271911860Y-130843460D01*
X271927100Y-130912040D01*
X271937260Y-130960300D01*
X271942340Y-130985700D01*
X271942340Y-130985700D01*
X271955040Y-131000940D01*
X271985520Y-131018720D01*
X272031240Y-131041580D01*
X272099820Y-131072060D01*
X272188720Y-131112700D01*
X272254760Y-131138100D01*
X272351280Y-131178740D01*
X272424940Y-131206680D01*
X272478280Y-131229540D01*
X272518920Y-131242240D01*
X272544320Y-131247320D01*
X272564640Y-131249860D01*
X272577340Y-131244780D01*
X272590040Y-131239700D01*
X272592580Y-131237160D01*
X272612900Y-131224460D01*
X272653540Y-131196520D01*
X272709420Y-131155880D01*
X272783080Y-131107620D01*
X272864360Y-131051740D01*
X272955800Y-130990780D01*
X273006600Y-130955220D01*
X273382520Y-130696140D01*
X273550160Y-130696140D01*
X273715260Y-130696140D01*
X274106420Y-131087300D01*
X274497580Y-131478460D01*
X274497580Y-131646100D01*
X274497580Y-131813740D01*
X274220720Y-132215060D01*
X273943860Y-132616380D01*
X274075940Y-132928800D01*
X274116580Y-133017700D01*
X274152140Y-133098980D01*
X274185160Y-133165020D01*
X274210560Y-133215820D01*
X274228340Y-133246300D01*
X274233420Y-133251380D01*
X274253740Y-133256460D01*
X274296920Y-133266620D01*
X274360420Y-133281860D01*
X274444240Y-133297100D01*
X274543300Y-133317420D01*
X274652520Y-133337740D01*
X274769360Y-133360600D01*
X274782060Y-133363140D01*
X274919220Y-133388540D01*
X275038600Y-133411400D01*
X275137660Y-133431720D01*
X275218940Y-133449500D01*
X275277360Y-133464740D01*
X275310380Y-133474900D01*
X275318000Y-133479980D01*
X275320540Y-133495220D01*
X275323080Y-133538400D01*
X275325620Y-133604440D01*
X275328160Y-133690800D01*
X275328160Y-133792400D01*
X275330700Y-133906700D01*
X275330700Y-134033700D01*
X275330700Y-134170860D01*
X275330700Y-134188640D01*
X275330700Y-134348660D01*
X275330700Y-134348660D01*
D13*
X264058400Y-104736900D03*
D14*
X269138400Y-104736900D03*
X258978400Y-104736900D03*
D15*
X267976400Y-107276900D03*
X266666400Y-108736900D03*
X261625400Y-109816900D03*
X261665400Y-109236900D03*
D13*
X235483400Y-85686900D03*
D14*
X240563400Y-85686900D03*
X230403400Y-85686900D03*
D15*
X239401400Y-88226900D03*
X238091400Y-89686900D03*
X233050400Y-90766900D03*
X233090400Y-90186900D03*
D16*
X279786400Y-60274200D03*
X288766400Y-60274200D03*
X280146400Y-66224200D03*
X288406400Y-66224200D03*
D17*
X280676400Y-67474200D03*
D18*
X287876400Y-67474200D03*
D19*
X281876400Y-66124200D03*
X283476400Y-66124200D03*
X286676400Y-66124200D03*
X285876400Y-66124200D03*
X285076400Y-66124200D03*
X282676400Y-66124200D03*
X281476400Y-66824200D03*
X283076400Y-66824200D03*
X283876400Y-66824200D03*
X284676400Y-66824200D03*
X285476400Y-66824200D03*
X287076400Y-66824200D03*
D20*
X90830400Y-114515900D03*
X93370400Y-114515900D03*
X95910400Y-114515900D03*
X98450400Y-114515900D03*
X100990400Y-114515900D03*
X103530400Y-114515900D03*
X106070400Y-114515900D03*
X108610400Y-114515900D03*
X111150400Y-114515900D03*
X113690400Y-114515900D03*
X116230400Y-114515900D03*
X118770400Y-114515900D03*
X121310400Y-114515900D03*
X123850400Y-114515900D03*
X126390400Y-114515900D03*
D21*
X144983200Y-119810000D03*
X145999200Y-112190000D03*
X143967200Y-112190000D03*
D22*
X147523200Y-119810000D03*
X147523200Y-114095000D03*
X142443200Y-119810000D03*
X142443200Y-114095000D03*
D13*
X256914400Y-161886900D03*
D14*
X261994400Y-161886900D03*
X251834400Y-161886900D03*
D23*
X260432400Y-164026900D03*
X259322400Y-165886900D03*
X254281400Y-166966900D03*
X254321400Y-166386900D03*
D13*
X254533400Y-161886900D03*
D14*
X259613400Y-161886900D03*
X249453400Y-161886900D03*
D15*
X258451400Y-164426900D03*
X257141400Y-165886900D03*
X252100400Y-166966900D03*
X252140400Y-166386900D03*
D13*
X292633400Y-161886900D03*
D14*
X297713400Y-161886900D03*
X287553400Y-161886900D03*
D15*
X296551400Y-164426900D03*
D23*
X295541400Y-166186900D03*
X290400400Y-166966900D03*
X290440400Y-166386900D03*
D13*
X173570400Y-161886900D03*
D14*
X178650400Y-161886900D03*
X168490400Y-161886900D03*
D15*
X177488400Y-164426900D03*
X176178400Y-165886900D03*
X171137400Y-166966900D03*
X171177400Y-166386900D03*
D13*
X140233400Y-161886900D03*
D14*
X145313400Y-161886900D03*
D15*
X144151400Y-164426900D03*
D23*
X143141400Y-166186900D03*
X138000400Y-166966900D03*
X138040400Y-166386900D03*
D13*
X137852400Y-161886900D03*
D14*
X132772400Y-161886900D03*
D23*
X141470400Y-164126900D03*
D15*
X140460400Y-165886900D03*
D23*
X135219400Y-166966900D03*
X135259400Y-166386900D03*
D13*
X135471400Y-161886900D03*
D14*
X130391400Y-161886900D03*
D15*
X139389400Y-164426900D03*
X138079400Y-165886900D03*
X133038400Y-166966900D03*
X133078400Y-166386900D03*
D13*
X130708400Y-161886900D03*
D14*
X125628400Y-161886900D03*
D15*
X134626400Y-164426900D03*
X133316400Y-165886900D03*
X128275400Y-166966900D03*
X128315400Y-166386900D03*
D13*
X142614400Y-161886900D03*
D14*
X147694400Y-161886900D03*
D15*
X146532400Y-164426900D03*
X145222400Y-165886900D03*
X140181400Y-166966900D03*
X140221400Y-166386900D03*
D13*
X116421400Y-161886900D03*
D14*
X121501400Y-161886900D03*
D15*
X120339400Y-164426900D03*
D23*
X119329400Y-166186900D03*
X114188400Y-166966900D03*
X114228400Y-166386900D03*
D13*
X166427400Y-161886900D03*
D14*
X171507400Y-161886900D03*
X161347400Y-161886900D03*
D15*
X170345400Y-164426900D03*
X169035400Y-165886900D03*
X163994400Y-166966900D03*
X164034400Y-166386900D03*
D13*
X171189400Y-161886900D03*
D14*
X176269400Y-161886900D03*
D15*
X175107400Y-164426900D03*
X173797400Y-165886900D03*
X168756400Y-166966900D03*
X168796400Y-166386900D03*
D13*
X140233400Y-85686900D03*
D14*
X145313400Y-85686900D03*
X135153400Y-85686900D03*
D15*
X144151400Y-88226900D03*
X142841400Y-89686900D03*
X137800400Y-90766900D03*
X137840400Y-90186900D03*
D13*
X130708400Y-104736900D03*
D14*
X135788400Y-104736900D03*
X125628400Y-104736900D03*
D15*
X134626400Y-107276900D03*
X133316400Y-108736900D03*
X128275400Y-109816900D03*
X128315400Y-109236900D03*
D13*
X106895400Y-161886900D03*
D14*
X101815400Y-161886900D03*
D15*
X110813400Y-164426900D03*
X109503400Y-165886900D03*
X104462400Y-166966900D03*
X104502400Y-166386900D03*
D13*
X66414400Y-161886900D03*
D14*
X71494400Y-161886900D03*
X61334400Y-161886900D03*
D15*
X70332400Y-164426900D03*
X69022400Y-165886900D03*
X63981400Y-166966900D03*
X64021400Y-166386900D03*
D13*
X68796400Y-161886900D03*
D14*
X73876400Y-161886900D03*
X63716400Y-161886900D03*
D15*
X72714400Y-164426900D03*
X71404400Y-165886900D03*
X66363400Y-166966900D03*
X66403400Y-166386900D03*
D13*
X68796400Y-104736900D03*
D14*
X73876400Y-104736900D03*
X63716400Y-104736900D03*
D15*
X72714400Y-107276900D03*
X71404400Y-108736900D03*
X66363400Y-109816900D03*
X66403400Y-109236900D03*
D13*
X159283400Y-85686900D03*
D14*
X164363400Y-85686900D03*
X154203400Y-85686900D03*
D15*
X163201400Y-88226900D03*
X161891400Y-89686900D03*
X156850400Y-90766900D03*
X156890400Y-90186900D03*
D13*
X183095400Y-142836900D03*
D14*
X188175400Y-142836900D03*
X178015400Y-142836900D03*
D15*
X187013400Y-145376900D03*
X185703400Y-146836900D03*
X180662400Y-147916900D03*
X180702400Y-147336900D03*
D13*
X128327400Y-161886900D03*
D14*
X133407400Y-161886900D03*
X123247400Y-161886900D03*
D15*
X132245400Y-164426900D03*
X130935400Y-165886900D03*
X125894400Y-166966900D03*
X125934400Y-166386900D03*
D13*
X164045400Y-142836900D03*
D14*
X169125400Y-142836900D03*
X158965400Y-142836900D03*
D15*
X167963400Y-145376900D03*
X166653400Y-146836900D03*
X161612400Y-147916900D03*
X161652400Y-147336900D03*
D13*
X144996400Y-142836900D03*
D14*
X150076400Y-142836900D03*
X139916400Y-142836900D03*
D15*
X148914400Y-145376900D03*
X147604400Y-146836900D03*
X142563400Y-147916900D03*
X142603400Y-147336900D03*
D13*
X87846400Y-142836900D03*
D14*
X92926400Y-142836900D03*
X82766400Y-142836900D03*
D15*
X91764400Y-145376900D03*
X90454400Y-146836900D03*
X85413400Y-147916900D03*
X85453400Y-147336900D03*
D13*
X75939400Y-142836900D03*
D14*
X81019400Y-142836900D03*
X70859400Y-142836900D03*
D15*
X79857400Y-145376900D03*
X78547400Y-146836900D03*
X73506400Y-147916900D03*
X73546400Y-147336900D03*
D13*
X66414400Y-142836900D03*
D14*
X71494400Y-142836900D03*
X61334400Y-142836900D03*
D15*
X70332400Y-145376900D03*
X69022400Y-146836900D03*
X63981400Y-147916900D03*
X64021400Y-147336900D03*
D13*
X106895400Y-142836900D03*
D14*
X111975400Y-142836900D03*
X101815400Y-142836900D03*
D15*
X110813400Y-145376900D03*
X109503400Y-146836900D03*
X104462400Y-147916900D03*
X104502400Y-147336900D03*
D13*
X125945400Y-142836900D03*
D14*
X131025400Y-142836900D03*
X120865400Y-142836900D03*
D15*
X129863400Y-145376900D03*
X128553400Y-146836900D03*
X123512400Y-147916900D03*
X123552400Y-147336900D03*
D13*
X97371400Y-123786900D03*
D14*
X102451400Y-123786900D03*
X92291400Y-123786900D03*
D15*
X101289400Y-126326900D03*
X99979400Y-127786900D03*
X94938400Y-128866900D03*
X94978400Y-128286900D03*
D13*
X71177400Y-123786900D03*
D14*
X76257400Y-123786900D03*
D15*
X75095400Y-126326900D03*
X73785400Y-127786900D03*
X68744400Y-128866900D03*
X68784400Y-128286900D03*
D13*
X116421400Y-123786900D03*
D14*
X121501400Y-123786900D03*
X111341400Y-123786900D03*
D15*
X120339400Y-126326900D03*
X119029400Y-127786900D03*
X113988400Y-128866900D03*
X114028400Y-128286900D03*
D13*
X135471400Y-123786900D03*
D14*
X140551400Y-123786900D03*
X130391400Y-123786900D03*
D15*
X139389400Y-126326900D03*
X138079400Y-127786900D03*
X133038400Y-128866900D03*
X133078400Y-128286900D03*
D13*
X173570400Y-123786900D03*
D14*
X178650400Y-123786900D03*
X168490400Y-123786900D03*
D15*
X177488400Y-126326900D03*
X176178400Y-127786900D03*
X171137400Y-128866900D03*
X171177400Y-128286900D03*
D13*
X111658400Y-104736900D03*
D14*
X116738400Y-104736900D03*
X106578400Y-104736900D03*
D15*
X115576400Y-107276900D03*
X114266400Y-108736900D03*
X109225400Y-109816900D03*
X109265400Y-109236900D03*
D13*
X149758400Y-104736900D03*
D14*
X154838400Y-104736900D03*
X144678400Y-104736900D03*
D15*
X153676400Y-107276900D03*
X152366400Y-108736900D03*
X147325400Y-109816900D03*
X147365400Y-109236900D03*
D13*
X178333400Y-85686900D03*
D14*
X183413400Y-85686900D03*
X173253400Y-85686900D03*
D15*
X182251400Y-88226900D03*
X180941400Y-89686900D03*
X175900400Y-90766900D03*
X175940400Y-90186900D03*
D13*
X168808400Y-104736900D03*
D14*
X173888400Y-104736900D03*
X163728400Y-104736900D03*
D15*
X172726400Y-107276900D03*
X171416400Y-108736900D03*
X166375400Y-109816900D03*
X166415400Y-109236900D03*
D13*
X154520400Y-123786900D03*
D14*
X159600400Y-123786900D03*
X149440400Y-123786900D03*
D15*
X158438400Y-126326900D03*
X157128400Y-127786900D03*
X152087400Y-128866900D03*
X152127400Y-128286900D03*
D13*
X92608400Y-104666900D03*
D14*
X97688400Y-104666900D03*
X87528400Y-104666900D03*
D15*
X96526400Y-107206900D03*
X95216400Y-108666900D03*
X90175400Y-109746900D03*
X90215400Y-109166900D03*
D13*
X152139400Y-161886900D03*
D14*
X157219400Y-161886900D03*
X147059400Y-161886900D03*
D15*
X156057400Y-164426900D03*
X154747400Y-165886900D03*
X149706400Y-166966900D03*
X149746400Y-166386900D03*
D13*
X183095400Y-161886900D03*
D14*
X188175400Y-161886900D03*
X178015400Y-161886900D03*
D15*
X187013400Y-164426900D03*
X185703400Y-165886900D03*
X180662400Y-166966900D03*
X180702400Y-166386900D03*
D13*
X114039400Y-161886900D03*
D14*
X119119400Y-161886900D03*
X108959400Y-161886900D03*
D23*
X117657400Y-164126900D03*
D15*
X116647400Y-165886900D03*
D23*
X111406400Y-166966900D03*
X111446400Y-166386900D03*
D13*
X111658400Y-161886900D03*
D15*
X115576400Y-164426900D03*
X114266400Y-165886900D03*
X109225400Y-166966900D03*
X109265400Y-166386900D03*
D13*
X87846400Y-161886900D03*
D14*
X82766400Y-161886900D03*
D15*
X91764400Y-164426900D03*
X90454400Y-165886900D03*
X85413400Y-166966900D03*
X85453400Y-166386900D03*
D13*
X92608400Y-161886900D03*
D14*
X97688400Y-161886900D03*
D15*
X96526400Y-164426900D03*
D23*
X95516400Y-166186900D03*
X90375400Y-166966900D03*
X90415400Y-166386900D03*
D13*
X90227400Y-161886900D03*
D14*
X95307400Y-161886900D03*
X85147400Y-161886900D03*
D23*
X93845400Y-164126900D03*
D15*
X92835400Y-165886900D03*
D23*
X87594400Y-166966900D03*
X87634400Y-166386900D03*
D13*
X271202400Y-161886900D03*
D14*
X276282400Y-161886900D03*
X266122400Y-161886900D03*
D15*
X275120400Y-164426900D03*
X273810400Y-165886900D03*
X268769400Y-166966900D03*
X268809400Y-166386900D03*
D13*
X266439400Y-161886900D03*
D14*
X261359400Y-161886900D03*
D15*
X270357400Y-164426900D03*
X269047400Y-165886900D03*
D23*
X264206400Y-166966900D03*
X264246400Y-166586900D03*
D13*
X278346400Y-161886900D03*
D14*
X283426400Y-161886900D03*
X273266400Y-161886900D03*
D15*
X282264400Y-164426900D03*
X280954400Y-165886900D03*
X275913400Y-166966900D03*
X275953400Y-166386900D03*
D13*
X211671400Y-161886900D03*
D14*
X216751400Y-161886900D03*
X206591400Y-161886900D03*
D15*
X215589400Y-164426900D03*
X214279400Y-165886900D03*
X209238400Y-166966900D03*
X209278400Y-166386900D03*
D13*
X245008400Y-161886900D03*
D14*
X250088400Y-161886900D03*
X239928400Y-161886900D03*
D23*
X248626400Y-164126900D03*
D15*
X247616400Y-165886900D03*
D23*
X242375400Y-166966900D03*
X242415400Y-166386900D03*
D13*
X259295400Y-161886900D03*
D24*
X263113400Y-164126900D03*
D25*
X261703400Y-166319913D02*
X262003400Y-165800297D01*
D23*
X257062400Y-166966900D03*
X257102400Y-166386900D03*
D13*
X287870400Y-161886900D03*
D14*
X282790400Y-161886900D03*
D15*
X291788400Y-164426900D03*
X290478400Y-165886900D03*
D23*
X285637400Y-166966900D03*
X285677400Y-166586900D03*
D13*
X304539400Y-161886900D03*
D14*
X309619400Y-161886900D03*
X299459400Y-161886900D03*
D15*
X308457400Y-164426900D03*
X307147400Y-165886900D03*
X302106400Y-166966900D03*
X302146400Y-166386900D03*
D13*
X328352400Y-161886900D03*
D14*
X333432400Y-161886900D03*
X323272400Y-161886900D03*
D15*
X332270400Y-164426900D03*
X330960400Y-165886900D03*
X325919400Y-166966900D03*
X325959400Y-166386900D03*
D13*
X218814400Y-161886900D03*
D14*
X223894400Y-161886900D03*
X213734400Y-161886900D03*
D15*
X222732400Y-164426900D03*
X221422400Y-165886900D03*
X216381400Y-166966900D03*
X216421400Y-166386900D03*
D13*
X273583400Y-161886900D03*
D14*
X268503400Y-161886900D03*
D15*
X277501400Y-164426900D03*
X276191400Y-165886900D03*
X271150400Y-166966900D03*
X271190400Y-166386900D03*
D13*
X273583400Y-85686900D03*
D14*
X278663400Y-85686900D03*
X268503400Y-85686900D03*
D15*
X277501400Y-88226900D03*
X276191400Y-89686900D03*
X271150400Y-90766900D03*
X271190400Y-90186900D03*
D13*
X245008400Y-104736900D03*
D14*
X250088400Y-104736900D03*
X239928400Y-104736900D03*
D15*
X248926400Y-107276900D03*
X247616400Y-108736900D03*
X242575400Y-109816900D03*
X242615400Y-109236900D03*
D13*
X187858400Y-104736900D03*
D14*
X192938400Y-104736900D03*
X182778400Y-104736900D03*
D15*
X191776400Y-107276900D03*
X190466400Y-108736900D03*
X185425400Y-109816900D03*
X185465400Y-109236900D03*
D13*
X254533400Y-85686900D03*
D14*
X259613400Y-85686900D03*
X249453400Y-85686900D03*
D15*
X258451400Y-88226900D03*
X257141400Y-89686900D03*
X252100400Y-90766900D03*
X252140400Y-90186900D03*
D13*
X292633400Y-85686900D03*
D14*
X297713400Y-85686900D03*
X287553400Y-85686900D03*
D15*
X296551400Y-88226900D03*
X295241400Y-89686900D03*
X290200400Y-90766900D03*
X290240400Y-90186900D03*
D13*
X330733400Y-142836900D03*
D14*
X335813400Y-142836900D03*
X325653400Y-142836900D03*
D15*
X334651400Y-145376900D03*
X333341400Y-146836900D03*
X328300400Y-147916900D03*
X328340400Y-147336900D03*
D13*
X304539400Y-142836900D03*
D14*
X309619400Y-142836900D03*
X299459400Y-142836900D03*
D15*
X308457400Y-145376900D03*
X307147400Y-146836900D03*
X302106400Y-147916900D03*
X302146400Y-147336900D03*
D13*
X278346400Y-142836900D03*
D14*
X283426400Y-142836900D03*
X273266400Y-142836900D03*
D15*
X282264400Y-145376900D03*
X280954400Y-146836900D03*
X275913400Y-147916900D03*
X275953400Y-147336900D03*
D13*
X221196400Y-142836900D03*
D14*
X226276400Y-142836900D03*
X216116400Y-142836900D03*
D15*
X225114400Y-145376900D03*
X223804400Y-146836900D03*
X218763400Y-147916900D03*
X218803400Y-147336900D03*
D13*
X202146400Y-142836900D03*
D14*
X207226400Y-142836900D03*
X197066400Y-142836900D03*
D15*
X206064400Y-145376900D03*
X204754400Y-146836900D03*
X199713400Y-147916900D03*
X199753400Y-147336900D03*
D13*
X240245400Y-142836900D03*
D14*
X245325400Y-142836900D03*
X235165400Y-142836900D03*
D15*
X244163400Y-145376900D03*
X242853400Y-146836900D03*
X237812400Y-147916900D03*
X237852400Y-147336900D03*
D13*
X259295400Y-142836900D03*
D14*
X264375400Y-142836900D03*
X254215400Y-142836900D03*
D15*
X263213400Y-145376900D03*
X261903400Y-146836900D03*
X256862400Y-147916900D03*
X256902400Y-147336900D03*
D13*
X211671400Y-123786900D03*
D14*
X216751400Y-123786900D03*
X206591400Y-123786900D03*
D15*
X215589400Y-126326900D03*
X214279400Y-127786900D03*
X209238400Y-128866900D03*
X209278400Y-128286900D03*
D13*
X230721400Y-123786900D03*
D14*
X235801400Y-123786900D03*
X225641400Y-123786900D03*
D15*
X234639400Y-126326900D03*
X233329400Y-127786900D03*
X228288400Y-128866900D03*
X228328400Y-128286900D03*
D13*
X249771400Y-123786900D03*
D14*
X254851400Y-123786900D03*
X244691400Y-123786900D03*
D15*
X253689400Y-126326900D03*
X252379400Y-127786900D03*
X247338400Y-128866900D03*
X247378400Y-128286900D03*
D13*
X287870400Y-123786900D03*
D14*
X292950400Y-123786900D03*
X282790400Y-123786900D03*
D15*
X291788400Y-126326900D03*
X290478400Y-127786900D03*
X285437400Y-128866900D03*
X285477400Y-128286900D03*
D13*
X225958400Y-104736900D03*
D14*
X231038400Y-104736900D03*
X220878400Y-104736900D03*
D15*
X229876400Y-107276900D03*
X228566400Y-108736900D03*
X223525400Y-109816900D03*
X223565400Y-109236900D03*
D13*
X311683400Y-85686900D03*
D14*
X316763400Y-85686900D03*
X306603400Y-85686900D03*
D15*
X315601400Y-88226900D03*
X314291400Y-89686900D03*
X309250400Y-90766900D03*
X309290400Y-90186900D03*
D13*
X283108400Y-104736900D03*
D14*
X288188400Y-104736900D03*
X278028400Y-104736900D03*
D15*
X287026400Y-107276900D03*
X285716400Y-108736900D03*
X280675400Y-109816900D03*
X280715400Y-109236900D03*
D13*
X197383400Y-85686900D03*
D14*
X202463400Y-85686900D03*
X192303400Y-85686900D03*
D15*
X201301400Y-88226900D03*
X199991400Y-89686900D03*
X194950400Y-90766900D03*
X194990400Y-90186900D03*
D13*
X216433400Y-85686900D03*
D14*
X221513400Y-85686900D03*
X211353400Y-85686900D03*
D15*
X220351400Y-88226900D03*
X219041400Y-89686900D03*
X214000400Y-90766900D03*
X214040400Y-90186900D03*
D13*
X268821400Y-123786900D03*
D14*
X273901400Y-123786900D03*
X263741400Y-123786900D03*
D15*
X272739400Y-126326900D03*
X271429400Y-127786900D03*
X266388400Y-128866900D03*
X266428400Y-128286900D03*
D13*
X206908400Y-104666900D03*
D14*
X211988400Y-104666900D03*
X201828400Y-104666900D03*
D15*
X210826400Y-107206900D03*
X209516400Y-108666900D03*
X204475400Y-109746900D03*
X204515400Y-109166900D03*
D13*
X302158400Y-104736900D03*
D14*
X307238400Y-104736900D03*
X297078400Y-104736900D03*
D15*
X306076400Y-107276900D03*
X304766400Y-108736900D03*
X299725400Y-109816900D03*
X299765400Y-109236900D03*
D13*
X349783400Y-142836900D03*
D14*
X354863400Y-142836900D03*
X344703400Y-142836900D03*
D15*
X353701400Y-145376900D03*
X352391400Y-146836900D03*
X347350400Y-147916900D03*
X347390400Y-147336900D03*
D13*
X349783400Y-85686900D03*
D14*
X354863400Y-85686900D03*
X344703400Y-85686900D03*
D15*
X353701400Y-88226900D03*
X352391400Y-89686900D03*
X347350400Y-90766900D03*
X347390400Y-90186900D03*
D13*
X330733400Y-85686900D03*
D14*
X335813400Y-85686900D03*
X325653400Y-85686900D03*
D15*
X334651400Y-88226900D03*
X333341400Y-89686900D03*
X328300400Y-90766900D03*
X328340400Y-90186900D03*
D13*
X349783400Y-104736900D03*
D14*
X354863400Y-104736900D03*
X344703400Y-104736900D03*
D15*
X353701400Y-107276900D03*
X352391400Y-108736900D03*
X347350400Y-109816900D03*
X347390400Y-109236900D03*
D13*
X325970400Y-104863900D03*
D14*
X331050400Y-104863900D03*
X320890400Y-104863900D03*
D15*
X329888400Y-107403900D03*
X328578400Y-108863900D03*
X323537400Y-109943900D03*
X323577400Y-109363900D03*
D13*
X349783400Y-123786900D03*
D14*
X354863400Y-123786900D03*
X344703400Y-123786900D03*
D15*
X353701400Y-126326900D03*
X352391400Y-127786900D03*
X347350400Y-128866900D03*
X347390400Y-128286900D03*
D13*
X318827400Y-123786900D03*
D14*
X323907400Y-123786900D03*
X313747400Y-123786900D03*
D15*
X322745400Y-126326900D03*
X321435400Y-127786900D03*
X316394400Y-128866900D03*
X316434400Y-128286900D03*
D13*
X192620400Y-123786900D03*
D14*
X197700400Y-123786900D03*
X187540400Y-123786900D03*
D15*
X196538400Y-126326900D03*
X195228400Y-127786900D03*
X190187400Y-128866900D03*
X190227400Y-128286900D03*
D13*
X349783400Y-161886900D03*
D14*
X354863400Y-161886900D03*
X344703400Y-161886900D03*
D15*
X353701400Y-164426900D03*
X352391400Y-165886900D03*
X347350400Y-166966900D03*
X347390400Y-166386900D03*
D13*
X330733400Y-161886900D03*
D14*
X335813400Y-161886900D03*
X325653400Y-161886900D03*
D15*
X334651400Y-164426900D03*
X333341400Y-165886900D03*
X328300400Y-166966900D03*
X328340400Y-166386900D03*
D13*
X311683400Y-161886900D03*
D14*
X316763400Y-161886900D03*
X306603400Y-161886900D03*
D15*
X315601400Y-164426900D03*
X314291400Y-165886900D03*
X309250400Y-166966900D03*
X309290400Y-166386900D03*
D13*
X249771400Y-161886900D03*
D15*
X253689400Y-164426900D03*
X252379400Y-165886900D03*
X247338400Y-166966900D03*
X247378400Y-166386900D03*
D13*
X214052400Y-161886900D03*
D14*
X208972400Y-161886900D03*
D15*
X217970400Y-164426900D03*
X216660400Y-165886900D03*
X211619400Y-166966900D03*
X211659400Y-166386900D03*
D13*
X321208400Y-85686900D03*
D14*
X326288400Y-85686900D03*
X316128400Y-85686900D03*
D15*
X325126400Y-88226900D03*
X323816400Y-89686900D03*
X318775400Y-90766900D03*
X318815400Y-90186900D03*
D13*
X306920400Y-123786900D03*
D14*
X312000400Y-123786900D03*
X301840400Y-123786900D03*
D15*
X310838400Y-126326900D03*
X309528400Y-127786900D03*
X304487400Y-128866900D03*
X304527400Y-128286900D03*
D13*
X328352400Y-114261900D03*
D14*
X328352400Y-119341900D03*
D15*
X330892400Y-110343900D03*
X332352400Y-111653900D03*
X333432400Y-116694900D03*
X332852400Y-116654900D03*
D13*
X314064400Y-142836900D03*
D14*
X319144400Y-142836900D03*
X308984400Y-142836900D03*
D15*
X317982400Y-145376900D03*
X316672400Y-146836900D03*
X311631400Y-147916900D03*
X311671400Y-147336900D03*
D13*
X328352400Y-123786900D03*
D14*
X333432400Y-123786900D03*
X323272400Y-123786900D03*
D15*
X332270400Y-126326900D03*
X330960400Y-127786900D03*
X325919400Y-128866900D03*
X325959400Y-128286900D03*
D13*
X242627400Y-161886900D03*
D14*
X247707400Y-161886900D03*
X237547400Y-161886900D03*
D15*
X246545400Y-164426900D03*
X245235400Y-165886900D03*
X240194400Y-166966900D03*
X240234400Y-166386900D03*
D13*
X247389400Y-161886900D03*
D14*
X252469400Y-161886900D03*
D15*
X251307400Y-164426900D03*
D23*
X250297400Y-166186900D03*
X245156400Y-166966900D03*
X245196400Y-166386900D03*
D13*
X121183400Y-85686900D03*
D14*
X126263400Y-85686900D03*
X116103400Y-85686900D03*
D15*
X125101400Y-88226900D03*
X123791400Y-89686900D03*
X118750400Y-90766900D03*
X118790400Y-90186900D03*
D13*
X102133400Y-85686900D03*
D14*
X107213400Y-85686900D03*
X97053400Y-85686900D03*
D15*
X106051400Y-88226900D03*
X104741400Y-89686900D03*
X99700400Y-90766900D03*
X99740400Y-90186900D03*
D13*
X83083400Y-85686900D03*
D14*
X88163400Y-85686900D03*
X78003400Y-85686900D03*
D15*
X87001400Y-88226900D03*
X85691400Y-89686900D03*
X80650400Y-90766900D03*
X80690400Y-90186900D03*
D13*
X64033400Y-85686900D03*
D14*
X69113400Y-85686900D03*
X58953400Y-85686900D03*
D15*
X67951400Y-88226900D03*
X66641400Y-89686900D03*
X61600400Y-90766900D03*
X61640400Y-90186900D03*
D13*
X66414400Y-123786900D03*
D14*
X61334400Y-123786900D03*
D15*
X70332400Y-126326900D03*
X69022400Y-127786900D03*
X63981400Y-128866900D03*
X64021400Y-128286900D03*
D16*
X144936400Y-60105900D03*
X153916400Y-60105900D03*
X145296400Y-66055900D03*
X153556400Y-66055900D03*
D17*
X145826400Y-67305900D03*
D18*
X153026400Y-67305900D03*
D19*
X147026400Y-65955900D03*
X148626400Y-65955900D03*
X151826400Y-65955900D03*
X151026400Y-65955900D03*
X150226400Y-65955900D03*
X147826400Y-65955900D03*
X146626400Y-66655900D03*
X148226400Y-66655900D03*
X149026400Y-66655900D03*
X149826400Y-66655900D03*
X150626400Y-66655900D03*
X152226400Y-66655900D03*
D26*
X335337400Y-102323900D03*
X335337400Y-126199900D03*
D27*
X320097400Y-102323900D03*
X320097400Y-126199900D03*
D26*
X164077400Y-168871900D03*
X140201400Y-168871900D03*
D27*
X164077400Y-153631900D03*
X140201400Y-153631900D03*
D26*
X64001400Y-135851900D03*
X87877400Y-135851900D03*
D27*
X64001400Y-151091900D03*
X87877400Y-151091900D03*
D28*
X172300400Y-156806900D03*
D29*
X174840400Y-156806900D03*
D28*
X141344400Y-156806900D03*
D29*
X143884400Y-156806900D03*
D28*
X141503400Y-156806900D03*
D29*
X138963400Y-156806900D03*
D28*
X136582400Y-156806900D03*
D29*
X139122400Y-156806900D03*
D28*
X136741400Y-156806900D03*
D29*
X134201400Y-156806900D03*
D28*
X129438400Y-156806900D03*
D29*
X131978400Y-156806900D03*
D28*
X115151400Y-156806900D03*
D29*
X117691400Y-156806900D03*
D28*
X160553400Y-80606900D03*
D29*
X158013400Y-80606900D03*
D28*
X93878400Y-99356900D03*
D29*
X91338400Y-99356900D03*
D28*
X89116400Y-137756900D03*
D29*
X86576400Y-137756900D03*
D28*
X112928400Y-99356900D03*
D29*
X110388400Y-99356900D03*
D28*
X108165400Y-137756900D03*
D29*
X105625400Y-137756900D03*
D28*
X131978400Y-99656900D03*
D29*
X129438400Y-99656900D03*
D28*
X127215400Y-137756900D03*
D29*
X124675400Y-137756900D03*
D28*
X151028400Y-99656900D03*
D29*
X148488400Y-99656900D03*
D28*
X77209400Y-137756900D03*
D29*
X74669400Y-137756900D03*
D28*
X70066400Y-99356900D03*
D29*
X67526400Y-99356900D03*
D28*
X174840400Y-118706900D03*
D29*
X172300400Y-118706900D03*
D28*
X146266400Y-137756900D03*
D29*
X143726400Y-137756900D03*
D28*
X155790400Y-118706900D03*
D29*
X153250400Y-118706900D03*
D28*
X103403400Y-80606900D03*
D29*
X100863400Y-80606900D03*
D28*
X136741400Y-118706900D03*
D29*
X134201400Y-118706900D03*
D28*
X117691400Y-118706900D03*
D29*
X115151400Y-118706900D03*
D28*
X172459400Y-156806900D03*
D29*
X169919400Y-156806900D03*
D28*
X141503400Y-80606900D03*
D29*
X138963400Y-80606900D03*
D28*
X98641400Y-118706900D03*
D29*
X96101400Y-118706900D03*
D28*
X129597400Y-156806900D03*
D29*
X127057400Y-156806900D03*
D28*
X122453400Y-80606900D03*
D29*
X119913400Y-80606900D03*
D28*
X72447400Y-118706900D03*
D29*
X69907400Y-118706900D03*
D28*
X108165400Y-156806900D03*
D29*
X105625400Y-156806900D03*
D28*
X179603400Y-80606900D03*
D29*
X177063400Y-80606900D03*
D28*
X88957400Y-156806900D03*
D29*
X91497400Y-156806900D03*
D28*
X84353900Y-80606900D03*
D29*
X81813900Y-80606900D03*
D28*
X65144400Y-156806900D03*
D29*
X67684400Y-156806900D03*
D28*
X65303400Y-80606900D03*
D29*
X62763400Y-80606900D03*
D28*
X165315400Y-137756900D03*
D29*
X162775400Y-137756900D03*
D28*
X170078400Y-99656900D03*
D29*
X167538400Y-99656900D03*
D28*
X67684400Y-118706900D03*
D29*
X65144400Y-118706900D03*
D28*
X67684400Y-137756900D03*
D29*
X65144400Y-137756900D03*
D28*
X184365400Y-137756900D03*
D29*
X181825400Y-137756900D03*
D28*
X167697400Y-156806900D03*
D29*
X165157400Y-156806900D03*
D28*
X153409400Y-156806900D03*
D29*
X150869400Y-156806900D03*
D28*
X184365400Y-156806900D03*
D29*
X181825400Y-156806900D03*
D28*
X115309400Y-156806900D03*
D29*
X112769400Y-156806900D03*
D28*
X110388400Y-156806900D03*
D29*
X112928400Y-156806900D03*
D28*
X89116400Y-156806900D03*
D29*
X86576400Y-156806900D03*
D28*
X70066400Y-156806900D03*
D29*
X67526400Y-156806900D03*
D28*
X93878400Y-156806900D03*
D29*
X91338400Y-156806900D03*
D30*
X84378800Y-124625100D03*
D31*
X176708400Y-70055900D03*
X160908400Y-70055900D03*
D28*
X243897400Y-156806900D03*
D29*
X241357400Y-156806900D03*
D28*
X243738400Y-156806900D03*
D29*
X246278400Y-156806900D03*
D28*
X248501400Y-156806900D03*
D29*
X251041400Y-156806900D03*
D28*
X212941400Y-156806900D03*
D29*
X210401400Y-156806900D03*
D28*
X267709400Y-156806900D03*
D29*
X265169400Y-156806900D03*
D28*
X289140400Y-156806900D03*
D29*
X286600400Y-156806900D03*
D28*
X288982400Y-156806900D03*
D29*
X291522400Y-156806900D03*
D28*
X305809400Y-156806900D03*
D29*
X303269400Y-156806900D03*
D28*
X327082400Y-156806900D03*
D29*
X329622400Y-156806900D03*
D28*
X351053400Y-99656900D03*
D29*
X348513400Y-99656900D03*
D28*
X289140400Y-118706900D03*
D29*
X286600400Y-118706900D03*
D28*
X231991400Y-118706900D03*
D29*
X229451400Y-118706900D03*
D28*
X303428400Y-99656900D03*
D29*
X300888400Y-99656900D03*
D28*
X246278400Y-99656900D03*
D29*
X243738400Y-99656900D03*
D28*
X312953400Y-80606900D03*
D29*
X310413400Y-80606900D03*
D28*
X255803400Y-80606900D03*
D29*
X253263400Y-80606900D03*
D28*
X332003400Y-156806900D03*
D29*
X329463400Y-156806900D03*
D28*
X241515400Y-137756900D03*
D29*
X238975400Y-137756900D03*
D28*
X305809400Y-137756900D03*
D29*
X303269400Y-137756900D03*
D28*
X312953400Y-156806900D03*
D29*
X310413400Y-156806900D03*
D28*
X281997400Y-156806900D03*
D29*
X279457400Y-156806900D03*
D28*
X293903400Y-80606900D03*
D29*
X291363400Y-80606900D03*
D28*
X351053400Y-156806900D03*
D29*
X348513400Y-156806900D03*
D28*
X284378400Y-99656900D03*
D29*
X281838400Y-99656900D03*
D28*
X270091400Y-118706900D03*
D29*
X267551400Y-118706900D03*
D28*
X222466400Y-137756900D03*
D29*
X219926400Y-137756900D03*
D28*
X351053400Y-118706900D03*
D29*
X348513400Y-118706900D03*
D28*
X279616400Y-137756900D03*
D29*
X277076400Y-137756900D03*
D28*
X217703400Y-80606900D03*
D29*
X215163400Y-80606900D03*
D28*
X351053400Y-137756900D03*
D29*
X348513400Y-137756900D03*
D28*
X293903400Y-156806900D03*
D29*
X291363400Y-156806900D03*
D28*
X208178400Y-99656900D03*
D29*
X205638400Y-99656900D03*
D28*
X351053400Y-80606900D03*
D29*
X348513400Y-80606900D03*
D28*
X193890400Y-118706900D03*
D29*
X191350400Y-118706900D03*
D28*
X332003400Y-80606900D03*
D29*
X329463400Y-80606900D03*
D28*
X203416400Y-137756900D03*
D29*
X200876400Y-137756900D03*
D28*
X327240400Y-99656900D03*
D29*
X324700400Y-99656900D03*
D28*
X260565400Y-137756900D03*
D29*
X258025400Y-137756900D03*
D28*
X332003400Y-137756900D03*
D29*
X329463400Y-137756900D03*
D28*
X251041400Y-118706900D03*
D29*
X248501400Y-118706900D03*
D28*
X320097400Y-118706900D03*
D29*
X317557400Y-118706900D03*
D28*
X274853400Y-80606900D03*
D29*
X272313400Y-80606900D03*
D28*
X265328400Y-99656900D03*
D29*
X262788400Y-99656900D03*
D28*
X260565400Y-156806900D03*
D29*
X258025400Y-156806900D03*
D28*
X236753400Y-80606900D03*
D29*
X234213400Y-80606900D03*
D28*
X227228400Y-99656900D03*
D29*
X224688400Y-99656900D03*
D28*
X212941400Y-118706900D03*
D29*
X210401400Y-118706900D03*
D28*
X220084400Y-156806900D03*
D29*
X217544400Y-156806900D03*
D28*
X189128400Y-99656900D03*
D29*
X186588400Y-99656900D03*
D28*
X198653400Y-80606900D03*
D29*
X196113400Y-80606900D03*
D28*
X322478400Y-80606900D03*
D29*
X319938400Y-80606900D03*
D28*
X308190400Y-118706900D03*
D29*
X305650400Y-118706900D03*
D28*
X323272400Y-115531900D03*
D29*
X323272400Y-112991900D03*
D28*
X277076400Y-156806900D03*
D29*
X279616400Y-156806900D03*
D28*
X274853400Y-156806900D03*
D29*
X272313400Y-156806900D03*
D28*
X255803400Y-156806900D03*
D29*
X253263400Y-156806900D03*
D28*
X255644400Y-156806900D03*
D29*
X258184400Y-156806900D03*
D28*
X212782400Y-156806900D03*
D29*
X215322400Y-156806900D03*
D28*
X315334400Y-137756900D03*
D29*
X312794400Y-137756900D03*
D30*
X291566600Y-142938500D03*
D31*
X311558400Y-70055900D03*
X295758400Y-70055900D03*
D28*
X329622400Y-118706900D03*
D29*
X327082400Y-118706900D03*
D28*
X269932400Y-156806900D03*
D29*
X272472400Y-156806900D03*
D28*
X248659400Y-156806900D03*
D29*
X246119400Y-156806900D03*
D32*
X190500000Y-81100000D03*
X190500000Y-81900000D03*
X190500000Y-80300000D03*
X190500000Y-79500000D03*
X190500000Y-82700000D03*
X190500000Y-78700000D03*
X190500000Y-83500000D03*
X190500000Y-77900000D03*
X184500000Y-81100000D03*
X184500000Y-81900000D03*
X184500000Y-80300000D03*
X184500000Y-79500000D03*
X184500000Y-82700000D03*
X184500000Y-78700000D03*
X184500000Y-83500000D03*
X184500000Y-77900000D03*
D26*
X183127400Y-168871900D03*
X159251400Y-168871900D03*
D27*
X183127400Y-153631900D03*
X159251400Y-153631900D03*
D26*
X178365400Y-168871900D03*
X154489400Y-168871900D03*
D27*
X178365400Y-153631900D03*
X154489400Y-153631900D03*
D26*
X185508400Y-168871900D03*
X161632400Y-168871900D03*
D27*
X185508400Y-153631900D03*
X161632400Y-153631900D03*
D26*
X330765400Y-130771900D03*
X306889400Y-130771900D03*
D27*
X330765400Y-115531900D03*
X306889400Y-115531900D03*
D26*
X333146400Y-92671900D03*
X309270400Y-92671900D03*
D27*
X333146400Y-77431900D03*
X309270400Y-77431900D03*
D26*
X302126400Y-135851900D03*
X326002400Y-135851900D03*
D27*
X302126400Y-151091900D03*
X326002400Y-151091900D03*
D26*
X225990400Y-168871900D03*
X202114400Y-168871900D03*
D27*
X225990400Y-153631900D03*
X202114400Y-153631900D03*
D26*
X223609400Y-168871900D03*
X199733400Y-168871900D03*
D27*
X223609400Y-153631900D03*
X199733400Y-153631900D03*
D26*
X230752400Y-168871900D03*
X206876400Y-168871900D03*
D27*
X230752400Y-153631900D03*
X206876400Y-153631900D03*
D13*
X280727400Y-161886900D03*
D14*
X285807400Y-161886900D03*
X275647400Y-161886900D03*
D23*
X284445400Y-164226900D03*
X283135400Y-165686900D03*
D15*
X278294400Y-166966900D03*
X278334400Y-166386900D03*
D13*
X290252400Y-161886900D03*
D14*
X295332400Y-161886900D03*
X285172400Y-161886900D03*
D23*
X293870400Y-164126900D03*
D15*
X292860400Y-165886900D03*
D23*
X287619400Y-166966900D03*
X287659400Y-166386900D03*
D21*
X251548900Y-134594600D03*
X243928900Y-133578600D03*
X243928900Y-135610600D03*
D22*
X251548900Y-132054600D03*
X245833900Y-132054600D03*
X251548900Y-137134600D03*
X245833900Y-137134600D03*
D20*
X224180400Y-114515900D03*
X226720400Y-114515900D03*
X229260400Y-114515900D03*
X231800400Y-114515900D03*
X234340400Y-114515900D03*
X236880400Y-114515900D03*
X239420400Y-114515900D03*
X241960400Y-114515900D03*
X244500400Y-114515900D03*
X247040400Y-114515900D03*
X249580400Y-114515900D03*
X252120400Y-114515900D03*
X254660400Y-114515900D03*
X257200400Y-114515900D03*
X259740400Y-114515900D03*
D33*
X337000000Y-71000000D03*
D34*
X339540000Y-71000000D03*
D33*
X330000000Y-71000000D03*
D34*
X332540000Y-71000000D03*
D33*
X323000000Y-71000000D03*
D34*
X325540000Y-71000000D03*
M02*
