G04 #@! TF.FileFunction,Soldermask,Top*
%FSLAX46Y46*%
G04 Gerber Fmt 4.6, Leading zero omitted, Abs format (unit mm)*
G04 Created by KiCad (PCBNEW 4.0.1-stable) date 2/8/2016 10:38:53 PM*
%MOMM*%
G01*
G04 APERTURE LIST*
%ADD10C,0.150000*%
%ADD11C,0.010000*%
%ADD12C,0.002540*%
%ADD13O,1.552400X1.552400*%
%ADD14R,1.552400X1.552400*%
%ADD15C,4.140210*%
%ADD16C,1.854210*%
%ADD17C,2.652400*%
%ADD18C,2.540000*%
%ADD19C,3.479800*%
%ADD20C,2.252400*%
%ADD21C,2.452400*%
%ADD22C,1.952400*%
%ADD23C,6.152400*%
%ADD24O,1.952400X3.652400*%
%ADD25C,2.152400*%
%ADD26O,0.952400X1.552400*%
%ADD27C,0.802400*%
%ADD28O,1.102400X0.802400*%
%ADD29C,0.752400*%
%ADD30C,2.352400*%
%ADD31O,2.152400X2.652400*%
%ADD32O,2.152400X2.352400*%
%ADD33C,2.152400*%
%ADD34C,2.652400*%
%ADD35C,0.652400*%
G04 APERTURE END LIST*
D10*
D11*
G36*
X120006720Y-132291260D02*
X117608960Y-132291260D01*
X117608960Y-133022780D01*
X120006720Y-133022780D01*
X120006720Y-134353740D01*
X120006778Y-134516421D01*
X120006947Y-134673399D01*
X120007222Y-134823485D01*
X120007594Y-134965489D01*
X120008057Y-135098225D01*
X120008604Y-135220502D01*
X120009228Y-135331133D01*
X120009922Y-135428930D01*
X120010679Y-135512704D01*
X120011492Y-135581266D01*
X120012355Y-135633428D01*
X120013260Y-135668002D01*
X120014200Y-135683799D01*
X120014486Y-135684700D01*
X120023797Y-135677838D01*
X120044968Y-135658768D01*
X120075602Y-135629756D01*
X120113300Y-135593074D01*
X120154039Y-135552620D01*
X120285826Y-135420540D01*
X122536560Y-135420540D01*
X122536560Y-134699180D01*
X120138800Y-134699180D01*
X120138800Y-130625020D01*
X125741993Y-130625020D01*
X124908919Y-131458140D01*
X124075846Y-132291260D01*
X121815200Y-132291260D01*
X121815200Y-133022780D01*
X122341008Y-133022779D01*
X122866817Y-133022779D01*
X123539888Y-133695908D01*
X124212960Y-134369036D01*
X124212959Y-135059917D01*
X124212959Y-135750797D01*
X123539831Y-136423868D01*
X122866703Y-137096940D01*
X115942561Y-137096940D01*
X115945033Y-134699180D01*
X117608960Y-134699180D01*
X117608960Y-135420540D01*
X117888529Y-135420540D01*
X118114504Y-135194397D01*
X118340480Y-134968254D01*
X118340480Y-134699180D01*
X117608960Y-134699180D01*
X115945033Y-134699180D01*
X115945180Y-134557104D01*
X115947800Y-132017269D01*
X115841120Y-132123152D01*
X115797465Y-132165881D01*
X115763727Y-132196878D01*
X115735833Y-132219148D01*
X115709709Y-132235695D01*
X115681284Y-132249526D01*
X115655435Y-132260147D01*
X115576431Y-132291259D01*
X114725689Y-132291259D01*
X113874948Y-132291260D01*
X113692279Y-132474140D01*
X113509611Y-132657019D01*
X113692280Y-132839899D01*
X113874948Y-133022780D01*
X115810640Y-133022780D01*
X115810640Y-137096940D01*
X110842400Y-137096940D01*
X110842400Y-135420540D01*
X114144400Y-135420540D01*
X114144400Y-134699180D01*
X113613511Y-134699180D01*
X113082622Y-134699179D01*
X112409402Y-134025902D01*
X111736181Y-133352624D01*
X111738870Y-132702562D01*
X111739476Y-132588999D01*
X111740315Y-132481115D01*
X111741356Y-132380683D01*
X111742569Y-132289475D01*
X111743922Y-132209263D01*
X111745384Y-132141819D01*
X111746925Y-132088915D01*
X111748515Y-132052323D01*
X111750121Y-132033816D01*
X111750540Y-132032180D01*
X111746563Y-132032640D01*
X111730248Y-132045733D01*
X111703572Y-132069672D01*
X111668516Y-132102672D01*
X111627057Y-132142945D01*
X111618329Y-132151560D01*
X111477136Y-132291260D01*
X110710320Y-132291260D01*
X110710320Y-137096940D01*
X109044080Y-137096940D01*
X109044080Y-132291260D01*
X108276953Y-132291260D01*
X107443879Y-131458140D01*
X106610806Y-130625020D01*
X120006720Y-130625020D01*
X120006720Y-132291260D01*
X120006720Y-132291260D01*
G37*
X120006720Y-132291260D02*
X117608960Y-132291260D01*
X117608960Y-133022780D01*
X120006720Y-133022780D01*
X120006720Y-134353740D01*
X120006778Y-134516421D01*
X120006947Y-134673399D01*
X120007222Y-134823485D01*
X120007594Y-134965489D01*
X120008057Y-135098225D01*
X120008604Y-135220502D01*
X120009228Y-135331133D01*
X120009922Y-135428930D01*
X120010679Y-135512704D01*
X120011492Y-135581266D01*
X120012355Y-135633428D01*
X120013260Y-135668002D01*
X120014200Y-135683799D01*
X120014486Y-135684700D01*
X120023797Y-135677838D01*
X120044968Y-135658768D01*
X120075602Y-135629756D01*
X120113300Y-135593074D01*
X120154039Y-135552620D01*
X120285826Y-135420540D01*
X122536560Y-135420540D01*
X122536560Y-134699180D01*
X120138800Y-134699180D01*
X120138800Y-130625020D01*
X125741993Y-130625020D01*
X124908919Y-131458140D01*
X124075846Y-132291260D01*
X121815200Y-132291260D01*
X121815200Y-133022780D01*
X122341008Y-133022779D01*
X122866817Y-133022779D01*
X123539888Y-133695908D01*
X124212960Y-134369036D01*
X124212959Y-135059917D01*
X124212959Y-135750797D01*
X123539831Y-136423868D01*
X122866703Y-137096940D01*
X115942561Y-137096940D01*
X115945033Y-134699180D01*
X117608960Y-134699180D01*
X117608960Y-135420540D01*
X117888529Y-135420540D01*
X118114504Y-135194397D01*
X118340480Y-134968254D01*
X118340480Y-134699180D01*
X117608960Y-134699180D01*
X115945033Y-134699180D01*
X115945180Y-134557104D01*
X115947800Y-132017269D01*
X115841120Y-132123152D01*
X115797465Y-132165881D01*
X115763727Y-132196878D01*
X115735833Y-132219148D01*
X115709709Y-132235695D01*
X115681284Y-132249526D01*
X115655435Y-132260147D01*
X115576431Y-132291259D01*
X114725689Y-132291259D01*
X113874948Y-132291260D01*
X113692279Y-132474140D01*
X113509611Y-132657019D01*
X113692280Y-132839899D01*
X113874948Y-133022780D01*
X115810640Y-133022780D01*
X115810640Y-137096940D01*
X110842400Y-137096940D01*
X110842400Y-135420540D01*
X114144400Y-135420540D01*
X114144400Y-134699180D01*
X113613511Y-134699180D01*
X113082622Y-134699179D01*
X112409402Y-134025902D01*
X111736181Y-133352624D01*
X111738870Y-132702562D01*
X111739476Y-132588999D01*
X111740315Y-132481115D01*
X111741356Y-132380683D01*
X111742569Y-132289475D01*
X111743922Y-132209263D01*
X111745384Y-132141819D01*
X111746925Y-132088915D01*
X111748515Y-132052323D01*
X111750121Y-132033816D01*
X111750540Y-132032180D01*
X111746563Y-132032640D01*
X111730248Y-132045733D01*
X111703572Y-132069672D01*
X111668516Y-132102672D01*
X111627057Y-132142945D01*
X111618329Y-132151560D01*
X111477136Y-132291260D01*
X110710320Y-132291260D01*
X110710320Y-137096940D01*
X109044080Y-137096940D01*
X109044080Y-132291260D01*
X108276953Y-132291260D01*
X107443879Y-131458140D01*
X106610806Y-130625020D01*
X120006720Y-130625020D01*
X120006720Y-132291260D01*
D12*
G36*
X102757100Y-134348660D02*
X102757100Y-134485820D01*
X102757100Y-134597580D01*
X102754560Y-134686480D01*
X102754560Y-134757600D01*
X102752020Y-134810940D01*
X102749480Y-134849040D01*
X102746940Y-134876980D01*
X102741860Y-134892220D01*
X102736780Y-134897300D01*
X102719000Y-134904920D01*
X102675820Y-134915080D01*
X102612320Y-134930320D01*
X102531040Y-134945560D01*
X102434520Y-134965880D01*
X102325300Y-134986200D01*
X102211000Y-135009060D01*
X102084000Y-135031920D01*
X101969700Y-135054780D01*
X101870640Y-135075100D01*
X101789360Y-135092880D01*
X101728400Y-135105580D01*
X101692840Y-135115740D01*
X101682680Y-135120820D01*
X101672520Y-135138600D01*
X101652200Y-135176700D01*
X101626800Y-135235120D01*
X101596320Y-135303700D01*
X101563300Y-135379900D01*
X101530280Y-135463720D01*
X101497260Y-135545000D01*
X101466780Y-135621200D01*
X101441380Y-135689780D01*
X101421060Y-135745660D01*
X101408360Y-135783760D01*
X101405820Y-135799000D01*
X101413440Y-135811700D01*
X101436300Y-135847260D01*
X101471860Y-135900600D01*
X101517580Y-135966640D01*
X101570920Y-136045380D01*
X101629340Y-136131740D01*
X101667440Y-136185080D01*
X101923980Y-136561000D01*
X101923980Y-136728640D01*
X101923980Y-136896280D01*
X101532820Y-137287440D01*
X101141660Y-137678600D01*
X100976560Y-137678600D01*
X100814000Y-137678600D01*
X100443160Y-137424600D01*
X100074860Y-137170600D01*
X99955480Y-137234100D01*
X99838640Y-137300140D01*
X99665920Y-137295060D01*
X99493200Y-137289980D01*
X99114740Y-136380660D01*
X98736280Y-135471340D01*
X98736280Y-135326560D01*
X98736280Y-135263060D01*
X98738820Y-135209720D01*
X98741360Y-135174160D01*
X98743900Y-135161460D01*
X98759140Y-135143680D01*
X98792160Y-135115740D01*
X98837880Y-135080180D01*
X98881060Y-135049700D01*
X98997900Y-134963340D01*
X99094420Y-134882060D01*
X99173160Y-134800780D01*
X99239200Y-134714420D01*
X99297620Y-134615360D01*
X99335720Y-134541700D01*
X99394140Y-134409620D01*
X99427160Y-134290240D01*
X99434780Y-134181020D01*
X99429700Y-134112440D01*
X99383980Y-133947340D01*
X99312860Y-133792400D01*
X99221420Y-133647620D01*
X99104580Y-133515540D01*
X98969960Y-133401240D01*
X98820100Y-133307260D01*
X98799780Y-133297100D01*
X98693100Y-133248840D01*
X98588960Y-133215820D01*
X98489900Y-133195500D01*
X98431480Y-133190420D01*
X98324800Y-133203120D01*
X98205420Y-133236140D01*
X98080960Y-133289480D01*
X97959040Y-133360600D01*
X97844740Y-133444420D01*
X97740600Y-133538400D01*
X97674560Y-133609520D01*
X97613600Y-133698420D01*
X97552640Y-133805100D01*
X97501840Y-133919400D01*
X97461200Y-134028620D01*
X97451040Y-134064180D01*
X97438340Y-134137840D01*
X97433260Y-134206420D01*
X97438340Y-134272460D01*
X97458660Y-134348660D01*
X97489140Y-134442640D01*
X97496760Y-134462960D01*
X97570420Y-134617900D01*
X97666940Y-134760140D01*
X97788860Y-134892220D01*
X97933640Y-135011600D01*
X98032700Y-135080180D01*
X98073340Y-135108120D01*
X98106360Y-135130980D01*
X98121600Y-135143680D01*
X98124140Y-135164000D01*
X98129220Y-135207180D01*
X98129220Y-135263060D01*
X98131760Y-135316400D01*
X98131760Y-135471340D01*
X97763460Y-136355260D01*
X97702500Y-136507660D01*
X97644080Y-136649900D01*
X97588200Y-136784520D01*
X97537400Y-136906440D01*
X97491680Y-137013120D01*
X97453580Y-137104560D01*
X97423100Y-137180760D01*
X97400240Y-137234100D01*
X97385000Y-137264580D01*
X97382460Y-137269660D01*
X97374840Y-137282360D01*
X97359600Y-137289980D01*
X97334200Y-137295060D01*
X97293560Y-137297600D01*
X97232600Y-137297600D01*
X97202120Y-137297600D01*
X97034480Y-137297600D01*
X96915100Y-137234100D01*
X96795720Y-137170600D01*
X96564580Y-137330620D01*
X96480760Y-137386500D01*
X96394400Y-137447460D01*
X96310580Y-137503340D01*
X96239460Y-137551600D01*
X96193740Y-137584620D01*
X96054040Y-137678600D01*
X95888940Y-137678600D01*
X95726380Y-137678600D01*
X95332680Y-137287440D01*
X94941520Y-136896280D01*
X94941520Y-136731180D01*
X94941520Y-136660060D01*
X94944060Y-136611800D01*
X94949140Y-136576240D01*
X94956760Y-136550840D01*
X94972000Y-136525440D01*
X94989780Y-136500040D01*
X95010100Y-136469560D01*
X95043120Y-136418760D01*
X95088840Y-136352720D01*
X95139640Y-136276520D01*
X95198060Y-136192700D01*
X95248860Y-136116500D01*
X95307280Y-136032680D01*
X95358080Y-135956480D01*
X95401260Y-135890440D01*
X95434280Y-135837100D01*
X95457140Y-135801540D01*
X95464760Y-135786300D01*
X95459680Y-135768520D01*
X95444440Y-135727880D01*
X95424120Y-135669460D01*
X95393640Y-135595800D01*
X95360620Y-135511980D01*
X95335220Y-135445940D01*
X95292040Y-135336720D01*
X95256480Y-135252900D01*
X95228540Y-135189400D01*
X95205680Y-135146220D01*
X95190440Y-135120820D01*
X95177740Y-135110660D01*
X95154880Y-135105580D01*
X95111700Y-135095420D01*
X95045660Y-135082720D01*
X94961840Y-135064940D01*
X94862780Y-135047160D01*
X94753560Y-135024300D01*
X94646880Y-135006520D01*
X94532580Y-134983660D01*
X94423360Y-134963340D01*
X94329380Y-134943020D01*
X94248100Y-134927780D01*
X94184600Y-134912540D01*
X94143960Y-134902380D01*
X94128720Y-134897300D01*
X94123640Y-134889680D01*
X94121100Y-134871900D01*
X94118560Y-134841420D01*
X94116020Y-134798240D01*
X94113480Y-134739820D01*
X94110940Y-134661080D01*
X94110940Y-134564560D01*
X94110940Y-134445180D01*
X94108400Y-134297860D01*
X94108400Y-134186100D01*
X94108400Y-133490140D01*
X94141420Y-133472360D01*
X94161740Y-133464740D01*
X94207460Y-133452040D01*
X94273500Y-133439340D01*
X94357320Y-133421560D01*
X94456380Y-133401240D01*
X94568140Y-133380920D01*
X94684980Y-133358060D01*
X94687520Y-133358060D01*
X94804360Y-133335200D01*
X94913580Y-133314880D01*
X95012640Y-133294560D01*
X95093920Y-133276780D01*
X95157420Y-133264080D01*
X95200600Y-133251380D01*
X95220920Y-133246300D01*
X95220920Y-133246300D01*
X95231080Y-133228520D01*
X95248860Y-133190420D01*
X95274260Y-133134540D01*
X95307280Y-133065960D01*
X95340300Y-132989760D01*
X95373320Y-132911020D01*
X95408880Y-132834820D01*
X95439360Y-132763700D01*
X95464760Y-132700200D01*
X95482540Y-132654480D01*
X95492700Y-132626540D01*
X95492700Y-132624000D01*
X95485080Y-132608760D01*
X95462220Y-132573200D01*
X95429200Y-132519860D01*
X95383480Y-132451280D01*
X95330140Y-132372540D01*
X95269180Y-132283640D01*
X95218380Y-132207440D01*
X94941520Y-131806120D01*
X94941520Y-131643560D01*
X94941520Y-131481000D01*
X95332680Y-131087300D01*
X95723840Y-130696140D01*
X95891480Y-130696140D01*
X96059120Y-130696140D01*
X96414720Y-130939980D01*
X96506160Y-131000940D01*
X96592520Y-131061900D01*
X96671260Y-131115240D01*
X96737300Y-131160960D01*
X96788100Y-131196520D01*
X96821120Y-131219380D01*
X96826200Y-131221920D01*
X96884620Y-131262560D01*
X97151320Y-131153340D01*
X97255460Y-131112700D01*
X97334200Y-131079680D01*
X97395160Y-131054280D01*
X97438340Y-131033960D01*
X97466280Y-131018720D01*
X97484060Y-131006020D01*
X97496760Y-130995860D01*
X97501840Y-130983160D01*
X97501840Y-130980620D01*
X97506920Y-130960300D01*
X97517080Y-130914580D01*
X97529780Y-130851080D01*
X97545020Y-130767260D01*
X97565340Y-130668200D01*
X97585660Y-130558980D01*
X97605980Y-130439600D01*
X97608520Y-130426900D01*
X97631380Y-130310060D01*
X97654240Y-130198300D01*
X97672020Y-130099240D01*
X97689800Y-130015420D01*
X97705040Y-129949380D01*
X97715200Y-129903660D01*
X97722820Y-129883340D01*
X97722820Y-129883340D01*
X97730440Y-129878260D01*
X97748220Y-129875720D01*
X97773620Y-129870640D01*
X97814260Y-129868100D01*
X97870140Y-129868100D01*
X97943800Y-129865560D01*
X98035240Y-129865560D01*
X98149540Y-129863020D01*
X98289240Y-129863020D01*
X98431480Y-129863020D01*
X98568640Y-129863020D01*
X98698180Y-129865560D01*
X98815020Y-129865560D01*
X98919160Y-129868100D01*
X99008060Y-129868100D01*
X99074100Y-129870640D01*
X99119820Y-129873180D01*
X99142680Y-129875720D01*
X99142680Y-129875720D01*
X99150300Y-129893500D01*
X99160460Y-129934140D01*
X99175700Y-130002720D01*
X99196020Y-130089080D01*
X99216340Y-130198300D01*
X99241740Y-130325300D01*
X99259520Y-130421820D01*
X99282380Y-130541200D01*
X99302700Y-130655500D01*
X99323020Y-130757100D01*
X99338260Y-130843460D01*
X99353500Y-130912040D01*
X99363660Y-130960300D01*
X99368740Y-130985700D01*
X99368740Y-130985700D01*
X99381440Y-131000940D01*
X99411920Y-131018720D01*
X99457640Y-131041580D01*
X99526220Y-131072060D01*
X99615120Y-131112700D01*
X99681160Y-131138100D01*
X99777680Y-131178740D01*
X99851340Y-131206680D01*
X99904680Y-131229540D01*
X99945320Y-131242240D01*
X99970720Y-131247320D01*
X99991040Y-131249860D01*
X100003740Y-131244780D01*
X100016440Y-131239700D01*
X100018980Y-131237160D01*
X100039300Y-131224460D01*
X100079940Y-131196520D01*
X100135820Y-131155880D01*
X100209480Y-131107620D01*
X100290760Y-131051740D01*
X100382200Y-130990780D01*
X100433000Y-130955220D01*
X100808920Y-130696140D01*
X100976560Y-130696140D01*
X101141660Y-130696140D01*
X101532820Y-131087300D01*
X101923980Y-131478460D01*
X101923980Y-131646100D01*
X101923980Y-131813740D01*
X101647120Y-132215060D01*
X101370260Y-132616380D01*
X101502340Y-132928800D01*
X101542980Y-133017700D01*
X101578540Y-133098980D01*
X101611560Y-133165020D01*
X101636960Y-133215820D01*
X101654740Y-133246300D01*
X101659820Y-133251380D01*
X101680140Y-133256460D01*
X101723320Y-133266620D01*
X101786820Y-133281860D01*
X101870640Y-133297100D01*
X101969700Y-133317420D01*
X102078920Y-133337740D01*
X102195760Y-133360600D01*
X102208460Y-133363140D01*
X102345620Y-133388540D01*
X102465000Y-133411400D01*
X102564060Y-133431720D01*
X102645340Y-133449500D01*
X102703760Y-133464740D01*
X102736780Y-133474900D01*
X102744400Y-133479980D01*
X102746940Y-133495220D01*
X102749480Y-133538400D01*
X102752020Y-133604440D01*
X102754560Y-133690800D01*
X102754560Y-133792400D01*
X102757100Y-133906700D01*
X102757100Y-134033700D01*
X102757100Y-134170860D01*
X102757100Y-134188640D01*
X102757100Y-134348660D01*
X102757100Y-134348660D01*
X102757100Y-134348660D01*
G37*
X102757100Y-134348660D02*
X102757100Y-134485820D01*
X102757100Y-134597580D01*
X102754560Y-134686480D01*
X102754560Y-134757600D01*
X102752020Y-134810940D01*
X102749480Y-134849040D01*
X102746940Y-134876980D01*
X102741860Y-134892220D01*
X102736780Y-134897300D01*
X102719000Y-134904920D01*
X102675820Y-134915080D01*
X102612320Y-134930320D01*
X102531040Y-134945560D01*
X102434520Y-134965880D01*
X102325300Y-134986200D01*
X102211000Y-135009060D01*
X102084000Y-135031920D01*
X101969700Y-135054780D01*
X101870640Y-135075100D01*
X101789360Y-135092880D01*
X101728400Y-135105580D01*
X101692840Y-135115740D01*
X101682680Y-135120820D01*
X101672520Y-135138600D01*
X101652200Y-135176700D01*
X101626800Y-135235120D01*
X101596320Y-135303700D01*
X101563300Y-135379900D01*
X101530280Y-135463720D01*
X101497260Y-135545000D01*
X101466780Y-135621200D01*
X101441380Y-135689780D01*
X101421060Y-135745660D01*
X101408360Y-135783760D01*
X101405820Y-135799000D01*
X101413440Y-135811700D01*
X101436300Y-135847260D01*
X101471860Y-135900600D01*
X101517580Y-135966640D01*
X101570920Y-136045380D01*
X101629340Y-136131740D01*
X101667440Y-136185080D01*
X101923980Y-136561000D01*
X101923980Y-136728640D01*
X101923980Y-136896280D01*
X101532820Y-137287440D01*
X101141660Y-137678600D01*
X100976560Y-137678600D01*
X100814000Y-137678600D01*
X100443160Y-137424600D01*
X100074860Y-137170600D01*
X99955480Y-137234100D01*
X99838640Y-137300140D01*
X99665920Y-137295060D01*
X99493200Y-137289980D01*
X99114740Y-136380660D01*
X98736280Y-135471340D01*
X98736280Y-135326560D01*
X98736280Y-135263060D01*
X98738820Y-135209720D01*
X98741360Y-135174160D01*
X98743900Y-135161460D01*
X98759140Y-135143680D01*
X98792160Y-135115740D01*
X98837880Y-135080180D01*
X98881060Y-135049700D01*
X98997900Y-134963340D01*
X99094420Y-134882060D01*
X99173160Y-134800780D01*
X99239200Y-134714420D01*
X99297620Y-134615360D01*
X99335720Y-134541700D01*
X99394140Y-134409620D01*
X99427160Y-134290240D01*
X99434780Y-134181020D01*
X99429700Y-134112440D01*
X99383980Y-133947340D01*
X99312860Y-133792400D01*
X99221420Y-133647620D01*
X99104580Y-133515540D01*
X98969960Y-133401240D01*
X98820100Y-133307260D01*
X98799780Y-133297100D01*
X98693100Y-133248840D01*
X98588960Y-133215820D01*
X98489900Y-133195500D01*
X98431480Y-133190420D01*
X98324800Y-133203120D01*
X98205420Y-133236140D01*
X98080960Y-133289480D01*
X97959040Y-133360600D01*
X97844740Y-133444420D01*
X97740600Y-133538400D01*
X97674560Y-133609520D01*
X97613600Y-133698420D01*
X97552640Y-133805100D01*
X97501840Y-133919400D01*
X97461200Y-134028620D01*
X97451040Y-134064180D01*
X97438340Y-134137840D01*
X97433260Y-134206420D01*
X97438340Y-134272460D01*
X97458660Y-134348660D01*
X97489140Y-134442640D01*
X97496760Y-134462960D01*
X97570420Y-134617900D01*
X97666940Y-134760140D01*
X97788860Y-134892220D01*
X97933640Y-135011600D01*
X98032700Y-135080180D01*
X98073340Y-135108120D01*
X98106360Y-135130980D01*
X98121600Y-135143680D01*
X98124140Y-135164000D01*
X98129220Y-135207180D01*
X98129220Y-135263060D01*
X98131760Y-135316400D01*
X98131760Y-135471340D01*
X97763460Y-136355260D01*
X97702500Y-136507660D01*
X97644080Y-136649900D01*
X97588200Y-136784520D01*
X97537400Y-136906440D01*
X97491680Y-137013120D01*
X97453580Y-137104560D01*
X97423100Y-137180760D01*
X97400240Y-137234100D01*
X97385000Y-137264580D01*
X97382460Y-137269660D01*
X97374840Y-137282360D01*
X97359600Y-137289980D01*
X97334200Y-137295060D01*
X97293560Y-137297600D01*
X97232600Y-137297600D01*
X97202120Y-137297600D01*
X97034480Y-137297600D01*
X96915100Y-137234100D01*
X96795720Y-137170600D01*
X96564580Y-137330620D01*
X96480760Y-137386500D01*
X96394400Y-137447460D01*
X96310580Y-137503340D01*
X96239460Y-137551600D01*
X96193740Y-137584620D01*
X96054040Y-137678600D01*
X95888940Y-137678600D01*
X95726380Y-137678600D01*
X95332680Y-137287440D01*
X94941520Y-136896280D01*
X94941520Y-136731180D01*
X94941520Y-136660060D01*
X94944060Y-136611800D01*
X94949140Y-136576240D01*
X94956760Y-136550840D01*
X94972000Y-136525440D01*
X94989780Y-136500040D01*
X95010100Y-136469560D01*
X95043120Y-136418760D01*
X95088840Y-136352720D01*
X95139640Y-136276520D01*
X95198060Y-136192700D01*
X95248860Y-136116500D01*
X95307280Y-136032680D01*
X95358080Y-135956480D01*
X95401260Y-135890440D01*
X95434280Y-135837100D01*
X95457140Y-135801540D01*
X95464760Y-135786300D01*
X95459680Y-135768520D01*
X95444440Y-135727880D01*
X95424120Y-135669460D01*
X95393640Y-135595800D01*
X95360620Y-135511980D01*
X95335220Y-135445940D01*
X95292040Y-135336720D01*
X95256480Y-135252900D01*
X95228540Y-135189400D01*
X95205680Y-135146220D01*
X95190440Y-135120820D01*
X95177740Y-135110660D01*
X95154880Y-135105580D01*
X95111700Y-135095420D01*
X95045660Y-135082720D01*
X94961840Y-135064940D01*
X94862780Y-135047160D01*
X94753560Y-135024300D01*
X94646880Y-135006520D01*
X94532580Y-134983660D01*
X94423360Y-134963340D01*
X94329380Y-134943020D01*
X94248100Y-134927780D01*
X94184600Y-134912540D01*
X94143960Y-134902380D01*
X94128720Y-134897300D01*
X94123640Y-134889680D01*
X94121100Y-134871900D01*
X94118560Y-134841420D01*
X94116020Y-134798240D01*
X94113480Y-134739820D01*
X94110940Y-134661080D01*
X94110940Y-134564560D01*
X94110940Y-134445180D01*
X94108400Y-134297860D01*
X94108400Y-134186100D01*
X94108400Y-133490140D01*
X94141420Y-133472360D01*
X94161740Y-133464740D01*
X94207460Y-133452040D01*
X94273500Y-133439340D01*
X94357320Y-133421560D01*
X94456380Y-133401240D01*
X94568140Y-133380920D01*
X94684980Y-133358060D01*
X94687520Y-133358060D01*
X94804360Y-133335200D01*
X94913580Y-133314880D01*
X95012640Y-133294560D01*
X95093920Y-133276780D01*
X95157420Y-133264080D01*
X95200600Y-133251380D01*
X95220920Y-133246300D01*
X95220920Y-133246300D01*
X95231080Y-133228520D01*
X95248860Y-133190420D01*
X95274260Y-133134540D01*
X95307280Y-133065960D01*
X95340300Y-132989760D01*
X95373320Y-132911020D01*
X95408880Y-132834820D01*
X95439360Y-132763700D01*
X95464760Y-132700200D01*
X95482540Y-132654480D01*
X95492700Y-132626540D01*
X95492700Y-132624000D01*
X95485080Y-132608760D01*
X95462220Y-132573200D01*
X95429200Y-132519860D01*
X95383480Y-132451280D01*
X95330140Y-132372540D01*
X95269180Y-132283640D01*
X95218380Y-132207440D01*
X94941520Y-131806120D01*
X94941520Y-131643560D01*
X94941520Y-131481000D01*
X95332680Y-131087300D01*
X95723840Y-130696140D01*
X95891480Y-130696140D01*
X96059120Y-130696140D01*
X96414720Y-130939980D01*
X96506160Y-131000940D01*
X96592520Y-131061900D01*
X96671260Y-131115240D01*
X96737300Y-131160960D01*
X96788100Y-131196520D01*
X96821120Y-131219380D01*
X96826200Y-131221920D01*
X96884620Y-131262560D01*
X97151320Y-131153340D01*
X97255460Y-131112700D01*
X97334200Y-131079680D01*
X97395160Y-131054280D01*
X97438340Y-131033960D01*
X97466280Y-131018720D01*
X97484060Y-131006020D01*
X97496760Y-130995860D01*
X97501840Y-130983160D01*
X97501840Y-130980620D01*
X97506920Y-130960300D01*
X97517080Y-130914580D01*
X97529780Y-130851080D01*
X97545020Y-130767260D01*
X97565340Y-130668200D01*
X97585660Y-130558980D01*
X97605980Y-130439600D01*
X97608520Y-130426900D01*
X97631380Y-130310060D01*
X97654240Y-130198300D01*
X97672020Y-130099240D01*
X97689800Y-130015420D01*
X97705040Y-129949380D01*
X97715200Y-129903660D01*
X97722820Y-129883340D01*
X97722820Y-129883340D01*
X97730440Y-129878260D01*
X97748220Y-129875720D01*
X97773620Y-129870640D01*
X97814260Y-129868100D01*
X97870140Y-129868100D01*
X97943800Y-129865560D01*
X98035240Y-129865560D01*
X98149540Y-129863020D01*
X98289240Y-129863020D01*
X98431480Y-129863020D01*
X98568640Y-129863020D01*
X98698180Y-129865560D01*
X98815020Y-129865560D01*
X98919160Y-129868100D01*
X99008060Y-129868100D01*
X99074100Y-129870640D01*
X99119820Y-129873180D01*
X99142680Y-129875720D01*
X99142680Y-129875720D01*
X99150300Y-129893500D01*
X99160460Y-129934140D01*
X99175700Y-130002720D01*
X99196020Y-130089080D01*
X99216340Y-130198300D01*
X99241740Y-130325300D01*
X99259520Y-130421820D01*
X99282380Y-130541200D01*
X99302700Y-130655500D01*
X99323020Y-130757100D01*
X99338260Y-130843460D01*
X99353500Y-130912040D01*
X99363660Y-130960300D01*
X99368740Y-130985700D01*
X99368740Y-130985700D01*
X99381440Y-131000940D01*
X99411920Y-131018720D01*
X99457640Y-131041580D01*
X99526220Y-131072060D01*
X99615120Y-131112700D01*
X99681160Y-131138100D01*
X99777680Y-131178740D01*
X99851340Y-131206680D01*
X99904680Y-131229540D01*
X99945320Y-131242240D01*
X99970720Y-131247320D01*
X99991040Y-131249860D01*
X100003740Y-131244780D01*
X100016440Y-131239700D01*
X100018980Y-131237160D01*
X100039300Y-131224460D01*
X100079940Y-131196520D01*
X100135820Y-131155880D01*
X100209480Y-131107620D01*
X100290760Y-131051740D01*
X100382200Y-130990780D01*
X100433000Y-130955220D01*
X100808920Y-130696140D01*
X100976560Y-130696140D01*
X101141660Y-130696140D01*
X101532820Y-131087300D01*
X101923980Y-131478460D01*
X101923980Y-131646100D01*
X101923980Y-131813740D01*
X101647120Y-132215060D01*
X101370260Y-132616380D01*
X101502340Y-132928800D01*
X101542980Y-133017700D01*
X101578540Y-133098980D01*
X101611560Y-133165020D01*
X101636960Y-133215820D01*
X101654740Y-133246300D01*
X101659820Y-133251380D01*
X101680140Y-133256460D01*
X101723320Y-133266620D01*
X101786820Y-133281860D01*
X101870640Y-133297100D01*
X101969700Y-133317420D01*
X102078920Y-133337740D01*
X102195760Y-133360600D01*
X102208460Y-133363140D01*
X102345620Y-133388540D01*
X102465000Y-133411400D01*
X102564060Y-133431720D01*
X102645340Y-133449500D01*
X102703760Y-133464740D01*
X102736780Y-133474900D01*
X102744400Y-133479980D01*
X102746940Y-133495220D01*
X102749480Y-133538400D01*
X102752020Y-133604440D01*
X102754560Y-133690800D01*
X102754560Y-133792400D01*
X102757100Y-133906700D01*
X102757100Y-134033700D01*
X102757100Y-134170860D01*
X102757100Y-134188640D01*
X102757100Y-134348660D01*
X102757100Y-134348660D01*
D11*
G36*
X336606720Y-71291260D02*
X334208960Y-71291260D01*
X334208960Y-72022780D01*
X336606720Y-72022780D01*
X336606720Y-73353740D01*
X336606778Y-73516421D01*
X336606947Y-73673399D01*
X336607222Y-73823485D01*
X336607594Y-73965489D01*
X336608057Y-74098225D01*
X336608604Y-74220502D01*
X336609228Y-74331133D01*
X336609922Y-74428930D01*
X336610679Y-74512704D01*
X336611492Y-74581266D01*
X336612355Y-74633428D01*
X336613260Y-74668002D01*
X336614200Y-74683799D01*
X336614486Y-74684700D01*
X336623797Y-74677838D01*
X336644968Y-74658768D01*
X336675602Y-74629756D01*
X336713300Y-74593074D01*
X336754039Y-74552620D01*
X336885826Y-74420540D01*
X339136560Y-74420540D01*
X339136560Y-73699180D01*
X336738800Y-73699180D01*
X336738800Y-69625020D01*
X342341993Y-69625020D01*
X341508919Y-70458140D01*
X340675846Y-71291260D01*
X338415200Y-71291260D01*
X338415200Y-72022780D01*
X338941008Y-72022779D01*
X339466817Y-72022779D01*
X340139888Y-72695908D01*
X340812960Y-73369036D01*
X340812959Y-74059917D01*
X340812959Y-74750797D01*
X340139831Y-75423868D01*
X339466703Y-76096940D01*
X332542561Y-76096940D01*
X332545033Y-73699180D01*
X334208960Y-73699180D01*
X334208960Y-74420540D01*
X334488529Y-74420540D01*
X334714504Y-74194397D01*
X334940480Y-73968254D01*
X334940480Y-73699180D01*
X334208960Y-73699180D01*
X332545033Y-73699180D01*
X332545180Y-73557104D01*
X332547800Y-71017269D01*
X332441120Y-71123152D01*
X332397465Y-71165881D01*
X332363727Y-71196878D01*
X332335833Y-71219148D01*
X332309709Y-71235695D01*
X332281284Y-71249526D01*
X332255435Y-71260147D01*
X332176431Y-71291259D01*
X331325689Y-71291259D01*
X330474948Y-71291260D01*
X330292279Y-71474140D01*
X330109611Y-71657019D01*
X330292280Y-71839899D01*
X330474948Y-72022780D01*
X332410640Y-72022780D01*
X332410640Y-76096940D01*
X327442400Y-76096940D01*
X327442400Y-74420540D01*
X330744400Y-74420540D01*
X330744400Y-73699180D01*
X330213511Y-73699180D01*
X329682622Y-73699179D01*
X329009402Y-73025902D01*
X328336181Y-72352624D01*
X328338870Y-71702562D01*
X328339476Y-71588999D01*
X328340315Y-71481115D01*
X328341356Y-71380683D01*
X328342569Y-71289475D01*
X328343922Y-71209263D01*
X328345384Y-71141819D01*
X328346925Y-71088915D01*
X328348515Y-71052323D01*
X328350121Y-71033816D01*
X328350540Y-71032180D01*
X328346563Y-71032640D01*
X328330248Y-71045733D01*
X328303572Y-71069672D01*
X328268516Y-71102672D01*
X328227057Y-71142945D01*
X328218329Y-71151560D01*
X328077136Y-71291260D01*
X327310320Y-71291260D01*
X327310320Y-76096940D01*
X325644080Y-76096940D01*
X325644080Y-71291260D01*
X324876953Y-71291260D01*
X324043879Y-70458140D01*
X323210806Y-69625020D01*
X336606720Y-69625020D01*
X336606720Y-71291260D01*
X336606720Y-71291260D01*
G37*
X336606720Y-71291260D02*
X334208960Y-71291260D01*
X334208960Y-72022780D01*
X336606720Y-72022780D01*
X336606720Y-73353740D01*
X336606778Y-73516421D01*
X336606947Y-73673399D01*
X336607222Y-73823485D01*
X336607594Y-73965489D01*
X336608057Y-74098225D01*
X336608604Y-74220502D01*
X336609228Y-74331133D01*
X336609922Y-74428930D01*
X336610679Y-74512704D01*
X336611492Y-74581266D01*
X336612355Y-74633428D01*
X336613260Y-74668002D01*
X336614200Y-74683799D01*
X336614486Y-74684700D01*
X336623797Y-74677838D01*
X336644968Y-74658768D01*
X336675602Y-74629756D01*
X336713300Y-74593074D01*
X336754039Y-74552620D01*
X336885826Y-74420540D01*
X339136560Y-74420540D01*
X339136560Y-73699180D01*
X336738800Y-73699180D01*
X336738800Y-69625020D01*
X342341993Y-69625020D01*
X341508919Y-70458140D01*
X340675846Y-71291260D01*
X338415200Y-71291260D01*
X338415200Y-72022780D01*
X338941008Y-72022779D01*
X339466817Y-72022779D01*
X340139888Y-72695908D01*
X340812960Y-73369036D01*
X340812959Y-74059917D01*
X340812959Y-74750797D01*
X340139831Y-75423868D01*
X339466703Y-76096940D01*
X332542561Y-76096940D01*
X332545033Y-73699180D01*
X334208960Y-73699180D01*
X334208960Y-74420540D01*
X334488529Y-74420540D01*
X334714504Y-74194397D01*
X334940480Y-73968254D01*
X334940480Y-73699180D01*
X334208960Y-73699180D01*
X332545033Y-73699180D01*
X332545180Y-73557104D01*
X332547800Y-71017269D01*
X332441120Y-71123152D01*
X332397465Y-71165881D01*
X332363727Y-71196878D01*
X332335833Y-71219148D01*
X332309709Y-71235695D01*
X332281284Y-71249526D01*
X332255435Y-71260147D01*
X332176431Y-71291259D01*
X331325689Y-71291259D01*
X330474948Y-71291260D01*
X330292279Y-71474140D01*
X330109611Y-71657019D01*
X330292280Y-71839899D01*
X330474948Y-72022780D01*
X332410640Y-72022780D01*
X332410640Y-76096940D01*
X327442400Y-76096940D01*
X327442400Y-74420540D01*
X330744400Y-74420540D01*
X330744400Y-73699180D01*
X330213511Y-73699180D01*
X329682622Y-73699179D01*
X329009402Y-73025902D01*
X328336181Y-72352624D01*
X328338870Y-71702562D01*
X328339476Y-71588999D01*
X328340315Y-71481115D01*
X328341356Y-71380683D01*
X328342569Y-71289475D01*
X328343922Y-71209263D01*
X328345384Y-71141819D01*
X328346925Y-71088915D01*
X328348515Y-71052323D01*
X328350121Y-71033816D01*
X328350540Y-71032180D01*
X328346563Y-71032640D01*
X328330248Y-71045733D01*
X328303572Y-71069672D01*
X328268516Y-71102672D01*
X328227057Y-71142945D01*
X328218329Y-71151560D01*
X328077136Y-71291260D01*
X327310320Y-71291260D01*
X327310320Y-76096940D01*
X325644080Y-76096940D01*
X325644080Y-71291260D01*
X324876953Y-71291260D01*
X324043879Y-70458140D01*
X323210806Y-69625020D01*
X336606720Y-69625020D01*
X336606720Y-71291260D01*
D12*
G36*
X321107100Y-73348660D02*
X321107100Y-73485820D01*
X321107100Y-73597580D01*
X321104560Y-73686480D01*
X321104560Y-73757600D01*
X321102020Y-73810940D01*
X321099480Y-73849040D01*
X321096940Y-73876980D01*
X321091860Y-73892220D01*
X321086780Y-73897300D01*
X321069000Y-73904920D01*
X321025820Y-73915080D01*
X320962320Y-73930320D01*
X320881040Y-73945560D01*
X320784520Y-73965880D01*
X320675300Y-73986200D01*
X320561000Y-74009060D01*
X320434000Y-74031920D01*
X320319700Y-74054780D01*
X320220640Y-74075100D01*
X320139360Y-74092880D01*
X320078400Y-74105580D01*
X320042840Y-74115740D01*
X320032680Y-74120820D01*
X320022520Y-74138600D01*
X320002200Y-74176700D01*
X319976800Y-74235120D01*
X319946320Y-74303700D01*
X319913300Y-74379900D01*
X319880280Y-74463720D01*
X319847260Y-74545000D01*
X319816780Y-74621200D01*
X319791380Y-74689780D01*
X319771060Y-74745660D01*
X319758360Y-74783760D01*
X319755820Y-74799000D01*
X319763440Y-74811700D01*
X319786300Y-74847260D01*
X319821860Y-74900600D01*
X319867580Y-74966640D01*
X319920920Y-75045380D01*
X319979340Y-75131740D01*
X320017440Y-75185080D01*
X320273980Y-75561000D01*
X320273980Y-75728640D01*
X320273980Y-75896280D01*
X319882820Y-76287440D01*
X319491660Y-76678600D01*
X319326560Y-76678600D01*
X319164000Y-76678600D01*
X318793160Y-76424600D01*
X318424860Y-76170600D01*
X318305480Y-76234100D01*
X318188640Y-76300140D01*
X318015920Y-76295060D01*
X317843200Y-76289980D01*
X317464740Y-75380660D01*
X317086280Y-74471340D01*
X317086280Y-74326560D01*
X317086280Y-74263060D01*
X317088820Y-74209720D01*
X317091360Y-74174160D01*
X317093900Y-74161460D01*
X317109140Y-74143680D01*
X317142160Y-74115740D01*
X317187880Y-74080180D01*
X317231060Y-74049700D01*
X317347900Y-73963340D01*
X317444420Y-73882060D01*
X317523160Y-73800780D01*
X317589200Y-73714420D01*
X317647620Y-73615360D01*
X317685720Y-73541700D01*
X317744140Y-73409620D01*
X317777160Y-73290240D01*
X317784780Y-73181020D01*
X317779700Y-73112440D01*
X317733980Y-72947340D01*
X317662860Y-72792400D01*
X317571420Y-72647620D01*
X317454580Y-72515540D01*
X317319960Y-72401240D01*
X317170100Y-72307260D01*
X317149780Y-72297100D01*
X317043100Y-72248840D01*
X316938960Y-72215820D01*
X316839900Y-72195500D01*
X316781480Y-72190420D01*
X316674800Y-72203120D01*
X316555420Y-72236140D01*
X316430960Y-72289480D01*
X316309040Y-72360600D01*
X316194740Y-72444420D01*
X316090600Y-72538400D01*
X316024560Y-72609520D01*
X315963600Y-72698420D01*
X315902640Y-72805100D01*
X315851840Y-72919400D01*
X315811200Y-73028620D01*
X315801040Y-73064180D01*
X315788340Y-73137840D01*
X315783260Y-73206420D01*
X315788340Y-73272460D01*
X315808660Y-73348660D01*
X315839140Y-73442640D01*
X315846760Y-73462960D01*
X315920420Y-73617900D01*
X316016940Y-73760140D01*
X316138860Y-73892220D01*
X316283640Y-74011600D01*
X316382700Y-74080180D01*
X316423340Y-74108120D01*
X316456360Y-74130980D01*
X316471600Y-74143680D01*
X316474140Y-74164000D01*
X316479220Y-74207180D01*
X316479220Y-74263060D01*
X316481760Y-74316400D01*
X316481760Y-74471340D01*
X316113460Y-75355260D01*
X316052500Y-75507660D01*
X315994080Y-75649900D01*
X315938200Y-75784520D01*
X315887400Y-75906440D01*
X315841680Y-76013120D01*
X315803580Y-76104560D01*
X315773100Y-76180760D01*
X315750240Y-76234100D01*
X315735000Y-76264580D01*
X315732460Y-76269660D01*
X315724840Y-76282360D01*
X315709600Y-76289980D01*
X315684200Y-76295060D01*
X315643560Y-76297600D01*
X315582600Y-76297600D01*
X315552120Y-76297600D01*
X315384480Y-76297600D01*
X315265100Y-76234100D01*
X315145720Y-76170600D01*
X314914580Y-76330620D01*
X314830760Y-76386500D01*
X314744400Y-76447460D01*
X314660580Y-76503340D01*
X314589460Y-76551600D01*
X314543740Y-76584620D01*
X314404040Y-76678600D01*
X314238940Y-76678600D01*
X314076380Y-76678600D01*
X313682680Y-76287440D01*
X313291520Y-75896280D01*
X313291520Y-75731180D01*
X313291520Y-75660060D01*
X313294060Y-75611800D01*
X313299140Y-75576240D01*
X313306760Y-75550840D01*
X313322000Y-75525440D01*
X313339780Y-75500040D01*
X313360100Y-75469560D01*
X313393120Y-75418760D01*
X313438840Y-75352720D01*
X313489640Y-75276520D01*
X313548060Y-75192700D01*
X313598860Y-75116500D01*
X313657280Y-75032680D01*
X313708080Y-74956480D01*
X313751260Y-74890440D01*
X313784280Y-74837100D01*
X313807140Y-74801540D01*
X313814760Y-74786300D01*
X313809680Y-74768520D01*
X313794440Y-74727880D01*
X313774120Y-74669460D01*
X313743640Y-74595800D01*
X313710620Y-74511980D01*
X313685220Y-74445940D01*
X313642040Y-74336720D01*
X313606480Y-74252900D01*
X313578540Y-74189400D01*
X313555680Y-74146220D01*
X313540440Y-74120820D01*
X313527740Y-74110660D01*
X313504880Y-74105580D01*
X313461700Y-74095420D01*
X313395660Y-74082720D01*
X313311840Y-74064940D01*
X313212780Y-74047160D01*
X313103560Y-74024300D01*
X312996880Y-74006520D01*
X312882580Y-73983660D01*
X312773360Y-73963340D01*
X312679380Y-73943020D01*
X312598100Y-73927780D01*
X312534600Y-73912540D01*
X312493960Y-73902380D01*
X312478720Y-73897300D01*
X312473640Y-73889680D01*
X312471100Y-73871900D01*
X312468560Y-73841420D01*
X312466020Y-73798240D01*
X312463480Y-73739820D01*
X312460940Y-73661080D01*
X312460940Y-73564560D01*
X312460940Y-73445180D01*
X312458400Y-73297860D01*
X312458400Y-73186100D01*
X312458400Y-72490140D01*
X312491420Y-72472360D01*
X312511740Y-72464740D01*
X312557460Y-72452040D01*
X312623500Y-72439340D01*
X312707320Y-72421560D01*
X312806380Y-72401240D01*
X312918140Y-72380920D01*
X313034980Y-72358060D01*
X313037520Y-72358060D01*
X313154360Y-72335200D01*
X313263580Y-72314880D01*
X313362640Y-72294560D01*
X313443920Y-72276780D01*
X313507420Y-72264080D01*
X313550600Y-72251380D01*
X313570920Y-72246300D01*
X313570920Y-72246300D01*
X313581080Y-72228520D01*
X313598860Y-72190420D01*
X313624260Y-72134540D01*
X313657280Y-72065960D01*
X313690300Y-71989760D01*
X313723320Y-71911020D01*
X313758880Y-71834820D01*
X313789360Y-71763700D01*
X313814760Y-71700200D01*
X313832540Y-71654480D01*
X313842700Y-71626540D01*
X313842700Y-71624000D01*
X313835080Y-71608760D01*
X313812220Y-71573200D01*
X313779200Y-71519860D01*
X313733480Y-71451280D01*
X313680140Y-71372540D01*
X313619180Y-71283640D01*
X313568380Y-71207440D01*
X313291520Y-70806120D01*
X313291520Y-70643560D01*
X313291520Y-70481000D01*
X313682680Y-70087300D01*
X314073840Y-69696140D01*
X314241480Y-69696140D01*
X314409120Y-69696140D01*
X314764720Y-69939980D01*
X314856160Y-70000940D01*
X314942520Y-70061900D01*
X315021260Y-70115240D01*
X315087300Y-70160960D01*
X315138100Y-70196520D01*
X315171120Y-70219380D01*
X315176200Y-70221920D01*
X315234620Y-70262560D01*
X315501320Y-70153340D01*
X315605460Y-70112700D01*
X315684200Y-70079680D01*
X315745160Y-70054280D01*
X315788340Y-70033960D01*
X315816280Y-70018720D01*
X315834060Y-70006020D01*
X315846760Y-69995860D01*
X315851840Y-69983160D01*
X315851840Y-69980620D01*
X315856920Y-69960300D01*
X315867080Y-69914580D01*
X315879780Y-69851080D01*
X315895020Y-69767260D01*
X315915340Y-69668200D01*
X315935660Y-69558980D01*
X315955980Y-69439600D01*
X315958520Y-69426900D01*
X315981380Y-69310060D01*
X316004240Y-69198300D01*
X316022020Y-69099240D01*
X316039800Y-69015420D01*
X316055040Y-68949380D01*
X316065200Y-68903660D01*
X316072820Y-68883340D01*
X316072820Y-68883340D01*
X316080440Y-68878260D01*
X316098220Y-68875720D01*
X316123620Y-68870640D01*
X316164260Y-68868100D01*
X316220140Y-68868100D01*
X316293800Y-68865560D01*
X316385240Y-68865560D01*
X316499540Y-68863020D01*
X316639240Y-68863020D01*
X316781480Y-68863020D01*
X316918640Y-68863020D01*
X317048180Y-68865560D01*
X317165020Y-68865560D01*
X317269160Y-68868100D01*
X317358060Y-68868100D01*
X317424100Y-68870640D01*
X317469820Y-68873180D01*
X317492680Y-68875720D01*
X317492680Y-68875720D01*
X317500300Y-68893500D01*
X317510460Y-68934140D01*
X317525700Y-69002720D01*
X317546020Y-69089080D01*
X317566340Y-69198300D01*
X317591740Y-69325300D01*
X317609520Y-69421820D01*
X317632380Y-69541200D01*
X317652700Y-69655500D01*
X317673020Y-69757100D01*
X317688260Y-69843460D01*
X317703500Y-69912040D01*
X317713660Y-69960300D01*
X317718740Y-69985700D01*
X317718740Y-69985700D01*
X317731440Y-70000940D01*
X317761920Y-70018720D01*
X317807640Y-70041580D01*
X317876220Y-70072060D01*
X317965120Y-70112700D01*
X318031160Y-70138100D01*
X318127680Y-70178740D01*
X318201340Y-70206680D01*
X318254680Y-70229540D01*
X318295320Y-70242240D01*
X318320720Y-70247320D01*
X318341040Y-70249860D01*
X318353740Y-70244780D01*
X318366440Y-70239700D01*
X318368980Y-70237160D01*
X318389300Y-70224460D01*
X318429940Y-70196520D01*
X318485820Y-70155880D01*
X318559480Y-70107620D01*
X318640760Y-70051740D01*
X318732200Y-69990780D01*
X318783000Y-69955220D01*
X319158920Y-69696140D01*
X319326560Y-69696140D01*
X319491660Y-69696140D01*
X319882820Y-70087300D01*
X320273980Y-70478460D01*
X320273980Y-70646100D01*
X320273980Y-70813740D01*
X319997120Y-71215060D01*
X319720260Y-71616380D01*
X319852340Y-71928800D01*
X319892980Y-72017700D01*
X319928540Y-72098980D01*
X319961560Y-72165020D01*
X319986960Y-72215820D01*
X320004740Y-72246300D01*
X320009820Y-72251380D01*
X320030140Y-72256460D01*
X320073320Y-72266620D01*
X320136820Y-72281860D01*
X320220640Y-72297100D01*
X320319700Y-72317420D01*
X320428920Y-72337740D01*
X320545760Y-72360600D01*
X320558460Y-72363140D01*
X320695620Y-72388540D01*
X320815000Y-72411400D01*
X320914060Y-72431720D01*
X320995340Y-72449500D01*
X321053760Y-72464740D01*
X321086780Y-72474900D01*
X321094400Y-72479980D01*
X321096940Y-72495220D01*
X321099480Y-72538400D01*
X321102020Y-72604440D01*
X321104560Y-72690800D01*
X321104560Y-72792400D01*
X321107100Y-72906700D01*
X321107100Y-73033700D01*
X321107100Y-73170860D01*
X321107100Y-73188640D01*
X321107100Y-73348660D01*
X321107100Y-73348660D01*
X321107100Y-73348660D01*
G37*
X321107100Y-73348660D02*
X321107100Y-73485820D01*
X321107100Y-73597580D01*
X321104560Y-73686480D01*
X321104560Y-73757600D01*
X321102020Y-73810940D01*
X321099480Y-73849040D01*
X321096940Y-73876980D01*
X321091860Y-73892220D01*
X321086780Y-73897300D01*
X321069000Y-73904920D01*
X321025820Y-73915080D01*
X320962320Y-73930320D01*
X320881040Y-73945560D01*
X320784520Y-73965880D01*
X320675300Y-73986200D01*
X320561000Y-74009060D01*
X320434000Y-74031920D01*
X320319700Y-74054780D01*
X320220640Y-74075100D01*
X320139360Y-74092880D01*
X320078400Y-74105580D01*
X320042840Y-74115740D01*
X320032680Y-74120820D01*
X320022520Y-74138600D01*
X320002200Y-74176700D01*
X319976800Y-74235120D01*
X319946320Y-74303700D01*
X319913300Y-74379900D01*
X319880280Y-74463720D01*
X319847260Y-74545000D01*
X319816780Y-74621200D01*
X319791380Y-74689780D01*
X319771060Y-74745660D01*
X319758360Y-74783760D01*
X319755820Y-74799000D01*
X319763440Y-74811700D01*
X319786300Y-74847260D01*
X319821860Y-74900600D01*
X319867580Y-74966640D01*
X319920920Y-75045380D01*
X319979340Y-75131740D01*
X320017440Y-75185080D01*
X320273980Y-75561000D01*
X320273980Y-75728640D01*
X320273980Y-75896280D01*
X319882820Y-76287440D01*
X319491660Y-76678600D01*
X319326560Y-76678600D01*
X319164000Y-76678600D01*
X318793160Y-76424600D01*
X318424860Y-76170600D01*
X318305480Y-76234100D01*
X318188640Y-76300140D01*
X318015920Y-76295060D01*
X317843200Y-76289980D01*
X317464740Y-75380660D01*
X317086280Y-74471340D01*
X317086280Y-74326560D01*
X317086280Y-74263060D01*
X317088820Y-74209720D01*
X317091360Y-74174160D01*
X317093900Y-74161460D01*
X317109140Y-74143680D01*
X317142160Y-74115740D01*
X317187880Y-74080180D01*
X317231060Y-74049700D01*
X317347900Y-73963340D01*
X317444420Y-73882060D01*
X317523160Y-73800780D01*
X317589200Y-73714420D01*
X317647620Y-73615360D01*
X317685720Y-73541700D01*
X317744140Y-73409620D01*
X317777160Y-73290240D01*
X317784780Y-73181020D01*
X317779700Y-73112440D01*
X317733980Y-72947340D01*
X317662860Y-72792400D01*
X317571420Y-72647620D01*
X317454580Y-72515540D01*
X317319960Y-72401240D01*
X317170100Y-72307260D01*
X317149780Y-72297100D01*
X317043100Y-72248840D01*
X316938960Y-72215820D01*
X316839900Y-72195500D01*
X316781480Y-72190420D01*
X316674800Y-72203120D01*
X316555420Y-72236140D01*
X316430960Y-72289480D01*
X316309040Y-72360600D01*
X316194740Y-72444420D01*
X316090600Y-72538400D01*
X316024560Y-72609520D01*
X315963600Y-72698420D01*
X315902640Y-72805100D01*
X315851840Y-72919400D01*
X315811200Y-73028620D01*
X315801040Y-73064180D01*
X315788340Y-73137840D01*
X315783260Y-73206420D01*
X315788340Y-73272460D01*
X315808660Y-73348660D01*
X315839140Y-73442640D01*
X315846760Y-73462960D01*
X315920420Y-73617900D01*
X316016940Y-73760140D01*
X316138860Y-73892220D01*
X316283640Y-74011600D01*
X316382700Y-74080180D01*
X316423340Y-74108120D01*
X316456360Y-74130980D01*
X316471600Y-74143680D01*
X316474140Y-74164000D01*
X316479220Y-74207180D01*
X316479220Y-74263060D01*
X316481760Y-74316400D01*
X316481760Y-74471340D01*
X316113460Y-75355260D01*
X316052500Y-75507660D01*
X315994080Y-75649900D01*
X315938200Y-75784520D01*
X315887400Y-75906440D01*
X315841680Y-76013120D01*
X315803580Y-76104560D01*
X315773100Y-76180760D01*
X315750240Y-76234100D01*
X315735000Y-76264580D01*
X315732460Y-76269660D01*
X315724840Y-76282360D01*
X315709600Y-76289980D01*
X315684200Y-76295060D01*
X315643560Y-76297600D01*
X315582600Y-76297600D01*
X315552120Y-76297600D01*
X315384480Y-76297600D01*
X315265100Y-76234100D01*
X315145720Y-76170600D01*
X314914580Y-76330620D01*
X314830760Y-76386500D01*
X314744400Y-76447460D01*
X314660580Y-76503340D01*
X314589460Y-76551600D01*
X314543740Y-76584620D01*
X314404040Y-76678600D01*
X314238940Y-76678600D01*
X314076380Y-76678600D01*
X313682680Y-76287440D01*
X313291520Y-75896280D01*
X313291520Y-75731180D01*
X313291520Y-75660060D01*
X313294060Y-75611800D01*
X313299140Y-75576240D01*
X313306760Y-75550840D01*
X313322000Y-75525440D01*
X313339780Y-75500040D01*
X313360100Y-75469560D01*
X313393120Y-75418760D01*
X313438840Y-75352720D01*
X313489640Y-75276520D01*
X313548060Y-75192700D01*
X313598860Y-75116500D01*
X313657280Y-75032680D01*
X313708080Y-74956480D01*
X313751260Y-74890440D01*
X313784280Y-74837100D01*
X313807140Y-74801540D01*
X313814760Y-74786300D01*
X313809680Y-74768520D01*
X313794440Y-74727880D01*
X313774120Y-74669460D01*
X313743640Y-74595800D01*
X313710620Y-74511980D01*
X313685220Y-74445940D01*
X313642040Y-74336720D01*
X313606480Y-74252900D01*
X313578540Y-74189400D01*
X313555680Y-74146220D01*
X313540440Y-74120820D01*
X313527740Y-74110660D01*
X313504880Y-74105580D01*
X313461700Y-74095420D01*
X313395660Y-74082720D01*
X313311840Y-74064940D01*
X313212780Y-74047160D01*
X313103560Y-74024300D01*
X312996880Y-74006520D01*
X312882580Y-73983660D01*
X312773360Y-73963340D01*
X312679380Y-73943020D01*
X312598100Y-73927780D01*
X312534600Y-73912540D01*
X312493960Y-73902380D01*
X312478720Y-73897300D01*
X312473640Y-73889680D01*
X312471100Y-73871900D01*
X312468560Y-73841420D01*
X312466020Y-73798240D01*
X312463480Y-73739820D01*
X312460940Y-73661080D01*
X312460940Y-73564560D01*
X312460940Y-73445180D01*
X312458400Y-73297860D01*
X312458400Y-73186100D01*
X312458400Y-72490140D01*
X312491420Y-72472360D01*
X312511740Y-72464740D01*
X312557460Y-72452040D01*
X312623500Y-72439340D01*
X312707320Y-72421560D01*
X312806380Y-72401240D01*
X312918140Y-72380920D01*
X313034980Y-72358060D01*
X313037520Y-72358060D01*
X313154360Y-72335200D01*
X313263580Y-72314880D01*
X313362640Y-72294560D01*
X313443920Y-72276780D01*
X313507420Y-72264080D01*
X313550600Y-72251380D01*
X313570920Y-72246300D01*
X313570920Y-72246300D01*
X313581080Y-72228520D01*
X313598860Y-72190420D01*
X313624260Y-72134540D01*
X313657280Y-72065960D01*
X313690300Y-71989760D01*
X313723320Y-71911020D01*
X313758880Y-71834820D01*
X313789360Y-71763700D01*
X313814760Y-71700200D01*
X313832540Y-71654480D01*
X313842700Y-71626540D01*
X313842700Y-71624000D01*
X313835080Y-71608760D01*
X313812220Y-71573200D01*
X313779200Y-71519860D01*
X313733480Y-71451280D01*
X313680140Y-71372540D01*
X313619180Y-71283640D01*
X313568380Y-71207440D01*
X313291520Y-70806120D01*
X313291520Y-70643560D01*
X313291520Y-70481000D01*
X313682680Y-70087300D01*
X314073840Y-69696140D01*
X314241480Y-69696140D01*
X314409120Y-69696140D01*
X314764720Y-69939980D01*
X314856160Y-70000940D01*
X314942520Y-70061900D01*
X315021260Y-70115240D01*
X315087300Y-70160960D01*
X315138100Y-70196520D01*
X315171120Y-70219380D01*
X315176200Y-70221920D01*
X315234620Y-70262560D01*
X315501320Y-70153340D01*
X315605460Y-70112700D01*
X315684200Y-70079680D01*
X315745160Y-70054280D01*
X315788340Y-70033960D01*
X315816280Y-70018720D01*
X315834060Y-70006020D01*
X315846760Y-69995860D01*
X315851840Y-69983160D01*
X315851840Y-69980620D01*
X315856920Y-69960300D01*
X315867080Y-69914580D01*
X315879780Y-69851080D01*
X315895020Y-69767260D01*
X315915340Y-69668200D01*
X315935660Y-69558980D01*
X315955980Y-69439600D01*
X315958520Y-69426900D01*
X315981380Y-69310060D01*
X316004240Y-69198300D01*
X316022020Y-69099240D01*
X316039800Y-69015420D01*
X316055040Y-68949380D01*
X316065200Y-68903660D01*
X316072820Y-68883340D01*
X316072820Y-68883340D01*
X316080440Y-68878260D01*
X316098220Y-68875720D01*
X316123620Y-68870640D01*
X316164260Y-68868100D01*
X316220140Y-68868100D01*
X316293800Y-68865560D01*
X316385240Y-68865560D01*
X316499540Y-68863020D01*
X316639240Y-68863020D01*
X316781480Y-68863020D01*
X316918640Y-68863020D01*
X317048180Y-68865560D01*
X317165020Y-68865560D01*
X317269160Y-68868100D01*
X317358060Y-68868100D01*
X317424100Y-68870640D01*
X317469820Y-68873180D01*
X317492680Y-68875720D01*
X317492680Y-68875720D01*
X317500300Y-68893500D01*
X317510460Y-68934140D01*
X317525700Y-69002720D01*
X317546020Y-69089080D01*
X317566340Y-69198300D01*
X317591740Y-69325300D01*
X317609520Y-69421820D01*
X317632380Y-69541200D01*
X317652700Y-69655500D01*
X317673020Y-69757100D01*
X317688260Y-69843460D01*
X317703500Y-69912040D01*
X317713660Y-69960300D01*
X317718740Y-69985700D01*
X317718740Y-69985700D01*
X317731440Y-70000940D01*
X317761920Y-70018720D01*
X317807640Y-70041580D01*
X317876220Y-70072060D01*
X317965120Y-70112700D01*
X318031160Y-70138100D01*
X318127680Y-70178740D01*
X318201340Y-70206680D01*
X318254680Y-70229540D01*
X318295320Y-70242240D01*
X318320720Y-70247320D01*
X318341040Y-70249860D01*
X318353740Y-70244780D01*
X318366440Y-70239700D01*
X318368980Y-70237160D01*
X318389300Y-70224460D01*
X318429940Y-70196520D01*
X318485820Y-70155880D01*
X318559480Y-70107620D01*
X318640760Y-70051740D01*
X318732200Y-69990780D01*
X318783000Y-69955220D01*
X319158920Y-69696140D01*
X319326560Y-69696140D01*
X319491660Y-69696140D01*
X319882820Y-70087300D01*
X320273980Y-70478460D01*
X320273980Y-70646100D01*
X320273980Y-70813740D01*
X319997120Y-71215060D01*
X319720260Y-71616380D01*
X319852340Y-71928800D01*
X319892980Y-72017700D01*
X319928540Y-72098980D01*
X319961560Y-72165020D01*
X319986960Y-72215820D01*
X320004740Y-72246300D01*
X320009820Y-72251380D01*
X320030140Y-72256460D01*
X320073320Y-72266620D01*
X320136820Y-72281860D01*
X320220640Y-72297100D01*
X320319700Y-72317420D01*
X320428920Y-72337740D01*
X320545760Y-72360600D01*
X320558460Y-72363140D01*
X320695620Y-72388540D01*
X320815000Y-72411400D01*
X320914060Y-72431720D01*
X320995340Y-72449500D01*
X321053760Y-72464740D01*
X321086780Y-72474900D01*
X321094400Y-72479980D01*
X321096940Y-72495220D01*
X321099480Y-72538400D01*
X321102020Y-72604440D01*
X321104560Y-72690800D01*
X321104560Y-72792400D01*
X321107100Y-72906700D01*
X321107100Y-73033700D01*
X321107100Y-73170860D01*
X321107100Y-73188640D01*
X321107100Y-73348660D01*
X321107100Y-73348660D01*
D13*
X172300400Y-156806900D03*
D14*
X174840400Y-156806900D03*
D15*
X173570400Y-161886900D03*
D16*
X178650400Y-161886900D03*
X168490400Y-161886900D03*
D17*
X176569947Y-165886854D02*
X177380853Y-164426946D01*
X171030676Y-166966228D02*
X171070124Y-166387572D01*
D18*
X185508400Y-168871900D03*
X161632400Y-168871900D03*
D19*
X185508400Y-153631900D03*
X161632400Y-153631900D03*
D13*
X141344400Y-156806900D03*
D14*
X143884400Y-156806900D03*
D13*
X141503400Y-156806900D03*
D14*
X138963400Y-156806900D03*
D13*
X136582400Y-156806900D03*
D14*
X139122400Y-156806900D03*
D13*
X136741400Y-156806900D03*
D14*
X134201400Y-156806900D03*
D13*
X129438400Y-156806900D03*
D14*
X131978400Y-156806900D03*
D15*
X140233400Y-161886900D03*
D16*
X145313400Y-161886900D03*
D20*
X143423832Y-166061693D02*
X144428968Y-164252107D01*
D15*
X137852400Y-161886900D03*
D16*
X132772400Y-161886900D03*
D17*
X140078160Y-166822952D02*
X141374640Y-164488848D01*
D21*
X135199874Y-167065997D02*
X135252926Y-166287803D01*
D15*
X135471400Y-161886900D03*
D17*
X137978160Y-166722952D02*
X139274640Y-164388848D01*
D15*
X130708400Y-161886900D03*
D16*
X125628400Y-161886900D03*
D17*
X133178160Y-166722952D02*
X134474640Y-164388848D01*
X128168676Y-166966228D02*
X128208124Y-166387572D01*
D15*
X142614400Y-161886900D03*
D16*
X147694400Y-161886900D03*
D17*
X145613947Y-165886854D02*
X146424853Y-164426946D01*
D13*
X115151400Y-156806900D03*
D14*
X117691400Y-156806900D03*
D15*
X116421400Y-161886900D03*
D16*
X121501400Y-161886900D03*
D20*
X119423832Y-166061693D02*
X120428968Y-164252107D01*
D15*
X166427400Y-161886900D03*
D16*
X161347400Y-161886900D03*
D17*
X168698041Y-167167194D02*
X170154759Y-164544606D01*
X163887676Y-166966228D02*
X163927124Y-166387572D01*
D15*
X171189400Y-161886900D03*
D16*
X176269400Y-161886900D03*
D17*
X174188947Y-165886854D02*
X174999853Y-164426946D01*
D15*
X140233400Y-85686900D03*
D16*
X145313400Y-85686900D03*
X135153400Y-85686900D03*
D17*
X143232947Y-89686854D02*
X144043853Y-88226946D01*
X137693676Y-90766228D02*
X137733124Y-90187572D01*
D15*
X130708400Y-104736900D03*
D16*
X135788400Y-104736900D03*
X125628400Y-104736900D03*
D17*
X133707947Y-108736854D02*
X134518853Y-107276946D01*
X128168676Y-109816228D02*
X128208124Y-109237572D01*
D18*
X178365400Y-168871900D03*
X154489400Y-168871900D03*
D19*
X178365400Y-153631900D03*
X154489400Y-153631900D03*
D15*
X106895400Y-161886900D03*
D16*
X101815400Y-161886900D03*
D17*
X109278160Y-166722952D02*
X110574640Y-164388848D01*
X104355676Y-166966228D02*
X104395124Y-166387572D01*
D18*
X183127400Y-168871900D03*
X159251400Y-168871900D03*
D19*
X183127400Y-153631900D03*
X159251400Y-153631900D03*
D18*
X164077400Y-168871900D03*
X140201400Y-168871900D03*
D19*
X164077400Y-153631900D03*
X140201400Y-153631900D03*
D15*
X66414400Y-161886900D03*
D16*
X71494400Y-161886900D03*
X61334400Y-161886900D03*
D17*
X69413947Y-165886854D02*
X70224853Y-164426946D01*
X63874676Y-166966228D02*
X63914124Y-166387572D01*
D15*
X68796400Y-161886900D03*
D16*
X73876400Y-161886900D03*
X63716400Y-161886900D03*
D17*
X71795947Y-165886854D02*
X72606853Y-164426946D01*
X66256676Y-166966228D02*
X66296124Y-166387572D01*
D15*
X68796400Y-104736900D03*
D16*
X73876400Y-104736900D03*
X63716400Y-104736900D03*
D17*
X71795947Y-108736854D02*
X72606853Y-107276946D01*
X66256676Y-109816228D02*
X66296124Y-109237572D01*
D15*
X121183400Y-85686900D03*
D16*
X126263400Y-85686900D03*
X116103400Y-85686900D03*
D17*
X124182947Y-89686854D02*
X124993853Y-88226946D01*
X118643676Y-90766228D02*
X118683124Y-90187572D01*
D15*
X159283400Y-85686900D03*
D16*
X164363400Y-85686900D03*
X154203400Y-85686900D03*
D17*
X162282947Y-89686854D02*
X163093853Y-88226946D01*
X156743676Y-90766228D02*
X156783124Y-90187572D01*
D13*
X160553400Y-80606900D03*
D14*
X158013400Y-80606900D03*
D15*
X183095400Y-142836900D03*
D16*
X188175400Y-142836900D03*
X178015400Y-142836900D03*
D17*
X186094947Y-146836854D02*
X186905853Y-145376946D01*
X180555676Y-147916228D02*
X180595124Y-147337572D01*
D15*
X128327400Y-161886900D03*
D16*
X133407400Y-161886900D03*
X123247400Y-161886900D03*
D17*
X131326947Y-165886854D02*
X132137853Y-164426946D01*
X125787676Y-166966228D02*
X125827124Y-166387572D01*
D15*
X164045400Y-142836900D03*
D16*
X169125400Y-142836900D03*
X158965400Y-142836900D03*
D17*
X167044947Y-146836854D02*
X167855853Y-145376946D01*
X161505676Y-147916228D02*
X161545124Y-147337572D01*
D15*
X144996400Y-142836900D03*
D16*
X150076400Y-142836900D03*
X139916400Y-142836900D03*
D17*
X147995947Y-146836854D02*
X148806853Y-145376946D01*
X142456676Y-147916228D02*
X142496124Y-147337572D01*
D15*
X87846400Y-142836900D03*
D16*
X92926400Y-142836900D03*
X82766400Y-142836900D03*
D17*
X90845947Y-146836854D02*
X91656853Y-145376946D01*
X85306676Y-147916228D02*
X85346124Y-147337572D01*
D15*
X75939400Y-142836900D03*
D16*
X81019400Y-142836900D03*
X70859400Y-142836900D03*
D17*
X78938947Y-146836854D02*
X79749853Y-145376946D01*
X73399676Y-147916228D02*
X73439124Y-147337572D01*
D15*
X66414400Y-142836900D03*
D16*
X71494400Y-142836900D03*
X61334400Y-142836900D03*
D17*
X69413947Y-146836854D02*
X70224853Y-145376946D01*
X63874676Y-147916228D02*
X63914124Y-147337572D01*
D15*
X106895400Y-142836900D03*
D16*
X111975400Y-142836900D03*
X101815400Y-142836900D03*
D17*
X109894947Y-146836854D02*
X110705853Y-145376946D01*
X104355676Y-147916228D02*
X104395124Y-147337572D01*
D15*
X125945400Y-142836900D03*
D16*
X131025400Y-142836900D03*
X120865400Y-142836900D03*
D17*
X128944947Y-146836854D02*
X129755853Y-145376946D01*
X123405676Y-147916228D02*
X123445124Y-147337572D01*
D15*
X97371400Y-123786900D03*
D16*
X102451400Y-123786900D03*
X92291400Y-123786900D03*
D17*
X100370947Y-127786854D02*
X101181853Y-126326946D01*
X94831676Y-128866228D02*
X94871124Y-128287572D01*
D15*
X66414400Y-123786900D03*
D16*
X61334400Y-123786900D03*
D17*
X68698041Y-128967194D02*
X70154759Y-126344606D01*
X63874676Y-128866228D02*
X63914124Y-128287572D01*
D15*
X71177400Y-123786900D03*
D16*
X76257400Y-123786900D03*
D17*
X74176947Y-127786854D02*
X74987853Y-126326946D01*
D15*
X116421400Y-123786900D03*
D16*
X121501400Y-123786900D03*
X111341400Y-123786900D03*
D17*
X119420947Y-127786854D02*
X120231853Y-126326946D01*
X113881676Y-128866228D02*
X113921124Y-128287572D01*
D15*
X135471400Y-123786900D03*
D16*
X140551400Y-123786900D03*
X130391400Y-123786900D03*
D17*
X138470947Y-127786854D02*
X139281853Y-126326946D01*
X132931676Y-128866228D02*
X132971124Y-128287572D01*
D15*
X173570400Y-123786900D03*
D16*
X178650400Y-123786900D03*
X168490400Y-123786900D03*
D17*
X176569947Y-127786854D02*
X177380853Y-126326946D01*
X171030676Y-128866228D02*
X171070124Y-128287572D01*
D15*
X111658400Y-104736900D03*
D16*
X116738400Y-104736900D03*
X106578400Y-104736900D03*
D17*
X114657947Y-108736854D02*
X115468853Y-107276946D01*
X109118676Y-109816228D02*
X109158124Y-109237572D01*
D15*
X149758400Y-104736900D03*
D16*
X154838400Y-104736900D03*
X144678400Y-104736900D03*
D17*
X152757947Y-108736854D02*
X153568853Y-107276946D01*
X147218676Y-109816228D02*
X147258124Y-109237572D01*
D15*
X178333400Y-85686900D03*
D16*
X183413400Y-85686900D03*
X173253400Y-85686900D03*
D17*
X181332947Y-89686854D02*
X182143853Y-88226946D01*
X175793676Y-90766228D02*
X175833124Y-90187572D01*
D15*
X168808400Y-104736900D03*
D16*
X173888400Y-104736900D03*
X163728400Y-104736900D03*
D17*
X171807947Y-108736854D02*
X172618853Y-107276946D01*
X166268676Y-109816228D02*
X166308124Y-109237572D01*
D15*
X64033400Y-85686900D03*
D16*
X69113400Y-85686900D03*
X58953400Y-85686900D03*
D17*
X67032947Y-89686854D02*
X67843853Y-88226946D01*
X61493676Y-90766228D02*
X61533124Y-90187572D01*
D15*
X83083400Y-85686900D03*
D16*
X88163400Y-85686900D03*
X78003400Y-85686900D03*
D17*
X86082947Y-89686854D02*
X86893853Y-88226946D01*
X80543676Y-90766228D02*
X80583124Y-90187572D01*
D15*
X102133400Y-85686900D03*
D16*
X107213400Y-85686900D03*
X97053400Y-85686900D03*
D17*
X105132947Y-89686854D02*
X105943853Y-88226946D01*
X99593676Y-90766228D02*
X99633124Y-90187572D01*
D13*
X93878400Y-99356900D03*
D14*
X91338400Y-99356900D03*
D13*
X89116400Y-137756900D03*
D14*
X86576400Y-137756900D03*
D13*
X112928400Y-99356900D03*
D14*
X110388400Y-99356900D03*
D13*
X108165400Y-137756900D03*
D14*
X105625400Y-137756900D03*
D13*
X131978400Y-99656900D03*
D14*
X129438400Y-99656900D03*
D13*
X127215400Y-137756900D03*
D14*
X124675400Y-137756900D03*
D13*
X151028400Y-99656900D03*
D14*
X148488400Y-99656900D03*
D13*
X77209400Y-137756900D03*
D14*
X74669400Y-137756900D03*
D13*
X70066400Y-99356900D03*
D14*
X67526400Y-99356900D03*
D13*
X174840400Y-118706900D03*
D14*
X172300400Y-118706900D03*
D13*
X146266400Y-137756900D03*
D14*
X143726400Y-137756900D03*
D13*
X155790400Y-118706900D03*
D14*
X153250400Y-118706900D03*
D13*
X103403400Y-80606900D03*
D14*
X100863400Y-80606900D03*
D13*
X136741400Y-118706900D03*
D14*
X134201400Y-118706900D03*
D13*
X117691400Y-118706900D03*
D14*
X115151400Y-118706900D03*
D13*
X172459400Y-156806900D03*
D14*
X169919400Y-156806900D03*
D13*
X141503400Y-80606900D03*
D14*
X138963400Y-80606900D03*
D13*
X98641400Y-118706900D03*
D14*
X96101400Y-118706900D03*
D13*
X129597400Y-156806900D03*
D14*
X127057400Y-156806900D03*
D13*
X122453400Y-80606900D03*
D14*
X119913400Y-80606900D03*
D13*
X72447400Y-118706900D03*
D14*
X69907400Y-118706900D03*
D13*
X108165400Y-156806900D03*
D14*
X105625400Y-156806900D03*
D13*
X179603400Y-80606900D03*
D14*
X177063400Y-80606900D03*
D13*
X88957400Y-156806900D03*
D14*
X91497400Y-156806900D03*
D13*
X84353900Y-80606900D03*
D14*
X81813900Y-80606900D03*
D13*
X65144400Y-156806900D03*
D14*
X67684400Y-156806900D03*
D13*
X65303400Y-80606900D03*
D14*
X62763400Y-80606900D03*
D13*
X165315400Y-137756900D03*
D14*
X162775400Y-137756900D03*
D13*
X170078400Y-99656900D03*
D14*
X167538400Y-99656900D03*
D15*
X154520400Y-123786900D03*
D16*
X159600400Y-123786900D03*
X149440400Y-123786900D03*
D17*
X157519947Y-127786854D02*
X158330853Y-126326946D01*
X151980676Y-128866228D02*
X152020124Y-128287572D01*
D15*
X92608400Y-104666900D03*
D16*
X97688400Y-104666900D03*
X87528400Y-104666900D03*
D17*
X95607947Y-108666854D02*
X96418853Y-107206946D01*
X90068676Y-109746228D02*
X90108124Y-109167572D01*
D13*
X67684400Y-118706900D03*
D14*
X65144400Y-118706900D03*
D13*
X67684400Y-137756900D03*
D14*
X65144400Y-137756900D03*
D13*
X184365400Y-137756900D03*
D14*
X181825400Y-137756900D03*
D15*
X152139400Y-161886900D03*
D16*
X157219400Y-161886900D03*
X147059400Y-161886900D03*
D17*
X155138947Y-165886854D02*
X155949853Y-164426946D01*
X149599676Y-166966228D02*
X149639124Y-166387572D01*
D15*
X183095400Y-161886900D03*
D16*
X188175400Y-161886900D03*
X178015400Y-161886900D03*
D17*
X186094947Y-165886854D02*
X186905853Y-164426946D01*
X180555676Y-166966228D02*
X180595124Y-166387572D01*
D15*
X114039400Y-161886900D03*
D16*
X119119400Y-161886900D03*
X108959400Y-161886900D03*
D20*
X116823832Y-166061693D02*
X117828968Y-164252107D01*
D21*
X111492874Y-167065997D02*
X111545926Y-166287803D01*
D15*
X111658400Y-161886900D03*
D17*
X114278160Y-166722952D02*
X115574640Y-164388848D01*
D13*
X167697400Y-156806900D03*
D14*
X165157400Y-156806900D03*
D13*
X153409400Y-156806900D03*
D14*
X150869400Y-156806900D03*
D13*
X184365400Y-156806900D03*
D14*
X181825400Y-156806900D03*
D13*
X115309400Y-156806900D03*
D14*
X112769400Y-156806900D03*
D13*
X110388400Y-156806900D03*
D14*
X112928400Y-156806900D03*
D13*
X89116400Y-156806900D03*
D14*
X86576400Y-156806900D03*
D13*
X70066400Y-156806900D03*
D14*
X67526400Y-156806900D03*
D13*
X93878400Y-156806900D03*
D14*
X91338400Y-156806900D03*
D22*
X90830400Y-114515900D03*
X93370400Y-114515900D03*
X95910400Y-114515900D03*
X98450400Y-114515900D03*
X100990400Y-114515900D03*
X103530400Y-114515900D03*
X106070400Y-114515900D03*
X108610400Y-114515900D03*
X111150400Y-114515900D03*
X113690400Y-114515900D03*
X116230400Y-114515900D03*
X123850400Y-114515900D03*
X126390400Y-114515900D03*
X128930400Y-114515900D03*
X131470400Y-114515900D03*
D18*
X64001400Y-135851900D03*
X87877400Y-135851900D03*
D19*
X64001400Y-151091900D03*
X87877400Y-151091900D03*
D23*
X84378800Y-124625100D03*
D24*
X176708400Y-70055900D03*
X160908400Y-70055900D03*
D15*
X87846400Y-161886900D03*
D16*
X82766400Y-161886900D03*
D20*
X90281046Y-166997791D02*
X91771754Y-164314009D01*
D17*
X85306676Y-166966228D02*
X85346124Y-166387572D01*
D15*
X92608400Y-161886900D03*
D16*
X97688400Y-161886900D03*
D25*
X95499554Y-166105403D02*
X96553246Y-164208397D01*
D15*
X90227400Y-161886900D03*
D16*
X95307400Y-161886900D03*
X85147400Y-161886900D03*
D17*
X93226947Y-165886854D02*
X94037853Y-164426946D01*
X87687676Y-166966228D02*
X87727124Y-166387572D01*
D26*
X144936400Y-60105900D03*
X153916400Y-60105900D03*
X145296400Y-66055900D03*
X153556400Y-66055900D03*
D27*
X145826400Y-67305900D03*
D28*
X153026400Y-67305900D03*
D29*
X147026400Y-65955900D03*
X148626400Y-65955900D03*
X151826400Y-65955900D03*
X151026400Y-65955900D03*
X150226400Y-65955900D03*
X147826400Y-65955900D03*
X146626400Y-66655900D03*
X148226400Y-66655900D03*
X149026400Y-66655900D03*
X149826400Y-66655900D03*
X150626400Y-66655900D03*
X152226400Y-66655900D03*
D15*
X271202400Y-161886900D03*
D16*
X276282400Y-161886900D03*
D17*
X274201947Y-165886854D02*
X275012853Y-164426946D01*
D15*
X266439400Y-161886900D03*
D16*
X261359400Y-161886900D03*
D17*
X268604041Y-167067194D02*
X270060759Y-164444606D01*
D25*
X264199676Y-166966228D02*
X264239124Y-166387572D01*
D15*
X278346400Y-161886900D03*
D16*
X283426400Y-161886900D03*
D17*
X281345947Y-165886854D02*
X282156853Y-164426946D01*
D15*
X211671400Y-161886900D03*
D16*
X216751400Y-161886900D03*
X206591400Y-161886900D03*
D17*
X214670947Y-165886854D02*
X215481853Y-164426946D01*
X209131676Y-166966228D02*
X209171124Y-166387572D01*
D18*
X223609400Y-168871900D03*
X199733400Y-168871900D03*
D19*
X223609400Y-153631900D03*
X199733400Y-153631900D03*
D18*
X230752400Y-168871900D03*
X206876400Y-168871900D03*
D19*
X230752400Y-153631900D03*
X206876400Y-153631900D03*
D13*
X243897400Y-156806900D03*
D14*
X241357400Y-156806900D03*
D13*
X243738400Y-156806900D03*
D14*
X246278400Y-156806900D03*
D13*
X248501400Y-156806900D03*
D14*
X251041400Y-156806900D03*
D13*
X212941400Y-156806900D03*
D14*
X210401400Y-156806900D03*
D15*
X254533400Y-161886900D03*
D20*
X256612926Y-167242034D02*
X258263874Y-164269766D01*
D15*
X245008400Y-161886900D03*
D16*
X239928400Y-161886900D03*
D30*
X247212205Y-167198324D02*
X248814595Y-164313476D01*
D17*
X242468676Y-166966228D02*
X242508124Y-166387572D01*
D15*
X259295400Y-161886900D03*
D25*
X261873554Y-166105403D02*
X262927246Y-164208397D01*
D13*
X267709400Y-156806900D03*
D14*
X265169400Y-156806900D03*
D13*
X289140400Y-156806900D03*
D14*
X286600400Y-156806900D03*
D13*
X288982400Y-156806900D03*
D14*
X291522400Y-156806900D03*
D15*
X292633400Y-161886900D03*
D16*
X297713400Y-161886900D03*
D31*
X296551400Y-164426900D03*
D32*
X295576400Y-166255900D03*
D15*
X287870400Y-161886900D03*
D16*
X282790400Y-161886900D03*
D17*
X290327160Y-166822952D02*
X291623640Y-164488848D01*
D25*
X285456676Y-166966228D02*
X285496124Y-166387572D01*
D13*
X305809400Y-156806900D03*
D14*
X303269400Y-156806900D03*
D15*
X304539400Y-161886900D03*
D16*
X309619400Y-161886900D03*
X299459400Y-161886900D03*
D17*
X307538947Y-165886854D02*
X308349853Y-164426946D01*
X301999676Y-166966228D02*
X302039124Y-166387572D01*
D13*
X327082400Y-156806900D03*
D14*
X329622400Y-156806900D03*
D15*
X328352400Y-161886900D03*
D16*
X333432400Y-161886900D03*
X323272400Y-161886900D03*
D17*
X331351947Y-165886854D02*
X332162853Y-164426946D01*
X325812676Y-166966228D02*
X325852124Y-166387572D01*
D15*
X218814400Y-161886900D03*
D16*
X223894400Y-161886900D03*
D17*
X221813947Y-165886854D02*
X222624853Y-164426946D01*
D15*
X273583400Y-161886900D03*
D16*
X268503400Y-161886900D03*
D17*
X275748041Y-167067194D02*
X277204759Y-164444606D01*
X271043676Y-166966228D02*
X271083124Y-166387572D01*
D15*
X273583400Y-85686900D03*
D16*
X278663400Y-85686900D03*
X268503400Y-85686900D03*
D17*
X276582947Y-89686854D02*
X277393853Y-88226946D01*
X271043676Y-90766228D02*
X271083124Y-90187572D01*
D15*
X245008400Y-104736900D03*
D16*
X250088400Y-104736900D03*
X239928400Y-104736900D03*
D17*
X248007947Y-108736854D02*
X248818853Y-107276946D01*
X242468676Y-109816228D02*
X242508124Y-109237572D01*
D15*
X256914400Y-161886900D03*
D16*
X251834400Y-161886900D03*
D20*
X259916832Y-166061693D02*
X260921968Y-164252107D01*
D25*
X254357672Y-167215650D02*
X254431128Y-166138150D01*
D18*
X225990400Y-168871900D03*
X202114400Y-168871900D03*
D19*
X225990400Y-153631900D03*
X202114400Y-153631900D03*
D15*
X187858400Y-104736900D03*
D16*
X192938400Y-104736900D03*
X182778400Y-104736900D03*
D17*
X190857947Y-108736854D02*
X191668853Y-107276946D01*
X185318676Y-109816228D02*
X185358124Y-109237572D01*
D15*
X254533400Y-85686900D03*
D16*
X259613400Y-85686900D03*
X249453400Y-85686900D03*
D17*
X257532947Y-89686854D02*
X258343853Y-88226946D01*
X251993676Y-90766228D02*
X252033124Y-90187572D01*
D15*
X292633400Y-85686900D03*
D16*
X297713400Y-85686900D03*
X287553400Y-85686900D03*
D17*
X295632947Y-89686854D02*
X296443853Y-88226946D01*
X290093676Y-90766228D02*
X290133124Y-90187572D01*
D13*
X351053400Y-99656900D03*
D14*
X348513400Y-99656900D03*
D15*
X330733400Y-142836900D03*
D16*
X335813400Y-142836900D03*
X325653400Y-142836900D03*
D17*
X333732947Y-146836854D02*
X334543853Y-145376946D01*
X328193676Y-147916228D02*
X328233124Y-147337572D01*
D15*
X304539400Y-142836900D03*
D16*
X309619400Y-142836900D03*
X299459400Y-142836900D03*
D17*
X307538947Y-146836854D02*
X308349853Y-145376946D01*
X301999676Y-147916228D02*
X302039124Y-147337572D01*
D15*
X278346400Y-142836900D03*
D16*
X283426400Y-142836900D03*
X273266400Y-142836900D03*
D17*
X281345947Y-146836854D02*
X282156853Y-145376946D01*
X275806676Y-147916228D02*
X275846124Y-147337572D01*
D15*
X221196400Y-142836900D03*
D16*
X226276400Y-142836900D03*
X216116400Y-142836900D03*
D17*
X224195947Y-146836854D02*
X225006853Y-145376946D01*
X218656676Y-147916228D02*
X218696124Y-147337572D01*
D15*
X202146400Y-142836900D03*
D16*
X207226400Y-142836900D03*
X197066400Y-142836900D03*
D17*
X205145947Y-146836854D02*
X205956853Y-145376946D01*
X199606676Y-147916228D02*
X199646124Y-147337572D01*
D15*
X240245400Y-142836900D03*
D16*
X245325400Y-142836900D03*
X235165400Y-142836900D03*
D17*
X243244947Y-146836854D02*
X244055853Y-145376946D01*
X237705676Y-147916228D02*
X237745124Y-147337572D01*
D15*
X259295400Y-142836900D03*
D16*
X264375400Y-142836900D03*
X254215400Y-142836900D03*
D17*
X262294947Y-146836854D02*
X263105853Y-145376946D01*
X256755676Y-147916228D02*
X256795124Y-147337572D01*
D15*
X211671400Y-123786900D03*
D16*
X216751400Y-123786900D03*
X206591400Y-123786900D03*
D17*
X214670947Y-127786854D02*
X215481853Y-126326946D01*
X209131676Y-128866228D02*
X209171124Y-128287572D01*
D15*
X230721400Y-123786900D03*
D16*
X235801400Y-123786900D03*
X225641400Y-123786900D03*
D17*
X233720947Y-127786854D02*
X234531853Y-126326946D01*
X228181676Y-128866228D02*
X228221124Y-128287572D01*
D15*
X249771400Y-123786900D03*
D16*
X254851400Y-123786900D03*
X244691400Y-123786900D03*
D17*
X252770947Y-127786854D02*
X253581853Y-126326946D01*
X247231676Y-128866228D02*
X247271124Y-128287572D01*
D15*
X287870400Y-123786900D03*
D16*
X292950400Y-123786900D03*
X282790400Y-123786900D03*
D17*
X290869947Y-127786854D02*
X291680853Y-126326946D01*
X285330676Y-128866228D02*
X285370124Y-128287572D01*
D15*
X225958400Y-104736900D03*
D16*
X231038400Y-104736900D03*
X220878400Y-104736900D03*
D17*
X228957947Y-108736854D02*
X229768853Y-107276946D01*
X223418676Y-109816228D02*
X223458124Y-109237572D01*
D15*
X264058400Y-104736900D03*
D16*
X269138400Y-104736900D03*
X258978400Y-104736900D03*
D17*
X267057947Y-108736854D02*
X267868853Y-107276946D01*
X261518676Y-109816228D02*
X261558124Y-109237572D01*
D15*
X311683400Y-85686900D03*
D16*
X316763400Y-85686900D03*
X306603400Y-85686900D03*
D17*
X314682947Y-89686854D02*
X315493853Y-88226946D01*
X309143676Y-90766228D02*
X309183124Y-90187572D01*
D15*
X283108400Y-104736900D03*
D16*
X288188400Y-104736900D03*
X278028400Y-104736900D03*
D17*
X286107947Y-108736854D02*
X286918853Y-107276946D01*
X280568676Y-109816228D02*
X280608124Y-109237572D01*
D15*
X197383400Y-85686900D03*
D16*
X202463400Y-85686900D03*
X192303400Y-85686900D03*
D17*
X200382947Y-89686854D02*
X201193853Y-88226946D01*
X194843676Y-90766228D02*
X194883124Y-90187572D01*
D15*
X216433400Y-85686900D03*
D16*
X221513400Y-85686900D03*
X211353400Y-85686900D03*
D17*
X219432947Y-89686854D02*
X220243853Y-88226946D01*
X213893676Y-90766228D02*
X213933124Y-90187572D01*
D15*
X235483400Y-85686900D03*
D16*
X240563400Y-85686900D03*
X230403400Y-85686900D03*
D17*
X238482947Y-89686854D02*
X239293853Y-88226946D01*
X232943676Y-90766228D02*
X232983124Y-90187572D01*
D13*
X289140400Y-118706900D03*
D14*
X286600400Y-118706900D03*
D13*
X231991400Y-118706900D03*
D14*
X229451400Y-118706900D03*
D13*
X303428400Y-99656900D03*
D14*
X300888400Y-99656900D03*
D13*
X246278400Y-99656900D03*
D14*
X243738400Y-99656900D03*
D13*
X312953400Y-80606900D03*
D14*
X310413400Y-80606900D03*
D13*
X255803400Y-80606900D03*
D14*
X253263400Y-80606900D03*
D13*
X332003400Y-156806900D03*
D14*
X329463400Y-156806900D03*
D13*
X241515400Y-137756900D03*
D14*
X238975400Y-137756900D03*
D13*
X305809400Y-137756900D03*
D14*
X303269400Y-137756900D03*
D13*
X312953400Y-156806900D03*
D14*
X310413400Y-156806900D03*
D13*
X281997400Y-156806900D03*
D14*
X279457400Y-156806900D03*
D13*
X293903400Y-80606900D03*
D14*
X291363400Y-80606900D03*
D13*
X351053400Y-156806900D03*
D14*
X348513400Y-156806900D03*
D13*
X284378400Y-99656900D03*
D14*
X281838400Y-99656900D03*
D13*
X270091400Y-118706900D03*
D14*
X267551400Y-118706900D03*
D13*
X222466400Y-137756900D03*
D14*
X219926400Y-137756900D03*
D13*
X351053400Y-118706900D03*
D14*
X348513400Y-118706900D03*
D13*
X279616400Y-137756900D03*
D14*
X277076400Y-137756900D03*
D13*
X217703400Y-80606900D03*
D14*
X215163400Y-80606900D03*
D13*
X351053400Y-137756900D03*
D14*
X348513400Y-137756900D03*
D13*
X293903400Y-156806900D03*
D14*
X291363400Y-156806900D03*
D13*
X208178400Y-99656900D03*
D14*
X205638400Y-99656900D03*
D13*
X351053400Y-80606900D03*
D14*
X348513400Y-80606900D03*
D13*
X193890400Y-118706900D03*
D14*
X191350400Y-118706900D03*
D13*
X332003400Y-80606900D03*
D14*
X329463400Y-80606900D03*
D13*
X203416400Y-137756900D03*
D14*
X200876400Y-137756900D03*
D13*
X327240400Y-99656900D03*
D14*
X324700400Y-99656900D03*
D13*
X260565400Y-137756900D03*
D14*
X258025400Y-137756900D03*
D13*
X332003400Y-137756900D03*
D14*
X329463400Y-137756900D03*
D15*
X268821400Y-123786900D03*
D16*
X273901400Y-123786900D03*
X263741400Y-123786900D03*
D17*
X271820947Y-127786854D02*
X272631853Y-126326946D01*
X266281676Y-128866228D02*
X266321124Y-128287572D01*
D15*
X206908400Y-104666900D03*
D16*
X211988400Y-104666900D03*
X201828400Y-104666900D03*
D17*
X209907947Y-108666854D02*
X210718853Y-107206946D01*
X204368676Y-109746228D02*
X204408124Y-109167572D01*
D13*
X251041400Y-118706900D03*
D14*
X248501400Y-118706900D03*
D22*
X224180400Y-114515900D03*
X226720400Y-114515900D03*
X229260400Y-114515900D03*
X231800400Y-114515900D03*
X234340400Y-114515900D03*
X236880400Y-114515900D03*
X239420400Y-114515900D03*
X241960400Y-114515900D03*
X244500400Y-114515900D03*
X247040400Y-114515900D03*
X249580400Y-114515900D03*
X257200400Y-114515900D03*
X259740400Y-114515900D03*
X262280400Y-114515900D03*
X264820400Y-114515900D03*
D15*
X302158400Y-104736900D03*
D16*
X307238400Y-104736900D03*
X297078400Y-104736900D03*
D17*
X305157947Y-108736854D02*
X305968853Y-107276946D01*
X299618676Y-109816228D02*
X299658124Y-109237572D01*
D15*
X349783400Y-142836900D03*
D16*
X354863400Y-142836900D03*
X344703400Y-142836900D03*
D17*
X352782947Y-146836854D02*
X353593853Y-145376946D01*
X347243676Y-147916228D02*
X347283124Y-147337572D01*
D15*
X349783400Y-85686900D03*
D16*
X354863400Y-85686900D03*
X344703400Y-85686900D03*
D17*
X352782947Y-89686854D02*
X353593853Y-88226946D01*
X347243676Y-90766228D02*
X347283124Y-90187572D01*
D15*
X330733400Y-85686900D03*
D16*
X335813400Y-85686900D03*
X325653400Y-85686900D03*
D17*
X333732947Y-89686854D02*
X334543853Y-88226946D01*
X328193676Y-90766228D02*
X328233124Y-90187572D01*
D15*
X349783400Y-104736900D03*
D16*
X354863400Y-104736900D03*
X344703400Y-104736900D03*
D17*
X352782947Y-108736854D02*
X353593853Y-107276946D01*
X347243676Y-109816228D02*
X347283124Y-109237572D01*
D15*
X325970400Y-104863900D03*
D16*
X331050400Y-104863900D03*
X320890400Y-104863900D03*
D17*
X328969947Y-108863854D02*
X329780853Y-107403946D01*
X323430676Y-109943228D02*
X323470124Y-109364572D01*
D15*
X349783400Y-123786900D03*
D16*
X354863400Y-123786900D03*
X344703400Y-123786900D03*
D17*
X352782947Y-127786854D02*
X353593853Y-126326946D01*
X347243676Y-128866228D02*
X347283124Y-128287572D01*
D15*
X318827400Y-123786900D03*
D16*
X323907400Y-123786900D03*
X313747400Y-123786900D03*
D17*
X321826947Y-127786854D02*
X322637853Y-126326946D01*
X316287676Y-128866228D02*
X316327124Y-128287572D01*
D15*
X192620400Y-123786900D03*
D16*
X197700400Y-123786900D03*
X187540400Y-123786900D03*
D17*
X195619947Y-127786854D02*
X196430853Y-126326946D01*
X190080676Y-128866228D02*
X190120124Y-128287572D01*
D15*
X349783400Y-161886900D03*
D16*
X354863400Y-161886900D03*
X344703400Y-161886900D03*
D17*
X352782947Y-165886854D02*
X353593853Y-164426946D01*
X347243676Y-166966228D02*
X347283124Y-166387572D01*
D15*
X330733400Y-161886900D03*
D16*
X335813400Y-161886900D03*
X325653400Y-161886900D03*
D17*
X333732947Y-165886854D02*
X334543853Y-164426946D01*
X328193676Y-166966228D02*
X328233124Y-166387572D01*
D15*
X311683400Y-161886900D03*
D16*
X316763400Y-161886900D03*
X306603400Y-161886900D03*
D17*
X314682947Y-165886854D02*
X315493853Y-164426946D01*
X309143676Y-166966228D02*
X309183124Y-166387572D01*
D15*
X249771400Y-161886900D03*
D17*
X252048041Y-167067194D02*
X253504759Y-164444606D01*
D15*
X214052400Y-161886900D03*
D16*
X219132400Y-161886900D03*
X208972400Y-161886900D03*
D17*
X216348041Y-167067194D02*
X217804759Y-164444606D01*
X211512676Y-166966228D02*
X211552124Y-166387572D01*
D15*
X321208400Y-85686900D03*
D16*
X326288400Y-85686900D03*
X316128400Y-85686900D03*
D17*
X324207947Y-89686854D02*
X325018853Y-88226946D01*
X318668676Y-90766228D02*
X318708124Y-90187572D01*
D15*
X306920400Y-123786900D03*
D16*
X312000400Y-123786900D03*
X301840400Y-123786900D03*
D17*
X309919947Y-127786854D02*
X310730853Y-126326946D01*
X304380676Y-128866228D02*
X304420124Y-128287572D01*
D15*
X328352400Y-114261900D03*
D16*
X328352400Y-119341900D03*
D17*
X332352354Y-111262353D02*
X330892446Y-110451447D01*
X333431728Y-116801624D02*
X332853072Y-116762176D01*
D18*
X309270400Y-78701900D03*
X333146400Y-78701900D03*
D19*
X309270400Y-93941900D03*
X333146400Y-93941900D03*
D18*
X330765400Y-130771900D03*
X306889400Y-130771900D03*
D19*
X330765400Y-115531900D03*
X306889400Y-115531900D03*
D13*
X320097400Y-118706900D03*
D14*
X317557400Y-118706900D03*
D13*
X274853400Y-80606900D03*
D14*
X272313400Y-80606900D03*
D13*
X265328400Y-99656900D03*
D14*
X262788400Y-99656900D03*
D13*
X260565400Y-156806900D03*
D14*
X258025400Y-156806900D03*
D13*
X236753400Y-80606900D03*
D14*
X234213400Y-80606900D03*
D13*
X227228400Y-99656900D03*
D14*
X224688400Y-99656900D03*
D13*
X212941400Y-118706900D03*
D14*
X210401400Y-118706900D03*
D13*
X220084400Y-156806900D03*
D14*
X217544400Y-156806900D03*
D13*
X189128400Y-99656900D03*
D14*
X186588400Y-99656900D03*
D13*
X198653400Y-80606900D03*
D14*
X196113400Y-80606900D03*
D13*
X322478400Y-80606900D03*
D14*
X319938400Y-80606900D03*
D13*
X308190400Y-118706900D03*
D14*
X305650400Y-118706900D03*
D13*
X323272400Y-115531900D03*
D14*
X323272400Y-112991900D03*
D13*
X277076400Y-156806900D03*
D14*
X279616400Y-156806900D03*
D13*
X274853400Y-156806900D03*
D14*
X272313400Y-156806900D03*
D13*
X255803400Y-156806900D03*
D14*
X253263400Y-156806900D03*
D13*
X255644400Y-156806900D03*
D14*
X258184400Y-156806900D03*
D13*
X212782400Y-156806900D03*
D14*
X215322400Y-156806900D03*
D13*
X315334400Y-137756900D03*
D14*
X312794400Y-137756900D03*
D15*
X314064400Y-142836900D03*
D16*
X319144400Y-142836900D03*
X308984400Y-142836900D03*
D17*
X317063947Y-146836854D02*
X317874853Y-145376946D01*
X311524676Y-147916228D02*
X311564124Y-147337572D01*
D18*
X302126400Y-135851900D03*
X326002400Y-135851900D03*
D19*
X302126400Y-151091900D03*
X326002400Y-151091900D03*
D23*
X291566600Y-142938500D03*
D18*
X335337400Y-102323900D03*
X335337400Y-126199900D03*
D19*
X320097400Y-102323900D03*
X320097400Y-126199900D03*
D24*
X311558400Y-70055900D03*
X295758400Y-70055900D03*
D13*
X329622400Y-118706900D03*
D14*
X327082400Y-118706900D03*
D15*
X328352400Y-123786900D03*
D16*
X333432400Y-123786900D03*
X323272400Y-123786900D03*
D17*
X331351947Y-127786854D02*
X332162853Y-126326946D01*
X325812676Y-128866228D02*
X325852124Y-128287572D01*
D26*
X279786400Y-60274200D03*
X288766400Y-60274200D03*
X280146400Y-66224200D03*
X288406400Y-66224200D03*
D27*
X280676400Y-67474200D03*
D28*
X287876400Y-67474200D03*
D29*
X281876400Y-66124200D03*
X283476400Y-66124200D03*
X286676400Y-66124200D03*
X285876400Y-66124200D03*
X285076400Y-66124200D03*
X282676400Y-66124200D03*
X281476400Y-66824200D03*
X283076400Y-66824200D03*
X283876400Y-66824200D03*
X284676400Y-66824200D03*
X285476400Y-66824200D03*
X287076400Y-66824200D03*
D15*
X290252400Y-161886900D03*
D16*
X295332400Y-161886900D03*
X285172400Y-161886900D03*
D17*
X287512676Y-166966228D02*
X287552124Y-166387572D01*
D33*
X294170400Y-164426900D03*
D34*
X292860400Y-165886900D03*
D15*
X280727400Y-161886900D03*
D16*
X285807400Y-161886900D03*
X275647400Y-161886900D03*
D17*
X278187676Y-166966228D02*
X278227124Y-166387572D01*
D33*
X284745400Y-164226900D03*
X283235400Y-165886900D03*
D15*
X242627400Y-161886900D03*
D16*
X237547400Y-161886900D03*
D21*
X245179603Y-166910372D02*
X246573197Y-164401428D01*
D17*
X240087676Y-166966228D02*
X240127124Y-166387572D01*
D15*
X247389400Y-161886900D03*
D16*
X252469400Y-161886900D03*
D20*
X250573832Y-166061693D02*
X251578968Y-164252107D01*
D13*
X269932400Y-156806900D03*
D14*
X272472400Y-156806900D03*
D13*
X248659400Y-156806900D03*
D14*
X246119400Y-156806900D03*
D35*
X190500000Y-81100000D03*
X190500000Y-81900000D03*
X190500000Y-80300000D03*
X190500000Y-79500000D03*
X190500000Y-82700000D03*
X190500000Y-78700000D03*
X190500000Y-83500000D03*
X190500000Y-77900000D03*
X184500000Y-81100000D03*
X184500000Y-81900000D03*
X184500000Y-80300000D03*
X184500000Y-79500000D03*
X184500000Y-82700000D03*
X184500000Y-78700000D03*
X184500000Y-83500000D03*
X184500000Y-77900000D03*
M02*
